<svg xmlns="http://www.w3.org/2000/svg" viewBox="0 0 1125.62 263.1"><defs><style>.cls-1,.cls-18,.cls-19,.cls-2,.cls-20,.cls-21,.cls-22,.cls-23,.cls-24,.cls-25,.cls-26,.cls-27,.cls-4{fill:none;}.cls-1,.cls-18,.cls-19,.cls-2,.cls-20,.cls-21,.cls-22,.cls-23,.cls-24,.cls-25,.cls-26,.cls-27,.cls-28{stroke:#1d1d1b;stroke-miterlimit:10;}.cls-1{stroke-width:0.5px;}.cls-2{stroke-width:2.15px;}.cls-11,.cls-12,.cls-13,.cls-14,.cls-15,.cls-3,.cls-5{isolation:isolate;}.cls-15,.cls-3{font-size:17.01px;}.cls-11,.cls-12,.cls-13,.cls-14,.cls-15,.cls-16,.cls-3,.cls-5{fill:#010101;}.cls-3{font-family:OpusSpecialStd, Opus Special Std;}.cls-5{font-size:10.23px;font-family:Calibri;}.cls-6{letter-spacing:-0.01em;}.cls-7{letter-spacing:0em;}.cls-8{letter-spacing:-0.07em;}.cls-9{letter-spacing:-0.03em;}.cls-10{letter-spacing:-0.01em;}.cls-11{font-size:17.01px;}.cls-11,.cls-12,.cls-13,.cls-14,.cls-15{font-family:OpusStd, Opus Std;}.cls-12{font-size:17.01px;}.cls-13{font-size:17.01px;}.cls-14{font-size:17.01px;}.cls-16{fill-rule:evenodd;}.cls-17{letter-spacing:-0.01em;}.cls-18{stroke-width:4px;}.cls-20{stroke-dasharray:5.92 5.92;}.cls-21{stroke-dasharray:6.06 6.06;}.cls-22{stroke-dasharray:6.15 6.15;}.cls-23{stroke-dasharray:5.75 5.75;}.cls-24{stroke-dasharray:6.42 6.42;}.cls-25{stroke-dasharray:5.84 5.84;}.cls-26{stroke-dasharray:6.23 6.23;}.cls-27{stroke-dasharray:5.89 5.89;}.cls-28{fill:#fff;stroke-width:2px;}.cls-29{font-size:15px;fill:#1d1d1b;font-family:Calibri-Light, Calibri;font-weight:300;}</style></defs><title>Prima pagina</title><g id="Livello_1" data-name="Livello 1"><line class="cls-1" x1="59.81" y1="12.07" x2="59.81" y2="188.58"/><line class="cls-2" x1="56.36" y1="12.07" x2="56.36" y2="188.58"/><text class="cls-3" transform="translate(55.29 12.07)"></text><text class="cls-3" transform="translate(55.29 188.58)"></text><line class="cls-4" x1="1119.53" y1="12.07" x2="1119.53" y2="29.08"/><line class="cls-4" x1="1119.53" y1="65.24" x2="1119.53" y2="82.25"/><line class="cls-4" x1="1119.53" y1="118.4" x2="1119.53" y2="135.41"/><line class="cls-4" x1="1119.53" y1="171.57" x2="1119.53" y2="188.58"/><text class="cls-5" transform="translate(8.51 24.42)">SOPRANO</text><text class="cls-5" transform="translate(0 77.59)"><tspan class="cls-6">C</tspan><tspan class="cls-7" x="5.37" y="0">ONTRA</tspan><tspan class="cls-8" x="35.22" y="0">L</tspan><tspan class="cls-9" x="38.77" y="0">T</tspan><tspan x="43.47" y="0">O</tspan></text><text class="cls-5" transform="translate(16.22 130.76)">TENORE</text><text class="cls-5" transform="translate(22.6 183.92)"><tspan class="cls-10">B</tspan><tspan x="5.47" y="0">ASSO</tspan></text><text class="cls-11" transform="translate(552.12 32.27) rotate(-2.27)"></text><text class="cls-11" transform="translate(555.18 32.27) rotate(-2.27)"></text><text class="cls-11" transform="translate(558.37 32.14) rotate(-2.27)"></text><text class="cls-11" transform="translate(561.56 32.01) rotate(-2.27)"></text><text class="cls-11" transform="translate(564.75 31.87) rotate(-2.27)"></text><text class="cls-11" transform="translate(567.94 31.74) rotate(-2.27)"></text><text class="cls-11" transform="translate(571.13 31.61) rotate(-2.27)"></text><text class="cls-11" transform="translate(574.32 31.48) rotate(-2.27)"></text><text class="cls-11" transform="translate(577.51 31.34) rotate(-2.27)"></text><text class="cls-11" transform="translate(580.7 31.21) rotate(-2.27)"></text><text class="cls-11" transform="translate(583.89 31.08) rotate(-2.27)"></text><text class="cls-11" transform="translate(587.08 30.94) rotate(-2.27)"></text><text class="cls-11" transform="translate(590.27 30.81) rotate(-2.27)"></text><text class="cls-11" transform="translate(593.46 30.68) rotate(-2.27)"></text><text class="cls-11" transform="translate(596.65 30.54) rotate(-2.27)"></text><text class="cls-11" transform="translate(599.84 30.41) rotate(-2.27)"></text><text class="cls-11" transform="translate(603.03 30.28) rotate(-2.27)"></text><text class="cls-11" transform="translate(606.22 30.15) rotate(-2.27)"></text><text class="cls-11" transform="translate(609.41 30.01) rotate(-2.27)"></text><text class="cls-11" transform="translate(612.6 29.88) rotate(-2.27)"></text><text class="cls-12" transform="translate(353.02 85.44) rotate(-2.43)"></text><text class="cls-12" transform="translate(356.08 85.31) rotate(-2.43)"></text><text class="cls-12" transform="translate(359.27 85.17) rotate(-2.43)"></text><text class="cls-12" transform="translate(362.45 85.04) rotate(-2.43)"></text><text class="cls-12" transform="translate(365.65 84.91) rotate(-2.43)"></text><text class="cls-12" transform="translate(368.84 84.77) rotate(-2.43)"></text><text class="cls-12" transform="translate(372.02 84.64) rotate(-2.43)"></text><text class="cls-12" transform="translate(375.22 84.51) rotate(-2.43)"></text><text class="cls-12" transform="translate(378.4 84.38) rotate(-2.43)"></text><text class="cls-12" transform="translate(381.59 84.24) rotate(-2.43)"></text><text class="cls-12" transform="translate(384.79 84.11) rotate(-2.43)"></text><text class="cls-12" transform="translate(387.97 83.98) rotate(-2.43)"></text><text class="cls-12" transform="translate(391.17 83.84) rotate(-2.43)"></text><text class="cls-12" transform="translate(394.35 83.71) rotate(-2.43)"></text><text class="cls-12" transform="translate(397.54 83.58) rotate(-2.43)"></text><text class="cls-12" transform="translate(400.74 83.44) rotate(-2.43)"></text><text class="cls-12" transform="translate(403.92 83.31) rotate(-2.43)"></text><text class="cls-12" transform="translate(407.11 83.18) rotate(-2.43)"></text><text class="cls-12" transform="translate(410.3 83.05) rotate(-2.43)"></text><text class="cls-12" transform="matrix(0.99, 0.11, -0.11, 0.99, 675.47, 83.31)"></text><text class="cls-12" transform="matrix(0.99, 0.11, -0.11, 0.99, 678.52, 83.71)"></text><text class="cls-12" transform="matrix(0.99, 0.11, -0.11, 0.99, 681.71, 84.11)"></text><text class="cls-12" transform="matrix(0.99, 0.11, -0.11, 0.99, 684.9, 84.51)"></text><text class="cls-12" transform="matrix(0.99, 0.11, -0.11, 0.99, 688.09, 84.77)"></text><text class="cls-12" transform="matrix(0.99, 0.11, -0.11, 0.99, 691.29, 85.17)"></text><text class="cls-12" transform="matrix(0.99, 0.11, -0.11, 0.99, 694.47, 85.57)"></text><text class="cls-12" transform="matrix(0.99, 0.11, -0.11, 0.99, 697.53, 85.84)"></text><text class="cls-12" transform="matrix(0.99, 0.11, -0.11, 0.99, 700.72, 86.24)"></text><text class="cls-12" transform="matrix(0.99, 0.11, -0.11, 0.99, 703.91, 86.64)"></text><text class="cls-12" transform="matrix(0.99, 0.11, -0.11, 0.99, 707.1, 86.9)"></text><text class="cls-12" transform="matrix(0.99, 0.11, -0.11, 0.99, 710.29, 87.3)"></text><text class="cls-12" transform="matrix(0.99, 0.11, -0.11, 0.99, 713.48, 87.7)"></text><text class="cls-12" transform="matrix(0.99, 0.11, -0.11, 0.99, 716.67, 88.1)"></text><text class="cls-12" transform="matrix(0.99, 0.11, -0.11, 0.99, 719.73, 88.36)"></text><text class="cls-12" transform="matrix(0.99, 0.11, -0.11, 0.99, 722.92, 88.76)"></text><text class="cls-12" transform="matrix(0.99, 0.11, -0.11, 0.99, 726.11, 89.16)"></text><text class="cls-12" transform="matrix(0.99, 0.11, -0.11, 0.99, 729.3, 89.43)"></text><text class="cls-12" transform="matrix(0.99, 0.11, -0.11, 0.99, 732.49, 89.82)"></text><text class="cls-13" transform="translate(577.83 121.86) rotate(2.57)"></text><text class="cls-13" transform="translate(581.02 121.99) rotate(2.57)"></text><text class="cls-13" transform="translate(584.21 122.12) rotate(2.57)"></text><text class="cls-13" transform="translate(587.4 122.26) rotate(2.57)"></text><text class="cls-13" transform="translate(590.59 122.39) rotate(2.57)"></text><text class="cls-13" transform="translate(593.78 122.52) rotate(2.57)"></text><text class="cls-13" transform="translate(596.97 122.65) rotate(2.57)"></text><text class="cls-13" transform="translate(600.15 122.79) rotate(2.57)"></text><text class="cls-13" transform="translate(603.35 122.92) rotate(2.57)"></text><text class="cls-13" transform="translate(606.53 123.05) rotate(2.57)"></text><text class="cls-13" transform="translate(609.73 123.19) rotate(2.57)"></text><text class="cls-13" transform="translate(612.92 123.32) rotate(2.57)"></text><text class="cls-13" transform="translate(616.11 123.45) rotate(2.57)"></text><text class="cls-13" transform="translate(619.3 123.72) rotate(2.57)"></text><text class="cls-14" transform="translate(775.02 166.25) rotate(6.04)"></text><text class="cls-14" transform="translate(778.07 166.65) rotate(6.04)"></text><text class="cls-14" transform="translate(781.27 167.05) rotate(6.04)"></text><text class="cls-14" transform="translate(784.45 167.31) rotate(6.04)"></text><text class="cls-14" transform="translate(787.64 167.71) rotate(6.04)"></text><text class="cls-14" transform="translate(790.84 167.98) rotate(6.04)"></text><text class="cls-14" transform="translate(794.02 168.38) rotate(6.04)"></text><text class="cls-14" transform="translate(797.22 168.64) rotate(6.04)"></text><text class="cls-14" transform="translate(800.27 169.04) rotate(6.04)"></text><text class="cls-14" transform="translate(803.46 169.31) rotate(6.04)"></text><text class="cls-14" transform="translate(806.65 169.71) rotate(6.04)"></text><text class="cls-14" transform="translate(809.84 169.97) rotate(6.04)"></text><text class="cls-14" transform="translate(813.03 170.37) rotate(6.04)"></text><text class="cls-14" transform="translate(816.22 170.64) rotate(6.04)"></text><text class="cls-14" transform="translate(819.41 171.04) rotate(6.04)"></text><text class="cls-14" transform="translate(822.6 171.3) rotate(6.04)"></text><text class="cls-14" transform="translate(825.66 171.7) rotate(6.04)"></text><text class="cls-14" transform="translate(828.85 171.97) rotate(6.04)"></text><text class="cls-14" transform="translate(832.04 172.36) rotate(6.04)"></text><text class="cls-14" transform="translate(835.23 172.63) rotate(6.04)"></text><line class="cls-1" x1="59.55" y1="29.08" x2="1119.8" y2="29.08"/><line class="cls-1" x1="59.55" y1="24.83" x2="1119.8" y2="24.83"/><line class="cls-1" x1="59.55" y1="20.58" x2="1119.8" y2="20.58"/><line class="cls-1" x1="59.55" y1="16.32" x2="1119.8" y2="16.32"/><line class="cls-1" x1="59.55" y1="12.07" x2="1119.8" y2="12.07"/><text class="cls-15" transform="translate(62.74 24.83)"></text><path class="cls-16" d="M335.62,210H558.78v-2.12H335.62V210" transform="translate(-28.19 -179.89)"/><path class="cls-16" d="M657.54,210h378.17v-2.12H657.54V210" transform="translate(-28.19 -179.89)"/><path class="cls-16" d="M1063.59,207.91h77.75v-2.13h-77.75v2.13" transform="translate(-28.19 -179.89)"/><line class="cls-1" x1="59.55" y1="82.25" x2="1119.8" y2="82.25"/><line class="cls-1" x1="59.55" y1="78" x2="1119.8" y2="78"/><line class="cls-1" x1="59.55" y1="73.74" x2="1119.8" y2="73.74"/><line class="cls-1" x1="59.55" y1="69.49" x2="1119.8" y2="69.49"/><line class="cls-1" x1="59.55" y1="65.24" x2="1119.8" y2="65.24"/><text class="cls-15" transform="translate(62.74 78)"></text><path class="cls-16" d="M136.12,263.2H361.4v-2.13H136.12v2.13" transform="translate(-28.19 -179.89)"/><path class="cls-16" d="M459.89,263.2H693v-2.13H459.89v2.13" transform="translate(-28.19 -179.89)"/><path class="cls-16" d="M783.41,270H957.94v-2.13H783.41V270" transform="translate(-28.19 -179.89)"/><path class="cls-16" d="M980.69,267.45h160.38v-2.12H980.69v2.12" transform="translate(-28.19 -179.89)"/><line class="cls-1" x1="59.55" y1="135.41" x2="1119.8" y2="135.41"/><line class="cls-1" x1="59.55" y1="131.16" x2="1119.8" y2="131.16"/><line class="cls-1" x1="59.55" y1="126.91" x2="1119.8" y2="126.91"/><line class="cls-1" x1="59.55" y1="122.65" x2="1119.8" y2="122.65"/><line class="cls-1" x1="59.55" y1="118.4" x2="1119.8" y2="118.4"/><text class="cls-15" transform="translate(62.74 131.16)"></text><text class="cls-3" transform="translate(65.66 146.45)"></text><path class="cls-16" d="M680.11,303.61h461v-2.13h-461v2.13" transform="translate(-28.19 -179.89)"/><line class="cls-1" x1="59.55" y1="188.58" x2="1119.8" y2="188.58"/><line class="cls-1" x1="59.55" y1="184.33" x2="1119.8" y2="184.33"/><line class="cls-1" x1="59.55" y1="180.07" x2="1119.8" y2="180.07"/><line class="cls-1" x1="59.55" y1="175.82" x2="1119.8" y2="175.82"/><line class="cls-1" x1="59.55" y1="171.57" x2="1119.8" y2="171.57"/><text class="cls-15" transform="translate(62.74 175.82)"></text><path class="cls-16" d="M929.38,367.4H990v-2.12H929.38v2.12" transform="translate(-28.19 -179.89)"/><path class="cls-16" d="M883,352.52h257.58v-2.13H883v2.13" transform="translate(-28.19 -179.89)"/><path class="cls-16" d="M1005.41,365.14h135.53V363H1005.41v2.12" transform="translate(-28.19 -179.89)"/><text class="cls-15" transform="translate(295.87 29.08)"></text><text class="cls-15" transform="translate(544.68 31.21)"></text><text class="cls-15" transform="translate(539.23 31.21)"></text><text class="cls-15" transform="translate(619.38 29.08)"></text><text class="cls-15" transform="translate(1017.45 26.96)"></text><text class="cls-15" transform="translate(1012 26.96)"></text><text class="cls-15" transform="translate(96.76 82.25)"></text><text class="cls-15" transform="translate(345.58 84.38)"></text><text class="cls-15" transform="translate(340.13 84.38)"></text><text class="cls-15" transform="translate(420.27 82.25)"></text><text class="cls-15" transform="translate(669.09 82.25)"></text><line class="cls-1" x1="742.19" y1="86.5" x2="751.23" y2="86.5"/><text class="cls-15" transform="translate(743.78 88.63)"></text><line class="cls-1" x1="941.16" y1="86.5" x2="950.2" y2="86.5"/><text class="cls-15" transform="translate(943.19 86.5)"></text><text class="cls-15" transform="translate(936.24 86.5)"></text><text class="cls-15" transform="translate(568.39 120.53)"></text><text class="cls-15" transform="translate(641.09 122.65)"></text><text class="cls-15" transform="translate(635.64 122.65)"></text><line class="cls-1" x1="767.04" y1="167.31" x2="776.08" y2="167.31"/><text class="cls-15" transform="translate(768.64 165.19)"></text><text class="cls-15" transform="translate(762.13 165.19)"></text><text class="cls-15" transform="translate(843.34 171.57)"></text><text class="cls-15" transform="translate(893.05 186.45)"></text><text class="cls-15" transform="translate(967.74 184.33)"></text><text class="cls-12" transform="matrix(0.99, 0.11, -0.11, 0.99, 735.73, 90.09)"></text><text class="cls-13" transform="translate(622.46 123.72) rotate(2.57)"></text><text class="cls-13" transform="translate(625.65 123.85) rotate(2.57)"></text><text class="cls-13" transform="translate(628.84 124.12) rotate(2.57)"></text><text class="cls-5" transform="translate(42.05 252.42)">Se<tspan class="cls-17" x="9.79" y="0">c</tspan><tspan x="14.04" y="0">ondi</tspan></text></g><g id="Livello_2" data-name="Livello 2"><line class="cls-18" x1="96.76" y1="249.2" x2="1114.88" y2="249.26"/><g id="Secondi"><line class="cls-19" x1="1112.23" y1="12.18" x2="1112.24" y2="15.18"/><line class="cls-20" x1="1112.25" y1="21.11" x2="1112.87" y2="243.24"/><line class="cls-19" x1="1112.88" y1="246.2" x2="1112.89" y2="249.2"/><line class="cls-19" x1="1021.1" y1="91.66" x2="1021.11" y2="94.66"/><line class="cls-21" x1="1021.13" y1="100.72" x2="1021.63" y2="243.17"/><line class="cls-19" x1="1021.64" y1="246.2" x2="1021.65" y2="249.2"/><line class="cls-19" x1="970.79" y1="187.89" x2="970.81" y2="190.89"/><line class="cls-22" x1="970.83" y1="197.04" x2="970.99" y2="243.17"/><line class="cls-19" x1="971" y1="246.25" x2="971.01" y2="249.25"/><line class="cls-19" x1="945.58" y1="91.66" x2="945.59" y2="94.66"/><line class="cls-21" x1="945.61" y1="100.72" x2="946.11" y2="243.17"/><line class="cls-19" x1="946.12" y1="246.2" x2="946.13" y2="249.2"/><line class="cls-19" x1="895.72" y1="191.5" x2="895.73" y2="194.5"/><line class="cls-23" x1="895.75" y1="200.25" x2="895.9" y2="243.37"/><line class="cls-19" x1="895.91" y1="246.25" x2="895.92" y2="249.25"/><line class="cls-19" x1="771.34" y1="172.63" x2="771.35" y2="175.63"/><line class="cls-24" x1="771.38" y1="182.05" x2="771.59" y2="243.03"/><line class="cls-19" x1="771.6" y1="246.24" x2="771.61" y2="249.24"/><line class="cls-19" x1="672.29" y1="86.5" x2="672.3" y2="89.5"/><line class="cls-25" x1="672.32" y1="95.35" x2="672.84" y2="244.37"/><line class="cls-19" x1="672.86" y1="247.29" x2="672.87" y2="250.29"/><line class="cls-19" x1="571.16" y1="124.9" x2="571.17" y2="127.9"/><line class="cls-26" x1="571.19" y1="134.12" x2="571.58" y2="243.12"/><line class="cls-19" x1="571.59" y1="246.23" x2="571.6" y2="249.23"/><line class="cls-19" x1="348.66" y1="89.14" x2="348.67" y2="92.14"/><line class="cls-25" x1="348.69" y1="97.98" x2="349.21" y2="247.01"/><line class="cls-19" x1="349.22" y1="249.93" x2="349.24" y2="252.93"/><line class="cls-19" x1="547.86" y1="35.93" x2="547.87" y2="38.93"/><line class="cls-27" x1="547.9" y1="44.82" x2="548.59" y2="242.2"/><line class="cls-19" x1="548.6" y1="245.14" x2="548.61" y2="248.14"/><line class="cls-19" x1="348.66" y1="89.14" x2="348.67" y2="92.14"/><line class="cls-25" x1="348.69" y1="97.98" x2="349.21" y2="247.01"/><line class="cls-19" x1="349.22" y1="249.93" x2="349.24" y2="252.93"/><line class="cls-19" x1="299.06" y1="35.93" x2="299.07" y2="38.93"/><line class="cls-27" x1="299.09" y1="44.82" x2="299.79" y2="242.2"/><line class="cls-19" x1="299.8" y1="245.14" x2="299.81" y2="248.14"/><line class="cls-19" x1="99.11" y1="85.44" x2="99.12" y2="88.44"/><line class="cls-25" x1="99.14" y1="94.28" x2="99.67" y2="243.31"/><line class="cls-19" x1="99.68" y1="246.23" x2="99.69" y2="249.23"/><circle class="cls-28" cx="100.04" cy="250.35" r="11.74"/><circle class="cls-28" cx="299.59" cy="250.36" r="11.74"/><circle class="cls-28" cx="349.78" cy="249.28" r="11.74"/><circle class="cls-28" cx="548.24" cy="249.2" r="11.74"/><circle class="cls-28" cx="571.6" cy="249.23" r="11.74"/><circle class="cls-28" cx="672.58" cy="249.2" r="11.74"/><circle class="cls-28" cx="771.24" cy="249.24" r="11.74"/><circle class="cls-28" cx="895.82" cy="249.9" r="11.74"/><circle class="cls-28" cx="946.71" cy="249.24" r="11.74"/><circle class="cls-28" cx="971.01" cy="249.25" r="11.74"/><circle class="cls-28" cx="1021.74" cy="250.17" r="11.74"/><circle class="cls-28" cx="1112.88" cy="249.2" r="11.74"/></g><text class="cls-29" transform="translate(96.23 254.45)">0</text><text class="cls-29" transform="translate(295.79 254.47)">8</text><text class="cls-29" transform="translate(342.17 253.38)">10</text><text class="cls-29" transform="translate(541.1 254.45)">18</text><text class="cls-29" transform="translate(564.75 253.73)">19</text><text class="cls-29" transform="translate(664.66 253.74)">23</text><text class="cls-29" transform="translate(763.64 254.21)">27</text><text class="cls-29" transform="translate(888.94 253.73)">32</text><text class="cls-29" transform="translate(939.11 253.34)">34</text><text class="cls-29" transform="translate(963.86 253.34)">35</text><text class="cls-29" transform="translate(1014.13 254.27)">37</text><text class="cls-29" transform="translate(1106.34 252.42)">41</text></g></svg>