<svg xmlns="http://www.w3.org/2000/svg" width="1458" height="237" viewBox="0 0 1458 237" version="1.1">
	<path d="M 0 1.885 C 0 3.323, 0.461 3.760, 1.542 3.345 C 3.249 2.690, 3.039 0.846, 1.188 0.229 C 0.528 0.009, 0 0.746, 0 1.885 M 874.955 14.554 C 874.215 15.446, 874.045 17.030, 874.507 18.744 C 875.993 24.256, 875.104 32.412, 871.701 44.500 C 871.082 46.700, 870.518 49.850, 870.448 51.500 C 870.217 56.922, 866.749 75.434, 865.360 78.651 C 864.612 80.384, 864 83.337, 864 85.213 C 864 87.833, 863.314 89.131, 861.040 90.812 C 859.413 92.015, 857.597 93, 857.005 93 C 856.414 93, 854.885 93.685, 853.607 94.522 C 850.956 96.259, 838.166 98.077, 837.393 96.827 C 837.112 96.372, 835.420 96, 833.632 96 C 831.845 96, 829.509 95.339, 828.441 94.532 C 827.374 93.724, 825.801 93.049, 824.947 93.032 C 824.093 93.014, 821.492 91.601, 819.166 89.891 C 812.689 85.127, 810.147 78.783, 813.576 75.937 C 814.880 74.855, 815.301 74.870, 816.015 76.025 C 816.731 77.183, 817.224 77.107, 818.915 75.577 C 820.036 74.562, 820.758 73.418, 820.520 73.033 C 820.283 72.648, 820.631 72.295, 821.294 72.247 C 827.508 71.804, 838.568 68.871, 841.463 66.899 C 845.430 64.198, 846.090 62.482, 842.835 63.333 C 841.392 63.710, 839.697 63.081, 837.758 61.450 C 834.331 58.566, 833.706 58.491, 830.514 60.583 C 829.186 61.453, 827.064 62.296, 825.799 62.456 C 820.643 63.106, 812.326 67.283, 808.879 70.952 C 804.344 75.781, 803.329 80.470, 805.445 86.817 C 808.409 95.704, 818.828 103.582, 829 104.627 C 831.475 104.882, 834.120 105.302, 834.877 105.562 C 835.634 105.822, 836.759 105.639, 837.377 105.155 C 837.995 104.671, 841.231 104.003, 844.570 103.671 C 847.908 103.340, 851.958 102.381, 853.570 101.540 C 855.181 100.700, 857.028 100.010, 857.673 100.006 C 858.319 100.003, 860.211 98.852, 861.879 97.448 C 864.777 95.010, 865.023 94.969, 867.420 96.539 C 869.722 98.048, 870.189 98.052, 873.117 96.591 C 874.872 95.716, 876.871 95, 877.559 95 C 878.247 95, 880.566 93.537, 882.712 91.750 C 888.558 86.881, 893.732 84.332, 895.064 85.664 C 895.800 86.400, 895.845 87.382, 895.200 88.632 C 893.815 91.315, 891.881 98.805, 891.300 103.739 C 890.838 107.656, 891.036 108.112, 893.894 109.739 C 895.940 110.904, 896.989 112.279, 896.994 113.800 C 897.002 116.682, 899.162 120.931, 901.860 123.373 C 903.636 124.981, 904.855 125.141, 910.606 124.526 C 914.281 124.132, 917.786 123.392, 918.394 122.881 C 920.380 121.211, 936.439 111.792, 938.900 110.852 C 940.219 110.348, 943.415 108.165, 946 106 C 948.585 103.835, 951.893 101.611, 953.350 101.057 C 957.521 99.471, 956.660 97.648, 952.034 98.269 C 948.259 98.775, 936.194 103.977, 933 106.475 C 930.637 108.323, 916.271 114, 913.957 114 C 912.808 114, 910.985 114.473, 909.905 115.051 C 908.205 115.960, 907.750 115.646, 906.527 112.718 C 905.278 109.730, 905.314 108.701, 906.834 103.917 C 908.876 97.491, 910.707 94, 912.035 94 C 912.566 94, 913 94.666, 913 95.481 C 913 97.241, 916.096 98.139, 922.888 98.347 C 927.144 98.478, 928.310 98.074, 930.939 95.557 C 935.986 90.724, 936.728 84.876, 933.007 79.250 C 931.842 77.488, 930.573 77, 927.161 77 C 923.584 77, 922.287 77.551, 919.929 80.076 C 918.348 81.768, 916.606 82.875, 916.057 82.535 C 914.531 81.592, 909.223 84.721, 908.503 86.989 C 908.152 88.095, 907.446 89, 906.933 89 C 906.420 89, 906 89.675, 906 90.500 C 906 91.364, 905.097 92, 903.871 92 C 901.900 92, 901.791 91.636, 902.393 87.095 C 902.795 84.062, 902.592 81.199, 901.861 79.595 C 900.847 77.368, 900.048 77, 896.233 77 C 892.726 77, 890.922 77.686, 887.685 80.250 C 884.054 83.126, 880.617 84.835, 874.750 86.682 C 873.383 87.113, 873 86.649, 873 84.565 C 873 81.516, 876.206 64.337, 878.984 52.500 C 881.215 42.997, 882.979 28.935, 882.574 23.895 C 882.265 20.043, 879.402 14.368, 877.376 13.591 C 876.700 13.331, 875.610 13.765, 874.955 14.554 M 0 21.774 C 0 23.484, 0.449 25.159, 0.998 25.499 C 1.603 25.872, 1.864 24.909, 1.661 23.054 C 1.203 18.869, 0 17.943, 0 21.774 M 665.695 23.385 C 661.754 26.995, 661.256 28.608, 663.250 31.315 C 664.212 32.621, 665.192 32.829, 667.500 32.217 C 673.085 30.734, 674.733 31.671, 676.945 37.583 C 678.068 40.584, 678.877 43.593, 678.743 44.270 C 678.603 44.979, 679.554 45.500, 680.988 45.500 C 683.203 45.500, 683.560 44.952, 684.252 40.500 C 685.539 32.213, 683.498 23, 680.374 23 C 679.744 23, 677.940 22.328, 676.364 21.506 C 672.052 19.257, 669.761 19.661, 665.695 23.385 M 1046.354 23.750 C 1045.504 25.813, 1044.208 28.850, 1043.472 30.500 C 1042.737 32.150, 1041.855 36.859, 1041.512 40.964 C 1041.170 45.070, 1040.504 48.895, 1040.034 49.464 C 1039.564 50.034, 1038.887 52.300, 1038.529 54.500 C 1037.239 62.442, 1035.715 68.548, 1034.412 71 C 1028.897 81.371, 1027.244 88.197, 1029.435 91.541 C 1031.705 95.005, 1033.347 94.623, 1037.139 89.750 C 1038.958 87.412, 1040.970 85.169, 1041.610 84.763 C 1042.250 84.358, 1044.222 81.771, 1045.991 79.014 C 1048.331 75.367, 1050.439 73.457, 1053.731 72.001 C 1058.557 69.866, 1067.450 69.302, 1068.538 71.062 C 1068.899 71.646, 1070.297 72.543, 1071.646 73.055 C 1073.041 73.586, 1074.741 75.529, 1075.592 77.567 C 1077.057 81.072, 1076.938 82.702, 1074.816 88.240 L 1073.765 90.980 1071.069 88.712 C 1069.587 87.464, 1066.436 85.804, 1064.069 85.023 C 1060.079 83.706, 1059.663 83.740, 1058.382 85.492 C 1055.381 89.596, 1056.581 92.343, 1063.327 96.810 C 1070.419 101.506, 1071.806 101.733, 1077.500 99.122 C 1080.956 97.538, 1081.837 96.427, 1083.977 90.951 C 1087.609 81.661, 1087.312 78.169, 1082.394 72.325 C 1076.945 65.850, 1069.976 62.052, 1063.500 62.029 C 1057.095 62.006, 1052.175 63.392, 1047.574 66.514 C 1045.559 67.881, 1043.706 69, 1043.456 69 C 1042.358 69, 1043.239 64.901, 1046.034 57 C 1047.687 52.325, 1049.307 46.700, 1049.633 44.500 C 1049.959 42.300, 1050.625 39.742, 1051.113 38.816 C 1051.601 37.889, 1052 35.302, 1052 33.066 C 1052 30.830, 1052.480 29, 1053.067 29 C 1053.654 29, 1053.921 28.212, 1053.660 27.250 C 1053.399 26.288, 1052.910 24.262, 1052.574 22.750 C 1051.637 18.539, 1048.277 19.079, 1046.354 23.750 M 1329.362 23.500 C 1329.045 24.325, 1328.336 25, 1327.786 25 C 1326.420 25, 1316.477 35.704, 1314.864 38.910 C 1314.148 40.334, 1312.760 42.305, 1311.781 43.289 C 1309.469 45.611, 1309.520 48.255, 1311.918 50.425 C 1314.990 53.206, 1318.042 52.041, 1320.826 47.023 C 1322.193 44.561, 1323.883 41.974, 1324.583 41.274 C 1325.847 40.010, 1330 29.805, 1330 27.962 C 1330 27.433, 1330.450 27, 1331 27 C 1331.550 27, 1332 25.875, 1332 24.500 C 1332 21.763, 1330.279 21.110, 1329.362 23.500 M 2.290 29 C 2.002 30.100, 1.482 31, 1.133 31 C 0.785 31, 0.500 33.700, 0.500 37 C 0.500 41.968, 0.791 43, 2.191 43 C 4.111 43, 5.459 41.402, 4.197 40.622 C 3.737 40.337, 3.520 37.156, 3.714 33.552 C 4.057 27.190, 3.352 24.937, 2.290 29 M 1265.607 35.582 C 1264.672 38.019, 1264.887 41.812, 1266 42.500 C 1266.550 42.840, 1267 45.551, 1267 48.524 C 1267 52.845, 1267.388 54.137, 1268.934 54.965 C 1272.257 56.743, 1272.813 56.137, 1271.426 52.250 C 1269.504 46.863, 1269.651 45, 1272 45 C 1274.429 45, 1274.618 42.414, 1272.551 37.468 C 1271.458 34.852, 1270.502 34, 1268.658 34 C 1267.314 34, 1265.941 34.712, 1265.607 35.582 M 133.539 44.878 C 132.134 49.303, 138.112 54.081, 142.269 51.856 C 143.339 51.283, 144.585 51.194, 145.038 51.657 C 145.942 52.583, 141.401 67.473, 138.547 72.941 C 136.913 76.072, 134.885 81.437, 130.039 95.452 C 128.713 99.286, 128.565 101.037, 129.382 103.202 C 130.892 107.202, 133.382 106.713, 138.543 101.403 C 143.134 96.678, 144.985 92.585, 143.294 90.894 C 142.435 90.035, 150.177 66.875, 153.031 61.764 C 153.564 60.809, 154 58.446, 154 56.514 C 154 53.408, 154.298 53, 156.566 53 C 157.977 53, 159.984 53.456, 161.025 54.014 C 162.067 54.571, 171.150 55.233, 181.210 55.484 C 191.269 55.736, 204.387 56.199, 210.360 56.514 C 219.227 56.980, 221.659 56.798, 223.610 55.520 C 226.246 53.793, 226.908 48.980, 224.750 47.233 C 223.167 45.951, 182.058 45.676, 175.490 46.903 C 172.862 47.394, 169.539 47.441, 168.106 47.008 C 164.794 46.007, 151.762 44.244, 141.842 43.455 C 134.744 42.891, 134.136 42.995, 133.539 44.878 M 1.321 47.698 C 1.126 51.293, 1.114 51.277, 3.418 50.393 C 5.707 49.515, 5.558 44.081, 3.250 44.260 C 2.005 44.356, 1.448 45.347, 1.321 47.698 M 566.488 45.765 C 565.931 46.169, 562.781 50.207, 559.488 54.737 C 556.195 59.267, 551.475 65.725, 549 69.087 C 544.309 75.460, 540.799 80.985, 539.113 84.653 C 538.569 85.837, 537.620 87.117, 537.005 87.497 C 535.266 88.572, 530.793 99.017, 531.397 100.592 C 532.491 103.443, 534.072 102.412, 540.500 94.661 C 543.981 90.463, 546.089 90.114, 549.038 93.250 C 551.153 95.500, 555 103.008, 555 104.886 C 555 106.688, 556.880 107.089, 559.209 105.784 C 562.324 104.038, 562.722 103.341, 563.477 98.306 C 564.028 94.633, 564.751 93.551, 568.046 91.471 C 570.199 90.112, 572.271 89, 572.651 89 C 573.032 89, 574.135 88.283, 575.104 87.406 C 577.782 84.982, 576.364 83, 571.952 83 C 569.843 83, 567.879 82.613, 567.586 82.139 C 567.293 81.665, 568.180 76.828, 569.556 71.389 C 572.516 59.692, 573.507 49.815, 572.002 47.003 C 570.921 44.984, 568.357 44.408, 566.488 45.765 M 380.187 48.276 C 376.378 49.483, 367.162 59.169, 363.904 65.389 C 358.978 74.795, 356.193 93.755, 358.974 98.952 C 361.644 103.941, 370.745 106.307, 377.654 103.808 C 379.467 103.153, 381.178 102.845, 381.457 103.124 C 381.987 103.653, 380.338 109.399, 378.910 112 C 376.241 116.864, 367 136.260, 367 136.999 C 367 141.404, 376.221 134.657, 379.299 128 C 380.443 125.525, 382.425 122.099, 383.704 120.386 C 389.719 112.332, 393.647 95.263, 390.006 93.006 C 388.142 91.851, 381.682 92.606, 378.154 94.390 C 376.694 95.129, 373.925 96.010, 372 96.350 C 365.900 97.425, 364.770 95.322, 366.035 85.249 C 367.396 74.407, 374.324 61, 378.565 61 C 379.219 61, 380.315 60.325, 381 59.500 C 382.648 57.514, 388 57.499, 388 59.480 C 388 62.524, 384.768 68.876, 381.934 71.401 C 378.980 74.033, 378.491 75.509, 379.607 78.418 C 381.171 82.494, 387.189 78.735, 392.574 70.317 C 395.862 65.177, 396.066 64.379, 395.792 57.706 L 395.500 50.581 391.110 49.314 C 388.695 48.616, 385.995 47.861, 385.110 47.636 C 384.224 47.411, 382.009 47.699, 380.187 48.276 M 94 48.930 C 89.390 49.852, 86.352 51.532, 81.500 55.842 C 76.649 60.152, 74.600 63.344, 72.079 70.516 C 71.022 73.524, 69.228 77.167, 68.092 78.610 C 66.290 80.902, 66.073 82.337, 66.381 89.939 C 66.662 96.842, 67.228 99.506, 69.117 102.814 C 70.428 105.108, 71.967 106.988, 72.539 106.992 C 73.110 106.997, 75.360 107.910, 77.539 109.022 C 84.631 112.642, 95.278 109.192, 99.780 101.814 C 104.901 93.422, 107.889 86.882, 109.095 81.426 C 110.507 75.038, 110.561 63.447, 109.188 61.622 C 108.724 61.005, 107.551 58.353, 106.581 55.729 C 104.971 51.371, 101.006 47.726, 98.300 48.115 C 97.860 48.178, 95.925 48.545, 94 48.930 M 310.281 57.688 C 306.710 61.366, 302.634 66.204, 301.224 68.438 C 299.814 70.672, 295.249 76.185, 291.080 80.688 C 281.382 91.164, 278.316 95.038, 277.014 98.462 C 276.239 100.503, 275.459 101.092, 274.029 100.718 C 272.964 100.439, 271.321 100.776, 270.377 101.466 C 268.775 102.638, 268.801 102.871, 270.775 104.989 C 271.937 106.236, 273.534 107.009, 274.323 106.706 C 277.394 105.528, 284.690 99.274, 288.554 94.508 C 293.685 88.179, 295.574 87.736, 297.524 92.403 C 298.342 94.360, 300.246 96.747, 301.755 97.707 C 303.265 98.668, 304.776 99.842, 305.114 100.316 C 305.452 100.791, 306.802 101.070, 308.114 100.938 C 309.426 100.806, 311.767 101.215, 313.315 101.849 C 314.863 102.482, 316.535 103, 317.030 103 C 317.525 103, 318.411 103.900, 319 105 C 319.589 106.100, 320.876 107, 321.861 107 C 324.181 107, 327.998 102.924, 328.009 100.436 C 328.015 98.944, 329.413 98.065, 334.109 96.600 C 340.110 94.729, 344.366 91.592, 343.679 89.545 C 343.473 88.931, 339.921 88.500, 335.060 88.500 L 326.792 88.500 326.916 76 C 327.010 66.548, 326.670 62.802, 325.520 60.636 C 324.684 59.060, 324 56.788, 324 55.586 C 324 52.728, 322.186 51, 319.187 51 C 317.525 51, 314.756 53.079, 310.281 57.688 M 1115.315 52.007 C 1110.717 53.860, 1110.398 59.467, 1114.625 64.138 C 1115.953 65.605, 1115.733 66.522, 1112.555 72.757 C 1108.670 80.381, 1108.212 83.102, 1110.498 84.999 C 1111.322 85.682, 1113.195 88.914, 1114.661 92.179 C 1117.413 98.311, 1120.630 101, 1125.214 101 C 1128.593 101, 1131.269 94.403, 1131.790 84.786 C 1132.290 75.572, 1133.287 74.280, 1138.553 76.018 C 1140.664 76.714, 1142.555 76.845, 1143.071 76.329 C 1144.139 75.261, 1140.402 72.038, 1133.500 68.078 C 1130.161 66.161, 1127.854 63.928, 1126.556 61.354 C 1124.660 57.594, 1119.159 50.937, 1118.054 51.063 C 1117.749 51.098, 1116.517 51.523, 1115.315 52.007 M 612.429 54.009 C 611.368 55.118, 609.768 56.807, 608.874 57.762 C 607.515 59.214, 600.201 81.468, 598.279 90 C 597.969 91.375, 596.880 93.694, 595.858 95.154 C 593.693 98.248, 593.497 101.518, 595.250 105.293 C 596.778 108.584, 596.884 108.590, 600.135 105.575 C 601.926 103.915, 602.977 101.629, 603.469 98.325 C 603.864 95.671, 604.521 93.050, 604.930 92.500 C 605.339 91.950, 606.843 87.900, 608.273 83.500 C 609.704 79.100, 611.895 73.250, 613.142 70.500 C 614.390 67.750, 615.318 65.162, 615.205 64.750 C 615.092 64.338, 615.420 64, 615.934 64 C 616.447 64, 617.010 62.924, 617.184 61.610 C 617.484 59.343, 617.680 59.279, 621 60.383 C 625.606 61.915, 625.226 63.880, 618.911 71.171 C 614.428 76.348, 614 77.282, 614 81.886 C 614 86.055, 614.380 87.133, 616.194 88.104 C 619.913 90.094, 628.088 89.984, 632.210 87.887 C 636.814 85.546, 637.999 85.518, 638.004 87.750 C 638.009 90.070, 641.403 95.541, 644.783 98.678 C 647.130 100.856, 648.108 101.116, 651.960 100.590 C 658.227 99.734, 658.948 98.599, 655.506 95.007 C 653.922 93.353, 652.118 92, 651.498 92 C 649.956 92, 647 85.553, 647 82.189 C 647 80.680, 646.263 78.392, 645.361 77.106 C 643.935 75.069, 643.161 74.843, 639.383 75.361 C 636.997 75.688, 634.246 76.357, 633.272 76.848 C 625.400 80.811, 622 81.918, 622 80.517 C 622 79.716, 623.375 78.044, 625.055 76.801 C 632.634 71.198, 636.415 59.496, 631.952 55.457 C 629.532 53.267, 628.434 52.977, 620.429 52.418 C 615.307 52.059, 614.056 52.308, 612.429 54.009 M 2.731 53.602 C 1.614 54.720, 1.861 60, 3.031 60 C 3.599 60, 4.331 59.300, 4.660 58.445 C 5.375 56.581, 3.773 52.560, 2.731 53.602 M 517.072 59.250 C 516.026 61.587, 514.720 66.650, 514.171 70.500 C 512.720 80.666, 508.526 91.857, 504.614 95.996 C 502.794 97.923, 500.060 101.183, 498.541 103.240 C 497.021 105.297, 495.441 106.773, 495.030 106.519 C 492.311 104.838, 493.857 82.077, 497.399 71.646 C 499.536 65.352, 499.417 62.741, 496.922 61.183 C 495.057 60.019, 494.494 60.257, 491.422 63.514 C 489.540 65.510, 488 67.600, 488 68.160 C 488 68.720, 486.454 70.825, 484.565 72.839 C 482.676 74.853, 479.639 78.620, 477.815 81.210 C 472.214 89.168, 465.805 97.440, 464.296 98.661 C 462.372 100.218, 462.964 106.382, 465.076 106.782 C 466.809 107.109, 477.473 96.673, 481.786 90.429 L 484.500 86.500 484.762 92 C 485.183 100.839, 486.946 111.085, 488.674 114.725 C 490.119 117.771, 490.577 118.036, 493.387 117.455 C 497.285 116.650, 503.637 112.586, 507.282 108.567 C 513.107 102.144, 519.786 85.518, 520.450 75.788 C 520.963 68.265, 522.111 63.667, 523.786 62.428 C 525.044 61.497, 525.018 60.935, 523.592 58.178 C 521.356 53.855, 519.338 54.187, 517.072 59.250 M 844.250 57.745 C 840.631 59.547, 840.018 61, 842.878 61 C 843.910 61, 845.315 61.675, 846 62.500 C 848.372 65.358, 854 64.016, 854 60.593 C 854 55.983, 850.087 54.840, 844.250 57.745 M 93.290 60 C 93.002 61.100, 92.257 62.017, 91.633 62.038 C 91.010 62.060, 88.261 64.050, 85.525 66.461 C 80.747 70.670, 80.618 70.920, 82.275 72.751 C 83.224 73.799, 84 75.383, 84 76.270 C 84 77.156, 84.450 78.160, 85 78.500 C 85.550 78.840, 86 80.270, 86 81.678 L 86 84.237 82.805 81.114 C 78.749 77.149, 77.175 78.304, 78.880 83.994 C 80.444 89.215, 84.566 95.284, 87.218 96.271 C 90.400 97.456, 93.200 96.206, 92.476 93.923 C 92.047 92.573, 92.796 91.160, 95.014 89.134 C 99.566 84.977, 103.487 69.154, 100.665 66.332 C 100.299 65.966, 100 64.653, 100 63.415 C 100 59.615, 98.897 58, 96.299 58 C 94.654 58, 93.636 58.676, 93.290 60 M 1271 59 C 1271 59.550, 1271.927 60, 1273.059 60 C 1274.191 60, 1274.840 59.550, 1274.500 59 C 1274.160 58.450, 1273.234 58, 1272.441 58 C 1271.648 58, 1271 58.450, 1271 59 M 176.200 60.200 C 175.540 60.860, 175 63.485, 175 66.033 C 175 68.581, 174.476 73.277, 173.835 76.468 C 172.795 81.644, 172.527 82.074, 171.345 80.458 C 170.617 79.461, 169.809 78.858, 169.549 79.117 C 168.812 79.855, 171.023 105.234, 172.044 107.750 C 173.137 110.442, 176.031 110.657, 178.768 108.250 C 180.370 106.841, 180.993 104.261, 181.965 95 C 183.349 81.825, 183.620 66.998, 182.564 62.250 C 182.014 59.776, 181.311 59, 179.621 59 C 178.399 59, 176.860 59.540, 176.200 60.200 M 430.705 61.366 C 427.813 64.468, 422.938 71.326, 420.785 75.319 C 414.818 86.383, 414.498 87.394, 414.625 94.799 C 414.743 101.686, 414.932 102.261, 417.964 104.968 C 421.624 108.235, 429.486 109.880, 432.847 108.082 C 433.959 107.487, 436.038 107, 437.468 107 C 440.505 107, 449.198 102.802, 452.034 99.966 C 456.317 95.683, 453.325 93.485, 447.500 96.635 C 444.040 98.506, 433.954 100.913, 429.361 100.965 C 427.634 100.984, 425.163 100.143, 423.869 99.095 C 421.713 97.349, 421.646 97.037, 423.065 95.345 C 423.917 94.330, 425.141 92.263, 425.785 90.750 C 426.751 88.484, 427.584 88, 430.520 88 C 435.148 88, 445.611 82.595, 446.334 79.830 C 446.844 77.881, 446.589 77.795, 442.189 78.428 C 433.772 79.639, 433.516 79.613, 433.213 77.498 C 433.041 76.301, 434.348 73.988, 436.461 71.748 C 439.646 68.370, 440.499 68, 445.091 68 C 449.380 68, 450.272 68.323, 450.721 70.041 C 451.423 72.725, 452.991 72.097, 455.750 68.025 C 458.500 63.967, 458.516 63.516, 456 61 C 454.253 59.253, 452.667 59, 443.455 59 C 433.653 59, 432.753 59.167, 430.705 61.366 M 1 61.917 C 1 62.421, 1.515 63.005, 2.143 63.214 C 2.975 63.492, 2.994 64.143, 2.213 65.602 C 1.007 67.856, 2.176 70.627, 3.888 69.569 C 5.465 68.594, 5.267 64.124, 3.571 62.429 C 1.928 60.785, 1 60.600, 1 61.917 M 240.443 61.744 C 239.862 62.160, 238.808 63.930, 238.102 65.678 C 237.395 67.425, 235.958 69.633, 234.909 70.583 C 233.859 71.533, 233 73.084, 233 74.029 C 233 74.975, 232.291 77.718, 231.423 80.124 C 228.898 87.133, 229.451 98.005, 232.667 104.572 C 235.103 109.547, 235.607 110, 238.702 110 C 243.417 110, 249.142 106.821, 252.540 102.316 C 254.123 100.217, 255.941 98.050, 256.579 97.500 C 258.578 95.777, 263 88.604, 263 87.084 C 263 86.285, 263.952 83.664, 265.117 81.259 C 267.936 75.436, 268.259 66.720, 265.676 66.195 C 262.904 65.632, 260.226 68.703, 259.445 73.339 C 259.060 75.628, 257.902 78.573, 256.872 79.885 C 255.842 81.197, 255 83.055, 255 84.015 C 255 86.288, 241.442 100.313, 239.777 99.763 C 238.118 99.215, 237.554 88.121, 238.906 82.611 C 241.009 74.036, 242.562 69.232, 243.664 67.890 C 244.292 67.125, 244.961 65.375, 245.152 64 C 245.415 62.110, 245.012 61.438, 243.500 61.244 C 242.400 61.104, 241.024 61.329, 240.443 61.744 M 735.335 61.796 C 731.497 61.979, 728.718 62.635, 727.973 63.533 C 726.184 65.688, 727.593 69.681, 730.389 70.383 C 734.703 71.466, 758.329 70.013, 760.601 68.525 C 761.757 67.768, 764.197 67.003, 766.024 66.824 C 770.033 66.433, 771.053 64.348, 767.831 63.133 C 765.262 62.163, 745.033 61.331, 735.335 61.796 M 1210.552 63.916 C 1209.803 65.128, 1214.821 70.070, 1220.356 73.572 C 1228.196 78.532, 1230.111 85.261, 1224.420 87.854 C 1220.539 89.623, 1211.827 87.688, 1209.765 84.600 C 1209.361 83.995, 1209.017 81.700, 1209.001 79.500 C 1208.942 71.728, 1204.368 67.179, 1202.166 72.704 C 1201.553 74.242, 1201.056 79.100, 1201.061 83.500 C 1201.092 108.641, 1201.600 126.654, 1202.309 127.750 C 1203.382 129.408, 1206.517 129.340, 1208.235 127.622 C 1209.210 126.647, 1209.545 124.024, 1209.380 118.636 C 1209.252 114.451, 1209.564 110.769, 1210.074 110.455 C 1210.583 110.140, 1211 107.209, 1211 103.941 L 1211 98 1214.370 98 C 1222.727 98, 1232.884 92.822, 1236.019 86.964 C 1240.345 78.882, 1226.817 63, 1215.607 63 C 1213.138 63, 1210.863 63.412, 1210.552 63.916 M 313.223 66.944 C 311.450 68.563, 310 70.250, 309.999 70.694 C 309.998 71.137, 307.748 73.845, 304.999 76.711 C 299.185 82.772, 298.674 84.358, 303.021 82.843 C 305.028 82.143, 306.454 82.123, 307.271 82.783 C 307.947 83.329, 310.863 84.094, 313.750 84.482 L 319 85.188 319 82.245 C 319 76.401, 317.692 64, 317.076 64 C 316.729 64, 314.995 65.325, 313.223 66.944 M 559.292 67.659 C 558.111 69.221, 555.568 72.863, 553.640 75.751 C 550.351 80.677, 550.250 81.063, 552.001 82.001 C 556.601 84.462, 557.876 83.127, 560.466 73.132 C 562.458 65.443, 562.128 63.905, 559.292 67.659 M 1258.652 68.682 C 1258.293 69.040, 1258 69.913, 1258 70.621 C 1258 71.330, 1256.987 73.027, 1255.750 74.393 C 1250.076 80.659, 1249.093 82.410, 1248.483 87.342 C 1247.296 96.942, 1251.913 102.076, 1256.591 96.358 C 1257.876 94.786, 1258.944 92.960, 1258.964 92.300 C 1258.984 91.640, 1259.678 90.720, 1260.506 90.257 C 1262.309 89.248, 1263.013 81.901, 1261.364 81.314 C 1260.739 81.091, 1259.647 82.392, 1258.939 84.205 L 1257.650 87.500 1257.250 84.666 C 1256.703 80.784, 1257.559 79, 1259.969 79 C 1261.541 79, 1262 78.348, 1262 76.114 C 1262 72.880, 1259.656 67.677, 1258.652 68.682 M 0.384 76.198 C 0.502 81.917, 0.856 83.500, 2.017 83.500 C 3.973 83.500, 3.765 75.619, 1.705 71.698 C 0.296 69.015, 0.240 69.206, 0.384 76.198 M 1121 83 C 1121 85.200, 1121.450 87, 1122 87 C 1122.550 87, 1123 85.200, 1123 83 C 1123 80.800, 1122.550 79, 1122 79 C 1121.450 79, 1121 80.800, 1121 83 M 710.951 86.091 C 709.501 88.800, 711.340 93.514, 714.526 95.254 C 725.723 101.372, 727.209 101.941, 731.036 101.572 C 733.216 101.362, 735 101.597, 735 102.095 C 735 105.796, 742.110 98.747, 743.333 93.833 C 744.114 90.693, 742.622 89.800, 739.176 91.346 C 737.473 92.110, 736.301 92.045, 734.792 91.102 C 733.659 90.395, 730.953 89.683, 728.779 89.521 C 726.605 89.359, 724.325 88.725, 723.713 88.113 C 723.101 87.501, 722.208 87, 721.729 87 C 721.249 87, 720.182 86.325, 719.357 85.500 C 717.109 83.252, 712.289 83.591, 710.951 86.091 M 2.836 85.550 C 2.746 86.073, 2.565 89.200, 2.433 92.500 C 2.301 95.800, 1.986 102.728, 1.732 107.896 C 1.407 114.500, 1.660 118.044, 2.584 119.824 C 3.306 121.217, 3.638 122.777, 3.320 123.292 C 2.233 125.050, 1.874 137, 2.908 137 C 3.550 137, 3.711 141.039, 3.357 148.250 C 2.684 161.954, 2.759 164.236, 3.989 167.471 C 4.932 169.952, 7.597 171.201, 6.718 168.750 C 6.472 168.063, 6.661 166.740, 7.138 165.811 C 7.615 164.882, 7.626 163.887, 7.163 163.601 C 6.699 163.314, 6.707 160.252, 7.179 156.796 C 7.721 152.837, 7.680 150.393, 7.069 150.190 C 6.496 149.999, 6.437 148.976, 6.926 147.683 C 7.380 146.483, 7.548 143.925, 7.299 142 C 7.049 140.075, 6.712 137.262, 6.548 135.750 C 6.384 134.238, 6.122 132.662, 5.965 132.250 C 5.387 130.730, 5.125 122.116, 5.214 107.500 C 5.264 99.250, 5.300 91.236, 5.293 89.691 C 5.282 87.040, 3.188 83.511, 2.836 85.550 M 922.204 86.603 C 918.877 88.057, 918.666 90, 921.837 90 C 923.876 90, 928 87.286, 928 85.943 C 928 84.667, 926.153 84.878, 922.204 86.603 M 1295.462 89.460 C 1294.525 91.913, 1293.476 93.866, 1293.129 93.801 C 1292.783 93.736, 1291.760 94.009, 1290.855 94.408 C 1289.951 94.807, 1287.476 94.991, 1285.355 94.817 C 1281.843 94.528, 1281.473 94.220, 1281.194 91.352 C 1280.992 89.270, 1280.250 88.037, 1279.002 87.711 C 1276.518 87.061, 1276 87.709, 1276 91.467 C 1276 93.190, 1275.613 95.028, 1275.139 95.550 C 1273.514 97.343, 1275.845 102.696, 1278.747 103.837 C 1286.681 106.955, 1293.851 105.983, 1299.325 101.047 C 1301.566 99.027, 1302.049 97.879, 1301.661 95.500 C 1300.992 91.402, 1298.661 85, 1297.838 85 C 1297.468 85, 1296.399 87.007, 1295.462 89.460 M 77 93.944 C 77 95.014, 78.013 97.061, 79.250 98.494 C 81.249 100.809, 81.710 100.945, 83.384 99.715 C 85.153 98.416, 85.164 98.243, 83.564 96.915 C 82.626 96.137, 81.116 94.713, 80.207 93.750 C 78.055 91.470, 77 91.534, 77 93.944 M 310 95.716 C 310 96.522, 311.333 97, 313.583 97 C 316.006 97, 317.031 96.595, 316.749 95.750 C 316.188 94.069, 310 94.038, 310 95.716 M 770.139 127.861 C 769.115 128.885, 766.618 132.979, 764.589 136.959 C 757.542 150.789, 754.760 154.143, 753.362 150.500 C 752.660 148.673, 751.231 148.609, 747.737 150.250 C 744.089 151.964, 742.281 155.428, 743.972 157.466 C 744.672 158.310, 745.812 159, 746.506 159 C 748.138 159, 749.020 163.580, 747.651 164.949 C 747.073 165.527, 745.516 166, 744.192 166 C 742.148 166, 741.875 165.636, 742.386 163.598 C 743.118 160.682, 742.099 155, 740.844 155 C 739.366 155, 738.608 158.139, 739.893 158.934 C 740.629 159.389, 739.578 160.255, 737.116 161.222 C 734.110 162.403, 732.652 163.816, 731.077 167.077 C 729.935 169.441, 729 172.092, 729 172.967 C 729 174.842, 735.684 182, 737.436 182 C 740.486 182, 747.925 178.662, 750.870 175.971 C 752.660 174.337, 754.307 173, 754.530 173 C 755.103 173, 753.876 176.258, 752.759 177.706 C 752.247 178.370, 752.095 179.345, 752.422 179.873 C 752.748 180.402, 752.418 183.459, 751.687 186.667 C 750.768 190.703, 750.651 193.484, 751.307 195.692 C 752.928 201.143, 755.478 200.898, 764.469 194.425 L 769.439 190.848 770.537 193.674 C 771.141 195.228, 772.218 197.983, 772.931 199.795 C 774.381 203.482, 775.891 203.522, 777.749 199.921 C 779.474 196.579, 778.611 184.333, 776.485 181.984 C 774.202 179.460, 767.370 180.442, 763.750 183.813 C 761.247 186.144, 761.001 186.200, 761.013 184.437 C 761.029 182.169, 764.240 167.125, 766.549 158.500 C 767.433 155.200, 768.400 151.481, 768.698 150.235 C 768.995 148.990, 769.635 147.726, 770.119 147.426 C 770.604 147.127, 771 146.023, 771 144.972 C 771 143.735, 771.499 143.254, 772.417 143.607 C 774.325 144.339, 777.745 137.345, 776.224 135.824 C 775.640 135.240, 775.418 133.199, 775.729 131.282 C 776.117 128.889, 775.857 127.523, 774.897 126.915 C 772.888 125.643, 772.225 125.775, 770.139 127.861 M 820.128 133.345 C 819.514 134.085, 818.728 136.110, 818.381 137.845 C 818.034 139.580, 817.356 141, 816.875 141 C 815.422 141, 815.892 143.665, 817.594 145.078 C 818.954 146.207, 819.453 146.051, 820.986 144.019 C 822.311 142.262, 823.796 141.619, 826.641 141.568 C 830.297 141.504, 830.489 141.342, 830.284 138.500 C 829.915 133.374, 823.013 129.870, 820.128 133.345 M 1126.655 137.829 C 1123.024 141.841, 1126.422 146, 1133.331 146 C 1137.069 146, 1137.191 145.895, 1136.534 143.250 C 1135.689 139.845, 1132.214 136, 1129.981 136 C 1129.062 136, 1127.565 136.823, 1126.655 137.829 M 882.951 142.706 C 882.118 144.041, 880.966 144.525, 879.357 144.217 C 876.634 143.697, 873.999 145.496, 874.002 147.872 C 874.004 148.768, 875.804 152.148, 878.002 155.385 C 880.201 158.622, 882 162.139, 882 163.201 C 882 165.595, 880.244 169, 879.010 169 C 878.504 169, 875.257 170.309, 871.795 171.909 C 868.333 173.509, 862.982 175.927, 859.906 177.282 C 856.221 178.906, 852.990 181.327, 850.441 184.377 C 846.271 189.365, 843.409 196.809, 845.036 198.436 C 845.566 198.966, 846 200.666, 846 202.214 C 846 205.918, 849.808 211.657, 853.206 213.076 C 854.941 213.801, 858.148 213.947, 862.138 213.484 C 867.028 212.916, 869.022 212.144, 871.432 209.885 C 873.119 208.303, 874.836 207.007, 875.247 207.005 C 876.895 206.994, 884.201 199.450, 888.176 193.653 C 892.707 187.047, 894.147 181.668, 893.987 171.953 C 893.909 167.162, 894.326 165.866, 897.043 162.453 C 898.774 160.279, 901.044 158.487, 902.087 158.472 C 904.732 158.432, 904.635 157.669, 901.155 151.139 C 897.127 143.582, 895.269 142.056, 889.226 141.340 C 884.910 140.829, 884 141.027, 882.951 142.706 M 981.250 150.341 C 980.013 150.964, 979 151.891, 979 152.401 C 979 155.027, 982.614 160.931, 985.132 162.419 C 986.709 163.351, 988.002 164.425, 988.004 164.807 C 988.006 165.188, 988.993 167.075, 990.197 169 C 992.918 173.351, 995.924 181.679, 995.967 184.989 C 996.022 189.124, 992.724 195.992, 990.683 195.996 C 988.563 196.001, 982.430 191.562, 981.612 189.431 C 980.784 187.273, 984.927 179.978, 987.545 178.983 C 990.268 177.948, 991.103 176.783, 990.184 175.302 C 988.429 172.474, 980.252 173.969, 975.940 177.907 C 970.426 182.944, 969.858 192.944, 974.786 198.227 C 977.055 200.660, 981.530 202.814, 985.531 203.402 C 986.307 203.516, 987.255 203.922, 987.638 204.304 C 989.007 205.674, 994.713 204.974, 996.233 203.250 C 1002.896 195.694, 1005.749 182.134, 1002.554 173.207 C 999.444 164.518, 993.416 155.584, 989.911 154.472 C 988.930 154.160, 987.986 152.914, 987.813 151.703 C 987.455 149.181, 984.692 148.608, 981.250 150.341 M 925.823 153.658 C 924.351 153.911, 922.608 154.767, 921.951 155.559 C 921.293 156.352, 920.205 157, 919.533 157 C 917.279 157, 915 160.624, 915 164.207 C 915 167.318, 915.649 168.248, 920.250 171.731 C 923.138 173.916, 926.328 175.997, 927.340 176.355 C 930.901 177.615, 930.951 175.851, 927.458 172.254 C 922.619 167.271, 923.176 165.474, 929.520 165.596 C 935.883 165.720, 942.415 168.212, 942.766 170.651 C 943.338 174.631, 927.300 187.355, 920.204 188.551 C 918.167 188.894, 915.748 189.379, 914.829 189.630 C 913.909 189.880, 912.209 189.067, 911.050 187.823 C 909.315 185.961, 909.056 184.806, 909.585 181.281 C 910.168 177.394, 910.034 177, 908.126 177 C 906.768 177, 905.146 178.393, 903.537 180.942 C 900.841 185.212, 901.094 186.937, 905.333 193.196 C 907.725 196.728, 916.150 198.840, 921.042 197.135 C 922.833 196.511, 925.151 196, 926.193 196 C 927.235 196, 930.845 193.705, 934.215 190.900 C 937.586 188.096, 941.296 185.367, 942.460 184.836 C 945.935 183.253, 951 174.951, 951 170.839 C 951 166.804, 946.259 159.029, 941.741 155.656 C 939.063 153.656, 931.413 152.696, 925.823 153.658 M 889.229 156.188 C 889.847 158.042, 892 158.349, 892 156.583 C 892 155.713, 891.288 155, 890.417 155 C 889.546 155, 889.011 155.534, 889.229 156.188 M 1124.200 170.200 C 1123.540 170.860, 1123 171.808, 1123 172.306 C 1123 172.804, 1121.875 174.548, 1120.500 176.182 C 1118.500 178.560, 1118 180.248, 1118 184.626 C 1118 190.532, 1120.165 196, 1122.503 196 C 1125.125 196, 1126.909 191.601, 1127.576 183.487 C 1127.937 179.094, 1128.419 175.183, 1128.647 174.796 C 1128.875 174.409, 1128.774 172.946, 1128.422 171.546 C 1127.733 168.800, 1126.116 168.284, 1124.200 170.200 M 4 170.765 C 4 171.224, 4.531 172.131, 5.180 172.780 C 6.086 173.686, 6.055 174.528, 5.047 176.412 C 4.266 177.872, 4.055 179.601, 4.526 180.683 C 4.961 181.682, 5.171 182.950, 4.993 183.500 C 4.814 184.050, 4.554 196.313, 4.414 210.750 L 4.159 237 6.666 237 C 9.141 237, 9.165 236.920, 8.551 230.750 C 8.208 227.313, 7.933 212.697, 7.938 198.271 C 7.947 173.178, 7.862 171.996, 5.974 170.986 C 4.888 170.405, 4 170.305, 4 170.765 M 884 173.071 C 883.175 173.530, 879.350 175.334, 875.500 177.080 C 871.650 178.826, 867.719 180.647, 866.764 181.127 C 865.809 181.607, 864.442 182, 863.726 182 C 863.010 182, 860.304 184.153, 857.712 186.784 C 853.784 190.773, 853 192.193, 853 195.320 C 853 203.608, 858.534 206.204, 867.236 202 C 869.513 200.900, 872.205 200, 873.219 200 C 874.233 200, 875.332 199.299, 875.660 198.443 C 875.989 197.586, 876.831 197.105, 877.531 197.373 C 878.230 197.642, 879.079 197.105, 879.417 196.181 C 880.139 194.206, 882.128 190.776, 883.663 188.857 C 884.260 188.110, 885.056 185.925, 885.431 184 C 887.514 173.316, 887.245 171.265, 884 173.071 M 1035.500 178.383 C 1032.607 179.687, 1028.528 183.527, 1020.021 192.956 C 1016.148 197.247, 1015.010 200.971, 1016.765 203.600 C 1017.838 205.206, 1021.633 207.034, 1022.369 206.298 C 1023.488 205.179, 1023.042 204, 1021.500 204 C 1019.431 204, 1019.623 202.651, 1022 200.500 C 1023.100 199.505, 1024.027 198.197, 1024.060 197.595 C 1024.092 196.993, 1027.130 194.091, 1030.810 191.146 C 1037.153 186.070, 1037.515 185.914, 1037.781 188.146 C 1039.006 198.393, 1047.310 217, 1050.657 217 C 1052.618 217, 1052.395 207.662, 1050.340 203.700 C 1049.265 201.627, 1048.644 197.858, 1048.577 193 C 1048.443 183.233, 1045.914 177.611, 1041.500 177.265 C 1039.850 177.136, 1037.150 177.639, 1035.500 178.383 M 1070.445 192.068 C 1066.689 193.160, 1063.862 196.082, 1060.571 202.270 C 1057.913 207.270, 1058.201 211.096, 1061.326 212.295 C 1063.179 213.006, 1064 212.217, 1064 209.725 C 1064 206.631, 1072.916 199.023, 1076.558 199.011 C 1079.144 199.002, 1079.861 199.578, 1081.213 202.750 C 1082.092 204.813, 1083.118 207.542, 1083.493 208.815 C 1084.325 211.636, 1087.829 213.124, 1090.182 211.654 C 1091.478 210.845, 1092.341 210.998, 1093.773 212.294 C 1096.935 215.156, 1100.263 214.426, 1102.250 210.434 C 1103.213 208.500, 1103.991 206.374, 1103.980 205.709 C 1103.958 204.434, 1095.126 200, 1092.609 200 C 1091.799 200, 1090.170 198.643, 1088.989 196.985 C 1085.085 191.501, 1078.449 189.742, 1070.445 192.068" stroke="none" fill="hsl(210, 40%, 96.1%)" fill-rule="evenodd"/>
</svg>