<svg xmlns="http://www.w3.org/2000/svg" width="738" height="599" viewBox="0 0 738 599" version="1.1">
	<path d="M 331.164 11 C 330.799 11.275, 329.712 12.919, 328.750 14.654 C 325.304 20.866, 327.253 31.946, 331.807 32.032 C 333.079 32.055, 332.828 32.565, 330.800 34.079 C 326.985 36.926, 328.092 39.393, 332.790 38.512 C 336.806 37.758, 342.468 32.661, 341.651 30.533 C 341.351 29.751, 339.394 28.802, 337.303 28.425 C 332.520 27.562, 331 26.365, 331 23.459 C 331 19.731, 331.978 18.182, 333.999 18.710 C 335.027 18.979, 337.473 18.669, 339.434 18.022 C 343.639 16.634, 344.193 13.828, 340.712 11.547 C 338.602 10.165, 332.719 9.828, 331.164 11 M 353.343 12.253 C 352.977 12.846, 353.900 14.306, 355.394 15.497 C 357.800 17.415, 357.933 17.811, 356.555 18.954 C 355.700 19.664, 354.988 20.752, 354.972 21.372 C 354.957 21.993, 353.615 23.805, 351.990 25.399 C 343.597 33.634, 350.095 46.956, 360.563 42.976 C 364.794 41.367, 367 38.546, 367 34.742 C 367 32.904, 367.540 30.860, 368.200 30.200 C 369.026 29.374, 369.078 28.678, 368.367 27.967 C 367.656 27.256, 366.756 28.214, 365.482 31.039 C 363.536 35.356, 359.759 39, 357.232 39 C 355.558 39, 352 35.308, 352 33.569 C 352 32.133, 354.464 28.505, 358.651 23.775 C 362.647 19.262, 363.761 15.618, 361.757 13.614 C 359.908 11.765, 354.214 10.844, 353.343 12.253 M 153 13.455 C 153 14.276, 154.350 15.647, 156 16.500 C 157.650 17.353, 159 18.490, 159 19.026 C 159 19.562, 159.605 20, 160.345 20 C 162.124 20, 165 23.243, 165 25.249 C 165 26.203, 163.803 27.104, 162.012 27.497 C 158.910 28.179, 154.685 32.532, 155.296 34.419 C 155.804 35.990, 162.073 38.896, 165.076 38.952 C 167.934 39.005, 172 35.326, 172 32.686 C 172 30.141, 175.472 30.645, 176.949 33.405 C 177.657 34.727, 177.945 36.280, 177.590 36.854 C 177.235 37.429, 177.849 38.384, 178.955 38.976 C 181.053 40.099, 186.627 50.706, 185.639 51.695 C 185.327 52.007, 183.525 51.528, 181.635 50.631 C 179.744 49.734, 177.548 49, 176.754 49 C 175.960 49, 174.491 48.095, 173.491 46.990 C 171.724 45.038, 171.739 44.907, 174.006 42.493 C 176.886 39.428, 176.068 38.254, 172.626 40.510 C 168.824 43, 168.253 45.972, 171.123 48.321 L 173.500 50.266 171 49.587 C 168.721 48.968, 168.806 49.177, 171.962 51.954 C 173.866 53.629, 175.934 55, 176.557 55 C 177.180 55, 180.323 55.869, 183.541 56.930 C 189.818 59.001, 193.016 58.420, 192.981 55.215 C 192.961 53.335, 186.664 40.438, 184.584 38.015 C 182.643 35.754, 181 30.196, 181 25.890 C 181 23.256, 180.323 21.448, 178.811 20.039 C 176.357 17.752, 176.056 17.678, 174.143 18.890 C 173.191 19.494, 172.999 20.717, 173.499 22.994 C 174.048 25.494, 173.901 26.135, 172.855 25.790 C 172.110 25.543, 171.038 24.478, 170.473 23.421 C 168.704 20.110, 163.356 15.087, 160.367 13.928 C 155.348 11.982, 153 11.831, 153 13.455 M 258.023 13.377 C 255.903 15.497, 256.898 21.596, 260 25.500 C 261.650 27.576, 263 29.888, 263 30.638 C 263 31.387, 263.468 32, 264.039 32 C 264.651 32, 264.561 32.554, 263.822 33.346 C 262.944 34.285, 261.555 34.463, 259.216 33.936 C 256.706 33.370, 255.730 33.541, 255.315 34.620 C 254.713 36.191, 258.064 39.568, 261.218 40.569 C 264.380 41.573, 271.449 40.112, 272.637 38.210 C 273.787 36.368, 272.752 32, 271.166 32 C 269.804 32, 263 22.898, 263 21.076 C 263 19.941, 263.937 19.483, 266.250 19.490 C 269.045 19.499, 269.544 19.120, 269.813 16.785 C 270.062 14.627, 269.651 13.971, 267.813 13.589 C 262.528 12.491, 258.986 12.414, 258.023 13.377 M 224.302 15.656 C 223.905 16.691, 224.438 17.937, 225.726 18.979 C 226.859 19.896, 228.001 21.289, 228.264 22.073 C 228.527 22.858, 228.582 22.244, 228.387 20.708 C 228.041 17.979, 228.118 17.933, 231.767 18.660 C 233.820 19.070, 236.512 19.362, 237.750 19.308 C 240.355 19.196, 240.641 20.223, 238.500 22 C 237.675 22.685, 237 23.865, 237 24.622 C 237 25.380, 236.325 26, 235.500 26 C 234.675 26, 233.999 26.563, 233.997 27.250 C 233.996 27.938, 232.643 29.400, 230.991 30.500 C 227.239 32.999, 226.285 35.713, 228.411 37.840 C 231.344 40.773, 248.608 41.061, 250.372 38.207 C 251.047 37.115, 249.880 32, 248.955 32 C 248.508 32, 247.468 32.675, 246.643 33.500 C 245.068 35.075, 234 35.702, 234 34.217 C 234 33.786, 236.925 30.331, 240.500 26.538 C 250.390 16.047, 249.454 14, 234.769 14 C 226.541 14, 224.834 14.270, 224.302 15.656 M 280.024 15.250 C 280.038 15.938, 280.519 18.525, 281.095 21 C 281.670 23.475, 282.327 27.669, 282.554 30.320 C 283.022 35.768, 283.552 37, 285.430 37 C 286.248 37, 286.989 35.137, 287.398 32.059 C 287.888 28.361, 288.550 26.960, 290.027 26.492 C 291.112 26.147, 292 25.446, 292 24.933 C 292 23.594, 288.618 23.782, 287.200 25.200 C 286.267 26.133, 286 25.778, 286 23.601 C 286 19.934, 283.148 14, 281.386 14 C 280.624 14, 280.011 14.563, 280.024 15.250 M 197.990 21.018 C 196.446 23.903, 197.426 26, 200.319 26 C 202.357 26, 202.686 25.534, 202.600 22.764 C 202.479 18.859, 199.708 17.809, 197.990 21.018 M 124 21.006 C 124 21.361, 125.042 22.630, 126.314 23.826 C 128.127 25.528, 129.854 26, 134.279 26 C 138.920 26, 140.122 26.360, 141.008 28.015 C 142.186 30.216, 141.914 30.417, 136.500 31.336 C 134.727 31.637, 132.706 31.263, 131.559 30.423 C 127.672 27.574, 123.395 29.509, 126.274 32.813 C 129.103 36.058, 131.255 41.976, 130.670 44.900 C 129.832 49.091, 131.676 54.763, 134.132 55.542 C 137.419 56.585, 137.987 54.976, 136.941 47.586 C 136.404 43.792, 136.210 39.914, 136.510 38.968 C 137.099 37.114, 148.334 32.375, 151.250 32.751 C 152.213 32.875, 153 32.532, 153 31.988 C 153 31.445, 152.550 31, 152 31 C 151.450 31, 151 30.353, 151 29.562 C 151 26.865, 145.617 22.271, 141.500 21.455 C 136.483 20.461, 124 20.140, 124 21.006 M 313.290 24 C 312.735 26.121, 308.631 26.830, 307.500 25 C 306.410 23.237, 303 23.862, 303 25.826 C 303 29.157, 307.343 32.170, 311.636 31.817 C 315.191 31.525, 315.500 31.260, 315.504 28.500 C 315.506 26.850, 315.831 25, 316.227 24.389 C 316.622 23.779, 316.658 22.991, 316.306 22.639 C 315.094 21.427, 313.811 22.005, 313.290 24 M 163.166 31.876 C 162.113 32.544, 162.202 32.864, 163.594 33.398 C 164.638 33.798, 165.980 33.448, 166.892 32.537 C 168.274 31.154, 168.231 31.002, 166.464 31.015 C 165.384 31.024, 163.900 31.411, 163.166 31.876 M 264.813 35.683 C 265.534 35.972, 266.397 35.936, 266.729 35.604 C 267.061 35.272, 266.471 35.036, 265.417 35.079 C 264.252 35.127, 264.015 35.364, 264.813 35.683 M 66.480 43.250 C 63.240 50.070, 58.453 53.497, 53.329 52.666 C 51.312 52.339, 49.400 51.672, 49.081 51.185 C 48.761 50.698, 47.475 49.759, 46.222 49.100 C 44.969 48.440, 44.210 47.469, 44.536 46.942 C 44.861 46.416, 44.453 45.310, 43.628 44.485 C 42.688 43.545, 41.893 43.364, 41.500 44 C 41.107 44.636, 40.309 44.452, 39.365 43.508 C 37.632 41.775, 37.035 41.692, 35.106 42.914 C 33.946 43.648, 34.052 44.362, 35.734 47.148 C 37.337 49.804, 37.900 53.067, 38.445 62.860 C 38.824 69.658, 39.497 76.183, 39.941 77.360 C 40.385 78.537, 41.289 85.125, 41.949 92 C 43.410 107.209, 44.022 109.981, 46.230 111.373 C 49.686 113.553, 50.224 111.070, 48.937 98.881 C 48.276 92.621, 47.613 83.900, 47.462 79.500 C 47.107 69.086, 46.275 63.031, 44.516 58.045 C 43.731 55.820, 43.312 54, 43.584 54 C 43.857 54, 45.844 54.900, 48 56 C 52.756 58.426, 56.094 58.524, 60.635 56.369 C 62.525 55.472, 64.243 54.910, 64.453 55.120 C 64.663 55.330, 64.385 57.751, 63.834 60.501 C 62.713 66.101, 62.385 102.197, 63.440 103.904 C 64.965 106.371, 66.802 104.651, 69.260 98.455 C 71.687 92.339, 71.731 91.951, 69.929 92.523 C 68.080 93.109, 68 92.487, 68 77.566 C 68 65.622, 68.496 59.564, 70.128 51.553 C 72.196 41.403, 72.169 38, 70.018 38 C 69.444 38, 67.852 40.362, 66.480 43.250 M 512.513 42.622 C 511.681 44.614, 511 46.932, 511 47.772 C 511 48.613, 509.891 51.596, 508.536 54.400 C 507.181 57.205, 505.627 62.337, 505.083 65.805 C 504.539 69.272, 502.939 74.551, 501.527 77.535 C 498.969 82.942, 498.954 82.954, 496.980 80.980 C 493.964 77.964, 490.650 78.521, 486.332 82.768 C 481.260 87.755, 478.841 92.265, 478.517 97.338 C 478.145 103.147, 480.232 106.241, 484.109 105.630 C 487.556 105.087, 489.048 104.034, 494.213 98.500 C 497.809 94.648, 497.948 94.592, 497.987 97 C 498.077 102.594, 499.022 103.996, 502.528 103.740 C 504.343 103.608, 505.628 103.299, 505.384 103.054 C 505.140 102.808, 506.585 101.807, 508.596 100.830 C 512.141 99.105, 512.325 99.111, 514.760 101.026 C 517.513 103.191, 524.434 103.802, 523.774 101.821 C 523.362 100.585, 521.684 99.510, 518.750 98.604 C 517.717 98.284, 517 97.075, 517 95.654 C 517 94.329, 516.339 92.696, 515.531 92.026 C 514.347 91.043, 513.543 91.214, 511.396 92.903 C 509.930 94.056, 508.257 95, 507.680 95 C 507.102 95, 505.546 96.013, 504.222 97.250 L 501.814 99.500 502.535 94.500 C 502.931 91.750, 503.648 88.742, 504.128 87.816 C 504.608 86.889, 505 84.555, 505 82.627 C 505 80.615, 506.277 76.796, 508 73.657 C 509.650 70.650, 511 67.233, 511 66.062 C 511 64.891, 512.072 61.811, 513.383 59.217 C 516.189 53.663, 518.407 43.858, 517.502 41.007 C 516.511 37.882, 514.178 38.638, 512.513 42.622 M 607.264 42.136 C 606.465 42.935, 606.455 43.905, 607.229 45.604 C 608.008 47.312, 607.940 51.621, 606.983 61.231 C 604.925 81.891, 605.065 87.065, 607.754 89.754 C 608.989 90.989, 610 91.529, 610 90.952 C 610 90.376, 611.157 88.832, 612.572 87.521 C 614.727 85.524, 614.964 84.802, 614.037 83.069 C 613.428 81.931, 612.212 81, 611.335 81 C 610.007 81, 609.850 80.205, 610.396 76.250 C 610.757 73.638, 611.321 65.425, 611.649 58 C 612.202 45.489, 612.104 44.373, 610.309 42.764 C 608.891 41.492, 608.076 41.324, 607.264 42.136 M 365.382 44.481 C 361.542 46.096, 347 60.300, 347 62.436 C 347 63.296, 346.559 64, 346.019 64 C 345.480 64, 344.751 65.237, 344.400 66.750 C 344.049 68.263, 343.134 70.506, 342.367 71.736 C 341.600 72.966, 340.694 76.638, 340.353 79.896 C 339.840 84.804, 340.115 86.606, 341.956 90.410 C 343.719 94.051, 344.729 95.031, 346.839 95.151 C 354.345 95.576, 356.634 94.694, 364.736 88.255 L 368.972 84.889 368.410 87.699 C 367.745 91.027, 370.538 94.066, 375.922 95.869 C 378.606 96.769, 379.770 96.733, 381.321 95.703 C 383.039 94.562, 383.596 94.686, 385.555 96.646 C 388.150 99.240, 392.656 99.029, 394.789 96.212 C 395.920 94.720, 396.209 94.694, 397.134 96.005 C 398.029 97.274, 398.107 97.246, 397.651 95.815 C 397.355 94.888, 397.602 93.966, 398.201 93.766 C 399.391 93.370, 399.635 83.575, 398.540 80.124 C 397.735 77.590, 399.583 77.361, 406.321 79.163 C 409.383 79.982, 411.842 80.030, 414.623 79.324 C 417.448 78.607, 418.850 78.643, 419.538 79.451 C 423.067 83.598, 423.838 84.744, 424.449 86.750 C 425.049 88.718, 424.777 89, 422.283 89 C 420.176 89, 418.969 89.782, 417.663 91.993 C 415.970 94.859, 415.972 95.091, 417.698 97.491 C 418.689 98.870, 420.625 100.285, 422 100.637 C 423.375 100.989, 424.898 101.503, 425.384 101.780 C 425.869 102.057, 427.833 102.378, 429.746 102.494 C 432.849 102.683, 433.381 102.331, 434.670 99.247 C 435.465 97.345, 437.220 94.599, 438.571 93.144 C 440.689 90.863, 440.820 90.349, 439.529 89.401 C 438.705 88.797, 438.245 88.005, 438.507 87.643 C 438.769 87.280, 438.447 87.437, 437.792 87.992 C 437.136 88.546, 435.115 89, 433.300 89 C 430.808 89, 430 88.566, 430 87.228 C 430 86.253, 428.602 83.759, 426.893 81.686 C 424.548 78.841, 423.892 77.190, 424.219 74.958 C 424.484 73.158, 424.208 72, 423.515 72 C 422.889 72, 421.378 70.650, 420.158 69 C 417.252 65.069, 412.846 64.847, 411.161 68.547 C 409.677 71.803, 409.696 72, 411.500 72 C 412.325 72, 413 72.675, 413 73.500 C 413 74.325, 413.450 75, 414 75 C 414.550 75, 415 75.675, 415 76.500 C 415 78.690, 408.866 78.427, 403.185 75.992 C 400.608 74.888, 396.700 73.876, 394.500 73.742 L 390.500 73.500 390.197 77.660 C 389.946 81.107, 390.354 82.248, 392.580 84.311 C 394.667 86.247, 395.123 87.376, 394.621 89.372 C 393.890 92.285, 390.613 94.449, 388.286 93.556 C 386.911 93.029, 386.938 92.726, 388.519 90.979 C 389.504 89.891, 391.140 89, 392.155 89 C 394.738 89, 394.460 87.269, 391.750 86.478 C 385.918 84.776, 384 83.467, 384 81.189 C 384 79.057, 379.556 71.964, 377.713 71.154 C 377.280 70.964, 375.602 69.694, 373.984 68.333 C 370.670 65.544, 369 65.955, 369 69.559 C 369 71.413, 369.541 72.009, 371.250 72.036 C 372.637 72.059, 374.555 73.463, 376.250 75.697 C 379.329 79.756, 379.730 81.667, 377.500 81.667 C 376.675 81.667, 376 81.233, 376 80.702 C 376 79.278, 369.025 80.653, 367.124 82.452 C 359.681 89.496, 352.434 92.251, 347.126 90.052 C 344.050 88.778, 344 88.646, 344 81.837 C 344 72.363, 347.638 64.756, 356.475 55.750 C 360.118 52.038, 363.333 49, 363.621 49 C 363.908 49, 364.878 48.265, 365.777 47.366 C 366.848 46.295, 367.541 46.123, 367.789 46.866 C 368.410 48.730, 370 48.149, 370 46.059 C 370 43.338, 368.953 42.980, 365.382 44.481 M 585 49.171 C 585 49.815, 584.371 51.053, 583.601 51.921 C 582.832 52.790, 581.310 55.075, 580.218 57 C 579.126 58.925, 576.156 63.925, 573.617 68.110 C 571.077 72.296, 569 76.285, 569 76.974 C 569 77.664, 568.024 79.964, 566.831 82.087 C 564.837 85.635, 564.771 86.277, 566.018 90.054 C 568.746 98.321, 578.218 102.689, 590.200 101.206 C 595.885 100.502, 595.896 100.494, 594.200 98.311 C 592.015 95.497, 587 94.112, 587 96.322 C 587 97.571, 586.410 97.691, 583.858 96.959 C 582.129 96.463, 580.339 96.291, 579.878 96.575 C 578.680 97.316, 574.860 95.101, 572.359 92.216 C 570.255 89.789, 570.250 89.690, 572.049 86.623 C 573.057 84.905, 574.076 82.375, 574.314 81 C 574.552 79.625, 575.338 77.075, 576.061 75.333 C 577.307 72.333, 577.736 72.129, 584.188 71.481 C 587.935 71.105, 591 70.382, 591 69.874 C 591 68.384, 585.736 66.807, 582.750 67.402 C 579.262 68.097, 579.221 66.500, 582.625 62.500 C 584.465 60.337, 584.864 60.128, 584.054 61.750 C 582.509 64.841, 583.585 64.568, 587.202 60.952 C 590.125 58.029, 590.173 57.845, 588.375 56.484 C 586.730 55.238, 586.705 55.060, 588.167 55.032 C 589.083 55.014, 590.035 55.563, 590.282 56.250 C 590.584 57.091, 591.408 56.738, 592.803 55.169 C 595.488 52.149, 594.683 50.284, 590.151 49.025 C 585.497 47.733, 585 47.747, 585 49.171 M 205.457 51.250 C 206.753 55.472, 206.925 60.498, 206.310 76.232 C 205.857 87.821, 205.406 91.627, 204.597 90.680 C 201.673 87.257, 195.066 83.871, 191.911 84.180 C 187.968 84.565, 187.531 85.768, 186.698 98.547 C 186.377 103.471, 185.594 112.450, 184.959 118.500 C 183.228 134.996, 183.204 134.456, 185.664 134.807 C 187.979 135.138, 188.357 133.293, 189.416 116.500 L 189.795 110.500 193.981 110.257 C 198.265 110.008, 203.896 107.388, 204.132 105.534 C 204.204 104.965, 204.542 106.039, 204.882 107.921 C 205.222 109.802, 206.063 111.527, 206.750 111.754 C 207.702 112.068, 208 109.410, 208 100.618 C 208 92.843, 208.504 87.586, 209.542 84.528 C 210.390 82.029, 211.012 79.426, 210.924 78.743 C 210.835 78.059, 210.816 72.695, 210.882 66.823 C 210.983 57.681, 211.241 56.100, 212.679 55.823 C 214.164 55.537, 214.186 55.327, 212.873 54 C 212.056 53.175, 211.090 51.712, 210.725 50.750 C 210.324 49.691, 209.018 49, 207.415 49 C 205.131 49, 204.862 49.309, 205.457 51.250 M 656.449 57.468 C 655.652 59.375, 654.978 61.963, 654.952 63.218 C 654.884 66.463, 651.612 72.552, 650.112 72.225 C 649.335 72.056, 648.945 72.823, 649.096 74.225 C 649.232 75.476, 648.818 78.300, 648.177 80.500 C 646.458 86.398, 646.661 89, 648.840 89 C 650.330 89, 650.938 87.630, 652.042 81.779 C 652.791 77.808, 655.113 71.024, 657.202 66.705 C 659.291 62.385, 661 57.760, 661 56.426 C 661 52.770, 658.138 53.426, 656.449 57.468 M 366 56.983 C 366 57.607, 365.492 57.804, 364.870 57.420 C 364.201 57.006, 363.918 57.254, 364.177 58.030 C 364.632 59.395, 372.041 62.417, 371.945 61.198 C 371.846 59.955, 366 55.810, 366 56.983 M 249 57.882 C 249 58.432, 249.450 59.160, 250 59.500 C 250.550 59.840, 251 59.668, 251 59.118 C 251 58.568, 250.550 57.840, 250 57.500 C 249.450 57.160, 249 57.332, 249 57.882 M 638.250 65.731 C 637.563 65.970, 637 66.789, 637 67.549 C 637 69.516, 633.789 76, 632.815 76 C 632.367 76, 631.993 76.787, 631.985 77.750 C 631.976 78.713, 631.487 80.175, 630.898 81 C 630.037 82.205, 629.923 82.058, 630.320 80.250 C 630.591 79.013, 630.405 78, 629.906 78 C 629.408 78, 629 76.675, 629 75.056 C 629 71.940, 624.717 65.955, 623.416 67.253 C 623.001 67.667, 622.554 70.592, 622.423 73.753 C 622.276 77.291, 622.483 78.731, 622.960 77.500 C 623.617 75.805, 623.907 76.110, 624.862 79.500 C 625.482 81.700, 625.991 84.545, 625.994 85.821 C 626.001 88.713, 628.550 91.387, 630.562 90.614 C 631.393 90.296, 632.844 88.676, 633.787 87.016 C 634.744 85.330, 636.075 84.213, 636.802 84.487 C 637.523 84.758, 637.819 84.516, 637.466 83.945 C 637.115 83.377, 637.259 82.370, 637.785 81.706 C 638.312 81.043, 638.594 79.600, 638.411 78.500 C 638.085 76.535, 639.441 71.110, 641.076 67.839 C 641.963 66.064, 640.476 64.954, 638.250 65.731 M 240 67.354 C 240 68.175, 241.235 70.344, 242.744 72.173 C 248.072 78.633, 250.991 81.486, 250.995 80.236 C 251.001 78.566, 248.909 74.903, 246.848 72.978 C 245.940 72.130, 245.040 70.325, 244.848 68.968 C 244.454 66.173, 240 64.690, 240 67.354 M 603 67.559 C 603 68.416, 603.450 68.840, 604 68.500 C 604.550 68.160, 605 67.459, 605 66.941 C 605 66.423, 604.550 66, 604 66 C 603.450 66, 603 66.702, 603 67.559 M 670.151 69.710 C 666.204 72.024, 665.857 72.536, 666.401 75.255 C 666.730 76.902, 667 79.544, 667 81.125 C 667 83.014, 667.514 84, 668.500 84 C 669.549 84, 670 85.058, 670 87.521 C 670 90.334, 669.482 91.279, 667.426 92.216 C 665.449 93.117, 664.408 93.112, 662.939 92.194 C 660.238 90.507, 658.864 90.712, 659.206 92.750 C 659.868 96.692, 665.316 98.180, 670.477 95.829 C 673.873 94.281, 674.499 91.246, 673.131 82.966 C 671.609 73.746, 671.528 74.095, 675.565 72.408 C 677.993 71.394, 679.027 70.373, 678.805 69.209 C 678.319 66.658, 675.033 66.848, 670.151 69.710 M 425.310 69.431 C 424.008 70.914, 424.582 72, 426.667 72 C 427.400 72, 428 71.100, 428 70 C 428 67.696, 427.016 67.488, 425.310 69.431 M 537.750 70.470 C 534.774 74.562, 535.871 78.332, 539.169 75.347 C 540.890 73.790, 541 73.820, 541 75.845 C 541 79.142, 543.669 78.407, 544.366 74.918 C 545.605 68.725, 541.181 65.751, 537.750 70.470 M 455.733 71.124 C 456.412 71.808, 457.219 72.115, 457.526 71.807 C 457.834 71.499, 457.279 70.940, 456.293 70.564 C 454.868 70.022, 454.753 70.136, 455.733 71.124 M 451 72.941 C 451 73.459, 451.450 74.160, 452 74.500 C 452.550 74.840, 453 74.416, 453 73.559 C 453 72.702, 452.550 72, 452 72 C 451.450 72, 451 72.423, 451 72.941 M 426.500 74 C 426.840 74.550, 427.316 75, 427.559 75 C 427.802 75, 428 74.550, 428 74 C 428 73.450, 427.523 73, 426.941 73 C 426.359 73, 426.160 73.450, 426.500 74 M 442 75 C 442 76.111, 442.667 77, 443.500 77 C 445.183 77, 445.251 76.817, 444.393 74.582 C 443.536 72.347, 442 72.616, 442 75 M 580.667 74.667 C 579.382 75.951, 579.996 77.939, 581.500 77.362 C 582.325 77.045, 583 76.159, 583 75.393 C 583 73.923, 581.788 73.545, 580.667 74.667 M 428 78.833 C 428 80.242, 429.126 80.889, 430.598 80.324 C 432.685 79.523, 432.293 78, 430 78 C 428.900 78, 428 78.375, 428 78.833 M 90.876 81.250 C 90.220 82.487, 88.913 84.047, 87.972 84.715 C 85.226 86.666, 82.764 92.919, 82.260 99.223 C 81.805 104.905, 81.895 105.165, 85.467 108.534 C 88.209 111.120, 90.026 112, 92.621 112 C 96.088 112, 102 109.612, 102 108.211 C 102 107.806, 103.010 107.030, 104.244 106.487 C 105.478 105.944, 106.652 104.631, 106.852 103.568 C 107.053 102.506, 108.719 100.045, 110.555 98.098 C 112.391 96.152, 113.745 94.412, 113.565 94.231 C 112.568 93.234, 108.190 95.479, 106.600 97.802 C 103.190 102.785, 97.076 107, 93.257 107 C 86.478 107, 82.423 98.683, 86.873 93.906 C 88.370 92.299, 88.855 92.181, 89.291 93.316 C 89.962 95.064, 94.266 95.990, 96.337 94.831 C 98.165 93.808, 101 88.400, 101 85.935 C 101 83.965, 95.601 79, 93.458 79 C 92.695 79, 91.533 80.013, 90.876 81.250 M 306.291 80.684 C 305.590 82.511, 308.746 85.449, 313.575 87.467 C 316.473 88.678, 317.080 89.320, 316.177 90.223 C 315.530 90.870, 314.999 92.097, 314.997 92.950 C 314.996 93.802, 313.647 95.400, 312 96.500 C 308.619 98.758, 307.945 102.880, 310.597 105.081 C 311.976 106.225, 312.149 106.137, 311.861 104.439 C 311.678 103.357, 312.555 101.353, 313.810 99.986 C 315.066 98.619, 316.768 96.767, 317.594 95.871 C 319.386 93.926, 321.343 87.336, 320.658 85.551 C 320.391 84.854, 318.783 84.007, 317.086 83.667 C 314.275 83.105, 312.629 81, 315 81 C 315.550 81, 316 80.566, 316 80.036 C 316 78.450, 306.916 79.057, 306.291 80.684 M 255.750 80.692 C 254.787 80.942, 254 82.038, 254 83.128 C 254 85.217, 257.745 94.147, 258.979 95 C 259.377 95.275, 259.932 96.737, 260.212 98.250 C 260.622 100.458, 260.351 101, 258.836 101 C 257.540 101, 256.762 100.061, 256.350 98 C 255.548 93.991, 254 94.173, 254 98.277 C 254 102.426, 256.206 105.615, 259.513 106.247 C 261.593 106.645, 262.375 106.175, 263.612 103.783 C 264.913 101.267, 264.954 100.059, 263.884 95.664 C 263.193 92.824, 261.961 89.705, 261.145 88.734 C 259.819 87.156, 259.865 86.814, 261.581 85.516 C 262.636 84.717, 264.063 84.049, 264.750 84.032 C 267.106 83.972, 266.001 82.250, 263.250 81.695 C 261.738 81.390, 259.825 80.937, 259 80.689 C 258.175 80.441, 256.712 80.442, 255.750 80.692 M 416 82 C 416 82.550, 416.450 83, 417 83 C 417.550 83, 418 82.550, 418 82 C 418 81.450, 417.550 81, 417 81 C 416.450 81, 416 81.450, 416 82 M 401.500 83 C 401.160 83.550, 401.809 84, 402.941 84 C 404.073 84, 405 83.550, 405 83 C 405 82.450, 404.352 82, 403.559 82 C 402.766 82, 401.840 82.450, 401.500 83 M 92.279 85.200 C 91.108 86.652, 92.323 91, 93.900 91 C 95.649 91, 96.283 86.855, 94.767 85.338 C 93.594 84.165, 93.134 84.140, 92.279 85.200 M 292 87.515 C 292 92.127, 301.159 95.923, 304.007 92.491 C 304.696 91.661, 307.011 90.702, 309.152 90.360 C 315.849 89.289, 314.241 88.328, 306.486 88.766 C 300.147 89.124, 298.642 88.881, 296.130 87.093 C 292.381 84.423, 292 84.462, 292 87.515 M 376.557 87.222 C 375.123 89.269, 375.156 89.601, 376.972 91.417 C 379.341 93.786, 379.621 93.576, 380.522 88.750 C 381.087 85.724, 380.922 85, 379.668 85 C 378.813 85, 377.413 86, 376.557 87.222 M 492.143 85.890 C 491.241 86.462, 491.034 87.531, 491.525 89.079 C 492.249 91.360, 492.226 91.369, 490.382 89.518 C 488.538 87.668, 488.489 87.699, 487.954 91.065 C 487.654 92.954, 487.462 94.608, 487.527 94.740 C 487.988 95.669, 493.109 92.054, 493.953 90.203 C 495.924 85.880, 495.133 83.996, 492.143 85.890 M 221.456 87.750 C 221.039 88.713, 220.567 90.153, 220.408 90.951 C 220.248 91.749, 219.236 93.099, 218.158 93.951 C 217.080 94.803, 215.899 96.931, 215.535 98.681 C 215.170 100.430, 214.196 102.423, 213.370 103.108 C 211.693 104.500, 209 109.333, 209 110.950 C 209 111.528, 209.798 112, 210.773 112 C 212.428 112, 213.345 110.625, 217.110 102.500 C 217.874 100.850, 219.287 98.628, 220.250 97.561 C 221.947 95.681, 222 95.747, 222 99.746 C 222 105.480, 223.512 109, 225.975 109 C 227.207 109, 228 108.340, 228 107.314 C 228 106.387, 228.977 104.589, 230.171 103.318 C 232.705 100.620, 232.097 99.342, 229.054 100.971 C 227.002 102.070, 226.942 101.924, 227.112 96.255 C 227.296 90.128, 225.871 86, 223.572 86 C 222.825 86, 221.873 86.787, 221.456 87.750 M 238.750 90.932 C 236.650 97.448, 236.537 100.985, 238.350 103.463 C 239.615 105.193, 239.803 105.102, 241.350 102.001 C 243.147 98.397, 243.732 93.294, 242.041 95.968 C 241.396 96.988, 241.019 95.616, 240.806 91.468 L 240.500 85.500 238.750 90.932 M 403.500 87 C 403.840 87.550, 404.316 88, 404.559 88 C 404.802 88, 405 87.550, 405 87 C 405 86.450, 404.523 86, 403.941 86 C 403.359 86, 403.160 86.450, 403.500 87 M 191.881 89.357 C 192.548 90.161, 192.738 92.058, 192.348 94.012 C 191.895 96.273, 192.030 97.100, 192.775 96.639 C 193.373 96.270, 194.135 96.410, 194.470 96.951 C 194.804 97.492, 194.207 98.478, 193.143 99.143 C 190.984 100.491, 191.685 101.691, 195.973 103.985 C 197.773 104.949, 198.505 104.985, 198.791 104.126 C 199.004 103.487, 199.787 102.356, 200.530 101.613 C 203.178 98.964, 200.155 91.776, 195.454 89.545 C 191.443 87.642, 190.413 87.588, 191.881 89.357 M 127.721 92.614 C 124.871 95.383, 124 97.020, 124 99.614 C 124 101.476, 123.495 103, 122.878 103 C 122.102 103, 122.140 103.464, 123 104.500 C 124.409 106.198, 128.564 106.515, 129.502 104.996 C 129.843 104.444, 131.171 104.256, 132.452 104.577 C 135.478 105.337, 136.656 103.421, 134.028 102.015 C 131.907 100.880, 131.384 97.522, 132.944 95.057 C 134.203 93.066, 138.640 95.117, 140.125 98.375 C 142.281 103.108, 149.520 103.606, 153.821 99.317 C 155.533 97.611, 157.459 97.643, 158.919 99.402 C 161.867 102.955, 169.582 101.913, 170.173 97.882 C 170.621 94.835, 172.164 94.572, 174.861 97.085 C 178.182 100.179, 178.491 98.812, 175.475 94.367 C 171.506 88.515, 170.450 88.327, 167.530 92.952 L 164.995 96.968 161.748 94.988 C 157.573 92.442, 155.149 92.487, 150.060 95.204 L 145.931 97.408 141.850 93.204 C 136.485 87.676, 132.956 87.529, 127.721 92.614 M 646.500 91 C 646.160 91.550, 646.610 92, 647.500 92 C 648.390 92, 648.840 91.550, 648.500 91 C 648.160 90.450, 647.710 90, 647.500 90 C 647.290 90, 646.840 90.450, 646.500 91 M 435.500 92 C 435.160 92.550, 435.359 93, 435.941 93 C 436.523 93, 437 92.550, 437 92 C 437 91.450, 436.802 91, 436.559 91 C 436.316 91, 435.840 91.450, 435.500 92 M 444.500 100 C 444.840 100.550, 445.316 101, 445.559 101 C 445.802 101, 446 100.550, 446 100 C 446 99.450, 445.523 99, 444.941 99 C 444.359 99, 444.160 99.450, 444.500 100 M 465 100.500 C 465 101.325, 465.661 102, 466.469 102 C 467.363 102, 467.712 101.414, 467.362 100.500 C 467.045 99.675, 466.384 99, 465.893 99 C 465.402 99, 465 99.675, 465 100.500 M 484.269 100.693 C 485.242 100.947, 486.592 100.930, 487.269 100.656 C 487.946 100.382, 487.150 100.175, 485.500 100.195 C 483.850 100.215, 483.296 100.439, 484.269 100.693 M 438.500 102 C 438.840 102.550, 439.316 103, 439.559 103 C 439.802 103, 440 102.550, 440 102 C 440 101.450, 439.523 101, 438.941 101 C 438.359 101, 438.160 101.450, 438.500 102 M 462.649 102.528 C 463.299 104.222, 467 106.543, 467 105.257 C 467 104.442, 463.378 101, 462.520 101 C 462.269 101, 462.327 101.688, 462.649 102.528 M 474.500 103 C 474.160 103.550, 474.359 104, 474.941 104 C 475.523 104, 476 103.550, 476 103 C 476 102.450, 475.802 102, 475.559 102 C 475.316 102, 474.840 102.450, 474.500 103 M 587.500 107 C 587.160 107.550, 587.359 108, 587.941 108 C 588.523 108, 589 107.550, 589 107 C 589 106.450, 588.802 106, 588.559 106 C 588.316 106, 587.840 106.450, 587.500 107 M 588.500 109 C 587.063 110.588, 586.990 111, 588.145 111 C 589.714 111, 592 109.102, 592 107.800 C 592 106.383, 590.359 106.946, 588.500 109 M 593.729 108.092 C 592.755 108.659, 592.213 109.536, 592.525 110.041 C 593.134 111.026, 597 109.054, 597 107.759 C 597 106.734, 595.862 106.850, 593.729 108.092 M 261 110 C 261 110.550, 261.450 111, 262 111 C 262.550 111, 263 110.550, 263 110 C 263 109.450, 262.550 109, 262 109 C 261.450 109, 261 109.450, 261 110 M 676.148 128.712 C 675.528 130.246, 674.937 133.075, 674.834 135 C 674.730 136.925, 674.221 139.063, 673.701 139.750 C 673.047 140.615, 673.218 141, 674.255 141 C 675.080 141, 676.179 140.438, 676.697 139.750 C 678.208 137.746, 680.243 130.497, 679.855 128.499 C 679.288 125.573, 677.371 125.683, 676.148 128.712 M 511.443 139.750 C 511.403 147.347, 510.839 152.219, 509.521 156.361 C 507.400 163.027, 506.957 170.108, 508.624 170.690 C 510.374 171.301, 515.585 166.409, 517.887 161.993 C 520.073 157.799, 519.583 156.794, 516.793 159.750 C 514.724 161.941, 512.226 164, 511.635 164 C 511.387 164, 512.434 159.267, 513.960 153.481 C 515.486 147.696, 516.639 141.058, 516.523 138.731 C 516.395 136.170, 516.894 133.819, 517.788 132.775 C 519.122 131.216, 519.005 130.952, 516.567 130.025 C 511.590 128.133, 511.504 128.296, 511.443 139.750 M 653.201 134.815 C 650.820 136.646, 650.966 139.061, 653.623 141.750 C 655.295 143.443, 656.340 143.328, 655.649 141.526 C 655.338 140.716, 655.780 139.663, 656.632 139.186 C 658.297 138.254, 658.197 133.869, 656.500 133.352 C 655.950 133.184, 654.466 133.843, 653.201 134.815 M 111.464 137.750 C 111.050 139.262, 110.581 141.175, 110.423 142 C 110.265 142.825, 109.962 144.175, 109.750 145 C 109.537 145.825, 109.021 147.963, 108.602 149.750 C 107.877 152.847, 107.621 153, 103.143 153 C 100.559 153, 97.481 152.325, 96.304 151.500 C 94.333 150.120, 90.926 150.351, 91.055 151.857 C 91.225 153.829, 97.488 157.152, 102.054 157.693 L 107.190 158.301 106.483 161.401 C 106.095 163.105, 105.463 166.316, 105.079 168.537 C 104.696 170.757, 104.044 173.120, 103.630 173.789 C 103.217 174.458, 102.520 177.273, 102.082 180.044 C 101.417 184.249, 101.561 185.230, 102.947 185.971 C 104.999 187.070, 106.014 186.377, 108.250 182.346 C 110.119 178.978, 110.610 172.495, 109.069 171.543 C 107.994 170.879, 108.391 168.049, 110.344 162.449 C 111.591 158.873, 112.041 158.506, 115.111 158.568 C 116.975 158.606, 119.737 158.992, 121.250 159.427 C 125.757 160.722, 124.323 158.692, 118.722 155.850 C 113.594 153.247, 113.502 153.121, 113.606 148.850 C 113.664 146.457, 113.840 143.375, 113.997 142 C 114.754 135.372, 112.946 132.338, 111.464 137.750 M 535.229 136.171 C 534.553 136.847, 534 137.985, 534 138.700 C 534 139.415, 533.586 140, 533.081 140 C 532.524 140, 532.519 141.295, 533.067 143.281 C 533.752 145.763, 533.517 147.762, 532.101 151.493 C 530.120 156.712, 528 158.568, 528 155.083 C 528 151.672, 525.312 152.692, 524.722 156.327 C 524.077 160.299, 525.138 166.213, 526.582 166.694 C 527.148 166.883, 528.378 165.430, 529.315 163.465 C 530.376 161.240, 531.456 160.164, 532.179 160.611 C 532.927 161.073, 533.137 160.800, 532.770 159.843 C 532.457 159.026, 532.877 155.915, 533.705 152.929 C 534.533 149.943, 535.508 145.925, 535.872 144 C 536.275 141.871, 537.115 140.500, 538.017 140.500 C 540.023 140.500, 539.988 135.621, 537.979 135.235 C 537.143 135.073, 535.905 135.495, 535.229 136.171 M 598 138 C 598 138.550, 598.702 139, 599.559 139 C 600.416 139, 600.840 138.550, 600.500 138 C 600.160 137.450, 599.459 137, 598.941 137 C 598.423 137, 598 137.450, 598 138 M 557 146.919 C 557 149.484, 557.580 150.216, 560.622 151.487 C 562.614 152.319, 565.073 153, 566.087 153 C 567.100 153, 568.383 153.846, 568.936 154.881 C 569.792 156.481, 569.518 156.846, 567.099 157.330 C 565.095 157.731, 563.658 159.043, 562.237 161.770 C 560.353 165.384, 560.328 165.781, 561.860 167.774 C 563.437 169.827, 571.252 173.933, 573.668 173.978 C 575.978 174.021, 579.074 167.367, 578.780 162.991 C 578.547 159.522, 577.585 157.816, 573.092 152.908 C 569.715 149.219, 566.880 147, 565.542 147 C 564.364 147, 562.972 146.601, 562.450 146.112 C 561.928 145.624, 560.487 144.919, 559.250 144.545 C 557.259 143.944, 557 144.217, 557 146.919 M 617 145.829 C 615.075 146.865, 612.990 148.716, 612.366 149.941 C 611.742 151.166, 610.730 152.670, 610.116 153.284 C 609.502 153.898, 609 155.435, 609 156.700 C 609 157.965, 608.564 159, 608.031 159 C 607.499 159, 607.322 159.675, 607.638 160.500 C 607.955 161.325, 607.716 162, 607.107 162 C 606.498 162, 606 162.900, 606 164 C 606 165.100, 606.567 166, 607.259 166 C 607.952 166, 609.081 165.100, 609.768 164 C 610.455 162.900, 611.741 162, 612.625 162 C 613.741 162, 614.073 161.388, 613.710 160 C 613.423 158.900, 613.595 158, 614.094 158 C 614.592 158, 615 156.945, 615 155.655 C 615 153.096, 618.312 149.457, 619.802 150.378 C 620.313 150.693, 621.261 153.648, 621.909 156.944 C 622.558 160.240, 623.518 163.202, 624.044 163.527 C 624.570 163.852, 625 164.965, 625 166 C 625 168.935, 626.993 169.452, 629.323 167.121 C 630.994 165.450, 631.115 165, 629.894 165 C 628.321 165, 626 157.514, 626 152.439 C 626 151.115, 624.763 148.662, 623.250 146.988 L 620.500 143.944 617 145.829 M 674.736 150.112 C 669.438 155.646, 665.721 160.498, 662.265 166.393 C 661.585 167.552, 661.023 171.003, 661.015 174.062 C 661.001 179.073, 661.293 179.840, 663.960 181.812 C 667.700 184.578, 672.406 184.599, 677.515 181.875 C 681.883 179.545, 683.185 178.108, 682.270 176.628 C 681.922 176.065, 682.368 175.940, 683.336 176.330 C 684.251 176.699, 685.675 177.273, 686.500 177.607 C 688.160 178.279, 688.587 176.481, 687 175.500 C 685.379 174.498, 685.837 172.329, 688.500 168.405 C 690.776 165.051, 691 164.935, 691.004 167.110 C 691.006 168.425, 691.899 170.963, 692.989 172.750 C 694.671 175.509, 695.551 176, 698.811 176 C 702.661 176, 707 172.919, 707 170.186 C 707 169.533, 707.398 169, 707.885 169 C 709.679 169, 712.172 163.823, 711.558 161.375 C 710.912 158.802, 705.686 155.010, 702.777 155.004 C 700.040 154.998, 690 160.104, 690 161.502 C 690 162.199, 688.818 163.544, 687.374 164.490 C 684.600 166.308, 684.517 166.266, 681.935 161.757 C 681.382 160.791, 679.168 159.731, 676.968 159.379 C 674.786 159.030, 673 158.443, 673 158.075 C 673 157.707, 674.780 155.668, 676.955 153.544 C 680.386 150.193, 681.126 149.859, 682.532 151.026 C 683.895 152.158, 684.297 152.143, 685.061 150.936 C 685.561 150.146, 685.976 148.262, 685.985 146.750 C 685.998 144.424, 685.583 144, 683.294 144 C 681.286 144, 679.078 145.577, 674.736 150.112 M 594.750 146.716 C 593.237 146.945, 592 147.693, 592 148.378 C 592 149.063, 591.093 150.596, 589.985 151.786 C 587.280 154.689, 586.381 157.341, 585.606 164.702 C 585.018 170.284, 585.157 171.013, 586.991 171.995 C 588.112 172.595, 588.946 172.729, 588.846 172.293 C 588.213 169.546, 591.789 156, 593.147 156 C 593.734 156, 593.986 155.405, 593.707 154.678 C 593.428 153.951, 594.096 152.797, 595.191 152.112 C 596.866 151.067, 597.403 151.158, 598.560 152.684 C 599.317 153.683, 599.953 154.950, 599.974 155.500 C 599.994 156.050, 600.496 158.246, 601.089 160.381 C 602.055 163.859, 602.325 164.104, 603.692 162.737 C 605.943 160.486, 604.520 151.429, 601.429 148.338 C 600.143 147.052, 598.733 146.067, 598.295 146.150 C 597.858 146.232, 596.263 146.487, 594.750 146.716 M 219.395 148.923 C 215.461 149.892, 211.628 152.730, 209.549 156.214 C 208.015 158.785, 208.042 159.042, 210.063 161.063 C 211.945 162.945, 213.104 163.156, 219.849 162.849 L 227.500 162.500 227.500 165.391 C 227.500 167.230, 226.781 168.686, 225.523 169.391 C 224.436 170.001, 222.940 171.175, 222.199 172 C 221.412 172.876, 221.132 172.952, 221.526 172.184 C 222.591 170.104, 214.947 171.109, 213.623 173.223 C 212.774 174.579, 212.966 175.265, 214.522 176.441 C 217.164 178.438, 218.880 178.366, 223.562 176.062 C 230.339 172.726, 234.294 164.820, 231.136 160.920 C 229.468 158.859, 228.118 158.495, 220.445 158.031 C 212.694 157.562, 211.947 157.357, 214.082 156.279 C 215.412 155.608, 219.650 154.445, 223.500 153.695 C 229.257 152.575, 230.500 151.993, 230.500 150.416 C 230.500 148.876, 229.716 148.467, 226.500 148.329 C 224.300 148.236, 221.103 148.503, 219.395 148.923 M 442.954 152.580 C 436.662 156.084, 430 165.900, 430 171.666 C 430 175.575, 430.256 175.945, 434.316 177.911 C 438.709 180.038, 442 180.608, 442 179.243 C 442 178.458, 449.006 176, 451.244 176 C 451.945 176, 453.081 175.100, 453.768 174 C 454.455 172.900, 455.547 172, 456.194 172 C 456.841 172, 458.399 171.034, 459.656 169.853 C 461.547 168.077, 462.205 167.925, 463.471 168.976 C 464.312 169.674, 465 171.419, 465 172.854 C 465 174.743, 466.588 176.943, 470.750 180.822 C 473.913 183.768, 477.625 186.622, 479 187.164 C 481.453 188.131, 481.463 188.175, 479.500 189.541 C 478.400 190.306, 477.043 191.316, 476.484 191.786 C 473.468 194.325, 461.483 196.150, 459.679 194.345 C 459.319 193.985, 460.706 192.204, 462.762 190.387 L 466.500 187.083 462.750 187.042 C 460.688 187.019, 459 187.450, 459 188 C 459 188.550, 458.315 189, 457.479 189 C 456.642 189, 455.453 190.107, 454.837 191.459 C 453.939 193.428, 454.048 194.424, 455.381 196.459 C 456.920 198.807, 457.617 199, 464.555 199 C 468.936 199, 473.546 198.381, 475.620 197.514 C 480.204 195.599, 487 190.217, 487 188.502 C 487 187.226, 479.407 181, 477.851 181 C 476.546 181, 470 173.759, 470 172.315 C 470 170.789, 470.779 170.441, 476.218 169.539 C 478.263 169.199, 480.527 168.330, 481.251 167.606 C 481.974 166.883, 483.757 165.663, 485.213 164.896 C 487.969 163.443, 493.023 156.802, 492.969 154.706 C 492.951 154.043, 491.797 152.669, 490.403 151.654 C 488.077 149.960, 487.725 149.939, 486.106 151.404 C 485.136 152.282, 483.313 153, 482.055 153 C 479.455 153, 470.484 159.226, 468.948 162.098 C 467.887 164.080, 465 164.740, 465 163 C 465 162.450, 465.450 162, 466 162 C 466.550 162, 467 161.325, 467 160.500 C 467 158.209, 465.493 158.711, 464 161.500 C 463.264 162.875, 462.163 164, 461.553 164 C 460.943 164, 459.752 164.787, 458.906 165.750 C 455.908 169.160, 450.590 173, 448.866 173 C 447.905 173, 446.864 173.411, 446.554 173.913 C 446.243 174.415, 444.164 175.134, 441.932 175.511 C 434.820 176.713, 432.070 171.870, 435.619 164.391 C 437.292 160.865, 445 153.950, 445 155.975 C 445 156.604, 445.376 156.886, 445.836 156.602 C 446.295 156.317, 447.983 156.440, 449.586 156.874 L 452.500 157.663 448.850 161.332 C 445.067 165.133, 442 166.104, 442 163.500 C 442 162.554, 442.954 162, 444.583 162 C 446.206 162, 447.012 161.535, 446.750 160.750 C 446.033 158.599, 441.815 159.366, 439.871 162 C 436.439 166.651, 439.818 171.220, 445.118 169.096 C 453.257 165.835, 456.549 156.692, 451.427 151.570 C 449.334 149.477, 448.306 149.600, 442.954 152.580 M 680 152 C 680 152.550, 680.450 153, 681 153 C 681.550 153, 682 152.550, 682 152 C 682 151.450, 681.550 151, 681 151 C 680.450 151, 680 151.450, 680 152 M 195.398 161.749 C 195.341 166.562, 194.959 171.922, 194.547 173.661 C 193.930 176.267, 194.157 177.014, 195.839 177.914 C 198.449 179.311, 198.601 178.978, 199.456 170 C 199.849 165.875, 200.623 161.954, 201.177 161.287 C 201.866 160.457, 201.717 159.140, 200.706 157.112 C 199.484 154.663, 199.468 154.242, 200.614 154.682 C 201.376 154.975, 202 154.716, 202 154.107 C 202 153.498, 200.537 153, 198.750 152.999 L 195.500 152.998 195.398 161.749 M 286.671 157.250 C 279.904 165.554, 279.904 173.888, 286.672 177.146 C 290.028 178.762, 290.216 178.731, 296.796 175.496 L 303.500 172.200 307.199 175.753 C 311.809 180.181, 317.246 180.670, 323.781 177.244 C 328.304 174.873, 332 174.320, 332 176.015 C 332 177.831, 338.410 180.992, 342.101 180.996 C 346.608 181.001, 353.417 178.842, 361.743 174.767 C 364.963 173.192, 367.276 169.234, 366.585 166.483 C 366.264 165.202, 364.835 162.769, 363.411 161.077 C 361.022 158.237, 360.334 158, 354.488 158 C 349.301 158, 347.641 158.427, 345.327 160.356 C 343.772 161.651, 340.858 163.013, 338.850 163.382 C 336.843 163.751, 334.655 164.711, 333.987 165.515 C 332.372 167.461, 331.390 166.700, 330.634 162.918 C 330.045 159.975, 326.554 156.266, 323.064 154.878 C 322.204 154.535, 318.885 155.522, 315.689 157.070 C 310.218 159.721, 306.805 162.867, 304.500 167.383 C 303.950 168.460, 302.825 169.546, 302 169.796 C 300.789 170.162, 300.741 169.994, 301.750 168.925 C 302.438 168.196, 303 165.480, 303 162.889 C 303 158.856, 302.557 157.805, 299.923 155.589 C 295.077 151.511, 290.923 152.031, 286.671 157.250 M 252.277 156.250 C 251.404 157.213, 250.138 158, 249.463 158 C 247.273 158, 240 166.111, 240 168.553 C 240 175.711, 245.175 178.992, 253.258 176.957 C 258.777 175.567, 264.598 170.195, 265.227 165.910 C 265.498 164.059, 264.866 161.063, 263.643 158.405 C 261.703 154.188, 261.426 153.993, 257.736 154.240 C 255.603 154.383, 253.151 155.286, 252.277 156.250 M 412.001 158.807 C 409.398 161.451, 406.648 165.389, 405.890 167.557 C 405.131 169.726, 404.216 171.725, 403.855 172 C 403.495 172.275, 403.042 173.400, 402.850 174.500 C 402.591 175.980, 402.978 176.418, 404.338 176.186 C 405.835 175.930, 406.046 176.301, 405.475 178.186 C 405.009 179.729, 405.109 180.167, 405.775 179.500 C 406.325 178.950, 407.080 177.490, 407.453 176.256 C 407.988 174.484, 407.802 174.139, 406.565 174.613 C 405.704 174.944, 405 174.716, 405 174.107 C 405 173.498, 405.401 173, 405.892 173 C 406.382 173, 407.048 171.945, 407.372 170.656 C 408.227 167.247, 415.884 157.997, 417.835 158.015 C 419.092 158.027, 419.182 158.232, 418.203 158.854 C 417.166 159.511, 417.217 159.935, 418.453 160.961 C 419.304 161.667, 420 163.344, 420 164.688 C 420 167.803, 421.696 171, 423.349 171 C 424.367 171, 424.411 169.524, 423.564 163.750 C 422.979 159.762, 422.136 155.938, 421.691 155.250 C 420.104 152.798, 416.678 154.056, 412.001 158.807 M 481.765 156.828 C 476.384 158.728, 467.473 166.756, 472 165.624 C 473.375 165.280, 476.188 164.717, 478.250 164.372 C 480.313 164.027, 482.006 163.239, 482.012 162.622 C 482.019 162.005, 483.611 160.472, 485.550 159.216 C 487.489 157.960, 488.807 156.497, 488.479 155.966 C 487.734 154.761, 487.546 154.785, 481.765 156.828 M 636.701 157.333 C 634.854 160.153, 633.490 168.365, 634.576 170.124 C 635.569 171.730, 637.817 165.813, 637.924 161.309 C 637.966 159.554, 638.450 157.840, 639 157.500 C 639.550 157.160, 640 156.459, 640 155.941 C 640 154.227, 638.253 154.965, 636.701 157.333 M 126.575 159.664 C 125.550 162.337, 125.932 162.789, 130.548 164.362 C 134.578 165.735, 135.162 165.740, 135.672 164.413 C 136.392 162.536, 135.953 162.106, 131.087 159.928 C 127.650 158.389, 127.078 158.356, 126.575 159.664 M 289.576 160.634 C 286.412 163.414, 285.091 168.805, 287.238 170.168 C 287.932 170.609, 290.329 170.976, 292.565 170.985 C 296.239 170.999, 296.791 170.661, 298.315 167.466 C 300.457 162.975, 300.441 161.055, 298.250 159.392 C 295.606 157.385, 292.818 157.784, 289.576 160.634 M 570.466 159.807 C 569.003 160.857, 568.742 165.984, 570.071 167.586 C 572.306 170.279, 574 169.216, 574 165.122 C 574 161.195, 572.235 158.540, 570.466 159.807 M 699.657 159.707 C 698.420 160.026, 697.978 160.809, 698.314 162.091 C 698.630 163.301, 698.298 164, 697.406 164 C 696.466 164, 696 165.159, 696 167.500 C 696 170.294, 696.390 171, 697.935 171 C 703.915 171, 708.242 166.022, 706.186 161.509 C 705.082 159.085, 703.626 158.684, 699.657 159.707 M 318.500 161.748 C 317.400 162.019, 315.661 162.827, 314.635 163.545 C 313.610 164.262, 312.252 164.650, 311.619 164.407 C 310.879 164.123, 310.430 165.383, 310.363 167.932 C 310.271 171.442, 310.560 171.960, 312.880 172.442 C 317.249 173.348, 325.326 170.718, 326.719 167.936 C 327.743 165.889, 327.663 165.237, 326.219 163.855 C 324.154 161.878, 321.221 161.077, 318.500 161.748 M 249.904 164.326 C 247.376 164.849, 244.823 166.053, 244.232 167.001 C 243.320 168.461, 243.824 169.057, 247.534 170.910 C 251.586 172.934, 252.121 172.983, 254.706 171.569 C 256.243 170.728, 258.203 169.469, 259.062 168.770 C 260.860 167.308, 262.282 164.068, 261.219 163.858 C 258.507 163.320, 253.824 163.514, 249.904 164.326 M 345.094 164.161 C 343.942 164.587, 343 165.400, 343 165.968 C 343 166.535, 342.100 167, 341 167 C 339.900 167, 338.064 167.936, 336.919 169.081 C 334.915 171.085, 334.906 171.213, 336.669 172.560 C 338.455 173.925, 344.405 175.983, 346.596 175.994 C 347.771 176, 353.530 173.497, 356 171.908 C 356.825 171.376, 358.256 170.686, 359.181 170.372 C 361.451 169.603, 362.119 167.520, 360.681 165.695 C 359.339 163.990, 348.452 162.919, 345.094 164.161 M 670.308 165.639 C 669.649 167.357, 671.669 168.979, 676 170.211 C 677.378 170.602, 675.470 170.766, 671.750 170.576 L 665 170.230 665 173.115 C 665 174.702, 665.398 176, 665.883 176 C 666.369 176, 667.017 176.955, 667.322 178.123 C 667.813 179.999, 668.320 180.158, 671.689 179.493 C 673.785 179.079, 676.043 178.723, 676.706 178.703 C 677.369 178.683, 677.681 178.294, 677.400 177.838 C 677.118 177.382, 677.999 176.502, 679.359 175.882 C 682.203 174.586, 683.334 171.493, 681.926 168.861 C 679.873 165.025, 671.441 162.687, 670.308 165.639 M 53.750 166.080 C 52.788 166.641, 52 166.821, 52 166.482 C 52 165.862, 46.431 169.532, 44.435 171.467 C 41.062 174.736, 38 181.962, 38 186.650 C 38 191.002, 38.370 191.897, 40.960 193.812 C 44.372 196.335, 48.736 196.548, 54.500 194.471 C 56.700 193.679, 61.021 193.023, 64.102 193.015 C 68.951 193.002, 70.125 192.597, 72.843 190 C 74.569 188.350, 76.338 187, 76.773 187 C 77.575 187, 78.272 183.324, 78.236 179.287 C 78.225 178.069, 77.479 176.336, 76.578 175.435 C 75.134 173.991, 74.411 173.953, 70.470 175.117 C 68.011 175.843, 66 176.727, 66 177.082 C 66 177.437, 64.902 178.825, 63.561 180.167 C 62.219 181.508, 60.944 183.932, 60.727 185.553 C 60.403 187.978, 59.551 188.800, 55.917 190.196 C 49.933 192.493, 45.849 192.557, 46.700 190.339 C 47.201 189.033, 46.889 188.796, 45.233 189.229 C 39.865 190.632, 41.765 178.400, 47.298 175.932 C 48.509 175.391, 51.029 173.835, 52.898 172.474 C 55.278 170.741, 57.600 170, 60.648 170 C 63.850 170, 65 169.604, 65 168.500 C 65 167.675, 64.325 167, 63.500 167 C 62.675 167, 62 166.550, 62 166 C 62 164.702, 56.016 164.760, 53.750 166.080 M 97.500 173.341 C 95.300 174.438, 91.700 175.440, 89.500 175.569 C 87.300 175.697, 85.174 175.847, 84.775 175.901 C 84.376 175.956, 84.335 177.463, 84.683 179.250 C 85.277 182.298, 89.075 187, 90.943 187 C 92.675 187, 93.152 192.277, 91.564 193.865 C 90.240 195.189, 89.344 195.239, 85.491 194.209 C 79.231 192.535, 76.921 192.631, 77.653 194.537 C 78.616 197.047, 83.555 199, 88.937 199 C 93.808 199, 94.025 198.877, 95.558 195.250 C 96.860 192.170, 96.952 190.532, 96.072 186.083 C 94.559 178.436, 94.647 178.019, 98.021 176.843 C 100.988 175.809, 103.732 172.495, 102.253 171.734 C 101.839 171.521, 99.700 172.244, 97.500 173.341 M 128.184 176.903 C 124.783 180.149, 122 183.669, 122 184.725 C 122 186.932, 129.273 191.019, 133.110 190.968 C 136.369 190.925, 140.696 186.896, 142.992 181.768 L 144.895 177.518 142.698 175.017 C 137.723 169.358, 135.830 169.604, 128.184 176.903 M 268 176.345 C 268 177.695, 271.073 181, 272.329 181 C 273.461 181, 273.073 177.473, 271.800 176.200 C 270.192 174.592, 268 174.676, 268 176.345 M 387 177.941 C 387 178.459, 387.450 179.160, 388 179.500 C 388.550 179.840, 389 179.416, 389 178.559 C 389 177.702, 388.550 177, 388 177 C 387.450 177, 387 177.423, 387 177.941 M 133 179.295 C 131.379 180.076, 130.397 181.477, 130.207 183.280 C 129.937 185.848, 130.122 186.007, 132.638 185.376 C 135.164 184.742, 139.896 180.465, 139.968 178.750 C 140.016 177.610, 135.815 177.938, 133 179.295 M 67.559 182.532 C 65.735 183.911, 65.834 184, 69.186 184 C 71.149 184, 73.315 183.325, 74 182.500 C 75.058 181.225, 74.814 181.005, 72.372 181.032 C 70.793 181.049, 68.626 181.724, 67.559 182.532 M 43 186 C 43 186.550, 43.450 187, 44 187 C 44.550 187, 45 186.550, 45 186 C 45 185.450, 44.550 185, 44 185 C 43.450 185, 43 185.450, 43 186 M 697 187.677 C 695.625 187.899, 688.425 188.980, 681 190.078 C 673.575 191.176, 666.038 192.303, 664.250 192.582 C 661.561 193.003, 661 193.533, 661 195.652 C 661 197.529, 661.405 198.059, 662.513 197.633 C 663.346 197.314, 666.158 196.794, 668.763 196.477 C 671.368 196.160, 675.750 195.495, 678.500 194.998 C 681.250 194.502, 687.859 193.798, 693.187 193.434 C 703.185 192.750, 705.518 191.534, 702.895 188.373 C 701.742 186.984, 701.478 186.952, 697 187.677 M 644.553 211.250 C 644.341 211.938, 643.932 215.435, 643.643 219.022 C 643.354 222.609, 642.419 226.884, 641.565 228.522 C 640.711 230.160, 640.010 232.261, 640.006 233.191 C 640.003 234.121, 639.550 235.160, 639 235.500 C 637.849 236.211, 637.619 244.993, 638.750 245.014 C 639.163 245.021, 640.416 245.273, 641.535 245.574 C 643.407 246.077, 643.583 245.631, 643.740 239.967 C 643.834 236.582, 644.335 233.293, 644.853 232.656 C 648.058 228.725, 650.143 213.543, 647.800 211.200 C 646.255 209.655, 645.038 209.674, 644.553 211.250 M 466.347 215.843 C 465.813 216.204, 464.358 219.041, 463.114 222.147 C 461.060 227.274, 457.351 232.333, 449.735 240.396 C 448.231 241.989, 446.988 243.564, 446.973 243.896 C 446.958 244.228, 445.152 245.607, 442.960 246.960 C 440.767 248.312, 439.129 249.887, 439.319 250.460 C 440.057 252.674, 443.065 251.989, 446.544 248.815 C 448.543 246.992, 450.813 245.140, 451.589 244.700 C 452.365 244.260, 453 243.260, 453 242.476 C 453 241.692, 454.293 240.383, 455.873 239.566 C 457.453 238.749, 459.028 237.050, 459.373 235.790 C 459.804 234.216, 460.246 233.880, 460.788 234.717 C 461.678 236.090, 461.608 241.880, 460.644 246.750 C 460.290 248.537, 459.748 251.308, 459.441 252.906 C 459.038 255.005, 458.134 255.999, 456.191 256.483 C 450.980 257.782, 447 260.205, 447 262.079 C 447 265.744, 455.470 267.548, 458.055 264.434 C 459.873 262.243, 464.468 260.004, 467.200 259.978 C 468.465 259.966, 470.625 259.076, 472 258 L 474.500 256.044 471.500 255.912 C 469.850 255.838, 467.565 255.850, 466.423 255.938 C 464.393 256.094, 464.356 255.785, 464.797 242.299 C 465.189 230.305, 465.559 227.883, 467.624 223.783 C 468.931 221.189, 470 218.425, 470 217.640 C 470 215.985, 467.764 214.884, 466.347 215.843 M 671.663 218.584 C 670.653 219.971, 670.093 221.799, 670.417 222.646 C 670.801 223.646, 670.310 224.368, 669.015 224.706 C 667.919 224.993, 667.246 225.588, 667.518 226.030 C 668.061 226.907, 666.298 232.144, 665.178 232.980 C 664.216 233.699, 657.608 244.643, 654.381 250.864 C 652.915 253.689, 651.330 256, 650.858 256 C 650.386 256, 650 257.168, 650 258.596 C 650 260.023, 648.997 262.601, 647.770 264.323 C 644.732 268.590, 638 281.872, 638 283.599 C 638 286.073, 642.522 285.109, 645.500 282 C 647.081 280.350, 649.002 279, 649.770 279 C 650.538 279, 650.967 278.438, 650.723 277.750 C 650.479 277.063, 649.258 276.618, 648.010 276.761 C 645.840 277.011, 645.811 276.924, 647.347 274.761 C 648.231 273.518, 649.839 270.587, 650.921 268.250 C 652.002 265.913, 653.363 264, 653.944 264 C 654.525 264, 655 263.325, 655 262.500 C 655 261.675, 655.563 260.993, 656.250 260.985 C 657.179 260.973, 657.155 260.751, 656.156 260.118 C 655.106 259.452, 655.595 258.176, 658.391 254.285 C 660.359 251.545, 661.691 249.024, 661.349 248.683 C 661.008 248.342, 661.566 246.811, 662.590 245.281 C 663.613 243.752, 665.297 240.925, 666.331 239 C 667.365 237.075, 668.987 234.600, 669.937 233.500 C 672.425 230.617, 677 220.674, 677 218.150 C 677 215.175, 673.967 215.422, 671.663 218.584 M 292.231 222.550 C 291.004 223.410, 290 224.749, 290 225.526 C 290 226.303, 289.100 228.542, 288 230.500 C 286.900 232.458, 286 235.445, 286 237.137 C 286 239.712, 285.714 240.081, 284.250 239.398 C 282.438 238.553, 274.574 238.566, 272.354 239.418 C 271.659 239.684, 270.104 241.835, 268.899 244.198 C 267.694 246.560, 266.030 248.989, 265.201 249.595 C 264.372 250.201, 263.994 251.181, 264.360 251.773 C 264.726 252.366, 264.497 254.009, 263.852 255.425 C 262.378 258.661, 263.927 262.554, 267.301 264.091 C 269.151 264.934, 270.698 264.687, 274.815 262.889 C 277.667 261.644, 280 260.051, 280 259.349 C 280 257.495, 286.828 253.142, 288.889 253.681 C 291.756 254.431, 296.376 258.583, 295.650 259.758 C 294.411 261.761, 289.146 262.289, 287.437 260.580 C 285.316 258.459, 281.747 260.251, 282.189 263.216 C 282.706 266.672, 285.309 267.600, 290.553 266.197 C 295.013 265.004, 302 260.600, 302 258.981 C 302 257.225, 294.642 251, 292.567 251 C 291.338 251, 290.094 250.760, 289.801 250.467 C 289.508 250.175, 291.025 245.562, 293.172 240.217 C 296.072 232.997, 297.001 229.364, 296.787 226.078 C 296.463 221.081, 295.450 220.296, 292.231 222.550 M 309.230 234.250 C 309.184 250.159, 308.615 256.785, 307.170 258.230 C 305.382 260.018, 305.702 260.653, 309.611 263.069 C 313.172 265.269, 313.265 265.275, 316.361 263.448 C 320.656 260.914, 322.809 258.130, 323.611 254.076 C 324.174 251.226, 323.896 250.334, 321.951 248.760 C 319.695 246.932, 318.629 246.900, 314.635 248.538 C 312.920 249.241, 312.822 248.911, 313.413 244.401 C 313.766 241.705, 314.230 237.535, 314.444 235.134 C 314.657 232.732, 315.287 230.313, 315.843 229.757 C 317.179 228.421, 313.086 222.029, 310.882 222.012 C 309.482 222.002, 309.260 223.641, 309.230 234.250 M 291.306 233.250 C 289.985 239.621, 290.437 240.804, 291.990 235.038 C 292.606 232.748, 293.359 230.228, 293.662 229.437 C 293.966 228.647, 293.805 228, 293.304 228 C 292.804 228, 291.905 230.363, 291.306 233.250 M 223.418 234.132 C 222.774 235.175, 229.474 241.874, 231.250 241.962 C 231.662 241.983, 232 242.675, 232 243.500 C 232 244.325, 232.450 245, 233 245 C 233.550 245, 234 246.291, 234 247.868 C 234 250.468, 233.618 250.788, 229.922 251.284 C 218.674 252.792, 220.139 261.944, 231.636 261.985 C 235.363 261.999, 235.932 261.664, 237.386 258.599 C 238.274 256.728, 239 254.628, 239 253.932 C 239 252.077, 239.996 253.385, 240.475 255.868 C 240.701 257.045, 241.164 258.456, 241.502 259.004 C 242.298 260.291, 245 260.300, 245 259.015 C 245 258.473, 246.294 255.886, 247.875 253.265 C 249.456 250.644, 251.036 246.588, 251.387 244.250 C 252.088 239.570, 251.509 238.780, 249.921 242.250 C 249.354 243.488, 248.037 246.075, 246.994 248 L 245.096 251.500 245.048 245.250 C 245.021 241.718, 245.435 239, 246 239 C 247.381 239, 247.202 237.852, 245.464 235.554 C 243.393 232.815, 241.553 234.922, 241.803 239.746 C 241.910 241.811, 241.368 245.291, 240.599 247.479 L 239.200 251.458 238.102 247.380 C 236.562 241.660, 233.029 236.795, 228.964 234.798 C 224.775 232.740, 224.313 232.684, 223.418 234.132 M 140.500 235 C 140.160 235.550, 140.134 236.408, 140.442 236.906 C 141.268 238.242, 145 236.995, 145 235.383 C 145 233.799, 141.430 233.495, 140.500 235 M 354.394 237.417 C 353.719 239.174, 350.465 239.561, 349.500 238 C 347.451 234.685, 341.209 238.964, 335.460 247.626 C 332.663 251.839, 331.934 253.975, 331.741 258.521 C 331.533 263.410, 331.818 264.432, 333.853 266.081 C 336.600 268.307, 339.487 267.910, 345.517 264.476 C 347.833 263.157, 350.586 262.367, 352.017 262.609 C 354.068 262.957, 354.944 262.287, 357.051 258.765 C 362.197 250.161, 362.540 249.112, 360.788 247.359 C 359.345 245.916, 359.147 245.963, 358.535 247.888 C 357.358 251.598, 356.011 250.152, 356.543 245.750 C 357.523 237.642, 357.494 236.700, 356.251 236.268 C 355.563 236.029, 354.728 236.546, 354.394 237.417 M 195.201 239.908 C 194.516 241.455, 194.258 243.571, 194.627 244.611 C 195.544 247.191, 199.080 251, 200.559 251 C 201.849 251, 205 255.233, 205 256.965 C 205 257.572, 202.314 258, 198.500 258 C 192.792 258, 192 258.230, 192 259.891 C 192 263.810, 205.143 263.055, 208.187 258.961 C 209.937 256.608, 209.964 256.157, 208.552 252.780 C 207.715 250.776, 206.573 248.854, 206.015 248.509 C 205.457 248.164, 205 247.009, 205 245.941 C 205 244.386, 205.702 244, 208.532 244 C 212.361 244, 219 241.625, 219 240.255 C 219 239.789, 214.708 239.595, 209.462 239.825 C 201.769 240.161, 199.588 239.937, 198.186 238.668 C 196.581 237.216, 196.350 237.312, 195.201 239.908 M 583.858 237.806 C 580.261 238.223, 572.666 245.922, 571.228 250.610 C 570.229 253.865, 570.308 254.687, 571.781 256.342 C 572.726 257.404, 574.782 258.820, 576.348 259.488 C 579.818 260.967, 588.278 260.425, 592.035 258.482 C 593.550 257.698, 596.536 256.778, 598.670 256.437 C 600.803 256.096, 604.110 254.542, 606.018 252.985 C 609.696 249.984, 609.525 247.931, 605.748 249.742 C 604.512 250.335, 599.675 251.987, 595 253.414 C 584.629 256.580, 578.034 256.800, 575.557 254.063 C 573.225 251.486, 574.311 249.943, 577.763 250.929 C 582.774 252.361, 591.506 251.013, 594.359 248.368 C 596.874 246.036, 596.904 245.866, 595.376 242.662 C 593.697 239.140, 589.094 237.200, 583.858 237.806 M 498.634 242.299 C 495.004 245.929, 489.700 256.229, 490.189 258.697 C 490.360 259.557, 491.593 260.986, 492.930 261.872 C 495.287 263.435, 495.342 263.414, 494.757 261.179 C 494.134 258.796, 496.198 252.614, 497.985 251.509 C 498.543 251.164, 499 249.946, 499 248.801 C 499 246.722, 501.531 244.092, 503.590 244.032 C 505.206 243.985, 507.362 251.421, 506.606 254.433 C 505.755 257.825, 508.643 259.245, 510.633 256.412 C 511.372 255.361, 513.189 253.255, 514.671 251.733 L 517.367 248.967 518.727 252.201 C 520.582 256.613, 521.708 257.146, 527.500 256.352 C 530.250 255.975, 534.831 255.747, 537.680 255.846 C 541.976 255.994, 543.340 255.590, 545.680 253.472 L 548.500 250.920 536.166 251.210 L 523.831 251.500 522.464 248.250 C 521.323 245.539, 520.562 245, 517.877 245 C 516.106 245, 513.835 245.745, 512.829 246.655 C 511.496 247.861, 511 247.955, 511 246.999 C 511 244.685, 505.965 239, 503.916 239 C 502.825 239, 500.449 240.485, 498.634 242.299 M 98.500 245.363 C 94.620 248.703, 94.505 248.984, 94.666 254.708 C 94.790 259.115, 95.625 262.171, 97.962 266.770 C 100.990 272.727, 101.037 273.014, 99.398 275.516 C 97.407 278.554, 92.422 281.376, 90.410 280.604 C 88.130 279.729, 88.767 278.230, 92.495 275.697 C 94.417 274.391, 95.761 273.094, 95.481 272.815 C 94.342 271.675, 88.044 274.607, 87.079 276.727 C 86.509 277.977, 85.583 279, 85.021 279 C 84.460 279, 84 279.643, 84 280.429 C 84 283.065, 87.049 285, 91.203 285 C 94.664 285, 95.908 284.355, 99.632 280.632 C 104.413 275.850, 105.159 272.508, 102.601 267.331 C 101.832 265.774, 100.315 262.700, 99.230 260.500 C 96.674 255.317, 95.674 251.035, 96.981 250.875 C 97.541 250.806, 98.348 250.694, 98.773 250.625 C 99.199 250.556, 100.564 249.553, 101.806 248.395 C 103.288 247.014, 104.915 246.452, 106.533 246.762 C 110.259 247.474, 109.495 248.897, 105 249.616 C 102.800 249.968, 101 250.640, 101 251.109 C 101 252.826, 106.445 253.285, 110.436 251.905 C 117.925 249.316, 115.639 243.859, 106.500 242.511 C 102.961 241.989, 102.039 242.317, 98.500 245.363 M 272.487 245.654 C 269.113 248.811, 268.786 249.446, 270.365 249.788 C 272.245 250.194, 280.167 245.170, 280.384 243.434 C 280.693 240.951, 276.149 242.228, 272.487 245.654 M 73.385 243.765 C 72.771 244.169, 71.975 245.444, 71.616 246.598 C 71.256 247.752, 69.845 249.205, 68.481 249.827 C 64.056 251.843, 65.745 256, 70.989 256 C 73.401 256, 76.519 265.569, 76.447 272.748 C 76.399 277.524, 76.050 278.312, 72.571 281.498 C 70.469 283.424, 68.018 285.006, 67.124 285.014 C 66.231 285.021, 64.526 285.289, 63.336 285.608 C 60.778 286.294, 58.201 282.693, 59.815 280.686 C 60.340 280.034, 61.086 278.020, 61.472 276.211 L 62.176 272.922 58.838 274.277 C 56.299 275.308, 55.286 276.482, 54.607 279.179 C 53.232 284.641, 54.498 287.892, 58.678 289.639 C 63.025 291.455, 64.951 291.046, 72.138 286.779 C 80.060 282.077, 81.591 276.373, 78.477 263.167 C 77.656 259.684, 77.203 256.480, 77.471 256.047 C 77.738 255.614, 79.257 254.722, 80.845 254.064 C 82.433 253.406, 84.326 251.760, 85.051 250.405 C 86.638 247.439, 85.428 245.904, 80.101 244.131 C 76.160 242.820, 74.923 242.752, 73.385 243.765 M 342.899 244.247 C 341.173 244.933, 339.404 247.169, 337.642 250.891 C 333.237 260.194, 334.405 263.601, 341.531 262.239 C 344.420 261.687, 353 254.155, 353 252.171 C 353 250.215, 350.449 250.855, 347.553 253.538 C 344.460 256.405, 341 256.085, 341 252.933 C 341 251.391, 341.707 251, 344.500 251 C 346.508 251, 348 250.501, 348 249.829 C 348 249.185, 348.719 247.863, 349.598 246.892 C 352.686 243.480, 348.743 241.923, 342.899 244.247 M 377.667 244.242 C 373.714 245.064, 372.302 245.980, 369.917 249.273 C 366.402 254.125, 366.293 255.866, 369.282 259.344 C 371.358 261.761, 372.211 262, 378.755 262 C 384.083 262, 387.097 261.441, 390.389 259.842 C 396.267 256.986, 397.733 254.250, 396.075 249.226 C 395.044 246.105, 394.131 245.216, 390.927 244.216 C 386.482 242.828, 384.443 242.832, 377.667 244.242 M 585.484 244.027 C 585.135 244.591, 584.321 244.988, 583.675 244.908 C 581.037 244.582, 579 245.058, 579 246 C 579 247.161, 587.563 247.226, 590.478 246.087 C 592.411 245.332, 592.406 245.288, 590.293 244.157 C 587.626 242.729, 586.307 242.694, 585.484 244.027 M 43.658 248 C 42.187 249.650, 40.313 251, 39.492 251 C 38.350 251, 38 252.290, 38 256.500 L 38 262 43.050 262 C 49.109 262, 52.570 260.328, 56.250 255.623 C 59.214 251.833, 59.584 249.960, 57.965 246.934 C 57.141 245.395, 55.846 245, 51.630 245 C 47.002 245, 45.992 245.380, 43.658 248 M 281.250 247.662 C 280.563 247.940, 280 248.692, 280 249.334 C 280 249.975, 277.322 251.356, 274.049 252.402 C 268.011 254.331, 266.505 255.864, 267.515 259.048 C 268.537 262.267, 270.731 261.905, 276.755 257.521 C 282.497 253.343, 284 251.454, 284 248.418 C 284 246.956, 283.406 246.792, 281.250 247.662 M 376.500 249.142 C 374.300 250.315, 372.169 251.776, 371.765 252.387 C 370.804 253.844, 370.794 256.044, 371.750 255.839 C 372.163 255.750, 373.767 256.200, 375.315 256.839 C 376.863 257.477, 379.081 258, 380.244 258 C 383.333 258, 389.204 255.767, 391.452 253.738 C 393.191 252.167, 393.240 251.811, 391.896 250.468 C 391.067 249.638, 389.514 248.773, 388.444 248.545 C 381.413 247.046, 380.328 247.100, 376.500 249.142 M 75 249.441 C 75 251.472, 76.134 251.903, 78.814 250.891 C 81.646 249.822, 80.780 248, 77.441 248 C 75.982 248, 75 248.580, 75 249.441 M 48.542 249.932 C 48.179 250.519, 47.009 251, 45.941 251 C 44.873 251, 44 251.450, 44 252 C 44 252.550, 45.125 253, 46.500 253 C 50.481 253, 49.394 254.758, 44.949 255.509 C 40.546 256.252, 40.025 258.304, 44.114 258.796 C 45.627 258.978, 48.195 257.917, 50.787 256.040 C 54.943 253.029, 56.345 250, 53.582 250 C 52.802 250, 51.497 249.744, 50.683 249.432 C 49.869 249.119, 48.905 249.344, 48.542 249.932 M 317.250 251.820 C 316.012 251.995, 315 252.558, 315 253.070 C 315 253.581, 314.212 254.045, 313.250 254.100 C 312.083 254.166, 312.333 254.466, 314 255 C 315.556 255.498, 315.862 255.838, 314.809 255.900 C 312.595 256.031, 311.681 257.608, 312.731 259.484 C 313.428 260.730, 314.130 260.475, 316.854 257.986 C 320.596 254.568, 320.805 251.315, 317.250 251.820 M 231.333 255.500 C 231.333 256.325, 231.933 257, 232.667 257 C 233.400 257, 234 256.325, 234 255.500 C 234 254.675, 233.400 254, 232.667 254 C 231.933 254, 231.333 254.675, 231.333 255.500 M 130.467 257.274 C 130.134 258.603, 130.005 261.448, 130.180 263.595 C 130.460 267.017, 130.840 267.539, 133.250 267.816 C 135.986 268.131, 137.135 266.547, 134.750 265.748 C 133.980 265.490, 133.500 263.473, 133.500 260.501 C 133.500 255.290, 131.500 253.161, 130.467 257.274 M 677 256.647 C 668.971 259.497, 666.631 261.682, 667.576 265.448 C 668.281 268.258, 670.704 268.434, 670.204 265.639 C 669.906 263.971, 673.473 262, 676.788 262 C 677.985 262, 677.586 262.765, 675.356 264.750 C 673.657 266.262, 671.450 267.980, 670.450 268.567 C 669.451 269.154, 668.154 270.451, 667.567 271.450 C 666.980 272.449, 665.487 274.311, 664.250 275.588 C 661.121 278.816, 661.263 283.970, 664.589 287.923 C 666.942 290.720, 667.716 291, 673.089 291 C 676.340 291, 679 290.553, 679 290.008 C 679 289.462, 681.242 287.549, 683.982 285.758 C 689.199 282.346, 689.932 280.657, 687.588 277.451 C 686.221 275.581, 686.139 275.602, 684.998 278.104 C 682.685 283.183, 669.108 287.331, 667.607 283.418 C 666.430 280.351, 667.044 278.945, 671.463 274.589 C 675.690 270.421, 681.920 265.512, 682.993 265.504 C 683.264 265.502, 683.489 263.475, 683.493 261 C 683.499 256.916, 683.269 256.482, 681 256.307 C 679.625 256.201, 677.825 256.354, 677 256.647 M 475.984 284.519 C 474.952 285.763, 475.063 286.441, 476.601 288.269 C 477.634 289.496, 478.620 290.712, 478.794 290.971 C 478.967 291.230, 479.489 290.827, 479.953 290.075 C 480.515 289.167, 481.419 288.985, 482.649 289.534 C 483.667 289.987, 485.272 290.441, 486.215 290.541 C 489.004 290.838, 492.999 293.911, 493.015 295.773 C 493.027 297.101, 493.226 297.192, 493.877 296.166 C 494.547 295.107, 496.045 295.495, 501.111 298.040 C 504.625 299.806, 507.650 301.643, 507.833 302.123 C 508.016 302.604, 509.253 302.724, 510.583 302.390 C 512.105 302.008, 513 302.215, 513 302.951 C 513 303.593, 513.453 303.838, 514.007 303.496 C 514.561 303.153, 515.299 303.614, 515.646 304.520 C 516.074 305.635, 516.505 305.800, 516.980 305.033 C 517.461 304.254, 518.437 304.195, 520.091 304.845 C 527.413 307.723, 539.806 308.870, 581.500 310.528 C 589.200 310.834, 597.516 311.334, 599.979 311.638 C 603.892 312.121, 604.240 312.351, 602.729 313.456 C 600.054 315.412, 600.675 316.289, 604.250 315.606 C 606.038 315.265, 608.175 314.868, 609 314.724 C 614.809 313.711, 617.100 308.702, 612.250 307.619 C 610.737 307.282, 595.325 306.346, 578 305.540 C 560.675 304.734, 541.775 303.557, 536 302.925 C 524.443 301.661, 507.585 296.929, 501.770 293.317 C 499.718 292.043, 497.549 291, 496.950 291 C 496.351 291, 493.898 289.650, 491.500 288 C 489.102 286.350, 486.460 285, 485.629 285 C 484.798 285, 483.840 284.550, 483.500 284 C 482.548 282.460, 477.398 282.816, 475.984 284.519 M 510.439 323.067 C 509.477 324.130, 508.169 325, 507.533 325 C 506.897 325, 505.378 326.350, 504.158 328 C 502.938 329.650, 501.531 331, 501.032 331 C 500.532 331, 498.645 332.350, 496.839 334 C 495.032 335.650, 493.049 337, 492.432 337 C 490.768 337, 488 340.395, 488 342.437 C 488 344.886, 492.012 343.821, 495.708 340.391 C 497.243 338.965, 499.719 337.167, 501.209 336.395 C 502.699 335.623, 505.019 333.981, 506.364 332.745 C 507.709 331.510, 509.415 329.993, 510.155 329.373 C 512.272 327.598, 515 324.064, 515 323.096 C 515 321.239, 512.110 321.221, 510.439 323.067 M 134.543 342.931 C 134.226 343.443, 134.425 344.144, 134.984 344.490 C 135.543 344.835, 136 344.416, 136 343.559 C 136 341.802, 135.400 341.544, 134.543 342.931 M 468 347.850 C 464.942 348.280, 464.035 349.579, 464.015 353.559 C 463.995 357.548, 465.556 359.350, 470.770 361.357 C 477.084 363.787, 481.020 363.464, 484.936 360.195 C 489.085 356.731, 488.846 353.760, 484.682 357.036 C 482.167 359.014, 481.492 359.109, 477.363 358.070 C 472.617 356.875, 468 354.353, 468 352.956 C 468 352.509, 468.711 351.432, 469.580 350.563 C 471.678 348.465, 471.069 347.419, 468 347.850 M 305.722 352.806 C 299.765 357.412, 296.673 362.982, 296.640 369.166 C 296.608 375.308, 298.133 377, 303.701 377 C 307.622 377, 308.856 376.393, 313.963 371.951 C 320.836 365.973, 323.190 360.286, 320.989 354.973 C 318.148 348.115, 312.775 347.352, 305.722 352.806 M 346.813 356.932 C 345.386 358.055, 343.584 361.349, 342.443 364.921 C 340.687 370.415, 340.236 371, 337.750 371 C 335.972 371, 335 370.470, 335 369.500 C 335 367.541, 332.108 367.555, 331.355 369.518 C 331.034 370.353, 331.340 372.406, 332.034 374.081 C 333.212 376.927, 333.547 377.083, 337.147 376.475 C 340.844 375.851, 341.006 375.939, 341.145 378.662 C 341.645 388.423, 338.248 395, 332.707 395 L 329.651 395 331.996 392.504 C 335.070 389.232, 334.129 388.494, 329.624 390.642 C 325.216 392.744, 324.734 396.125, 328.493 398.587 C 331.380 400.479, 334.589 399.959, 337.934 397.057 C 339.201 395.958, 341.050 394.801, 342.044 394.486 C 343.426 394.047, 344.008 392.442, 344.521 387.650 C 344.890 384.206, 345.097 380.513, 344.981 379.444 C 344.554 375.509, 345.092 374.448, 348.757 372.006 C 357.270 366.334, 360.038 361.081, 356.250 357.789 C 353.231 355.166, 349.491 354.826, 346.813 356.932 M 307.250 359.262 C 302.367 360.436, 301.595 362.857, 305.250 365.536 L 307.500 367.185 305 366.477 C 300.818 365.293, 300.511 365.404, 300.187 368.215 C 299.939 370.363, 300.365 371.054, 302.226 371.521 C 303.520 371.845, 305.686 371.688, 307.039 371.171 C 310.492 369.851, 317.740 362.945, 318.500 360.250 C 319.082 358.186, 318.819 358.010, 315.317 358.120 C 313.218 358.186, 309.587 358.700, 307.250 359.262 M 577 360.059 C 577 360.641, 577.450 360.840, 578 360.500 C 578.550 360.160, 579 359.684, 579 359.441 C 579 359.198, 578.550 359, 578 359 C 577.450 359, 577 359.477, 577 360.059 M 348.816 362.750 C 348.589 364.726, 348.008 365.417, 346.750 365.206 C 345.558 365.006, 345 365.564, 345 366.956 C 345 369.373, 346.277 369.580, 348.357 367.500 C 349.182 366.675, 350.270 366, 350.774 366 C 351.278 366, 352.429 365.184, 353.331 364.186 C 354.597 362.787, 354.701 362.101, 353.786 361.186 C 351.629 359.029, 349.155 359.807, 348.816 362.750 M 409.750 364.357 C 408.238 366.751, 407 369.064, 407 369.497 C 407 369.929, 405.762 371.491, 404.250 372.966 C 396.311 380.711, 391.405 389.825, 393.870 392.249 C 394.891 393.253, 395.505 393.055, 396.981 391.250 C 397.993 390.012, 399.311 389, 399.910 389 C 400.510 389, 401 388.161, 401 387.135 C 401 386.109, 401.822 384.197, 402.827 382.885 C 403.831 381.573, 405.422 378.540, 406.361 376.144 C 408.633 370.348, 409.980 369, 413.500 369 C 414.325 369, 415 368.325, 415 367.500 C 415 366.675, 414.460 366, 413.800 366 C 412.867 366, 412.867 365.733, 413.800 364.800 C 415.376 363.224, 415.343 360, 413.750 360.002 C 413.063 360.003, 411.262 361.962, 409.750 364.357 M 378 363.981 C 378 364.520, 376.969 365.221, 375.710 365.537 C 372.174 366.424, 369.433 373.885, 367.679 387.399 C 366.739 394.645, 365.620 399.631, 364.818 400.147 C 362.289 401.777, 353 398.868, 353 396.448 C 353 395.780, 353.900 394.998, 355 394.710 C 357.295 394.110, 357.724 392, 355.552 392 C 353.758 392, 349 396.300, 349 397.921 C 349 399.984, 355.294 404.965, 358.711 405.606 C 366.393 407.047, 369.441 403.386, 371.218 390.586 C 372.379 382.223, 373.043 381.041, 376.600 381.015 C 377.755 381.007, 380.567 379.647, 382.850 377.994 C 386.500 375.350, 387 374.515, 387 371.066 C 387 368.021, 386.411 366.682, 384.365 365.073 C 381.616 362.910, 378 362.290, 378 363.981 M 374.977 371.756 C 372.373 375.066, 372.474 377.001, 375.250 376.996 C 378.222 376.991, 384.255 373.264, 383.749 371.746 C 383.530 371.089, 381.911 370.257, 380.152 369.897 C 377.495 369.354, 376.619 369.668, 374.977 371.756 M 467 379.264 C 464.525 380.494, 460.363 383.667, 457.750 386.317 C 453.719 390.404, 453 391.724, 453 395.031 C 453 397.930, 453.522 399.209, 455.038 400.020 C 457.384 401.276, 464.778 400.457, 469.872 398.377 C 474.159 396.626, 475 396.647, 475 398.500 C 475 400.983, 476.915 400.188, 477.611 397.415 C 478.581 393.549, 476.212 391.572, 472.423 393.087 C 466.552 395.435, 458.452 396.785, 457.278 395.611 C 455.728 394.062, 460.077 388.808, 466.159 384.882 C 470.229 382.255, 472.958 379.799, 472.974 378.750 C 473.007 376.509, 472.447 376.557, 467 379.264 M 490.655 378.829 C 488.845 380.829, 488.402 385, 490 385 C 490.550 385, 491 384.559, 491 384.019 C 491 383.480, 492.125 382.756, 493.500 382.411 C 496.116 381.754, 496.394 381.191, 495.393 378.582 C 494.587 376.482, 492.690 376.581, 490.655 378.829 M 46 383.059 C 46 383.641, 46.450 383.840, 47 383.500 C 47.550 383.160, 48 382.684, 48 382.441 C 48 382.198, 47.550 382, 47 382 C 46.450 382, 46 382.477, 46 383.059 M 261 393 C 261 393.550, 260.065 394, 258.922 394 C 254.680 394, 243.921 408.747, 245.383 412.557 C 246.220 414.736, 250.952 416.212, 255.500 415.712 C 259.771 415.243, 268.839 411.646, 273.577 408.542 C 278.324 405.431, 274.611 405.660, 267.143 408.937 C 260.092 412.032, 251.769 413.053, 250.488 410.980 C 249.442 409.289, 251.982 403.160, 254.572 401.122 C 255.908 400.071, 257 398.750, 257 398.186 C 257 397.621, 258.350 396.862, 260 396.500 C 262.063 396.047, 263 395.241, 263 393.921 C 263 392.864, 262.550 392, 262 392 C 261.450 392, 261 392.450, 261 393 M 529.500 398.500 C 526.750 399.782, 523.409 401.994, 522.076 403.416 C 520.742 404.837, 519.055 406, 518.326 406 C 517.597 406, 517 406.498, 517 407.106 C 517 407.714, 515.875 409.548, 514.500 411.182 C 511.580 414.653, 511.302 418.162, 513.722 420.989 C 515.862 423.487, 523.471 423.685, 532.807 421.484 L 539.113 419.997 542.807 422.957 C 546.879 426.220, 556.575 428.961, 564.133 428.985 C 568.018 428.998, 568.857 429.345, 569.325 431.137 C 569.794 432.929, 570.385 433.173, 572.989 432.652 L 576.095 432.031 574.308 435.266 C 573.326 437.044, 571.886 439.286, 571.108 440.248 C 567.536 444.662, 565.288 456, 567.984 456 C 568.922 456, 575 444.030, 575 442.183 C 575 441.546, 577.362 442.498, 580.250 444.299 C 585.242 447.413, 585.655 447.503, 588.667 446.142 C 592.629 444.351, 596.538 437.281, 595.610 433.584 C 594.877 430.663, 589.691 424.989, 587.784 425.022 C 587.078 425.034, 585.375 425.924, 584 427 C 581.021 429.330, 573 429.806, 573 427.652 C 573 425.553, 566.214 423.203, 558.334 422.574 C 549.044 421.832, 548.122 421.421, 548.217 418.064 C 548.261 416.537, 547.978 414.773, 547.589 414.144 C 546.614 412.566, 544.265 412.709, 543.300 414.406 C 542.414 415.964, 539.320 416.672, 527.588 418.001 C 512.459 419.715, 512.848 415.373, 528.914 403.190 C 532.640 400.365, 538.985 399.066, 539.030 401.119 C 539.050 402.021, 539.433 401.860, 540.134 400.654 C 542.486 396.607, 536.264 395.347, 529.500 398.500 M 691 406.500 C 690.282 407.365, 690.185 408, 690.771 408 C 691.329 408, 692.045 407.325, 692.362 406.500 C 692.678 405.675, 692.781 405, 692.591 405 C 692.401 405, 691.685 405.675, 691 406.500 M 405.703 409.603 C 404.715 410.921, 403.503 412, 403.010 412 C 401.703 412, 390 424.656, 390 426.069 C 390 426.496, 388.650 428.196, 387 429.846 C 385.350 431.496, 384 433.331, 384 433.923 C 384 434.515, 383.629 435, 383.175 435 C 382.721 435, 380.584 437.507, 378.425 440.571 C 376.266 443.636, 373.894 446.797, 373.153 447.597 C 371.619 449.253, 372.296 452.020, 374.219 451.959 C 374.923 451.937, 377.058 450.587, 378.962 448.959 C 381.532 446.763, 381.968 446, 380.653 446 C 379.279 446, 379.850 444.820, 383.190 440.750 C 385.561 437.863, 388.063 435.140, 388.750 434.700 C 389.438 434.260, 390 433.273, 390 432.507 C 390 431.741, 390.829 430.525, 391.841 429.807 C 392.854 429.088, 394.275 427.375, 394.999 426 C 395.723 424.625, 399.057 420.661, 402.408 417.191 C 405.759 413.721, 408.637 410.275, 408.805 409.534 C 409.354 407.112, 407.540 407.153, 405.703 409.603 M 278.200 416.511 C 272.351 420.767, 270.598 423, 273.106 423 C 273.714 423, 275.548 421.875, 277.182 420.500 C 281.180 417.136, 283 417.274, 283 420.941 C 283 422.559, 283.430 424.148, 283.956 424.473 C 285.140 425.205, 290.371 414.409, 289.508 413.012 C 288.207 410.908, 284.193 412.151, 278.200 416.511 M 340.657 421.120 C 334.593 427.552, 332 431.042, 332 432.773 C 332 434.604, 332.324 434.992, 333.250 434.269 C 335.246 432.710, 342.613 431.203, 345.521 431.759 C 349.351 432.491, 353.225 436.398, 352.828 439.128 C 352.201 443.439, 342 443.757, 342 439.465 C 342 438.659, 342.627 438, 343.393 438 C 344.159 438, 345.033 437.358, 345.334 436.572 C 345.768 435.440, 345.119 435.258, 342.191 435.691 C 338.030 436.306, 332.017 439.868, 332.007 441.724 C 331.989 444.939, 344.835 447.713, 351.377 445.906 C 354.352 445.085, 355.028 444.369, 355.573 441.464 C 357.205 432.764, 354.492 429.438, 344.834 428.294 C 340.372 427.766, 340.144 427.599, 341.195 425.636 C 342.934 422.387, 344.717 420.954, 346.278 421.553 C 347.914 422.181, 350.642 418.528, 351.157 415.020 C 351.818 410.519, 349.239 412.017, 340.657 421.120 M 688 414.882 C 688 415.432, 688.450 416.160, 689 416.500 C 689.550 416.840, 690 416.668, 690 416.118 C 690 415.568, 689.550 414.840, 689 414.500 C 688.450 414.160, 688 414.332, 688 414.882 M 382.036 417.964 C 379.960 420.040, 379.284 423, 380.886 423 C 382.243 423, 387.120 420.311, 387.094 419.577 C 387.082 419.221, 386.396 418.254, 385.571 417.429 C 384.238 416.095, 383.845 416.155, 382.036 417.964 M 346.872 418.750 C 345.629 420.336, 345.664 420.371, 347.250 419.128 C 348.212 418.373, 349 417.585, 349 417.378 C 349 416.555, 348.179 417.084, 346.872 418.750 M 638 420.500 C 638 422.665, 638.404 423.082, 640.250 422.820 C 641.727 422.610, 642.500 421.813, 642.500 420.500 C 642.500 419.187, 641.727 418.390, 640.250 418.180 C 638.404 417.918, 638 418.335, 638 420.500 M 608.598 422.736 C 608.269 423.064, 608 424.172, 608 425.197 C 608 426.223, 606.200 430.238, 604 434.120 C 599.565 441.947, 599.337 442.808, 601.483 443.632 C 603.123 444.261, 609 439.274, 609 437.253 C 609 436.564, 609.415 436, 609.923 436 C 611.213 436, 617 431.020, 617 429.911 C 617 428.676, 613.273 428.749, 612.500 430 C 612.160 430.550, 611.178 431, 610.319 431 C 609.209 431, 609.041 430.637, 609.740 429.750 C 611.580 427.414, 612.081 423.245, 610.591 422.673 C 609.823 422.379, 608.927 422.407, 608.598 422.736 M 419.543 429.931 C 418.860 431.036, 420.437 432.230, 421.361 431.306 C 422.311 430.355, 422.134 429, 421.059 429 C 420.541 429, 419.859 429.419, 419.543 429.931 M 582.436 432.369 C 579.057 435.290, 578.716 435.953, 579.874 437.348 C 580.609 438.234, 582.592 439.648, 584.280 440.490 C 587.167 441.930, 587.487 441.891, 589.674 439.836 C 590.954 438.634, 592 437.012, 592 436.230 C 592 434.573, 588.222 429, 587.099 429 C 586.678 429, 584.579 430.516, 582.436 432.369 M 371.240 433.777 C 371.733 435.689, 370.880 436.721, 365.913 440.224 C 362.661 442.517, 360 444.996, 360 445.732 C 360 447.336, 363.205 445.927, 366.620 442.823 C 367.786 441.763, 369.699 440.823, 370.870 440.735 C 372.453 440.616, 372.850 440.103, 372.417 438.739 C 372.097 437.730, 372.327 436.310, 372.930 435.585 C 373.747 434.600, 373.597 433.914, 372.339 432.883 C 370.831 431.646, 370.715 431.741, 371.240 433.777 M 623.948 437.809 C 620.051 442.054, 616 447.928, 616 449.335 C 616 451.924, 618.219 452.453, 619.912 450.269 C 621.872 447.738, 624.990 442.411, 626.654 438.750 C 628.116 435.532, 626.542 434.985, 623.948 437.809 M 489.982 440.743 C 489.147 440.916, 485.997 444.860, 482.982 449.508 C 479.967 454.155, 477.163 457.967, 476.750 457.979 C 476.337 457.991, 476 458.597, 476 459.326 C 476 460.055, 474.875 461.708, 473.500 463 C 472.125 464.292, 471 465.757, 471 466.256 C 471 466.755, 469.425 469.085, 467.500 471.435 C 465.575 473.784, 464 476.152, 464 476.698 C 464 477.244, 463.147 478.462, 462.105 479.405 C 458.714 482.473, 458.545 489.015, 461.857 488.985 C 464.233 488.963, 470.252 486.744, 473.072 484.849 C 476.014 482.874, 475.074 481.355, 471.946 483.029 C 467.960 485.162, 464 485.976, 464 484.662 C 464 483.495, 468.674 475.998, 470.024 475 C 470.396 474.725, 471.279 473.403, 471.986 472.063 C 472.692 470.723, 473.654 469.148, 474.122 468.563 C 477.972 463.758, 481.897 457.900, 482.465 456.110 C 482.843 454.920, 484.243 453.232, 485.576 452.358 C 486.909 451.485, 488 450.104, 488 449.289 C 488 448.475, 488.935 446.495, 490.078 444.890 C 492.358 441.688, 492.325 440.257, 489.982 440.743 M 394.795 444.587 C 390.042 446.049, 387 449.007, 387 452.165 C 387 453.112, 387.944 455.486, 389.099 457.443 C 391.579 461.647, 394.532 462.071, 399.585 458.948 C 402.482 457.157, 406 452.208, 406 449.923 C 406 448.871, 400.983 442.983, 400.161 443.070 C 399.797 443.108, 397.383 443.791, 394.795 444.587 M 366.500 445 C 366.160 445.550, 366.332 446, 366.882 446 C 367.432 446, 368.160 445.550, 368.500 445 C 368.840 444.450, 368.668 444, 368.118 444 C 367.568 444, 366.840 444.450, 366.500 445 M 391 450.500 C 389.533 452.268, 391.060 452.540, 392.783 450.817 C 393.434 450.166, 394.282 449.948, 394.667 450.333 C 395.052 450.718, 394.834 451.566, 394.183 452.217 C 392.515 453.885, 392.711 457, 394.484 457 C 395.301 457, 397.438 455.657, 399.234 454.015 C 401.972 451.513, 402.257 450.868, 401 450.030 C 398.716 448.508, 392.407 448.804, 391 450.500 M 426.439 451.411 C 422.037 453.329, 414 462.838, 414 466.129 C 414 468.684, 414.235 468.801, 419.750 468.976 C 427.824 469.232, 429.154 469.180, 429.756 468.578 C 430.660 467.673, 427.849 465, 425.994 465 C 425.026 465, 423.983 464.042, 423.676 462.870 C 423.276 461.339, 422.611 460.916, 421.310 461.364 C 419.466 462, 424.663 457.063, 428.755 454.291 C 430.558 453.070, 431.307 453.010, 432.492 453.994 C 433.978 455.227, 437.007 454.747, 436.992 453.281 C 436.983 452.403, 432.168 449.979, 430.551 450.039 C 429.973 450.061, 428.123 450.678, 426.439 451.411 M 445.708 452.626 C 445.364 452.970, 445.358 456.833, 445.696 461.210 L 446.309 469.169 443.405 468.934 C 437.086 468.422, 436.263 468.814, 435.404 472.750 C 434.183 478.342, 434.697 480.222, 438.264 483.223 C 442.925 487.145, 445.367 486.827, 447.899 481.969 C 449.055 479.752, 450 477.142, 450 476.169 C 450 475.196, 450.551 473.849, 451.225 473.175 C 452.192 472.208, 452.192 471.536, 451.225 469.989 C 450.551 468.910, 450 465.567, 450 462.561 C 450 455.424, 447.861 450.473, 445.708 452.626 M 234 465.389 C 234 466.250, 235.350 469.450, 237 472.500 C 239.458 477.043, 240 479.221, 240 484.554 C 240 489.421, 239.621 491.208, 238.498 491.639 C 235.983 492.604, 232.558 491.213, 231.486 488.792 C 230.763 487.157, 229.759 486.573, 227.986 486.753 C 226.252 486.930, 225.910 486.740, 226.857 486.128 C 227.803 485.516, 227.879 485.043, 227.107 484.566 C 225.415 483.520, 224 484.853, 224 487.491 C 224 490.474, 228.107 493.501, 234.456 495.200 C 238.966 496.406, 239.295 496.354, 241.069 494.163 C 242.096 492.895, 243.227 490.307, 243.583 488.412 C 244.242 484.898, 242.528 475.944, 241.018 475.011 C 240.559 474.727, 239.879 472.871, 239.506 470.886 L 238.829 467.276 244.608 468.182 C 247.786 468.681, 252.873 468.956, 255.912 468.794 L 261.438 468.500 258.469 466.500 C 254.426 463.776, 234 462.849, 234 465.389 M 440.667 472.667 C 438.837 474.496, 441.228 481, 443.729 481 C 444.840 481, 446.237 474.192, 445.403 472.844 C 444.783 471.839, 441.612 471.721, 440.667 472.667 M 485.031 475.300 C 483.348 476.141, 482.254 477.968, 481.379 481.401 C 480.692 484.096, 479.674 486.584, 479.116 486.928 C 477.602 487.864, 474.047 496.160, 474.022 498.816 C 473.988 502.396, 475.833 505, 478.405 505 C 481.673 505, 492.634 501.386, 495.290 499.432 C 497.491 497.813, 497.488 497.808, 494.500 498.252 C 492.850 498.497, 488.700 499.303, 485.278 500.043 C 481.855 500.783, 478.788 501.122, 478.462 500.795 C 477.590 499.923, 479.911 492, 481.039 492 C 481.567 492, 482 492.450, 482 493 C 482 494.381, 488.056 494.257, 491.115 492.814 C 495.467 490.760, 497.328 484.333, 494.608 480.750 C 493.148 478.826, 490.468 478.433, 489.500 480 C 489.160 480.550, 488.043 481, 487.018 481 C 485.272 481, 485.250 480.805, 486.681 477.938 C 488.522 474.247, 488.193 473.720, 485.031 475.300 M 270.286 485.750 C 270.550 488.363, 271.217 492.171, 271.769 494.214 C 272.519 496.988, 272.448 498.373, 271.487 499.687 C 270.322 501.279, 269.939 501.306, 267.425 499.973 C 265.899 499.163, 264.180 497.262, 263.606 495.750 C 262.356 492.459, 262.016 492.404, 259.189 495.039 C 256.450 497.590, 256.457 498.294, 259.250 501.349 C 260.847 503.095, 262.952 503.979, 266.500 504.390 C 269.250 504.709, 271.952 504.640, 272.505 504.235 C 273.849 503.253, 275.998 496.883, 275.621 495 C 275.456 494.175, 274.995 491.700, 274.597 489.500 C 273.621 484.112, 272.277 481, 270.925 481 C 270.191 481, 269.971 482.630, 270.286 485.750 M 487.735 485.257 C 485.664 486.441, 484.127 487.880, 484.318 488.455 C 484.979 490.442, 487.617 490.061, 490.528 487.560 C 494.634 484.032, 492.686 482.426, 487.735 485.257 M 358.393 485.419 C 358.058 486.291, 358.131 488.241, 358.555 489.752 C 358.979 491.264, 359.222 493.108, 359.096 493.850 C 358.954 494.684, 359.335 494.911, 360.089 494.445 C 361.006 493.878, 361.145 494.542, 360.645 497.095 C 359.916 500.808, 356.742 505.620, 355.233 505.298 C 354.712 505.187, 353.696 506.199, 352.974 507.548 C 352.031 509.310, 350.822 510, 348.676 510 C 345.766 510, 345.736 510.050, 347.477 511.974 C 349.194 513.872, 349.190 514.052, 347.382 516.607 C 346.347 518.068, 345.032 520.057, 344.461 521.026 C 343.889 521.994, 342.806 523.529, 342.053 524.436 C 341.097 525.588, 341.001 526.401, 341.735 527.135 C 343.426 528.826, 346.147 526.678, 350 520.613 C 354.292 513.858, 356.541 512.945, 367.258 513.610 C 375.409 514.115, 378.902 513.269, 377.569 511.112 C 377.144 510.424, 373.316 510, 367.541 510 L 358.200 510 361.320 504 C 364.033 498.782, 364.814 498, 367.313 498 C 369.371 498, 370.340 498.583, 370.724 500.054 C 371.146 501.665, 371.933 502.042, 374.381 501.804 C 379.431 501.312, 378.499 498.155, 372.250 494.588 C 369.363 492.940, 367 491.036, 367 490.358 C 367 489.632, 365.866 489.201, 364.250 489.312 C 361.958 489.469, 361.500 489.098, 361.500 487.088 C 361.500 484.284, 359.285 483.094, 358.393 485.419 M 550 490.427 C 550 491.371, 551.243 492.537, 552.844 493.095 C 555.995 494.194, 560.434 499.490, 559.487 501.021 C 559.154 501.560, 557.538 502, 555.896 502 C 551.936 502, 548 505.946, 548 509.916 C 548 513.677, 551.389 517, 555.224 517 C 558.844 517, 563 514.310, 563 511.967 C 563 508.804, 564.201 506.878, 566.886 505.730 L 569.500 504.614 566.750 504.241 C 565.237 504.035, 563.997 503.335, 563.994 502.684 C 563.977 498.978, 561.594 493.847, 559.049 492.035 C 554.946 489.113, 550 488.234, 550 490.427 M 275.750 503.217 C 273.446 506.100, 273.541 507.684, 276.101 509.054 C 277.820 509.974, 279.121 509.702, 283.243 507.564 C 286.015 506.126, 288.524 505.191, 288.820 505.486 C 289.115 505.782, 289.389 507.698, 289.429 509.744 C 289.504 513.679, 291.200 514.879, 294 512.980 C 295.314 512.089, 295.290 511.840, 293.808 510.964 C 292.408 510.138, 292.296 509.448, 293.163 506.962 C 295.014 501.651, 291.338 499.505, 285.404 502.432 C 283.807 503.220, 281.213 504.181, 279.639 504.568 C 277.049 505.206, 276.843 505.071, 277.457 503.136 C 278.311 500.445, 277.951 500.462, 275.750 503.217 M 555 507.294 C 552.103 508.760, 551.773 510.823, 554.191 512.349 C 556.252 513.649, 560 510.742, 560 507.845 C 560 505.694, 558.492 505.527, 555 507.294 M 373.225 518.685 C 370.273 524.669, 365.712 539.807, 366.356 541.484 C 367.302 543.949, 368.332 543.243, 371.450 537.992 C 374.922 532.143, 379.828 529.686, 382.567 532.424 C 384.700 534.557, 384.793 534.480, 384.586 530.750 L 384.405 527.500 378.703 527.616 C 375.566 527.680, 373 527.585, 373 527.405 C 373 527.225, 373.867 526.270, 374.926 525.283 C 377.152 523.210, 378.154 515.941, 376.304 515.290 C 375.646 515.058, 374.260 516.586, 373.225 518.685 M 398 522.378 C 398 523.135, 398.675 524.315, 399.500 525 C 400.540 525.863, 400.993 528.124, 400.978 532.372 C 400.955 538.522, 399.968 540.718, 395.807 543.869 C 394.263 545.037, 394.152 544.743, 394.545 540.547 C 394.941 536.320, 394.825 536.023, 393.130 536.930 C 390.966 538.089, 388 542.340, 388 544.284 C 388 546.185, 392.629 550, 394.935 550 C 397.562 550, 402.209 544.101, 404.416 537.963 C 406.422 532.386, 406.113 527.347, 403.523 523.394 C 401.835 520.819, 398 520.113, 398 522.378 M 415.500 537.743 C 409.201 542.096, 405 546.289, 405 548.223 C 405 550.770, 405.584 550.519, 411.321 545.500 C 414.151 543.025, 417.091 541, 417.855 541 C 418.832 541, 418.949 541.372, 418.249 542.250 C 416.554 544.376, 415.720 552.958, 417.052 554.562 C 418.877 556.761, 420.107 556.275, 419.440 553.618 C 419.082 552.191, 419.706 549.229, 420.998 546.226 C 423.356 540.746, 423.357 535.671, 421 535.248 C 420.175 535.100, 417.700 536.223, 415.500 537.743 M 471.419 540.750 C 471.134 541.712, 470.010 544.188, 468.921 546.250 C 466.942 549.997, 466.942 550, 468.951 550 C 470.268 550, 471.181 549.128, 471.596 547.474 C 471.945 546.084, 473.078 544.493, 474.115 543.938 C 476.707 542.551, 476.602 539, 473.969 539 C 472.851 539, 471.704 539.788, 471.419 540.750 M 449.103 542.719 C 444.532 544.970, 437.226 552.523, 435.407 556.878 C 434.234 559.685, 434.167 560.990, 435.086 563.207 C 436.501 566.624, 437.385 566.656, 444.109 563.541 C 447.027 562.189, 449.514 561.180, 449.633 561.300 C 449.753 561.420, 449.360 563.357, 448.760 565.606 C 447.530 570.211, 448.184 573, 450.493 573 C 452.557 573, 454.092 568.803, 454.607 561.750 L 455.028 556 451.466 556 C 449.506 556, 446.125 556.859, 443.952 557.909 C 441.778 558.959, 440 559.420, 440 558.933 C 440 556.939, 443.799 552.060, 448.500 548.015 C 455.673 541.843, 455.958 539.342, 449.103 542.719 M 480.271 554.129 C 479.469 554.931, 479.555 556.321, 480.585 559.241 C 482.903 565.810, 482.468 569.706, 479.232 571.380 C 475.857 573.125, 471.266 572.399, 469.686 569.869 C 468.109 567.344, 467 567.515, 467 570.284 C 467 573.165, 471.579 576.010, 476.154 575.973 C 478.344 575.955, 480.704 574.948, 482.983 573.058 C 486.255 570.346, 486.467 569.805, 486.467 564.157 L 486.467 558.143 489.233 558.697 C 490.889 559.028, 492 558.816, 492 558.170 C 492 557.576, 490.313 556.788, 488.250 556.419 C 486.188 556.049, 483.796 555.135, 482.936 554.387 C 481.798 553.397, 481.073 553.327, 480.271 554.129 M 509.849 559.001 C 507.840 559.360, 505.253 559.509, 504.099 559.333 C 502.944 559.157, 502 559.460, 502 560.006 C 502 560.553, 502.656 561, 503.457 561 C 504.259 561, 502.619 563.138, 499.814 565.750 C 494.079 571.091, 491.651 575.761, 492.614 579.599 C 493.317 582.399, 492.746 582.364, 505.854 580.417 C 510.075 579.790, 510.341 579.915, 514.559 584.509 C 517.457 587.666, 519.434 589.048, 520.478 588.647 C 525.047 586.894, 522.372 581.131, 515.545 578.021 C 510.398 575.676, 508.654 575.565, 502.546 577.199 C 500.081 577.858, 497.792 578.125, 497.458 577.792 C 496.589 576.922, 499.402 571.872, 502.155 569.360 C 503.445 568.183, 506.863 566.038, 509.750 564.593 C 512.638 563.149, 515 561.325, 515 560.542 C 515 558.543, 514.032 558.254, 509.849 559.001" stroke="none" fill="hsl(210, 40%, 96.1%)" fill-rule="evenodd"/>
</svg>