<svg xmlns="http://www.w3.org/2000/svg" width="728" height="598" viewBox="0 0 728 598" version="1.1">
	<path d="M 189.768 1.725 C 191.565 1.947, 194.265 1.943, 195.768 1.715 C 197.271 1.486, 195.800 1.304, 192.500 1.310 C 189.200 1.315, 187.971 1.502, 189.768 1.725 M 726.753 36.250 C 726.892 55.087, 727.127 79.050, 727.276 89.500 C 727.424 99.950, 727.648 84.538, 727.773 55.250 C 727.898 25.962, 727.663 2, 727.250 2 C 726.837 1.999, 726.614 17.412, 726.753 36.250 M 321.598 48.606 C 321.192 49.664, 322.180 51.311, 324.491 53.427 C 327.887 56.538, 328 56.876, 328 63.917 C 328 68.954, 327.480 72.072, 326.308 74.055 C 324.713 76.756, 324.717 77.030, 326.377 78.864 C 327.344 79.933, 331.922 82.040, 336.549 83.545 C 349.667 87.812, 360 86.216, 360 79.922 C 360 78.527, 354.797 73.317, 337.599 57.489 C 331.806 52.158, 324.996 47, 323.749 47 C 322.905 47, 321.937 47.723, 321.598 48.606 M 373.076 54.299 C 372.596 55.564, 371.893 59.726, 371.516 63.549 C 371.139 67.372, 370.644 71.625, 370.417 73 C 370.190 74.375, 369.718 78.488, 369.369 82.140 C 368.771 88.383, 368.866 88.823, 370.942 89.482 C 372.157 89.867, 373.433 89.900, 373.779 89.554 C 374.125 89.209, 374.522 85.230, 374.663 80.713 C 374.804 76.196, 375.312 68.450, 375.791 63.500 C 376.271 58.550, 376.466 53.938, 376.225 53.250 C 375.535 51.284, 374.033 51.784, 373.076 54.299 M 424 54.108 C 419.194 55.993, 415.467 62.679, 414.399 71.327 C 413.517 78.470, 413.514 78.412, 414.928 81.826 C 416.431 85.455, 420.673 87.232, 425.876 86.412 C 428.998 85.920, 429.639 86.163, 430.500 88.170 C 431.050 89.452, 432.416 90.631, 433.537 90.792 C 436.216 91.175, 440.226 86.984, 439.030 85.049 C 438.297 83.863, 437.888 83.848, 436.552 84.957 C 432.871 88.012, 432.798 82.744, 436.446 77.249 C 438.663 73.908, 439.354 71.552, 439.672 66.249 C 440.100 59.109, 439.595 57.852, 435.027 54.704 C 432.309 52.830, 427.868 52.590, 424 54.108 M 74.885 55.250 C 74.822 55.938, 74.842 57.241, 74.930 58.146 C 75.018 59.052, 74.163 62.427, 73.029 65.646 C 71.895 68.866, 70.702 73.750, 70.379 76.500 C 69.864 80.886, 70.097 81.828, 72.273 84.169 C 73.638 85.637, 76.363 87.282, 78.328 87.825 C 82.151 88.881, 89.753 88.425, 93.766 86.899 C 95.793 86.128, 96.004 85.710, 94.986 84.483 C 94.152 83.478, 91.849 83, 87.845 83 C 84.595 83, 80.375 82.348, 78.468 81.551 C 74.202 79.769, 74.052 77.978, 77.153 65.939 C 78.367 61.231, 79.067 56.618, 78.711 55.689 C 77.960 53.733, 75.055 53.400, 74.885 55.250 M 57.624 57.750 C 56.702 62.496, 56.487 85.437, 57.352 86.799 C 57.988 87.799, 58.502 87.828, 59.589 86.926 C 61.989 84.934, 61.394 55, 58.954 55 C 58.517 55, 57.918 56.237, 57.624 57.750 M 468.620 55.805 C 468.347 56.248, 468.156 57.936, 468.197 59.555 C 468.237 61.175, 467.535 64.653, 466.635 67.285 C 464.066 74.802, 464.459 79.612, 467.923 83.077 C 470.044 85.198, 471.810 86, 474.358 86 C 479.035 86, 483 84.406, 483 82.525 C 483 81.350, 481.783 81, 477.700 81 C 474.785 81, 471.860 80.460, 471.200 79.800 C 470.140 78.740, 469.414 71, 470.374 71 C 470.580 71, 472.653 71.672, 474.981 72.493 C 482.423 75.119, 483.449 71.625, 476.442 67.519 C 473.935 66.050, 472.065 64.320, 472.286 63.674 C 472.752 62.316, 480.314 62.690, 480.833 64.097 C 481.392 65.610, 485.023 65.103, 485.668 63.422 C 486.551 61.121, 484.294 59.412, 477.282 57.074 C 470.404 54.780, 469.349 54.626, 468.620 55.805 M 182.016 57.481 C 179.500 60.512, 182.942 62.312, 192.461 62.944 C 201.960 63.575, 203 63.429, 203 61.462 C 203 60.653, 201.463 59.840, 199.250 59.480 C 194.423 58.693, 188.067 57.325, 185.430 56.505 C 184.107 56.093, 182.876 56.445, 182.016 57.481 M 143.713 58.305 C 142.725 60.881, 145.674 62.265, 153.785 63.031 C 158.028 63.431, 162.333 64.103, 163.351 64.525 C 164.820 65.133, 165.127 64.900, 164.838 63.397 C 164.326 60.737, 158.332 58.192, 150.751 57.415 C 145.442 56.872, 144.203 57.028, 143.713 58.305 M 543.500 58.069 C 541.850 58.562, 535.775 59.239, 530 59.573 C 524.225 59.907, 519.072 60.590, 518.550 61.090 C 518.027 61.591, 515.899 62, 513.821 62 C 508.244 62, 497.170 65.890, 496.470 68.095 C 495.642 70.704, 496.993 72.708, 504.157 79.500 C 509.978 85.018, 510.294 85.527, 508.087 85.840 C 504.739 86.314, 497.166 85.078, 496.464 83.942 C 495.725 82.745, 492.296 82.713, 491.564 83.896 C 490.418 85.751, 494.697 89.117, 500 90.532 C 507.494 92.533, 513.820 91.604, 515.069 88.319 C 516.377 84.879, 514.274 81.331, 507.493 75.538 C 502.858 71.578, 502.088 70.492, 503.176 69.445 C 504.594 68.081, 514.234 65, 517.083 65 C 519.472 65, 522.929 71.269, 524.209 77.923 C 526.317 88.882, 529.266 86.989, 530 74.204 L 530.500 65.500 534.500 64.651 C 542.945 62.858, 551.888 59.734, 552.401 58.396 C 553.025 56.771, 548.407 56.602, 543.500 58.069 M 425.500 58.765 C 422.777 60.766, 419 70.023, 419 74.697 C 419 80.028, 420.224 82, 423.533 82 C 426.552 82, 427.144 81.043, 425.540 78.754 C 422.661 74.643, 426.345 72.307, 429.821 76.038 L 431.720 78.076 433.208 75.788 C 435.328 72.530, 437.009 66.845, 436.547 64.500 C 436.330 63.400, 436.119 62.195, 436.077 61.821 C 435.744 58.872, 428.287 56.718, 425.500 58.765 M 443.975 60.565 C 441.856 66.139, 443.443 78.525, 446.754 82.250 C 450.407 86.359, 457.453 83.009, 460.443 75.740 C 463.754 67.693, 463.084 58.430, 459.247 59.209 C 457.805 59.502, 457.555 60.461, 457.814 64.707 C 458.148 70.172, 456.682 74.167, 453.181 77.337 C 451.204 79.125, 451.115 79.104, 449.373 76.447 C 448.058 74.439, 447.578 71.665, 447.545 65.866 C 447.513 60.188, 447.146 58.005, 446.225 58.003 C 445.524 58.001, 444.512 59.154, 443.975 60.565 M 231.092 67.950 C 225.703 79.643, 226.790 88.014, 234.092 91.038 C 237.001 92.243, 237.970 92.142, 243.419 90.062 C 246.764 88.786, 252.165 87.641, 255.424 87.518 C 260.675 87.319, 261.670 86.934, 264.174 84.131 C 267.720 80.163, 267.795 76.771, 264.399 74.099 C 260.568 71.086, 255.547 70.411, 252.383 72.485 C 250.108 73.975, 249.852 74.671, 250.375 77.941 C 250.969 81.658, 250.929 81.710, 245.550 84.344 C 239.156 87.475, 237.937 87.579, 235.048 85.240 C 231.537 82.397, 231.274 76.366, 234.392 70.212 C 235.827 67.382, 237 64.152, 237 63.033 C 237 58.880, 234.198 61.212, 231.092 67.950 M 333.783 62.685 C 333.007 64.207, 332.969 75.494, 333.737 76.569 C 335.981 79.711, 354 82.898, 354 80.153 C 354 78.899, 351.263 76.140, 343.999 70.069 C 340.424 67.083, 336.757 64.016, 335.849 63.254 C 334.941 62.493, 334.012 62.237, 333.783 62.685 M 190.518 65.971 C 190.188 66.504, 189.404 70.786, 188.775 75.486 C 187.900 82.029, 187.909 84.309, 188.816 85.216 C 191.079 87.479, 192.263 84.291, 192.772 74.564 C 193.111 68.088, 192.925 65, 192.195 65 C 191.603 65, 190.848 65.437, 190.518 65.971 M 559.120 66.776 C 557.980 68.907, 559.418 72, 561.550 72 C 562.347 72, 563 72.450, 563 73 C 563 73.550, 560.785 74, 558.077 74 C 554.271 74, 552.472 73.427, 550.152 71.474 C 546.618 68.501, 545.260 69.669, 547.412 73.830 C 549.254 77.391, 554.060 79.526, 560 79.420 C 570.803 79.229, 574.688 72.706, 567.021 67.633 C 562.357 64.546, 560.426 64.336, 559.120 66.776 M 154.534 66.945 C 154.177 67.522, 153.641 72.268, 153.342 77.490 C 152.866 85.815, 153.009 87.066, 154.501 87.639 C 157.120 88.644, 157.558 86.911, 157.354 76.339 C 157.182 67.390, 156.226 64.207, 154.534 66.945 M 208.200 71.200 C 206.548 72.852, 206.698 75.103, 208.654 78.027 C 209.564 79.387, 209.699 79.938, 208.954 79.250 C 205.015 75.614, 203.594 79.685, 207.455 83.545 C 210.456 86.547, 214.161 86.682, 218.580 83.950 C 222.182 81.724, 223.486 79.107, 222.516 76.050 C 221.115 71.637, 211.142 68.258, 208.200 71.200 M 171.419 73.349 C 171.135 74.091, 171.036 77.799, 171.201 81.589 C 171.445 87.214, 171.821 88.541, 173.250 88.813 C 174.768 89.102, 174.998 88.310, 174.986 82.823 C 174.971 75.774, 174.227 72, 172.852 72 C 172.349 72, 171.704 72.607, 171.419 73.349 M 213.280 77.932 C 214.190 80.343, 214.708 80.692, 216.193 79.896 C 218.529 78.647, 218.485 77.330, 216.066 76.035 C 212.803 74.289, 212.089 74.776, 213.280 77.932 M 255.318 77.614 C 254.465 79.837, 257.092 82.050, 259.756 81.354 C 262.941 80.521, 262.535 78.382, 258.955 77.134 C 256.465 76.266, 255.802 76.354, 255.318 77.614 M 727.360 119 C 727.360 124.225, 727.529 126.362, 727.735 123.750 C 727.941 121.138, 727.941 116.862, 727.735 114.250 C 727.529 111.638, 727.360 113.775, 727.360 119 M 391.981 129.550 C 389.947 134.900, 383.409 147.746, 379.791 153.500 C 376.007 159.520, 374.913 163.511, 377.250 162.771 C 377.938 162.554, 380.050 160, 381.944 157.096 C 384.895 152.572, 385.491 152.094, 386.107 153.760 C 386.658 155.251, 388.168 155.862, 392.579 156.380 C 397.792 156.993, 398.574 156.828, 400.916 154.621 C 402.337 153.282, 405.188 151.492, 407.250 150.644 C 409.478 149.728, 411 148.422, 411 147.426 C 411 145.699, 411.181 145.693, 402.268 147.719 C 399.476 148.354, 398 145.014, 398 138.060 C 398 130.416, 397.027 127, 394.850 127 C 393.734 127, 392.551 128.052, 391.981 129.550 M 354.698 128.636 C 354.314 129.019, 354 130.383, 354 131.667 C 354 134.035, 354.153 134.095, 361 134.392 C 363.175 134.486, 363.520 134.988, 363.650 138.253 C 363.833 142.825, 362.837 143.595, 359.536 141.432 C 358.150 140.523, 356.337 140.040, 355.508 140.359 C 352.820 141.390, 353.904 143.830, 358.185 146.382 C 362.358 148.871, 362.369 148.894, 362.116 154.375 C 361.976 157.398, 362.401 160.882, 363.062 162.116 C 364.221 164.281, 364.312 164.294, 365.632 162.489 C 366.384 161.460, 367 158.255, 367 155.368 L 367 150.118 371.242 149.279 C 377.194 148.102, 377.640 145.286, 372.018 144.387 C 367.901 143.729, 367.899 143.725, 368.199 139.614 L 368.500 135.500 374 135.500 C 378.946 135.500, 379.532 135.273, 379.820 133.246 C 380.225 130.398, 379.547 130.189, 367.998 129.607 C 362.773 129.343, 357.799 128.860, 356.946 128.533 C 356.093 128.206, 355.082 128.252, 354.698 128.636 M 294.637 132.603 C 289.056 136.502, 284.624 137.034, 283 134 C 282.411 132.900, 281.158 132.001, 280.215 132.002 C 278.678 132.004, 278.477 133.616, 278.279 147.502 C 278.109 159.483, 278.347 163, 279.329 163 C 281.956 163, 282.832 160.775, 282.287 155.488 C 281.987 152.584, 282.052 148.136, 282.432 145.604 C 283.055 141.453, 283.387 140.998, 285.811 140.978 C 287.290 140.966, 290.414 140.087, 292.754 139.025 L 297.009 137.094 296.359 141.297 C 296.002 143.609, 295.325 146.542, 294.855 147.815 C 294.385 149.088, 294 152.365, 294 155.096 C 294 160.889, 295.583 162.128, 299.416 159.337 C 302.483 157.102, 302.737 155, 299.939 155 C 298.047 155, 297.936 154.609, 298.585 150.250 C 298.975 147.637, 300.127 142.576, 301.147 139.003 C 302.166 135.430, 303 131.717, 303 130.753 C 303 128.130, 300.132 128.764, 294.637 132.603 M 727.158 131 C 727.158 132.375, 727.385 132.938, 727.662 132.250 C 727.940 131.563, 727.940 130.438, 727.662 129.750 C 727.385 129.063, 727.158 129.625, 727.158 131 M 451.052 131.620 C 447.174 133.251, 446.061 135.840, 448.478 137.608 C 449.928 138.668, 450.164 139.786, 449.682 143.304 C 449.318 145.959, 449.516 148.116, 450.184 148.784 C 450.790 149.390, 451.286 152.425, 451.286 155.529 C 451.286 159.551, 451.705 161.333, 452.744 161.732 C 454.868 162.547, 456.034 160.095, 455.818 155.269 C 455.714 152.942, 455.824 150.899, 456.064 150.730 C 456.304 150.560, 458.918 149.323, 461.874 147.982 C 468.179 145.120, 472.940 139.713, 471.360 137.210 C 468.227 132.242, 456.953 129.139, 451.052 131.620 M 58 134.805 C 58 139.808, 56.301 144.587, 50.025 157.242 C 47.261 162.814, 45 168.179, 45 169.163 C 45 175.640, 62.234 175.995, 70.498 169.688 C 73.905 167.089, 71.312 166.620, 66.050 168.883 C 61.622 170.788, 60.504 170.904, 56.434 169.879 C 53.902 169.241, 51.615 168.161, 51.354 167.479 C 51.092 166.797, 51.864 164.047, 53.069 161.369 C 54.274 158.691, 56.137 154.475, 57.208 152 C 58.278 149.525, 59.849 146.214, 60.698 144.642 C 61.547 143.070, 62.299 139.470, 62.370 136.642 C 62.487 132.025, 62.270 131.467, 60.250 131.180 C 58.243 130.895, 58 131.287, 58 134.805 M 595.223 133.557 C 593.889 134.490, 593 136.160, 593 137.728 C 593 139.166, 592.292 141.125, 591.427 142.080 C 589.997 143.661, 589.997 144.094, 591.427 146.859 C 592.347 148.638, 593 152.402, 593 155.925 C 593 161.648, 593.154 162.028, 596.096 163.550 C 597.799 164.430, 601.418 165.503, 604.138 165.933 C 608.247 166.582, 609.233 166.434, 609.971 165.053 C 611.166 162.822, 610.052 161.280, 606.740 160.579 C 605.233 160.261, 602.925 159.779, 601.610 159.509 C 599.727 159.121, 599.131 158.245, 598.795 155.371 C 598.448 152.397, 599.072 150.692, 602.182 146.113 C 606.891 139.181, 607.341 134.460, 603.435 132.975 C 599.844 131.610, 597.794 131.755, 595.223 133.557 M 542.030 134.213 C 538.695 135.990, 536.539 140.060, 537.339 143.069 C 537.694 144.406, 540.279 147.912, 543.082 150.860 C 549.175 157.268, 548.741 158.231, 539.497 158.819 C 534.918 159.111, 533 159.631, 533 160.581 C 533 164.343, 545.160 165.091, 550.408 161.652 C 554.534 158.949, 553.860 155.294, 548 148.597 C 545.250 145.455, 543 142.485, 543 141.999 C 543 139.861, 547.708 138, 553.116 138 C 557.178 138, 558.946 137.584, 559.349 136.532 C 560.137 134.479, 559.192 134.115, 551.376 133.467 C 546.631 133.073, 543.735 133.304, 542.030 134.213 M 617.994 134.949 C 615.606 137.080, 611.519 150.527, 611.619 155.923 C 611.684 159.463, 612.255 160.823, 614.482 162.738 C 617.026 164.927, 617.828 165.074, 623.882 164.458 C 630.958 163.739, 633.671 162.190, 632.625 159.464 C 632.167 158.272, 631.315 157.958, 629.738 158.400 C 624.911 159.753, 618.489 160.271, 619.500 159.227 C 620.050 158.659, 621.395 158.033, 622.489 157.836 C 624.854 157.409, 625.763 154.098, 623.848 152.885 C 623.107 152.415, 621.263 152.024, 619.750 152.015 C 616.487 151.997, 616.380 150.964, 619.034 145.114 L 621.024 140.728 627.487 141.247 C 634.355 141.798, 636.492 140.795, 635.826 137.335 C 635.316 134.687, 620.506 132.705, 617.994 134.949 M 149.750 135.080 C 148.787 135.641, 148 137.030, 148 138.166 C 148 139.850, 148.417 140.104, 150.250 139.536 C 157.112 137.409, 162 137.817, 162 140.516 C 162 142.407, 155.026 150.175, 153.720 149.740 C 153.177 149.559, 152.231 147.862, 151.617 145.968 C 150.294 141.888, 146.252 140.156, 147.375 144.149 C 147.738 145.442, 148.549 151.450, 149.175 157.500 C 150.411 169.427, 151.291 171.643, 153.567 168.559 C 154.620 167.133, 156.468 166.532, 160.526 166.295 C 163.565 166.117, 167.944 165.320, 170.257 164.523 C 173.654 163.353, 174.601 163.322, 175.182 164.361 C 176.696 167.066, 183.522 168.371, 189.709 167.140 C 203.339 164.426, 204.687 157.210, 192.292 153.303 C 187.457 151.779, 186.448 151.752, 182.695 153.050 C 179.337 154.211, 178.438 155.036, 178.190 157.183 C 177.983 158.974, 177.318 159.828, 176.190 159.750 C 175.261 159.686, 171.954 160.439, 168.842 161.425 C 164.192 162.897, 162.563 163.011, 159.698 162.065 C 154.508 160.352, 154.467 157.945, 159.509 151.095 C 167.266 140.558, 168.180 137.237, 163.948 134.972 C 161.574 133.702, 151.991 133.775, 149.750 135.080 M 313.556 136.250 C 312.148 142.816, 311.021 153.490, 311.557 155.180 C 312.607 158.487, 315.485 156.928, 315.612 152.984 C 315.673 151.068, 316.232 146.575, 316.854 143 C 318.356 134.370, 318.321 134, 316.019 134 C 314.774 134, 313.859 134.836, 313.556 136.250 M 477.347 135.209 C 476.816 135.919, 475.114 140.406, 473.566 145.180 C 469.324 158.259, 471.446 164.200, 480.357 164.200 C 485.299 164.200, 493 160.560, 493 158.223 C 493 155.221, 492.285 155.165, 487.044 157.759 C 483.088 159.716, 481.549 160.012, 479.303 159.247 C 476.681 158.354, 476.509 157.953, 476.645 153.052 C 476.824 146.548, 477.770 145.478, 481.579 147.465 C 485.275 149.392, 489.401 149.427, 490.964 147.544 C 492.640 145.524, 491.407 144, 488.096 144 C 486.564 144, 484.521 143.129, 483.558 142.064 C 481.862 140.190, 481.914 140.107, 485.189 139.492 C 487.050 139.143, 489.006 138.943, 489.536 139.047 C 492.100 139.552, 493.116 138.841, 492.820 136.750 C 492.527 134.691, 491.898 134.475, 485.406 134.209 C 480.488 134.008, 478.016 134.315, 477.347 135.209 M 455.348 136.536 C 455.075 137.248, 454.997 139.107, 455.175 140.666 C 455.602 144.388, 458.842 144.879, 463.598 141.939 C 466.751 139.991, 466.992 139.564, 465.680 138.251 C 463.549 136.120, 455.989 134.865, 455.348 136.536 M 82.334 139.571 C 81.919 140.652, 82.338 141.774, 83.463 142.597 C 84.691 143.495, 85.006 144.467, 84.468 145.702 C 83.647 147.585, 83.758 158.238, 84.629 161.250 C 84.907 162.213, 85.713 163, 86.420 163 C 88.347 163, 89.360 147.257, 87.750 142.342 C 86.405 138.238, 83.430 136.716, 82.334 139.571 M 389.439 143.500 C 387.878 146.800, 386.442 149.795, 386.249 150.155 C 385.955 150.702, 394.045 149.293, 394.636 148.695 C 394.742 148.588, 394.255 146.025, 393.553 143 L 392.277 137.500 389.439 143.500 M 527.667 138.667 C 527.300 139.033, 527 141.179, 527 143.435 C 527 149.983, 519.666 159.066, 516.741 156.141 C 516.167 155.567, 515.755 151.925, 515.827 148.048 C 515.952 141.262, 515.869 141, 513.586 141 C 510.921 141, 510 142.650, 510 147.423 C 510 149.215, 509.330 152.891, 508.511 155.591 C 507.692 158.291, 507.017 161.512, 507.011 162.750 C 506.995 166.098, 509.917 165.535, 511.167 161.949 C 512.144 159.147, 512.370 159.025, 513.944 160.449 C 519.486 165.465, 529.830 156.394, 532.465 144.209 C 533.418 139.801, 530.223 136.110, 527.667 138.667 M 572.639 138.694 C 572.235 139.099, 571.014 141.442, 569.926 143.900 C 567.282 149.878, 561.605 158.413, 556.319 164.358 C 553.944 167.030, 552 169.591, 552 170.049 C 552 172.222, 554.379 171.869, 557.768 169.194 L 561.500 166.247 564.984 168.124 C 571.799 171.793, 581 169.613, 581 164.329 C 581 163.410, 581.730 161.851, 582.621 160.866 C 584.573 158.710, 583.722 155.789, 581.263 156.203 C 579.800 156.450, 579.277 155.225, 578.188 149 C 577.466 144.875, 576.533 140.852, 576.116 140.060 C 575.194 138.310, 573.636 137.698, 572.639 138.694 M 598.667 138.667 C 598.300 139.033, 598 140.213, 598 141.289 C 598 142.914, 598.254 143.034, 599.500 142 C 600.325 141.315, 601 140.135, 601 139.378 C 601 137.920, 599.783 137.550, 598.667 138.667 M 109.988 140.083 C 108.606 140.592, 106.888 141.949, 106.170 143.100 C 105.076 144.852, 105.107 145.461, 106.361 146.846 C 107.286 147.869, 107.550 149.074, 107.051 150.001 C 106.607 150.825, 105.927 154.124, 105.540 157.331 C 104.960 162.131, 105.143 163.501, 106.573 165.081 C 108.232 166.914, 108.218 167, 106.262 167 C 103.240 167, 102.662 169.733, 105.316 171.472 C 110.354 174.773, 132.438 171.857, 137.250 167.255 C 142.689 162.055, 140.275 159.638, 127 156.990 C 123.425 156.277, 120.365 155.590, 120.201 155.464 C 120.036 155.338, 121.068 153.515, 122.494 151.414 C 125.747 146.620, 125.412 144.182, 121.102 141.284 C 117.543 138.892, 114.203 138.531, 109.988 140.083 M 110 145.091 C 108.871 145.890, 108.809 146.278, 109.750 146.659 C 110.438 146.938, 111 148.254, 111 149.583 C 111 151.003, 111.585 152, 112.419 152 C 114.470 152, 119.986 148.686, 119.994 147.450 C 120.012 144.340, 113.302 142.757, 110 145.091 M 569.263 154.235 C 567.390 156.915, 567.262 157.567, 568.475 158.246 C 569.272 158.692, 571.093 158.764, 572.522 158.405 C 574.425 157.928, 574.939 157.318, 574.446 156.127 C 574.076 155.232, 573.547 153.713, 573.270 152.750 C 572.564 150.295, 571.826 150.569, 569.263 154.235 M 182.132 159.124 C 181.638 160.431, 181.434 161.838, 181.676 162.250 C 182.367 163.423, 190.188 163.043, 193.376 161.682 C 195.988 160.566, 196.100 160.328, 194.593 159.077 C 193.680 158.320, 190.705 157.486, 187.981 157.224 C 183.476 156.791, 182.948 156.963, 182.132 159.124 M 109.751 162.750 C 109.494 164.813, 109.418 166.661, 109.583 166.858 C 110.433 167.874, 126.143 167.313, 130.250 166.120 C 135.620 164.560, 136.284 163.329, 132.250 162.415 C 130.738 162.072, 126.960 161.163, 123.856 160.396 C 120.751 159.628, 116.413 159, 114.215 159 C 110.347 159, 110.204 159.120, 109.751 162.750 M 568 164.965 C 568 166.528, 571.912 168.163, 574.038 167.488 C 577.689 166.329, 576.328 164, 572 164 C 569.800 164, 568 164.434, 568 164.965 M 671.444 209.108 C 669.640 212.597, 670.171 216.468, 672.582 217.393 C 674.817 218.251, 676 217.276, 676 214.576 C 676 213.307, 676.885 211.144, 677.967 209.769 C 680.249 206.868, 679.763 206, 675.859 206 C 673.729 206, 672.663 206.750, 671.444 209.108 M 662 214.800 C 662 219.038, 665.207 230.141, 667.397 233.483 C 668.784 235.600, 670.512 242, 669.697 242 C 669.443 242, 667.317 239.056, 664.972 235.458 C 660.958 229.296, 658.540 227, 656.066 227 C 653.892 227, 655.122 230.311, 659.343 235.826 C 663.595 241.381, 665.612 247.391, 664.065 249.895 C 663.529 250.762, 662.846 250.414, 661.725 248.703 C 660.276 246.491, 660.281 246.148, 661.785 244.643 C 663.310 243.119, 663.240 243, 660.816 243 C 658.616 243, 657.701 242.012, 655.027 236.750 C 652.102 230.994, 647.076 225, 645.175 225 C 644.739 225, 643.526 225.626, 642.479 226.392 C 640.840 227.590, 640.766 228.013, 641.945 229.434 C 642.966 230.664, 643.027 231.373, 642.181 232.219 C 641.530 232.870, 641.411 233.809, 641.901 234.426 C 642.371 235.017, 643.066 236.512, 643.445 237.750 C 644.050 239.724, 643.780 240, 641.237 240 C 638.948 240, 637.660 239.055, 635.107 235.500 C 633.330 233.025, 631.281 231, 630.554 231 C 629.828 231, 628.998 230.100, 628.710 229 C 628.066 226.535, 625.314 226.366, 624.639 228.750 C 624.366 229.713, 623.580 233.128, 622.892 236.339 C 621.679 242.007, 621.559 242.162, 618.821 241.614 C 616.553 241.161, 616 241.407, 616 242.870 C 616 243.871, 616.900 245.505, 618 246.500 C 619.999 248.309, 620.714 251, 619.196 251 C 618.754 251, 616.866 249.425, 615 247.500 C 613.134 245.575, 611.051 244, 610.370 244 C 609.690 244, 608.990 242.766, 608.816 241.259 C 608.626 239.605, 607.805 238.385, 606.750 238.185 C 605.374 237.924, 605 238.548, 605 241.101 L 605 244.349 602.686 242.174 C 600.170 239.811, 597.516 239.357, 596.436 241.104 C 596.060 241.711, 597.624 244.861, 599.911 248.104 C 602.198 251.347, 603.815 254, 603.504 254 C 602.692 254, 597.053 247.494, 593.200 242.110 C 589.968 237.593, 585.463 235.137, 583.681 236.919 C 583.193 237.407, 583.291 238.675, 583.907 239.827 C 585.163 242.173, 585.352 245.015, 584.250 244.967 C 583.837 244.949, 580.870 241.349, 577.656 236.967 C 573.160 230.839, 571.256 229, 569.406 229 C 566.389 229, 566.363 230.458, 569.309 234.406 C 577.401 245.249, 577.639 245.694, 572.426 240.250 C 567.521 235.129, 564.813 233.876, 563.441 236.095 C 563.069 236.698, 563.343 238.272, 564.050 239.594 C 566.271 243.744, 564.130 243.544, 559.691 239.188 C 555.687 235.258, 551 233.587, 551 236.089 C 551 236.688, 549.615 236.013, 547.923 234.589 C 544.875 232.024, 542 231.191, 542 232.872 C 542 233.352, 540.155 234.039, 537.899 234.400 C 534.926 234.876, 533.651 235.619, 533.263 237.102 C 532.855 238.661, 532.179 239.011, 530.425 238.571 C 529.159 238.253, 527.836 238.456, 527.486 239.022 C 527.102 239.645, 525.663 239.053, 523.848 237.526 C 522.167 236.111, 519.586 235, 517.982 235 C 516.407 235, 514.840 234.550, 514.500 234 C 513.697 232.700, 506.415 232.708, 503.981 234.010 C 502.470 234.819, 501.407 234.418, 498.662 232.008 C 496.776 230.352, 493.830 228.716, 492.116 228.373 C 489.432 227.836, 489 228.037, 489 229.816 C 489 230.952, 489.450 232.160, 490 232.500 C 490.550 232.840, 491 233.597, 491 234.181 C 491 234.823, 490.365 234.718, 489.400 233.917 C 488.521 233.187, 486.553 232.685, 485.028 232.801 C 483.503 232.917, 481.693 232.335, 481.005 231.506 C 479.369 229.535, 476 229.567, 476 231.554 C 476 232.409, 477.348 234.547, 478.995 236.304 C 480.643 238.062, 481.991 240.175, 481.991 241 C 481.990 243.098, 475.281 235.609, 473.637 231.675 C 470.757 224.785, 466.235 224.450, 460.507 230.701 C 457.535 233.945, 455.541 237.648, 452.133 246.250 C 451.446 247.984, 450.296 249, 449.021 249 C 446.881 249, 446.123 252.340, 448 253.500 C 448.550 253.840, 449 255.791, 449 257.837 C 449 262.198, 451.328 266, 453.998 266 C 455.034 266, 456.160 266.450, 456.500 267 C 456.840 267.550, 458.441 268, 460.059 268 C 461.677 268, 463 268.402, 463 268.893 C 463 269.384, 463.734 270.068, 464.631 270.412 C 465.705 270.824, 467.396 269.870, 469.586 267.614 C 472.865 264.238, 473.010 264.196, 480.141 264.591 C 484.118 264.811, 488.953 264.555, 490.885 264.021 C 493.681 263.249, 494.759 263.377, 496.162 264.647 C 499.114 267.318, 501.208 265.657, 500.426 261.263 C 499.876 258.166, 499.991 257.721, 501.079 258.750 C 504.329 261.825, 508.861 258.289, 507.434 253.792 L 506.757 251.659 510.336 253.771 C 515.379 256.746, 520.308 257.967, 522.447 256.770 C 523.413 256.229, 525.488 255.698, 527.058 255.589 C 529.251 255.437, 529.980 255.865, 530.206 257.436 C 530.613 260.269, 533.989 260.759, 534.688 258.087 C 535.361 255.511, 535.421 255.512, 538.968 258.135 C 540.556 259.309, 542.521 260.014, 543.334 259.702 C 544.147 259.390, 545.599 260.005, 546.561 261.067 C 548.889 263.640, 552 263.601, 552 261 C 552 258.751, 553.035 258.435, 554.758 260.158 C 556.126 261.526, 559 259.643, 559 257.378 C 559 255.427, 560.272 255.669, 562.268 258 C 564.632 260.761, 566.859 260.502, 568.067 257.324 L 569.085 254.647 571.986 257.824 C 573.582 259.571, 575.588 261, 576.444 261 C 577.300 261, 578 261.450, 578 262 C 578 263.333, 580.738 263.287, 581.184 261.947 C 581.377 261.368, 583.252 260.507, 585.350 260.034 C 588.764 259.264, 589.392 259.445, 591.332 261.758 C 596.256 267.629, 597.091 268.194, 599.827 267.507 C 601.286 267.141, 602.802 266.321, 603.195 265.685 C 603.620 264.997, 607.071 264.454, 611.705 264.346 C 621.659 264.113, 621 264.244, 621 262.500 C 621 260.526, 621.621 260.602, 625.616 263.072 C 629.769 265.638, 633.385 265.308, 633.810 262.323 C 634.090 260.354, 634.410 260.247, 637.158 261.205 C 639.120 261.889, 640.556 263.298, 641.214 265.183 C 642.508 268.895, 644.809 268.532, 646.910 264.284 C 649.086 259.884, 650.263 259.661, 655.754 262.609 C 659.300 264.512, 661.467 265.032, 664.323 264.664 C 668.149 264.170, 676.932 266.458, 678.120 268.258 C 679.523 270.384, 682.501 268.470, 682.813 265.242 C 683.039 262.903, 683.628 262, 684.927 262 C 687.075 262, 691.594 257.687, 693.687 253.639 C 694.694 251.690, 694.965 249.546, 694.511 247.118 C 693.643 242.476, 693.618 236.799, 694.438 230.500 C 694.805 227.677, 694.658 224.860, 694.099 224.029 C 692.814 222.120, 692.737 222.257, 690.445 230.500 L 688.498 237.500 683.999 237.760 L 679.500 238.020 673 224.760 C 667.819 214.191, 666.043 211.435, 664.250 211.180 C 662.243 210.895, 662 211.287, 662 214.800 M 569.655 217.263 C 566.022 219.920, 570.139 223.474, 574 221.013 C 575.139 220.287, 575.242 219.643, 574.429 218.338 C 572.977 216.008, 571.749 215.732, 569.655 217.263 M 378.039 229.927 C 377.281 231.344, 377.247 232.593, 377.933 233.874 C 378.484 234.905, 378.670 237.994, 378.345 240.739 C 377.974 243.864, 378.158 245.980, 378.836 246.399 C 380.204 247.244, 384 244.937, 384 243.259 C 384 241.036, 386.533 241.899, 392.459 246.142 C 398.903 250.757, 398.708 251.333, 390.345 252.391 C 387.148 252.796, 384.215 252.600, 382.625 251.875 C 379.213 250.320, 376.516 252.227, 378.056 255.105 C 378.908 256.697, 380.224 256.999, 386.285 256.994 C 390.253 256.991, 395.217 256.512, 397.315 255.929 C 401.059 254.890, 405 251.892, 405 250.083 C 405 249.579, 401.512 246.709, 397.250 243.704 C 388.561 237.581, 385.980 235.337, 384.445 232.571 C 383.865 231.526, 382.435 230.037, 381.269 229.263 C 379.366 227.999, 379.035 228.067, 378.039 229.927 M 52.079 235.022 C 49.727 237.810, 45.187 243.620, 41.990 247.932 C 38.793 252.244, 35.687 256.075, 35.088 256.445 C 34.490 256.815, 34 258.022, 34 259.126 C 34 260.745, 34.437 261.002, 36.250 260.452 C 37.487 260.077, 39.429 258.922, 40.564 257.885 C 42.031 256.546, 44.131 256, 47.814 256 C 53.410 256, 53.490 256.109, 53.048 263.080 C 52.836 266.425, 55.402 268.741, 57.444 267.047 C 58.494 266.175, 58.735 264.562, 58.330 261.137 C 57.814 256.780, 57.969 256.335, 60.386 255.234 C 63.658 253.743, 63.773 252, 60.599 252 C 58.206 252, 58.199 251.968, 58.349 241.348 C 58.446 234.533, 58.114 230.563, 57.427 230.324 C 56.837 230.119, 54.430 232.233, 52.079 235.022 M 159.464 232.326 C 152.484 235.025, 149 239.530, 149 245.854 C 149 249.615, 149.525 250.759, 152.571 253.632 C 156.080 256.941, 157.766 257.409, 164.793 257.021 C 167.271 256.884, 168.588 257.477, 170.115 259.420 C 173.737 264.024, 180.814 262.393, 186.802 255.572 C 190.982 250.812, 191.966 245.521, 189.188 242.744 C 184.630 238.185, 171.607 239.771, 166.783 245.471 C 164.773 247.847, 164.450 252.611, 166.250 253.338 C 167.578 253.874, 163.849 254.344, 160.500 254.062 C 159.400 253.970, 157.218 252.511, 155.650 250.820 C 153.346 248.334, 152.915 247.148, 153.398 244.623 C 154.336 239.715, 159.126 236, 164.516 236 C 168.249 236, 169 235.683, 169 234.107 C 169 230.950, 164.970 230.197, 159.464 232.326 M 671 231.655 C 671 232.261, 671.609 234.273, 672.352 236.128 C 673.096 237.983, 673.993 240.316, 674.345 241.313 C 674.698 242.311, 675.424 242.856, 675.959 242.526 C 676.551 242.160, 676.272 240.472, 675.245 238.212 C 673.090 233.466, 671 230.239, 671 231.655 M 284.750 233.064 C 281.978 234.704, 282.701 236.977, 286.500 238.564 C 290.507 240.239, 290.713 241.397, 288.828 251.629 C 288.184 255.128, 287.996 258.329, 288.411 258.744 C 288.826 259.159, 290.515 257.988, 292.164 256.142 C 294.452 253.582, 295.014 252.192, 294.535 250.282 C 294.189 248.905, 294.441 245.389, 295.094 242.469 C 296.232 237.387, 297.513 236.073, 301.390 236.014 C 302.845 235.991, 301.258 247.057, 299.533 248.963 C 298.282 250.346, 298.163 251.299, 298.978 253.441 C 301.196 259.275, 304.616 253.982, 305.622 243.159 C 306.247 236.427, 306.432 236, 308.717 236 C 310.492 236, 311.056 235.529, 310.811 234.250 C 310.517 232.715, 309 232.471, 298.488 232.264 C 291.561 232.128, 285.761 232.465, 284.750 233.064 M 76.401 239.750 C 75.420 242.912, 73.607 247.811, 72.372 250.635 C 71.115 253.509, 70.375 256.718, 70.691 257.925 C 71.556 261.235, 76.310 263.226, 81.493 262.449 C 85.631 261.828, 90.051 258.717, 88.705 257.372 C 88.367 257.033, 85.264 256.699, 81.810 256.628 C 74 256.469, 73.815 255.899, 78.068 245.135 C 81.030 237.641, 81.375 234, 79.124 234 C 78.608 234, 77.383 236.588, 76.401 239.750 M 256.200 235.200 C 255.540 235.860, 255 237.674, 255 239.232 C 255 240.790, 254.326 243.677, 253.502 245.649 L 252.004 249.234 255.743 252.658 C 260.175 256.718, 262.560 257.449, 268.920 256.696 C 273.635 256.137, 282.824 252.420, 284.235 250.500 C 286.683 247.168, 282.228 245.579, 278.895 248.595 C 275.476 251.689, 265 254.320, 265 252.084 C 265 251.580, 266.350 250.570, 268 249.840 C 271.192 248.427, 272.387 245.227, 269.250 246.492 C 268.288 246.880, 265.821 247.436, 263.768 247.728 C 259.600 248.321, 258.322 246.837, 259.378 242.631 C 260.134 239.619, 266.074 238.392, 270.124 240.412 C 273.412 242.052, 275.449 240.708, 273.941 237.891 C 272.163 234.567, 258.852 232.548, 256.200 235.200 M 316.500 235.861 C 311.183 239.145, 309.686 241.513, 310.428 245.468 C 310.837 247.651, 312.049 249.641, 313.578 250.643 C 316.665 252.666, 317.686 251.802, 316.162 248.457 C 314.373 244.531, 314.759 242.335, 317.635 240.073 C 321.107 237.342, 324.259 237.454, 327.694 240.431 C 330.441 242.811, 330.464 242.922, 328.821 245.681 C 326.503 249.572, 319.687 253, 314.269 253 C 310.595 253, 309.913 253.294, 310.208 254.750 C 310.498 256.182, 311.578 256.481, 316.143 256.393 C 320.667 256.306, 322.593 255.688, 326.317 253.126 C 331.706 249.418, 334 246.458, 334 243.212 C 334 239.564, 332.146 236.959, 328.452 235.415 C 323.869 233.501, 320.093 233.641, 316.500 235.861 M 411.103 236.171 C 409.885 239.234, 408.155 257.158, 408.927 258.705 C 410.951 262.759, 414.802 250.611, 414.615 240.760 C 414.493 234.279, 412.757 232.012, 411.103 236.171 M 202.177 243.250 C 199.249 249.285, 195.395 254.701, 191.750 257.906 C 189.804 259.617, 189.412 262, 191.077 262 C 192.318 262, 196.336 258.063, 200.263 253 C 202.744 249.802, 202.979 249.697, 202.989 251.790 C 203.007 255.561, 206.786 261.908, 209.404 262.565 C 218.212 264.776, 229.328 246.328, 223 240 C 218.995 235.995, 216.623 239.028, 219.534 244.432 C 221.267 247.652, 221.261 247.874, 219.343 251.571 C 216.708 256.649, 212.505 259.808, 210.265 258.396 C 207.718 256.789, 206.938 252.148, 208.048 245.201 C 208.602 241.734, 208.791 238.471, 208.468 237.949 C 207.068 235.684, 205.004 237.423, 202.177 243.250 M 499.638 239.500 C 499.955 240.325, 500.671 241, 501.229 241 C 501.815 241, 501.718 240.365, 501 239.500 C 500.315 238.675, 499.599 238, 499.409 238 C 499.219 238, 499.322 238.675, 499.638 239.500 M 237.416 241.880 C 230.627 245.092, 224 252.131, 224 256.130 C 224 261.815, 229.789 265.013, 237.471 263.572 C 241.819 262.756, 247.563 258.163, 246.084 256.684 C 245.368 255.968, 244.454 256.184, 243.133 257.380 C 241.705 258.672, 239.856 259.034, 235.859 258.806 C 230.897 258.523, 230.477 258.304, 230.193 255.850 C 229.593 250.661, 238.865 243.333, 245.469 243.777 C 247.925 243.941, 249.237 241.991, 247.820 240.284 C 246.236 238.375, 244.148 238.695, 237.416 241.880 M 631.481 241.350 C 632.217 244.805, 635.544 249.471, 638.787 251.596 C 644.112 255.085, 642.034 250.898, 634.025 242 L 630.874 238.500 631.481 241.350 M 51.437 242.237 C 49.032 245.046, 47 248.625, 47 250.050 C 47 250.661, 48.394 250.991, 50.224 250.813 C 53.159 250.528, 53.525 250.109, 54.306 246.132 C 55.356 240.788, 54.117 239.105, 51.437 242.237 M 459 241.292 C 459 242.002, 461.084 244.590, 463.632 247.042 C 468.445 251.675, 468.444 251.314, 463.617 244.231 C 460.722 239.983, 459 238.886, 459 241.292 M 492.484 243.390 C 495.018 246.712, 499.600 251, 500.616 251 C 501.725 251, 499.897 245.684, 497.927 243.180 C 496.771 241.710, 494.779 240.609, 493.029 240.471 L 490.080 240.239 492.484 243.390 M 543.133 242.642 C 544.508 244.105, 545.731 244.669, 546.300 244.100 C 547.641 242.759, 546.416 241.313, 543.461 240.748 L 540.893 240.257 543.133 242.642 M 553.934 241.500 C 555.514 244.562, 557.922 247.411, 558.469 246.864 C 558.738 246.595, 557.596 244.828, 555.930 242.937 C 554.265 241.047, 553.367 240.400, 553.934 241.500 M 682 243.941 C 682 245.617, 683.774 246.033, 684.364 244.494 C 684.712 243.587, 684.361 243, 683.469 243 C 682.661 243, 682 243.423, 682 243.941 M 173.523 245.565 C 168.422 248.225, 167.029 252.533, 171.645 251.374 C 174.081 250.763, 174.239 250.910, 173.654 253.241 C 172.222 258.949, 179.016 259.335, 184.152 253.837 C 187.452 250.304, 187.845 246.523, 185.066 245.035 C 182.259 243.533, 176.952 243.777, 173.523 245.565 M 485.500 245 C 485.840 245.550, 486.316 246, 486.559 246 C 486.802 246, 487 245.550, 487 245 C 487 244.450, 486.523 244, 485.941 244 C 485.359 244, 485.160 244.450, 485.500 245 M 625.638 246.500 C 625.955 247.325, 626.671 248, 627.229 248 C 627.815 248, 627.718 247.365, 627 246.500 C 626.315 245.675, 625.599 245, 625.409 245 C 625.219 245, 625.322 245.675, 625.638 246.500 M 569.022 246.639 C 569.010 247.266, 569.885 248.841, 570.967 250.139 C 573.526 253.211, 573.556 251.268, 571 248 C 569.924 246.625, 569.034 246.013, 569.022 246.639 M 457.500 249 C 458.495 250.100, 459.535 251, 459.810 251 C 460.085 251, 459.495 250.100, 458.500 249 C 457.505 247.900, 456.465 247, 456.190 247 C 455.915 247, 456.505 247.900, 457.500 249 M 647 248.813 C 647 249.260, 648.390 250.948, 650.089 252.563 L 653.178 255.500 651.404 251.750 C 649.846 248.457, 647 246.559, 647 248.813 M 678 249.865 C 678 251.866, 681.900 257.434, 682.724 256.610 C 683.376 255.957, 679.720 248.059, 678.750 248.026 C 678.337 248.012, 678 248.839, 678 249.865 M 471.791 250.500 C 472.375 251.600, 473.547 253.400, 474.395 254.500 C 475.627 256.098, 475.943 256.183, 475.968 254.924 C 475.986 254.058, 474.814 252.258, 473.364 250.924 C 471.152 248.890, 470.899 248.821, 471.791 250.500 M 551 249.941 C 551 250.459, 551.445 251.157, 551.989 251.493 C 552.555 251.843, 552.723 251.442, 552.382 250.552 C 551.717 248.820, 551 248.503, 551 249.941 M 622 253.500 C 622 254.325, 622.450 255, 623 255 C 623.550 255, 624 254.325, 624 253.500 C 624 252.675, 623.550 252, 623 252 C 622.450 252, 622 252.675, 622 253.500 M 667.970 254.019 C 666.801 254.741, 667.069 255.463, 669.421 257.917 C 672.875 261.523, 674.579 261.020, 672.503 257.007 C 670.665 253.452, 669.805 252.885, 667.970 254.019 M 487 256.256 C 487 257.081, 485.988 258.462, 484.750 259.326 C 482.518 260.882, 482.529 260.895, 486 260.932 C 491.981 260.996, 492.903 259.385, 488.750 256.128 C 487.251 254.952, 487 254.970, 487 256.256 M 107.418 317.969 C 104.818 319.021, 100.174 324.467, 98.462 328.471 C 97.750 330.137, 96.452 333.148, 95.578 335.163 C 89.339 349.544, 84.818 380.055, 88.035 386.066 C 89.378 388.575, 93.557 388.568, 97.689 386.048 L 100.877 384.104 101.189 386.802 C 101.454 389.102, 101.929 389.469, 104.410 389.290 C 108.298 389.009, 109.458 387.705, 107.957 385.303 C 106.994 383.761, 107.079 382.240, 108.378 377.773 C 111.134 368.291, 107.645 365.690, 103.316 374 C 100.942 378.556, 96.500 382.986, 94.295 382.995 C 92.212 383.004, 91.712 376.276, 92.936 364.689 C 94.396 350.868, 96.034 344.892, 101.192 334.566 C 105.602 325.736, 107.604 323, 109.655 323 C 111.612 323, 111.398 332.358, 109.342 336.692 C 107.968 339.587, 107.916 340.330, 109.038 341.023 C 112.687 343.279, 115.983 337.025, 115.994 327.827 C 115.999 324.253, 115.391 322.430, 113.411 320.077 C 110.612 316.750, 110.516 316.716, 107.418 317.969 M 448.500 321.471 C 447.950 321.666, 446.325 322.082, 444.890 322.396 C 442.790 322.856, 441.877 324.095, 440.221 328.734 C 439.089 331.905, 437.953 335.400, 437.697 336.500 C 437.441 337.600, 437.180 336.643, 437.116 334.372 C 436.982 329.598, 434.848 327.051, 432.569 328.943 C 431.558 329.782, 431.146 332.301, 431.167 337.518 C 431.198 345.449, 428.588 356.175, 424.723 364 C 419.861 373.843, 416.443 366.780, 417.464 349 C 418.326 333.980, 418.319 333.820, 416.800 332.846 C 414.747 331.529, 412 335.675, 412 340.090 C 412 346.024, 406.114 360.555, 401.650 365.645 C 397.791 370.044, 397.356 373, 400.567 373 C 402.794 373, 407.205 368.088, 409.450 363.110 C 410.470 360.849, 411.583 359, 411.924 359 C 412.266 359, 413.135 361.587, 413.856 364.750 C 415.430 371.654, 417.400 375, 419.888 375 C 424.514 375, 430.574 366.549, 433.078 356.606 C 434.356 351.529, 436 349.571, 436 353.125 C 436 356.931, 439.794 363.447, 443.172 365.442 C 447.266 367.861, 456.662 367.839, 464.421 365.393 C 469.110 363.915, 470 363.260, 470 361.286 C 470 357.942, 468.056 357.613, 462.119 359.953 C 455.316 362.635, 448.093 362.648, 444.707 359.984 C 441.679 357.603, 439.559 351.892, 440.424 348.447 C 441.072 345.865, 440.793 345.924, 453.700 345.604 C 462.675 345.381, 461.159 340.106, 452.059 339.894 C 444.239 339.711, 443.545 339.547, 443.202 337.790 C 442.667 335.047, 446.030 329.031, 448.435 328.427 C 449.644 328.124, 452.853 328.016, 455.566 328.188 C 460.136 328.477, 460.487 328.685, 460.321 331 C 459.982 335.748, 460.828 336.510, 463.573 333.931 C 466.798 330.902, 466.541 326.432, 463 323.934 C 460.703 322.314, 450.847 320.640, 448.500 321.471 M 203.667 326.667 C 202.364 327.969, 203.029 331.402, 204.988 333.487 C 207.193 335.834, 207.041 337.158, 202.073 358.912 C 199.797 368.878, 200.239 371.592, 203.778 369.377 C 205.023 368.597, 206.306 364.175, 208.413 353.399 C 210.015 345.205, 211.365 338.451, 211.413 338.391 C 211.461 338.331, 213.637 338.002, 216.250 337.660 L 221 337.038 221 341.061 C 221 343.274, 220.345 348.328, 219.545 352.292 C 216.296 368.387, 216.731 379.915, 220.644 381.417 C 222.689 382.202, 226.731 380.371, 227.939 378.114 C 229.535 375.132, 229.275 374.781, 226 375.500 C 223.362 376.079, 222.981 375.878, 222.841 373.829 C 222.488 368.645, 223.276 359.917, 225.045 349.409 C 226.211 342.481, 226.616 337.225, 226.123 335.409 C 225.380 332.672, 225.013 332.493, 219.917 332.390 C 212.114 332.231, 212.275 332.280, 208.843 329 C 205.593 325.894, 204.798 325.536, 203.667 326.667 M 326.158 329.310 C 325.362 330.269, 325.518 331.605, 326.744 334.310 C 328.545 338.283, 331 339.258, 331 336 C 331 333.733, 332.037 333.437, 333.800 335.200 C 336.864 338.264, 332.977 349.689, 329.228 348.635 C 323.567 347.044, 321.256 346.986, 320.077 348.408 C 318.080 350.814, 319.225 353.302, 322.752 354.215 C 326.211 355.112, 326.923 356.989, 324.551 358.958 C 322.523 360.641, 320.728 366.567, 321.505 369.015 C 322.455 372.008, 327.011 375.899, 330.796 376.949 C 334.742 378.045, 339.595 376.626, 341.021 373.961 C 343.278 369.743, 341.412 361.770, 337.120 357.295 L 335.006 355.090 338.438 354.446 C 340.326 354.092, 342.242 354.031, 342.696 354.312 C 344.127 355.197, 347.288 352.193, 346.657 350.548 C 346.253 349.495, 344.737 349, 341.915 349 C 338.072 349, 337.818 348.834, 338.467 346.750 C 338.852 345.512, 339.402 342.236, 339.689 339.469 C 340.163 334.903, 339.934 334.140, 337.204 331.219 C 334.933 328.788, 333.347 328, 330.721 328 C 328.809 328, 326.756 328.589, 326.158 329.310 M 302.229 331.171 C 301.553 331.847, 301 333.201, 301 334.180 C 301 335.159, 300.365 337.656, 299.588 339.730 C 298.812 341.803, 296.955 347.775, 295.461 353 C 293.968 358.225, 291.932 364.902, 290.938 367.837 C 289.943 370.773, 289.382 373.832, 289.691 374.636 C 290.713 377.301, 293.405 375.586, 294.328 371.680 C 295.025 368.735, 295.599 368.018, 296.864 368.509 C 297.764 368.859, 301.538 369.402, 305.251 369.717 L 312.003 370.290 313.071 367.225 C 313.659 365.540, 314.783 363.913, 315.570 363.612 C 318.237 362.588, 317.189 360, 314.108 360 C 311.927 360, 311.092 359.448, 310.710 357.750 C 309.971 354.467, 308.188 343.415, 307.284 336.507 C 306.479 330.351, 304.810 328.590, 302.229 331.171 M 357.592 331.750 C 356.880 334.047, 355.266 361.812, 355.397 369.500 C 355.488 374.799, 355.734 375.500, 357.500 375.500 C 359.123 375.500, 359.549 374.746, 359.761 371.500 C 359.904 369.300, 360.691 359.774, 361.510 350.331 C 362.329 340.888, 362.726 332.450, 362.393 331.581 C 361.576 329.452, 358.269 329.569, 357.592 331.750 M 167 331.620 C 160.358 332.789, 160 332.999, 160 335.705 C 160 337.171, 160.983 339.417, 162.183 340.695 C 164.356 343.008, 164.360 343.087, 162.978 356.760 C 160.820 378.099, 161.050 379.878, 165.539 376.595 C 167.036 375.501, 167.516 373.909, 167.578 369.832 C 167.623 366.899, 167.737 363.858, 167.830 363.073 C 167.930 362.235, 170.215 363.915, 173.372 367.148 C 179.355 373.276, 184.702 376.284, 188.776 375.813 C 192.742 375.354, 192.909 372.359, 189.016 371.503 C 185.422 370.714, 173 359.320, 173 356.813 C 173 355.906, 174.688 354.155, 176.750 352.922 C 181.817 349.895, 186.019 345.968, 187.062 343.287 C 188.430 339.768, 186.233 334.995, 182.533 333.449 C 178.893 331.929, 170.715 330.965, 167 331.620 M 279.574 334.176 C 279.343 334.904, 278.932 340.450, 278.661 346.500 C 278.151 357.890, 275.701 367.728, 272.602 370.826 C 270.233 373.196, 269.196 371.431, 267.993 362.979 C 266.917 355.426, 267.469 346.002, 269.181 342.712 C 270.482 340.210, 269.235 337, 266.961 337 C 265.494 337, 264.687 338.323, 263.454 342.750 C 260.038 355.012, 258.651 358.740, 254.966 365.564 C 251.201 372.539, 250.968 375.717, 254.318 374.432 C 255.229 374.082, 257.440 370.821, 259.229 367.186 L 262.483 360.576 263.240 365.835 C 264.666 375.745, 268.450 379.717, 273.385 376.483 C 276.827 374.228, 278.764 370.975, 281.027 363.647 C 283.202 356.607, 285.009 339.843, 284.007 336 C 283.300 333.286, 280.254 332.033, 279.574 334.176 M 241.435 336.106 C 241.021 336.775, 239.626 344.515, 238.334 353.307 C 236.075 368.681, 236.053 369.405, 237.743 372.294 C 240.309 376.678, 241.486 375.750, 241.608 369.249 C 241.668 366.087, 242.431 359.225, 243.304 354 C 245.713 339.590, 245.827 335.608, 243.843 335.216 C 242.932 335.036, 241.848 335.437, 241.435 336.106 M 129.011 337.487 C 128.299 338.344, 128.046 340.045, 128.412 341.503 C 129.071 344.133, 126.636 354.019, 124.471 357.500 C 123.787 358.600, 122.692 362.445, 122.039 366.044 C 120.020 377.169, 123.805 383.109, 132.797 382.924 C 138.417 382.808, 143.500 380.665, 143.500 378.411 C 143.500 377.078, 142.895 376.580, 141.500 376.765 C 129.734 378.324, 128.943 378.303, 127.497 376.393 C 126.677 375.310, 126.050 372.196, 126.032 369.112 L 126 363.724 132.378 364.377 C 135.886 364.737, 139.486 364.751, 140.378 364.408 C 143.010 363.398, 142.298 361, 139.366 361 C 135.441 361, 129 358.848, 129 357.536 C 129 356.905, 129.959 353.548, 131.132 350.076 L 133.263 343.764 137.882 344.428 C 151.745 346.421, 152 346.418, 152 344.274 C 152 342.614, 150.758 341.971, 144.750 340.525 C 140.762 339.565, 135.983 338.155, 134.128 337.390 C 130.034 335.702, 130.499 335.694, 129.011 337.487 M 167.140 337.081 C 164.879 337.978, 164.848 338.120, 166.409 340.501 C 167.304 341.867, 168.314 345.013, 168.654 347.492 C 168.994 349.972, 169.584 352, 169.964 352 C 171.519 352, 179.922 345.769, 181.392 343.525 C 182.804 341.369, 182.811 340.953, 181.454 339.596 C 180.619 338.762, 178.263 337.797, 176.218 337.452 C 174.173 337.107, 171.825 336.672, 171 336.485 C 170.175 336.298, 168.438 336.566, 167.140 337.081 M 373.704 341.955 C 366.069 348.658, 366.564 367.392, 374.514 372.601 C 379.489 375.861, 388.517 370.874, 391.908 362.992 C 396.132 353.173, 393.854 345.044, 385.782 341.137 C 379.902 338.290, 377.709 338.439, 373.704 341.955 M 377.092 346.493 C 374.026 349.515, 372.583 358.564, 374.319 363.880 C 375.321 366.952, 376 367.548, 378.803 367.817 C 381.548 368.081, 382.690 367.498, 385.553 364.372 C 388.584 361.063, 389 359.963, 389 355.257 C 389 350.753, 388.580 349.516, 386.354 347.452 C 384.899 346.104, 383.360 345, 382.936 345 C 382.511 345, 381.564 344.802, 380.832 344.559 C 380.099 344.317, 378.416 345.187, 377.092 346.493 M 299.736 353.620 L 297.332 361.500 300.798 361.818 C 302.704 361.993, 304.688 361.712, 305.207 361.193 C 306.219 360.181, 304.348 348.185, 302.935 346.620 C 302.497 346.136, 301.058 349.286, 299.736 353.620 M 328.641 361.369 C 326.092 366.102, 326.794 369.147, 330.907 371.201 C 338.708 375.095, 340.570 367.792, 333.701 360.250 C 331.037 357.326, 330.788 357.381, 328.641 361.369 M 475.394 382.982 C 473.410 383.780, 460.604 386.009, 446 388.100 C 442.425 388.611, 435.450 389.692, 430.500 390.501 C 420.024 392.212, 404.873 393.871, 393.500 394.552 C 389.100 394.815, 383.925 395.306, 382 395.642 C 380.075 395.979, 374.450 396.600, 369.500 397.023 C 364.550 397.446, 349.700 398.716, 336.500 399.844 C 323.300 400.973, 305.750 402.387, 297.500 402.987 C 289.250 403.588, 278.225 404.508, 273 405.032 C 267.775 405.557, 256.525 406.456, 248 407.032 C 211.704 409.480, 203.829 410.033, 191.500 411 C 163.747 413.175, 155.609 413.499, 129.500 413.465 C 109.816 413.440, 101.890 413.092, 100.250 412.180 C 97.721 410.775, 94 412.081, 94 414.375 C 94 416.327, 101.699 418.503, 108.500 418.475 C 118.853 418.432, 175.140 415.739, 193 414.433 C 196.575 414.171, 205.575 413.536, 213 413.021 C 220.425 412.506, 231.900 411.632, 238.500 411.077 C 267.854 408.612, 290.564 406.870, 317.980 404.979 C 334.194 403.861, 350.394 402.514, 353.980 401.985 C 357.566 401.457, 366.350 400.586, 373.500 400.050 C 380.650 399.515, 392.975 398.540, 400.888 397.884 C 412.133 396.952, 415.700 396.956, 417.216 397.903 C 418.425 398.658, 419.598 398.769, 420.328 398.198 C 421.902 396.968, 437.152 393.296, 444 392.499 C 447.025 392.147, 452.650 391.239, 456.500 390.482 C 464.429 388.921, 472.743 388.444, 475.063 389.416 C 477.025 390.238, 480.302 386.801, 479.838 384.407 C 479.424 382.275, 478.158 381.869, 475.394 382.982 M 513.869 405.750 C 509.985 410.015, 508.359 413.078, 505.567 421.395 C 501.859 432.443, 503.801 437.294, 511.890 437.182 C 517.485 437.105, 518.429 438.663, 516.405 444.635 C 515.498 447.311, 514.136 450.388, 513.378 451.473 C 509.962 456.362, 513.420 458.443, 518.510 454.560 C 522.018 451.885, 522.986 449.495, 520.852 448.784 C 519.995 448.498, 520.017 447.098, 520.938 443.259 C 522.894 435.105, 522.119 433.955, 513.705 432.534 C 510.990 432.075, 509.658 431.232, 509.027 429.572 C 507.015 424.279, 514.484 409, 519.084 409 C 521.576 409, 521.548 411.503, 519 416.500 C 517.900 418.658, 517 420.955, 517 421.604 C 517 423.097, 519.328 424.034, 520.790 423.130 C 522.569 422.030, 525.954 413.772, 525.978 410.473 C 526.031 403.127, 518.820 400.315, 513.869 405.750 M 548.100 404.814 C 546.816 407.212, 548.384 409.496, 552.315 410.955 C 553.863 411.530, 559.263 412.003, 564.315 412.006 C 570.507 412.010, 574.433 412.499, 576.364 413.506 C 579.945 415.374, 581 415.388, 581 413.568 C 581 411.749, 575.971 408.139, 571.752 406.929 C 569.970 406.418, 565.809 405.762, 562.506 405.471 C 559.203 405.180, 555.600 404.694, 554.500 404.392 C 553.400 404.089, 551.740 403.630, 550.811 403.373 C 549.821 403.098, 548.699 403.694, 548.100 404.814 M 483.896 410.025 C 480.653 413.339, 478 416.688, 478 417.466 C 478 420.204, 475.807 420.190, 472.930 417.433 C 469.179 413.840, 461.495 413.361, 457.961 416.500 C 454.263 419.785, 451.860 426.273, 452.608 430.952 C 453.393 435.861, 458.602 441.002, 462.785 440.996 C 466.182 440.992, 471.369 437.892, 473.550 434.564 C 475.080 432.230, 475.373 432.148, 477.327 433.516 C 478.758 434.519, 481.966 435, 487.223 435 C 491.986 435, 495 435.407, 495 436.050 C 495 436.627, 494.292 438.468, 493.428 440.140 C 491.726 443.431, 492.115 446, 494.317 446 C 496.320 446, 499.206 438.906, 498.826 434.918 L 498.500 431.500 491 430.965 C 486.875 430.671, 482.938 430.082, 482.250 429.656 C 478.649 427.426, 483.647 414.617, 489.541 410.975 C 491.298 409.889, 493.020 409, 493.368 409 C 494.735 409, 493.878 411.356, 491.470 414.218 C 489.493 416.567, 489.192 417.527, 490.093 418.612 C 491.803 420.673, 492.851 420.349, 496.600 416.600 C 502.437 410.763, 500.330 404, 492.673 404 C 490.469 404, 488.406 405.416, 483.896 410.025 M 532.200 410.200 C 531.504 410.896, 531 414.234, 531 418.151 C 531 421.864, 530.344 427.420, 529.543 430.498 C 527.843 437.021, 528.685 440.444, 532.406 442.139 C 536.766 444.126, 545.042 440.158, 543.721 436.715 C 543.161 435.255, 542.754 435.257, 538.976 436.742 C 535.415 438.140, 534.717 438.167, 533.932 436.932 C 533.431 436.145, 533.241 434.901, 533.511 434.168 C 533.780 433.436, 534 431.943, 534 430.852 C 534 429.091, 534.535 428.916, 538.750 429.295 C 543.359 429.710, 548 428.501, 548 426.885 C 548 426.448, 546.313 425.806, 544.250 425.458 C 542.188 425.110, 539.714 424.610, 538.752 424.346 C 536.887 423.834, 535.599 420.337, 536.170 417.329 C 536.626 414.921, 542.170 414.295, 543.958 416.449 C 545.615 418.445, 547.620 418.432, 548.393 416.418 C 549.259 414.162, 549.356 414.314, 545.268 411.536 C 541.213 408.781, 534.323 408.077, 532.200 410.200 M 556.536 414.942 C 556.180 415.518, 555.625 420.644, 555.303 426.333 C 554.766 435.809, 554.874 436.737, 556.582 437.393 C 558.709 438.209, 561.395 435.410, 560.218 433.603 C 559.823 432.996, 559.500 428.491, 559.500 423.592 C 559.500 417.736, 559.103 414.549, 558.342 414.289 C 557.705 414.072, 556.892 414.366, 556.536 414.942 M 566.410 415.099 C 565.600 416.367, 565.025 421.809, 564.753 430.791 C 564.630 434.848, 567.519 438.375, 569.021 436 C 570.515 433.637, 570.228 417.694, 568.653 415.540 C 567.538 414.015, 567.151 413.939, 566.410 415.099 M 596 418.196 C 589.749 419.559, 586 423.305, 586 428.187 C 586 432.742, 588.414 433.481, 589.470 429.250 C 589.847 427.738, 590.866 425.712, 591.733 424.750 C 593.949 422.291, 601.555 422.432, 605.782 425.009 C 608.564 426.705, 608.906 427.308, 608.021 428.961 C 606.924 431.011, 601.407 432.985, 596.750 432.994 C 593.701 433.001, 593.081 434.992, 595.502 437.001 C 596.480 437.813, 598.978 438.084, 602.670 437.778 C 607.467 437.380, 608.770 436.822, 611.168 434.138 C 616.450 428.226, 613.932 421.528, 605.324 418.595 C 602.750 417.718, 600.611 417.048, 600.572 417.107 C 600.532 417.166, 598.475 417.656, 596 418.196 M 463.352 418.993 C 460.443 420.167, 459.590 421.801, 461 423.500 C 462.359 425.138, 461.529 427, 459.441 427 C 457.527 427, 457.616 427.643, 460.082 431.632 C 462.529 435.592, 465.458 436.001, 469.365 432.927 C 471.491 431.255, 472 430.014, 472 426.500 C 472 422.986, 471.491 421.745, 469.365 420.073 C 466.446 417.776, 466.393 417.767, 463.352 418.993 M 515.422 458.417 C 514.314 459.193, 512.079 459.979, 510.454 460.164 C 508.279 460.411, 507.500 461.027, 507.500 462.500 C 507.500 464.143, 508.270 464.555, 511.816 464.811 C 515.922 465.106, 516.105 465.252, 515.568 467.811 C 514.784 471.544, 516.379 473.855, 518.722 472.380 C 520.170 471.468, 520.437 470.168, 520.160 465.380 C 519.754 458.353, 518.385 456.342, 515.422 458.417 M 425.143 477.890 C 423.203 479.120, 424.654 482.879, 427.317 483.524 C 434.036 485.152, 443.569 485.714, 444.800 484.553 C 446.842 482.629, 444.271 481.155, 435.018 478.945 C 425.552 476.684, 426.831 476.821, 425.143 477.890 M 319.249 482.227 C 317.871 483.926, 316.853 490.559, 316.293 501.500 C 315.737 512.355, 317.262 516.271, 322.753 518.083 C 327.519 519.656, 336.492 518.770, 339.647 516.414 C 342.554 514.244, 342.481 512.398, 339.500 512.708 C 338.400 512.823, 334.918 513.216, 331.762 513.581 C 323.407 514.549, 321 512.764, 321 505.602 C 321 500.397, 321.087 500.233, 324.155 499.619 C 330.994 498.251, 332.340 494, 325.934 494 C 322.087 494, 321.884 493.851, 322.184 491.250 C 322.452 488.920, 323.027 488.450, 325.956 488.171 C 328.324 487.946, 329.798 488.371, 330.639 489.521 C 332.193 491.646, 334 490.593, 334 487.563 C 334 484.562, 332.425 483.336, 327.500 482.502 C 325.300 482.130, 322.776 481.629, 321.891 481.390 C 321.006 481.151, 319.818 481.528, 319.249 482.227 M 373.471 481.773 C 372.011 482.805, 367.113 497.593, 366.362 503.236 C 365.466 509.974, 367.516 516.518, 371.389 519.281 C 377.040 523.312, 389.855 521.183, 391.520 515.936 C 392.519 512.790, 391.421 512.454, 386.227 514.316 C 376.413 517.833, 371 515.446, 371 507.600 C 371 503.591, 371.172 503.310, 373.372 503.731 C 376.638 504.355, 382.217 501.347, 381.787 499.192 C 381.525 497.877, 380.590 497.577, 377.592 497.843 C 372.922 498.259, 371.894 496.956, 373.294 492.395 C 374.153 489.594, 374.824 489, 377.129 489 C 378.691 489, 380.796 489.938, 381.905 491.128 C 384.546 493.963, 387 492.936, 387 488.996 C 387 486.340, 386.431 485.685, 382.750 484.109 C 376.512 481.438, 374.619 480.962, 373.471 481.773 M 510.529 483.596 C 508.915 486.059, 495.616 493, 492.512 493 C 490.950 493, 489.550 496.463, 490.494 497.991 C 491.736 500, 495.691 498.913, 503.260 494.482 C 509.100 491.063, 511.456 489.026, 512.946 486.106 C 515.673 480.760, 513.718 478.729, 510.529 483.596 M 280.675 483.769 C 280.445 484.171, 279.959 491.250, 279.596 499.500 C 278.982 513.450, 279.077 514.727, 280.953 517.750 C 282.675 520.524, 283.547 521, 286.902 521 C 289.065 521, 292.921 520.106, 295.471 519.012 C 299.718 517.192, 300.307 517.155, 302.472 518.574 C 303.946 519.539, 306.469 520.006, 309.168 519.811 C 313.039 519.533, 313.500 519.234, 313.500 517 C 313.500 515.103, 313.046 514.578, 311.616 514.825 C 308.591 515.346, 305.136 514.122, 304.083 512.156 C 303.427 510.929, 303.606 506.987, 304.634 500.066 C 306.339 488.579, 305.521 484, 301.765 484 C 299.973 484, 299.840 484.449, 300.442 488.461 C 300.810 490.914, 300.795 496.807, 300.410 501.557 C 299.601 511.527, 298.498 513.134, 291.203 514.971 C 287.113 516, 286.423 515.931, 285.286 514.377 C 284.579 513.409, 284 510.679, 284 508.309 L 284 504 288.326 504 C 291.554 504, 293.203 503.413, 294.826 501.686 C 296.022 500.413, 297 499.063, 297 498.686 C 297 497.584, 293.503 497.897, 292.292 499.108 C 291.481 499.919, 290.220 499.898, 287.592 499.030 C 284.654 498.061, 284.003 497.358, 284.015 495.172 C 284.024 493.703, 284.361 491.994, 284.765 491.376 C 285.827 489.751, 291.673 488.662, 292.464 489.941 C 292.824 490.524, 293.766 491, 294.559 491 C 296.822 491, 296.328 486.246, 293.932 484.964 C 291.467 483.644, 281.274 482.726, 280.675 483.769 M 354.408 484.425 C 352.707 485.165, 349.447 486.087, 347.163 486.472 C 342.054 487.336, 341.011 488.781, 343.841 491.072 C 346.323 493.082, 346.525 495.839, 344.800 504.190 C 343.864 508.721, 343.865 510.265, 344.807 511.207 C 347.158 513.558, 349.037 509.756, 350.242 500.209 C 351.320 491.668, 351.571 491.006, 354.137 489.943 C 355.645 489.319, 357.387 489.121, 358.008 489.505 C 359.521 490.440, 358.336 501.572, 355.865 509.647 C 353.911 516.029, 354.105 518.443, 356.650 519.419 C 358.051 519.957, 362 518.504, 362 517.451 C 362 517.188, 361.467 516.119, 360.815 515.075 C 359.881 513.579, 359.986 511.699, 361.315 506.196 C 362.242 502.356, 363 496.106, 363 492.307 C 363 483.030, 361.266 481.439, 354.408 484.425 M 561.309 486.250 C 560.864 486.938, 560.464 488.400, 560.421 489.500 C 560.120 497.124, 559.939 497.783, 558 498.290 C 555.646 498.905, 555.212 503, 557.500 503 C 558.723 503, 559 504.670, 559 512.031 C 559 519.171, 559.317 521.184, 560.513 521.643 C 563.702 522.867, 564.722 520.351, 564.218 512.502 C 563.697 504.376, 563.939 504.072, 569.703 505.618 C 571.766 506.171, 571.867 506.613, 571.308 512.604 C 570.744 518.647, 570.828 519, 572.836 519 C 575.044 519, 575.631 517.688, 576.412 511 C 576.637 509.075, 577.321 506.208, 577.932 504.628 C 578.703 502.636, 578.725 501.373, 578.004 500.505 C 577.433 499.817, 577.217 498.599, 577.524 497.799 C 578.443 495.403, 576.207 490.813, 574.299 491.181 C 573.047 491.422, 572.577 492.609, 572.499 495.724 C 572.366 501.003, 571.843 501.516, 568.326 499.814 C 565.677 498.533, 565.522 498.117, 565.845 493.190 C 566.271 486.688, 563.636 482.655, 561.309 486.250 M 229.570 487.677 C 228.833 489.599, 233.503 494.628, 247.209 506.671 C 251.999 510.880, 255.709 514.662, 255.454 515.075 C 255.198 515.488, 253.079 516.111, 250.745 516.459 C 243.338 517.565, 236.542 519.229, 235.250 520.253 C 233.316 521.787, 233.772 524.793, 236.049 525.516 C 237.258 525.899, 239.110 525.503, 240.568 524.547 C 241.927 523.657, 246.915 522.209, 251.653 521.330 C 260.034 519.776, 264.028 517.643, 263.979 514.750 C 263.967 514.063, 262.153 512.224, 259.949 510.664 C 257.744 509.103, 250.831 502.916, 244.587 496.914 C 238.344 490.911, 232.555 486, 231.725 486 C 230.894 486, 229.924 486.755, 229.570 487.677 M 455.420 489.088 C 454.214 490.421, 453.303 493.405, 452.901 497.338 C 452.554 500.727, 451.668 504.945, 450.931 506.710 C 449.771 509.490, 449.815 510.389, 451.256 513.411 C 454.898 521.048, 461.985 521.715, 469.305 515.110 C 474.055 510.824, 476.012 506.617, 475.968 500.782 C 475.930 495.616, 474.927 494.178, 468.535 490.124 C 462.726 486.440, 458.144 486.078, 455.420 489.088 M 589.793 488.350 C 587.660 490.482, 587.374 509.565, 589.401 514.417 C 591.079 518.434, 596.171 521.991, 600.250 521.996 C 603.481 522.001, 607 518.858, 607 515.969 C 607 513.268, 604.056 512.202, 602.495 514.338 C 599.638 518.246, 594.675 515.227, 593.494 508.863 L 592.820 505.225 597.199 505.719 C 600.448 506.085, 601.923 505.798, 602.912 504.606 C 604.827 502.299, 602.902 500.400, 597.827 499.588 C 592.688 498.767, 591.941 498.316, 592.651 496.468 C 593.474 494.323, 599.278 494.644, 602.273 497 C 605.750 499.735, 607 499.511, 607 496.155 C 607 491.880, 602.817 488.781, 595.386 487.551 C 592.372 487.052, 590.877 487.266, 589.793 488.350 M 438.602 490.250 C 438.362 491.488, 437.453 496, 436.583 500.278 C 434.584 510.100, 434.593 512.630, 436.627 513.410 C 439.123 514.368, 441 512.135, 441 508.209 C 441 506.259, 441.489 501.857, 442.086 498.427 C 442.881 493.865, 442.871 491.628, 442.051 490.095 C 440.590 487.365, 439.149 487.430, 438.602 490.250 M 75.317 491.619 C 70.315 493.986, 65 494.126, 65 491.892 C 65 490.647, 61.259 490.772, 60.473 492.044 C 60.118 492.618, 60.373 493.745, 61.040 494.549 C 62.783 496.648, 62.341 525.105, 60.412 535.091 C 60.111 536.647, 60.477 538.151, 61.329 538.858 C 62.467 539.803, 63.108 539.489, 64.574 537.267 C 66.071 535, 66.466 531.972, 66.759 520.500 C 67.230 502.123, 67.359 500.313, 68.269 499.400 C 69.283 498.383, 76.313 495.980, 76.813 496.480 C 77.027 496.694, 76.734 499.936, 76.162 503.685 C 75.590 507.433, 75.165 511.175, 75.217 512 C 75.270 512.825, 74.991 516.044, 74.597 519.154 C 73.742 525.897, 74.760 526.992, 78.678 523.546 C 80.321 522.100, 80.924 521.050, 80.121 521.032 C 78.999 521.006, 78.875 519.305, 79.454 511.902 C 79.845 506.899, 80.743 500.036, 81.449 496.652 C 83.265 487.951, 83.193 487.892, 75.317 491.619 M 404.246 490.250 C 403.696 490.938, 402.945 494, 402.576 497.056 C 401.762 503.790, 397.931 512.431, 395.083 513.956 C 392.889 515.130, 392.273 518.433, 394.044 519.527 C 395.632 520.509, 399.753 517.374, 401.651 513.741 L 403.344 510.500 404.157 513.581 C 406.045 520.740, 412.699 522.085, 416.707 516.118 C 419.652 511.733, 420.987 506.781, 420.994 500.219 C 420.998 496.423, 420.574 494.774, 419.487 494.357 C 416.633 493.262, 415.264 495.689, 415.769 500.946 C 416.352 507.013, 415.559 510.441, 412.975 513.025 C 410.209 515.791, 409.325 515.515, 407.988 511.465 C 407.108 508.796, 407.099 505.848, 407.952 499.436 C 408.574 494.764, 408.812 490.505, 408.482 489.971 C 407.644 488.615, 405.437 488.760, 404.246 490.250 M 110.116 492.783 C 108.592 495.631, 110.603 497, 116.309 497 L 121.219 497 120.665 500.750 C 119.165 510.903, 117.891 527.270, 118.482 528.789 C 119.075 530.311, 119.362 530.239, 121.074 528.139 C 122.372 526.549, 123 524.234, 123 521.043 C 123 518.438, 123.292 512.188, 123.650 507.154 L 124.299 498 127.650 498 C 133.702 498, 131.640 495.364, 124.250 493.652 C 111.583 490.719, 111.232 490.697, 110.116 492.783 M 457.198 495.250 C 456.649 497.326, 456.729 499.140, 457.420 500.273 C 458.242 501.623, 458.080 502.779, 456.741 505.119 C 455.249 507.727, 455.174 508.593, 456.249 510.846 C 458.257 515.055, 461.904 514.830, 466.673 510.202 C 470.714 506.280, 472.713 501.097, 471.216 498.422 C 469.750 495.801, 463.604 492, 460.834 492 C 458.544 492, 457.907 492.570, 457.198 495.250 M 539 492.947 C 529.085 496.021, 522.986 500.954, 520.544 507.874 C 519.158 511.804, 519.163 512.542, 520.598 515.566 C 522.662 519.915, 528.916 523, 535.667 523 C 544.159 523, 549 520.343, 549 515.682 C 549 513.370, 545.317 512.992, 543.402 515.108 C 542.109 516.537, 540.313 517, 536.068 517 C 528.901 517, 526 515.133, 526 510.521 C 526 504.470, 536.296 498, 545.927 498 C 548.284 498, 550.390 495.458, 549.643 493.513 C 549.013 491.871, 543.428 491.574, 539 492.947 M 153.489 496.017 C 151.801 498.750, 157.278 526.786, 159.681 527.708 C 162.476 528.781, 165.087 524.353, 169.542 510.984 C 171.994 503.627, 174 497.213, 174 496.731 C 174 496.248, 173.258 495.999, 172.351 496.177 C 170.745 496.492, 169.329 499.826, 164.906 513.713 C 162.787 520.369, 161.456 522.096, 160.628 519.265 C 159.471 515.311, 158 505.375, 158 501.516 C 158 496.441, 155.278 493.123, 153.489 496.017 M 210.434 496.312 C 209.417 498.961, 210.609 499.650, 218.562 501.011 C 225.045 502.120, 226.321 502.104, 227.078 500.907 C 229.345 497.328, 227.799 496.471, 217.048 495.347 C 212.095 494.829, 210.938 494.998, 210.434 496.312 M 141.498 500.351 C 139.155 505.959, 137.532 519.678, 138.866 522.606 C 140.053 525.210, 140.737 525.452, 142.954 524.050 C 144.187 523.270, 144.205 522.751, 143.073 520.636 C 141.942 518.523, 142.004 516.668, 143.478 508.480 C 144.730 501.529, 144.913 498.513, 144.132 497.732 C 143.351 496.951, 142.611 497.686, 141.498 500.351 M 179.175 504.254 C 176.633 505.477, 173 511.748, 173 514.913 C 173 517.741, 175.104 522, 176.500 522 C 177.148 522, 178.186 523.113, 178.805 524.472 C 182.628 532.862, 196 524.610, 196 513.862 C 196 510.473, 195.440 508.824, 193.750 507.241 C 189.487 503.247, 183.723 502.066, 179.175 504.254 M 92.414 505.889 C 87.852 508.671, 84.643 516.116, 85.502 521.925 C 86.361 527.742, 88.376 530, 92.705 530 C 97.450 530, 101.538 527.621, 104.997 522.846 C 110.469 515.291, 110.270 508.453, 104.497 505.700 C 99.877 503.497, 96.244 503.554, 92.414 505.889 M 93.566 511.076 C 91.338 513.032, 89.822 515.431, 89.403 517.663 C 88.605 521.918, 89.997 523.524, 95.150 524.296 C 99.371 524.927, 101.890 522.902, 104.424 516.836 C 105.849 513.426, 105.816 513.036, 103.899 510.599 C 101.181 507.144, 97.871 507.296, 93.566 511.076 M 179.073 510.635 C 176.602 513.776, 176.265 517.219, 178.513 516.357 C 179.556 515.956, 180.354 516.717, 181.083 518.808 C 182.909 524.047, 187.844 524.137, 190.511 518.979 C 192.663 514.818, 192.355 512.424, 189.365 510.073 C 185.678 507.172, 181.622 507.394, 179.073 510.635 M 210.667 511.667 C 210.300 512.033, 210 513.140, 210 514.126 C 210 515.464, 211.679 516.438, 216.605 517.960 C 220.238 519.082, 223.822 520, 224.570 520 C 225.885 520, 228 517.063, 228 515.236 C 228 514.744, 224.502 513.589, 220.227 512.670 C 211.327 510.758, 211.552 510.781, 210.667 511.667 M 452.554 527.912 C 451.626 529.414, 451.434 580.961, 452.330 588.250 C 453.026 593.917, 453.463 595, 455.055 595 C 456.669 595, 456.847 594.517, 456.257 591.750 C 455.876 589.962, 455.571 580.175, 455.580 570 C 455.595 553.045, 455.863 548.406, 457.516 536.387 C 458.354 530.294, 454.816 524.252, 452.554 527.912 M 313.667 533.667 C 312.595 534.739, 312.899 538.499, 314.160 539.760 C 315.544 541.144, 315.814 552.518, 314.711 563 C 313.822 571.455, 314.723 574.265, 317.722 572.385 C 319.538 571.246, 319.585 570.742, 319.916 548.935 L 320 543.369 324.250 543.588 L 328.500 543.806 328 548.653 C 327.124 557.146, 327.459 571.861, 328.554 572.955 C 329.292 573.692, 330.154 573.608, 331.430 572.675 C 332.920 571.585, 333.047 570.957, 332.127 569.237 C 330.582 566.351, 330.714 559.263, 332.540 547.050 C 333.388 541.384, 333.881 536.548, 333.638 536.304 C 333.394 536.061, 331.409 536.397, 329.226 537.051 C 324.765 538.387, 318.301 536.947, 317.323 534.399 C 316.759 532.928, 314.798 532.536, 313.667 533.667 M 643.571 534.571 C 642.707 535.436, 642 537.136, 642 538.349 C 642 539.562, 641.401 541.443, 640.668 542.527 C 639.935 543.612, 638.110 547.650, 636.612 551.500 C 635.113 555.350, 632.266 560.887, 630.284 563.805 C 626.975 568.677, 626.812 569.241, 628.288 570.717 C 629.764 572.193, 630.135 572.067, 632.836 569.176 C 634.453 567.445, 637.289 562.428, 639.138 558.027 C 640.987 553.627, 642.780 550.020, 643.122 550.013 C 643.464 550.006, 644.027 551.688, 644.372 553.750 C 644.717 555.813, 645.277 558.513, 645.616 559.750 C 646.133 561.633, 645.839 562, 643.817 562 C 640.975 562, 639 563.698, 639 566.141 C 639 568.527, 639.685 568.810, 647.388 569.599 C 653.648 570.240, 654.150 570.144, 654.655 568.211 C 654.954 567.068, 656.737 565.404, 658.618 564.511 C 663.202 562.336, 661.916 559.500, 656.343 559.500 C 651.438 559.500, 650.162 557.009, 649.328 545.808 C 648.419 533.594, 647.108 531.035, 643.571 534.571 M 410.719 537.758 C 409.773 538.803, 409 540.352, 409 541.202 C 409 542.051, 408.130 544.715, 407.066 547.123 C 406.002 549.530, 404.820 553.854, 404.440 556.731 C 403.779 561.724, 403.894 562.099, 406.979 564.981 C 409.713 567.534, 411.010 568, 415.383 568 C 422.780 568, 426.561 565.013, 424.094 561.117 C 423.359 559.958, 422.840 559.998, 420.886 561.367 C 416.214 564.639, 409 562.632, 409 558.059 C 409 556.580, 409.899 556.241, 414.069 556.147 C 416.857 556.084, 419.557 555.774, 420.069 555.457 C 422.331 554.059, 420.679 552.024, 416.250 550.752 C 412.451 549.661, 411.564 548.999, 411.819 547.444 C 412.474 543.457, 417.777 541.740, 422.173 544.093 C 424.622 545.403, 426.354 544.086, 425.412 541.630 C 424.613 539.548, 420.622 537.395, 415.934 536.515 C 413.210 536.004, 412.057 536.279, 410.719 537.758 M 355.176 538.224 C 354.525 538.875, 353.981 542.321, 353.956 545.950 C 353.897 554.888, 352.615 560.829, 350.232 563.212 C 345.236 568.208, 341.228 560.921, 343.171 550.375 C 343.794 546.996, 343.993 543.425, 343.615 542.438 C 342.965 540.746, 342.830 540.741, 341.213 542.357 C 339.900 543.668, 339.420 546.249, 339.158 553.406 C 338.771 563.972, 340.231 568.377, 344.680 570.068 C 351.741 572.753, 356.808 565.050, 357.122 551.154 C 357.199 547.745, 357.653 544.714, 358.131 544.419 C 359.467 543.593, 359.161 539.379, 357.676 538.146 C 356.710 537.344, 356.035 537.365, 355.176 538.224 M 383.513 538.979 C 383.180 539.518, 383.346 541.656, 383.882 543.729 C 384.419 545.803, 385.639 551.325, 386.594 556 C 387.550 560.675, 388.723 565.288, 389.201 566.250 C 391.695 571.271, 398.087 564.626, 402.024 552.917 C 403.211 549.388, 404.641 545.943, 405.203 545.263 C 405.764 544.582, 405.943 543.294, 405.600 542.400 C 404.830 540.393, 402.764 541.836, 400.652 545.855 C 395.830 555.036, 393.278 559.225, 392.448 559.322 C 391.270 559.460, 389.225 550.924, 389.096 545.332 C 389.043 543.039, 388.727 540.452, 388.393 539.582 C 387.724 537.837, 384.467 537.435, 383.513 538.979 M 609.736 540.993 C 607.410 542.822, 606.968 542.864, 604.351 541.499 C 602.783 540.681, 599.153 540.010, 596.285 540.006 C 592.011 540.001, 590.868 540.378, 589.949 542.095 C 589.025 543.822, 589.195 544.533, 590.914 546.134 C 593.650 548.683, 593.864 556.631, 591.250 558.592 C 589.598 559.831, 589.626 560.128, 591.750 563.900 C 592.987 566.098, 594 568.764, 594 569.826 C 594 572.774, 596.613 574.566, 598.559 572.951 C 599.699 572.005, 599.951 570.667, 599.496 567.976 C 598.919 564.563, 599.100 564.201, 601.977 563.010 C 603.683 562.303, 605.737 560.786, 606.540 559.640 C 607.640 558.068, 608 557.940, 608 559.117 C 608 559.976, 609.125 561.192, 610.500 561.818 C 612.330 562.652, 613 563.734, 613 565.856 C 613 567.451, 613.700 569.336, 614.555 570.045 C 615.852 571.122, 616.448 570.996, 618.155 569.290 C 619.817 567.628, 619.994 566.858, 619.100 565.188 C 617.163 561.567, 617.897 559.510, 622.500 555.662 C 626.152 552.609, 627 551.283, 627 548.625 C 627 541.241, 615.746 536.266, 609.736 540.993 M 501.560 540.903 C 500.542 542.550, 503.080 562.278, 505.020 567.798 C 507.411 574.600, 510.499 577.266, 513.634 575.235 C 515.033 574.329, 518.114 567.613, 521.083 559 C 522.315 555.425, 523.701 552.072, 524.162 551.550 C 524.623 551.028, 525 549.759, 525 548.730 C 525 547.371, 524.396 546.948, 522.787 547.180 C 521.231 547.405, 520.157 548.687, 519.168 551.500 C 514.426 564.984, 512.671 569.057, 511.739 568.746 C 510.103 568.201, 508.387 561.178, 507.694 552.187 C 507.346 547.675, 506.582 543.087, 505.995 541.992 C 504.887 539.920, 502.526 539.340, 501.560 540.903 M 532.267 541.217 C 530.876 542.945, 529.720 562.737, 530.791 566.500 C 531.343 568.443, 532.295 569.500, 533.491 569.500 C 535.198 569.500, 535.344 568.406, 535.419 555.085 C 535.499 540.889, 534.845 538.014, 532.267 541.217 M 544.555 541.939 C 543.566 543.032, 543.016 544.600, 543.332 545.424 C 543.649 546.248, 542.832 550.619, 541.519 555.137 C 539.396 562.438, 539.285 563.651, 540.521 566.041 C 542.176 569.242, 546.712 571.515, 553.319 572.457 L 558.137 573.143 557.819 569.844 C 557.523 566.788, 557.172 566.489, 553.045 565.789 C 550.595 565.374, 547.687 564.132, 546.584 563.029 C 544.712 561.156, 544.671 560.707, 545.963 556.262 C 547.767 550.050, 548.452 542.052, 547.279 540.879 C 546.711 540.311, 545.659 540.720, 544.555 541.939 M 480.709 543.999 C 470.312 546.743, 468 547.919, 468 550.466 C 468 553.173, 469.956 554.982, 476.500 558.330 C 479.250 559.736, 482.850 562.004, 484.500 563.369 C 489.281 567.324, 486.960 568.533, 474.948 568.342 C 464.514 568.176, 463.038 568.896, 466.571 572.429 C 468.970 574.827, 483.017 574.845, 488.750 572.456 C 491.502 571.310, 492 570.588, 492 567.747 C 492 563.714, 488.144 559.683, 480.279 555.494 C 477.408 553.965, 475.288 552.342, 475.569 551.888 C 476.152 550.945, 491.316 546, 493.625 546 C 494.534 546, 495.013 545.295, 494.815 544.250 C 494.359 541.844, 489.224 541.752, 480.709 543.999 M 564.526 546.950 C 562.514 550.841, 562.546 561.825, 564.585 566.920 C 566.539 571.805, 569.725 574, 574.861 574 C 582.525 574, 587.021 565.324, 585.532 553.406 C 584.725 546.948, 582.537 544.034, 580.229 546.342 C 579.025 547.547, 578.957 548.439, 579.872 551.063 C 580.492 552.842, 581 556.449, 581 559.077 C 581 563.058, 580.557 564.204, 578.343 565.945 C 575.563 568.132, 572.738 567.960, 570.086 565.443 C 568.296 563.744, 567.491 554.513, 568.736 549.964 C 570.446 543.715, 567.346 541.496, 564.526 546.950 M 364.807 546.750 C 362.431 549.517, 362.016 550.545, 360.951 556.309 C 359.475 564.293, 360.759 567, 366.025 567 C 371.243 567, 375.560 564.752, 377.483 561.033 C 379.059 557.986, 379.515 550.317, 378.235 548.400 C 375.873 544.863, 367.329 543.813, 364.807 546.750 M 598.519 547.321 C 597.232 551.497, 597.212 555.692, 598.472 557.357 C 599.820 559.139, 599.982 559.108, 602.501 556.590 C 606.140 552.951, 605.723 547.956, 601.691 546.887 C 599.831 546.393, 598.760 546.540, 598.519 547.321 M 610.674 546.750 C 610.430 547.163, 609.907 549.454, 609.512 551.843 C 608.868 555.731, 608.987 556.150, 610.646 555.834 C 612.086 555.561, 612.568 554.422, 612.805 550.741 C 613.074 546.553, 611.991 544.524, 610.674 546.750 M 618.374 548.467 C 617.338 551.168, 618.468 552.389, 620.304 550.553 C 621.999 548.858, 621.793 547, 619.910 547 C 619.375 547, 618.684 547.660, 618.374 548.467 M 366.557 552.223 C 364.610 555.002, 364.545 559.378, 366.428 560.940 C 368.350 562.536, 373.198 560.055, 374.731 556.691 C 377.151 551.379, 369.917 547.424, 366.557 552.223 M 0.195 581.500 C 0.215 583.150, 0.439 583.704, 0.693 582.731 C 0.947 581.758, 0.930 580.408, 0.656 579.731 C 0.382 579.054, 0.175 579.850, 0.195 581.500 M 727.079 593.583 C 727.127 594.748, 727.364 594.985, 727.683 594.188 C 727.972 593.466, 727.936 592.603, 727.604 592.271 C 727.272 591.939, 727.036 592.529, 727.079 593.583" stroke="none" fill="hsl(210, 40%, 96.1%)" fill-rule="evenodd"/>
</svg>