<svg xmlns="http://www.w3.org/2000/svg" width="608" height="599" viewBox="0 0 608 599" version="1.1">
	<path d="M 171.250 0.743 C 175.512 0.931, 182.488 0.931, 186.750 0.743 C 191.012 0.556, 187.525 0.402, 179 0.402 C 170.475 0.402, 166.988 0.556, 171.250 0.743 M 196.750 0.706 C 197.988 0.944, 200.012 0.944, 201.250 0.706 C 202.488 0.467, 201.475 0.272, 199 0.272 C 196.525 0.272, 195.512 0.467, 196.750 0.706 M 493.750 0.746 C 499.387 0.924, 508.613 0.924, 514.250 0.746 C 519.888 0.568, 515.275 0.422, 504 0.422 C 492.725 0.422, 488.113 0.568, 493.750 0.746 M 572.750 0.662 C 573.438 0.940, 574.563 0.940, 575.250 0.662 C 575.938 0.385, 575.375 0.158, 574 0.158 C 572.625 0.158, 572.063 0.385, 572.750 0.662 M 331.606 51.585 C 330.464 54.559, 333.190 56.062, 340.313 56.386 C 345.740 56.632, 347.277 56.351, 348.622 54.865 C 350.541 52.744, 350.101 52.488, 343 51.587 C 340.525 51.273, 337.102 50.746, 335.393 50.415 C 332.987 49.950, 332.132 50.215, 331.606 51.585 M 280.362 53.921 C 275.839 56.679, 272.428 64.728, 270.039 78.277 C 267.603 92.098, 267.531 94.942, 269.503 99.662 C 270.963 103.157, 271.132 103.245, 275.412 102.763 C 277.835 102.490, 281.165 101.306, 282.813 100.133 C 286.536 97.482, 287.624 97.456, 288.290 100 C 288.577 101.100, 289.544 102, 290.438 102 C 292.511 102, 293.616 99.216, 292.133 97.733 C 291.510 97.110, 291 95.592, 291 94.359 C 291 90.739, 289.493 90.763, 283.323 94.484 C 280.120 96.415, 276.701 97.996, 275.725 97.997 C 271.080 98.004, 270.811 84.530, 275.192 71.265 C 278.357 61.685, 281.522 57, 284.830 57 C 288.014 57, 289.542 59.619, 288.018 62.467 C 285.474 67.220, 289.384 70.146, 292.443 65.777 C 296.379 60.158, 292.085 51.989, 285.203 52.004 C 284.266 52.006, 282.088 52.869, 280.362 53.921 M 26.688 53.646 C 25.612 54.722, 25.870 87.801, 26.959 88.475 C 28.245 89.269, 32 86.851, 32 85.228 C 32 84.518, 31.300 83.669, 30.445 83.340 C 29.117 82.831, 28.934 80.623, 29.195 68.219 C 29.483 54.521, 28.944 51.389, 26.688 53.646 M 94.790 53.544 C 94.491 53.842, 90.034 54.180, 84.886 54.294 C 76.610 54.476, 75.484 54.718, 75.164 56.380 C 74.711 58.742, 76.792 60.090, 79.748 59.348 C 80.994 59.036, 83.609 59.079, 85.559 59.445 L 89.105 60.110 88.890 70.388 C 88.649 81.951, 89.102 83.578, 92.046 81.739 C 93.786 80.653, 94 79.352, 94 69.871 L 94 59.223 97.465 58.573 C 101.521 57.812, 102.648 56.486, 100.964 54.456 C 99.785 53.036, 95.876 52.458, 94.790 53.544 M 40.100 56.813 C 39.514 57.909, 39.543 59.219, 40.178 60.354 C 41.216 62.208, 40.889 66.170, 38.666 78.719 C 37.956 82.722, 37.753 86.595, 38.210 87.411 C 39.307 89.370, 46.698 90.393, 53.563 89.535 C 60.981 88.609, 60.143 86.900, 51.424 85.175 C 47.616 84.422, 43.970 83.371, 43.323 82.841 C 42.099 81.838, 42.234 79.438, 44.168 67.868 C 44.777 64.221, 44.993 60.108, 44.647 58.729 C 43.854 55.568, 41.334 54.507, 40.100 56.813 M 106.306 57.645 C 105.465 59.837, 108.157 61.696, 113.342 62.501 C 121.373 63.747, 120.996 63.240, 120.327 71.912 C 119.650 80.695, 120.740 82.704, 124.269 79.176 C 125.933 77.511, 126.099 76.824, 125.121 75.646 C 124.307 74.665, 124.126 72.527, 124.573 69.159 C 125.230 64.206, 125.298 64.125, 129.370 63.400 C 131.641 62.996, 134.287 62.591, 135.250 62.500 C 136.212 62.409, 137.307 62.027, 137.683 61.650 C 139.297 60.036, 135.834 59.134, 126 58.607 C 120.225 58.297, 113.928 57.584, 112.007 57.022 C 107.402 55.675, 107.047 55.714, 106.306 57.645 M 155.104 65.367 C 150.811 79.829, 151.304 84.170, 157.684 88.114 C 160.483 89.844, 161.922 90.104, 165.317 89.493 C 170.308 88.595, 175.170 88.606, 180.179 89.526 C 187.509 90.873, 196.142 85.368, 199.914 76.942 C 202.253 71.718, 201.579 69.140, 197.419 67.402 C 188.775 63.790, 172.951 72.069, 171.104 81.169 C 170.477 84.259, 170.115 84.523, 166.096 84.813 C 162.709 85.058, 161.244 84.638, 159.382 82.889 C 156.592 80.268, 156.395 77.134, 158.480 68.500 C 160.314 60.903, 160.360 58, 158.646 58 C 157.827 58, 156.426 60.914, 155.104 65.367 M 105.122 63.354 C 103.483 65.328, 103.327 78.485, 104.920 80.403 C 107.229 83.186, 108 81.084, 108 72 C 108 63.154, 107.223 60.821, 105.122 63.354 M 136 66.381 C 129.976 68.495, 125.776 79.633, 129.571 83.429 C 133.896 87.753, 146.295 82.132, 150.541 73.921 C 152.569 69.999, 151.674 67.431, 147.810 66.084 C 143.908 64.724, 140.475 64.810, 136 66.381 M 307.072 76.750 C 305.194 93.001, 305.217 96.083, 307.222 97.359 C 309.822 99.013, 311.681 96.791, 310.277 93.709 C 309.514 92.035, 309.536 88.524, 310.354 81.432 C 311.651 70.192, 311.443 66, 309.591 66 C 308.712 66, 307.927 69.346, 307.072 76.750 M 326.494 81.624 C 320.466 94.044, 319.174 98.775, 322.076 97.808 C 322.668 97.611, 324.734 94.536, 326.667 90.975 C 332.254 80.685, 332.149 80.683, 331.466 91.097 C 330.937 99.157, 331.094 100.951, 332.447 102.304 C 333.581 103.438, 334.714 103.672, 336.279 103.094 C 339.095 102.055, 339.696 99.229, 337.450 97.587 C 335.884 96.442, 335.815 95.231, 336.706 84.531 C 337.702 72.568, 337.041 68.026, 334.304 68.008 C 333.645 68.004, 330.131 74.131, 326.494 81.624 M 136.277 70.973 C 133.095 72.913, 131.194 76.887, 132.465 78.943 C 132.824 79.524, 134.239 80, 135.609 80 C 141.185 80, 149.198 73.148, 146.883 70.359 C 145.252 68.394, 140.009 68.697, 136.277 70.973 M 185.413 72.792 C 177.191 77.341, 175.033 80.423, 178.158 83.148 C 180.012 84.765, 181.430 85.087, 184.963 84.694 C 188.567 84.293, 190.154 83.416, 193.213 80.138 C 195.535 77.648, 197 75.095, 197 73.539 C 197 71.212, 196.645 71.004, 192.750 71.042 C 190.412 71.065, 187.111 71.852, 185.413 72.792 M 309.256 125.250 C 308.151 126.647, 306.561 142.114, 306.524 151.838 C 306.502 157.574, 306.769 158.407, 309.339 160.616 C 311.689 162.636, 312.809 162.939, 315.839 162.372 C 320.693 161.463, 325.374 159.459, 326.878 157.647 C 328.749 155.393, 326.643 154.689, 320.371 155.473 C 312.677 156.434, 311.986 155.617, 312.060 145.628 C 312.092 141.157, 312.436 135.475, 312.824 133 C 313.211 130.525, 313.378 127.487, 313.195 126.250 C 312.830 123.789, 310.816 123.278, 309.256 125.250 M 295.458 127.069 C 295.094 127.656, 295.077 133.055, 295.418 139.067 C 295.773 145.311, 295.582 152.855, 294.973 156.666 C 294.092 162.186, 294.158 163.586, 295.356 164.785 C 296.621 166.049, 296.929 165.996, 297.787 164.367 C 300.136 159.903, 301.039 140.500, 299.397 129.750 C 298.841 126.111, 296.876 124.773, 295.458 127.069 M 42.205 136.894 C 36.370 138.910, 30.134 143.444, 28.346 146.972 C 26.811 149.999, 28.346 154.341, 31.735 156.562 C 34.137 158.136, 43.883 158.809, 45.932 157.542 C 46.345 157.287, 47.667 158.411, 48.871 160.039 C 50.761 162.596, 51.707 163, 55.798 163 C 59.156 163, 61.568 162.299, 64.080 160.591 C 68.655 157.482, 72.549 150.325, 71.639 146.697 C 70.873 143.644, 66.491 141, 62.199 141 C 55.173 141, 51 144.532, 51 150.480 C 51 153.111, 50.117 153.524, 42.392 154.502 C 37.926 155.067, 36.936 154.849, 34.514 152.766 C 32.379 150.929, 31.907 149.868, 32.457 148.136 C 33.472 144.936, 40.681 140.006, 44.400 139.968 C 48.404 139.927, 51.402 137.802, 49.765 136.165 C 48.318 134.718, 48.579 134.693, 42.205 136.894 M 108.472 136.671 C 106.396 138.747, 106.588 139.162, 111.038 142.240 C 114.167 144.405, 115 144.648, 115 143.397 C 115 142.034, 116.399 141.861, 125.026 142.156 C 133.499 142.447, 135.008 142.269, 134.764 141.008 C 134.314 138.680, 130.039 137.139, 123.491 136.943 C 120.196 136.845, 115.800 136.412, 113.722 135.982 C 110.913 135.401, 109.565 135.577, 108.472 136.671 M 209.288 137.250 C 207.701 139.323, 204 152.326, 204 155.828 C 204 159.717, 206.281 164.510, 208.545 165.379 C 211.146 166.377, 223.108 165.941, 228 164.670 C 230.814 163.938, 232.500 162.938, 232.500 162 C 232.500 161.175, 232.050 160.514, 231.500 160.531 C 230.950 160.548, 226.029 160.934, 220.565 161.388 C 211.589 162.135, 210.503 162.041, 209.315 160.416 C 205.531 155.242, 208.908 153.792, 218.781 156.353 C 223.143 157.485, 224.181 157.487, 225.111 156.366 C 225.993 155.304, 225.213 154.588, 221.362 152.924 C 218.688 151.768, 215.027 150.577, 213.226 150.277 C 208.966 149.566, 208.719 148.991, 211.037 145.179 C 212.465 142.831, 213.693 142.004, 215.735 142.014 C 220.894 142.039, 223 143.084, 223 145.617 C 223 146.927, 223.395 148, 223.878 148 C 225.519 148, 227.155 145.118, 226.827 142.805 C 226.178 138.228, 211.981 133.731, 209.288 137.250 M 584.079 138.583 C 584.127 139.748, 584.364 139.985, 584.683 139.188 C 584.972 138.466, 584.936 137.603, 584.604 137.271 C 584.272 136.939, 584.036 137.529, 584.079 138.583 M 155 138.759 C 144.955 139.233, 144.727 139.380, 145.486 144.896 C 145.995 148.596, 145.784 150.074, 144.574 151.283 C 142.854 153.003, 142.499 155.572, 143.865 156.417 C 144.341 156.711, 144.997 158.593, 145.322 160.600 C 145.648 162.606, 146.678 165.092, 147.612 166.124 C 149.724 168.458, 155.899 168.616, 160.456 166.454 C 165.022 164.287, 169.404 159.495, 168.640 157.504 C 168.112 156.128, 167.464 156.323, 164.260 158.821 C 159.277 162.706, 154.645 164.196, 151.393 162.959 C 148.293 161.781, 148.369 157.701, 151.500 157.202 C 152.600 157.026, 154.175 156.615, 155 156.288 C 155.825 155.961, 157.175 155.650, 158 155.597 C 158.825 155.543, 159.500 154.825, 159.500 154 C 159.500 152.896, 158.116 152.420, 154.250 152.198 C 149.900 151.947, 149 151.575, 149 150.030 C 149 146.144, 150.181 145.045, 155.055 144.398 C 160.348 143.696, 164.017 140.964, 161.775 139.393 C 161.074 138.902, 158.025 138.617, 155 138.759 M 100.558 139.775 C 99.375 140.958, 100.091 143.253, 102.167 144.934 C 105.337 147.501, 104.999 152.196, 101.315 156.760 C 98.060 160.792, 94.811 161.918, 92.342 159.869 C 90.779 158.572, 90.874 151.656, 92.571 143.250 C 93.129 140.487, 92.940 140, 91.314 140 C 89.411 140, 87 144.648, 87 148.319 C 87 150.182, 80.952 159.223, 77.305 162.811 C 75.204 164.878, 74.952 167.002, 76.809 166.999 C 77.993 166.997, 82.579 162.634, 84.480 159.700 L 86.296 156.900 87.736 159.875 C 89.918 164.380, 92.523 166.337, 95.383 165.619 C 103.918 163.477, 110.990 148.714, 106.531 142.347 C 105.049 140.232, 101.591 138.743, 100.558 139.775 M 137.551 139.918 C 136.665 141.351, 136.848 161.157, 137.777 164.435 C 138.235 166.049, 139.120 167.540, 139.745 167.748 C 140.961 168.154, 141.539 143.569, 140.384 140.559 C 139.716 138.818, 138.413 138.523, 137.551 139.918 M 178.956 144.187 C 177.658 149.035, 173.661 159.188, 171.533 163.045 C 170.639 164.665, 170.454 166.116, 171.023 167.037 C 172.166 168.886, 173.156 167.873, 176.292 161.646 L 178.736 156.792 181.156 161.146 C 183.487 165.338, 183.750 165.498, 188.250 165.440 C 195.720 165.343, 200 159.889, 200 150.466 C 200 144.845, 198.605 142, 195.848 142 C 193.645 142, 193.647 141.646, 195.783 150 C 196.901 154.374, 195.346 157.822, 191.151 160.272 C 188.192 162, 188.069 161.990, 186.098 159.875 C 183.840 157.452, 182.721 151.745, 183.189 145.037 C 183.436 141.490, 183.152 140.503, 181.805 140.225 C 180.544 139.964, 179.816 140.977, 178.956 144.187 M 58.235 145.037 C 54.934 146.363, 53.548 150.661, 55.473 153.600 C 57.481 156.663, 57.413 156.988, 54.750 157.068 L 52.500 157.135 54.749 158.220 C 58.838 160.192, 69 153.868, 69 149.350 C 69 147.950, 63.332 143.958, 61.500 144.067 C 60.950 144.100, 59.481 144.536, 58.235 145.037 M 117.593 148.250 C 116.794 149.488, 115.826 153.762, 115.441 157.750 C 114.852 163.852, 114.980 165, 116.248 165 C 118.870 165, 119.721 162.728, 120.273 154.250 C 120.824 145.799, 120.150 144.290, 117.593 148.250 M 47.250 193.247 C 45.147 193.921, 44 194.935, 44 196.120 C 44 197.672, 44.391 197.802, 46.565 196.975 C 52.597 194.682, 61.686 196.676, 63.879 200.774 C 65.339 203.502, 62.856 208.113, 57.429 212.751 C 54.776 215.019, 52.244 216.651, 51.803 216.378 C 51.361 216.105, 51 213.851, 51 211.368 C 51 207.607, 50.708 206.909, 49.250 207.189 C 47.735 207.480, 47.462 208.965, 47.215 218.262 C 46.908 229.805, 47.963 234.106, 50.570 231.942 C 51.356 231.289, 52 229.858, 52 228.761 C 52 227.120, 52.399 226.910, 54.250 227.574 C 58.365 229.051, 68.307 228.598, 71.858 226.772 C 74.271 225.531, 75.730 225.320, 77.042 226.023 C 83.152 229.293, 91.538 224.841, 92.669 217.727 C 93.472 212.681, 91.119 210, 85.890 210 C 82.341 210, 82.047 210.230, 81.435 213.492 C 81.075 215.413, 81.106 217.776, 81.504 218.742 C 82.090 220.167, 82.455 219.849, 83.432 217.060 C 84.984 212.633, 86.440 212.216, 88.636 215.568 C 90.374 218.220, 90.360 218.294, 87.644 220.630 C 84.218 223.577, 81.345 223.647, 79.071 220.839 L 77.321 218.679 75.236 220.764 C 71.976 224.024, 68.875 225.323, 64.737 225.161 C 60.886 225.010, 55.663 222.881, 54.491 220.985 C 54.141 220.419, 56.741 217.154, 60.269 213.728 C 67.054 207.139, 68.791 203.210, 67 198.500 C 64.892 192.956, 55.743 190.522, 47.250 193.247 M 112.691 198.722 C 111.146 198.954, 109.683 199.674, 109.440 200.322 C 108.365 203.191, 105.413 229.049, 106.044 230.071 C 106.559 230.905, 107.292 230.914, 108.805 230.104 C 111.221 228.811, 112.817 224.772, 111.133 224.211 C 109.671 223.724, 109.788 217.115, 111.392 209.504 C 112.623 203.665, 112.753 203.493, 116.363 202.906 C 118.402 202.575, 120.261 202.613, 120.494 202.991 C 120.728 203.369, 120.274 205.888, 119.485 208.589 C 118.696 211.290, 117.078 216.840, 115.889 220.922 C 113.445 229.312, 113.994 231.500, 118.543 231.500 C 120.928 231.500, 121.767 230.717, 123.934 226.470 L 126.500 221.440 130.685 222.917 C 134.842 224.384, 135.957 226.005, 135.986 230.628 C 135.994 231.798, 136.709 233.344, 137.576 234.063 C 139.784 235.896, 141.155 233.529, 140.370 229.239 C 140.006 227.249, 140.265 225.386, 141.035 224.458 C 142.068 223.213, 141.995 222.716, 140.632 221.719 C 139.472 220.869, 138.677 217.947, 138.008 212.074 C 136.959 202.872, 135.967 200.911, 133.222 202.614 C 131.351 203.775, 123.145 219.499, 123.055 222.095 C 123.025 222.972, 122.035 224.547, 120.856 225.595 L 118.712 227.500 119.419 222 C 119.808 218.975, 120.998 213.838, 122.063 210.585 C 123.128 207.332, 124 203.169, 124 201.335 C 124 198.055, 123.930 198.002, 119.750 198.150 C 117.412 198.232, 114.236 198.490, 112.691 198.722 M 196.549 205.250 C 196.335 205.938, 195.618 210.221, 194.955 214.768 L 193.750 223.036 189.024 222.409 C 185.216 221.904, 184.178 222.095, 183.680 223.391 C 182.361 226.828, 185.031 228.951, 190.715 228.986 C 191.933 228.994, 193.433 229.940, 194.047 231.088 C 195.881 234.515, 202.130 241, 203.597 241 C 206.127 241, 206.375 236.291, 204.003 233.285 L 201.806 230.500 207.541 230.196 C 214.925 229.805, 216 230.287, 216 233.993 C 216 237.826, 218.659 239.001, 227.315 238.996 C 234.645 238.992, 239.377 236.619, 240.431 232.419 C 241.855 226.744, 235.254 221.665, 226.318 221.560 C 221.981 221.510, 220.666 221.949, 218.263 224.250 C 216.374 226.059, 214.314 227, 212.245 227 C 207.028 227, 198.898 224.898, 198.323 223.400 C 198.027 222.627, 198.481 218.907, 199.334 215.133 C 200.186 211.359, 200.632 207.310, 200.325 206.135 C 199.720 203.820, 197.178 203.224, 196.549 205.250 M 157 208.088 C 157 209.903, 151.088 222.079, 147.948 226.732 C 144.737 231.490, 144.325 233.007, 146.250 232.988 C 147.508 232.975, 151.810 227.200, 153.301 223.524 C 153.975 221.862, 154.251 221.783, 155.036 223.024 C 155.549 223.836, 155.983 225.400, 155.999 226.500 C 156.044 229.477, 158.929 237.250, 160.732 239.250 C 162.831 241.578, 166.143 241.462, 169.339 238.948 C 173.949 235.321, 180.429 219.121, 178.510 216.016 C 177.449 214.300, 175 216.796, 175 219.594 C 175 223.470, 170.374 232.709, 167.485 234.601 C 164.841 236.334, 164.750 236.321, 162.931 233.935 C 159.803 229.831, 159.037 223.249, 160.291 211.250 C 160.671 207.609, 160.467 207, 158.867 207 C 157.840 207, 157 207.490, 157 208.088 M 130.035 212.655 C 128.902 215.215, 128.094 217.373, 128.238 217.452 C 130.715 218.803, 134.009 219.762, 134.284 219.212 C 134.968 217.839, 133.798 208, 132.950 208 C 132.479 208, 131.167 210.095, 130.035 212.655 M 220.655 226.829 C 219.745 227.835, 219 229.810, 219 231.219 C 219 233.432, 219.511 233.843, 222.750 234.235 C 228.080 234.880, 235.396 232.920, 235.815 230.735 C 236.056 229.476, 234.912 228.408, 231.826 227.007 C 226.390 224.540, 222.778 224.482, 220.655 226.829 M 450 238 C 450 238.550, 450.477 239, 451.059 239 C 451.641 239, 451.840 238.550, 451.500 238 C 451.160 237.450, 450.684 237, 450.441 237 C 450.198 237, 450 237.450, 450 238 M 532.729 241.604 C 532.328 242.005, 532 243.023, 532 243.867 C 532 244.992, 532.296 245.104, 533.112 244.288 C 533.724 243.676, 534.053 242.657, 533.842 242.025 C 533.631 241.393, 533.130 241.203, 532.729 241.604 M 563 244 C 563 244.550, 563.450 245, 564 245 C 564.550 245, 565 244.550, 565 244 C 565 243.450, 564.550 243, 564 243 C 563.450 243, 563 243.450, 563 244 M 440.158 257 C 440.158 258.375, 440.385 258.938, 440.662 258.250 C 440.940 257.563, 440.940 256.438, 440.662 255.750 C 440.385 255.063, 440.158 255.625, 440.158 257 M 373.116 336.219 C 373.029 338.250, 373.379 338.792, 374.500 338.362 C 375.325 338.045, 376 337.358, 376 336.834 C 376 336.310, 375.584 336.139, 375.076 336.453 C 374.567 336.767, 373.945 336.231, 373.692 335.262 C 373.402 334.150, 373.189 334.503, 373.116 336.219 M 528.171 336.318 C 525.931 338.703, 525.236 340.590, 527 339.500 C 527.555 339.157, 528.007 339.909, 528.015 341.191 C 528.028 343.049, 528.220 343.207, 529 342 C 529.862 340.667, 529.984 340.667, 530.103 342 C 530.177 342.825, 530.184 343.837, 530.118 344.250 C 530.053 344.663, 530.465 345, 531.034 345 C 531.701 345, 531.830 343.132, 531.399 339.750 C 531.031 336.863, 530.642 334.389, 530.535 334.254 C 530.428 334.119, 529.364 335.048, 528.171 336.318 M 430.500 341 C 430.160 341.550, 430.359 342, 430.941 342 C 431.523 342, 432 341.550, 432 341 C 432 340.450, 431.802 340, 431.559 340 C 431.316 340, 430.840 340.450, 430.500 341 M 373 351 C 373 352.100, 373.173 353, 373.383 353 C 373.594 353, 374.002 352.100, 374.290 351 C 374.577 349.900, 374.405 349, 373.906 349 C 373.408 349, 373 349.900, 373 351 M 530 350 C 530 350.550, 530.477 351, 531.059 351 C 531.641 351, 531.840 350.550, 531.500 350 C 531.160 349.450, 530.684 349, 530.441 349 C 530.198 349, 530 349.450, 530 350 M 454.787 355 C 454.545 356.650, 454.718 358, 455.173 358 C 455.628 358, 456 356.650, 456 355 C 456 353.350, 455.826 352, 455.613 352 C 455.401 352, 455.029 353.350, 454.787 355 M 390.543 353.931 C 390.226 354.443, 390.425 355.144, 390.984 355.490 C 391.543 355.835, 392 355.416, 392 354.559 C 392 352.802, 391.400 352.544, 390.543 353.931 M 568 353.941 C 568 354.459, 568.445 355.157, 568.989 355.493 C 569.555 355.843, 569.723 355.442, 569.382 354.552 C 568.717 352.820, 568 352.503, 568 353.941 M 496.079 356.583 C 496.127 357.748, 496.364 357.985, 496.683 357.188 C 496.972 356.466, 496.936 355.603, 496.604 355.271 C 496.272 354.939, 496.036 355.529, 496.079 356.583 M 532.500 359 C 531.812 361.169, 532.684 365, 533.866 365 C 534.268 365, 534.576 363.201, 534.549 361.003 C 534.496 356.706, 533.528 355.760, 532.500 359 M 569.015 360.250 C 569.007 362.313, 569.173 364, 569.383 364 C 570.250 364, 570.636 359.032, 569.864 357.815 C 569.333 356.977, 569.025 357.860, 569.015 360.250 M 554.015 371.750 C 554.007 372.988, 554.450 374, 555 374 C 556.253 374, 556.253 372.939, 555 371 C 554.216 369.787, 554.028 369.931, 554.015 371.750 M 400 379 C 400 379.550, 400.450 380, 401 380 C 401.550 380, 402 379.550, 402 379 C 402 378.450, 401.550 378, 401 378 C 400.450 378, 400 378.450, 400 379 M 301 396.059 C 301 396.641, 301.450 396.840, 302 396.500 C 302.550 396.160, 303 395.684, 303 395.441 C 303 395.198, 302.550 395, 302 395 C 301.450 395, 301 395.477, 301 396.059 M 442.079 421.583 C 442.127 422.748, 442.364 422.985, 442.683 422.188 C 442.972 421.466, 442.936 420.603, 442.604 420.271 C 442.272 419.939, 442.036 420.529, 442.079 421.583 M 221.607 422.582 C 220.714 424.908, 220.868 427.199, 221.875 426.577 C 222.356 426.280, 222.750 424.903, 222.750 423.518 C 222.750 420.605, 222.458 420.365, 221.607 422.582 M 273.590 433.496 C 272.802 436.635, 272.822 437.060, 273.742 436.750 C 274.535 436.483, 275.414 431, 274.664 431 C 274.418 431, 273.935 432.123, 273.590 433.496 M 405.079 460.583 C 405.127 461.748, 405.364 461.985, 405.683 461.188 C 405.972 460.466, 405.936 459.603, 405.604 459.271 C 405.272 458.939, 405.036 459.529, 405.079 460.583 M 446.158 490 C 446.158 491.375, 446.385 491.938, 446.662 491.250 C 446.940 490.563, 446.940 489.438, 446.662 488.750 C 446.385 488.063, 446.158 488.625, 446.158 490 M 450 492 C 450 492.550, 450.477 493, 451.059 493 C 451.641 493, 451.840 492.550, 451.500 492 C 451.160 491.450, 450.684 491, 450.441 491 C 450.198 491, 450 491.450, 450 492 M 402 497.882 C 402 498.432, 402.450 499.160, 403 499.500 C 403.550 499.840, 404 499.668, 404 499.118 C 404 498.568, 403.550 497.840, 403 497.500 C 402.450 497.160, 402 497.332, 402 497.882 M 383 510.059 C 383 510.641, 383.450 510.840, 384 510.500 C 384.550 510.160, 385 509.684, 385 509.441 C 385 509.198, 384.550 509, 384 509 C 383.450 509, 383 509.477, 383 510.059 M 451.079 511.583 C 451.127 512.748, 451.364 512.985, 451.683 512.188 C 451.972 511.466, 451.936 510.603, 451.604 510.271 C 451.272 509.939, 451.036 510.529, 451.079 511.583 M 373.158 515 C 373.158 516.375, 373.385 516.938, 373.662 516.250 C 373.940 515.563, 373.940 514.438, 373.662 513.750 C 373.385 513.063, 373.158 513.625, 373.158 515 M 153.564 517.293 C 153.940 518.279, 154.499 518.834, 154.807 518.526 C 155.115 518.219, 154.808 517.412, 154.124 516.733 C 153.136 515.753, 153.022 515.868, 153.564 517.293 M 420 521.969 C 420 522.501, 420.675 522.678, 421.500 522.362 C 422.325 522.045, 423 521.609, 423 521.393 C 423 521.177, 422.325 521, 421.500 521 C 420.675 521, 420 521.436, 420 521.969 M 496.750 524.577 C 496.337 524.993, 496 526.248, 496 527.367 C 496 528.838, 496.302 529.098, 497.094 528.306 C 497.695 527.705, 498.033 526.449, 497.844 525.517 C 497.655 524.584, 497.163 524.161, 496.750 524.577 M 0.228 568.250 L 0 599 40.250 598.767 L 80.500 598.535 41 598.017 L 1.500 597.500 0.978 567.500 L 0.455 537.500 0.228 568.250 M 274.624 565.539 C 273.659 568.053, 273.943 568.702, 275.122 566.675 C 275.706 565.671, 275.973 564.639, 275.715 564.382 C 275.458 564.124, 274.966 564.645, 274.624 565.539 M 591 591.549 C 560.645 595.330, 550.668 596.084, 519.101 596.984 C 500.181 597.523, 484.469 598.198, 484.184 598.482 C 483.900 598.767, 511.642 599, 545.833 599 L 608 599 608 594.500 C 608 590.065, 607.953 590.002, 604.750 590.121 C 602.962 590.187, 596.775 590.830, 591 591.549" stroke="none" fill="hsl(210, 40%, 96.1%)" fill-rule="evenodd"/>
</svg>