<?xml version="1.0" encoding="UTF-8" standalone="no"?>
<svg
   version="1.0"
   viewBox="0 0 1155.5695 655.4519"
   preserveAspectRatio="xMidYMid"
   id="svg1"
   sodipodi:docname="1.svg"
   width="1155.5695"
   height="655.4519"
   inkscape:version="1.3.2 (091e20e, 2023-11-25)"
   xmlns:inkscape="http://www.inkscape.org/namespaces/inkscape"
   xmlns:sodipodi="http://sodipodi.sourceforge.net/DTD/sodipodi-0.dtd"
   xmlns="http://www.w3.org/2000/svg"
   xmlns:svg="http://www.w3.org/2000/svg">
  <sodipodi:namedview
     id="namedview1"
     pagecolor="#ffffff"
     bordercolor="#000000"
     borderopacity="0.25"
     inkscape:showpageshadow="2"
     inkscape:pageopacity="0.0"
     inkscape:pagecheckerboard="0"
     inkscape:deskcolor="#d1d1d1"
     inkscape:zoom="0.95543048"
     inkscape:cx="536.93074"
     inkscape:cy="535.88409"
     inkscape:window-width="2560"
     inkscape:window-height="1387"
     inkscape:window-x="0"
     inkscape:window-y="25"
     inkscape:window-maximized="1"
     inkscape:current-layer="svg1" />
  <defs
     id="defs2" />
  <g
     transform="matrix(0.1,0,0,-0.1,-138,782.66892)"
     fill="hsl(11.25 88.89% 96.47%)"
     stroke="none"
     id="g2">
    <path
       d="m 1443,7795 c -27,-31 -30,-40 -26,-77 4,-34 15,-52 49,-87 24,-24 44,-47 44,-52 0,-5 18,-20 40,-34 22,-14 54,-41 71,-60 18,-19 38,-35 45,-35 6,0 34,-26 60,-57 27,-31 64,-72 82,-91 18,-19 44,-54 58,-78 14,-24 36,-52 47,-62 12,-9 33,-42 47,-71 14,-30 37,-69 53,-85 15,-17 27,-36 27,-42 0,-7 11,-26 25,-42 14,-17 34,-50 45,-75 11,-24 26,-50 34,-56 8,-7 30,-36 48,-64 18,-29 38,-58 45,-65 7,-7 13,-22 13,-32 0,-10 7,-20 15,-24 23,-8 18,-52 -10,-96 -14,-22 -25,-44 -25,-49 0,-14 -29,-21 -75,-20 -22,1 -62,-6 -88,-15 -26,-9 -55,-16 -64,-16 -22,0 -98,-37 -113,-56 -7,-7 -18,-14 -24,-14 -6,0 -26,-13 -44,-30 -18,-16 -39,-30 -47,-30 -7,0 -17,-10 -21,-22 -4,-13 -19,-39 -34,-58 -21,-26 -31,-55 -40,-115 -7,-44 -12,-87 -11,-95 8,-104 22,-204 29,-209 11,-7 24,-54 42,-146 7,-33 19,-78 27,-100 22,-59 57,-139 63,-145 3,-3 16,-26 30,-52 13,-27 28,-48 32,-48 5,0 8,-4 8,-10 0,-5 21,-41 47,-80 30,-44 53,-70 65,-70 10,0 23,-10 29,-23 14,-31 80,-64 164,-82 79,-17 161,-19 170,-6 3,5 20,13 38,16 71,15 156,66 221,132 36,37 66,71 66,76 0,5 16,28 35,51 24,29 41,67 55,117 11,41 28,99 39,130 11,30 20,75 21,100 2,75 -18,276 -29,297 -6,12 -11,40 -11,64 0,24 -6,52 -13,63 -20,30 -49,129 -42,147 3,8 2,32 -3,54 -12,52 -6,64 29,64 16,0 29,4 29,10 0,12 100,56 118,52 8,-2 21,3 30,11 18,16 45,23 137,38 32,5 64,14 69,19 28,28 115,-18 141,-74 18,-37 18,-51 -1,-436 -10,-208 -10,-207 15,-360 6,-36 13,-91 15,-122 4,-52 45,-176 67,-204 5,-6 16,-34 24,-61 10,-33 23,-54 40,-63 13,-7 27,-20 30,-29 3,-9 16,-28 28,-42 31,-35 163,-61 217,-42 19,6 43,10 52,7 10,-3 21,3 27,15 6,11 24,22 40,26 16,3 41,17 56,31 14,13 33,24 42,24 8,0 33,16 54,35 22,19 43,35 49,35 25,0 275,273 345,377 35,51 57,74 76,78 17,4 33,19 45,42 11,20 30,48 43,62 13,14 39,50 58,78 18,29 41,60 51,70 15,16 64,76 112,137 33,43 197,205 230,227 19,13 55,46 80,73 106,116 176,176 244,211 75,38 125,66 166,95 14,9 36,21 50,25 13,4 30,14 38,21 7,8 19,14 27,14 7,0 26,7 41,15 16,8 37,15 46,15 9,0 18,6 20,13 10,28 382,7 412,-23 6,-6 19,-10 31,-10 69,0 283,-223 346,-360 31,-67 69,-200 69,-240 0,-22 11,-63 25,-92 14,-28 25,-55 25,-60 0,-8 55,-129 88,-193 47,-94 285,-264 397,-285 22,-5 67,-13 100,-20 41,-8 122,-11 255,-7 172,4 204,8 270,30 88,29 130,41 147,42 7,0 18,6 25,13 6,6 20,12 29,12 9,0 22,6 28,14 6,8 22,16 34,19 40,10 97,33 109,45 7,7 18,12 25,12 7,0 36,16 63,35 27,19 53,35 56,35 4,0 22,11 41,26 18,14 48,32 66,40 17,8 66,32 107,54 41,22 82,40 91,40 8,0 19,4 25,8 5,5 32,17 59,27 68,24 213,95 250,121 62,45 183,104 211,104 17,0 39,7 50,15 10,8 31,15 45,15 28,0 76,14 124,35 32,14 146,46 235,65 30,7 90,28 132,46 43,19 82,34 87,34 6,0 25,6 43,14 18,8 80,29 138,47 58,18 112,38 120,44 20,15 154,67 177,69 10,1 38,16 63,35 25,18 56,38 70,43 71,30 88,39 100,53 7,8 17,15 22,15 5,0 21,9 36,19 15,10 52,27 82,37 30,10 83,30 116,46 34,15 67,28 73,28 6,0 28,9 48,20 21,11 54,20 75,20 20,0 39,4 42,8 6,9 24,10 298,17 91,2 175,8 185,13 10,6 44,13 76,17 31,4 60,11 63,16 3,5 15,9 26,9 28,0 83,18 138,45 25,12 58,26 75,30 16,3 49,22 72,41 23,19 46,34 52,34 25,0 94,54 104,81 6,16 17,29 25,29 7,0 25,13 41,29 23,23 29,41 35,92 7,71 1,98 -39,182 -18,39 -39,65 -63,81 -21,13 -48,33 -61,45 -13,11 -31,21 -41,21 -9,0 -21,5 -27,11 -15,15 -77,30 -143,34 -77,6 -130,-16 -166,-68 -25,-36 -28,-51 -27,-107 1,-55 4,-93 12,-132 0,-3 13,-20 27,-37 24,-29 24,-32 10,-53 -9,-12 -16,-30 -16,-39 0,-25 -48,-53 -65,-39 -9,7 -20,8 -32,2 -34,-18 -118,-41 -168,-48 -119,-14 -175,-16 -320,-10 -62,2 -98,-1 -117,-10 -15,-8 -36,-14 -48,-14 -11,0 -20,-4 -20,-9 0,-12 -57,-41 -80,-41 -9,0 -46,-9 -81,-19 -35,-11 -80,-22 -99,-25 -23,-4 -63,-29 -116,-74 -45,-37 -96,-76 -115,-87 -48,-29 -129,-75 -161,-92 -15,-8 -30,-18 -33,-23 -3,-4 -29,-11 -58,-15 -28,-4 -54,-11 -57,-15 -9,-13 -89,-50 -108,-50 -11,0 -25,-7 -32,-15 -7,-8 -19,-15 -28,-15 -9,0 -25,-8 -36,-18 -38,-33 -228,-104 -316,-117 -59,-9 -144,-33 -178,-51 -15,-8 -40,-14 -56,-14 -16,0 -53,-11 -82,-25 -30,-14 -75,-30 -101,-35 -27,-5 -83,-23 -126,-40 -43,-16 -84,-30 -91,-30 -8,0 -33,-11 -57,-24 -24,-14 -62,-29 -84,-35 -64,-16 -119,-38 -123,-50 -2,-6 -13,-11 -25,-11 -22,0 -38,-7 -112,-50 -49,-28 -89,-49 -179,-91 -38,-18 -78,-41 -88,-51 -10,-10 -29,-23 -41,-29 -12,-5 -38,-19 -57,-30 -19,-12 -95,-46 -170,-76 -74,-30 -147,-61 -162,-69 -15,-8 -39,-14 -53,-14 -15,0 -36,-5 -47,-11 -97,-52 -494,-54 -534,-3 -6,8 -15,14 -20,14 -5,0 -36,11 -69,24 -44,19 -75,41 -121,90 -53,57 -77,90 -133,186 -19,34 -51,112 -51,126 0,8 -9,33 -21,56 -12,23 -27,62 -35,88 -8,26 -21,53 -29,60 -8,7 -15,21 -15,30 0,47 -71,167 -151,255 -130,144 -205,195 -334,233 -11,3 -29,11 -40,18 -18,12 -167,37 -205,34 -183,-11 -230,-19 -320,-52 -96,-36 -163,-64 -190,-79 -8,-4 -55,-30 -105,-58 -49,-27 -106,-65 -124,-85 -19,-20 -38,-36 -42,-36 -4,0 -29,-21 -55,-46 -27,-26 -65,-57 -85,-69 -34,-22 -91,-75 -136,-125 -11,-14 -40,-43 -62,-64 -23,-22 -41,-43 -41,-47 0,-12 -54,-69 -65,-69 -6,0 -28,-25 -50,-55 -22,-30 -47,-57 -55,-60 -25,-8 -117,-101 -145,-146 -39,-63 -72,-108 -96,-132 -16,-15 -29,-34 -29,-43 0,-20 -35,-66 -113,-145 -34,-36 -91,-97 -126,-137 -35,-40 -75,-75 -88,-78 -13,-4 -32,-18 -43,-31 -21,-27 -81,-63 -103,-63 -8,0 -33,-13 -55,-30 -36,-26 -51,-30 -104,-30 -55,0 -68,5 -108,34 -50,36 -100,119 -100,164 0,15 -7,38 -16,50 -10,15 -17,50 -19,97 -2,40 -8,82 -14,94 -15,27 -14,217 1,244 7,12 15,54 19,92 23,223 48,365 73,414 7,14 17,48 21,76 4,31 17,63 35,85 15,19 31,46 35,60 13,41 72,122 153,207 17,19 32,42 32,51 0,10 6,28 13,43 8,14 17,49 20,78 4,30 13,61 22,71 13,14 15,44 14,161 -1,140 -1,144 -26,167 -16,15 -43,25 -74,29 -45,5 -49,4 -58,-20 -5,-14 -13,-26 -18,-28 -4,-2 -28,-33 -53,-69 -24,-36 -57,-78 -72,-95 -26,-29 -43,-57 -68,-120 -7,-16 -18,-43 -26,-60 -7,-16 -16,-43 -20,-60 -4,-16 -10,-34 -14,-40 -4,-5 -13,-28 -20,-50 -7,-22 -21,-53 -31,-70 -11,-16 -19,-36 -19,-44 0,-25 -125,-138 -166,-151 -22,-6 -63,-22 -91,-36 -29,-13 -59,-21 -67,-18 -8,3 -27,-1 -43,-9 -15,-8 -68,-22 -118,-32 -49,-10 -92,-22 -95,-26 -3,-5 -33,-10 -65,-13 -33,-3 -87,-8 -121,-12 -50,-5 -67,-3 -101,15 -56,28 -100,70 -108,104 -4,15 -10,27 -14,27 -3,0 -17,23 -30,50 -13,28 -27,50 -31,50 -5,0 -13,12 -19,28 -19,46 -45,86 -73,113 -16,14 -28,33 -28,42 0,9 -5,19 -10,22 -6,4 -17,22 -25,41 -9,23 -21,34 -35,34 -15,0 -22,8 -26,30 -4,17 -11,30 -16,30 -5,0 -14,13 -19,30 -6,16 -19,32 -28,35 -10,3 -33,33 -51,68 -18,34 -40,70 -50,79 -10,9 -32,46 -50,82 -17,36 -38,66 -45,66 -7,0 -28,17 -48,39 -19,21 -47,43 -62,48 -17,5 -36,26 -54,58 -20,37 -32,49 -47,48 -15,-2 -28,11 -50,47 -29,51 -45,60 -130,75 -24,5 -34,0 -61,-30 z m 982,-1555 c 3,-5 16,-10 27,-10 31,0 85,-45 104,-88 27,-61 49,-113 79,-187 16,-38 32,-72 36,-75 19,-13 8,-310 -12,-310 -4,0 -11,-15 -14,-32 -4,-18 -14,-40 -22,-48 -34,-36 -93,-125 -93,-141 0,-11 -12,-19 -37,-24 -21,-4 -51,-16 -67,-28 -21,-15 -50,-23 -93,-25 -74,-5 -133,19 -200,80 -24,21 -49,38 -58,38 -8,0 -30,30 -50,70 -19,39 -40,70 -45,70 -6,0 -10,11 -10,23 0,13 -10,50 -21,83 -12,32 -25,86 -30,119 -4,33 -11,82 -15,108 -7,49 11,153 28,163 4,3 8,14 8,25 0,10 3,19 8,19 4,0 21,14 39,30 18,17 38,30 45,30 8,0 23,6 34,14 12,9 26,11 34,6 10,-6 21,-1 37,16 12,14 33,24 48,24 15,0 33,7 41,15 9,8 30,15 47,16 46,1 68,6 80,18 14,14 64,14 72,1 z"
       id="path1" />
    <path
       d="m 4355,2520 c -11,-5 -33,-9 -48,-9 -15,-1 -30,-7 -33,-14 -3,-9 -21,-14 -47,-14 -60,1 -189,-65 -248,-125 -25,-27 -52,-48 -61,-48 -9,0 -21,-7 -28,-15 -6,-8 -20,-17 -31,-20 -10,-4 -32,-19 -48,-36 -16,-16 -36,-29 -45,-29 -25,0 -66,-22 -66,-37 0,-7 -8,-13 -17,-13 -10,0 -31,-9 -48,-20 -20,-13 -47,-20 -80,-20 -29,0 -60,-7 -73,-15 -33,-24 -325,-25 -367,-2 -16,9 -49,19 -72,23 -24,3 -45,10 -48,14 -3,5 -24,11 -48,15 -23,4 -73,17 -112,30 -183,60 -455,63 -560,6 -24,-13 -54,-21 -75,-20 -47,3 -76,-12 -143,-77 -37,-36 -92,-62 -119,-57 -16,3 -45,-6 -81,-26 -32,-17 -66,-31 -78,-31 -11,0 -22,-7 -25,-15 -4,-8 -12,-15 -18,-15 -21,0 -79,-49 -92,-77 -7,-16 -45,-62 -83,-103 -39,-41 -71,-80 -71,-86 0,-6 -12,-24 -26,-40 -51,-58 -84,-126 -84,-176 0,-41 5,-52 42,-92 l 41,-46 h 72 c 59,0 75,4 90,20 10,11 25,20 34,20 27,0 92,117 98,178 6,50 9,56 71,110 36,31 74,68 86,81 12,13 54,57 94,98 64,63 79,73 109,73 19,0 57,11 84,25 61,30 155,41 349,38 102,-1 159,-6 190,-17 25,-9 60,-16 79,-16 33,0 217,-59 269,-86 15,-8 48,-14 73,-14 26,0 60,-7 75,-15 16,-8 45,-15 64,-15 57,0 270,40 330,62 30,11 77,27 104,35 26,8 57,24 68,35 11,11 35,26 54,34 18,8 43,28 56,44 12,17 30,30 41,30 21,0 63,30 104,73 15,15 33,27 42,27 9,0 30,9 46,20 17,11 41,20 54,20 14,0 33,8 44,18 13,12 39,18 86,19 36,1 66,3 66,3 0,8 95,8 100,1 3,-6 19,-11 34,-11 15,0 32,-5 38,-11 6,-6 35,-13 64,-15 29,-3 60,-11 68,-18 16,-13 104,-56 116,-56 4,0 21,-10 38,-23 18,-13 57,-29 87,-36 74,-17 178,-50 213,-67 16,-8 43,-14 62,-14 18,0 38,-6 44,-14 7,-8 38,-18 69,-21 31,-3 68,-12 82,-20 26,-14 265,-39 324,-34 19,2 38,0 42,-4 4,-4 18,-7 32,-7 20,0 113,-42 182,-81 8,-5 22,-12 30,-16 8,-4 20,-11 25,-15 6,-5 21,-17 34,-28 13,-11 28,-20 32,-20 4,0 14,-6 21,-12 20,-19 95,-58 110,-58 7,0 26,-14 42,-30 23,-23 38,-30 69,-30 27,0 50,-8 71,-24 36,-27 89,-37 203,-38 64,-1 87,3 101,15 10,10 24,17 30,17 7,0 12,4 12,8 0,5 29,23 65,41 36,17 65,36 65,41 0,4 35,34 78,66 42,32 102,83 132,113 55,56 95,81 128,81 9,0 30,7 46,15 41,22 137,20 167,-4 60,-47 99,-91 99,-112 0,-19 26,-88 65,-174 8,-16 17,-42 21,-57 3,-16 10,-28 15,-28 5,0 14,-10 20,-23 6,-13 27,-32 47,-43 20,-10 44,-25 53,-32 24,-20 150,-62 187,-62 17,0 32,-4 32,-9 0,-4 11,-6 25,-3 14,2 31,0 38,-5 6,-5 48,-10 92,-11 44,-2 96,-7 115,-11 19,-5 65,-9 102,-10 37,0 84,-7 104,-16 21,-9 44,-13 51,-10 8,2 21,1 31,-4 22,-12 208,-32 352,-38 119,-5 270,13 355,43 23,8 46,14 53,14 12,0 111,64 122,79 3,3 16,12 30,19 36,18 61,34 100,62 48,34 67,45 130,77 30,15 59,33 63,40 4,7 21,13 36,13 17,0 34,8 42,20 8,11 28,21 44,23 17,2 41,11 55,20 14,9 66,28 115,43 85,25 103,27 335,29 135,1 274,-2 310,-7 36,-5 79,-11 95,-13 17,-2 64,-8 105,-14 41,-6 104,-10 140,-11 36,0 87,-7 114,-15 27,-8 61,-15 76,-15 15,0 44,-12 65,-26 27,-18 45,-24 62,-19 14,3 31,1 39,-6 7,-6 41,-11 75,-10 47,0 60,-2 56,-13 -4,-10 8,-15 45,-19 28,-4 57,-12 66,-19 8,-7 49,-16 91,-20 42,-4 128,-12 191,-18 161,-16 431,-8 490,14 51,20 116,52 180,88 8,4 26,13 40,18 56,23 77,38 144,105 89,89 117,127 134,179 19,57 42,174 37,189 -2,7 -6,24 -9,40 -5,22 -12,27 -35,27 -28,0 -61,-22 -61,-40 0,-5 -6,-15 -12,-22 -22,-22 -48,-87 -48,-118 0,-20 -14,-46 -42,-81 -39,-48 -121,-117 -141,-118 -5,-1 -15,-8 -23,-16 -8,-8 -20,-12 -27,-9 -7,2 -32,-2 -56,-11 -63,-22 -297,-34 -396,-20 -16,2 -77,7 -135,11 -99,6 -160,20 -160,36 0,5 -14,8 -32,8 -46,0 -161,21 -172,31 -6,5 -21,9 -35,9 -14,0 -43,6 -66,14 -87,31 -182,56 -208,56 -16,0 -38,5 -49,11 -12,7 -47,15 -77,20 -96,14 -316,62 -321,70 -8,12 -305,26 -485,23 -105,-1 -165,-7 -200,-18 -27,-9 -66,-16 -85,-16 -42,0 -190,-43 -242,-70 -20,-11 -44,-20 -53,-20 -8,0 -46,-15 -83,-34 -37,-19 -79,-37 -93,-40 -14,-3 -37,-16 -50,-30 -13,-13 -43,-29 -66,-36 -24,-7 -49,-23 -58,-36 -8,-12 -27,-25 -43,-29 -32,-7 -163,-71 -171,-83 -3,-5 -38,-19 -78,-30 -54,-17 -97,-22 -180,-22 -112,0 -229,14 -248,30 -18,15 -254,49 -390,56 -74,4 -190,20 -215,30 -8,3 -38,9 -67,14 -76,13 -201,78 -220,115 -9,16 -26,44 -39,60 -12,17 -28,41 -33,55 -17,39 -64,116 -83,137 -10,11 -18,23 -18,27 0,18 -117,115 -152,126 -55,16 -203,14 -236,-3 -15,-8 -40,-22 -57,-31 -16,-9 -39,-16 -49,-16 -11,0 -27,-6 -35,-14 -23,-20 -205,-142 -238,-160 -15,-8 -46,-32 -68,-54 -57,-57 -138,-92 -210,-92 -63,0 -131,16 -156,37 -8,7 -27,13 -41,13 -14,0 -31,7 -38,15 -7,8 -19,15 -26,15 -16,0 -174,76 -188,91 -6,5 -16,9 -24,9 -7,0 -37,11 -65,24 -95,43 -128,56 -141,56 -8,0 -19,7 -26,15 -7,9 -29,15 -55,15 -23,0 -62,7 -85,15 -23,8 -65,15 -92,15 -27,0 -59,5 -70,11 -12,6 -73,24 -137,39 -170,41 -274,72 -336,99 -11,5 -45,21 -75,34 -58,26 -196,74 -295,102 -33,9 -73,23 -90,30 -17,8 -76,16 -135,18 -58,3 -112,7 -120,10 -8,3 -24,2 -35,-3 z"
       id="path2" />
  </g>
</svg>
