<?xml version="1.0" encoding="UTF-8" standalone="no"?>
<svg
   version="1.0"
   viewBox="0 0 1492.869 733.66656"
   preserveAspectRatio="xMidYMid"
   id="svg5"
   sodipodi:docname="2.svg"
   width="1492.869"
   height="733.66656"
   inkscape:version="1.3.2 (091e20e, 2023-11-25)"
   xmlns:inkscape="http://www.inkscape.org/namespaces/inkscape"
   xmlns:sodipodi="http://sodipodi.sourceforge.net/DTD/sodipodi-0.dtd"
   xmlns="http://www.w3.org/2000/svg"
   xmlns:svg="http://www.w3.org/2000/svg">
  <defs
     id="defs5" />
  <sodipodi:namedview
     id="namedview5"
     pagecolor="#ffffff"
     bordercolor="#000000"
     borderopacity="0.25"
     inkscape:showpageshadow="2"
     inkscape:pageopacity="0.0"
     inkscape:pagecheckerboard="0"
     inkscape:deskcolor="#d1d1d1"
     inkscape:zoom="0.24789916"
     inkscape:cx="778.54237"
     inkscape:cy="419.52542"
     inkscape:window-width="2560"
     inkscape:window-height="1387"
     inkscape:window-x="0"
     inkscape:window-y="25"
     inkscape:window-maximized="1"
     inkscape:current-layer="svg5" />
  <g
     transform="matrix(0.1,0,0,-0.1,-74.140968,897.10373)"
     fill="hsl(11.25 88.89% 96.47%)"
     stroke="none"
     id="g5">
    <path
       d="m 15546,8955 c -3,-8 -12,-15 -21,-15 -8,0 -15,-4 -15,-9 0,-5 -11,-12 -25,-15 -14,-4 -25,-11 -25,-16 0,-6 -6,-10 -14,-10 -10,0 -17,-16 -22,-45 -5,-39 -10,-45 -30,-45 -13,0 -24,-6 -24,-13 0,-17 -34,-45 -65,-53 -14,-3 -25,-10 -25,-15 0,-5 -7,-9 -15,-9 -8,0 -15,-7 -15,-15 0,-10 -10,-15 -30,-15 -18,0 -33,-6 -36,-15 -4,-9 -19,-15 -35,-15 -19,0 -29,-5 -29,-15 0,-8 -4,-15 -10,-15 -5,0 -10,-7 -10,-15 0,-8 -7,-15 -15,-15 -8,0 -15,5 -15,11 0,6 -7,3 -16,-5 -8,-9 -24,-16 -35,-16 -10,0 -19,-4 -19,-10 0,-5 -10,-10 -22,-10 -12,0 -37,-17 -58,-39 -20,-21 -47,-42 -60,-46 -14,-4 -35,-18 -47,-31 -23,-25 -93,-35 -93,-14 0,18 -20,11 -44,-15 -20,-21 -32,-25 -80,-25 -40,0 -58,-4 -62,-14 -3,-8 -19,-18 -35,-21 -16,-4 -29,-11 -29,-16 0,-5 -13,-9 -30,-9 -19,0 -30,-5 -30,-14 0,-14 -60,-26 -130,-26 -31,0 -39,-4 -44,-24 -6,-23 -30,-36 -70,-36 -10,0 -30,-12 -44,-27 -16,-18 -27,-23 -30,-15 -4,14 -42,16 -42,2 0,-5 -20,-10 -44,-10 -26,0 -51,-6 -60,-15 -17,-17 -36,-20 -36,-5 0,16 -57,12 -64,-5 -4,-11 -20,-15 -55,-15 -27,0 -51,-5 -53,-11 -2,-5 -22,-13 -46,-16 -26,-3 -42,-11 -42,-19 0,-9 -11,-14 -29,-14 -16,0 -31,-5 -33,-11 -2,-5 -22,-13 -46,-16 -23,-3 -42,-9 -42,-13 0,-4 -16,-11 -35,-14 -19,-4 -35,-11 -35,-16 0,-6 -18,-13 -40,-16 -31,-5 -42,-12 -46,-30 -5,-19 -15,-24 -60,-30 -30,-3 -54,-10 -54,-15 0,-5 -7,-9 -15,-9 -9,0 -18,-7 -21,-15 -4,-8 -24,-18 -45,-21 -23,-4 -39,-12 -39,-20 0,-8 -7,-14 -15,-14 -8,0 -15,-7 -15,-15 0,-8 -9,-15 -20,-15 -11,0 -20,-4 -20,-9 0,-5 -25,-13 -55,-16 -30,-4 -55,-11 -55,-16 0,-5 -14,-9 -30,-9 -18,0 -33,-6 -36,-15 -4,-8 -24,-18 -45,-21 -21,-4 -39,-10 -39,-15 0,-14 -33,-49 -47,-49 -7,0 -13,-4 -13,-10 0,-5 -7,-10 -15,-10 -8,0 -23,-9 -32,-20 -10,-11 -23,-20 -30,-20 -7,0 -13,-4 -13,-10 0,-15 -33,-50 -47,-50 -7,0 -13,-4 -13,-9 0,-5 -12,-12 -27,-16 -15,-3 -37,-17 -49,-30 -12,-13 -34,-27 -48,-31 -17,-4 -26,-13 -26,-25 0,-10 -4,-19 -10,-19 -5,0 -10,-7 -10,-15 0,-8 -5,-15 -11,-15 -13,0 -59,-41 -59,-52 0,-14 -34,-48 -47,-48 -7,0 -13,-4 -13,-10 0,-5 -7,-10 -15,-10 -8,0 -15,-7 -15,-15 0,-8 -6,-15 -14,-15 -8,0 -28,-13 -44,-30 -17,-17 -34,-30 -39,-30 -14,0 -42,-37 -49,-64 -3,-14 -15,-27 -29,-30 -13,-3 -27,-16 -31,-28 -4,-12 -20,-33 -35,-47 -16,-14 -29,-31 -29,-38 0,-7 -7,-13 -15,-13 -8,0 -15,-7 -15,-15 0,-8 -4,-15 -10,-15 -5,0 -13,-12 -16,-27 -4,-16 -17,-37 -29,-49 -13,-11 -26,-30 -29,-42 -4,-11 -13,-23 -21,-26 -8,-3 -15,-12 -15,-21 0,-8 -4,-15 -10,-15 -5,0 -10,-6 -10,-14 0,-8 -20,-35 -45,-59 -25,-25 -45,-50 -45,-56 0,-16 -138,-14 -154,2 -7,7 -15,32 -19,56 -3,24 -10,47 -16,50 -5,4 -13,30 -17,59 -3,28 -10,52 -15,52 -5,0 -9,7 -9,15 0,9 -6,18 -14,21 -8,3 -18,19 -21,35 -4,16 -11,29 -16,29 -5,0 -9,13 -9,29 0,16 -7,36 -15,45 -8,8 -15,21 -15,30 0,8 -13,27 -29,43 -16,16 -32,43 -36,61 -3,18 -10,32 -15,32 -4,0 -11,12 -14,26 -4,15 -20,40 -37,56 -16,16 -29,36 -29,44 0,8 -4,14 -10,14 -5,0 -10,9 -10,20 0,11 -5,20 -10,20 -6,0 -27,18 -48,40 -54,58 -62,68 -62,80 0,5 -7,10 -15,10 -8,0 -15,7 -15,15 0,9 -8,19 -17,22 -23,9 -73,58 -73,72 0,6 -5,11 -11,11 -7,0 -27,16 -46,35 -19,19 -41,35 -50,35 -8,0 -33,18 -54,40 -21,22 -50,42 -64,46 -14,3 -25,10 -25,15 0,5 -7,9 -15,9 -8,0 -23,9 -32,20 -10,11 -28,20 -40,20 -13,0 -23,4 -23,9 0,5 -11,12 -25,15 -14,4 -25,11 -25,16 0,6 -7,10 -15,10 -9,0 -18,7 -21,15 -4,8 -12,15 -19,15 -8,0 -27,13 -43,30 -21,20 -32,26 -36,17 -5,-9 -7,-9 -12,1 -3,6 -14,12 -24,12 -10,0 -26,7 -34,16 -11,10 -36,16 -72,17 -31,1 -51,3 -45,5 27,9 7,22 -34,22 -25,0 -45,-4 -45,-10 0,-13 -27,-13 -32,0 -2,5 -65,10 -141,12 -122,2 -140,0 -148,-15 -6,-10 -22,-17 -39,-17 -20,0 -30,-5 -30,-15 0,-8 -5,-15 -11,-15 -13,0 -69,-55 -69,-67 0,-5 -13,-20 -29,-34 -15,-14 -32,-36 -36,-49 -4,-14 -13,-28 -19,-32 -6,-4 -13,-45 -15,-93 -1,-47 -7,-85 -12,-85 -5,0 -9,-18 -9,-40 0,-22 -4,-40 -9,-40 -5,0 -12,-38 -16,-85 -4,-47 -10,-85 -15,-85 -4,0 -11,-69 -15,-152 -4,-84 -11,-155 -15,-158 -4,-3 -10,-22 -14,-43 -5,-29 -3,-39 9,-43 20,-8 20,-54 0,-54 -11,0 -15,-12 -15,-50 0,-27 -4,-50 -9,-50 -5,0 -12,-65 -16,-144 -5,-110 -10,-146 -21,-150 -8,-3 -14,-12 -14,-21 0,-8 -4,-15 -9,-15 -5,0 -13,-10 -17,-22 -9,-31 -22,-38 -71,-38 -24,0 -43,-4 -43,-10 0,-15 -127,-13 -132,2 -2,6 -32,13 -69,16 -35,3 -67,9 -70,15 -4,5 -31,12 -60,15 -39,4 -55,1 -63,-10 -7,-9 -37,-17 -76,-21 -36,-4 -66,-12 -68,-17 -2,-6 -43,-10 -93,-10 -70,0 -91,-3 -95,-15 -4,-8 -15,-15 -25,-15 -10,0 -19,-4 -19,-9 0,-5 -12,-12 -27,-16 -15,-3 -31,-11 -34,-17 -4,-6 -27,-13 -53,-15 -25,-3 -46,-10 -46,-14 0,-5 -11,-9 -25,-9 -14,0 -25,6 -25,13 0,9 -2,9 -9,-1 -4,-8 -27,-16 -50,-19 -25,-4 -41,-11 -41,-19 0,-8 -11,-14 -25,-14 -14,0 -25,-4 -25,-10 0,-15 -57,-12 -63,3 -4,9 -6,9 -6,0 -1,-7 -8,-13 -16,-13 -8,0 -15,-6 -15,-14 0,-9 -18,-15 -57,-18 -31,-3 -59,-10 -61,-16 -2,-7 -10,-12 -18,-12 -7,0 -11,-6 -8,-14 4,-10 -12,-14 -71,-18 -43,-3 -80,-10 -84,-15 -3,-6 -42,-13 -86,-16 -44,-3 -81,-11 -83,-16 -5,-15 -39,-14 -46,2 -5,10 -7,10 -12,0 -3,-7 -23,-13 -45,-13 -26,0 -42,-5 -45,-15 -7,-17 -50,-21 -56,-5 -5,17 -407,17 -418,1 -6,-11 -9,-11 -13,0 -4,11 -8,10 -19,-5 -12,-16 -26,-18 -104,-15 -82,4 -93,6 -115,30 -13,14 -32,28 -41,32 -12,4 -18,17 -18,37 0,16 -4,30 -10,30 -5,0 -10,13 -10,29 0,16 -7,36 -15,45 -8,8 -15,28 -15,45 0,16 -6,36 -13,43 -8,7 -17,31 -21,53 -4,22 -13,43 -19,47 -9,6 -8,11 3,18 10,6 11,10 3,10 -7,0 -13,7 -13,15 0,8 -6,15 -14,15 -15,0 -26,21 -26,51 0,11 -11,30 -25,43 -14,13 -28,37 -31,55 -4,17 -10,31 -14,31 -4,0 -11,11 -14,24 -3,14 -15,28 -26,31 -11,3 -23,17 -26,30 -3,13 -12,26 -20,29 -8,3 -14,12 -14,21 0,8 -7,15 -15,15 -8,0 -15,5 -15,10 0,15 -64,80 -79,80 -6,0 -11,5 -11,11 0,16 -26,39 -44,39 -9,0 -24,9 -33,20 -10,11 -23,20 -30,20 -7,0 -13,4 -13,9 0,5 -11,12 -24,15 -14,3 -28,15 -31,27 -8,24 -40,59 -54,59 -5,0 -23,14 -39,30 -17,17 -35,30 -42,30 -6,0 -13,7 -16,15 -3,8 -15,17 -27,21 -12,4 -32,20 -46,35 -14,16 -31,29 -38,29 -7,0 -13,7 -13,15 0,8 -7,15 -15,15 -8,0 -15,4 -15,9 0,5 -14,12 -30,16 -17,4 -30,10 -30,15 0,4 -11,11 -24,14 -17,4 -26,15 -31,37 -6,26 -10,30 -30,25 -31,-8 -55,2 -55,23 0,9 -9,24 -20,34 -22,18 -70,23 -70,7 0,-5 -7,-10 -15,-10 -14,0 -19,11 -16,38 1,6 -7,12 -18,12 -11,0 -26,7 -35,15 -9,9 -34,15 -65,15 -42,0 -51,3 -51,18 0,9 -5,24 -10,32 -9,13 -12,13 -21,-3 -13,-22 -43,-15 -73,18 -17,18 -35,23 -95,27 -45,3 -76,11 -81,19 -10,15 -169,17 -179,2 -3,-6 -34,-13 -69,-17 -53,-6 -67,-12 -97,-42 -19,-19 -35,-39 -35,-44 0,-4 -20,-28 -44,-53 -25,-24 -48,-56 -52,-71 -3,-14 -10,-26 -15,-26 -5,0 -12,-18 -15,-40 -4,-22 -10,-40 -15,-40 -5,0 -9,-7 -9,-15 0,-7 -6,-18 -13,-22 -8,-4 -17,-26 -20,-47 -4,-22 -10,-42 -15,-45 -5,-3 -12,-16 -16,-28 -4,-13 -12,-23 -17,-23 -5,0 -9,-7 -9,-15 0,-9 -6,-18 -14,-21 -8,-3 -17,-16 -20,-29 -3,-13 -14,-26 -25,-30 -12,-4 -21,-19 -25,-47 -4,-24 -11,-45 -16,-48 -15,-9 -17,-313 -2,-317 7,-3 12,-22 12,-49 0,-40 -2,-44 -25,-44 -14,0 -25,5 -25,10 0,6 -9,10 -19,10 -11,0 -27,7 -35,16 -9,8 -16,11 -16,5 0,-6 -18,-11 -40,-11 -34,0 -41,4 -46,25 -4,15 -16,28 -30,31 -13,3 -24,11 -24,18 0,6 -4,5 -9,-3 -7,-11 -14,-9 -34,12 -13,15 -28,27 -33,27 -5,0 -17,9 -27,20 -9,11 -23,20 -31,20 -8,0 -16,7 -20,15 -3,8 -17,15 -30,15 -19,0 -27,7 -32,25 -3,14 -12,25 -20,25 -8,0 -14,6 -14,14 0,8 -16,16 -39,20 -21,3 -41,13 -45,21 -4,11 -15,13 -49,9 -37,-5 -47,-3 -65,16 -17,19 -27,21 -57,16 -32,-6 -37,-4 -42,13 -3,12 -10,21 -16,21 -5,0 -20,11 -32,24 -12,13 -32,27 -43,31 -12,3 -22,10 -22,14 0,5 -13,11 -30,14 -16,4 -30,12 -30,19 0,9 -17,13 -55,13 -39,0 -59,5 -65,15 -9,13 -11,13 -20,0 -6,-10 -10,-11 -10,-3 0,7 -18,16 -40,19 -31,5 -42,12 -46,29 -5,19 -15,24 -60,30 -30,3 -54,10 -54,15 0,4 -16,11 -35,14 -19,4 -35,11 -35,15 0,5 -18,11 -41,15 -23,4 -48,13 -56,21 -9,10 -35,15 -74,15 -40,0 -65,5 -75,15 -9,8 -28,15 -44,15 -16,0 -31,6 -33,13 -4,9 -6,9 -6,0 -1,-20 -22,-15 -47,12 -23,25 -64,34 -64,15 0,-5 -20,-10 -45,-10 -33,0 -45,4 -45,15 0,10 -10,15 -30,15 -16,0 -30,4 -30,9 0,5 -44,10 -99,13 -76,3 -102,8 -115,21 -10,9 -33,17 -52,17 -19,0 -34,4 -34,9 0,5 -25,12 -55,16 -30,3 -55,11 -55,16 0,5 -27,9 -60,9 -33,0 -60,4 -60,9 0,4 -21,11 -47,14 -26,3 -49,10 -51,16 -5,14 -52,14 -52,0 0,-6 -14,3 -31,20 -17,17 -37,31 -45,31 -8,0 -14,5 -14,10 0,23 -56,8 -80,-20 -13,-17 -28,-30 -33,-30 -5,0 -25,-17 -45,-37 l -35,-37 7,-101 c 3,-55 11,-101 16,-103 6,-2 10,-10 10,-17 0,-8 7,-18 16,-23 20,-11 25,-103 7,-109 -9,-3 -13,-31 -13,-93 0,-61 4,-90 13,-93 9,-4 9,-6 0,-6 -20,-1 -18,-137 2,-145 12,-4 15,-30 15,-141 0,-74 4,-135 9,-135 5,0 11,-34 13,-76 2,-47 8,-78 16,-83 8,-4 16,-27 19,-50 3,-22 10,-41 14,-41 5,0 9,-7 9,-15 0,-7 7,-18 17,-23 11,-7 18,-27 21,-66 2,-31 8,-56 12,-56 4,0 11,-11 14,-25 4,-14 11,-25 16,-25 5,0 12,-16 16,-35 3,-19 10,-35 15,-35 5,0 9,-7 9,-15 0,-8 6,-15 14,-15 8,0 17,-14 21,-30 4,-17 10,-30 15,-30 4,0 11,-12 15,-27 3,-15 11,-31 17,-34 5,-3 12,-25 15,-48 3,-22 10,-41 14,-41 5,0 9,-7 9,-15 0,-8 -4,-15 -10,-15 -5,0 -10,-20 -10,-45 0,-25 4,-45 9,-45 5,0 12,-11 15,-25 4,-15 16,-27 30,-31 25,-6 43,-45 30,-65 -3,-6 -3,-26 0,-45 6,-28 11,-34 31,-34 h 25 l 1,123 c 3,209 -2,281 -17,290 -9,5 -14,25 -14,52 0,24 -4,45 -10,47 -5,2 -12,35 -16,73 -4,39 -11,73 -16,76 -4,3 -11,35 -15,72 -5,56 -9,68 -27,73 -27,9 -36,22 -36,57 0,15 -4,27 -9,27 -4,0 -11,39 -14,87 -4,47 -10,89 -15,92 -5,3 -13,17 -17,31 -4,14 -13,28 -18,32 -6,4 -13,39 -15,77 -2,39 -8,71 -13,71 -5,0 -9,92 -9,205 0,118 4,205 9,205 5,0 12,14 16,30 4,17 11,30 16,30 5,0 9,7 9,15 0,12 18,15 104,15 57,0 106,-4 108,-9 1,-6 56,-13 121,-17 64,-4 117,-11 117,-15 0,-5 14,-9 30,-9 17,0 30,5 30,13 0,9 2,9 9,-1 5,-9 38,-16 90,-19 44,-3 81,-9 81,-13 0,-4 19,-10 42,-13 24,-3 44,-11 46,-16 5,-15 29,-14 35,2 4,8 8,9 14,1 4,-6 46,-14 93,-17 46,-3 86,-10 88,-16 2,-6 19,-13 38,-17 19,-3 34,-10 34,-15 0,-5 11,-9 25,-9 14,0 28,-7 31,-15 4,-8 12,-15 20,-15 7,0 22,-10 33,-21 16,-17 27,-20 55,-15 20,4 36,12 36,17 0,14 24,-12 33,-35 6,-15 14,-17 51,-12 31,5 48,3 57,-7 8,-7 27,-17 42,-21 15,-3 27,-11 27,-16 0,-6 19,-10 43,-10 30,0 48,-6 60,-20 9,-11 26,-20 37,-20 12,0 31,-11 44,-25 13,-14 37,-28 55,-31 17,-4 31,-10 31,-14 0,-5 13,-11 30,-15 16,-4 30,-10 30,-15 0,-4 11,-11 25,-14 14,-4 25,-13 25,-21 0,-10 11,-15 35,-15 19,0 35,-4 35,-10 0,-5 7,-10 15,-10 8,0 15,-7 15,-15 0,-8 7,-15 15,-15 8,0 15,5 15,10 0,23 26,6 91,-60 38,-38 74,-70 79,-70 6,0 10,-7 10,-15 0,-8 5,-15 10,-15 6,0 10,-7 10,-15 0,-8 7,-15 15,-15 8,0 15,5 15,10 0,16 27,12 34,-5 3,-8 17,-15 31,-15 14,0 25,-4 25,-10 0,-5 5,-10 10,-10 6,0 21,-11 33,-24 12,-13 33,-27 46,-31 28,-9 71,-52 71,-71 0,-9 11,-14 29,-14 28,0 81,-39 81,-60 0,-5 7,-10 15,-10 8,0 17,-11 21,-24 3,-14 12,-27 20,-30 8,-3 14,-12 14,-21 0,-8 9,-15 20,-15 15,0 22,-9 27,-30 3,-16 9,-30 14,-30 4,0 11,-10 14,-22 4,-11 17,-31 29,-42 13,-12 25,-29 29,-38 3,-10 11,-18 17,-18 13,0 70,-54 70,-67 0,-4 11,-18 24,-30 24,-23 76,-32 76,-13 0,15 35,47 60,55 46,15 60,35 53,82 -5,34 -3,43 10,43 8,0 18,11 21,24 7,27 -1,56 -15,56 -5,0 -9,12 -9,28 0,15 -9,35 -20,45 -11,9 -20,24 -20,32 0,8 -4,15 -9,15 -5,0 -12,12 -16,27 -3,15 -11,31 -17,34 -5,3 -12,25 -15,48 -3,25 -11,41 -19,41 -10,0 -12,11 -7,45 5,36 3,45 -9,45 -17,0 -28,47 -28,122 0,25 -5,48 -11,50 -15,5 -16,301 0,306 6,2 11,24 11,48 0,32 6,49 20,61 11,10 20,28 20,40 0,13 5,23 10,23 6,0 10,9 10,19 0,11 6,26 13,33 7,7 16,21 20,31 3,9 11,17 16,17 5,0 12,11 15,25 4,14 13,25 21,25 10,0 15,10 15,29 0,16 6,31 15,35 8,3 15,12 15,21 0,8 5,15 11,15 7,0 23,12 37,27 24,26 30,28 119,28 56,0 97,-5 101,-11 4,-6 24,-14 45,-17 20,-3 44,-13 53,-21 20,-20 43,-20 50,-1 7,17 34,21 34,5 0,-5 7,-10 15,-10 8,0 15,-6 15,-14 0,-8 16,-16 42,-19 24,-3 44,-11 46,-16 2,-6 12,-11 23,-11 10,0 19,-7 19,-15 0,-8 7,-15 15,-15 9,0 18,-7 21,-15 4,-10 20,-15 49,-15 34,0 49,-6 72,-28 15,-16 40,-32 55,-35 18,-5 30,-16 34,-31 3,-15 16,-27 31,-31 28,-7 53,-28 53,-44 0,-6 12,-11 28,-11 18,0 36,-10 53,-29 14,-15 36,-32 49,-36 13,-4 37,-21 53,-36 16,-16 33,-29 38,-29 5,0 26,-18 48,-40 26,-27 47,-40 65,-40 14,0 26,-5 26,-12 0,-6 20,-31 45,-55 25,-23 45,-47 45,-53 0,-5 7,-10 15,-10 8,0 15,-7 15,-15 0,-8 5,-15 10,-15 15,0 47,-35 55,-59 3,-12 10,-21 15,-21 5,0 12,-16 16,-35 3,-19 10,-35 14,-35 4,0 11,-11 14,-25 4,-14 11,-25 16,-25 6,0 10,-9 10,-19 0,-11 7,-26 15,-34 7,-8 17,-26 21,-41 3,-14 10,-26 14,-26 4,0 11,-11 14,-25 4,-14 11,-25 16,-25 6,0 10,-7 10,-15 0,-8 5,-15 10,-15 6,0 10,-20 10,-45 0,-31 5,-47 15,-51 17,-7 22,-94 6,-94 -5,0 -11,-12 -13,-27 -2,-18 -10,-29 -22,-32 -11,-2 -31,-16 -45,-32 -20,-23 -34,-29 -65,-29 -28,0 -45,-7 -62,-25 -13,-14 -27,-25 -33,-25 -15,0 -71,-60 -71,-77 0,-9 -11,-25 -23,-37 -13,-12 -27,-39 -30,-61 -3,-21 -12,-42 -19,-46 -17,-11 -18,-227 -1,-237 6,-4 14,-49 18,-99 4,-51 11,-93 16,-93 5,0 9,-12 9,-26 0,-32 55,-90 94,-100 14,-3 26,-10 26,-15 0,-5 9,-9 20,-9 11,0 20,4 20,9 0,5 11,12 25,15 15,4 27,16 31,31 3,14 12,25 20,25 8,0 22,9 31,20 10,11 25,20 35,20 13,0 18,8 18,29 0,19 10,40 30,59 18,18 30,41 30,56 0,15 9,34 20,43 11,10 20,28 20,40 0,13 4,23 10,23 5,0 12,16 16,35 3,19 10,35 15,35 5,0 9,7 9,15 0,8 7,15 15,15 8,0 15,5 15,10 0,6 -4,10 -10,10 -5,0 -10,5 -10,10 0,14 49,60 64,60 6,1 22,14 36,30 20,25 32,30 67,30 24,0 43,5 43,10 0,6 20,10 45,10 32,0 45,4 45,14 0,10 19,15 72,18 44,2 73,9 76,16 5,17 148,17 155,0 4,-10 7,-10 14,0 5,7 33,14 63,16 29,2 56,9 60,16 5,8 42,14 101,16 51,2 95,8 99,14 3,5 73,12 155,16 104,5 154,11 163,21 7,7 22,13 33,13 10,0 19,4 19,9 0,5 25,12 55,16 30,3 55,11 55,16 0,5 23,9 50,9 38,0 54,5 67,20 10,11 30,20 45,20 16,0 28,5 28,10 0,6 13,10 29,10 16,0 36,7 45,15 8,8 20,15 26,15 6,0 13,7 16,15 7,17 64,21 64,5 0,-5 11,-10 25,-10 14,0 25,5 25,10 0,6 -5,10 -11,10 -6,0 -4,7 5,15 17,17 36,20 36,5 0,-14 27,-13 32,1 2,6 28,14 58,17 30,3 60,11 68,18 7,8 20,14 28,14 8,0 14,4 14,9 0,5 47,12 105,16 58,4 105,11 105,16 0,5 43,9 95,9 57,0 95,-4 95,-10 0,-5 20,-10 44,-10 26,0 51,-6 59,-15 8,-8 33,-17 56,-21 23,-4 41,-10 41,-15 0,-5 9,-9 19,-9 11,0 27,-7 36,-16 9,-9 40,-18 74,-21 56,-5 59,-4 93,31 19,20 40,36 47,36 6,0 11,6 11,14 0,8 6,17 13,19 9,4 8,8 -3,16 -11,8 -12,11 -2,11 16,0 42,24 42,39 0,6 4,11 9,11 5,0 12,16 15,35 4,19 11,35 16,35 6,0 10,6 10,14 0,8 6,21 14,28 7,8 15,38 18,67 3,29 10,56 15,60 6,3 12,30 15,60 3,29 10,56 15,60 6,3 13,48 16,100 3,54 11,97 17,101 8,5 14,56 17,141 3,86 9,137 16,142 9,6 9,10 0,14 -19,7 -17,93 2,93 12,0 15,17 15,95 0,52 4,95 9,95 5,0 11,37 13,82 3,49 10,84 16,86 7,2 12,15 12,28 0,15 6,24 15,24 8,0 15,6 15,13 0,13 34,47 48,47 4,0 15,9 25,20 12,15 29,20 62,20 25,0 45,5 45,10 0,6 47,10 120,10 66,0 120,-4 120,-9 0,-5 16,-12 35,-15 19,-4 35,-11 35,-15 0,-5 18,-11 40,-15 22,-3 40,-10 40,-15 0,-5 13,-12 29,-16 16,-3 32,-13 35,-21 3,-8 17,-14 31,-14 14,0 25,-4 25,-9 0,-5 14,-12 30,-16 17,-4 30,-13 30,-21 0,-8 7,-14 15,-14 8,0 15,-4 15,-10 0,-5 10,-10 23,-10 13,0 33,-13 47,-30 14,-16 29,-29 33,-30 13,0 67,-57 67,-70 0,-6 8,-14 18,-17 32,-12 188,-177 196,-207 4,-16 34,-55 67,-88 32,-33 59,-66 59,-74 0,-8 4,-14 9,-14 5,0 12,-13 16,-30 4,-16 13,-30 21,-30 10,0 14,-13 14,-45 0,-25 4,-45 9,-45 5,0 12,-13 16,-29 3,-16 13,-32 21,-35 8,-3 14,-12 14,-21 0,-8 4,-15 9,-15 5,0 11,-19 15,-42 4,-23 11,-45 16,-48 5,-3 12,-51 16,-105 4,-55 11,-103 15,-106 5,-3 12,-53 15,-112 4,-59 10,-107 15,-107 4,0 10,-19 14,-42 6,-32 4,-44 -9,-53 -10,-8 -16,-27 -16,-49 0,-22 -6,-39 -14,-42 -8,-3 -17,-16 -20,-30 -4,-13 -11,-24 -16,-24 -6,0 -10,-7 -10,-15 0,-7 -8,-19 -17,-25 -13,-8 -14,-13 -5,-16 14,-7 16,-34 2,-34 -5,0 -10,-13 -10,-30 0,-16 5,-30 10,-30 6,0 10,-5 10,-11 0,-13 65,-79 77,-79 5,0 17,-9 26,-21 14,-16 25,-19 45,-14 15,4 29,10 32,14 3,4 17,11 32,15 18,4 30,15 34,30 3,14 12,27 20,30 8,3 14,10 14,16 0,7 14,25 30,42 20,19 30,40 30,59 0,16 5,29 10,29 6,0 10,7 10,15 0,9 7,18 15,21 10,4 15,20 15,45 0,35 3,39 25,39 22,0 25,4 25,34 0,19 7,41 15,50 8,8 15,20 15,26 0,6 7,13 15,16 8,4 15,17 15,30 0,14 6,27 14,30 7,3 16,22 20,44 5,30 11,39 31,44 14,4 25,12 25,20 0,7 9,23 20,36 11,13 20,29 20,35 0,7 7,15 15,19 8,3 15,10 15,16 0,15 25,40 39,40 6,0 11,9 11,19 0,11 6,26 14,33 7,8 17,24 21,37 4,13 27,42 51,65 24,24 44,46 44,50 0,5 24,32 54,61 30,30 58,64 62,77 4,13 17,33 30,45 13,12 24,27 24,33 0,5 6,10 14,10 8,0 18,9 21,21 4,11 31,44 61,74 30,29 54,58 54,64 0,6 7,11 15,11 9,0 19,8 22,18 8,21 28,42 40,42 5,0 16,9 26,20 9,11 23,20 31,20 8,0 16,7 20,15 3,8 16,15 30,15 17,0 26,7 30,25 4,14 11,25 16,25 6,0 10,7 10,15 0,8 7,15 15,15 9,0 18,7 21,15 4,8 17,15 30,15 15,0 24,6 24,15 0,8 11,17 24,21 14,3 27,15 30,29 4,16 16,26 36,30 21,5 30,13 30,26 0,10 7,19 15,19 8,0 15,-9 15,-20 0,-15 7,-20 25,-20 17,0 25,5 25,18 0,23 30,48 69,57 17,4 31,10 31,15 0,4 12,11 26,14 15,4 33,14 42,23 12,11 27,14 64,9 44,-6 48,-5 48,14 0,16 6,20 35,20 26,0 43,8 69,35 19,18 37,43 41,54 4,15 16,21 48,23 33,2 42,7 41,21 -2,14 6,17 42,17 24,0 44,4 44,9 0,5 23,11 50,15 28,4 50,11 50,16 0,5 18,13 40,16 22,4 40,10 40,14 0,4 23,10 52,12 29,3 54,11 56,17 2,6 10,11 17,11 8,0 18,7 23,16 7,13 29,18 88,21 43,3 81,8 84,12 3,4 18,11 35,15 16,4 32,12 35,17 3,4 39,12 78,15 55,5 72,10 68,20 -3,8 1,14 9,14 8,0 15,5 15,10 0,6 7,10 15,10 8,0 15,-6 15,-12 0,-9 2,-10 8,-2 4,6 17,14 30,18 12,4 22,12 22,17 0,5 7,9 15,9 9,0 18,7 21,15 4,8 17,15 30,15 14,0 27,7 30,15 4,9 19,15 38,15 51,0 74,10 80,36 5,20 12,24 46,24 27,0 40,4 40,14 0,14 29,26 68,26 12,0 22,4 22,10 0,5 16,12 35,16 20,3 35,12 35,20 0,8 7,14 15,14 9,0 26,10 38,23 12,13 30,26 40,30 9,3 17,11 17,16 0,5 12,12 27,16 15,3 31,11 34,17 3,5 21,11 40,12 18,1 35,8 37,14 2,7 10,12 18,12 8,0 17,7 20,15 4,8 12,15 20,15 8,0 14,4 14,10 0,20 71,80 95,80 16,0 25,6 25,15 0,8 4,15 9,15 5,0 11,18 15,40 5,31 11,41 31,46 14,3 25,10 25,14 0,4 14,10 30,14 18,3 30,12 30,21 0,8 6,15 14,15 8,0 18,9 21,21 8,24 40,59 55,59 6,0 10,5 10,10 0,15 50,60 66,60 8,0 14,4 14,9 0,5 9,11 20,14 29,7 26,57 -5,91 -28,30 -89,37 -99,11 z"
       id="path1" />
    <path
       d="m 13530,7710 c 0,-5 7,-10 15,-10 8,0 15,5 15,10 0,6 -7,10 -15,10 -8,0 -15,-4 -15,-10 z"
       id="path2" />
    <path
       d="m 6810,3090 c 0,-29 -2,-30 -45,-30 -25,0 -45,-4 -45,-10 0,-5 -9,-10 -19,-10 -11,0 -26,-7 -35,-15 -17,-17 -36,-20 -36,-5 0,6 -4,10 -10,10 -13,0 -50,-37 -50,-50 0,-5 -6,-10 -14,-10 -8,0 -17,-11 -20,-25 -4,-14 -11,-25 -16,-25 -6,0 -10,-7 -10,-15 0,-10 -10,-15 -34,-15 -20,0 -42,-8 -52,-17 -10,-10 -30,-18 -44,-19 -30,-2 -64,-31 -75,-63 -3,-12 -10,-21 -15,-21 -4,0 -10,-9 -13,-20 -3,-12 -14,-20 -26,-20 -20,0 -151,-122 -151,-141 0,-5 -5,-9 -10,-9 -13,0 -60,-49 -60,-62 0,-13 -51,-58 -66,-58 -7,0 -14,-5 -16,-11 -2,-6 -25,-13 -51,-16 -26,-3 -47,-10 -47,-14 0,-5 -7,-9 -15,-9 -8,0 -15,-6 -15,-14 0,-16 -30,-26 -82,-26 -21,0 -38,-4 -38,-10 0,-5 -7,-10 -15,-10 -8,0 -15,5 -15,10 0,14 -27,12 -33,-2 -4,-10 -8,-10 -15,1 -5,7 -30,16 -56,18 -25,3 -46,10 -46,14 0,5 -11,9 -25,9 -14,0 -28,6 -31,14 -3,8 -17,17 -32,21 -14,3 -35,17 -47,29 -12,13 -36,26 -54,29 -33,7 -61,28 -61,46 0,6 -13,11 -30,11 -16,0 -30,-4 -30,-10 0,-5 -9,-10 -20,-10 -11,0 -20,4 -20,9 0,5 -12,12 -27,16 -15,3 -30,11 -34,16 -3,5 -65,12 -138,16 -120,6 -131,5 -125,-10 4,-12 1,-17 -10,-17 -9,0 -16,-7 -16,-15 0,-8 -6,-15 -12,-15 -20,0 -58,-46 -58,-69 0,-12 -4,-21 -10,-21 -5,0 -10,-7 -10,-15 0,-8 -7,-15 -15,-15 -8,0 -15,-6 -15,-13 0,-7 -9,-20 -20,-30 -11,-9 -20,-24 -20,-32 0,-8 -4,-15 -10,-15 -5,0 -10,-6 -10,-14 0,-8 -14,-18 -32,-22 -18,-3 -43,-17 -55,-30 -15,-16 -36,-25 -69,-28 -29,-3 -51,-11 -56,-21 -7,-12 -18,-14 -46,-9 -20,4 -40,12 -44,18 -5,7 -8,7 -8,-2 0,-7 -6,-20 -14,-28 -17,-16 -56,-19 -56,-4 0,6 -28,10 -65,10 -49,0 -65,3 -65,14 0,18 -31,25 -78,19 -27,-4 -43,0 -54,11 -9,9 -21,16 -27,16 -5,0 -14,7 -19,16 -5,8 -26,17 -47,19 -21,2 -41,8 -44,13 -3,5 -17,13 -31,17 -14,4 -34,18 -46,30 -11,13 -32,26 -45,30 -13,4 -26,11 -29,16 -3,4 -76,10 -163,13 -123,4 -161,9 -173,21 -20,19 -43,19 -50,0 -4,-8 -12,-15 -20,-15 -8,0 -11,-6 -8,-15 4,-9 0,-15 -9,-15 -8,0 -17,7 -21,15 -7,20 -75,20 -82,1 -3,-8 -19,-18 -35,-21 -16,-4 -29,-11 -29,-16 0,-5 -11,-9 -25,-9 -14,0 -25,5 -25,10 0,16 -27,12 -34,-5 -4,-12 -26,-15 -111,-15 -58,0 -105,-4 -105,-9 0,-5 -52,-12 -115,-16 -63,-4 -115,-11 -115,-16 0,-5 -9,-9 -20,-9 -11,0 -20,5 -20,10 0,6 -11,10 -25,10 -14,0 -25,-6 -25,-12 0,-9 -3,-10 -8,-2 -4,6 -29,14 -56,16 -27,3 -51,10 -55,16 -3,5 -32,13 -63,17 -32,4 -58,11 -58,15 0,5 -14,11 -30,15 -17,4 -30,11 -30,16 0,5 -9,9 -19,9 -11,0 -26,7 -35,15 -8,8 -19,15 -25,15 -5,0 -17,7 -25,16 -9,8 -27,16 -41,17 -14,1 -30,9 -36,17 -8,11 -12,12 -16,3 -10,-26 -63,-3 -63,27 0,6 -8,14 -17,17 -23,9 -37,23 -46,45 -5,13 -14,16 -44,11 -21,-3 -39,-10 -41,-15 -5,-11 -32,-10 -32,2 0,19 -33,10 -56,-15 -13,-14 -28,-25 -34,-25 -5,0 -10,-6 -10,-12 -1,-7 -14,-24 -30,-38 -17,-13 -30,-33 -30,-45 -1,-11 -14,-31 -30,-45 -17,-13 -30,-30 -30,-37 0,-7 -7,-13 -15,-13 -8,0 -15,-4 -15,-10 0,-5 -13,-10 -30,-10 -16,0 -30,4 -30,9 0,5 -10,13 -22,16 -11,4 -31,18 -43,31 -13,14 -34,24 -49,24 -14,0 -26,5 -26,11 0,15 -89,103 -112,112 -10,3 -18,13 -18,22 0,8 -7,15 -15,15 -8,0 -15,7 -15,15 0,9 -9,15 -25,15 -14,0 -25,4 -25,9 0,5 -11,12 -25,15 -15,4 -27,16 -31,31 -5,19 -13,25 -35,25 -18,0 -29,5 -29,14 0,9 -20,15 -67,19 -38,4 -69,11 -71,17 -5,13 -42,13 -42,0 0,-5 -11,-12 -25,-16 -16,-4 -28,-16 -31,-31 -8,-32 4,-137 16,-141 6,-2 10,-8 10,-14 0,-15 43,-58 58,-58 6,0 12,-4 12,-9 0,-5 11,-12 25,-15 14,-4 25,-11 25,-16 0,-6 6,-10 13,-10 14,0 47,-35 47,-49 0,-10 35,-21 68,-21 13,0 28,-5 35,-10 46,-39 67,-60 67,-69 0,-5 14,-23 30,-39 17,-17 30,-35 30,-41 0,-6 7,-11 15,-11 9,0 19,-8 22,-17 4,-10 13,-24 20,-31 7,-7 13,-20 13,-28 0,-8 5,-14 11,-14 6,0 24,-14 41,-31 l 31,-31 103,4 c 97,3 103,4 128,30 14,16 36,28 50,28 13,0 31,7 40,15 8,8 18,15 23,15 4,1 19,14 33,30 20,25 32,30 67,30 33,0 43,4 43,16 0,13 6,15 28,9 15,-3 29,-11 30,-16 2,-5 15,-9 28,-9 14,0 27,-6 30,-14 3,-8 17,-17 32,-21 14,-3 33,-15 42,-25 12,-14 34,-19 96,-21 60,-3 85,-9 98,-21 10,-10 23,-18 31,-18 7,0 15,-7 19,-15 3,-10 19,-15 45,-15 22,0 41,-5 43,-12 4,-10 48,-13 181,-12 147,1 178,4 191,17 16,16 46,13 46,-4 0,-5 23,-9 50,-9 28,0 50,4 50,9 0,5 26,11 57,13 31,3 59,10 61,16 2,7 16,12 32,12 18,0 39,11 58,30 24,23 39,30 70,30 23,0 42,5 45,13 5,15 430,13 435,-3 2,-6 10,-10 18,-10 8,0 14,-6 14,-14 0,-28 30,-46 76,-46 24,0 44,-4 44,-9 0,-4 19,-11 42,-14 23,-3 45,-13 50,-21 5,-9 16,-16 23,-16 8,0 15,-4 15,-10 0,-5 6,-10 14,-10 8,0 22,-7 30,-16 11,-11 40,-16 98,-18 52,-2 83,-7 86,-14 2,-7 10,-12 17,-12 8,0 18,-7 23,-15 4,-9 25,-18 45,-22 30,-4 37,-3 37,11 0,13 12,16 75,16 63,0 78,3 92,20 10,11 23,20 30,20 7,0 13,5 13,10 0,6 23,10 52,10 49,0 53,2 109,59 31,33 66,62 78,66 11,3 23,15 26,26 4,10 13,19 21,19 8,0 22,9 31,20 10,11 23,20 30,20 7,0 13,7 13,15 0,9 9,15 25,15 14,0 25,4 25,10 0,5 16,12 35,16 19,3 35,10 35,14 0,4 18,10 40,14 22,3 40,11 40,16 0,6 9,10 20,10 11,0 20,-4 20,-9 0,-5 23,-11 51,-13 28,-3 54,-10 58,-15 3,-5 19,-13 36,-17 16,-4 33,-12 36,-18 4,-6 30,-13 58,-16 28,-2 51,-8 51,-12 0,-4 11,-11 25,-14 14,-4 25,-11 25,-16 0,-5 16,-12 35,-16 19,-3 35,-10 35,-15 0,-5 7,-9 15,-9 8,0 15,-4 15,-9 0,-5 14,-12 30,-16 17,-4 30,-11 30,-16 0,-5 7,-9 15,-9 8,0 15,5 15,10 0,6 11,10 25,10 14,0 25,-4 25,-10 0,-6 32,-10 75,-10 60,0 75,3 75,15 0,8 7,15 15,15 8,0 15,5 15,10 0,6 9,10 20,10 11,0 20,4 20,9 0,4 15,11 34,14 36,6 116,77 116,103 0,8 10,14 25,14 14,0 28,7 31,15 3,8 15,17 25,20 23,8 89,71 89,85 0,6 6,10 14,10 8,0 18,9 21,20 12,38 101,117 139,124 22,4 36,13 36,21 0,8 5,15 11,15 14,0 63,50 72,73 4,10 17,17 32,17 14,0 25,5 25,10 0,6 6,10 13,10 7,0 24,14 39,30 15,17 41,33 60,37 18,3 36,10 39,16 4,5 27,12 53,14 25,3 46,9 46,13 0,4 84,9 187,12 134,2 188,7 190,15 3,7 20,15 39,19 19,3 34,10 34,15 0,5 18,9 40,9 22,0 40,-4 40,-9 0,-4 19,-11 41,-14 23,-3 45,-10 49,-16 3,-6 43,-14 88,-18 45,-3 82,-10 82,-14 0,-5 6,-9 13,-9 7,0 24,-13 37,-28 14,-16 40,-31 58,-35 18,-4 43,-17 55,-30 12,-13 30,-26 40,-30 9,-3 17,-11 17,-17 0,-5 18,-10 40,-10 27,0 43,-5 46,-15 4,-8 24,-18 45,-21 21,-4 39,-10 39,-15 0,-5 12,-9 28,-9 15,0 35,-9 45,-20 9,-11 24,-20 32,-20 8,0 15,-4 15,-10 0,-5 9,-10 19,-10 11,0 33,-13 49,-30 17,-16 34,-30 39,-30 5,0 20,-13 34,-29 14,-15 36,-32 49,-36 13,-4 30,-14 38,-21 7,-8 20,-14 28,-14 8,0 14,-4 14,-9 0,-4 21,-11 46,-14 26,-2 49,-9 53,-14 3,-6 23,-13 43,-17 20,-4 38,-11 40,-17 2,-6 22,-13 46,-16 23,-3 42,-9 42,-14 0,-4 14,-10 30,-14 17,-4 30,-10 30,-14 0,-5 39,-11 87,-14 54,-4 89,-11 94,-19 6,-10 52,-14 176,-16 92,-1 170,-7 173,-12 3,-5 40,-12 83,-16 42,-4 77,-11 77,-15 0,-5 32,-9 70,-9 49,0 70,-4 70,-12 0,-9 4,-8 11,2 8,11 12,12 16,2 2,-6 22,-15 43,-18 21,-4 41,-13 44,-20 3,-8 16,-14 30,-14 13,0 26,-7 30,-15 3,-8 16,-15 30,-15 13,0 26,-7 30,-15 3,-8 17,-15 31,-15 14,0 25,-4 25,-10 0,-5 7,-10 15,-10 9,0 18,-6 21,-14 3,-7 22,-16 44,-20 21,-3 40,-13 44,-21 3,-8 12,-15 21,-15 8,0 15,-4 15,-10 0,-5 12,-13 27,-16 15,-4 34,-13 41,-21 7,-7 29,-13 48,-13 19,0 34,-4 34,-9 0,-5 14,-12 30,-16 17,-4 30,-10 30,-15 0,-4 18,-10 40,-14 26,-4 40,-11 40,-21 0,-8 6,-15 14,-15 8,0 16,-7 20,-15 3,-10 19,-15 46,-15 22,0 40,-4 40,-9 0,-4 19,-11 41,-14 23,-3 45,-10 48,-16 4,-5 38,-13 76,-17 39,-4 73,-12 77,-18 10,-16 546,-15 556,0 4,7 33,15 65,19 31,4 57,11 57,15 0,5 47,10 105,12 63,2 109,7 113,14 4,6 18,15 32,19 14,4 27,11 30,15 3,5 27,11 54,14 27,3 52,9 55,14 3,5 25,13 49,17 23,4 42,11 42,16 0,5 18,12 40,15 22,4 40,10 40,15 0,5 6,9 13,9 7,0 24,13 37,30 16,19 35,29 52,30 15,0 33,6 40,13 7,8 27,17 43,21 16,4 33,12 36,18 3,5 25,12 48,15 22,3 41,9 41,14 0,4 14,10 30,14 17,4 30,10 30,15 0,4 11,11 25,14 14,4 25,11 25,16 0,6 9,10 20,10 11,0 20,6 20,14 0,9 20,15 67,19 38,4 69,11 71,16 11,32 54,61 100,67 29,4 53,12 56,20 3,8 16,14 30,14 13,0 26,5 28,11 2,5 22,13 46,16 23,3 42,9 42,13 0,4 32,11 70,14 39,4 70,11 70,17 0,5 105,9 260,9 144,0 260,-4 260,-9 0,-5 25,-12 55,-16 30,-3 55,-10 55,-15 0,-4 16,-11 35,-14 19,-4 35,-11 35,-16 0,-6 7,-10 15,-10 8,0 15,5 15,10 0,6 11,10 25,10 14,0 25,-4 25,-9 0,-5 15,-13 33,-16 17,-4 35,-12 39,-18 4,-6 48,-11 105,-11 95,-1 100,-2 125,-28 21,-23 34,-28 72,-28 25,0 46,5 46,10 0,25 18,7 24,-24 8,-40 29,-52 51,-30 9,9 35,18 58,22 23,3 49,13 58,24 19,21 45,24 51,6 8,-22 58,42 58,73 0,16 5,29 10,29 16,0 12,28 -7,50 -10,11 -28,20 -40,20 -13,0 -23,6 -23,13 0,9 -20,13 -72,13 -47,0 -73,4 -76,12 -2,7 -17,12 -33,12 -17,0 -32,6 -35,15 -4,8 -18,15 -34,15 -65,0 -121,13 -116,26 4,11 -6,14 -43,14 -27,0 -51,5 -53,11 -2,5 -24,13 -48,16 -25,3 -48,10 -51,15 -3,5 -26,12 -50,15 -24,3 -46,10 -49,14 -3,4 -37,11 -75,15 -38,4 -76,13 -83,21 -7,7 -20,13 -28,13 -8,0 -14,4 -14,9 0,4 -39,11 -87,14 -50,3 -89,10 -91,16 -5,15 -39,14 -46,-1 -3,-9 -8,-8 -16,5 -13,21 -58,23 -66,2 -10,-25 -24,-17 -24,13 0,18 -3,23 -9,14 -5,-9 -35,-14 -91,-15 -56,-2 -85,-7 -88,-15 -2,-7 -21,-12 -43,-12 -24,0 -42,-5 -45,-14 -3,-8 -28,-17 -57,-20 -28,-4 -55,-13 -59,-19 -6,-9 -11,-8 -18,3 -6,10 -10,11 -10,3 0,-7 -18,-16 -40,-19 -22,-4 -40,-10 -40,-14 0,-4 -19,-10 -41,-13 -23,-3 -45,-10 -48,-15 -3,-6 -19,-14 -34,-17 -15,-4 -27,-11 -27,-16 0,-5 -16,-9 -35,-9 -28,0 -35,-4 -35,-20 0,-18 -7,-20 -60,-20 -33,0 -60,-4 -60,-10 0,-5 -11,-10 -25,-10 -16,0 -25,-6 -25,-15 0,-10 -11,-15 -35,-15 -24,0 -35,-5 -35,-15 0,-23 -32,-55 -56,-55 -12,0 -24,-7 -28,-15 -3,-8 -12,-15 -20,-15 -8,0 -16,-5 -18,-10 -2,-6 -21,-13 -43,-17 -22,-3 -46,-12 -53,-20 -7,-7 -19,-13 -27,-13 -7,0 -15,-7 -19,-15 -3,-8 -16,-15 -30,-15 -16,0 -27,-7 -31,-20 -5,-17 -15,-20 -60,-20 -39,0 -56,-4 -63,-16 -7,-12 -24,-16 -61,-16 -35,0 -51,-4 -51,-13 0,-16 -22,-25 -61,-25 -16,0 -29,-4 -29,-10 0,-5 -11,-12 -25,-16 -14,-3 -25,-10 -25,-14 0,-4 -16,-11 -35,-14 -19,-4 -35,-11 -35,-15 0,-5 -12,-12 -27,-16 -15,-3 -30,-10 -33,-14 -3,-5 -31,-11 -63,-14 -42,-4 -61,-2 -71,9 -18,17 -73,19 -79,2 -5,-17 -575,-17 -585,-1 -4,6 -17,13 -29,17 -13,4 -23,12 -23,17 0,5 -20,9 -44,9 -35,0 -45,4 -49,20 -4,15 -14,20 -36,20 -17,0 -31,5 -31,10 0,6 -10,10 -23,10 -23,0 -57,31 -57,53 0,8 -4,7 -10,-3 -9,-13 -12,-13 -21,3 -6,10 -22,17 -39,17 -17,0 -30,5 -30,10 0,6 -11,10 -25,10 -14,0 -25,4 -25,9 0,5 -13,12 -30,16 -16,4 -30,10 -30,15 0,5 -15,12 -32,16 -18,3 -42,17 -54,29 -11,12 -37,25 -56,29 -20,4 -38,11 -40,17 -2,6 -22,13 -45,16 -32,4 -43,10 -47,28 -5,19 -15,24 -61,30 -30,3 -55,11 -55,16 0,5 -15,9 -34,9 -26,0 -33,4 -32,18 1,14 -9,17 -54,19 -30,2 -56,7 -58,13 -5,13 -82,13 -82,0 0,-12 -147,-14 -152,-1 -1,5 -102,12 -223,15 -120,4 -222,11 -225,16 -3,4 -19,12 -35,16 -16,4 -36,14 -44,21 -9,9 -24,12 -42,8 -22,-5 -29,-3 -29,9 0,9 -8,16 -19,16 -11,0 -26,7 -35,15 -8,8 -26,15 -40,15 -13,0 -31,6 -38,13 -7,8 -26,17 -41,21 -15,3 -27,11 -27,16 0,6 -14,10 -30,10 -20,0 -33,6 -37,18 -10,24 -29,42 -47,42 -8,0 -21,6 -28,14 -8,7 -25,17 -38,21 -13,4 -33,18 -46,32 -12,13 -39,27 -60,30 -36,6 -74,33 -74,53 0,6 -7,10 -15,10 -8,0 -17,11 -21,25 -6,24 -34,36 -34,15 0,-5 -7,-10 -15,-10 -8,0 -15,4 -15,9 0,5 -13,12 -30,16 -16,4 -30,11 -30,16 0,5 -12,12 -27,15 -15,4 -34,13 -41,21 -8,7 -18,10 -24,7 -5,-3 -18,3 -29,15 -11,12 -26,21 -34,21 -8,0 -15,4 -15,9 0,5 -13,12 -30,16 -16,4 -30,10 -30,14 0,5 -19,11 -41,14 -23,3 -45,10 -48,15 -3,5 -17,13 -31,17 -14,4 -28,13 -32,19 -5,7 -76,12 -213,14 -117,2 -205,7 -205,13 0,5 -18,9 -40,9 -27,0 -43,5 -46,15 -4,10 -20,15 -45,15 -28,0 -39,-4 -39,-15 0,-10 -10,-15 -30,-15 -20,0 -30,5 -30,15 0,11 -12,15 -45,15 -43,0 -45,-1 -45,-30 z"
       id="path3" />
    <path
       d="m 4938,2613 c 7,-3 16,-2 19,1 4,3 -2,6 -13,5 -11,0 -14,-3 -6,-6 z"
       id="path4" />
    <path
       d="m 3900,2300 c 0,-5 5,-10 10,-10 6,0 10,5 10,10 0,6 -4,10 -10,10 -5,0 -10,-4 -10,-10 z"
       id="path5" />
  </g>
</svg>
