<?xml version="1.0" standalone="no"?>
<!DOCTYPE svg PUBLIC "-//W3C//DTD SVG 20010904//EN"
 "http://www.w3.org/TR/2001/REC-SVG-20010904/DTD/svg10.dtd">
<svg version="1.0" xmlns="http://www.w3.org/2000/svg"
 viewBox="0 0 1700.000000 1360.000000"
 preserveAspectRatio="xMidYMid meet">

<g transform="translate(0.000000,1360.000000) scale(0.100000,-0.100000)"
fill="hsl(11.25 88.89% 96.47%)" stroke="none">
<path d="M1683 12945 c-13 -13 -23 -33 -23 -44 0 -11 -6 -21 -12 -24 -16 -5
-14 -160 2 -165 12 -4 14 -52 1 -52 -4 0 -11 -28 -14 -62 -3 -34 -10 -64 -16
-66 -14 -5 -15 -172 -1 -172 6 0 10 -28 10 -65 0 -37 -4 -65 -10 -65 -5 0 -10
-5 -10 -11 0 -16 -26 -39 -44 -39 -9 0 -16 -8 -16 -20 0 -11 -4 -20 -10 -20
-6 0 -10 -28 -10 -65 0 -37 4 -65 10 -65 12 0 13 -87 1 -92 -11 -4 -20 -103
-10 -119 10 -16 39 12 39 38 0 10 9 25 20 33 14 10 20 26 20 51 0 21 4 39 9
41 4 2 11 38 14 81 4 59 2 80 -9 91 -24 24 -18 63 11 70 20 5 25 13 25 36 0
17 5 30 10 30 6 0 10 9 10 20 0 11 -4 20 -10 20 -6 0 -10 28 -10 64 0 70 5 76
65 76 30 0 33 -3 39 -37 3 -21 6 -62 6 -90 0 -29 5 -53 10 -53 6 0 10 -13 10
-30 0 -16 -4 -30 -10 -30 -5 0 -10 -7 -10 -15 0 -8 5 -15 10 -15 6 0 10 -9 10
-19 0 -11 6 -22 13 -25 10 -5 10 -7 0 -12 -16 -7 -19 -294 -3 -294 6 0 10 -22
10 -50 0 -27 5 -50 10 -50 6 0 10 -37 10 -90 0 -53 -4 -90 -10 -90 -5 0 -10
-18 -10 -40 0 -22 -4 -40 -10 -40 -5 0 -10 -20 -10 -45 0 -25 5 -45 10 -45 6
0 10 -28 10 -65 0 -37 -4 -65 -10 -65 -5 0 -10 -7 -10 -15 0 -8 5 -15 10 -15
6 0 10 -13 10 -30 0 -16 -4 -30 -10 -30 -5 0 -10 -9 -10 -20 0 -11 -4 -20 -9
-20 -4 0 -11 -28 -14 -62 -3 -34 -10 -64 -16 -66 -6 -2 -11 -10 -11 -18 0 -8
-4 -14 -10 -14 -6 0 -10 -53 -10 -140 0 -87 -4 -140 -10 -140 -5 0 -10 -13
-10 -29 0 -21 -6 -32 -20 -36 -17 -5 -20 -15 -20 -61 0 -30 5 -54 10 -54 6 0
10 -13 10 -30 0 -16 -4 -30 -10 -30 -5 0 -10 -13 -10 -30 0 -16 -4 -30 -10
-30 -5 0 -10 -18 -10 -39 0 -52 -8 -71 -31 -71 -12 0 -19 7 -19 20 0 11 5 20
10 20 6 0 10 -4 10 -10 0 -5 5 -10 10 -10 18 0 11 55 -10 70 -11 8 -20 20 -20
27 0 7 -4 13 -10 13 -5 0 -10 9 -10 20 0 11 -4 20 -10 20 -5 0 -10 14 -10 30
0 17 5 30 10 30 6 0 10 25 10 55 0 30 -4 55 -10 55 -5 0 -10 20 -10 44 0 25
-5 46 -12 48 -8 3 -12 74 -13 256 -1 139 -5 255 -8 258 -3 3 -23 -11 -43 -32
-23 -22 -33 -39 -26 -42 7 -2 12 -10 12 -17 0 -7 6 -16 13 -19 10 -5 10 -7 0
-12 -9 -4 -13 -28 -13 -70 0 -51 -3 -64 -16 -64 -8 0 -22 -6 -30 -14 -16 -17
-19 -46 -4 -46 6 0 10 -33 10 -80 0 -47 4 -80 10 -80 6 0 10 -18 10 -40 0 -22
5 -40 10 -40 6 0 10 -50 10 -130 0 -80 4 -130 10 -130 6 0 10 -20 10 -45 0
-25 -4 -45 -10 -45 -5 0 -10 -16 -10 -35 0 -19 5 -35 10 -35 6 0 10 -13 10
-28 0 -16 8 -34 20 -42 15 -11 20 -26 20 -57 0 -24 -4 -43 -10 -43 -5 0 -10
-11 -10 -25 0 -14 -4 -25 -10 -25 -6 0 -10 -32 -10 -75 0 -43 -4 -75 -10 -75
-5 0 -10 -13 -10 -30 0 -16 -4 -30 -10 -30 -6 0 -10 -32 -10 -75 0 -43 -4 -75
-10 -75 -5 0 -10 -20 -10 -45 0 -25 -4 -45 -9 -45 -5 0 -13 -25 -16 -55 -4
-30 -11 -55 -16 -55 -5 0 -9 -9 -9 -20 0 -11 -4 -20 -10 -20 -5 0 -10 -20 -10
-45 0 -25 -4 -45 -10 -45 -5 0 -10 -11 -10 -25 0 -14 -4 -25 -10 -25 -5 0 -10
-22 -10 -50 0 -27 -4 -50 -10 -50 -5 0 -10 -11 -10 -24 0 -13 -5 -26 -10 -28
-6 -2 -13 -27 -17 -56 -3 -28 -10 -52 -14 -52 -5 0 -9 -9 -9 -20 0 -11 -4 -20
-10 -20 -5 0 -10 -13 -10 -30 0 -16 -4 -30 -10 -30 -5 0 -10 -11 -10 -25 0
-14 -4 -25 -10 -25 -5 0 -10 -9 -10 -19 0 -11 -5 -21 -12 -23 -6 -2 -13 -31
-16 -66 -2 -34 -8 -62 -13 -62 -5 0 -9 -11 -9 -25 0 -14 -4 -25 -10 -25 -5 0
-10 -13 -10 -30 0 -16 -4 -30 -10 -30 -5 0 -10 -7 -10 -15 0 -8 -4 -15 -10
-15 -5 0 -10 -12 -10 -26 0 -15 -10 -35 -22 -45 -17 -15 -22 -33 -26 -94 -2
-41 -9 -75 -13 -75 -5 0 -9 -9 -9 -20 0 -11 -4 -20 -10 -20 -5 0 -10 -18 -10
-40 0 -22 -4 -40 -10 -40 -5 0 -10 -7 -10 -15 0 -8 -4 -15 -10 -15 -6 0 -10
-42 -10 -105 0 -58 4 -105 9 -105 5 0 17 -7 25 -16 14 -14 22 -9 85 53 38 37
77 74 85 81 9 7 16 22 16 32 0 11 7 20 15 20 18 0 65 43 65 60 0 5 4 10 9 10
5 0 11 23 15 50 4 28 11 50 16 50 6 0 10 11 10 25 0 14 5 25 10 25 6 0 10 9
10 20 0 11 5 20 10 20 6 0 10 9 10 19 0 11 9 23 20 26 13 4 20 15 20 31 0 14
6 32 14 40 8 7 16 19 18 26 6 16 58 -35 58 -57 0 -8 5 -15 10 -15 6 0 10 -16
10 -35 0 -19 5 -35 10 -35 6 0 10 -9 10 -20 0 -11 5 -20 10 -20 6 0 10 -7 10
-15 0 -8 11 -25 25 -39 14 -14 25 -35 25 -47 0 -45 76 -75 134 -53 18 7 23 84
6 84 -5 0 -10 9 -10 20 0 11 -4 20 -10 20 -5 0 -10 7 -10 15 0 8 -4 15 -10 15
-5 0 -10 9 -10 20 0 11 -4 20 -9 20 -6 0 -13 20 -17 45 -3 25 -10 45 -15 45
-5 0 -9 14 -9 30 0 17 4 30 10 30 5 0 12 16 16 35 3 19 10 35 15 35 5 0 9 25
9 55 0 30 -4 55 -10 55 -5 0 -10 9 -10 20 0 11 5 20 10 20 6 0 10 9 10 20 0
11 5 20 10 20 6 0 10 7 10 15 0 8 5 15 10 15 6 0 10 14 10 30 0 17 5 30 10 30
6 0 10 9 10 20 0 12 11 32 25 46 14 14 25 34 25 44 0 16 7 20 30 20 17 0 30 5
30 10 0 19 39 10 45 -10 3 -11 11 -20 16 -20 5 0 9 -25 9 -55 0 -30 5 -55 10
-55 6 0 10 -20 10 -45 0 -25 5 -45 10 -45 6 0 10 -9 10 -20 0 -11 5 -20 10
-20 6 0 10 -20 10 -45 0 -25 5 -45 10 -45 6 0 10 -9 10 -20 0 -11 4 -20 9 -20
5 0 12 -16 15 -35 4 -19 11 -35 16 -35 6 0 10 -9 10 -20 0 -11 5 -20 10 -20 6
0 10 -9 10 -20 0 -11 5 -20 10 -20 6 0 10 -18 10 -40 0 -29 7 -48 23 -65 12
-13 27 -30 34 -37 23 -25 42 -38 55 -38 8 0 20 -9 28 -20 8 -11 25 -20 37 -20
13 0 23 -4 23 -10 0 -5 9 -10 20 -10 11 0 20 5 20 10 0 6 9 10 20 10 11 0 20
5 20 10 0 6 11 10 25 10 14 0 25 5 25 10 0 6 12 10 26 10 17 0 38 12 60 35 25
27 41 35 68 35 20 0 36 5 36 10 0 6 6 10 13 10 7 0 19 9 27 19 7 11 31 23 52
26 21 4 38 11 38 16 0 5 7 9 15 9 8 0 15 5 15 10 0 6 14 10 30 10 17 0 30 5
30 10 0 6 11 10 25 10 14 0 25 5 25 10 0 6 14 10 30 10 17 0 30 5 30 10 0 6
11 10 24 10 13 0 26 5 28 10 2 6 29 14 61 17 31 3 57 10 57 14 0 5 11 9 25 9
14 0 25 5 25 10 0 6 20 10 45 10 25 0 45 5 45 10 0 6 7 10 16 10 9 0 25 10 35
22 15 16 30 21 66 21 27 0 49 -5 51 -11 2 -8 36 -12 103 -12 59 0 99 -4 99
-10 0 -5 14 -10 30 -10 17 0 30 -4 30 -10 0 -5 9 -10 20 -10 11 0 20 5 20 10
0 6 7 10 15 10 8 0 15 5 15 10 0 6 14 10 30 10 17 0 30 -4 30 -10 0 -5 20 -10
45 -10 25 0 45 -4 45 -10 0 -6 38 -10 95 -10 57 0 95 -4 95 -10 0 -5 16 -10
35 -10 19 0 35 -4 35 -9 0 -5 20 -12 45 -15 25 -4 45 -11 45 -17 0 -5 14 -9
30 -9 17 0 30 5 30 10 0 6 11 10 25 10 14 0 25 -4 25 -10 0 -6 27 -10 61 -10
55 0 64 -3 89 -30 15 -16 35 -30 44 -30 9 0 16 -4 16 -10 0 -5 7 -10 15 -10 8
0 15 -7 15 -15 0 -10 10 -15 30 -15 17 0 30 -4 30 -10 0 -5 15 -10 33 -10 21
0 38 -7 47 -20 9 -13 26 -20 47 -20 18 0 33 -4 33 -10 0 -5 21 -10 46 -10 27
0 51 -6 60 -15 9 -8 26 -15 40 -15 13 0 24 -4 24 -10 0 -5 16 -10 35 -10 19 0
35 -4 35 -10 0 -5 17 -10 38 -10 26 0 42 -6 52 -20 9 -13 26 -20 47 -20 18 0
33 -4 33 -10 0 -5 9 -10 20 -10 11 0 20 -4 20 -9 0 -4 48 -11 108 -15 59 -4
109 -11 110 -16 5 -13 169 -13 174 -1 2 5 61 11 132 13 87 3 131 8 134 16 2 7
12 12 23 12 10 0 19 5 19 10 0 6 14 10 30 10 17 0 30 5 30 10 0 6 25 10 55 10
30 0 55 5 55 10 0 6 11 10 25 10 14 0 25 5 25 10 0 6 9 10 20 10 11 0 20 4 20
9 0 5 18 11 41 15 30 5 52 17 79 46 21 22 48 40 59 40 12 0 21 4 21 9 0 4 18
11 40 14 28 3 49 15 69 36 22 24 38 31 65 31 20 0 36 5 36 10 0 6 7 10 15 10
8 0 15 5 15 10 0 6 12 10 26 10 17 0 38 12 60 35 18 19 40 35 48 35 9 0 16 5
16 10 0 6 7 10 16 10 18 0 44 23 44 39 0 6 7 11 15 11 8 0 15 5 15 10 0 6 14
10 30 10 17 0 30 5 30 10 0 6 5 10 10 10 11 0 100 85 100 95 0 9 27 35 35 35
4 0 19 13 33 28 15 16 39 32 55 36 15 3 27 11 27 16 0 5 16 25 35 44 19 20 35
42 35 50 0 8 8 17 18 20 10 3 24 16 32 27 14 21 68 75 125 127 14 12 25 31 25
40 0 10 10 24 21 32 12 8 27 21 35 28 7 6 20 12 29 12 19 0 45 23 45 40 0 14
57 70 71 70 5 0 9 9 9 20 0 11 5 20 10 20 11 0 60 45 60 55 0 3 16 21 35 41
19 19 35 39 35 44 0 6 7 10 15 10 9 0 27 10 40 23 44 41 54 47 75 47 12 0 20
7 20 16 0 16 55 74 71 74 5 0 9 9 9 20 0 11 5 20 11 20 6 0 24 14 39 30 17 18
38 30 54 30 14 0 26 4 26 9 0 5 11 12 25 15 16 4 25 13 25 26 0 13 7 20 20 20
11 0 20 5 20 10 0 6 11 10 25 10 14 0 25 5 25 10 0 6 9 10 20 10 11 0 20 5 20
10 0 6 9 10 20 10 11 0 20 5 20 10 0 6 32 10 75 10 43 0 75 -4 75 -10 0 -5 11
-10 25 -10 14 0 25 5 25 10 0 6 16 10 35 10 19 0 35 -4 35 -10 0 -6 42 -10
105 -10 63 0 105 4 105 10 0 6 20 10 45 10 25 0 45 -4 45 -10 0 -5 14 -10 30
-10 17 0 30 -4 30 -10 0 -5 5 -10 11 -10 6 0 28 -18 49 -40 21 -22 46 -40 55
-40 8 0 18 -7 21 -15 4 -10 20 -15 45 -15 21 0 39 -4 39 -10 0 -5 7 -10 15
-10 8 0 15 -4 15 -10 0 -5 14 -10 30 -10 17 0 30 -4 30 -10 0 -5 16 -10 35
-10 19 0 35 -4 35 -10 0 -5 13 -10 29 -10 16 0 31 -5 33 -11 2 -6 41 -13 86
-16 45 -3 82 -10 82 -14 0 -5 11 -9 25 -9 14 0 25 -4 25 -10 0 -5 9 -10 20
-10 11 0 20 -4 20 -10 0 -5 5 -10 11 -10 7 0 19 -8 28 -19 14 -16 35 -19 140
-23 84 -3 126 -8 129 -16 2 -7 21 -12 43 -12 21 0 39 -4 39 -10 0 -5 11 -10
25 -10 14 0 25 -4 25 -10 0 -5 18 -10 40 -10 22 0 40 -4 40 -10 0 -5 25 -10
55 -10 30 0 55 5 55 10 0 6 20 10 45 10 25 0 45 -4 45 -10 0 -5 25 -10 55 -10
30 0 55 -4 55 -10 0 -6 35 -10 85 -10 50 0 85 4 85 10 0 6 11 10 25 10 14 0
25 -4 25 -10 0 -5 20 -10 45 -10 25 0 45 5 45 10 0 6 14 10 30 10 17 0 30 5
30 10 0 6 20 10 45 10 25 0 45 -4 45 -10 0 -6 28 -10 65 -10 37 0 65 -4 65
-10 0 -6 28 -10 65 -10 37 0 65 4 65 10 0 6 35 10 85 10 50 0 85 -4 85 -10 0
-5 25 -10 55 -10 30 0 55 -4 55 -10 0 -5 16 -10 35 -10 19 0 35 5 35 10 0 6
14 10 30 10 17 0 30 5 30 10 0 6 20 10 45 10 25 0 45 -4 45 -10 0 -6 37 -10
90 -10 53 0 90 4 90 10 0 6 42 10 105 10 63 0 105 4 105 10 0 6 7 10 15 10 8
0 15 5 15 10 0 6 9 10 20 10 11 0 20 5 20 10 0 6 25 10 55 10 30 0 55 4 55 9
0 5 53 10 117 13 77 3 118 8 121 16 2 8 32 12 88 12 49 0 84 4 84 10 0 6 11
10 25 10 14 0 25 5 25 10 0 6 9 10 20 10 11 0 20 5 20 10 0 6 20 10 45 10 25
0 45 4 45 9 0 4 42 11 93 15 50 4 94 11 95 16 2 6 8 10 14 10 5 0 23 14 38 30
22 24 36 30 69 30 23 0 41 5 41 10 0 6 9 10 20 10 11 0 20 4 20 10 0 5 12 13
28 16 15 4 34 15 43 26 9 10 20 18 25 18 5 0 16 9 24 20 8 11 22 20 32 20 10
0 18 5 18 10 0 6 7 10 15 10 8 0 15 5 15 10 0 6 9 10 20 10 10 0 35 16 54 35
20 19 43 35 53 35 10 0 25 9 33 20 8 11 22 20 32 20 10 0 18 5 18 11 0 6 6 17
13 24 29 34 37 45 37 55 0 17 26 40 44 40 9 0 16 -4 16 -10 0 -5 20 -10 45
-10 25 0 45 4 45 9 0 5 16 12 35 15 19 4 35 11 35 16 0 15 30 12 46 -5 9 -8
24 -15 35 -15 10 0 19 -4 19 -10 0 -6 37 -10 90 -10 53 0 90 -4 90 -10 0 -5 7
-10 15 -10 19 0 65 -44 65 -62 0 -15 35 -48 51 -48 6 0 30 -20 53 -45 42 -44
45 -45 104 -45 35 0 62 -4 62 -10 0 -5 8 -10 18 -10 10 0 24 -9 32 -20 8 -11
22 -20 32 -20 10 0 18 -4 18 -10 0 -5 7 -10 15 -10 8 0 15 -4 15 -10 0 -5 9
-10 20 -10 11 0 20 -4 20 -10 0 -5 25 -10 55 -10 48 0 55 2 55 20 0 11 5 20
10 20 6 0 10 7 10 16 0 19 -56 74 -76 74 -8 0 -14 5 -14 10 0 6 -7 10 -16 10
-9 0 -29 14 -44 30 -15 17 -33 30 -38 30 -6 0 -12 5 -14 11 -2 7 -37 14 -83
17 -84 5 -105 16 -105 54 0 13 -9 30 -20 38 -11 8 -23 29 -26 47 -4 22 -12 33
-23 33 -9 0 -23 9 -31 20 -8 11 -22 20 -32 20 -10 0 -18 4 -18 10 0 5 -16 12
-35 16 -19 3 -35 10 -35 15 0 5 -7 9 -16 9 -17 0 -54 36 -54 52 0 4 -27 8 -60
8 -33 0 -60 4 -60 10 0 6 -20 10 -45 10 -25 0 -45 5 -45 10 0 6 -11 10 -25 10
-14 0 -25 -4 -25 -10 0 -5 -18 -10 -40 -10 -22 0 -40 -4 -40 -10 0 -6 -28 -10
-65 -10 -37 0 -65 -4 -65 -10 0 -5 -7 -10 -15 -10 -8 0 -15 -4 -15 -10 0 -5
-9 -10 -20 -10 -11 0 -20 -4 -20 -10 0 -5 -7 -10 -16 -10 -9 0 -40 -25 -69
-55 -30 -30 -59 -55 -65 -55 -6 0 -18 -7 -26 -15 -9 -8 -26 -15 -40 -15 -15 0
-24 -6 -24 -16 0 -20 -24 -44 -44 -44 -9 0 -16 -4 -16 -10 0 -5 -7 -10 -15
-10 -8 0 -15 -4 -15 -10 0 -5 -13 -10 -30 -10 -16 0 -30 -4 -30 -9 0 -5 -16
-12 -35 -15 -19 -4 -35 -11 -35 -16 0 -6 -9 -10 -20 -10 -11 0 -20 -4 -20 -10
0 -5 -9 -10 -20 -10 -11 0 -20 -4 -20 -10 0 -5 -16 -10 -35 -10 -19 0 -35 -4
-35 -10 0 -5 -16 -10 -35 -10 -19 0 -35 -4 -35 -9 0 -4 -51 -11 -112 -15 -62
-4 -114 -11 -116 -17 -2 -5 -19 -9 -38 -9 -19 0 -34 -4 -34 -10 0 -5 -13 -10
-30 -10 -16 0 -30 -4 -30 -10 0 -6 -27 -10 -60 -10 -33 0 -60 -4 -60 -10 0 -5
-12 -10 -26 -10 -15 0 -34 -8 -43 -18 -11 -13 -37 -21 -86 -26 -38 -4 -71 -11
-73 -16 -2 -6 -19 -10 -37 -10 -18 0 -36 -6 -39 -12 -5 -10 -7 -10 -12 0 -7
15 -114 17 -114 2 0 -5 -16 -10 -35 -10 -19 0 -35 -4 -35 -10 0 -5 -22 -10
-50 -10 -27 0 -50 -4 -50 -10 0 -5 -7 -10 -15 -10 -8 0 -15 5 -15 10 0 6 -22
10 -50 10 -27 0 -50 -4 -50 -10 0 -6 -43 -10 -110 -10 -67 0 -110 -4 -110 -10
0 -6 -47 -10 -120 -10 -73 0 -120 4 -120 10 0 6 -28 10 -65 10 -37 0 -65 -4
-65 -10 0 -6 -47 -10 -120 -10 -73 0 -120 4 -120 10 0 6 -7 10 -15 10 -8 0
-15 -4 -15 -10 0 -5 -9 -10 -20 -10 -11 0 -20 5 -20 10 0 6 -16 10 -35 10 -19
0 -35 -4 -35 -10 0 -5 -18 -10 -40 -10 -22 0 -40 -4 -40 -10 0 -5 -23 -10 -51
-10 -44 0 -55 4 -79 30 -26 28 -33 30 -102 30 -62 0 -76 3 -88 20 -8 12 -26
20 -42 20 -15 0 -28 5 -28 10 0 6 -33 10 -80 10 -71 0 -82 3 -104 25 -14 14
-32 25 -41 25 -8 0 -15 5 -15 10 0 6 -16 10 -35 10 -19 0 -35 -4 -35 -10 0 -5
-15 -10 -34 -10 -19 0 -37 -6 -40 -12 -5 -10 -7 -10 -12 0 -3 6 -18 12 -33 12
-15 0 -33 9 -41 20 -11 15 -26 20 -57 20 -24 0 -43 5 -43 10 0 6 -9 10 -20 10
-11 0 -20 5 -20 10 0 6 -20 10 -44 10 -26 0 -51 6 -60 15 -8 8 -18 15 -23 15
-5 0 -15 9 -23 20 -10 14 -26 20 -52 20 -21 0 -38 5 -38 10 0 6 -11 10 -24 10
-13 0 -26 5 -28 11 -2 6 -32 13 -66 16 -34 3 -62 10 -62 14 0 5 -27 9 -61 9
-55 0 -64 3 -89 30 -24 26 -35 30 -79 30 -28 0 -51 5 -51 10 0 6 -16 10 -35
10 -19 0 -35 4 -35 9 0 4 -28 11 -62 15 -35 3 -64 11 -66 16 -2 6 -67 10 -163
10 -99 0 -159 4 -159 10 0 6 -16 10 -35 10 -19 0 -35 -4 -35 -10 0 -5 -9 -10
-20 -10 -11 0 -20 -7 -20 -15 0 -8 -7 -15 -15 -15 -8 0 -15 -4 -15 -10 0 -5
-22 -10 -50 -10 -27 0 -50 -4 -50 -10 0 -5 -7 -10 -15 -10 -8 0 -15 -4 -15
-10 0 -5 -8 -10 -18 -10 -10 0 -24 -9 -32 -20 -8 -11 -22 -20 -32 -20 -10 0
-18 -4 -18 -9 0 -5 -11 -12 -25 -15 -14 -4 -25 -11 -25 -16 0 -6 -7 -10 -16
-10 -9 0 -29 -13 -44 -30 -15 -16 -31 -30 -34 -30 -16 0 -146 -130 -146 -145
0 -7 -68 -75 -75 -75 -10 0 -75 -69 -75 -80 0 -5 -9 -10 -20 -10 -11 0 -20 -4
-20 -8 0 -16 -37 -52 -54 -52 -9 0 -16 -5 -16 -10 0 -14 -46 -60 -60 -60 -5 0
-10 -8 -10 -17 0 -10 -14 -29 -31 -43 -30 -25 -43 -38 -107 -105 -18 -19 -42
-35 -52 -35 -12 0 -20 -7 -20 -16 0 -8 -7 -22 -15 -30 -8 -9 -15 -29 -15 -45
0 -16 -4 -29 -10 -29 -5 0 -10 -5 -10 -10 0 -20 -90 -101 -120 -106 -19 -4
-30 -13 -30 -23 0 -9 -9 -23 -20 -31 -11 -8 -20 -21 -20 -29 0 -7 -16 -28 -35
-47 -19 -18 -35 -40 -35 -48 0 -9 -7 -16 -16 -16 -9 0 -29 -13 -44 -30 -19
-21 -38 -30 -59 -30 -19 0 -39 -9 -55 -25 -14 -14 -29 -25 -33 -25 -5 0 -15
-9 -23 -20 -11 -15 -26 -20 -63 -20 -27 0 -55 -6 -62 -12 -35 -32 -45 -38 -60
-38 -8 0 -15 -4 -15 -8 0 -16 -37 -52 -54 -52 -9 0 -16 -4 -16 -10 0 -5 -7
-10 -16 -10 -9 0 -27 -11 -40 -25 -16 -18 -34 -25 -59 -25 -19 0 -35 -4 -35
-10 0 -5 -11 -10 -25 -10 -14 0 -25 -4 -25 -10 0 -5 -13 -10 -30 -10 -16 0
-30 -4 -30 -10 0 -5 -11 -10 -25 -10 -14 0 -25 -4 -25 -10 0 -5 -23 -12 -50
-16 -27 -4 -50 -10 -50 -15 0 -5 -7 -9 -15 -9 -8 0 -15 -4 -15 -10 0 -5 -22
-10 -50 -10 -27 0 -50 -4 -50 -10 0 -5 -16 -10 -35 -10 -19 0 -35 -4 -35 -10
0 -5 -9 -10 -20 -10 -11 0 -20 -4 -20 -10 0 -6 -40 -10 -100 -10 -60 0 -100
-4 -100 -10 0 -6 -49 -10 -128 -10 -116 0 -129 2 -142 20 -8 11 -25 20 -37 20
-13 0 -23 5 -23 10 0 6 -8 10 -18 10 -10 0 -24 9 -32 20 -11 15 -26 20 -57 20
-24 0 -43 4 -43 9 0 4 -19 11 -42 14 -24 3 -44 11 -46 16 -2 7 -40 11 -98 11
-56 0 -94 4 -94 10 0 6 -7 10 -15 10 -8 0 -15 5 -15 10 0 6 -9 10 -20 10 -11
0 -20 5 -20 10 0 6 -18 10 -40 10 -22 0 -40 4 -40 9 0 4 -39 11 -86 15 -79 6
-89 9 -114 36 -19 21 -38 30 -59 30 -17 0 -31 5 -31 10 0 6 -9 10 -20 10 -11
0 -20 5 -20 10 0 6 -20 10 -45 10 -25 0 -45 4 -45 9 0 5 -45 13 -100 16 -55 4
-100 11 -100 16 0 5 -22 9 -50 9 -27 0 -50 5 -50 10 0 6 -11 10 -25 10 -14 0
-25 5 -25 10 0 6 -9 10 -20 10 -11 0 -20 5 -20 10 0 6 -46 10 -119 10 -66 0
-121 4 -123 9 -5 16 -400 19 -406 3 -2 -6 -10 -12 -18 -12 -8 0 -14 -4 -14
-10 0 -6 -47 -10 -120 -10 -73 0 -120 -4 -120 -10 0 -5 -22 -10 -50 -10 -27 0
-50 -4 -50 -10 0 -5 -5 -10 -11 -10 -6 0 -17 -7 -25 -15 -9 -9 -34 -15 -60
-15 -24 0 -44 -4 -44 -10 0 -5 -13 -10 -30 -10 -16 0 -30 -4 -30 -10 0 -5 -9
-10 -20 -10 -11 0 -20 -4 -20 -10 0 -8 -44 -55 -84 -87 -18 -15 -56 -17 -56
-4 0 5 -9 13 -20 16 -11 3 -20 15 -20 26 0 10 -4 19 -10 19 -5 0 -10 7 -10 16
0 9 -20 35 -45 60 -25 24 -45 48 -45 54 0 15 -78 90 -93 90 -7 0 -19 9 -27 20
-8 11 -22 20 -32 20 -10 0 -18 5 -18 10 0 6 -6 10 -13 10 -7 0 -19 9 -27 20
-8 11 -22 20 -32 20 -10 0 -18 5 -18 11 0 6 -13 23 -28 37 -16 15 -32 39 -36
55 -3 15 -10 27 -15 27 -16 0 -71 58 -71 74 0 9 -4 16 -10 16 -5 0 -10 11 -10
25 0 13 -11 35 -25 49 -14 14 -25 31 -25 38 0 8 -9 20 -20 28 -11 8 -20 23
-20 33 0 10 -10 29 -22 42 -44 46 -48 54 -48 95 0 22 -4 40 -10 40 -5 0 -10 9
-10 20 0 13 -9 22 -27 26 -35 9 -43 20 -43 67 0 20 -4 37 -10 37 -6 0 -10 28
-10 64 0 42 -4 66 -12 69 -10 4 -10 6 0 6 9 1 12 31 12 116 0 70 4 115 10 115
6 0 10 20 10 45 0 34 6 50 25 69 20 20 25 35 25 76 0 27 5 50 10 50 6 0 10 11
10 25 0 14 5 25 10 25 6 0 10 18 10 40 0 22 5 40 10 40 6 0 10 16 10 35 0 19
-4 35 -10 35 -5 0 -10 25 -10 55 0 30 4 55 9 55 5 0 12 15 15 33 3 18 15 39
26 47 11 8 20 22 20 32 0 11 7 18 20 18 18 0 20 7 20 85 0 50 4 85 10 85 6 0
10 15 10 34 0 19 6 36 13 39 17 5 17 319 -1 325 -14 4 -16 62 -2 62 6 0 10 50
10 130 0 80 -4 130 -10 130 -6 0 -10 37 -10 90 0 53 -4 90 -10 90 -6 0 -10 32
-10 75 0 43 -4 75 -10 75 -5 0 -10 11 -10 25 0 14 5 25 10 25 6 0 10 47 10
120 0 73 -4 120 -10 120 -6 0 -10 27 -10 60 0 33 -4 60 -10 60 -5 0 -10 16
-10 35 0 19 -4 35 -10 35 -5 0 -10 25 -10 55 0 30 -4 55 -9 55 -6 0 -13 20
-17 45 -3 25 -10 45 -15 45 -5 0 -9 23 -9 50 0 28 -4 50 -10 50 -5 0 -10 14
-10 30 0 23 -11 41 -40 70 -23 22 -47 40 -55 40 -8 0 -15 5 -15 10 0 16 -13
11 -37 -15z"/>
<path d="M1525 11543 c0 -84 -3 -117 -12 -120 -7 -3 -13 -13 -13 -24 0 -10 -4
-19 -10 -19 -6 0 -10 -32 -10 -75 0 -69 2 -75 20 -75 15 0 22 9 27 30 3 17 9
30 14 30 5 0 9 41 9 90 0 53 4 90 10 90 6 0 10 23 10 50 0 28 -4 50 -10 50 -5
0 -10 11 -10 25 0 14 5 25 10 25 6 0 10 5 10 10 0 6 -9 10 -19 10 -11 0 -21 5
-23 10 -1 6 -3 -42 -3 -107z"/>
<path d="M11350 6520 c0 -13 -7 -20 -20 -20 -11 0 -20 -7 -20 -15 0 -8 -4 -15
-10 -15 -5 0 -10 -9 -10 -20 0 -11 -4 -20 -10 -20 -5 0 -10 -9 -10 -19 0 -11
-6 -22 -12 -25 -10 -5 -10 -7 0 -12 6 -3 12 -12 12 -20 0 -8 5 -14 10 -14 6 0
10 -18 10 -40 0 -37 -3 -41 -30 -46 -16 -4 -30 -11 -30 -16 0 -10 -14 1 -65
50 -19 17 -38 32 -42 32 -5 0 -15 9 -23 20 -11 15 -26 20 -63 20 -33 0 -49 5
-53 15 -4 8 -15 15 -25 15 -10 0 -19 5 -19 10 0 6 -9 10 -20 10 -11 0 -20 5
-20 10 0 6 -32 10 -75 10 -43 0 -75 -4 -75 -10 0 -5 -10 -10 -23 -10 -12 0
-29 -9 -37 -19 -7 -11 -32 -23 -54 -27 -23 -3 -48 -15 -57 -25 -9 -11 -24 -19
-33 -19 -9 0 -16 -8 -16 -19 0 -11 -6 -22 -12 -25 -10 -5 -10 -7 0 -12 6 -3
12 -17 12 -30 0 -13 5 -24 10 -24 6 0 10 -18 10 -40 0 -22 5 -40 10 -40 6 0
10 -14 10 -30 0 -37 35 -76 77 -86 15 -4 35 -15 44 -26 13 -15 31 -18 98 -18
47 0 81 -4 81 -10 0 -5 5 -10 11 -10 6 0 24 -14 39 -30 22 -24 40 -32 79 -37
28 -3 51 -10 51 -14 0 -5 8 -9 18 -9 10 0 24 -9 32 -20 8 -11 18 -20 23 -20 4
0 19 -10 32 -22 64 -59 75 -68 82 -68 5 0 15 -9 23 -20 8 -11 21 -20 30 -20 9
0 22 -9 30 -20 8 -11 24 -20 36 -20 13 0 29 -7 38 -15 8 -8 21 -15 28 -15 8 0
20 -10 28 -21 17 -24 63 -71 108 -109 17 -14 33 -37 36 -52 3 -15 14 -29 26
-33 11 -3 20 -15 20 -26 0 -10 5 -19 10 -19 6 0 10 -9 10 -20 0 -11 5 -20 10
-20 6 0 10 -9 10 -19 0 -11 9 -23 20 -26 11 -3 20 -15 20 -25 0 -10 7 -25 15
-34 8 -8 15 -22 15 -30 0 -9 5 -16 10 -16 6 0 10 -7 10 -15 0 -8 5 -15 10 -15
6 0 10 -22 10 -50 0 -27 5 -50 10 -50 6 0 10 -20 10 -45 0 -25 5 -45 10 -45 6
0 10 -28 10 -65 0 -37 -4 -65 -10 -65 -5 0 -10 -7 -10 -15 0 -8 -4 -15 -10
-15 -5 0 -10 -8 -10 -18 0 -10 -9 -24 -20 -32 -11 -8 -20 -22 -20 -32 0 -10
-7 -18 -15 -18 -8 0 -15 -4 -15 -10 0 -5 -9 -10 -20 -10 -10 0 -30 -11 -44
-25 -14 -14 -32 -25 -40 -25 -8 0 -18 -9 -21 -20 -3 -11 -13 -20 -21 -20 -9 0
-22 -7 -30 -15 -9 -8 -28 -15 -44 -15 -20 0 -31 -6 -35 -20 -3 -11 -15 -20
-26 -20 -10 0 -19 -4 -19 -10 0 -5 -13 -10 -30 -10 -16 0 -30 -4 -30 -10 0 -5
-5 -10 -11 -10 -7 0 -19 -8 -28 -18 -10 -12 -35 -21 -66 -25 -27 -3 -51 -10
-53 -16 -2 -6 -17 -11 -33 -11 -16 0 -29 -4 -29 -10 0 -5 -11 -10 -25 -10 -14
0 -25 -4 -25 -10 0 -5 -13 -10 -30 -10 -16 0 -30 -4 -30 -10 0 -5 -9 -10 -19
-10 -10 0 -21 -7 -25 -15 -3 -8 -15 -15 -26 -15 -11 0 -20 -4 -20 -10 0 -5
-15 -10 -33 -10 -21 0 -38 -7 -47 -20 -10 -14 -26 -20 -52 -20 -21 0 -38 -4
-38 -10 0 -5 -20 -10 -45 -10 -25 0 -45 -4 -45 -10 0 -5 -9 -10 -20 -10 -11 0
-20 -4 -20 -9 0 -5 -20 -12 -45 -15 -25 -4 -45 -11 -45 -17 0 -5 -11 -9 -25
-9 -14 0 -25 -4 -25 -10 0 -5 -18 -10 -40 -10 -22 0 -40 -4 -40 -10 0 -5 -9
-10 -20 -10 -11 0 -20 -4 -20 -10 0 -5 -24 -10 -54 -10 -30 0 -56 -5 -58 -10
-2 -7 -87 -13 -231 -17 -125 -3 -227 -10 -227 -15 0 -4 -29 -8 -65 -8 -36 0
-65 4 -65 9 0 6 -86 11 -207 13 -154 2 -207 6 -211 16 -2 7 -20 12 -43 12 -21
0 -39 5 -39 10 0 6 -32 10 -75 10 -73 0 -77 1 -110 34 -29 30 -40 34 -85 34
-44 1 -55 5 -80 32 -17 18 -30 27 -30 21 0 -6 -13 -11 -30 -11 -16 0 -30 -4
-30 -10 0 -5 -9 -10 -20 -10 -11 0 -20 5 -20 10 0 6 -7 10 -15 10 -8 0 -15 5
-15 10 0 6 -8 10 -18 10 -10 0 -24 9 -32 20 -8 11 -25 20 -37 20 -13 0 -23 4
-23 10 0 5 -12 13 -27 16 -16 4 -40 20 -55 36 -14 15 -29 28 -32 28 -4 0 -18
11 -32 25 -14 14 -34 25 -44 25 -11 0 -20 5 -20 10 0 14 -47 12 -54 -2 -5 -10
-7 -10 -12 0 -3 6 -13 12 -22 12 -9 0 -28 14 -42 31 -53 64 -93 99 -115 99 -8
0 -15 5 -15 10 0 6 -11 10 -25 10 -14 0 -25 5 -25 10 0 6 -11 10 -25 10 -28 0
-105 70 -105 95 0 23 -53 19 -70 -5 -11 -16 -26 -20 -67 -20 -43 0 -53 3 -58
20 -3 11 -13 20 -22 20 -8 0 -27 13 -42 29 -15 16 -41 32 -59 36 -18 3 -32 11
-32 16 0 5 -13 9 -30 9 -16 0 -30 5 -30 10 0 6 -9 10 -21 10 -11 0 -38 18 -59
40 -28 30 -46 40 -69 40 -23 0 -42 11 -75 45 -25 25 -50 45 -55 45 -5 0 -12 6
-14 13 -4 9 -8 8 -17 -3 -9 -11 -13 -12 -17 -2 -6 14 -73 17 -73 2 0 -16 -50
-12 -66 5 -9 8 -31 15 -50 15 -19 0 -34 5 -34 10 0 6 -9 10 -20 10 -13 0 -20
7 -20 18 0 10 -9 24 -20 32 -11 8 -20 25 -20 37 0 14 -6 23 -15 23 -8 0 -15 8
-15 18 0 10 -9 24 -20 32 -11 8 -20 22 -20 32 0 9 -9 20 -20 23 -11 3 -20 15
-20 26 0 10 -4 19 -9 19 -5 0 -13 9 -16 20 -3 11 -13 20 -21 20 -8 0 -26 11
-40 25 -38 38 -134 34 -134 -6 0 -10 -4 -19 -10 -19 -5 0 -10 -9 -10 -20 0
-11 -5 -20 -11 -20 -17 0 -39 -27 -39 -49 0 -12 -4 -21 -10 -21 -5 0 -10 -25
-10 -55 0 -30 -4 -55 -10 -55 -6 0 -10 -42 -10 -105 0 -63 -4 -105 -10 -105
-5 0 -10 -16 -10 -35 0 -19 -4 -35 -10 -35 -6 0 -10 -38 -10 -95 0 -57 4 -95
10 -95 6 0 10 -20 10 -45 0 -25 -4 -45 -10 -45 -5 0 -10 -7 -10 -15 0 -8 -4
-15 -10 -15 -6 0 -10 -27 -10 -60 0 -33 4 -60 10 -60 6 0 10 -65 10 -175 0
-110 4 -175 10 -175 6 0 10 -20 10 -45 0 -25 5 -45 10 -45 6 0 10 -11 10 -25
0 -14 5 -25 10 -25 6 0 10 -13 10 -30 0 -16 5 -30 10 -30 6 0 10 -9 10 -19 0
-11 5 -21 10 -23 6 -2 13 -21 17 -43 3 -22 14 -47 25 -56 10 -9 18 -20 18 -25
0 -5 9 -16 20 -24 11 -8 20 -22 20 -32 0 -10 5 -18 10 -18 6 0 10 -9 10 -20 0
-11 5 -20 10 -20 6 0 10 -7 10 -15 0 -8 11 -25 25 -39 14 -14 25 -30 25 -37 0
-13 38 -49 52 -49 4 0 8 -9 8 -19 0 -10 13 -33 29 -50 23 -25 37 -31 70 -31
l41 0 0 -65 c0 -57 3 -69 25 -90 13 -14 29 -25 35 -25 19 0 37 -24 45 -58 9
-45 -3 -112 -21 -112 -8 0 -26 -11 -40 -25 -19 -19 -35 -25 -69 -25 -25 0 -45
-4 -45 -10 0 -5 -7 -10 -16 -10 -17 0 -54 -36 -54 -52 0 -4 -9 -8 -20 -8 -11
0 -20 -4 -20 -9 0 -5 -25 -12 -55 -16 -30 -3 -55 -11 -55 -16 0 -5 -9 -9 -20
-9 -11 0 -20 -4 -20 -10 0 -5 -9 -10 -20 -10 -11 0 -20 -4 -20 -10 0 -5 -7
-10 -15 -10 -8 0 -15 -4 -15 -10 0 -5 -11 -10 -25 -10 -14 0 -37 -11 -51 -25
-17 -17 -36 -25 -59 -25 -19 0 -35 -4 -35 -10 0 -5 -20 -10 -45 -10 -25 0 -45
-4 -45 -10 0 -5 -20 -10 -45 -10 -25 0 -45 -4 -45 -10 0 -5 -22 -10 -50 -10
-27 0 -50 -4 -50 -10 0 -5 -11 -10 -25 -10 -14 0 -25 -4 -25 -9 0 -5 -38 -12
-85 -16 -47 -4 -85 -11 -85 -16 0 -5 -49 -9 -110 -9 -67 0 -110 -4 -110 -10 0
-5 -9 -10 -20 -10 -11 0 -20 -4 -20 -10 0 -17 -25 -11 -40 10 -12 16 -26 20
-76 20 -35 0 -64 5 -66 10 -2 6 -30 14 -63 17 -40 4 -65 12 -76 25 -13 14 -31
18 -78 18 -34 0 -61 4 -61 10 0 6 -9 10 -20 10 -11 0 -20 5 -20 10 0 6 -16 10
-35 10 -19 0 -35 4 -35 9 0 5 -9 12 -19 16 -12 3 -21 19 -26 42 -8 44 -26 63
-59 63 -14 0 -26 5 -26 10 0 6 -16 10 -35 10 -28 0 -43 9 -79 45 -25 25 -48
45 -51 45 -8 0 -35 27 -35 35 0 13 -50 55 -66 55 -9 0 -29 14 -44 30 -15 17
-35 30 -44 30 -9 0 -16 7 -16 15 0 8 -9 15 -19 15 -11 0 -23 9 -26 20 -3 11
-11 20 -16 20 -5 0 -9 7 -9 16 0 21 -20 39 -53 48 -15 3 -27 10 -27 15 0 13
-36 51 -49 51 -7 0 -23 11 -37 25 -14 14 -29 25 -34 25 -5 0 -12 9 -15 20 -3
11 -15 20 -26 20 -10 0 -19 5 -19 10 0 6 -7 10 -16 10 -24 0 -42 23 -50 65 -7
41 -43 85 -69 85 -8 0 -15 4 -15 9 0 5 -9 13 -20 16 -11 3 -20 15 -20 25 0 11
-16 35 -35 54 -19 20 -35 44 -35 56 0 13 -7 20 -20 20 -16 0 -20 7 -20 30 0
17 -4 30 -10 30 -5 0 -10 11 -10 24 0 33 -52 86 -84 86 -14 0 -26 -4 -26 -10
0 -5 -19 -10 -43 -10 -31 0 -46 -5 -57 -20 -8 -11 -25 -20 -37 -20 -20 0 -23
5 -23 38 0 27 -6 42 -21 52 -33 22 -69 60 -69 70 0 6 -9 10 -20 10 -11 0 -20
5 -20 10 0 6 -9 10 -20 10 -11 0 -20 5 -20 10 0 6 -11 10 -25 10 -14 0 -25 4
-25 9 0 5 -18 12 -40 16 -22 4 -40 11 -40 16 0 5 -7 9 -15 9 -8 0 -15 5 -15
10 0 6 -45 10 -115 10 -70 0 -115 4 -115 10 0 6 -25 10 -55 10 -30 0 -55 -4
-55 -10 0 -6 -28 -10 -63 -10 -53 0 -65 3 -77 21 -31 45 -65 69 -95 69 -14 0
-25 5 -25 10 0 6 -7 10 -15 10 -8 0 -15 5 -15 10 0 6 -9 10 -20 10 -11 0 -20
5 -20 10 0 6 -8 10 -18 10 -9 0 -26 11 -36 25 -12 16 -29 25 -45 25 -15 0 -33
9 -41 20 -8 11 -20 20 -27 20 -7 0 -13 5 -13 10 0 6 -9 10 -20 10 -11 0 -20 5
-20 10 0 6 -13 10 -30 10 -16 0 -30 5 -30 10 0 6 -37 10 -90 10 -55 0 -90 4
-90 10 0 6 -16 26 -35 45 l-34 35 -96 0 c-57 0 -95 4 -95 10 0 6 -35 10 -85
10 -50 0 -85 -4 -85 -10 0 -5 -7 -10 -15 -10 -8 0 -15 -4 -15 -10 0 -6 -45
-10 -115 -10 -70 0 -115 -4 -115 -10 0 -5 -10 -10 -21 -10 -12 0 -30 -9 -39
-20 -12 -14 -36 -23 -69 -27 -28 -3 -51 -10 -51 -14 0 -5 -13 -9 -30 -9 -16 0
-30 -4 -30 -10 0 -5 -7 -10 -15 -10 -8 0 -15 -4 -15 -10 0 -5 -9 -10 -20 -10
-11 0 -20 -4 -20 -10 0 -5 -18 -10 -40 -10 -41 0 -49 -4 -95 -47 -13 -13 -28
-23 -32 -23 -5 0 -15 -9 -23 -20 -8 -11 -22 -20 -32 -20 -10 0 -18 -4 -18 -10
0 -5 -16 -10 -35 -10 -19 0 -35 -4 -35 -9 0 -5 -17 -12 -37 -16 -38 -7 -73
-37 -73 -63 0 -18 -38 -52 -58 -52 -18 0 -72 -57 -72 -77 0 -18 -24 -43 -43
-43 -20 0 -57 -35 -57 -54 0 -9 -7 -16 -15 -16 -8 0 -15 -9 -15 -20 0 -11 -4
-20 -10 -20 -5 0 -10 -7 -10 -15 0 -8 -4 -15 -10 -15 -5 0 -10 -9 -10 -20 0
-11 -4 -20 -10 -20 -5 0 -10 -8 -10 -18 0 -9 -11 -26 -25 -36 -14 -10 -25 -26
-25 -35 0 -9 -9 -23 -20 -31 -11 -8 -20 -22 -20 -32 0 -10 -4 -18 -10 -18 -5
0 -10 -7 -10 -15 0 -8 -4 -15 -10 -15 -5 0 -10 -25 -10 -55 0 -30 -4 -55 -10
-55 -5 0 -10 -9 -10 -20 0 -11 -4 -20 -9 -20 -5 0 -13 -9 -16 -20 -3 -11 -13
-20 -21 -20 -17 0 -64 -44 -64 -60 0 -5 -4 -10 -10 -10 -5 0 -13 -12 -16 -27
-7 -27 -39 -63 -56 -63 -4 0 -8 -76 -8 -170 0 -93 3 -170 6 -170 5 0 38 34 73
76 6 7 11 18 11 24 0 5 5 10 10 10 6 0 10 7 10 15 0 9 16 31 35 51 21 21 35
44 35 59 0 14 5 25 10 25 6 0 10 9 10 20 0 11 5 20 10 20 6 0 10 16 10 35 0
19 5 35 10 35 6 0 10 13 10 28 0 25 9 37 48 61 8 5 16 35 19 70 3 33 10 61 14
61 5 0 9 9 9 20 0 11 5 20 10 20 6 0 10 9 10 20 0 12 7 20 16 20 22 0 42 22
50 56 4 16 15 36 26 45 10 9 18 24 18 33 0 9 5 16 10 16 6 0 10 5 10 10 0 9
28 42 78 92 39 40 63 58 77 58 8 0 15 5 15 10 0 6 7 10 15 10 8 0 15 5 15 10
0 6 7 10 15 10 9 0 27 10 40 23 43 40 54 47 72 47 10 0 25 9 33 20 8 12 26 20
42 20 15 0 28 5 28 10 0 6 27 10 60 10 33 0 60 4 60 10 0 6 9 10 20 10 11 0
20 4 20 9 0 4 19 11 42 14 24 3 44 11 46 16 2 6 31 11 68 11 36 0 64 4 64 10
0 6 14 10 30 10 17 0 30 5 30 10 0 6 9 10 20 10 12 0 32 11 46 25 14 14 34 25
44 25 13 0 20 7 20 20 0 18 7 20 55 20 30 0 55 -4 55 -10 0 -5 9 -10 20 -10
11 0 20 5 20 10 0 6 16 10 35 10 19 0 35 5 35 10 0 6 25 10 55 10 30 0 55 -4
55 -10 0 -5 14 -10 30 -10 17 0 30 -4 30 -10 0 -5 20 -10 44 -10 26 0 47 -5
50 -12 5 -10 7 -10 12 0 7 15 204 17 204 2 0 -5 9 -10 20 -10 11 0 20 -5 20
-10 0 -11 10 -25 47 -65 13 -13 23 -29 23 -35 0 -5 5 -10 10 -10 6 0 10 -7 10
-16 0 -8 6 -22 14 -30 16 -16 76 -19 76 -4 0 6 14 10 30 10 17 0 30 -4 30 -10
0 -5 5 -10 11 -10 15 0 39 -26 39 -43 0 -8 13 -17 30 -20 25 -6 30 -11 30 -37
0 -16 5 -30 10 -30 6 0 10 -20 10 -45 0 -25 5 -45 10 -45 6 0 10 -13 10 -30 0
-16 7 -35 15 -42 60 -50 93 -87 99 -111 4 -17 13 -27 25 -27 11 0 27 -7 35
-16 15 -14 17 -14 32 0 8 9 20 16 25 16 14 0 59 47 59 61 0 24 62 69 96 69 19
0 34 5 34 10 0 6 35 10 85 10 47 0 85 -4 85 -9 0 -5 20 -12 45 -15 25 -4 45
-11 45 -17 0 -5 11 -9 25 -9 14 0 25 -4 25 -10 0 -5 18 -10 40 -10 22 0 40 -4
40 -10 0 -5 9 -10 19 -10 11 0 23 -9 26 -20 5 -16 15 -20 46 -20 21 0 39 -4
39 -10 0 -5 11 -10 24 -10 14 0 31 -7 40 -15 8 -8 20 -15 26 -15 13 0 70 -57
70 -71 0 -5 12 -12 27 -15 16 -4 40 -20 55 -36 14 -15 31 -28 37 -28 6 0 11
-8 11 -18 0 -10 9 -24 20 -32 11 -8 20 -25 20 -37 0 -13 5 -23 10 -23 6 0 10
-9 10 -20 0 -11 5 -20 10 -20 6 0 10 -5 10 -11 0 -6 6 -17 13 -24 30 -34 37
-45 37 -57 0 -7 14 -24 31 -38 33 -27 49 -43 107 -106 21 -23 47 -43 58 -46
10 -2 20 -12 22 -22 5 -25 26 -46 46 -46 9 0 16 -8 16 -20 0 -13 7 -20 20 -20
11 0 20 -7 20 -15 0 -8 5 -15 10 -15 6 0 10 -9 10 -20 0 -11 7 -20 15 -20 8 0
15 -4 15 -10 0 -5 9 -10 20 -10 13 0 20 -7 20 -20 0 -11 5 -20 10 -20 6 0 10
-7 10 -15 0 -8 4 -15 9 -15 5 0 13 -9 16 -20 3 -11 15 -20 26 -20 10 0 19 -4
19 -10 0 -5 13 -10 29 -10 16 0 31 -5 33 -11 2 -5 22 -13 46 -16 23 -3 42 -10
42 -14 0 -5 9 -9 20 -9 13 0 20 -7 20 -20 0 -19 45 -70 89 -100 11 -8 21 -22
21 -32 0 -14 8 -18 35 -18 19 0 35 -4 35 -10 0 -5 9 -10 20 -10 11 0 20 -4 20
-9 0 -5 14 -11 30 -15 31 -6 80 -46 80 -66 0 -6 12 -23 27 -38 22 -21 38 -27
88 -30 56 -4 64 -2 88 22 14 14 31 26 37 26 6 0 26 -16 44 -35 26 -28 41 -35
70 -35 20 0 36 -4 36 -10 0 -6 30 -10 70 -10 40 0 70 4 70 10 0 6 27 10 61 10
40 0 65 5 75 15 9 8 24 15 35 15 10 0 19 5 19 10 0 6 32 10 75 10 43 0 75 4
75 10 0 6 25 10 55 10 30 0 55 5 55 10 0 6 16 10 35 10 19 0 35 5 35 10 0 6
14 10 30 10 17 0 30 5 30 10 0 6 7 10 15 10 8 0 15 4 15 9 0 5 18 12 40 16 22
4 40 11 40 16 0 5 16 9 35 9 19 0 35 5 35 10 0 6 27 10 60 10 56 0 63 3 96 35
32 33 39 35 97 35 52 0 65 3 77 21 30 43 48 59 64 59 9 0 16 5 16 10 0 6 9 10
19 10 11 0 21 5 23 10 2 6 21 13 43 17 22 3 47 14 56 25 9 10 25 18 35 18 11
0 26 9 34 20 8 11 22 20 31 20 10 0 19 5 21 11 2 5 22 13 46 16 23 3 42 10 42
14 0 5 9 9 20 9 11 0 20 5 20 10 0 6 16 10 35 10 28 0 35 -4 35 -20 0 -11 4
-20 8 -20 16 0 52 -37 52 -53 0 -17 45 -67 60 -67 6 0 10 -7 10 -16 0 -20 24
-44 44 -44 8 0 18 -9 21 -20 3 -11 15 -20 26 -20 10 0 19 -6 19 -13 0 -7 9
-19 20 -27 12 -8 20 -26 20 -42 0 -15 5 -28 10 -28 6 0 10 -11 10 -25 0 -14 5
-25 10 -25 6 0 10 -8 10 -18 0 -24 33 -62 54 -62 9 0 16 -7 16 -15 0 -8 9 -15
19 -15 11 0 23 -9 26 -20 4 -14 15 -20 36 -20 22 0 29 -5 29 -20 0 -13 7 -20
20 -20 15 0 20 -7 20 -25 0 -14 5 -25 11 -25 6 0 32 -23 59 -50 29 -30 61 -53
79 -56 17 -4 31 -10 31 -15 0 -5 9 -9 20 -9 11 0 20 -4 20 -10 0 -5 9 -10 19
-10 11 0 23 -9 26 -20 3 -11 13 -20 21 -20 8 0 26 -11 40 -25 14 -14 29 -25
34 -25 5 0 12 -9 15 -20 3 -11 13 -20 22 -20 8 0 27 -13 42 -29 15 -16 41 -32
59 -36 18 -3 32 -11 32 -16 0 -5 14 -9 30 -9 17 0 30 -4 30 -10 0 -5 11 -10
25 -10 14 0 25 -4 25 -10 0 -5 9 -10 20 -10 11 0 20 -4 20 -10 0 -5 9 -10 20
-10 11 0 20 -4 20 -10 0 -5 25 -10 55 -10 30 0 55 -4 55 -10 0 -5 11 -12 25
-16 14 -3 25 -10 25 -15 0 -5 13 -9 29 -9 16 0 32 -6 35 -12 5 -10 7 -10 12 0
7 14 34 16 34 2 0 -5 14 -10 30 -10 17 0 30 5 30 10 0 6 16 10 35 10 19 0 35
-4 35 -10 0 -5 14 -10 30 -10 17 0 30 -4 30 -10 0 -6 40 -10 100 -10 60 0 100
-4 100 -10 0 -20 72 -11 91 12 11 11 19 25 19 30 0 4 20 8 45 8 44 0 85 24 85
51 0 6 14 24 30 39 17 15 30 37 30 49 0 12 5 21 10 21 6 0 10 7 10 16 0 8 7
22 15 30 10 10 15 35 15 69 0 49 -4 58 -35 89 -19 20 -35 40 -35 46 0 5 -4 10
-10 10 -5 0 -10 9 -10 20 0 11 -4 20 -10 20 -5 0 -10 11 -10 25 0 14 -4 25
-10 25 -5 0 -13 12 -16 28 -4 15 -15 34 -26 43 -10 9 -18 23 -18 31 0 9 -13
18 -30 22 -24 4 -32 12 -36 36 -4 16 -10 30 -15 30 -5 0 -9 7 -9 16 0 20 -37
54 -59 54 -9 0 -23 10 -31 21 -8 12 -21 27 -27 35 -7 7 -13 20 -13 28 0 9 -8
16 -20 16 -10 0 -34 16 -52 34 -50 53 -58 64 -58 81 0 8 -4 15 -9 15 -18 0
-68 56 -75 83 -3 15 -10 27 -15 27 -13 0 -51 36 -51 49 0 7 -29 41 -65 76 -36
36 -65 70 -65 76 0 14 -39 49 -54 49 -7 0 -18 9 -26 20 -8 11 -20 20 -28 20
-18 0 -42 25 -42 44 0 9 -7 16 -15 16 -8 0 -15 5 -15 11 0 6 -18 28 -40 49
-22 21 -40 46 -40 54 0 9 -4 16 -10 16 -5 0 -10 6 -10 14 0 20 -55 76 -74 76
-9 0 -16 8 -16 20 0 11 -4 20 -10 20 -5 0 -10 7 -10 15 0 8 -4 15 -10 15 -5 0
-10 8 -10 18 0 24 -33 62 -54 62 -9 0 -16 5 -16 10 0 6 -15 26 -32 45 -43 44
-58 63 -58 70 0 12 -29 35 -44 35 -9 0 -16 8 -16 20 0 11 -4 20 -9 20 -5 0
-13 9 -16 20 -3 11 -13 20 -21 20 -8 0 -21 5 -28 11 -65 54 -76 69 -76 98 0
25 -15 45 -80 111 -67 68 -80 86 -80 113 0 21 -7 38 -20 47 -11 8 -20 20 -20
27 0 7 -4 13 -10 13 -5 0 -10 9 -10 20 0 11 -7 20 -15 20 -8 0 -15 9 -15 19 0
14 -10 21 -38 26 -21 3 -45 15 -52 26 -8 10 -18 19 -23 19 -14 0 -57 48 -57
65 0 8 -4 15 -10 15 -5 0 -10 25 -10 55 0 30 5 55 10 55 6 0 10 7 10 15 0 8 9
15 20 15 11 0 20 5 20 10 0 6 20 10 45 10 25 0 45 -4 45 -10 0 -5 9 -10 20
-10 11 0 20 -4 20 -10 0 -5 7 -10 15 -10 8 0 25 -11 39 -25 14 -14 31 -25 38
-25 12 0 25 -13 47 -48 5 -8 35 -16 70 -19 33 -3 61 -10 61 -14 0 -5 8 -9 18
-9 10 0 24 -9 32 -20 8 -11 22 -20 32 -20 9 0 20 -9 23 -20 3 -11 15 -20 26
-20 10 0 19 -4 19 -9 0 -5 28 -12 62 -16 63 -8 88 -21 88 -49 0 -9 5 -16 10
-16 6 0 10 -7 10 -15 0 -8 9 -24 20 -35 17 -17 33 -20 100 -20 47 0 80 -4 80
-10 0 -5 14 -10 31 -10 32 0 59 -19 59 -42 0 -8 9 -20 20 -28 11 -8 20 -20 20
-27 0 -20 97 -17 117 3 26 26 69 10 123 -46 l49 -50 71 0 c50 0 76 -4 86 -15
11 -10 36 -15 78 -15 50 0 64 -4 76 -20 8 -11 22 -20 32 -20 10 0 18 -4 18
-10 0 -5 11 -10 25 -10 14 0 25 5 25 10 0 6 25 10 55 10 30 0 55 -4 55 -10 0
-6 32 -10 75 -10 43 0 75 4 75 10 0 6 14 10 30 10 17 0 30 5 30 10 0 6 16 10
35 10 19 0 35 5 35 10 0 6 43 10 110 10 67 0 110 -4 110 -10 0 -5 14 -10 30
-10 17 0 30 -4 30 -10 0 -6 37 -10 90 -10 53 0 90 4 90 10 0 6 38 10 94 10 53
0 96 4 98 10 2 5 42 13 91 16 48 4 87 11 87 15 0 5 14 9 30 9 17 0 30 5 30 10
0 6 7 10 15 10 8 0 15 5 15 10 0 6 9 10 20 10 11 0 20 5 20 10 0 6 19 10 43
10 31 0 46 5 57 20 8 11 31 22 57 26 24 3 43 10 43 15 0 5 18 9 40 9 22 0 40
5 40 10 0 6 9 10 19 10 11 0 23 9 26 20 4 14 15 20 36 20 16 0 29 5 29 10 0 6
9 10 20 10 11 0 20 4 20 8 0 5 44 12 97 15 54 4 99 11 101 17 2 5 12 10 22 10
10 0 22 9 25 20 3 11 15 20 26 20 10 0 19 5 19 10 0 6 18 10 40 10 22 0 40 4
40 10 0 5 16 12 35 16 19 3 35 10 35 15 0 5 9 9 20 9 11 0 20 5 20 10 0 6 7
10 15 10 8 0 15 5 15 10 0 6 7 10 16 10 20 0 44 24 44 44 0 9 5 16 10 16 6 0
10 7 10 15 0 8 7 15 15 15 8 0 15 -4 15 -10 0 -6 27 -10 60 -10 33 0 60 4 60
10 0 6 5 10 11 10 6 0 24 14 39 30 15 17 35 30 43 30 9 0 17 5 19 10 2 6 21
13 43 17 22 3 47 14 56 25 9 10 19 18 23 18 11 0 76 68 76 80 0 5 5 10 10 10
6 0 10 14 10 30 0 17 4 30 9 30 5 0 13 10 17 23 4 12 15 29 25 38 11 9 19 24
19 33 0 9 5 16 10 16 6 0 10 13 10 29 0 21 6 32 20 36 13 4 20 15 20 31 0 29
21 54 45 54 24 0 45 -25 45 -54 0 -16 7 -27 20 -31 11 -3 20 -15 20 -25 0 -11
11 -30 25 -44 14 -14 25 -32 25 -41 0 -8 5 -15 10 -15 6 0 10 -15 10 -33 0
-21 7 -38 20 -47 11 -8 20 -20 20 -27 0 -7 4 -13 10 -13 5 0 13 -12 16 -27 4
-16 15 -35 26 -44 10 -9 18 -25 18 -35 0 -11 9 -26 20 -34 11 -8 20 -22 20
-32 0 -10 5 -18 10 -18 6 0 10 -9 10 -20 0 -11 5 -20 10 -20 6 0 10 -7 10 -15
0 -8 7 -15 15 -15 9 0 15 -10 15 -26 0 -16 12 -37 30 -54 21 -19 30 -37 30
-59 0 -17 5 -31 10 -31 6 0 10 -9 10 -20 0 -11 7 -20 15 -20 8 0 15 -7 15 -15
0 -8 5 -15 10 -15 6 0 10 -9 10 -20 0 -11 5 -20 10 -20 6 0 10 -13 10 -30 0
-16 5 -30 10 -30 6 0 10 -5 10 -10 0 -6 11 -22 25 -36 15 -15 25 -36 25 -54 0
-20 6 -31 20 -35 14 -4 20 -15 20 -33 0 -16 8 -34 20 -42 11 -8 20 -25 20 -37
0 -13 4 -23 9 -23 5 0 13 -9 16 -20 5 -16 15 -20 51 -20 47 0 74 -16 74 -44 0
-20 36 -21 56 -2 8 8 14 21 14 28 0 8 9 20 20 28 11 8 20 23 20 33 0 9 7 20
15 23 8 4 15 14 15 23 0 9 9 23 20 31 20 15 28 60 10 60 -5 0 -10 9 -10 20 0
11 -4 20 -10 20 -6 0 -10 31 -10 74 0 51 -4 76 -12 79 -17 5 -15 270 1 275 6
2 11 10 11 18 0 8 5 14 10 14 6 0 10 14 10 30 0 17 5 30 10 30 6 0 10 11 10
25 0 14 5 25 10 25 6 0 10 18 10 40 0 22 5 40 10 40 6 0 10 16 10 35 0 19 4
35 9 35 4 0 11 32 15 72 5 53 11 75 26 88 11 10 20 25 20 34 0 9 4 16 9 16 16
0 71 57 71 74 0 16 31 50 69 76 11 8 21 22 21 32 0 10 4 18 9 18 5 0 12 16 15
35 4 19 11 35 16 35 6 0 10 14 10 30 0 17 5 30 10 30 6 0 10 9 10 20 0 11 5
20 10 20 6 0 10 5 10 10 0 6 16 26 35 46 19 19 35 39 35 44 0 5 9 12 20 15 11
3 20 15 20 26 0 12 7 19 20 19 11 0 20 5 20 10 0 6 5 10 10 10 14 0 60 46 60
60 0 5 5 10 10 10 6 0 10 7 10 16 0 9 14 29 30 44 17 15 30 33 30 39 0 6 16
26 35 45 19 20 35 42 35 51 0 8 9 15 19 15 12 0 21 9 25 25 4 14 11 25 16 25
6 0 10 7 10 16 0 8 19 33 43 55 23 21 46 43 51 48 41 42 56 62 56 76 0 8 9 15
20 15 11 0 20 -4 20 -10 0 -5 9 -10 19 -10 11 0 23 -9 26 -20 3 -11 11 -20 16
-20 5 0 9 -38 9 -85 0 -50 4 -85 10 -85 6 0 10 -7 10 -15 0 -8 5 -15 10 -15 6
0 10 -22 10 -50 0 -27 -4 -50 -10 -50 -6 0 -10 -33 -10 -80 0 -47 4 -80 10
-80 6 0 10 -25 10 -55 0 -30 -4 -55 -10 -55 -5 0 -10 -9 -10 -20 0 -11 5 -20
10 -20 6 0 10 -9 10 -20 0 -11 -4 -20 -10 -20 -5 0 -10 -7 -10 -15 0 -8 -4
-15 -10 -15 -5 0 -10 -13 -10 -30 0 -16 5 -30 10 -30 6 0 10 -24 10 -53 0 -41
4 -56 20 -67 11 -8 20 -25 20 -37 0 -13 4 -23 9 -23 5 0 11 -22 15 -50 4 -27
11 -50 16 -50 6 0 10 -5 10 -11 0 -14 26 -39 40 -39 6 0 22 11 35 25 24 23 25
29 25 165 0 87 -4 140 -10 140 -13 0 -13 57 0 62 5 2 13 42 16 91 4 48 11 87
15 87 5 0 9 122 9 270 0 173 -4 270 -10 270 -18 0 -10 45 10 60 14 10 20 26
20 52 0 21 -4 38 -10 38 -5 0 -10 7 -10 15 0 8 -4 15 -10 15 -6 0 -10 40 -10
99 0 126 -7 161 -31 161 -11 0 -19 5 -19 10 0 6 -18 10 -40 10 -22 0 -40 5
-40 10 0 6 -20 10 -45 10 -25 0 -45 -4 -45 -10 0 -5 -7 -10 -15 -10 -8 0 -15
-4 -15 -10 0 -5 -9 -10 -20 -10 -13 0 -20 -7 -20 -20 0 -13 -9 -22 -27 -26
-35 -9 -48 -22 -57 -57 -3 -15 -11 -27 -16 -27 -6 0 -10 -9 -10 -19 0 -11 -9
-23 -20 -26 -11 -3 -20 -15 -20 -26 0 -10 -4 -19 -10 -19 -5 0 -10 -7 -10 -15
0 -17 -74 -95 -91 -95 -14 0 -39 -26 -39 -40 0 -7 -25 -36 -55 -65 -30 -30
-55 -60 -55 -69 0 -8 -9 -18 -20 -21 -11 -3 -23 -18 -27 -33 -3 -15 -24 -43
-45 -64 -21 -20 -38 -39 -38 -43 0 -4 -6 -13 -12 -20 -30 -34 -38 -45 -38 -55
0 -16 -26 -40 -44 -40 -14 0 -38 -21 -73 -64 -7 -8 -13 -22 -13 -31 0 -8 -4
-15 -10 -15 -5 0 -10 -5 -10 -10 0 -6 -16 -26 -35 -46 -19 -19 -35 -44 -35
-54 0 -11 -4 -20 -10 -20 -5 0 -10 -10 -10 -23 0 -12 -9 -29 -20 -37 -11 -8
-20 -22 -20 -32 0 -10 -4 -18 -10 -18 -8 0 -36 -26 -67 -64 -7 -8 -13 -20 -13
-27 0 -17 -40 -49 -62 -49 -11 0 -18 -7 -18 -20 0 -11 -5 -20 -11 -20 -6 0
-23 -13 -37 -28 -15 -16 -39 -32 -54 -36 -19 -4 -28 -13 -28 -25 0 -11 -7 -26
-15 -35 -8 -8 -15 -21 -15 -28 0 -8 -9 -20 -20 -28 -11 -8 -20 -20 -20 -27 0
-7 -4 -13 -10 -13 -5 0 -10 -9 -10 -20 0 -11 -4 -20 -10 -20 -5 0 -10 -13 -10
-30 0 -16 -4 -30 -10 -30 -5 0 -10 -6 -10 -14 0 -20 -71 -91 -98 -98 -17 -5
-32 3 -62 32 -22 21 -40 46 -40 54 0 9 -4 16 -10 16 -5 0 -10 7 -10 15 0 8 -4
15 -9 15 -5 0 -12 18 -16 40 -4 22 -11 40 -16 40 -5 0 -9 5 -9 11 0 6 -13 24
-30 39 -16 15 -30 35 -30 44 0 9 -4 16 -9 16 -5 0 -12 16 -15 35 -4 19 -11 35
-16 35 -6 0 -10 9 -10 20 0 11 -4 20 -10 20 -5 0 -10 9 -10 20 0 11 -4 20 -10
20 -5 0 -10 5 -10 11 0 16 -26 39 -44 39 -9 0 -16 5 -16 10 0 6 -7 10 -15 10
-8 0 -15 5 -15 10 0 6 -9 10 -20 10 -17 0 -20 7 -20 41 0 34 -6 46 -45 85 -25
24 -45 49 -45 55 0 16 -26 39 -44 39 -9 0 -16 8 -16 20 0 11 -4 20 -10 20 -5
0 -10 7 -10 15 0 8 -16 30 -35 49 -19 20 -35 42 -35 51 0 8 -4 15 -10 15 -5 0
-10 7 -10 15 0 8 -4 15 -10 15 -5 0 -10 23 -10 50 0 28 -4 50 -10 50 -5 0 -10
9 -10 19 0 30 -11 51 -27 51 -19 0 -43 24 -43 44 0 8 -9 18 -20 21 -11 3 -20
15 -20 25 0 10 -7 25 -15 34 -8 8 -15 21 -15 30 0 8 -9 18 -20 21 -11 3 -20
15 -20 26 0 10 -4 19 -10 19 -5 0 -10 9 -10 20 0 11 -4 20 -10 20 -5 0 -10 9
-10 20 0 11 -4 20 -10 20 -5 0 -12 16 -16 35 -3 19 -10 35 -15 35 -5 0 -9 9
-9 20 0 11 -4 20 -8 20 -19 0 -52 38 -52 59 0 13 -6 29 -12 36 -32 36 -38 46
-38 65 0 11 -4 20 -10 20 -5 0 -10 16 -10 35 0 27 -4 35 -17 35 -10 0 -29 14
-43 31 -57 70 -113 119 -135 119 -8 0 -15 5 -15 10 0 6 -27 10 -60 10 -53 0
-60 -2 -60 -20z m-4330 -2220 c0 -5 9 -10 20 -10 15 0 20 -7 20 -26 0 -18 16
-42 55 -79 30 -30 55 -61 55 -70 0 -8 5 -15 10 -15 6 0 10 -7 10 -15 0 -8 4
-15 9 -15 5 0 12 -18 16 -40 4 -22 11 -40 16 -40 5 0 9 -9 9 -20 0 -11 4 -20
8 -20 14 0 52 -36 52 -49 0 -25 29 -41 75 -41 40 0 51 -5 85 -39 24 -24 40
-49 40 -63 0 -13 9 -30 20 -38 11 -8 20 -18 20 -23 0 -4 11 -19 25 -33 14 -14
25 -34 25 -44 0 -13 7 -20 20 -20 11 0 20 -4 20 -9 0 -4 18 -11 40 -14 42 -5
70 -26 70 -51 0 -9 5 -16 10 -16 6 0 10 -9 10 -20 0 -13 -9 -22 -26 -26 -40
-10 -247 5 -256 19 -6 9 -8 9 -8 0 0 -8 -15 -13 -40 -13 -22 0 -40 5 -40 10 0
6 -9 10 -19 10 -11 0 -23 9 -26 20 -3 11 -15 20 -26 20 -12 0 -19 7 -19 20 0
13 -7 20 -20 20 -11 0 -20 -4 -20 -10 0 -5 -9 -10 -20 -10 -11 0 -20 -4 -20
-10 0 -5 -11 -10 -25 -10 -14 0 -25 5 -25 10 0 6 -7 10 -15 10 -21 0 -55 31
-55 50 0 9 -9 22 -20 30 -12 8 -20 26 -20 42 0 15 -4 28 -10 28 -5 0 -10 7
-10 15 0 8 -4 15 -10 15 -6 0 -10 28 -10 65 0 37 -4 65 -10 65 -5 0 -10 18
-10 39 0 22 -4 41 -10 43 -12 4 -25 260 -16 321 6 37 11 47 27 47 10 0 19 -4
19 -10z m920 -957 c13 -12 20 -30 20 -55 0 -28 4 -38 16 -38 8 0 21 -6 28 -12
8 -7 23 -20 35 -28 14 -10 23 -30 27 -62 4 -26 10 -48 15 -48 5 0 9 -9 9 -21
0 -24 22 -49 44 -49 9 0 16 -4 16 -10 0 -5 9 -10 20 -10 12 0 31 -9 43 -20 88
-80 107 -100 107 -114 0 -9 7 -16 15 -16 16 0 145 -129 145 -146 0 -3 14 -19
30 -34 17 -15 30 -33 30 -39 0 -7 11 -22 25 -35 14 -13 25 -28 25 -35 0 -14
187 -201 201 -201 5 0 21 -11 34 -25 20 -19 25 -34 25 -75 0 -27 5 -50 10 -50
6 0 10 -7 10 -16 0 -15 23 -44 35 -44 3 0 17 -11 31 -25 14 -14 34 -25 44 -25
13 0 20 -7 20 -20 0 -11 5 -20 10 -20 6 0 10 -13 10 -30 0 -16 -4 -30 -10 -30
-5 0 -20 -11 -34 -25 -25 -25 -66 -34 -66 -15 0 6 -22 10 -49 10 -34 0 -51 5
-55 15 -4 12 -22 13 -99 8 -91 -6 -94 -5 -120 21 -17 17 -37 26 -57 26 -16 0
-30 5 -30 10 0 6 -16 10 -35 10 -19 0 -35 5 -35 10 0 6 -9 10 -20 10 -11 0
-20 4 -20 9 0 5 -16 12 -35 15 -19 4 -35 11 -35 16 0 6 -11 10 -25 10 -29 0
-75 40 -75 65 0 8 -7 15 -15 15 -8 0 -15 5 -15 10 0 6 -9 10 -20 10 -11 0 -20
-4 -20 -10 0 -5 -4 -10 -10 -10 -5 0 -10 7 -10 15 0 8 -9 15 -20 15 -11 0 -20
5 -20 10 0 6 -7 10 -15 10 -8 0 -15 5 -15 10 0 6 -9 10 -20 10 -11 0 -20 5
-20 10 0 6 -20 10 -45 10 -25 0 -45 5 -45 10 0 6 -9 10 -20 10 -13 0 -20 7
-20 19 0 11 -9 23 -20 26 -11 3 -20 11 -20 16 0 5 -5 9 -10 9 -6 0 -30 19 -55
43 -62 59 -72 67 -90 67 -23 0 -85 66 -85 90 0 11 -4 20 -9 20 -5 0 -13 9 -16
20 -3 11 -15 20 -26 20 -12 0 -19 7 -19 20 0 13 -7 20 -20 20 -15 0 -20 7 -20
25 0 14 -4 25 -10 25 -5 0 -10 9 -10 19 0 11 -7 26 -15 35 -8 8 -15 22 -15 30
0 9 -4 16 -10 16 -5 0 -10 20 -10 45 l0 45 74 0 c70 0 74 1 80 25 5 20 13 25
36 25 17 0 30 5 30 10 0 6 14 10 30 10 33 0 80 38 80 64 0 8 9 18 20 21 11 3
20 13 20 21 0 9 7 22 15 30 8 9 15 24 15 35 0 10 5 19 10 19 6 0 10 7 10 15 0
8 5 15 10 15 6 0 10 28 10 65 0 63 1 65 25 65 14 0 34 -8 45 -17z"/>
</g>
</svg>
