<svg xmlns="http://www.w3.org/2000/svg" width="1186" height="598" viewBox="0 0 1186 598" version="1.1">
	<path d="M 1165.358 2.291 C 1166.387 6.391, 1168.103 23.409, 1167.852 27.028 C 1167.487 32.299, 1168.366 33.002, 1175.309 32.986 C 1186.744 32.961, 1186 34.151, 1186 15.883 L 1186 0 1175.392 0 C 1164.834 0, 1164.786 0.011, 1165.358 2.291 M 1173.188 44.735 C 1169.793 45.039, 1168.945 45.480, 1169.197 46.811 C 1169.437 48.074, 1170.776 48.579, 1174.506 48.815 C 1182.008 49.288, 1186 48.295, 1186 45.955 C 1186 43.892, 1184.356 43.736, 1173.188 44.735 M 1086 58 C 1086 58.550, 1088.052 59, 1090.559 59 C 1093.344 59, 1094.878 58.611, 1094.500 58 C 1094.160 57.450, 1092.109 57, 1089.941 57 C 1087.773 57, 1086 57.450, 1086 58 M 945.835 58.732 C 940.140 59.185, 936.825 62.132, 934.572 68.742 C 930.931 79.429, 934.492 106.096, 940.017 109.511 C 942.515 111.054, 946.742 108.502, 951.750 102.427 C 955.851 97.452, 957 95.299, 957 92.588 C 957 90.680, 956.554 88.842, 956.009 88.506 C 954.750 87.727, 950.488 90.833, 948.944 93.654 C 947.631 96.052, 942.238 97.359, 940.250 95.760 C 939.560 95.205, 939 92.581, 939 89.901 C 939 85.903, 939.417 84.773, 941.359 83.500 C 942.657 82.650, 944.441 82.232, 945.324 82.571 C 946.934 83.189, 952.468 79.928, 954.635 77.083 C 956.442 74.712, 952.011 72.974, 945.981 73.689 C 940.562 74.330, 939.638 73.245, 942.394 69.477 C 943.469 68.006, 945.547 67.427, 951.488 66.941 C 956.455 66.535, 959.500 65.812, 960.063 64.905 C 960.581 64.072, 960.542 63.364, 959.968 63.167 C 958.089 62.520, 959.028 61.194, 961 61.710 C 962.118 62.003, 963 61.741, 963 61.117 C 963 60.502, 962.100 60, 961 60 C 959.900 60, 959 59.550, 959 59 C 959 58.031, 955.532 57.960, 945.835 58.732 M 551.655 65.829 C 549.799 67.879, 549.489 70.566, 551 71.500 C 552.237 72.264, 552.323 76.683, 551.115 77.429 C 550.629 77.729, 549.923 80.031, 549.546 82.544 C 549.169 85.056, 547.976 89.674, 546.895 92.806 C 541.121 109.528, 540.422 117.025, 544.119 122.556 C 547.956 128.295, 558.352 131.329, 566.586 129.111 C 570.405 128.083, 586 115.970, 586 114.032 C 586 110.886, 576.599 113.365, 571.818 117.772 C 568.636 120.705, 562.858 121.948, 558 120.744 C 556.075 120.267, 553.718 119.876, 552.763 119.875 C 549.802 119.873, 548.202 116.394, 548.778 111.209 C 549.066 108.619, 549.853 105.600, 550.527 104.500 C 551.200 103.400, 552.944 98, 554.401 92.500 C 555.859 87, 557.454 81.150, 557.946 79.500 C 559.263 75.082, 558.519 68.231, 556.476 65.973 C 554.274 63.540, 553.740 63.524, 551.655 65.829 M 108.009 66.133 C 104.989 66.639, 101.917 67.654, 101.183 68.389 C 100.374 69.197, 99.442 74.194, 98.821 81.053 C 97.480 95.855, 97.274 96.350, 92.410 96.433 C 89.214 96.488, 88.445 96.887, 88.197 98.620 C 87.978 100.155, 88.876 101.319, 91.447 102.836 C 94.339 104.543, 95.011 105.544, 95.059 108.216 C 95.365 125.094, 98.005 134.122, 103.736 137.879 C 107.617 140.423, 116.905 140.778, 122.128 138.582 C 127.470 136.335, 133.044 129.513, 132.967 125.316 C 132.936 123.630, 132.810 123.644, 131.217 125.500 C 130.273 126.600, 128.331 128.022, 126.903 128.659 C 123.444 130.202, 113.735 131.368, 111.158 130.550 C 109.035 129.876, 104 120.310, 104 116.951 C 104 115.956, 103.437 114.548, 102.750 113.821 C 100.946 111.915, 100.573 106.886, 102.161 105.880 C 102.897 105.413, 104.925 105.024, 106.667 105.015 C 110.698 104.996, 117.931 101.895, 120.411 99.123 C 122.924 96.313, 121.750 95.327, 117.654 96.808 C 113.568 98.286, 103.349 98.374, 102.463 96.940 C 102.102 96.356, 102.263 94.669, 102.820 93.190 C 103.376 91.710, 104.612 87.013, 105.565 82.750 L 107.299 75 110.899 74.986 C 112.880 74.979, 115.513 74.701, 116.750 74.370 C 118.664 73.857, 119 74.158, 119 76.383 C 119 77.961, 119.557 79, 120.401 79 C 121.873 79, 126 72.807, 126 70.598 C 126 66.612, 117.596 64.526, 108.009 66.133 M 381.948 69.750 C 381.397 71.263, 380.444 73.762, 379.829 75.305 C 379.130 77.061, 378.942 81.091, 379.327 86.083 C 379.840 92.743, 380.680 95.594, 384.425 103.396 C 386.890 108.534, 390.110 114.166, 391.580 115.912 C 398.033 123.582, 409.742 125.355, 414.515 119.387 C 417.743 115.351, 418.970 110.564, 419.146 101.320 C 419.454 85.099, 410.063 64.726, 409.198 79.739 C 408.956 83.948, 409.177 84.869, 410.326 84.429 C 411.343 84.038, 411.983 84.978, 412.546 87.690 C 412.981 89.786, 413.188 91.950, 413.007 92.500 C 412.825 93.050, 412.552 95.975, 412.399 99 C 411.615 114.565, 407.616 118.501, 398.724 112.458 C 394.995 109.924, 389.642 100.895, 387.189 93 C 385.689 88.174, 385.097 73.855, 386.316 71.882 C 386.866 70.993, 387.034 69.530, 386.689 68.632 C 385.712 66.086, 383.055 66.712, 381.948 69.750 M 612.204 69.141 C 610.818 73.084, 612.224 107.624, 613.836 109.236 C 615.942 111.342, 617.997 109.189, 618.087 104.781 C 618.733 73.072, 618.575 71.379, 614.671 68.141 C 613.246 66.959, 612.925 67.089, 612.204 69.141 M 883.673 69.750 C 883.428 70.162, 883.158 80.074, 883.072 91.776 C 882.937 110.453, 883.132 113.415, 884.674 116.026 C 886.781 119.593, 891.195 120.021, 894.808 117.009 C 896.722 115.414, 896.928 114.734, 896.016 113.030 C 895.141 111.395, 894.529 111.182, 893.025 111.987 C 891.499 112.803, 891.009 112.603, 890.484 110.949 C 889.780 108.731, 889.585 100.081, 890.225 99.441 C 890.441 99.226, 893.853 98.749, 897.809 98.381 L 905 97.713 905 102.701 C 905 106.420, 904.491 108.151, 903 109.500 C 900.889 111.411, 900.270 115, 902.052 115 C 902.630 115, 904.837 114.002, 906.956 112.783 C 910.949 110.485, 911.962 107.977, 911.989 100.329 C 911.999 97.557, 912.408 97.077, 915.250 96.505 C 920.898 95.368, 922.045 94.882, 921.430 93.887 C 921.101 93.355, 920.023 93.175, 919.034 93.489 C 916.999 94.135, 915.396 91.450, 917.306 90.594 C 918.038 90.265, 917.920 90.093, 917 90.148 C 911.729 90.462, 911.319 90.138, 911.250 85.606 C 911.175 80.629, 909.604 77, 907.524 77 C 905.352 77, 904.800 78.635, 904.800 85.066 C 904.800 90.878, 904.743 91, 902.040 91 C 900.521 91, 897.124 91.295, 894.490 91.656 L 889.701 92.313 890.223 85.805 C 890.511 82.226, 890.340 78.572, 889.844 77.685 C 889.348 76.799, 888.882 74.482, 888.809 72.537 C 888.697 69.561, 888.314 69, 886.397 69 C 885.144 69, 883.918 69.338, 883.673 69.750 M 943.500 71 C 943.840 71.550, 944.316 72, 944.559 72 C 944.802 72, 945 71.550, 945 71 C 945 70.450, 944.523 70, 943.941 70 C 943.359 70, 943.160 70.450, 943.500 71 M 171.844 74.848 C 164.323 77.473, 160 80.234, 160 82.412 C 160 83.018, 157.981 85.760, 155.513 88.507 C 150.070 94.565, 147.142 100.424, 145.342 108.859 C 143.041 119.643, 146.155 125.618, 155.370 128.100 C 157.630 128.708, 161.331 128.997, 163.595 128.742 C 168.973 128.136, 181.245 122.189, 187.663 117.080 L 192.747 113.032 193.428 118.172 C 194.807 128.564, 198.498 131.492, 209.933 131.264 C 214.617 131.170, 218.364 130.347, 223 128.393 C 226.798 126.793, 231.704 125.565, 234.804 125.440 C 240.932 125.193, 242.251 124.388, 239.648 122.485 C 237.885 121.196, 238.116 119, 240.015 119 C 240.508 119, 242.578 120.131, 244.615 121.513 C 247.822 123.689, 249.001 123.940, 253.409 123.377 C 261.533 122.341, 268.121 118.210, 272.942 111.128 C 278.329 103.214, 274.160 90.451, 265 86.816 C 260.038 84.846, 251.436 85.749, 245.268 88.888 C 239.936 91.601, 231 99.257, 231 101.111 C 231 101.551, 229.875 103.569, 228.500 105.595 C 226.684 108.271, 226 110.605, 226 114.126 C 226 118.779, 225.850 119.037, 222.250 120.558 C 218.274 122.239, 205.552 124.001, 204.193 123.059 C 203.148 122.334, 201.142 117.069, 200.933 114.500 C 200.484 108.989, 200.932 108, 203.877 108 C 206.387 108, 207.036 107.343, 208.973 102.841 C 211.611 96.709, 214.212 87.152, 213.539 86.064 C 212.718 84.735, 217.257 81.274, 223.315 78.610 C 228.310 76.413, 228.989 75.803, 228.135 74.277 C 226.211 70.839, 210 72.171, 210 75.766 C 210 76.561, 208.647 78.920, 206.994 81.008 C 205.341 83.095, 202.243 88.335, 200.110 92.651 C 197.977 96.968, 194.717 101.931, 192.866 103.679 C 186.529 109.665, 182.554 113, 181.757 113 C 181.319 113, 179.282 114.055, 177.230 115.345 C 168.433 120.874, 156.255 122.422, 152.944 118.432 C 150.460 115.439, 152.469 106.721, 157.702 97.788 C 161.845 90.715, 163.314 89.092, 167.721 86.717 C 170.562 85.186, 173.167 83.049, 173.510 81.967 C 173.855 80.882, 175.024 80, 176.117 80 C 181.613 80, 186.559 74.196, 182.418 72.607 C 180.369 71.821, 180.741 71.742, 171.844 74.848 M 459.749 73.392 C 458.259 74.523, 458.134 75.449, 458.906 79.611 C 459.404 82.300, 459.817 87.650, 459.822 91.500 C 459.830 97.450, 459.357 99.392, 456.666 104.450 C 454.925 107.722, 452.984 110.557, 452.353 110.749 C 451.722 110.941, 450.252 109.758, 449.085 108.120 C 447.348 105.679, 446.955 103.640, 446.910 96.821 C 446.880 92.244, 447.148 87.747, 447.505 86.827 C 448.160 85.140, 444.976 81, 443.023 81 C 440.754 81, 439.124 85.683, 439.193 92 C 439.309 102.649, 438.230 107.768, 434.753 113.079 C 432.982 115.786, 430.812 118, 429.933 118 C 429.053 118, 428.032 118.301, 427.664 118.669 C 426.650 119.684, 430.061 123, 432.120 123 C 434.317 123, 441 117.322, 441 115.455 C 441 112.624, 443.150 113.016, 446.375 116.436 C 450.649 120.968, 453.729 121.057, 457.920 116.771 C 463.163 111.408, 466.431 103.528, 466.852 95.235 C 467.079 90.745, 466.786 87.447, 466.083 86.600 C 465.458 85.847, 464.668 82.253, 464.329 78.615 C 463.697 71.849, 462.932 70.977, 459.749 73.392 M 638.279 76.573 C 633.763 78.549, 631.619 82.153, 632.420 86.423 C 632.774 88.310, 633.528 90.009, 634.097 90.199 C 634.745 90.415, 635.208 97.128, 635.340 108.218 C 635.542 125.246, 635.636 125.984, 637.898 128.391 C 639.189 129.765, 641.435 131.305, 642.889 131.811 C 646.120 132.938, 658.977 132.390, 662.173 130.990 C 668.910 128.039, 673.979 122.769, 673.993 118.700 C 674.015 112.751, 666.618 106.613, 657.155 104.729 C 654.045 104.109, 651.366 103.521, 651.203 103.421 C 651.040 103.321, 652.277 101.208, 653.953 98.725 C 659.763 90.116, 657.241 80.088, 648.329 76.364 C 644.354 74.703, 642.461 74.743, 638.279 76.573 M 894.074 77.411 C 892.570 79.223, 894.236 80.377, 897.062 79.480 C 898.693 78.963, 898.868 78.546, 897.930 77.416 C 896.450 75.632, 895.551 75.631, 894.074 77.411 M 1050.500 77 C 1050.160 77.550, 1050.584 78, 1051.441 78 C 1052.298 78, 1053 77.550, 1053 77 C 1053 76.450, 1052.577 76, 1052.059 76 C 1051.541 76, 1050.840 76.450, 1050.500 77 M 852.553 78.805 C 849.521 79.065, 847.271 80.300, 842.854 84.126 C 837.932 88.391, 836.664 90.248, 834.052 97.022 C 832.373 101.374, 831 105.685, 831 106.602 C 831 115.157, 838.954 122.299, 848.388 122.215 C 857.039 122.137, 863.285 118.383, 866.218 111.500 C 869.177 104.557, 868.696 98.348, 865.411 101.074 C 864.635 101.718, 864 102.777, 864 103.426 C 864 105.080, 858.156 110.445, 854.159 112.461 C 851.840 113.630, 849.659 113.949, 847.024 113.504 C 843.191 112.856, 839.093 109.938, 838.889 107.711 C 838.338 101.676, 841.183 95.973, 847.863 89.725 C 853.279 84.659, 854.460 84.151, 855.362 86.500 C 856.214 88.721, 857.345 88.318, 858.750 85.293 C 861.208 80.001, 859.494 78.207, 852.553 78.805 M 1053.049 81.441 C 1052.392 82.233, 1051.099 82.617, 1050.177 82.293 C 1048.926 81.855, 1048.776 82.006, 1049.587 82.890 C 1050.778 84.187, 1055.268 82.993, 1056.462 81.062 C 1057.456 79.454, 1054.419 79.791, 1053.049 81.441 M 684.977 82.295 C 680.817 84.281, 675.079 88.410, 674.529 89.813 C 674.246 90.536, 674.787 92.561, 675.732 94.313 C 676.676 96.066, 677.542 98.175, 677.655 99 C 677.769 99.825, 678.345 103.200, 678.936 106.500 C 679.527 109.800, 680.060 116.647, 680.120 121.716 C 680.246 132.343, 681.508 135.337, 684.970 133.222 C 686.776 132.119, 687.500 132.272, 690.281 134.348 C 694.778 137.706, 699.959 138.433, 705.640 136.504 C 712.149 134.294, 715.257 131.833, 719.099 125.845 L 722.422 120.668 723.693 123.782 C 725.881 129.145, 731.155 133.499, 737.679 135.330 C 740.953 136.248, 744.632 137, 745.855 137 C 749.151 137, 755.033 133.662, 758.983 129.549 C 762.154 126.248, 762.467 125.397, 762.467 120.048 C 762.467 115.878, 761.964 113.617, 760.733 112.258 C 759.780 111.204, 759 110.023, 759 109.633 C 759 109.242, 757.204 107.054, 755.009 104.770 C 743.037 92.310, 721.113 95.251, 720.509 109.397 C 720.261 115.214, 716.531 122.324, 711.614 126.353 C 706.103 130.869, 699.209 131.609, 694.930 128.144 C 692.321 126.032, 691.922 127.622, 699.676 109.259 C 702.200 103.281, 703.998 97.454, 703.996 95.259 C 703.987 85.503, 693.388 78.279, 684.977 82.295 M 892.667 81.667 C 891.671 82.662, 891.862 88, 892.893 88 C 893.976 88, 895 85.531, 895 82.918 C 895 80.997, 893.917 80.416, 892.667 81.667 M 638 83.580 C 635.364 85.039, 635.131 87.897, 637.536 89.267 C 638.342 89.726, 639.159 92.846, 639.572 97.039 C 639.952 100.892, 640.651 104.284, 641.125 104.577 C 642.326 105.319, 649 98.650, 649 96.708 C 649 95.834, 649.450 94.840, 650 94.500 C 651.948 93.296, 651.076 87.374, 648.548 84.646 C 645.816 81.698, 642.081 81.321, 638 83.580 M 684.148 90.009 C 681.048 91.938, 680.847 92.372, 681.483 95.763 C 681.862 97.780, 682.806 100.658, 683.582 102.158 C 684.357 103.658, 685.417 107.884, 685.936 111.549 C 686.455 115.214, 687.061 118.394, 687.283 118.616 C 687.505 118.839, 688.517 117.103, 689.531 114.760 C 690.545 112.417, 692.038 109.710, 692.848 108.744 C 693.658 107.778, 694.043 106.710, 693.703 106.370 C 693.364 106.030, 693.966 104.026, 695.043 101.916 C 697.464 97.170, 697.528 93.857, 695.250 91.114 C 692.640 87.970, 688.142 87.523, 684.148 90.009 M 253 94.680 C 248.741 95.375, 242.012 99.222, 238.943 102.717 C 235.290 106.879, 231.733 113.717, 232.860 114.413 C 233.324 114.700, 235.441 114.050, 237.564 112.968 C 242.384 110.510, 243.250 110.514, 245.500 113 C 249.017 116.886, 258.038 115.175, 264.866 109.326 C 267.524 107.049, 268.261 105.635, 268.366 102.606 C 268.454 100.087, 267.984 98.514, 267 98.026 C 266.175 97.618, 264.081 96.545, 262.346 95.642 C 259.230 94.020, 257.892 93.882, 253 94.680 M 942 99.622 C 942 100.951, 942.271 101.020, 943.500 100 C 944.325 99.315, 945 98.585, 945 98.378 C 945 98.170, 944.325 98, 943.500 98 C 942.675 98, 942 98.730, 942 99.622 M 597.553 103.915 C 597.231 104.436, 597.394 105.125, 597.915 105.447 C 598.436 105.769, 599.125 105.606, 599.447 105.085 C 599.769 104.564, 599.606 103.875, 599.085 103.553 C 598.564 103.231, 597.875 103.394, 597.553 103.915 M 732.092 104.429 C 729.260 105.150, 727.433 106.257, 726.983 107.525 C 726.300 109.448, 728.129 116.233, 729.918 118.414 C 730.408 119.011, 730.964 120.580, 731.154 121.900 C 732.026 127.951, 743.866 131.100, 750.449 127.032 C 752.416 125.816, 754.513 123.909, 755.110 122.794 C 756.765 119.702, 754.357 112.324, 750.847 109.729 C 749.281 108.571, 748 107.093, 748 106.444 C 748 105.794, 746.313 105.006, 744.250 104.692 C 742.188 104.378, 739.600 103.938, 738.500 103.714 C 737.400 103.490, 734.516 103.812, 732.092 104.429 M 550.500 109 C 550.160 109.550, 550.359 110, 550.941 110 C 551.523 110, 552 109.550, 552 109 C 552 108.450, 551.802 108, 551.559 108 C 551.316 108, 550.840 108.450, 550.500 109 M 650 109.963 C 648.625 110.259, 646.280 111.328, 644.788 112.340 C 642.513 113.884, 642.091 114.872, 642.163 118.483 C 642.291 124.868, 642.829 125.310, 649.107 124.204 C 652.073 123.681, 656.128 123.463, 658.118 123.720 C 663.019 124.354, 668 121.755, 668 118.563 C 668 115.909, 663.170 111.267, 659.673 110.560 C 654.958 109.608, 652.394 109.449, 650 109.963 M 33 147 C 33 147.550, 33.477 148, 34.059 148 C 34.641 148, 34.840 147.550, 34.500 147 C 34.160 146.450, 33.684 146, 33.441 146 C 33.198 146, 33 146.450, 33 147 M 1152.685 153.378 C 1152.011 155.136, 1153.834 157.001, 1155.575 156.333 C 1156.629 155.928, 1156.658 155.425, 1155.712 153.911 C 1154.300 151.649, 1153.409 151.492, 1152.685 153.378 M 1110.244 171.664 C 1108.473 172.378, 1109.733 174, 1112.059 174 C 1113.127 174, 1114 173.325, 1114 172.500 C 1114 171.006, 1112.632 170.701, 1110.244 171.664 M 926.079 185.861 C 926.020 186.869, 925.091 187.052, 922.500 186.566 C 919.380 185.981, 919 186.143, 919 188.063 C 919 189.861, 919.413 190.113, 921.500 189.589 C 923.345 189.126, 924 189.360, 924 190.481 C 924 192.536, 924.452 192.413, 927.595 189.500 C 929.518 187.717, 929.844 187, 928.729 187 C 927.870 187, 926.940 186.438, 926.662 185.750 C 926.287 184.820, 926.138 184.849, 926.079 185.861 M 1107 187 C 1107 187.550, 1107.702 188, 1108.559 188 C 1109.416 188, 1109.840 187.550, 1109.500 187 C 1109.160 186.450, 1108.459 186, 1107.941 186 C 1107.423 186, 1107 186.450, 1107 187 M 496.250 189.247 C 494.462 189.820, 493 190.655, 493 191.103 C 493 191.550, 490.975 193.102, 488.500 194.553 C 486.025 196.003, 484 197.532, 484 197.949 C 484 198.366, 482.818 199.983, 481.374 201.542 C 479.363 203.711, 478.990 204.742, 479.781 205.938 C 480.349 206.797, 481.298 207.390, 481.889 207.256 C 482.481 207.122, 483.240 208.247, 483.575 209.756 C 483.911 211.265, 484.390 213.259, 484.640 214.187 C 484.891 215.116, 484.548 216.751, 483.879 217.822 C 482.892 219.402, 482.989 220.456, 484.391 223.411 C 485.341 225.413, 485.865 227.851, 485.554 228.828 C 485.244 229.805, 485.641 231.481, 486.437 232.552 C 487.596 234.114, 488.242 234.280, 489.691 233.389 C 491.160 232.487, 491.437 231.237, 491.165 226.750 C 490.967 223.488, 491.275 220.948, 491.918 220.551 C 492.516 220.181, 495.367 219.503, 498.253 219.044 C 504.786 218.005, 508.936 219.822, 508.985 223.742 C 509.016 226.248, 495.607 236.447, 493.397 235.599 C 491.608 234.912, 488.939 238.341, 488.705 241.628 C 488.319 247.035, 493.134 245.783, 505.726 237.201 C 512.796 232.383, 513.525 231.349, 514.515 224.746 C 515.203 220.160, 515.089 219.854, 511.270 216.034 C 507.481 212.245, 507.071 212.089, 501.708 212.387 L 496.105 212.697 497.516 209.969 C 498.292 208.468, 500.119 205.823, 501.576 204.092 C 503.033 202.360, 504.652 199.044, 505.174 196.723 C 506.048 192.833, 505.917 192.325, 503.505 190.251 C 500.609 187.759, 500.803 187.786, 496.250 189.247 M 906.028 189.113 C 904.669 189.656, 903.217 190.640, 902.801 191.300 C 901.927 192.688, 902.808 196.204, 904.265 197.139 C 905.410 197.875, 904.967 200.927, 901.957 213 C 898.728 225.959, 899.258 241.413, 903.152 247.790 C 906.288 252.927, 907.851 253.932, 912.760 253.968 C 916.609 253.997, 917.283 253.619, 919.760 250.038 C 923.019 245.326, 926.777 244.756, 932.463 248.111 C 939.968 252.539, 948.799 248.257, 952.936 238.184 C 954.128 235.281, 954.096 234.668, 952.685 233.257 C 951.203 231.774, 951.019 231.787, 950.393 233.418 C 950.019 234.393, 948.427 236.598, 946.856 238.318 C 945.285 240.038, 944 242.266, 944 243.268 C 944 244.827, 943.457 244.993, 940.250 244.419 C 935.351 243.541, 933.376 241.707, 932.675 237.387 C 931.709 231.430, 933.142 229.353, 938.674 228.695 C 945.585 227.872, 946.869 227.531, 948.252 226.148 C 949.989 224.411, 947.977 223.352, 941.362 222.526 C 938.430 222.160, 935.859 221.554, 935.647 221.180 C 935.436 220.806, 935.781 218.701, 936.413 216.501 L 937.563 212.503 944.032 212.406 C 952.062 212.286, 955 211.388, 955 209.055 C 955 206.042, 952.904 205.213, 943.500 204.502 C 932.778 203.693, 933.098 203.404, 929.928 216.722 C 927.573 226.620, 927.311 228.395, 927.129 235.655 L 927 240.810 923.160 240.295 C 919.881 239.855, 918.791 240.245, 915.690 242.967 C 911.724 246.449, 910.732 246.317, 908.502 242.005 C 907.027 239.152, 906.392 226.244, 907.468 221 C 909.723 210.021, 910.235 206.944, 910.464 203 C 910.608 200.525, 911.013 197.713, 911.363 196.750 C 911.713 195.787, 912.299 194.213, 912.664 193.250 C 914.517 188.362, 911.939 186.755, 906.028 189.113 M 1158 190.091 C 1158 192.615, 1159.739 196, 1161.035 196 C 1161.566 196, 1162 195.262, 1162 194.360 C 1162 193.458, 1162.787 192.145, 1163.748 191.442 C 1165.860 189.898, 1165.478 189.473, 1161.250 188.669 C 1158.443 188.134, 1158 188.328, 1158 190.091 M 244.355 190.518 C 244.034 191.354, 244.273 194.028, 244.886 196.461 C 245.499 198.895, 246 203.952, 246 207.699 C 246 211.447, 246.463 216.085, 247.030 218.007 C 247.596 219.928, 248.209 224.439, 248.391 228.032 C 248.747 235.042, 250.847 240.312, 253.945 241.970 C 258.058 244.172, 264.520 243.188, 269.950 239.534 L 275.100 236.068 285.167 237.573 C 290.704 238.401, 295.519 239.139, 295.867 239.212 C 297.863 239.636, 308.958 237.523, 311.500 236.235 C 313.150 235.400, 315.152 234.408, 315.950 234.031 C 318.393 232.876, 321.250 228.331, 321.250 225.600 C 321.250 222.131, 314.593 214.146, 310.156 212.292 C 307.552 211.204, 304.681 210.992, 299.071 211.473 C 292.675 212.021, 282.340 212.818, 279.785 212.960 C 277.958 213.062, 277.168 216.826, 278.158 220.723 C 278.948 223.838, 279.762 224.913, 281.597 225.263 C 287.281 226.350, 292.060 223.033, 286.794 221.656 C 282.504 220.535, 285.750 220.004, 290.913 220.983 C 294.489 221.662, 297.473 221.639, 300.325 220.912 C 305.843 219.505, 308.858 219.677, 311.735 221.562 C 319.949 226.944, 310.291 232.317, 294 231.428 C 280.058 230.667, 279.125 230.284, 277.074 224.494 C 275.392 219.746, 271.594 213.374, 268.455 210.036 C 265.697 207.103, 262 202.207, 262 201.488 C 262 200.262, 254.695 193.389, 251 191.139 C 246.855 188.615, 245.146 188.455, 244.355 190.518 M 531 189.750 C 523.882 190.231, 521.418 192.461, 520.395 199.349 C 519.975 202.182, 519.746 205.117, 519.887 205.870 C 520.357 208.386, 517.816 213.041, 516.123 212.765 C 514.988 212.580, 514.500 213.252, 514.500 215 C 514.500 216.797, 515.105 217.586, 516.653 217.807 C 518.446 218.062, 519.026 219.220, 520.123 224.742 C 521.671 232.530, 524.858 237.007, 528.839 236.985 C 534.817 236.953, 547.864 230.206, 546.431 227.889 C 545.661 226.643, 547.377 226.777, 548.663 228.063 C 549.413 228.813, 549.911 228.194, 550.358 225.960 C 550.706 224.219, 550.742 222.391, 550.437 221.897 C 549.289 220.040, 546.787 221.105, 545.732 223.900 C 544.928 226.029, 543.556 227.140, 540.569 228.080 C 538.331 228.784, 536.045 229.695, 535.488 230.105 C 534.932 230.515, 533.149 230.996, 531.527 231.175 C 529.130 231.439, 528.323 230.976, 527.210 228.698 C 526.257 226.747, 526.154 225.519, 526.871 224.655 C 527.438 223.972, 528.077 221.702, 528.292 219.610 C 528.574 216.862, 529.628 214.931, 532.091 212.653 C 537.338 207.800, 539.323 201.943, 535.691 202.028 C 535.036 202.043, 532.732 203.393, 530.572 205.028 C 525.723 208.697, 524.996 208.726, 525.014 205.250 C 525.047 198.525, 525.648 197.974, 532.364 198.513 C 543.457 199.404, 549.843 196.296, 545.486 192.128 C 543.199 189.940, 538.821 189.221, 531 189.750 M 371.628 190.793 C 371.358 191.230, 371.219 202.464, 371.319 215.758 C 371.472 236.240, 371.740 240.169, 373.072 241.501 C 374.022 242.451, 375.351 242.803, 376.427 242.390 C 377.947 241.806, 378.153 240.722, 377.830 235.002 L 377.451 228.298 380.445 231.292 C 383.639 234.485, 388.683 237, 391.895 237 C 392.973 237, 394.827 235.764, 396.016 234.253 C 397.746 232.054, 398.050 230.715, 397.543 227.540 C 396.695 222.242, 396.225 221.994, 393.497 225.407 C 391.321 228.131, 390.981 228.235, 388.125 227.052 C 386.448 226.357, 383.930 224.286, 382.529 222.449 L 379.981 219.108 382.602 217.304 C 388.095 213.524, 394.056 207.624, 394.610 205.419 C 394.951 204.060, 394.444 201.867, 393.368 200.046 C 391.274 196.502, 384.959 192, 382.080 192 C 381.001 192, 379.840 191.550, 379.500 191 C 378.768 189.816, 372.336 189.647, 371.628 190.793 M 646.230 195.250 C 642.430 200.456, 636 210.640, 636 211.453 C 636 211.686, 633.300 215.460, 630 219.840 C 626.700 224.219, 624 228.356, 624 229.033 C 624 229.710, 623.055 231.793, 621.899 233.663 C 619.203 238.025, 619.949 241.934, 623.519 242.150 C 624.884 242.233, 626.563 242.345, 627.250 242.400 C 627.994 242.460, 628.500 241.286, 628.501 239.500 C 628.502 235.111, 630.545 230.916, 638.696 218.559 C 648.390 203.865, 648.715 203.420, 649.318 204.002 C 649.844 204.510, 650.233 212.995, 650.082 220.671 C 650.006 224.546, 649.770 224.889, 646.750 225.519 C 642.026 226.504, 638.949 228.704, 639.670 230.583 C 640.037 231.538, 641.020 231.967, 642.162 231.668 C 643.200 231.397, 645.613 231.606, 647.524 232.134 C 650.786 233.035, 651.001 233.353, 651.011 237.297 C 651.030 244.647, 652.148 249.009, 654.308 250.165 C 657.688 251.974, 659.140 248.827, 658.375 241.358 L 657.736 235.117 663.368 235.699 C 669.702 236.352, 670.761 235.125, 666.250 232.361 C 664.737 231.434, 662.042 229.736, 660.261 228.588 L 657.022 226.500 657.137 212 C 657.272 195.008, 655.958 190.074, 651.282 190.015 C 650.611 190.007, 648.338 192.363, 646.230 195.250 M 1089 192 C 1089 192.550, 1089.450 193, 1090 193 C 1090.550 193, 1091 192.550, 1091 192 C 1091 191.450, 1090.550 191, 1090 191 C 1089.450 191, 1089 191.450, 1089 192 M 793.500 193 C 793.160 193.550, 793.557 194, 794.382 194 C 795.207 194, 796.160 193.550, 796.500 193 C 796.840 192.450, 796.443 192, 795.618 192 C 794.793 192, 793.840 192.450, 793.500 193 M 978.380 193.804 C 972.292 196.310, 969.803 198.826, 966.806 205.500 C 962.994 213.990, 961.640 221.063, 962.434 228.333 C 963.536 238.419, 964.766 241.575, 969.482 246.428 C 973.312 250.369, 974.483 251, 977.963 251 C 980.183 251, 982 251.477, 982 252.059 C 982 252.641, 981.582 252.860, 981.072 252.544 C 978.452 250.925, 978.053 262.296, 980.630 265.144 C 982.881 267.631, 984.609 267.482, 987.545 264.545 C 989.678 262.412, 990 261.185, 990 255.173 C 990 250.375, 989.372 246.836, 987.953 243.627 C 985.959 239.119, 984 237.540, 984 240.441 C 984 242.120, 983.462 242.494, 979.779 243.374 C 975.843 244.314, 971.065 239.823, 970.041 234.222 C 969.588 231.746, 969.651 230, 970.193 230 C 970.702 230, 970.784 229.459, 970.375 228.798 C 969.133 226.788, 969.326 217.697, 970.683 214.329 C 971.880 211.358, 972.141 211.227, 974.833 212.243 C 979.109 213.857, 980.556 212.782, 983.933 205.487 C 987.486 197.811, 987.683 195.928, 985.171 193.655 C 983.010 191.699, 983.524 191.687, 978.380 193.804 M 1053.655 193.829 C 1051.603 196.096, 1051.559 197, 1053.500 197 C 1056.120 197, 1055.118 198.763, 1051.851 199.902 C 1047.907 201.277, 1042.939 201.308, 1039.443 199.979 C 1034.876 198.242, 1034.041 199.933, 1034.584 209.828 C 1035.049 218.298, 1036.544 233.251, 1037.575 239.750 C 1037.859 241.537, 1038.689 243, 1039.420 243 C 1040.185 243, 1040.750 244.103, 1040.750 245.597 C 1040.750 248.691, 1044.225 252.511, 1046.311 251.711 C 1048.421 250.901, 1052.622 244.988, 1053.388 241.750 C 1053.920 239.501, 1053.699 239, 1052.174 239 C 1051.149 239, 1049.495 239.900, 1048.500 241 C 1044.559 245.354, 1043.534 243.709, 1042.580 231.500 L 1042.033 224.500 1050.985 224.636 C 1059.059 224.758, 1059.999 224.580, 1060.559 222.814 C 1061.582 219.591, 1058.254 216.849, 1053.538 217.030 C 1047.501 217.262, 1047 217.139, 1047 215.417 C 1047 214.546, 1046.478 214.007, 1045.839 214.220 C 1044.837 214.554, 1040 210.963, 1040 209.885 C 1040 209.673, 1042.363 209.360, 1045.250 209.190 C 1048.138 209.019, 1050.928 208.456, 1051.450 207.940 C 1051.973 207.423, 1053.073 207, 1053.895 207 C 1055.997 207, 1061 201.980, 1061 199.872 C 1061 198.907, 1061.472 197.826, 1062.049 197.469 C 1063.275 196.712, 1058.583 192, 1056.603 192 C 1055.892 192, 1054.565 192.823, 1053.655 193.829 M 455.500 194.486 C 454.950 194.679, 452.789 195.123, 450.697 195.473 C 445.989 196.262, 445.051 198.361, 448.003 201.503 C 449.526 203.125, 450.071 204.621, 449.680 206.114 C 449.362 207.330, 449.793 212.189, 450.637 216.912 C 451.636 222.501, 451.965 228.137, 451.580 233.050 C 450.847 242.376, 451.901 244.291, 457.935 244.601 C 461.833 244.802, 462.352 244.503, 465.647 240.158 C 467.590 237.596, 471.162 232.350, 473.583 228.500 C 480.075 218.179, 479.436 214.024, 471.048 212.012 L 466.054 210.814 468.055 206.893 C 470.342 202.410, 469.754 200.376, 465.252 197.194 C 462.499 195.248, 457.383 193.828, 455.500 194.486 M 133.598 197.165 C 132.553 197.772, 129.178 198.915, 126.098 199.705 C 119.874 201.301, 107 209.311, 107 211.588 C 107 212.392, 108.089 213.463, 109.419 213.969 C 110.750 214.475, 112.212 215.541, 112.669 216.337 C 113.621 217.995, 120.339 221, 123.095 221 C 125.914 221, 136 226.066, 136 227.482 C 136 229.609, 132.042 233.890, 128.693 235.386 C 124.741 237.151, 119.831 238.426, 118.500 238.032 C 113.571 236.574, 104 238.909, 104 241.570 C 104 246.705, 120.785 246.265, 131.369 240.853 C 132.541 240.254, 135.188 238.150, 137.250 236.179 C 140.443 233.126, 141 231.957, 141 228.305 C 141 222.731, 138.758 220.517, 126.585 214.073 C 124.063 212.738, 122 211.275, 122 210.823 C 122 210.370, 121.287 210, 120.417 210 C 117.837 210, 119.421 207.568, 122.582 206.676 C 127.889 205.177, 138.494 199.262, 138.823 197.617 C 139.201 195.728, 136.478 195.493, 133.598 197.165 M 492.679 199.624 C 488.461 202.685, 487.919 203.491, 488.191 206.295 C 488.655 211.077, 491.556 211.091, 493.610 206.320 C 494.514 204.219, 495.916 201.231, 496.724 199.681 C 497.533 198.130, 498.033 196.700, 497.835 196.502 C 497.638 196.304, 495.317 197.709, 492.679 199.624 M 1010.134 196.721 C 1008.833 196.968, 1007.543 198.031, 1007.268 199.085 C 1006.992 200.138, 1006.400 201, 1005.951 201 C 1005.502 201, 1004.826 202.012, 1004.449 203.250 C 1004.072 204.488, 1003.077 206.282, 1002.237 207.239 C 1001.022 208.622, 1000.847 210.446, 1001.379 216.172 C 1002.315 226.241, 1004.752 232.518, 1009.338 236.676 C 1012.640 239.668, 1013.757 240.109, 1017.327 239.827 L 1021.478 239.500 1021.148 243.413 C 1020.967 245.565, 1020 248.490, 1018.999 249.913 C 1017.998 251.336, 1016.895 254.582, 1016.547 257.127 C 1016.037 260.859, 1016.228 261.873, 1017.537 262.376 C 1020.340 263.452, 1023.420 261.966, 1025.688 258.445 C 1027.657 255.388, 1027.831 254.072, 1027.419 245.352 C 1027.166 240.020, 1026.438 235.028, 1025.800 234.259 C 1024.946 233.230, 1023.373 233.036, 1019.831 233.523 C 1015.306 234.146, 1014.962 234.031, 1014.035 231.592 C 1013.493 230.167, 1012.594 229, 1012.038 229 C 1010.887 229, 1008.624 223.981, 1007.730 219.447 L 1007.129 216.394 1013.139 216.447 L 1019.150 216.500 1021.075 211.038 C 1025.435 198.670, 1022.198 194.434, 1010.134 196.721 M 171.229 198.171 C 169.836 199.564, 169.520 206.414, 170.888 205.569 C 172.378 204.648, 173.259 210.912, 173.382 223.318 C 173.481 233.245, 173.768 235.287, 175.172 236.075 C 176.349 236.734, 177.312 236.545, 178.422 235.435 C 179.706 234.151, 180 231.300, 180 220.140 C 180 207.904, 179.757 205.942, 177.750 201.962 C 175.401 197.304, 173.311 196.089, 171.229 198.171 M 322.694 198.695 C 321.078 201.337, 323.521 210.301, 326.194 211.536 C 328.175 212.452, 329.066 214.295, 331.977 223.500 C 335.783 235.532, 339.103 240.029, 345.307 241.555 C 347.821 242.173, 348.092 241.998, 347.902 239.873 C 347.502 235.410, 347.951 233.767, 349.417 234.330 C 350.197 234.629, 351.083 234.227, 351.386 233.437 C 351.689 232.647, 351.549 232, 351.074 232 C 350.597 232, 350.617 230.320, 351.118 228.250 C 353.471 218.524, 354.035 214.149, 353.475 209.952 C 352.177 200.222, 349.502 200.833, 348.685 211.045 C 348.340 215.362, 347.283 219.243, 345.581 222.444 C 344.161 225.114, 343 227.906, 343 228.649 C 343 231.617, 341.206 229.684, 338.480 223.780 C 336.900 220.359, 335.703 216.309, 335.820 214.780 C 335.936 213.251, 335.552 212, 334.965 212 C 334.378 212, 333.195 210.313, 332.337 208.250 C 331.478 206.188, 330.335 204.223, 329.797 203.885 C 329.259 203.547, 328.286 202.201, 327.634 200.894 C 326.434 198.485, 323.595 197.222, 322.694 198.695 M 377.192 203.997 C 377.500 209.999, 377.769 210.378, 381.500 210.060 C 383.951 209.852, 388.106 205.435, 387.448 203.737 C 386.756 201.952, 380.683 198, 378.631 198 C 377.130 198, 376.928 198.840, 377.192 203.997 M 1070.037 200.431 C 1069.337 201.739, 1069.074 203.310, 1069.452 203.923 C 1069.831 204.535, 1069.211 206.541, 1068.074 208.380 C 1066.464 210.985, 1066.203 212.362, 1066.891 214.612 C 1068.440 219.680, 1070.821 229.311, 1072.054 235.500 C 1074.687 248.713, 1074.813 249, 1077.971 249 C 1079.856 249, 1081.052 248.390, 1081.402 247.250 C 1082.026 245.213, 1080.640 238.500, 1079.228 236.722 C 1077.478 234.519, 1072.816 210.522, 1073.476 207.115 C 1074.135 203.710, 1074.614 203.517, 1077.588 205.466 C 1080.142 207.139, 1080.215 207.443, 1079.593 213.851 C 1078.418 225.969, 1085.088 242.980, 1091.661 244.630 C 1093.750 245.154, 1094.829 244.625, 1097.409 241.809 C 1100.474 238.463, 1100.572 238.083, 1100.225 230.921 L 1099.866 223.500 1102.683 226.976 C 1104.992 229.825, 1105.521 231.487, 1105.616 236.194 C 1105.760 243.271, 1109.128 252.600, 1113.118 256.968 C 1115.838 259.946, 1116.469 260.181, 1120.178 259.588 C 1126.169 258.630, 1127.836 257.389, 1128.599 253.325 C 1129.730 247.296, 1126.269 243.800, 1124.310 248.991 C 1123.195 251.944, 1120.828 252.840, 1118.379 251.235 C 1117.762 250.831, 1116.037 248.156, 1114.545 245.291 C 1111.756 239.934, 1110.752 230.916, 1112.866 230.211 C 1115.582 229.306, 1118.797 225.764, 1119.332 223.089 C 1120.199 218.757, 1117.473 210.540, 1114.529 208.611 C 1110.021 205.657, 1108.509 206.456, 1106.458 212.875 C 1104.693 218.399, 1104.399 218.742, 1101.540 218.625 C 1098.930 218.518, 1098.455 218.889, 1098.184 221.250 C 1098.010 222.762, 1097.504 224, 1097.061 224 C 1096.617 224, 1096.036 226.276, 1095.768 229.059 C 1094.867 238.440, 1091.671 237.987, 1087.958 227.952 C 1086.849 224.953, 1085.664 218.900, 1085.326 214.500 C 1084.987 210.100, 1084.345 205.511, 1083.899 204.302 C 1082.838 201.423, 1079.115 199.051, 1074.786 198.497 C 1071.904 198.128, 1071.093 198.459, 1070.037 200.431 M 414.116 200.798 C 410.632 202.667, 408.401 206.957, 405.432 217.500 C 402.986 226.185, 403.512 231.073, 407.447 236.226 C 410.591 240.344, 416.658 244.018, 420.270 243.991 C 422.387 243.975, 430.745 239.558, 433.789 236.846 C 435.390 235.420, 437.729 232.126, 438.987 229.526 C 441.185 224.987, 441.209 224.663, 439.617 221.324 C 437.507 216.898, 435.389 217.451, 435.825 222.313 C 436.241 226.967, 432.276 232.411, 426.571 235.019 C 420.421 237.829, 417.562 237.938, 417.197 235.374 C 417.030 234.205, 415.792 232.214, 414.447 230.950 C 410.713 227.442, 411.352 226.246, 417.250 225.694 C 427.249 224.759, 431.354 223.086, 430.312 220.370 C 429.864 219.202, 427.902 218.912, 421.121 219.009 C 416.379 219.077, 412.190 219.102, 411.811 219.066 C 410.740 218.963, 413.970 210.270, 415.573 208.940 C 416.678 208.023, 417 208.033, 417 208.986 C 417 209.788, 417.842 210.006, 419.417 209.610 C 420.921 209.233, 422.006 209.475, 422.289 210.252 C 422.970 212.124, 426.109 209.956, 428.414 206.022 L 430.327 202.755 427.914 200.900 C 424.811 198.515, 418.461 198.468, 414.116 200.798 M 682.406 200.385 C 681.675 202.289, 683.363 204.663, 686.056 205.518 C 689.665 206.663, 689.497 211.929, 685.493 223.151 C 679.640 239.552, 679.808 247.137, 686.143 252.467 C 688.493 254.445, 690.259 255, 694.194 255 C 698.686 255, 699.643 254.592, 702.983 251.250 C 706.166 248.066, 706.916 246.444, 707.955 240.500 C 708.791 235.717, 708.865 232.708, 708.189 231 C 707.121 228.301, 707.081 228.361, 705.142 235.500 C 703.529 241.444, 698.562 247, 694.861 247 C 686.706 247, 686.180 243.037, 691.995 225.395 C 695.533 214.662, 695.889 212.730, 695.103 208.523 C 694.031 202.786, 691.608 200.135, 686.708 199.340 C 683.856 198.877, 682.895 199.111, 682.406 200.385 M 453.321 204.589 C 454.435 211.454, 457.910 213.008, 460.584 207.837 C 462.169 204.773, 462.146 204.618, 459.860 202.859 C 458.562 201.861, 456.429 201.034, 455.119 201.022 C 452.943 201.002, 452.788 201.308, 453.321 204.589 M 720.717 202.774 C 719.424 204.214, 719.248 206.734, 719.655 218 C 720.083 229.835, 719.968 231.265, 718.720 229.592 C 717.351 227.758, 717.271 227.784, 716.654 230.244 C 715.919 233.169, 716.839 241.646, 718.174 244.250 C 719.292 246.433, 721.344 246.495, 723.084 244.399 C 724.921 242.185, 725.057 241.244, 725.693 226.345 L 726.254 213.189 729.877 212.552 C 739.030 210.941, 739.269 211.027, 742.192 217 C 744.295 221.297, 744.896 224.015, 744.942 229.429 C 745 236.317, 744.755 237.606, 741.450 247.855 C 739.993 252.375, 739.940 253.348, 741.112 254.090 C 742.799 255.159, 743.186 255.175, 744.624 254.235 C 745.723 253.517, 748.882 246.496, 750.805 240.500 C 751.666 237.817, 751.842 237.711, 752.480 239.500 C 754.949 246.424, 759.208 251.436, 764.177 253.264 C 766.565 254.143, 773.690 246.170, 774.533 241.677 C 775.335 237.399, 774.379 234, 772.374 234 C 771.553 234, 771.136 234.412, 771.447 234.915 C 771.758 235.418, 771.672 235.980, 771.256 236.165 C 770.840 236.349, 769.493 238.637, 768.263 241.250 C 766.158 245.719, 764.710 246.979, 763.664 245.250 C 763.414 244.838, 762.889 240.178, 762.497 234.896 L 761.784 225.292 766.013 224.725 C 768.339 224.413, 770.667 223.733, 771.185 223.215 C 772.557 221.843, 769.349 219, 766.429 219 C 764.695 219, 764 218.447, 764 217.067 C 764 214.642, 766.962 213.657, 773.608 213.875 C 779.573 214.070, 781.823 212.406, 780.057 209.107 C 778.030 205.320, 764.993 205.097, 761.719 208.794 C 759.680 211.097, 756.979 219.382, 756.273 225.500 C 755.956 228.250, 754.865 231.573, 753.848 232.885 L 752 235.270 752 231.467 C 752 213.223, 744.243 201.195, 734.261 203.958 C 732.193 204.531, 729.849 205.418, 729.054 205.930 C 727.274 207.075, 724 205.517, 724 203.524 C 724 201.271, 722.395 200.904, 720.717 202.774 M 1012.430 201.965 C 1011.291 202.426, 1009.556 204.029, 1008.574 205.527 C 1006.517 208.666, 1007.560 209.958, 1012.172 209.985 C 1014.343 209.997, 1015.061 209.346, 1015.994 206.520 C 1017.636 201.542, 1016.635 200.263, 1012.430 201.965 M 251.442 203.093 C 251.071 203.695, 251.289 206.732, 251.927 209.843 C 252.565 212.955, 253.418 218.200, 253.822 221.500 C 254.459 226.696, 254.821 227.463, 256.529 227.226 C 260.822 226.629, 265.682 226.728, 269.308 227.485 L 273.116 228.281 271.308 225.298 C 265.561 215.818, 254.679 202, 252.960 202 C 252.497 202, 251.814 202.492, 251.442 203.093 M 975.063 204.420 C 973.454 206.141, 972.963 207.363, 973.617 208.017 C 975.193 209.593, 978.247 206.765, 977.845 204.101 L 977.500 201.814 975.063 204.420 M 1124.047 204.500 C 1124.023 205.986, 1125.808 208.526, 1126.435 207.898 C 1126.735 207.599, 1126.323 206.487, 1125.521 205.427 C 1124.720 204.367, 1124.056 203.950, 1124.047 204.500 M 787.924 210.750 C 787.582 227.685, 787.667 227.233, 783.650 233.681 C 781.533 237.081, 779.170 240.104, 778.400 240.400 C 777.630 240.695, 777 241.851, 777 242.969 C 777 247.558, 784.069 244.548, 787.633 238.441 C 788.926 236.225, 789.870 236.730, 790.495 239.974 C 791.203 243.652, 795.263 251.374, 797.456 253.217 C 803.471 258.269, 812.380 250.312, 813.453 238.930 C 813.735 235.943, 814.253 230.995, 814.604 227.934 C 815.377 221.191, 813.169 215.674, 809.903 216.188 C 807.607 216.549, 807.647 216.330, 808.552 223.573 C 809.061 227.642, 808.842 229.980, 807.735 232.314 C 806.904 234.066, 805.666 237.300, 804.985 239.500 C 802.441 247.712, 800.849 247.867, 797.282 240.250 C 794.835 235.025, 794.585 233.396, 794.544 222.407 C 794.498 209.691, 793.683 207, 789.878 207 C 788.388 207, 787.984 207.775, 787.924 210.750 M 828.131 213.587 C 822.037 216.149, 819.038 225.842, 822.769 230.914 C 823.815 232.337, 824.979 234.738, 825.355 236.250 C 825.730 237.762, 826.480 239, 827.019 239 C 827.559 239, 828 239.830, 828 240.845 C 828 243.585, 830.867 245.598, 836.721 246.966 C 847.104 249.392, 855 245.561, 855 238.097 C 855 236.700, 855.470 236.243, 856.500 236.638 C 857.325 236.955, 858 236.716, 858 236.107 C 858 235.498, 857.325 235, 856.500 235 C 855.539 235, 854.988 234.013, 854.966 232.250 C 854.904 227.198, 851.646 222.230, 845.521 217.844 C 838.849 213.065, 832.858 211.599, 828.131 213.587 M 1111.240 214.217 C 1111.189 214.923, 1110.820 217.248, 1110.421 219.384 C 1109.841 222.487, 1109.977 223.176, 1111.097 222.807 C 1112.706 222.278, 1113.603 215.203, 1112.235 213.835 C 1111.699 213.299, 1111.295 213.455, 1111.240 214.217 M 413.583 215.866 C 413.152 216.563, 413.070 217.403, 413.400 217.733 C 414.295 218.628, 415.271 217.312, 414.787 215.862 C 414.449 214.846, 414.213 214.846, 413.583 215.866 M 459.750 219.080 C 458.266 219.944, 458 221.635, 458 230.200 L 458 240.300 461.026 236.123 C 465.312 230.206, 469.659 222.889, 470.456 220.250 C 471.095 218.132, 470.853 218.002, 466.317 218.030 C 463.668 218.047, 460.712 218.519, 459.750 219.080 M 828.253 222.967 C 827.417 224.306, 827.319 225.710, 827.948 227.364 C 828.457 228.701, 828.612 230.055, 828.293 230.374 C 827.974 230.692, 828.453 231.237, 829.357 231.583 C 830.261 231.930, 831 232.786, 831 233.485 C 831 234.183, 831.696 235.333, 832.547 236.039 C 833.475 236.810, 833.697 237.569, 833.100 237.938 C 831.104 239.172, 833.855 241.229, 838.126 241.696 C 844.193 242.359, 847.579 240.855, 848.316 237.170 C 849.705 230.227, 845.436 224.340, 839.390 224.861 C 837.072 225.061, 835.802 224.555, 834.711 222.998 C 833.605 221.419, 833.055 221.205, 832.607 222.180 C 832.131 223.214, 831.874 223.230, 831.417 222.250 C 830.593 220.485, 829.672 220.694, 828.253 222.967 M 263.750 233.662 C 264.438 233.940, 265.563 233.940, 266.250 233.662 C 266.938 233.385, 266.375 233.158, 265 233.158 C 263.625 233.158, 263.063 233.385, 263.750 233.662 M 182.500 272 C 182.160 272.550, 182.359 273, 182.941 273 C 183.523 273, 184 272.550, 184 272 C 184 271.450, 183.802 271, 183.559 271 C 183.316 271, 182.840 271.450, 182.500 272 M 186 273.969 C 186 274.501, 186.675 274.678, 187.500 274.362 C 188.325 274.045, 189 273.609, 189 273.393 C 189 273.177, 188.325 273, 187.500 273 C 186.675 273, 186 273.436, 186 273.969 M 1099.229 275.188 C 1099.847 277.042, 1102 277.349, 1102 275.583 C 1102 274.712, 1101.287 274, 1100.417 274 C 1099.546 274, 1099.011 274.534, 1099.229 275.188 M 950.712 290.766 C 948.259 293.476, 947.184 300.107, 946.540 316.500 C 945.907 332.582, 945.292 337.702, 943.887 338.570 C 942.420 339.477, 942.886 341.742, 944.682 342.431 C 945.813 342.866, 947.111 342.164, 948.646 340.288 C 950.628 337.867, 950.933 336.349, 950.964 328.750 C 950.984 323.938, 951.413 320, 951.917 320 C 952.422 320, 953.602 322.137, 954.541 324.750 C 958.143 334.779, 962.902 343.890, 965.392 345.521 C 966.804 346.447, 969.834 347.625, 972.125 348.139 C 975.716 348.946, 976.590 348.794, 978.460 347.038 C 979.653 345.917, 981.351 345, 982.233 345 C 983.115 345, 984.753 343.538, 985.873 341.750 C 986.992 339.962, 988.980 337.362, 990.290 335.970 C 993.605 332.450, 994.696 328.227, 995.064 317.500 C 995.305 310.472, 993.004 303.935, 989.249 300.981 C 986.961 299.181, 983.767 298.101, 985.318 299.651 C 985.676 300.009, 985.188 300.895, 984.234 301.619 C 982.723 302.767, 982.705 302.940, 984.092 302.968 C 986.347 303.013, 988 309.350, 988 317.947 C 988 324.515, 987.688 325.631, 984.514 330.413 C 979.930 337.318, 977.988 338.965, 973.585 339.680 C 969.128 340.403, 968.555 339.774, 962.943 328 C 958.520 318.721, 956.980 310.570, 957.396 298.639 C 957.706 289.740, 954.770 286.282, 950.712 290.766 M 1016 291 C 1016 292.111, 1016.667 293, 1017.500 293 C 1019.183 293, 1019.251 292.817, 1018.393 290.582 C 1017.536 288.347, 1016 288.616, 1016 291 M 1055 290.071 C 1055 291.456, 1057.544 294, 1058.929 294 C 1060.612 294, 1060.180 290.283, 1058.418 289.607 C 1056.093 288.715, 1055 288.863, 1055 290.071 M 897.412 291.142 C 896.541 292.552, 895.943 296.248, 895.980 300 C 895.994 301.375, 895.998 304.034, 895.990 305.910 C 895.983 307.785, 896.823 311.160, 897.857 313.410 C 898.892 315.659, 900.255 318.850, 900.887 320.500 C 902.409 324.473, 912.271 334, 914.862 334 C 922.839 334, 924.591 328.214, 922.682 308.174 C 921.819 299.127, 920.450 295, 918.308 295 C 916.230 295, 915.832 297.106, 916.775 303.120 C 917.349 306.780, 917.230 310.369, 916.415 313.988 C 915.634 317.457, 915.523 320.246, 916.106 321.780 C 917.128 324.467, 916.547 326, 914.508 326 C 912.551 326, 906.472 318.268, 904.126 312.794 C 902.281 308.489, 901.437 299.761, 902.213 293 C 902.432 291.090, 901.992 290.428, 900.344 290.193 C 899.159 290.024, 897.839 290.451, 897.412 291.142 M 1020.229 291.188 C 1020.847 293.042, 1023 293.349, 1023 291.583 C 1023 290.712, 1022.288 290, 1021.417 290 C 1020.546 290, 1020.011 290.534, 1020.229 291.188 M 1062 291.278 C 1062 293.112, 1065.676 296, 1068.011 296 C 1070.808 296, 1070.486 294.735, 1067.040 292.188 C 1063.690 289.711, 1062 289.406, 1062 291.278 M 364 292 C 364 292.550, 364.450 293, 365 293 C 365.550 293, 366 292.550, 366 292 C 366 291.450, 365.550 291, 365 291 C 364.450 291, 364 291.450, 364 292 M 137 294.430 C 133.975 295.746, 130.713 297.073, 129.750 297.380 C 127.687 298.037, 127.481 300.758, 129.284 303.527 C 130.714 305.724, 130.935 333.798, 129.624 346.760 C 129.006 352.881, 129.136 354.115, 130.458 354.622 C 132.970 355.586, 135 353.075, 135 349.003 C 135 346.939, 135.279 343.856, 135.620 342.152 C 136.204 339.230, 136.359 339.138, 138.342 340.527 C 139.900 341.618, 143.434 341.999, 151.973 341.996 C 161.700 341.993, 164.008 341.683, 166.750 340.011 C 169.424 338.380, 170 337.407, 170 334.515 C 170 330.498, 169.100 330.127, 166.453 333.052 C 164.751 334.933, 163.635 335.078, 153.048 334.802 L 141.500 334.500 141.845 331 C 142.035 329.075, 142.539 327.050, 142.965 326.500 C 143.391 325.950, 144.314 323.700, 145.016 321.500 C 145.719 319.300, 148.487 313.175, 151.169 307.889 C 153.916 302.474, 155.783 297.597, 155.445 296.717 C 154.654 294.657, 148.933 291.995, 145.349 292.019 C 143.782 292.030, 140.025 293.115, 137 294.430 M 225.542 294.516 C 222.272 296.752, 221.260 297.019, 219.714 296.053 C 218.280 295.158, 217.504 295.167, 216.389 296.092 C 214.775 297.431, 215.012 302.023, 217.570 319 C 218.358 324.225, 219.114 330.750, 219.251 333.500 C 219.482 338.139, 219.698 338.523, 222.250 338.816 L 225 339.133 224.965 332.316 C 224.945 328.567, 224.360 321.450, 223.663 316.500 C 222.020 304.827, 222.481 303.036, 227.832 300.324 C 233.072 297.667, 237.261 298.619, 238.790 302.815 C 242.182 312.123, 242.496 314.883, 242.318 333.750 L 242.135 353 244.445 353 C 248.044 353, 248.866 351.087, 249.406 341.455 C 249.702 336.172, 250.747 330.153, 251.954 326.775 C 253.079 323.626, 253.993 320.026, 253.985 318.775 C 253.967 315.922, 260.961 299, 262.158 299 C 262.645 299, 263.446 300.012, 263.939 301.250 C 265.204 304.426, 267.119 322.527, 266.391 324.424 C 265.532 326.662, 262.255 326.378, 261.500 324 C 260.750 321.637, 256.233 321.229, 255.381 323.448 C 254.539 325.642, 258.067 330.875, 262 333.266 C 263.925 334.437, 265.802 335.838, 266.172 336.380 C 266.542 336.922, 266.643 340.647, 266.397 344.658 C 265.956 351.851, 265.985 351.958, 268.582 352.610 C 272.235 353.527, 272.967 351.902, 272.985 342.829 L 273 335.159 275.999 334.500 C 279.104 333.818, 282.338 330.357, 281.356 328.766 C 281.047 328.267, 279.041 328.155, 276.897 328.517 C 273.563 329.081, 272.984 328.910, 272.891 327.338 C 272.832 326.327, 272.684 321.225, 272.564 316 C 272.283 303.819, 269.156 293.328, 265.535 292.419 C 260.823 291.237, 258.943 292.844, 254.868 301.540 C 252.721 306.123, 250.576 311.947, 250.102 314.483 C 249.628 317.018, 249.028 319.306, 248.767 319.566 C 248.507 319.827, 248.032 316.919, 247.712 313.104 C 246.991 304.510, 245.388 298.999, 242.624 295.620 C 240.972 293.600, 239.278 292.889, 235 292.417 C 230.119 291.879, 229.055 292.115, 225.542 294.516 M 481.176 293.224 C 480.529 293.871, 480 295.155, 480 296.078 C 480 298.078, 482.532 300.408, 483.832 299.604 C 485.104 298.818, 489.804 305.940, 490.034 309 C 490.137 310.375, 490.172 312.978, 490.111 314.784 L 490 318.069 485 317.406 L 480 316.742 480 319.634 C 480 321.645, 480.669 322.827, 482.194 323.513 C 484.439 324.522, 485.322 326.714, 487.024 335.500 C 488.283 341.998, 489.903 345, 492.150 345 C 494.130 345, 494.841 343.046, 495.860 334.817 L 496.500 329.646 503.128 329.887 C 509.728 330.128, 515.985 328.452, 517.472 326.045 C 517.866 325.408, 517.902 323.746, 517.552 322.352 C 517.074 320.448, 516.491 319.994, 515.208 320.525 C 510.267 322.569, 505.314 323.068, 501.252 321.931 C 497.502 320.881, 495.376 319, 497.940 319 C 498.457 319, 498.785 317.762, 498.669 316.250 C 498.541 314.588, 497.872 313.498, 496.979 313.495 C 495.926 313.492, 495.600 312.627, 495.847 310.495 C 496.038 308.848, 496.278 307.410, 496.380 307.300 C 496.482 307.191, 499.595 308.025, 503.297 309.155 C 511.708 311.723, 515.264 311.124, 514.813 307.215 C 514.555 304.980, 513.793 304.317, 510.500 303.467 C 502.222 301.329, 494.047 297.724, 493.489 295.967 C 492.477 292.778, 490.500 291.815, 487.642 293.117 C 485.727 293.990, 484.709 294.004, 483.706 293.171 C 482.701 292.337, 482.049 292.351, 481.176 293.224 M 1001 293 C 1001 293.550, 1001.450 294, 1002 294 C 1002.550 294, 1003 293.550, 1003 293 C 1003 292.450, 1002.550 292, 1002 292 C 1001.450 292, 1001 292.450, 1001 293 M 102.253 294.460 C 99.918 295.190, 96.414 297.185, 94.468 298.894 C 92.523 300.602, 90.475 302, 89.917 302 C 88.811 302, 84 306.866, 84 307.986 C 84 308.367, 85.066 309.165, 86.369 309.758 C 88.271 310.625, 89.379 310.448, 91.992 308.859 C 93.781 307.771, 95.817 307.100, 96.516 307.368 C 98.908 308.286, 100.147 328.792, 98.133 334.116 C 97.490 335.813, 97.680 337.273, 98.791 339.183 C 100.148 341.515, 100.180 342.582, 99.036 347.348 C 98.313 350.364, 98.008 353.578, 98.358 354.491 C 98.709 355.404, 98.322 359.380, 97.498 363.326 C 96.675 367.271, 96.001 371.689, 96.001 373.143 C 96 375.888, 98.622 377.778, 100.218 376.182 C 102.341 374.059, 104.082 363.369, 104.644 349 L 105.251 333.500 112.984 325.975 C 122.579 316.636, 124.365 313.412, 123.788 306.459 C 122.868 295.359, 114.429 290.657, 102.253 294.460 M 999 297.540 C 999 299.133, 999.450 299.765, 1000.340 299.423 C 1001.077 299.140, 1002.235 299.578, 1002.913 300.395 C 1003.591 301.212, 1004.783 301.637, 1005.561 301.338 C 1006.339 301.040, 1008.303 301.259, 1009.926 301.824 C 1014.318 303.355, 1015.776 301.129, 1012.615 297.718 C 1010.596 295.540, 1009.361 295.143, 1004.614 295.143 C 999.357 295.143, 999 295.295, 999 297.540 M 367.029 297.947 C 365.810 298.729, 365.751 299.616, 366.685 303.114 C 367.305 305.436, 367.626 308.723, 367.399 310.418 C 367.171 312.113, 367.440 316.650, 367.995 320.500 C 368.550 324.350, 369.443 332.650, 369.980 338.945 C 370.898 349.705, 371.122 350.523, 373.728 352.622 C 378.130 356.167, 383.323 357.083, 389.347 355.377 C 392.181 354.575, 396.026 353.520, 397.891 353.033 C 405.259 351.108, 406.132 346.940, 401.193 337.261 C 396.874 328.795, 389.686 320.995, 383.398 317.951 C 378.576 315.616, 376.892 313.155, 373.513 303.505 C 371.421 297.530, 369.819 296.156, 367.029 297.947 M 542.344 298.820 C 541.767 299.194, 540.499 301.975, 539.527 305 C 537.539 311.184, 532.783 320.106, 530.436 322.053 C 529.583 322.761, 528.296 324.727, 527.576 326.420 C 526.275 329.484, 523.141 332.914, 517.590 337.348 C 514.237 340.026, 514.790 342, 518.893 342 C 520.732 342, 523.101 340.677, 525.921 338.073 L 530.175 334.146 534.337 335.918 C 536.627 336.892, 539.064 337.497, 539.754 337.260 C 540.516 336.999, 542.166 339.412, 543.962 343.415 C 547.010 350.209, 549.082 351.584, 550.965 348.065 C 551.664 346.760, 551.675 345.276, 551 343.500 C 549.514 339.592, 549.783 337.014, 551.750 336.320 C 554.670 335.289, 558 331.769, 558 329.712 C 558 328.149, 557.467 327.865, 555.250 328.245 C 553.737 328.505, 551.749 329.040, 550.831 329.434 C 549.428 330.037, 549.066 329.305, 548.556 324.826 C 548.055 320.436, 547.404 310.359, 547.067 301.785 C 546.989 299.787, 543.871 297.829, 542.344 298.820 M 570 300.083 C 570 300.991, 571.913 302.977, 574.250 304.495 C 581.659 309.308, 582.989 310.898, 581.933 313.676 C 581.420 315.026, 580.993 317.563, 580.985 319.315 C 580.977 321.067, 580.321 324.300, 579.529 326.500 C 578.309 329.887, 578.063 330.117, 577.925 328 C 577.836 326.625, 577.820 325.153, 577.889 324.729 C 577.958 324.304, 577.319 320.929, 576.470 317.229 C 574.724 309.619, 572.084 305.370, 569.674 306.295 C 568.389 306.788, 568.198 307.987, 568.655 312.701 C 568.964 315.890, 569.718 319.400, 570.331 320.500 C 570.945 321.600, 571.683 326.996, 571.973 332.491 C 572.484 342.185, 572.581 342.520, 575.250 343.795 C 577.116 344.687, 578 345.877, 578 347.499 C 578 351.230, 581.983 355.083, 586.739 355.952 C 590.325 356.608, 591.637 356.307, 595.965 353.835 C 600.401 351.302, 601.456 350.019, 604.692 343.227 C 606.716 338.977, 609.452 333.761, 610.772 331.635 C 612.367 329.064, 612.836 327.436, 612.172 326.772 C 610.608 325.208, 606.346 328.907, 603.952 333.907 C 597.830 346.694, 587.026 353.305, 584.038 346.092 C 582.592 342.600, 582.457 334.897, 583.798 332.340 C 584.329 331.328, 585.714 326.714, 586.875 322.086 C 588.036 317.459, 589.718 312.864, 590.612 311.876 C 592.753 309.510, 591.709 305.350, 588.748 304.449 C 587.511 304.073, 584.025 302.596, 581 301.166 C 574.491 298.090, 570 297.648, 570 300.083 M 1065 299 C 1065 299.550, 1065.450 300, 1066 300 C 1066.550 300, 1067 299.550, 1067 299 C 1067 298.450, 1066.550 298, 1066 298 C 1065.450 298, 1065 298.450, 1065 299 M 104.716 300.312 C 102.431 301.213, 102.026 301.867, 102.461 303.955 C 102.752 305.355, 103.225 308.975, 103.511 312 C 103.798 315.025, 104.653 319.525, 105.413 322 C 106.509 325.573, 106.948 326.120, 107.541 324.654 C 107.952 323.638, 110.473 320.622, 113.144 317.951 C 117.390 313.705, 118 312.575, 118 308.949 C 118 305.600, 117.403 304.245, 114.894 301.901 C 111.633 298.854, 109.323 298.494, 104.716 300.312 M 180.137 300.335 C 179.330 301.308, 179.253 302.535, 179.894 304.221 C 180.409 305.576, 181.064 308.668, 181.350 311.093 C 181.635 313.517, 182.353 317.075, 182.946 319 C 183.538 320.925, 184.264 329.215, 184.559 337.422 C 184.854 345.630, 185.325 352.717, 185.607 353.172 C 186.393 354.444, 189.627 354.154, 190.831 352.704 C 191.422 351.991, 191.880 350.529, 191.847 349.454 C 191.814 348.379, 192.233 345.329, 192.778 342.674 C 193.573 338.806, 193.495 337.744, 192.385 337.317 C 191.391 336.936, 191 334.845, 191 329.907 C 191 322.666, 190.115 317.975, 186.588 306.508 C 184.402 299.400, 182.457 297.540, 180.137 300.335 M 415.146 300.324 C 414.482 301.124, 413.818 309.145, 413.470 320.574 C 412.857 340.729, 412.714 342.967, 411.592 350 C 410.793 355.013, 412.550 358.770, 415.215 357.748 C 416.783 357.146, 417.503 353.400, 418.625 340 C 418.971 335.875, 419.593 330.475, 420.009 328 L 420.765 323.500 420.882 327.309 C 420.947 329.404, 421.366 330.892, 421.814 330.615 C 423.016 329.872, 423.300 313, 422.110 313 C 421.566 313, 420.811 309.850, 420.431 306 C 419.866 300.266, 419.425 299, 417.993 299 C 417.032 299, 415.750 299.596, 415.146 300.324 M 634.252 300.536 C 633.046 301.381, 631.508 303.910, 630.835 306.156 C 629.621 310.210, 629.600 310.224, 627.896 308.119 C 625.642 305.336, 624.163 305.441, 623.013 308.467 C 622.329 310.265, 622.534 311.960, 623.768 314.717 C 625.119 317.736, 625.394 320.821, 625.128 330 C 624.269 359.689, 624.315 360.053, 629.264 362.683 C 634.417 365.421, 646.841 365.098, 655.425 362.003 C 664.927 358.578, 670.051 353.633, 670.465 347.489 C 670.632 345.006, 670.384 342.737, 669.913 342.446 C 668.533 341.593, 664.147 344.972, 663.810 347.148 C 663.312 350.354, 649.537 355.951, 641.727 356.120 C 631.438 356.342, 631.678 356.421, 633.617 353.461 C 635.312 350.875, 635.310 350.480, 633.536 330 C 633.080 324.737, 634.725 315, 636.071 315 C 636.582 315, 636.888 314.459, 636.750 313.797 C 636.612 313.135, 637.175 312.570, 638 312.542 C 638.825 312.514, 640.554 311.892, 641.843 311.160 C 643.235 310.370, 645.265 310.102, 646.843 310.500 C 648.304 310.868, 651.413 311.350, 653.750 311.570 C 657.444 311.919, 658 311.714, 658 310.006 C 658 308.773, 656.603 307.263, 654.250 305.954 C 652.188 304.806, 648.700 302.808, 646.500 301.514 C 641.800 298.750, 637.314 298.391, 634.252 300.536 M 136.079 301.265 C 133.275 302.695, 132.164 305, 134.278 305 C 135.228 305, 135.586 305.771, 135.324 307.250 C 135.105 308.488, 135.538 312.650, 136.287 316.500 L 137.648 323.500 139.224 320 C 144.339 308.643, 147 302.200, 147 301.170 C 147 299.603, 139.204 299.671, 136.079 301.265 M 689.930 302.684 C 689.190 304.630, 689.266 306.210, 690.205 308.434 C 691.123 310.607, 691.432 316.225, 691.268 327.724 C 691.053 342.706, 691.179 344.025, 692.913 344.953 C 695.977 346.593, 697.078 343.965, 697.577 333.826 C 698.420 316.692, 698.049 307.997, 696.332 304.645 C 693.611 299.333, 691.455 298.673, 689.930 302.684 M 797.091 303.872 C 796.316 304.391, 795.084 304.586, 794.355 304.306 C 792.859 303.732, 791.284 307.199, 790.049 313.783 C 788.937 319.715, 792.002 331.019, 796.481 337.500 C 801.213 344.348, 805.979 347.898, 811.445 348.648 C 815.288 349.174, 816.455 348.890, 819.267 346.745 C 824.856 342.482, 827.809 337.208, 828.083 331 C 828.216 327.975, 828.100 324.825, 827.825 324 C 827.549 323.175, 826.548 320.250, 825.599 317.500 C 824.651 314.750, 823.790 311.777, 823.687 310.894 C 823.584 310.010, 821.952 307.985, 820.061 306.394 C 816.900 303.734, 815.889 303.477, 807.561 303.214 C 802.577 303.057, 797.866 303.353, 797.091 303.872 M 1009 303.845 C 1009 305.185, 1012.591 308.076, 1013.333 307.333 C 1013.702 306.964, 1013.259 305.838, 1012.347 304.831 C 1010.598 302.899, 1009 302.428, 1009 303.845 M 801.507 308.989 C 801.157 309.555, 801.558 309.723, 802.448 309.382 C 804.180 308.717, 804.497 308, 803.059 308 C 802.541 308, 801.843 308.445, 801.507 308.989 M 803 312.941 C 803 314.459, 803.643 315, 805.450 315 C 806.798 315, 808.260 315.596, 808.700 316.325 C 809.140 317.054, 810.288 317.940, 811.250 318.294 C 813.390 319.081, 813.567 321, 811.500 321 C 810.675 321, 809.868 320.887, 809.706 320.750 C 809.544 320.613, 808.138 321.335, 806.580 322.355 C 804.264 323.873, 803.596 323.964, 802.910 322.855 C 802.223 321.743, 801.775 321.797, 800.418 323.154 C 799.376 324.196, 799.074 325.306, 799.603 326.154 C 800.064 326.894, 800.496 328.996, 800.562 330.825 C 800.736 335.608, 806.445 341.154, 811.337 341.293 C 819.760 341.531, 823.944 331.706, 820.697 319.312 C 819.407 314.388, 817.386 313.078, 810.484 312.689 C 807.725 312.534, 804.912 312.064, 804.234 311.644 C 803.408 311.134, 803 311.563, 803 312.941 M 536.635 324.400 L 532.867 328.999 535.499 329.999 C 540.644 331.956, 542.007 331.373, 541.930 327.250 C 541.891 325.188, 541.532 322.668, 541.132 321.650 C 540.502 320.050, 539.896 320.421, 536.635 324.400 M 813 322.917 C 813 323.512, 813.477 324, 814.059 324 C 814.641 324, 814.840 324.450, 814.500 325 C 814.160 325.550, 814.392 326, 815.014 326 C 816.510 326, 815.855 322.784, 814.250 322.250 C 813.563 322.021, 813 322.321, 813 322.917 M 375.696 328.250 C 376.026 331.137, 376.873 334.342, 377.578 335.371 C 378.467 336.671, 378.574 337.990, 377.929 339.686 C 377.418 341.030, 377 342.254, 377 342.405 C 377 342.556, 378.913 343.291, 381.250 344.038 C 383.587 344.785, 386.511 346.032, 387.746 346.810 C 389.978 348.216, 396.390 347.796, 397.390 346.178 C 398.029 345.143, 393.476 336.388, 390.055 332.075 C 387.500 328.853, 378.470 323, 376.054 323 C 375.486 323, 375.340 325.144, 375.696 328.250 M 750.500 324 C 750.160 324.550, 750.359 325, 750.941 325 C 751.523 325, 752 324.550, 752 324 C 752 323.450, 751.802 323, 751.559 323 C 751.316 323, 750.840 323.450, 750.500 324 M 0.079 325.583 C 0.127 326.748, 0.364 326.985, 0.683 326.188 C 0.972 325.466, 0.936 324.603, 0.604 324.271 C 0.272 323.939, 0.036 324.529, 0.079 325.583 M 831 333.441 C 831 334.298, 831.450 335, 832 335 C 832.550 335, 833 334.577, 833 334.059 C 833 333.541, 832.550 332.840, 832 332.500 C 831.450 332.160, 831 332.584, 831 333.441 M 107 349.059 C 107 349.641, 107.450 349.840, 108 349.500 C 108.550 349.160, 109 348.684, 109 348.441 C 109 348.198, 108.550 348, 108 348 C 107.450 348, 107 348.477, 107 349.059 M 0 354 C 0 355.111, 0.667 356, 1.500 356 C 2.333 356, 3 355.111, 3 354 C 3 352.889, 2.333 352, 1.500 352 C 0.667 352, 0 352.889, 0 354 M 1.500 370 C -0.408 370.820, -0.397 370.863, 1.750 370.930 C 2.988 370.968, 4 370.550, 4 370 C 4 369.450, 3.888 369.032, 3.750 369.070 C 3.612 369.109, 2.600 369.527, 1.500 370 M 0.667 372.667 C -0.601 373.934, 0.008 375, 2 375 C 3.111 375, 4 374.333, 4 373.500 C 4 371.978, 1.885 371.449, 0.667 372.667 M 0 379.607 C 0 382.485, 0.320 383.091, 1.582 382.607 C 2.452 382.273, 3.577 382, 4.082 382 C 4.587 382, 5 380.650, 5 379 C 5 376.467, 4.611 376, 2.500 376 C 0.295 376, 0 376.426, 0 379.607 M 592.073 399.635 C 590.933 401.084, 589.966 402.772, 589.923 403.385 C 589.881 403.998, 589.669 405.175, 589.451 406 C 589.233 406.825, 588.412 409.975, 587.625 413 C 586.839 416.025, 585.534 420.306, 584.726 422.513 C 583.917 424.720, 582.938 428.407, 582.550 430.706 C 582.161 433.004, 581.204 435.416, 580.422 436.065 C 579.640 436.714, 579 437.881, 579 438.658 C 579 440.807, 575.949 445, 574.385 445 C 573.623 445, 573 445.852, 573 446.893 C 573 450.071, 578.753 451.208, 581.019 448.477 C 581.782 447.558, 583.058 447.201, 584.243 447.577 C 585.958 448.122, 586.126 447.844, 585.589 445.350 C 584.749 441.444, 588.173 432.595, 590.674 432.209 C 591.711 432.049, 594.174 432.593, 596.147 433.417 C 598.888 434.562, 599.882 435.662, 600.367 438.083 C 601.530 443.901, 601.226 445.207, 598.881 444.462 C 596.779 443.795, 596.776 443.813, 598.579 446.864 C 602.342 453.235, 605.818 451.487, 606.325 442.969 C 606.645 437.598, 606.706 437.500, 610.109 436.947 C 614.093 436.300, 616 435.308, 616 433.882 C 616 433.332, 615.530 433.172, 614.956 433.527 C 614.382 433.882, 613.257 433.628, 612.456 432.964 C 611.655 432.299, 611 432.066, 611 432.446 C 611 432.825, 609.650 432.175, 608 431 C 605.747 429.396, 604.998 428.071, 604.993 425.682 C 604.980 419.724, 602.144 403.548, 601.049 403.183 C 600.449 402.983, 599.281 401.510, 598.453 399.910 C 596.588 396.303, 594.756 396.224, 592.073 399.635 M 650 400.432 C 650 402.039, 651.102 403.640, 653.250 405.154 C 655.038 406.413, 657.625 408.481, 659 409.748 C 664.334 414.667, 680.529 417.650, 687.502 414.999 C 689.299 414.316, 690 413.305, 690 411.400 C 690 409.006, 689.718 408.806, 687.085 409.333 C 682.037 410.343, 671.861 408.088, 665.345 404.516 C 661.960 402.661, 658.912 401.421, 658.572 401.761 C 658.232 402.101, 657.264 401.394, 656.420 400.190 C 655.554 398.953, 653.824 398, 652.443 398 C 650.522 398, 650 398.520, 650 400.432 M 710.638 405.232 C 709.120 408.736, 708.773 412.479, 708.623 426.982 C 708.522 436.617, 708.826 446.863, 709.296 449.750 C 710.028 454.235, 710.528 455.095, 712.732 455.648 C 714.604 456.117, 715.680 455.791, 716.656 454.456 C 718.448 452.005, 718.415 447, 716.607 447 C 715.841 447, 715.006 446.438, 714.752 445.750 C 714.176 444.190, 714.792 411.510, 715.469 407.709 C 715.913 405.216, 714.359 401, 712.995 401 C 712.707 401, 711.647 402.905, 710.638 405.232 M 500.603 405.593 C 500.266 406.469, 500.425 409.957, 500.956 413.343 C 502.250 421.608, 502.250 427.137, 500.955 435.500 C 499.762 443.206, 497.871 447.002, 495.227 446.996 C 490.064 446.985, 481.569 437.121, 484.932 435.042 C 485.821 434.493, 486.014 433.561, 485.491 432.351 C 484.743 430.621, 484.663 430.615, 484.270 432.262 C 483.394 435.926, 482.005 432.654, 482.116 427.191 C 482.180 424.061, 482.443 422.312, 482.700 423.305 C 482.957 424.298, 483.693 424.936, 484.334 424.722 C 485.909 424.197, 485.830 420.434, 484.250 420.750 C 483.482 420.904, 483 419.891, 483 418.122 C 483 414.787, 480.971 412.690, 478.618 413.593 C 476.797 414.292, 476.654 414.828, 474.964 427.327 C 473.522 437.986, 471.792 442.020, 468.977 441.284 C 466.600 440.662, 466.535 441.200, 468.526 445.050 C 470.876 449.596, 475.312 448.385, 477.360 442.637 C 477.902 441.115, 478.295 441, 479.512 442.010 C 480.330 442.689, 481 443.807, 481 444.495 C 481 446.565, 489.493 453.730, 492.811 454.458 C 497.336 455.452, 502.197 452.772, 505.043 447.714 C 506.980 444.270, 507.454 441.855, 507.633 434.500 C 507.914 422.965, 506.516 408.799, 504.831 406.100 C 503.271 403.603, 501.450 403.384, 500.603 405.593 M 454.001 415.750 C 454.028 421.663, 453.599 428.300, 453.049 430.500 C 452.498 432.700, 452.037 436.161, 452.024 438.191 C 451.994 442.867, 450.491 443.810, 447.520 441.019 C 444.628 438.302, 443.604 435, 445.653 435 C 446.459 435, 446.821 434.519, 446.458 433.932 C 446.095 433.344, 445.149 433.112, 444.357 433.417 C 442.312 434.201, 438.941 425.960, 438.256 418.500 C 437.531 410.602, 435.067 408.500, 433.111 414.111 C 432.337 416.332, 432.333 418.548, 433.097 421.861 C 434.286 427.015, 434.430 427.385, 439.410 438 C 444.486 448.821, 445.807 450.083, 452.203 450.219 C 456.048 450.301, 457.420 449.979, 457.210 449.045 C 457.050 448.338, 457.628 445.627, 458.493 443.021 C 461.520 433.909, 458.836 405, 454.963 405 C 454.343 405, 453.972 409.148, 454.001 415.750 M 617.998 407.800 C 615.077 410.165, 615.916 411.566, 620.728 412.359 C 622.803 412.701, 625.789 413.661, 627.364 414.491 C 628.940 415.321, 630.892 416, 631.703 416 C 633.399 416, 633.164 422.228, 630.993 434.853 C 630.004 440.603, 629.986 443.358, 630.910 447.490 C 632.430 454.280, 634.633 456.222, 641.455 456.788 C 645.800 457.148, 647.577 456.806, 650.388 455.069 C 654.167 452.734, 654.824 451.468, 655.402 445.419 C 655.607 443.263, 656.099 440.712, 656.495 439.750 C 656.925 438.704, 656.769 438, 656.107 438 C 655.498 438, 654.989 438.563, 654.975 439.250 C 654.962 439.938, 653.382 442.637, 651.465 445.250 C 648.212 449.684, 647.685 450, 643.525 450 C 639.936 450, 638.832 449.563, 637.842 447.750 C 635.897 444.188, 636.011 433.219, 638.058 427 C 640.458 419.707, 640.518 413.779, 638.213 411.693 C 635.719 409.436, 630.324 407.365, 624.907 406.585 C 621.236 406.057, 619.850 406.301, 617.998 407.800 M 815.600 409.303 C 814.149 410.364, 813.661 412.547, 813.191 420.067 C 811.706 443.824, 813.396 453.611, 820.148 460.376 C 823.795 464.030, 824.298 464.226, 828.901 463.784 C 831.841 463.501, 834.899 462.438, 836.582 461.114 C 839.268 459.001, 840.424 457.524, 845.158 450.159 C 847.578 446.393, 848.381 446.373, 858.149 449.831 C 865.505 452.435, 873.782 453.430, 877.202 452.121 C 880.506 450.855, 883 446.309, 883 441.549 C 883 434.975, 873.262 428, 864.084 428 C 857.528 428, 848 435.693, 848 440.985 C 848 443.706, 845.209 446.810, 837.350 452.831 C 831.592 457.242, 827.885 457.848, 825.013 454.849 C 820.131 449.748, 819.539 446.760, 819.519 427.087 C 819.507 415.243, 819.129 408.549, 818.460 408.324 C 817.887 408.131, 816.600 408.572, 815.600 409.303 M 749.599 412.047 C 747.620 413.785, 746 415.991, 746 416.949 C 746 417.906, 745.169 419.442, 744.153 420.361 C 741.365 422.884, 739.904 429.112, 739.812 438.866 C 739.716 449.082, 741.202 454.614, 744.876 457.714 C 750.838 462.745, 756.570 458.746, 760.797 446.607 C 762.452 441.856, 764.395 438.150, 765.677 437.299 C 767.646 435.991, 768.112 436.191, 771.825 439.942 C 774.035 442.174, 776.357 444, 776.985 444 C 777.612 444, 781.042 445.407, 784.607 447.126 C 792.883 451.117, 798.030 450.768, 802.360 445.922 C 804.977 442.995, 805.164 442.285, 804.559 437.611 C 803.789 431.668, 800.985 425.355, 797.394 421.480 C 794.969 418.863, 794.543 418.769, 787.048 419.203 C 777.570 419.752, 773.749 422.169, 772.367 428.491 C 771.660 431.724, 770.986 432.578, 768.810 432.991 C 764.833 433.745, 761.433 437.200, 758.027 443.946 C 756.358 447.253, 753.814 450.731, 752.375 451.674 C 749.888 453.304, 749.691 453.298, 748.420 451.559 C 744.606 446.344, 745.874 429.070, 750.621 421.567 C 752.176 419.109, 754.494 416.539, 755.772 415.855 C 757.439 414.962, 758.011 413.890, 757.798 412.056 C 757.355 408.251, 753.927 408.247, 749.599 412.047 M 89.565 413.596 C 89.207 415.023, 89.321 416.711, 89.819 417.346 C 91.289 419.220, 92.056 423.632, 92.535 432.961 L 92.986 441.738 87.743 442.804 C 83.576 443.652, 82.287 443.597, 81.463 442.536 C 80.600 441.424, 79.878 441.432, 77.145 442.581 C 74.403 443.734, 73.916 444.416, 74.182 446.730 C 74.494 449.448, 74.651 449.510, 82.500 450.028 C 86.900 450.319, 91.091 450.926, 91.814 451.377 C 92.760 451.967, 93.125 455.038, 93.118 462.349 C 93.113 467.932, 93.132 473.850, 93.161 475.500 C 93.190 477.150, 93.053 479.338, 92.857 480.362 C 92.364 482.935, 95.445 484.840, 97.750 483.385 C 99.267 482.428, 99.516 480.465, 99.618 468.652 C 99.692 460.115, 100.161 454.511, 100.873 453.653 C 101.498 452.900, 104.774 451.995, 108.152 451.642 C 114.980 450.928, 117 449.783, 117 446.628 C 117 444.625, 116.502 444.500, 108.550 444.500 C 103.902 444.500, 99.668 444.050, 99.139 443.500 C 98.611 442.950, 98.026 438.397, 97.839 433.383 L 97.500 424.266 106.057 424.718 C 113.005 425.085, 114.860 424.874, 115.919 423.598 C 117.960 421.138, 116.656 419.589, 111.374 418.195 C 108.693 417.487, 104.813 416.461, 102.750 415.916 C 100.688 415.370, 99 414.313, 99 413.568 C 99 411.936, 96.824 411, 93.027 411 C 90.836 411, 90.073 411.572, 89.565 413.596 M 593.186 415.268 C 592.602 417.596, 591.922 420.400, 591.675 421.500 C 591.429 422.600, 590.873 424.366, 590.440 425.424 C 589.839 426.891, 590.002 427.213, 591.127 426.782 C 591.937 426.471, 593.703 426.826, 595.050 427.573 C 596.398 428.319, 597.837 428.945, 598.250 428.965 C 600.276 429.060, 597.361 412.959, 595.099 411.561 C 594.632 411.272, 593.771 412.941, 593.186 415.268 M 132.781 415.157 C 132.569 415.793, 132.808 419.281, 133.312 422.907 C 134.454 431.125, 134.289 447.796, 133.011 453.334 C 132.482 455.625, 132.038 459.607, 132.024 462.183 C 132.004 466.035, 132.363 466.980, 134.048 467.515 C 136.906 468.422, 139 466.334, 139 462.578 C 139 460.830, 139.521 458.879, 140.158 458.242 C 141.023 457.377, 141.029 456.739, 140.179 455.715 C 139.387 454.761, 139.231 450.520, 139.664 441.723 C 140.092 433.023, 139.868 426.755, 138.944 421.550 C 137.748 414.823, 137.360 414, 135.384 414 C 134.165 414, 132.993 414.521, 132.781 415.157 M 157 415.441 C 157 416.234, 157.461 417.167, 158.025 417.515 C 159.511 418.434, 158.237 427.188, 155.335 436 C 153.977 440.125, 152.281 448.225, 151.567 454 C 150.347 463.870, 150.391 464.838, 152.294 470.140 C 154.058 475.051, 154.913 476.086, 158.910 478.152 C 161.715 479.602, 164.748 480.399, 166.709 480.202 C 172.770 479.593, 184.267 466.745, 182.612 462.430 C 181.675 459.989, 178.912 460.844, 175.420 464.657 C 171.336 469.116, 167.125 471.985, 164.651 471.993 C 163.634 471.997, 161.497 470.602, 159.901 468.894 C 157.396 466.213, 157.005 465.018, 157.034 460.144 C 157.053 457.040, 157.914 451.125, 158.948 447 C 159.982 442.875, 161.767 435.759, 162.914 431.187 C 165.768 419.812, 165.677 416.629, 162.453 415.161 C 159.018 413.596, 157 413.699, 157 415.441 M 618 419.542 C 618 422.276, 618.499 426.085, 619.110 428.007 C 620.266 431.646, 621.249 436.422, 622.895 446.398 C 624.038 453.328, 625.739 455.672, 628.235 453.760 C 630.018 452.394, 629.827 450.689, 626.525 438.500 C 625.631 435.200, 624.133 429.253, 623.197 425.284 C 622.261 421.314, 620.709 417.281, 619.748 416.319 C 618.084 414.655, 618 414.810, 618 419.542 M 672.862 421.328 C 671.546 423.994, 671.273 427.286, 671.473 438.073 C 671.754 453.273, 672.609 459.430, 674.675 461.145 C 675.792 462.072, 676.446 461.982, 677.697 460.732 C 679.117 459.311, 679.168 457.615, 678.157 445.318 C 677.533 437.718, 677.130 428.588, 677.261 425.030 C 677.542 417.425, 675.597 415.788, 672.862 421.328 M 354.368 422.088 C 348.049 423.920, 341.790 433.578, 342.533 440.350 C 343.198 446.410, 344.227 451.022, 345.024 451.515 C 345.491 451.803, 346.494 453.268, 347.253 454.770 C 352.928 466.002, 357.455 470, 364.500 470 C 372.086 470, 376.009 466.032, 378.967 455.364 C 381.162 447.449, 380.669 441.396, 377.219 433.897 C 374.426 427.823, 371.194 425.057, 364 422.579 C 358.946 420.838, 358.720 420.827, 354.368 422.088 M 198.745 429.250 C 198.513 429.938, 199.169 431.648, 200.203 433.051 C 201.623 434.979, 201.862 436.199, 201.180 438.042 C 200.662 439.443, 200.645 441.762, 201.140 443.489 C 201.615 445.144, 201.727 448.578, 201.390 451.121 C 200.475 458.015, 202.701 469.770, 205.171 471.091 C 209.064 473.175, 210 471.631, 210 463.119 C 210 458.750, 209.325 451.649, 208.500 447.338 C 207.675 443.027, 207 439.179, 207 438.786 C 207 438.394, 208.932 438.112, 211.294 438.159 C 213.656 438.207, 217.435 437.933, 219.691 437.552 C 222.398 437.095, 224.037 437.251, 224.506 438.010 C 225.283 439.267, 225.295 454.175, 224.533 471.500 C 223.973 484.243, 224.317 486, 227.367 486 C 230.789 486, 231.997 484.073, 232.035 478.550 C 232.055 475.773, 232.714 472.375, 233.500 471 C 235.137 468.136, 235.437 465, 234.073 465 C 233.564 465, 232.907 465.788, 232.614 466.750 C 232.322 467.712, 232.235 462.875, 232.422 456 C 232.768 443.259, 231.604 431.500, 229.773 429.250 C 228.401 427.565, 224.025 427.674, 219.654 429.500 C 215.073 431.414, 208.312 431.411, 204.636 429.494 C 201.142 427.672, 199.303 427.596, 198.745 429.250 M 781.500 429.155 C 775.571 432.398, 776.511 437, 783.103 437 C 786.621 437, 787.057 437.244, 786.527 438.916 C 786.192 439.970, 786.325 441.083, 786.821 441.389 C 788.706 442.554, 795.470 442.855, 796.707 441.828 C 798.678 440.193, 798.249 434.159, 795.932 430.904 C 794.098 428.329, 793.277 428.003, 788.682 428.030 C 785.832 428.047, 782.600 428.553, 781.500 429.155 M 360.594 432.042 C 358.995 432.520, 356.240 434.314, 354.471 436.028 C 351.395 439.009, 351.276 439.412, 351.741 445.234 C 352.245 451.540, 355.495 459.138, 358.742 461.602 C 359.709 462.336, 361.972 462.951, 363.772 462.968 C 366.577 462.995, 367.453 462.355, 369.912 458.478 C 371.489 455.991, 373.096 451.829, 373.483 449.228 C 373.870 446.628, 374.582 444.019, 375.065 443.432 C 375.595 442.787, 375.161 440.906, 373.971 438.686 C 372.887 436.662, 372 434.331, 372 433.504 C 372 432.509, 371.012 432, 369.082 432 C 367.477 432, 365.564 431.814, 364.832 431.587 C 364.099 431.359, 362.192 431.564, 360.594 432.042 M 862.049 436.007 C 858.958 436.744, 856 439.219, 856 441.068 C 856 441.445, 858.138 442.671, 860.750 443.792 C 864.498 445.401, 866.418 445.662, 869.848 445.032 C 872.239 444.592, 874.833 443.596, 875.612 442.817 C 876.833 441.595, 876.648 441.044, 874.264 438.806 C 871.054 435.792, 866.924 434.846, 862.049 436.007 M 582 449.500 C 582 450.325, 582.450 451, 583 451 C 583.550 451, 584 450.325, 584 449.500 C 584 448.675, 583.550 448, 583 448 C 582.450 448, 582 448.675, 582 449.500" stroke="none" fill="hsl(210, 40%, 96.1%)" fill-rule="evenodd"/>
</svg>