<svg xmlns="http://www.w3.org/2000/svg" width="1413" height="599" viewBox="0 0 1413 599" version="1.1">
	<path d="M 185 1.023 C 185 2.095, 252.049 2.080, 289 0.998 C 300.780 0.654, 284.053 0.344, 246.750 0.217 C 205.456 0.076, 185 0.343, 185 1.023 M 318.250 0.745 C 323.063 0.928, 330.938 0.928, 335.750 0.745 C 340.563 0.561, 336.625 0.411, 327 0.411 C 317.375 0.411, 313.438 0.561, 318.250 0.745 M 954.750 0.723 C 956.538 0.945, 959.462 0.945, 961.250 0.723 C 963.038 0.502, 961.575 0.320, 958 0.320 C 954.425 0.320, 952.962 0.502, 954.750 0.723 M 982.768 0.725 C 984.565 0.947, 987.265 0.943, 988.768 0.715 C 990.271 0.486, 988.800 0.304, 985.500 0.310 C 982.200 0.315, 980.971 0.502, 982.768 0.725 M 1019.250 0.689 C 1020.212 0.941, 1021.788 0.941, 1022.750 0.689 C 1023.712 0.438, 1022.925 0.232, 1021 0.232 C 1019.075 0.232, 1018.288 0.438, 1019.250 0.689 M 1026.083 0.393 C 1026.313 0.610, 1058.225 1.071, 1097 1.418 C 1135.775 1.766, 1179.200 2.333, 1193.500 2.678 C 1207.800 3.023, 1239.187 3.349, 1263.249 3.403 C 1287.311 3.456, 1306.998 3.732, 1306.999 4.015 C 1306.999 4.299, 1315.550 4.524, 1326 4.515 C 1336.449 4.507, 1344.999 4.202, 1345 3.838 C 1345 3.474, 1346.237 3.359, 1347.750 3.582 C 1354.178 4.531, 1366.821 4.779, 1370.822 4.035 C 1373.458 3.545, 1376.510 3.651, 1378.645 4.306 C 1381.223 5.097, 1382.334 5.078, 1382.857 4.232 C 1383.619 2.999, 1395.076 1.712, 1403.901 1.868 C 1407.438 1.931, 1409.941 2.542, 1411.151 3.637 C 1412.905 5.224, 1413 5.174, 1413 2.655 L 1413 0 1219.333 0 C 1112.817 0, 1025.854 0.177, 1026.083 0.393 M 1411.847 17.250 C 1411.480 25.041, 1411.537 28.812, 1412.093 33.500 C 1412.491 36.853, 1412.738 34.466, 1412.843 26.250 C 1412.929 19.512, 1412.775 14, 1412.500 14 C 1412.225 14, 1411.931 15.462, 1411.847 17.250 M 1412.079 46.583 C 1412.127 47.748, 1412.364 47.985, 1412.683 47.188 C 1412.972 46.466, 1412.936 45.603, 1412.604 45.271 C 1412.272 44.939, 1412.036 45.529, 1412.079 46.583 M 443.655 56.829 C 442.745 57.835, 441.997 59.297, 441.994 60.079 C 441.990 60.860, 441.275 62.850, 440.405 64.500 C 438.656 67.815, 435.017 80.529, 434.252 86 C 433.983 87.925, 433.360 90.003, 432.868 90.619 C 432.053 91.638, 430.118 98.067, 426.583 111.500 C 425.860 114.250, 424.308 118.675, 423.134 121.333 C 421.960 123.991, 421 127.126, 421 128.299 C 421 129.473, 420.372 132.248, 419.604 134.467 C 418.836 136.685, 417.824 140.256, 417.354 142.402 L 416.500 146.305 409.274 146.402 L 402.049 146.500 394.472 154 C 390.305 158.125, 385.581 163.525, 383.974 166 C 382.367 168.475, 380.482 171.160, 379.785 171.966 C 379.088 172.773, 377.572 174.798, 376.416 176.466 C 374.122 179.780, 367.762 186.371, 361.188 192.250 C 356.530 196.415, 351.543 197.358, 350.609 194.250 C 349.796 191.542, 350.200 176.995, 351.104 176.436 C 351.546 176.163, 352.213 173.243, 352.585 169.947 C 352.958 166.652, 353.654 163.714, 354.132 163.419 C 354.609 163.123, 355 162.189, 355 161.342 C 355 160.495, 355.612 158.384, 356.359 156.651 C 359.508 149.353, 359.915 147.943, 359.322 146.396 C 358.829 145.113, 359.134 144.908, 360.765 145.425 C 361.901 145.786, 363.114 145.625, 363.458 145.067 C 363.803 144.510, 365.613 143.328, 367.480 142.442 C 370.396 141.059, 371.273 141.021, 373.688 142.175 C 377.249 143.877, 377.739 147.068, 375.095 151.346 C 373.402 154.086, 372.556 154.588, 370.216 154.245 C 367.061 153.782, 364.625 155.860, 365.538 158.238 C 366.590 160.980, 370.857 162.199, 374.876 160.906 C 379.756 159.335, 380.767 158.402, 383.071 153.345 C 385.039 149.023, 384.994 146.570, 382.841 140.855 C 381.781 138.041, 375.180 132.186, 371.127 130.465 C 366.089 128.325, 355.946 136.177, 353.474 144.131 C 353.069 145.434, 351.993 147.625, 351.083 149 C 346.162 156.437, 341.266 178.848, 341.576 192.523 C 341.744 199.981, 341.917 200.537, 344.893 203.195 C 349.456 207.273, 353.929 206.965, 361.610 202.044 C 365.643 199.460, 368.917 196.324, 371.243 192.815 C 376.395 185.045, 380 178.339, 380 176.526 C 380 175.652, 380.639 174.692, 381.420 174.392 C 382.201 174.093, 383.983 171.519, 385.380 168.674 C 386.777 165.828, 388.838 162.934, 389.960 162.242 C 392.620 160.600, 392.650 162.463, 390 164.732 C 387.003 167.298, 387.281 173.745, 390.540 177.260 C 391.938 178.767, 393.707 180, 394.473 180 C 395.239 180, 396.161 180.931, 396.522 182.069 C 397.237 184.323, 402.540 187.990, 405.093 187.996 C 408.844 188.005, 415.459 183.232, 419.379 177.688 C 423.436 171.951, 423.443 171.923, 423.262 163.220 C 422.872 144.555, 422.740 145.432, 427.580 134.500 C 428.310 132.850, 429.438 129.025, 430.085 126 C 430.732 122.975, 431.579 120.050, 431.967 119.500 C 432.355 118.950, 433.479 115.800, 434.464 112.500 C 435.450 109.200, 436.649 106.073, 437.129 105.550 C 437.608 105.028, 438 103.559, 438 102.286 C 438 101.014, 438.413 99.191, 438.918 98.236 C 441.618 93.132, 446.310 74.774, 446.630 68.064 C 446.825 63.974, 447.381 60.374, 447.866 60.064 C 448.915 59.393, 447.459 55, 446.187 55 C 445.705 55, 444.565 55.823, 443.655 56.829 M 4.583 62.866 C 4.152 63.563, 4.070 64.403, 4.400 64.733 C 5.295 65.628, 6.271 64.312, 5.787 62.862 C 5.449 61.846, 5.213 61.846, 4.583 62.866 M 998.319 72.611 C 997.654 74.345, 999.374 92.197, 1001.537 106 C 1002.270 110.675, 1003.373 118.775, 1003.989 124 C 1004.605 129.225, 1005.482 134.625, 1005.939 136 C 1006.395 137.375, 1007.235 140.300, 1007.805 142.500 C 1008.375 144.700, 1009.370 148.525, 1010.016 151 C 1010.662 153.475, 1012.698 158.697, 1014.540 162.604 C 1016.382 166.512, 1018.195 170.930, 1018.570 172.423 C 1019.241 175.098, 1019.194 175.128, 1015.376 174.491 C 1009.544 173.518, 1008.741 173.118, 1009.361 171.502 C 1010.067 169.661, 1006.122 168.502, 1002.363 169.445 C 999.070 170.271, 993 174.822, 993 176.464 C 993 179.872, 998.358 181.898, 1009.166 182.576 C 1012.848 182.808, 1016.905 183.378, 1018.181 183.844 C 1025.109 186.373, 1031.968 183.381, 1029.243 179.017 C 1028.559 177.923, 1028 176.191, 1028 175.170 C 1028 172.154, 1024.258 162.171, 1021.871 158.818 C 1019.568 155.584, 1014.400 139.150, 1012.966 130.500 C 1011.947 124.353, 1010.075 109.446, 1008.067 91.500 C 1007.095 82.810, 1005.139 74.234, 1003.677 72.250 C 1002.369 70.477, 999.052 70.700, 998.319 72.611 M 144.298 77.456 C 144.436 78.855, 143.948 79.456, 142.750 79.361 C 139.747 79.123, 140.635 82.977, 143.841 84.094 C 145.868 84.801, 147.323 86.504, 148.922 90.042 C 151.540 95.834, 154.278 96.767, 153.933 91.750 C 153.511 85.621, 153.950 83.826, 156 83.290 C 158.234 82.706, 158.736 81, 156.674 81 C 155.945 81, 154.334 79.920, 153.094 78.600 C 151.845 77.270, 149.336 76.025, 147.468 75.806 C 144.564 75.467, 144.125 75.696, 144.298 77.456 M 266.931 82.750 C 265.742 85.362, 264.779 88.850, 264.791 90.500 C 264.803 92.150, 264.143 94.994, 263.326 96.820 C 262.477 98.717, 261.664 104.291, 261.430 109.820 C 260.735 126.267, 258.946 148.219, 257.810 154.252 C 257.164 157.678, 255.802 161.001, 254.441 162.470 C 253.184 163.826, 251.895 165.755, 251.577 166.756 C 250.920 168.827, 243.883 174.956, 238.549 178.103 C 235.964 179.629, 234.058 180.046, 231.699 179.603 C 222.422 177.863, 221.556 172.176, 228.564 159 C 231.050 154.325, 233.809 148.813, 234.694 146.750 C 235.579 144.688, 236.573 143.015, 236.902 143.034 C 237.231 143.053, 239.294 143.916, 241.487 144.953 L 245.475 146.838 246.641 142.887 C 247.283 140.714, 248.332 138.305, 248.973 137.532 C 250.676 135.481, 248.540 132, 245.579 132 C 239.989 132, 232.275 138.370, 225.595 148.500 C 222.693 152.900, 220.061 157.400, 219.744 158.500 C 219.428 159.600, 218.187 162.975, 216.986 166 C 214.659 171.863, 214.347 178.508, 216.288 180.847 C 218.316 183.290, 224.302 186.593, 229.084 187.907 C 232.641 188.885, 234.634 188.906, 237.983 188.005 C 242.311 186.839, 250.756 181.224, 254.500 177.022 L 256.500 174.778 257.202 178.639 C 259.281 190.078, 259.798 192.043, 261.351 194.414 C 262.689 196.454, 263.858 197, 266.898 197 C 270.303 197, 271.520 196.238, 277.396 190.419 C 281.051 186.799, 284.992 181.975, 286.153 179.699 C 288.160 175.765, 291.840 170.076, 293.073 169 C 293.388 168.725, 293.936 167.713, 294.292 166.750 C 294.647 165.787, 295.401 165, 295.969 165 C 297.405 165, 297.261 168.339, 295.760 169.840 C 295.079 170.521, 294.006 173.199, 293.376 175.790 C 292.747 178.380, 291.055 183.754, 289.616 187.731 C 285.532 199.021, 286.268 203.789, 291.868 202.324 C 294.395 201.663, 298.943 194.538, 301.969 186.500 C 305.241 177.807, 306.929 174.162, 307.983 173.510 C 309.075 172.836, 308.195 170, 306.893 170 C 306.402 170, 306 170.450, 306 171 C 306 171.550, 305.100 172.900, 304 174 L 302 176 302 173.622 C 302 172.315, 302.629 170.723, 303.399 170.084 C 304.168 169.446, 305.050 167.253, 305.359 165.212 C 307.128 153.517, 308.041 144.550, 307.584 143.359 C 307.284 142.578, 305.599 142, 303.619 142 C 300.516 142, 299.756 142.617, 295.921 148.250 C 293.581 151.688, 290.899 155.625, 289.961 157 C 288.163 159.636, 283.396 167.581, 281.195 171.611 C 280.478 172.925, 279.518 174, 279.062 174 C 278.606 174, 277.966 174.787, 277.640 175.750 C 276.788 178.265, 270.498 186.500, 269.429 186.500 C 267.443 186.500, 265.929 180.671, 265.867 172.793 C 265.781 161.741, 268.534 140.019, 271.008 132.229 C 272.104 128.780, 273 124.981, 273 123.788 C 273 121.665, 272.968 121.660, 271.532 123.559 C 270.212 125.304, 270.068 124.442, 270.105 115 C 270.127 109.225, 270.480 102.158, 270.888 99.295 C 271.296 96.432, 271.258 93.425, 270.803 92.612 C 270.326 91.761, 270.405 90.868, 270.988 90.508 C 271.544 90.164, 272 88.987, 272 87.893 C 272 86.799, 273.185 84.807, 274.633 83.465 C 276.815 81.442, 277.051 80.766, 276.010 79.512 C 275.320 78.681, 273.481 78, 271.924 78 C 269.517 78, 268.770 78.711, 266.931 82.750 M 66.453 82.750 C 62.110 87.477, 61.444 91.047, 62.991 101.307 C 65.078 115.145, 65.363 135.812, 63.562 142.760 C 62.703 146.076, 61.997 149.849, 61.994 151.144 C 61.990 152.440, 61.315 154.789, 60.494 156.364 C 59.667 157.949, 59 161.832, 59 165.055 C 59 168.260, 58.550 171.160, 58 171.500 C 56.559 172.391, 56.731 187.331, 58.200 188.800 C 60.015 190.615, 63.473 190.240, 65.491 188.010 C 66.745 186.625, 67.710 182.747, 68.664 175.260 C 69.418 169.342, 70.251 163.375, 70.515 162 C 71.530 156.707, 71.964 151.910, 73.004 134.500 C 74.354 111.891, 74.769 109, 76.662 109 C 79.498 109, 93.519 103.868, 97 101.555 C 101.123 98.817, 106 97.457, 106 99.047 C 106 99.643, 105.487 101.089, 104.861 102.260 C 104.235 103.430, 103.620 107.339, 103.495 110.946 C 103.253 117.922, 102.415 123.236, 101.042 126.500 C 100.579 127.600, 99.465 131.200, 98.567 134.500 C 97.669 137.800, 96.527 141.850, 96.028 143.500 C 95.529 145.150, 94.798 148.300, 94.403 150.500 C 94.009 152.700, 93.086 155.937, 92.353 157.694 C 91.620 159.451, 91.252 161.493, 91.536 162.233 C 91.820 162.973, 90.690 167.710, 89.026 172.760 C 84.153 187.547, 85.123 192.818, 92.464 191.441 C 95.864 190.803, 99.477 187.369, 101.346 183 C 101.699 182.175, 103.122 179.813, 104.508 177.750 C 107.812 172.835, 105.993 172.972, 100.723 178.035 C 98.413 180.255, 96.384 181.652, 96.214 181.141 C 96.043 180.629, 96.825 176.601, 97.952 172.189 C 99.078 167.777, 100 163.354, 100 162.362 C 100 160.547, 102.625 151.230, 106.019 141 C 107.960 135.147, 111.442 120.295, 112.522 113.255 C 112.881 110.921, 113.585 108.757, 114.087 108.446 C 114.589 108.136, 115 106.135, 115 104 C 115 101.865, 115.385 99.880, 115.856 99.589 C 116.884 98.953, 116.116 89.217, 114.843 86.762 C 114.348 85.806, 112.943 84.775, 111.721 84.471 C 108.797 83.743, 98.389 88.850, 94.575 92.882 C 92.966 94.583, 90.149 96.257, 88.314 96.601 C 86.479 96.945, 84.731 97.626, 84.430 98.113 C 84.129 98.601, 81.892 99, 79.460 99 C 75.460 99, 74.976 98.738, 74.391 96.250 C 74.034 94.737, 72.899 92.093, 71.867 90.374 C 70.156 87.525, 70.123 86.993, 71.489 84.374 C 74.821 77.985, 71.743 76.992, 66.453 82.750 M 802.361 82.772 C 800.341 84.404, 800.186 85.665, 799.560 105.500 C 798.835 128.481, 798.698 130.801, 797.558 139.191 C 796.818 144.634, 796.691 144.830, 794.642 143.691 C 793.464 143.036, 792.395 142.470, 792.267 142.434 C 792.139 142.397, 792.432 140.980, 792.918 139.285 C 793.987 135.558, 792.767 134, 788.779 134 C 786.786 134, 785.642 134.692, 784.884 136.355 C 783.793 138.749, 783.786 138.729, 789.776 149.572 C 790.478 150.842, 792.006 152.184, 793.170 152.554 C 795.223 153.205, 795.269 153.609, 794.672 165.627 C 794.333 172.447, 793.593 178.892, 793.028 179.948 C 790.543 184.591, 792.138 190, 795.993 190 C 799.828 190, 801.675 185.712, 802.454 175 C 802.794 170.325, 803.551 164.025, 804.137 161 C 805.068 156.190, 805.754 155.088, 809.600 152.219 C 812.019 150.414, 814.674 148.679, 815.499 148.362 C 817.311 147.667, 817.510 144.997, 815.750 145.006 C 815.063 145.010, 813.211 145.685, 811.636 146.506 C 806.641 149.111, 805.935 148.601, 806.440 142.750 C 806.690 139.863, 807.183 133.675, 807.535 129 C 807.887 124.325, 808.515 116.900, 808.931 112.500 C 810.041 100.731, 809.342 90.562, 807.069 85.423 C 805.993 82.990, 804.975 81.010, 804.806 81.022 C 804.638 81.034, 803.538 81.822, 802.361 82.772 M 942.128 82.761 C 940.921 85.016, 941.857 90.008, 943.614 90.682 C 944.663 91.085, 944.714 91.666, 943.842 93.296 C 943.225 94.449, 942.528 98.088, 942.294 101.384 C 942.061 104.680, 941.488 108.088, 941.022 108.959 C 939.198 112.367, 937.611 159.980, 939.095 166.801 C 940.002 170.972, 943.595 174.287, 945.881 173.064 C 948.212 171.816, 950.472 169.085, 952.771 164.738 C 953.865 162.669, 955.940 160.049, 957.380 158.915 C 960.076 156.795, 960.829 153.630, 958.919 152.450 C 957.615 151.644, 952.381 156.428, 950.385 160.250 C 949.595 161.762, 948.566 163, 948.097 163 C 946.939 163, 947.389 131.725, 948.796 114.500 C 949.978 100.034, 949.468 84.438, 947.741 82.250 C 946.311 80.437, 943.221 80.718, 942.128 82.761 M 336.750 93.080 C 335.755 93.660, 335 95.285, 335 96.850 C 335 98.362, 334.555 100.045, 334.012 100.588 C 333.468 101.132, 332.950 105.499, 332.860 110.293 C 332.732 117.155, 333.049 119.396, 334.349 120.833 C 335.257 121.836, 336 123.159, 336 123.772 C 336 124.910, 339.817 128, 341.223 128 C 342.386 128, 342.160 124.217, 340.951 123.470 C 340.234 123.027, 340.271 122.378, 341.068 121.417 C 341.710 120.645, 342.372 116.458, 342.540 112.113 C 342.708 107.768, 343.148 102.195, 343.518 99.729 C 344.112 95.770, 343.919 95.057, 341.873 93.623 C 339.186 91.742, 339.069 91.729, 336.750 93.080 M 0 94 C 0 94.550, 0.675 95, 1.500 95 C 2.325 95, 3 94.550, 3 94 C 3 93.450, 2.325 93, 1.500 93 C 0.675 93, 0 93.450, 0 94 M 837.544 101.344 C 836.197 102.329, 835.881 103.391, 836.364 105.316 C 837.178 108.557, 840.541 110.626, 842.437 109.052 C 843.157 108.454, 844.479 108.246, 845.373 108.590 C 846.272 108.935, 847 108.718, 847 108.107 C 847 107.498, 846.325 107, 845.500 107 C 844.601 107, 844 106.078, 844 104.700 C 844 100.486, 840.912 98.881, 837.544 101.344 M 0 103 C 0 104.949, 1.061 105.606, 2.264 104.402 C 3.066 103.601, 2.017 101, 0.893 101 C 0.402 101, 0 101.900, 0 103 M 1083.595 106.547 C 1081.714 108.429, 1082.240 118.452, 1084.351 120.924 C 1085.091 121.791, 1085.975 123.287, 1086.317 124.250 C 1086.658 125.213, 1087.514 126.003, 1088.219 126.006 C 1088.923 126.010, 1090.804 126.693, 1092.399 127.524 C 1097.805 130.344, 1096.927 126.008, 1091.480 122.989 C 1087.677 120.881, 1087.481 119.778, 1090.302 116.376 C 1092.241 114.039, 1092.533 112.938, 1091.864 110.501 C 1090.490 105.502, 1086.533 103.610, 1083.595 106.547 M 978.667 110.667 C 977.833 111.500, 977.792 118.294, 978.607 120.418 C 978.941 121.288, 979.841 122, 980.607 122 C 981.486 122, 982 123.100, 982 124.981 C 982 128.155, 984.472 129.527, 988.938 128.833 C 991.607 128.418, 991.749 126.606, 989.144 126.194 C 986.447 125.768, 983.634 122.396, 984.372 120.474 C 984.709 119.594, 985.439 119.153, 985.993 119.496 C 988.226 120.876, 989.117 118.753, 987.190 116.645 C 986.112 115.465, 984.923 113.487, 984.548 112.250 C 983.887 110.073, 980.242 109.091, 978.667 110.667 M 1230.057 110.923 C 1227.979 112.268, 1230.254 117, 1232.979 117 C 1234.558 117, 1235 117.656, 1235 120 C 1235 121.650, 1235.274 123, 1235.608 123 C 1235.943 123, 1238.454 120.750, 1241.190 118 C 1246.658 112.503, 1246.124 110.797, 1239.765 113.454 C 1236.239 114.927, 1236.126 114.906, 1235.818 112.735 C 1235.473 110.307, 1232.469 109.361, 1230.057 110.923 M 0.500 116 C 0.840 116.550, 1.316 117, 1.559 117 C 1.802 117, 2 116.550, 2 116 C 2 115.450, 1.523 115, 0.941 115 C 0.359 115, 0.160 115.450, 0.500 116 M 0 119.500 C 0 120.325, 0.450 121, 1 121 C 1.550 121, 2 120.325, 2 119.500 C 2 118.675, 1.550 118, 1 118 C 0.450 118, 0 118.675, 0 119.500 M 1045.229 118.669 C 1042.556 119.745, 1040.909 125.184, 1040.513 134.244 C 1040.068 144.427, 1041.353 152.353, 1043.855 154.855 C 1045.184 156.184, 1045.319 157.232, 1044.559 160.311 C 1043.907 162.949, 1044 165.551, 1044.861 168.772 C 1046.447 174.702, 1047.570 176, 1051.110 176 C 1054.156 176, 1057.095 172.366, 1060.006 165 C 1060.766 163.075, 1062.426 159.520, 1063.694 157.101 C 1064.962 154.682, 1066 152.173, 1066 151.527 C 1066 150.881, 1067.575 148.137, 1069.500 145.429 C 1073.286 140.104, 1073.876 136.972, 1071.471 134.976 C 1070.202 133.923, 1069.520 134.102, 1067.471 136.028 C 1066.112 137.304, 1065 138.730, 1065 139.196 C 1065 139.662, 1063.826 141.816, 1062.392 143.984 C 1060.958 146.151, 1059.045 149.226, 1058.142 150.817 C 1053.537 158.930, 1051.768 161.052, 1050.494 159.995 C 1048.639 158.455, 1048.043 154.069, 1047.756 139.834 C 1047.518 128.035, 1048.121 124.129, 1049.804 126.563 C 1050.883 128.122, 1056.160 132, 1057.203 132 C 1057.716 132, 1057.219 130.712, 1056.098 129.137 C 1054.976 127.563, 1054.340 125.994, 1054.683 125.650 C 1055.446 124.887, 1048.897 117.994, 1047.500 118.090 C 1046.950 118.127, 1045.928 118.388, 1045.229 118.669 M 327.734 132.250 C 322.766 143.056, 316.509 173.364, 317.871 180.025 C 318.672 183.941, 321.261 185.956, 323.596 184.483 C 325.707 183.152, 330.216 172.011, 329.606 169.635 C 329.342 168.609, 329.652 166.929, 330.294 165.901 C 331.231 164.401, 331.128 163.700, 329.774 162.345 C 328.190 160.762, 328.192 160.572, 329.793 159.266 C 331.043 158.247, 331.165 157.735, 330.250 157.354 C 328.110 156.463, 328.825 154.004, 331.149 154.262 C 332.953 154.462, 333.500 153.699, 334.562 149.500 C 335.258 146.750, 336.130 143.538, 336.501 142.363 C 337.413 139.467, 335.107 138.133, 333.348 140.538 C 332.607 141.553, 332 143.785, 332 145.500 C 332 147.215, 331.341 149.491, 330.535 150.559 C 329.202 152.324, 329.108 152.003, 329.493 147 C 329.726 143.975, 330.836 139.031, 331.959 136.014 C 334.516 129.142, 334.509 129, 331.614 129 C 329.895 129, 328.810 129.909, 327.734 132.250 M 705.200 133.200 C 703.757 134.643, 703.603 138, 704.980 138 C 706.131 138, 710 145.247, 710 147.403 C 710 148.218, 709.152 150.374, 708.116 152.193 C 707.080 154.012, 705.950 157.412, 705.605 159.750 C 705.045 163.536, 705.194 164, 706.965 164 C 709.174 164, 711.417 160.985, 712.422 156.662 C 712.944 154.421, 713.366 154.059, 714.432 154.944 C 716.003 156.247, 716.964 160.195, 717.672 168.250 C 718.125 173.399, 717.980 174, 716.289 174 C 713.779 174, 712 172.101, 712 169.422 C 712 166.615, 709.730 164.759, 706.805 165.173 C 704.676 165.475, 704.510 165.954, 704.629 171.447 C 704.745 176.794, 705.080 177.682, 707.946 180.243 C 709.993 182.072, 711.785 182.885, 712.952 182.515 C 713.952 182.198, 715.914 182.459, 717.311 183.096 C 720.448 184.525, 724.533 183.610, 725.511 181.259 C 726.943 177.817, 727.224 166.709, 725.983 162.606 C 724.594 158.014, 722.390 152.388, 720.952 149.764 C 720.428 148.809, 720 147.523, 720 146.908 C 720 146.292, 718.856 144.374, 717.458 142.644 C 716.059 140.915, 714.147 138.476, 713.208 137.225 C 709.016 131.641, 707.514 130.886, 705.200 133.200 M 335.692 135.068 C 335 137.715, 336.661 138.501, 337.932 136.128 C 338.706 134.681, 338.618 134.068, 337.580 133.669 C 336.768 133.357, 335.989 133.935, 335.692 135.068 M 132.376 136.164 C 128.724 137.933, 125.602 146.218, 125.338 154.841 C 124.982 166.455, 124.888 167.421, 124.006 168.500 C 121.421 171.664, 124.798 182, 128.418 182 C 131.023 182, 134.196 175.998, 134.498 170.500 C 134.528 169.950, 134.905 168.938, 135.335 168.250 C 135.766 167.563, 135.797 167, 135.404 167 C 135.011 167, 135.365 166.213, 136.190 165.250 C 138.512 162.541, 141.100 155.180, 139.975 154.484 C 138.524 153.588, 137 154.865, 137 156.977 C 137 159.737, 135.938 162, 134.643 161.999 C 132.623 161.998, 133.469 148.180, 135.866 142.014 C 137.040 138.997, 138 136.184, 138 135.764 C 138 134.707, 134.933 134.926, 132.376 136.164 M 462.250 136.491 C 460.462 137.268, 459 138.522, 459 139.277 C 459 140.033, 457.875 141.708, 456.500 143 C 455.125 144.292, 454 145.875, 454 146.519 C 454 147.163, 453.100 148.505, 452 149.500 C 450.900 150.495, 450 151.678, 450 152.128 C 450 152.577, 448.916 155.320, 447.591 158.223 C 444.754 164.439, 441.693 176.805, 442.167 180.138 C 442.564 182.932, 445.328 183.698, 448.631 181.930 C 451.165 180.574, 451.769 178.423, 449.799 177.766 C 448.912 177.471, 449.023 176.469, 450.222 173.933 C 451.115 172.045, 452.154 169.262, 452.531 167.750 C 452.908 166.238, 453.384 165, 453.588 165 C 453.792 165, 456.331 166.810, 459.230 169.023 C 463.277 172.112, 465.080 172.907, 467 172.449 C 472.011 171.252, 474.481 169.402, 477.420 164.644 C 483.640 154.572, 481.435 142.359, 472.480 137.287 C 467.858 134.669, 466.656 134.576, 462.250 136.491 M 672.667 137.667 C 672.300 138.033, 672 139.283, 672 140.444 C 672 141.605, 671.410 143.443, 670.690 144.527 C 668.028 148.534, 666.918 154.799, 666.795 166.500 C 666.581 186.862, 669.554 197, 675.740 197 C 678.938 197, 682 195.271, 682 193.465 C 682 192.659, 682.873 192, 683.941 192 C 685.009 192, 686.160 191.550, 686.500 191 C 686.840 190.450, 686.597 190, 685.960 190 C 685.253 190, 685.597 188.654, 686.843 186.542 C 691.095 179.336, 694.045 165.904, 694.083 153.588 C 694.103 146.705, 694.555 142.822, 695.504 141.365 C 697.036 139.014, 696.568 138, 693.949 138 C 691.449 138, 688.398 146.574, 686.502 158.929 C 685.622 164.665, 684.309 170.515, 683.586 171.929 C 682.862 173.343, 681.315 176.637, 680.148 179.250 C 678.981 181.863, 677.661 184, 677.214 184 C 675.719 184, 674.222 177.568, 674.108 170.650 C 674.045 166.882, 673.767 163.433, 673.490 162.984 C 673.213 162.535, 673.447 160.954, 674.012 159.470 C 675.829 154.688, 677.749 140.302, 676.796 138.600 C 675.873 136.951, 673.841 136.492, 672.667 137.667 M 1081.455 142.073 C 1081.090 142.663, 1080.550 151.330, 1080.254 161.333 C 1079.769 177.736, 1079.886 179.660, 1081.442 180.952 C 1082.708 182.003, 1083.611 182.105, 1084.834 181.335 C 1086.226 180.458, 1086.546 178.122, 1086.779 167.143 C 1086.932 159.914, 1086.681 154, 1086.221 154 C 1085.048 154, 1085.545 146.719, 1086.889 144.208 C 1087.500 143.066, 1088 141.877, 1088 141.566 C 1088 140.528, 1082.128 140.983, 1081.455 142.073 M 1184.500 141.655 C 1183.400 141.888, 1181.537 142.281, 1180.360 142.530 C 1179.183 142.779, 1177.934 143.729, 1177.584 144.642 C 1176.815 146.645, 1181.320 155.758, 1184.348 158.324 C 1185.842 159.591, 1186.118 160.303, 1185.250 160.657 C 1183.104 161.532, 1183.828 165.841, 1186.404 167.529 C 1188.396 168.834, 1188.815 169.954, 1188.847 174.052 C 1188.888 179.352, 1188.061 180.061, 1185.189 177.189 C 1181.530 173.530, 1178.466 172, 1174.797 172 C 1171.616 172, 1170.941 172.386, 1170.407 174.515 C 1169.885 176.594, 1170.530 177.721, 1174.138 181.032 C 1185.022 191.019, 1194.557 192.625, 1198.435 185.125 C 1199.714 182.652, 1199.707 181.592, 1198.374 176.405 C 1196.115 167.610, 1194.504 163.168, 1191.086 156.306 C 1189.389 152.899, 1188 149.826, 1188 149.477 C 1188 148.306, 1200.641 151.667, 1204.988 153.993 C 1205.950 154.508, 1206.997 154.670, 1207.314 154.352 C 1208.215 153.452, 1202.927 148.394, 1198.500 145.921 C 1188.952 140.587, 1189.197 140.662, 1184.500 141.655 M 0 189.467 C 0 215.243, 0.172 236.146, 0.382 235.917 C 0.593 235.688, 1.053 219.750, 1.405 200.500 C 1.758 181.250, 2.132 160.893, 2.236 155.263 C 2.365 148.343, 2.033 144.633, 1.213 143.813 C 0.262 142.862, 0 152.731, 0 189.467 M 461.131 149.218 L 457.761 154.329 459.855 158.639 C 462.807 164.715, 469.979 166.227, 470.015 160.781 C 470.023 159.527, 470.679 156.700, 471.471 154.500 C 473.391 149.171, 473.345 148.345, 471 146 C 467.635 142.635, 464.879 143.533, 461.131 149.218 M 621.500 146.900 C 620.400 147.342, 618.511 148.041, 617.303 148.454 C 615.864 148.946, 613.842 151.834, 611.444 156.818 C 607.473 165.071, 607.578 166.466, 612.342 168.805 C 614.249 169.741, 615 170.878, 615 172.832 C 615 178.868, 621.541 183.649, 628.318 182.565 C 630.739 182.178, 632.592 182.339, 632.982 182.972 C 633.339 183.548, 633.276 186.828, 632.844 190.260 C 632.411 193.692, 632.309 197.756, 632.617 199.291 C 632.925 200.826, 632.738 202.626, 632.201 203.291 C 631.664 203.956, 631.009 206.300, 630.745 208.500 C 630.481 210.700, 629.521 215.143, 628.613 218.374 C 627.362 222.822, 627.238 224.582, 628.103 225.624 C 630.024 227.938, 633.789 227.258, 635.706 224.250 C 636.670 222.738, 640.393 218.727, 643.980 215.337 C 649.422 210.193, 650.207 209.058, 648.725 208.471 C 647.569 208.012, 645.512 208.719, 642.826 210.496 L 638.702 213.226 639.398 209.363 C 640.222 204.789, 640.564 201.501, 641.454 189.573 C 641.820 184.663, 642.590 179.767, 643.164 178.693 C 643.739 177.620, 644.249 173.069, 644.298 168.582 C 644.383 160.785, 644.224 160.176, 640.707 154.878 C 638.683 151.828, 635.838 148.792, 634.386 148.130 C 630.915 146.549, 624.017 145.890, 621.500 146.900 M 1227.714 148.777 L 1225.054 151.553 1225.553 166.444 C 1226.171 184.903, 1228.099 189.901, 1232.789 185.211 C 1235.459 182.541, 1236.713 172.978, 1234.551 171.769 C 1233.393 171.121, 1233.239 170.422, 1233.958 169.078 C 1234.492 168.080, 1234.638 166.971, 1234.281 166.614 C 1233.310 165.643, 1233.153 151.744, 1234.092 149.903 C 1234.948 148.226, 1233.462 146, 1231.487 146 C 1230.875 146, 1229.177 147.249, 1227.714 148.777 M 755.866 151.250 C 754.618 153.037, 753.311 154.725, 752.962 155 C 751.873 155.858, 744.037 168.295, 742.743 171.219 C 742.066 172.749, 741.059 174.025, 740.506 174.055 C 739.953 174.086, 738.440 175.451, 737.145 177.090 C 735.273 179.459, 734.924 180.779, 735.441 183.535 C 735.973 186.371, 736.536 187, 738.545 187 C 739.895 187, 741.001 186.662, 741.001 186.250 C 741.002 185.838, 742.176 184.150, 743.611 182.500 C 749.011 176.291, 753 171.274, 753 170.691 C 753 170.062, 757.683 162.940, 758.699 162.026 C 759.020 161.737, 758.982 163.300, 758.615 165.500 C 757.489 172.241, 756.781 185.990, 757.427 188.564 C 758.668 193.510, 766.984 190.440, 767.006 185.027 C 767.010 184.187, 768.360 182.733, 770.006 181.797 C 771.653 180.860, 773 179.397, 773 178.547 C 773 176.438, 771.363 176.605, 767.904 179.068 C 764.397 181.565, 764.530 182.610, 766.068 164.615 C 767.321 149.944, 766.791 148, 761.533 148 C 758.833 148, 757.671 148.667, 755.866 151.250 M 970.755 152.750 C 967.595 156.068, 967.133 160.274, 968.368 174.500 C 969.307 185.318, 970.008 187, 973.575 187 C 975.340 187, 976.141 186.211, 976.872 183.750 C 977.404 181.963, 978.377 179.150, 979.034 177.500 C 979.951 175.200, 979.959 173.501, 979.068 170.220 C 978.429 167.866, 977.491 166.197, 976.983 166.511 C 975.091 167.680, 974.682 161.574, 976.339 156.907 C 977.253 154.336, 978 151.729, 978 151.116 C 978 148.974, 973.353 150.022, 970.755 152.750 M 403.024 155.683 C 400.740 159.555, 400.616 162.079, 402.314 170.097 C 403.838 177.291, 405.430 179.354, 408.181 177.705 C 410.922 176.062, 415.191 166.361, 415.236 161.672 C 415.278 157.252, 413.610 155.196, 408.578 153.466 C 405.128 152.280, 405.003 152.329, 403.024 155.683 M 1214.095 154.941 C 1213.101 155.556, 1213.073 155.927, 1213.980 156.488 C 1214.637 156.894, 1215.624 156.776, 1216.174 156.226 C 1217.477 154.923, 1215.801 153.887, 1214.095 154.941 M 696.500 156 C 696.840 156.550, 697.316 157, 697.559 157 C 697.802 157, 698 156.550, 698 156 C 698 155.450, 697.523 155, 696.941 155 C 696.359 155, 696.160 155.450, 696.500 156 M 828.378 165.750 C 824.536 171.657, 823.340 175.533, 822.526 184.717 C 821.889 191.892, 821.900 191.937, 824.516 192.593 C 825.963 192.956, 827.475 192.859, 827.877 192.377 C 829 191.030, 831.098 181.967, 830.508 181.013 C 829.730 179.754, 831.869 169.910, 833.609 166.741 C 834.952 164.296, 834.954 163.811, 833.633 162.491 C 832.814 161.671, 831.991 161, 831.805 161 C 831.620 161, 830.078 163.137, 828.378 165.750 M 626.500 163.213 C 621.697 164.903, 620.839 165.982, 621.571 169.409 C 622.905 175.655, 625.256 176.432, 630.567 172.381 C 634.180 169.625, 635.167 165.567, 632.800 163.200 C 631.393 161.793, 630.533 161.795, 626.500 163.213 M 394 170.500 C 394 171.325, 394.177 172, 394.393 172 C 394.609 172, 395.045 171.325, 395.362 170.500 C 395.678 169.675, 395.501 169, 394.969 169 C 394.436 169, 394 169.675, 394 170.500 M 323 226 C 323 226.550, 323.450 227, 324 227 C 324.550 227, 325 226.550, 325 226 C 325 225.450, 324.550 225, 324 225 C 323.450 225, 323 225.450, 323 226 M 546.262 227.817 C 545.581 228.250, 544.585 230.830, 544.050 233.552 C 542.865 239.575, 541.546 244.092, 540.238 246.611 C 539.698 247.650, 538.946 250.634, 538.568 253.242 C 537.980 257.294, 538.107 257.896, 539.440 257.385 C 540.382 257.023, 540.998 257.324, 540.994 258.143 C 540.984 260.625, 537.573 278.981, 534.981 290.500 C 534.362 293.250, 533.637 296.850, 533.368 298.500 C 533.100 300.150, 532.199 303.993, 531.367 307.040 C 530.535 310.087, 530 314.362, 530.177 316.540 C 530.461 320.018, 530.834 320.538, 533.242 320.816 C 536.572 321.199, 536.810 320.678, 540.463 305 C 544.409 288.065, 544.861 285.940, 545.579 281 C 545.938 278.525, 546.606 275.786, 547.064 274.914 C 547.521 274.041, 548.127 269.991, 548.410 265.914 C 548.694 261.836, 549.143 257.150, 549.408 255.500 C 549.673 253.850, 550.328 249.478, 550.865 245.783 C 551.401 242.089, 552.551 238.052, 553.420 236.811 C 555.599 233.700, 555.455 231.648, 553.101 232.263 C 551.638 232.646, 551.070 232.099, 550.626 229.880 C 550.052 227.008, 548.609 226.326, 546.262 227.817 M 1095.278 250.250 C 1093.332 252.765, 1092.715 255.663, 1092.512 263.250 C 1092.241 273.351, 1094.049 273.672, 1096.737 264 C 1099.320 254.710, 1099.884 250.547, 1098.666 249.773 C 1097.026 248.729, 1096.385 248.820, 1095.278 250.250 M 1159.607 250.582 C 1159.273 251.452, 1159 253.507, 1159 255.149 C 1159 257.540, 1159.349 258.024, 1160.753 257.578 C 1162.075 257.159, 1163.244 258.311, 1165.503 262.261 C 1169.467 269.190, 1172.069 275.704, 1172.415 279.563 C 1172.570 281.289, 1172.997 283.187, 1173.365 283.781 C 1174.866 286.210, 1172.100 285.725, 1168.913 282.999 C 1164.908 279.575, 1161.214 279.220, 1158.257 281.975 C 1156.447 283.661, 1156.141 285.071, 1156.167 291.607 C 1156.191 297.734, 1156.761 300.586, 1159.020 305.882 C 1160.573 309.522, 1162.416 312.500, 1163.116 312.500 C 1163.815 312.500, 1165.229 311.060, 1166.256 309.301 C 1167.698 306.833, 1167.882 305.648, 1167.062 304.117 C 1166.478 303.025, 1166 301.217, 1166 300.100 C 1166 298.982, 1165.252 296.499, 1164.338 294.582 C 1162.153 290.001, 1163.810 287.518, 1168.444 288.427 C 1174.713 289.657, 1175.673 295.318, 1171.087 304.019 C 1169.487 307.054, 1167.862 311.217, 1167.477 313.269 C 1166.873 316.492, 1167.031 316.999, 1168.639 316.994 C 1169.662 316.990, 1171.713 316.355, 1173.196 315.581 C 1174.678 314.808, 1176.028 314.571, 1176.196 315.055 C 1176.363 315.540, 1177.175 315.466, 1178 314.892 C 1179.024 314.179, 1179.135 313.697, 1178.349 313.373 C 1177.573 313.054, 1177.979 311.499, 1179.596 308.607 C 1181.556 305.101, 1182.071 302.502, 1182.413 294.408 C 1182.894 282.997, 1181.347 276.294, 1175.136 262.890 C 1173.961 260.355, 1173 257.631, 1173 256.837 C 1173 256.042, 1171.516 253.954, 1169.702 252.196 C 1166.032 248.639, 1160.681 247.783, 1159.607 250.582 M 1202.841 256.750 C 1202.231 258.262, 1200.657 264.450, 1199.344 270.500 C 1198.030 276.550, 1196.538 283.075, 1196.028 285 C 1192.367 298.816, 1192.381 297.535, 1195.856 301.010 C 1198.952 304.106, 1199.211 306, 1196.536 306 C 1195.535 306, 1195.329 307.087, 1195.731 310.250 C 1196.497 316.275, 1197.631 318.005, 1200.785 317.967 C 1204.044 317.928, 1209.213 312.280, 1214.907 302.536 C 1216.995 298.962, 1219.020 296.353, 1219.405 296.738 C 1219.790 297.124, 1219.824 296.706, 1219.480 295.810 C 1219.137 294.914, 1219.563 292.812, 1220.428 291.140 C 1221.292 289.468, 1222 286.973, 1222 285.597 C 1222 284.220, 1222.507 281.981, 1223.127 280.621 C 1223.747 279.260, 1223.963 276.989, 1223.608 275.574 C 1222.654 271.774, 1219.068 272.209, 1215.184 276.596 C 1211.437 280.828, 1211.289 281.361, 1214.101 280.468 C 1216.035 279.854, 1216.145 280.068, 1215.481 283.150 C 1214.644 287.035, 1212.459 291.598, 1211.007 292.496 C 1210.453 292.838, 1210 293.903, 1210 294.862 C 1210 296.756, 1204.330 305, 1203.027 305 C 1201.647 305, 1201.191 298.730, 1202.154 293 C 1202.663 289.975, 1203.253 285.845, 1203.466 283.822 C 1203.679 281.798, 1204.279 279.323, 1204.799 278.322 C 1205.319 277.320, 1206.054 274.363, 1206.433 271.750 C 1206.855 268.843, 1207.632 267, 1208.436 267 C 1210.290 267, 1211.088 261.901, 1209.905 257.617 C 1209.100 254.703, 1208.424 254, 1206.428 254 C 1204.661 254, 1203.632 254.788, 1202.841 256.750 M 361 259 C 361 259.550, 361.477 260, 362.059 260 C 362.641 260, 362.840 259.550, 362.500 259 C 362.160 258.450, 361.684 258, 361.441 258 C 361.198 258, 361 258.450, 361 259 M 991.655 261.829 C 989.337 264.390, 989.588 266.770, 992.588 270.705 C 994.080 272.661, 994.921 274.764, 994.572 275.672 C 994.219 276.593, 995.406 279.411, 997.436 282.469 C 999.343 285.342, 1001.462 288.999, 1002.145 290.596 C 1002.828 292.193, 1003.914 294.175, 1004.559 295 C 1006.680 297.714, 1007.143 301.731, 1005.411 302.396 C 1001.405 303.933, 999.236 301.164, 1002.158 298.242 C 1003.034 297.366, 1003.009 296.716, 1002.054 295.565 C 1000.968 294.256, 1000.431 294.234, 998.191 295.408 C 996.264 296.417, 994.993 296.498, 993.285 295.720 C 991.389 294.856, 990.555 295.069, 988.584 296.921 C 985.184 300.115, 984.871 302.509, 987.365 306.244 C 990.095 310.332, 995.298 312.996, 1000.554 312.998 C 1005.924 313.001, 1014.624 308.628, 1016.512 304.977 C 1017.892 302.308, 1017.733 301.670, 1013.485 292.830 C 1011.019 287.699, 1007.879 281.700, 1006.508 279.500 C 1004.001 275.480, 1003.673 274.803, 1001.785 269.750 C 1001.220 268.238, 1000.406 267, 999.977 267 C 999.549 267, 998.268 265.425, 997.133 263.500 C 994.778 259.510, 993.975 259.265, 991.655 261.829 M 957.975 263.565 C 957.439 264.976, 957 269.449, 957 273.506 C 957 277.563, 956.550 281.160, 956 281.500 C 954.733 282.283, 954.704 288.091, 955.950 291.367 C 956.518 292.861, 956.546 295.097, 956.019 296.932 C 955.487 298.788, 955.507 300, 956.070 300 C 956.581 300, 957 301.993, 957 304.429 C 957 308.930, 958.838 312, 961.532 312 C 963.462 312, 966.952 308.049, 967.699 305.020 C 968.040 303.634, 969.373 300.821, 970.660 298.770 C 971.947 296.718, 973 294.575, 973 294.006 C 973 293.438, 973.395 292.191, 973.877 291.236 C 975.884 287.265, 977.187 281.733, 976.259 281.127 C 975.731 280.782, 974.766 279.488, 974.115 278.250 C 972.529 275.239, 969.245 275.369, 967.818 278.500 C 966.511 281.370, 964.037 281.846, 963.923 279.250 C 963.881 278.288, 963.636 275.626, 963.380 273.335 C 963.124 271.045, 963.331 268.913, 963.841 268.598 C 965.118 267.809, 961.915 261, 960.267 261 C 959.543 261, 958.512 262.154, 957.975 263.565 M 1032.500 271.977 C 1031.400 272.444, 1029.143 274.103, 1027.485 275.664 C 1024.976 278.023, 1024.187 279.973, 1022.791 287.259 L 1021.113 296.019 1023.632 302.759 C 1025.017 306.467, 1027.210 312.425, 1028.505 316 C 1030.691 322.035, 1034.739 330.326, 1039.002 337.500 C 1039.982 339.150, 1041.081 341.904, 1041.443 343.620 C 1042.010 346.305, 1041.781 346.826, 1039.801 347.356 C 1035.473 348.516, 1032.818 347.999, 1028.983 345.250 C 1026.873 343.738, 1024.402 341.244, 1023.492 339.708 C 1022.284 337.669, 1021.320 337.081, 1019.919 337.526 C 1016.874 338.492, 1017.558 335.280, 1020.750 333.625 C 1025.129 331.355, 1030.999 325.160, 1030.357 323.487 C 1029.636 321.610, 1028.330 321.620, 1022.879 323.543 C 1016.680 325.730, 1011 333.172, 1011 339.108 C 1011 342.324, 1014.859 349.471, 1018.502 353.002 L 1021.697 356.098 1033.598 356.185 C 1045.290 356.271, 1048.331 356.002, 1049.558 354.775 C 1049.897 354.436, 1050.546 351.157, 1051.001 347.488 C 1051.765 341.328, 1051.612 340.359, 1048.996 334.828 C 1047.438 331.533, 1045.524 328.087, 1044.743 327.169 C 1041.743 323.644, 1036.022 310.927, 1037.271 310.558 C 1037.947 310.359, 1040.638 309.643, 1043.251 308.967 C 1048.331 307.654, 1054.154 302.331, 1056.125 297.198 C 1057.529 293.542, 1056.260 282.339, 1054.161 279.861 C 1046.794 271.164, 1046.532 270.996, 1040.350 271.063 C 1037.132 271.098, 1033.600 271.509, 1032.500 271.977 M 1242.691 275.029 C 1237.184 279.360, 1235.795 285.002, 1234.808 307.059 C 1234.561 312.587, 1238.230 321.103, 1242.947 325.946 C 1251.103 334.319, 1265.161 336.411, 1276.686 330.966 C 1282.910 328.026, 1284.848 326.299, 1286.583 322.148 C 1289.436 315.319, 1287.588 312.143, 1283.169 316.281 C 1281.701 317.655, 1278.487 319.790, 1276.027 321.024 C 1272.030 323.029, 1270.615 323.201, 1262.719 322.641 C 1255.330 322.116, 1253.330 321.591, 1250.497 319.430 C 1245.883 315.911, 1243.685 308.996, 1243.581 297.675 C 1243.513 290.297, 1243.793 288.636, 1245.287 287.538 C 1246.271 286.816, 1246.985 285.837, 1246.876 285.362 C 1246.391 283.262, 1249.078 279, 1250.886 279 C 1252.830 279, 1257.897 284.133, 1258.118 286.327 C 1258.245 287.579, 1257.931 290.371, 1257.627 290.695 C 1257.526 290.802, 1255.815 290.522, 1253.823 290.073 C 1248.996 288.984, 1247.632 289.901, 1248.943 293.351 C 1250.910 298.525, 1259.874 299.342, 1264.729 294.790 C 1266.775 292.871, 1267.073 291.884, 1266.565 288.698 C 1265.837 284.127, 1261.547 277, 1259.523 277 C 1258.724 277, 1257.589 276.100, 1257 275 C 1255.469 272.140, 1246.340 272.158, 1242.691 275.029 M 848.265 274.815 C 847.586 275.246, 846.758 276.958, 846.426 278.618 C 845.910 281.200, 846.347 282.097, 849.446 284.819 C 851.439 286.568, 853.504 288, 854.035 288 C 854.566 288, 855 288.873, 855 289.941 C 855 291.009, 855.459 292.165, 856.019 292.512 C 856.579 292.858, 858.193 295.422, 859.606 298.208 C 862.455 303.832, 862.313 304.139, 855.942 306.104 C 850.256 307.858, 847.922 310.166, 847.323 314.627 C 846.845 318.190, 847.126 318.928, 849.822 321.197 C 853.094 323.950, 861.615 325.637, 866.307 324.459 C 869.959 323.543, 872.288 319.468, 873.117 312.549 C 873.548 308.950, 874.456 306.140, 875.415 305.439 C 877.893 303.627, 877.281 302, 874.122 302 C 870.902 302, 869.940 301.061, 867.979 296 C 867.233 294.075, 865.583 291.108, 864.311 289.406 C 863.040 287.704, 862 285.856, 862 285.301 C 862 284.122, 851.508 273.993, 850.310 274.015 C 849.864 274.024, 848.944 274.384, 848.265 274.815 M 606.864 278.250 C 606.030 278.938, 603.810 281.525, 601.931 284 C 600.052 286.475, 598.174 288.650, 597.757 288.833 C 597.341 289.017, 597 289.584, 597 290.094 C 597 292.235, 589.059 302.073, 581.074 309.824 L 572.500 318.147 571.857 313.055 C 571.503 310.254, 570.776 307.409, 570.240 306.731 C 569.704 306.054, 568.956 303.067, 568.578 300.094 C 567.277 289.873, 562.984 286.045, 558.447 291.059 C 556.935 292.729, 556.811 293.436, 557.789 294.809 C 561.574 300.123, 563.797 306.284, 563.891 311.721 C 563.946 314.899, 564.139 318.962, 564.321 320.750 C 564.502 322.538, 564.729 325.334, 564.825 326.965 C 565.048 330.744, 568.037 332.573, 571.250 330.897 C 573.708 329.615, 575.438 328.207, 578.500 324.996 C 579.600 323.842, 581.765 321.590, 583.311 319.991 C 587.783 315.366, 595 305.764, 595 304.440 C 595 303.775, 596.013 302.555, 597.250 301.730 C 598.487 300.906, 600.625 298.041, 602 295.365 C 603.375 292.689, 604.777 290.275, 605.116 290 C 605.454 289.725, 606.701 287.587, 607.886 285.250 C 611.118 278.875, 613.334 279.965, 614.490 288.500 C 615.460 295.653, 615.950 297, 617.586 297 C 618.657 297, 618.864 296.305, 618.373 294.351 C 617.081 289.200, 619.842 292.944, 621.472 298.553 C 623.310 304.875, 622.958 306, 619.137 306 C 617.627 306, 614.349 307.295, 611.853 308.878 C 607.189 311.836, 604.882 315.783, 603.495 323.176 C 602.885 326.425, 603.168 326.988, 607.097 330.351 C 609.442 332.358, 612.516 334.057, 613.930 334.128 C 615.343 334.198, 617.400 334.440, 618.500 334.666 C 625.179 336.037, 627.205 335.549, 630.228 331.836 C 632.875 328.585, 633.270 327.212, 633.742 319.651 C 634.337 310.112, 634.574 309.850, 643.750 308.569 C 647.923 307.987, 648 308.030, 648 310.923 C 648 312.544, 648.477 315.124, 649.060 316.657 C 649.643 318.190, 650.240 320.981, 650.388 322.860 C 650.540 324.782, 651.467 326.868, 652.509 327.630 C 654.096 328.790, 654.642 328.735, 656.332 327.242 C 658.862 325.008, 669.661 308.675, 670.552 305.737 C 670.925 304.507, 672.113 302.534, 673.192 301.354 C 674.813 299.580, 675.033 298.403, 674.459 294.576 C 673.645 289.146, 671.527 287.469, 667.445 289.021 C 665.117 289.906, 664.839 290.447, 665.364 293.071 C 665.776 295.131, 665.621 295.884, 664.878 295.424 C 664.155 294.978, 664.008 295.450, 664.444 296.824 C 664.882 298.205, 664.459 299.541, 663.176 300.824 C 662.117 301.883, 660.771 304.044, 660.186 305.625 L 659.122 308.500 659.020 305.500 C 658.965 303.850, 658.825 298.579, 658.710 293.786 C 658.547 287.017, 658.109 284.682, 656.750 283.322 C 655.177 281.749, 654.845 281.727, 653.466 283.105 C 652.623 283.948, 651.696 286.407, 651.406 288.569 C 650.435 295.815, 647.853 303.008, 645.838 304.087 C 644.460 304.824, 642.374 304.817, 638.853 304.062 C 636.092 303.470, 633.470 303.210, 633.026 303.484 C 631.814 304.233, 628.763 299.060, 629.415 297.361 C 630.145 295.459, 626.691 288.696, 622.165 283.163 C 618.939 279.221, 618.271 278.859, 614.808 279.190 C 612.197 279.439, 611 279.152, 611 278.276 C 611 276.647, 608.828 276.633, 606.864 278.250 M 1208.500 281 C 1208.840 281.550, 1209.316 282, 1209.559 282 C 1209.802 282, 1210 281.550, 1210 281 C 1210 280.450, 1209.523 280, 1208.941 280 C 1208.359 280, 1208.160 280.450, 1208.500 281 M 586 283.500 C 586 284.325, 586.450 285, 587 285 C 587.550 285, 588 284.325, 588 283.500 C 588 282.675, 587.550 282, 587 282 C 586.450 282, 586 282.675, 586 283.500 M 1038.284 283.116 C 1037.670 283.730, 1036.131 284.749, 1034.864 285.381 C 1033.217 286.202, 1032.489 287.523, 1032.311 290.015 C 1031.929 295.380, 1032.721 297.552, 1035.523 298.829 C 1039.550 300.663, 1041.653 300.243, 1045.544 296.827 C 1048.791 293.977, 1049.094 293.291, 1048.529 290.077 C 1047.538 284.439, 1041.240 280.160, 1038.284 283.116 M 1082.328 284.414 C 1082.711 285.410, 1082.373 286.770, 1081.535 287.608 C 1078.544 290.598, 1076.891 301.491, 1079.093 303.693 C 1079.884 304.484, 1079.728 305.486, 1078.528 307.317 C 1077.509 308.872, 1076.992 311.322, 1077.185 313.674 C 1077.483 317.292, 1077.690 317.507, 1081 317.623 C 1085.196 317.770, 1086.710 317.077, 1084.857 315.856 C 1083.759 315.133, 1083.858 314.688, 1085.379 313.527 C 1086.573 312.614, 1087.062 311.346, 1086.722 310.046 C 1086.371 308.701, 1086.669 308, 1087.594 308 C 1089.317 308, 1089.405 306.805, 1087.800 305.200 C 1086.867 304.267, 1086.968 304, 1088.255 304 C 1090.343 304, 1091.749 297.607, 1090.098 295.618 C 1089.478 294.871, 1088.918 291.951, 1088.854 289.129 C 1088.786 286.090, 1088.283 283.994, 1087.619 283.986 C 1087.004 283.979, 1085.412 283.682, 1084.081 283.326 C 1082.073 282.788, 1081.776 282.973, 1082.328 284.414 M 1114.500 284.719 C 1111.508 285.448, 1108.908 288.127, 1109.454 289.918 C 1109.764 290.933, 1108.564 292.473, 1106.105 294.217 C 1102.434 296.819, 1102.242 297.239, 1101.530 304.217 C 1100.429 315.009, 1100.624 318.777, 1102.425 321.525 C 1105.567 326.322, 1115.499 324.224, 1123.317 317.112 C 1129.351 311.624, 1131.137 310.814, 1133.166 312.650 C 1135.983 315.200, 1139 312.795, 1139 308 C 1139 303.315, 1136.546 301.487, 1131.381 302.326 C 1127.441 302.965, 1127.196 302.680, 1126.649 296.824 C 1126.106 291.008, 1123.547 286.158, 1120.387 284.957 C 1117.739 283.950, 1117.669 283.947, 1114.500 284.719 M 706.914 285.915 C 702.698 286.504, 700.402 287.614, 695.801 291.289 C 694.229 292.545, 692.761 296.580, 688.602 311.088 C 687.641 314.439, 687.001 320.443, 687.002 326.088 C 687.005 345.278, 694.029 348.741, 708.974 336.920 C 713.083 333.670, 722 322.150, 722 320.091 C 722 319.626, 722.646 318.709, 723.435 318.054 C 725.138 316.641, 729 309.462, 729 307.710 C 729 307.034, 729.944 305.892, 731.097 305.171 C 732.251 304.451, 732.930 303.597, 732.606 303.273 C 732.282 302.949, 732.519 302.080, 733.131 301.342 C 733.996 300.299, 733.821 300, 732.345 300 C 731.300 300, 729.597 301.012, 728.562 302.250 C 722.696 309.260, 721.138 311.179, 717.520 315.856 C 715.331 318.685, 713.065 321, 712.485 321 C 711.906 321, 710.634 322.350, 709.659 324 C 708.684 325.650, 707.438 327, 706.890 327 C 706.342 327, 704.238 328.125, 702.215 329.500 C 700.191 330.875, 698.016 332, 697.381 332 C 695.374 332, 694.638 323.202, 696.418 320.485 C 697.377 319.021, 697.597 317.869, 696.989 317.493 C 695.433 316.532, 695.825 311.281, 697.500 310.638 C 698.325 310.322, 699 309.368, 699 308.518 C 699 306.886, 700.621 303.727, 702.815 301.084 C 703.539 300.213, 705.130 297.928, 706.351 296.007 C 709.068 291.731, 710.833 291.294, 714.317 294.035 C 718.236 297.117, 717.788 299.447, 713 300.882 C 709.531 301.921, 709 302.465, 709 304.973 C 709 308.506, 711.161 309.398, 717.442 308.456 C 722.689 307.670, 725 304.927, 725 299.486 C 725 293.681, 721.204 287.995, 716.500 286.754 C 715.400 286.464, 713.825 286.013, 713 285.751 C 712.175 285.489, 709.436 285.563, 706.914 285.915 M 780.318 287.862 C 778.799 290.295, 780.296 291.857, 783.551 291.235 C 786.433 290.684, 786.874 288, 784.083 288 C 783.029 288, 782.015 287.546, 781.830 286.990 C 781.645 286.435, 780.965 286.827, 780.318 287.862 M 787.655 287.749 C 786.717 289.267, 788.791 291.609, 790.001 290.399 C 790.779 289.621, 790.675 288.976, 789.631 288.109 C 788.832 287.446, 787.943 287.284, 787.655 287.749 M 86.036 289.456 C 84.212 291.655, 85.797 293.171, 89.578 292.845 C 91.435 292.685, 93.504 293.104, 94.177 293.777 C 96.003 295.603, 97.699 295.258, 98.306 292.939 C 98.928 290.560, 96.652 289.214, 94.720 290.818 C 93.820 291.564, 92.762 291.319, 90.982 289.952 C 87.974 287.640, 87.577 287.600, 86.036 289.456 M 794 289.059 C 794 289.641, 794.450 289.840, 795 289.500 C 795.550 289.160, 796 288.684, 796 288.441 C 796 288.198, 795.550 288, 795 288 C 794.450 288, 794 288.477, 794 289.059 M 1103 291.559 C 1103 292.416, 1103.450 292.840, 1104 292.500 C 1104.550 292.160, 1105 291.459, 1105 290.941 C 1105 290.423, 1104.550 290, 1104 290 C 1103.450 290, 1103 290.702, 1103 291.559 M 479.571 293.571 C 478.707 294.436, 478 295.476, 478 295.883 C 478 296.290, 481.038 299.070, 484.750 302.062 C 492.848 308.586, 500.142 315.961, 499.510 316.984 C 498.673 318.338, 483.227 329.831, 480.003 331.499 L 476.829 333.140 480.664 336.528 C 484.878 340.250, 486.391 340.488, 496 338.934 C 504.223 337.604, 507.481 334.800, 508.374 328.285 C 509.088 323.082, 510.492 320.868, 512.573 321.666 C 513.358 321.968, 514 321.801, 514 321.296 C 514 320.112, 510.181 316, 509.082 316 C 508.621 316, 507.659 314.591, 506.946 312.869 C 506.232 311.147, 502.889 306.984, 499.517 303.619 C 492.342 296.460, 490.546 295.011, 488.792 294.968 C 488.081 294.951, 486.626 294.276, 485.559 293.468 C 483.071 291.587, 481.530 291.613, 479.571 293.571 M 1114.750 293.080 C 1113.787 293.641, 1113 295.187, 1113 296.516 C 1113 297.845, 1112.244 300.517, 1111.321 302.454 C 1110.397 304.390, 1109.978 306.311, 1110.389 306.722 C 1110.800 307.133, 1113.131 307.537, 1115.568 307.619 C 1119.115 307.738, 1120 307.432, 1120 306.084 C 1120 305.158, 1119.508 303.908, 1118.907 303.307 C 1118.117 302.517, 1118.117 301.650, 1118.907 300.173 C 1119.508 299.050, 1120 296.752, 1120 295.066 C 1120 291.781, 1118.169 291.089, 1114.750 293.080 M 917.607 296.582 C 916.756 298.800, 916.821 299, 918.393 299 C 919.555 299, 921 297.015, 921 295.418 C 921 294.237, 918.129 295.221, 917.607 296.582 M 452.131 296.746 C 450.277 296.965, 447.830 298.012, 446.692 299.072 C 445.554 300.133, 444.267 301, 443.832 301 C 442.565 301, 439 308.683, 439 311.413 C 439 312.784, 438.469 315.070, 437.821 316.494 C 436.702 318.949, 437.012 319.428, 443.829 325.791 C 453.778 335.078, 453.487 339.231, 443.316 333.093 C 440.667 331.494, 436.813 329.899, 434.750 329.548 C 431.533 329, 431 329.173, 431 330.768 C 431 334.223, 442.539 342.726, 448.553 343.702 C 452.484 344.340, 461.029 342.077, 461.749 340.207 C 462.503 338.250, 461.242 337.554, 459.524 338.980 C 458.211 340.070, 457.993 339.778, 457.950 336.872 C 457.813 327.717, 457.041 324.635, 453.575 319.415 C 449.987 314.011, 449.123 310.660, 451.016 309.490 C 452.505 308.570, 451.191 307, 448.933 307 C 447.257 307, 447.153 306.729, 448.188 305.071 C 450.560 301.272, 460 299.234, 460 302.521 C 460 304.492, 464.348 306.467, 466.686 305.558 C 468.327 304.921, 468.238 304.627, 465.750 302.475 C 464.238 301.166, 463 299.655, 463 299.115 C 463 298.205, 460.566 297.182, 457 296.594 C 456.175 296.458, 453.984 296.526, 452.131 296.746 M 797.500 297 C 797.840 297.550, 798.316 298, 798.559 298 C 798.802 298, 799 297.550, 799 297 C 799 296.450, 798.523 296, 797.941 296 C 797.359 296, 797.160 296.450, 797.500 297 M 226.519 301.940 C 226.033 303.473, 226.627 305.133, 228.577 307.690 C 231.011 310.881, 231.454 311.100, 232.520 309.642 C 233.180 308.739, 234.468 308, 235.382 308 C 237.382 308, 250 313.612, 250 314.501 C 250 315.141, 246.584 319.055, 241.858 323.830 C 240.404 325.299, 238.268 328.610, 237.110 331.189 C 235.953 333.769, 234.554 336.158, 234.003 336.498 C 231.334 338.148, 235.405 344.990, 239.064 345.006 C 239.854 345.010, 241.772 345.676, 243.328 346.487 C 245.765 347.758, 246.593 347.770, 249.328 346.573 C 256.716 343.338, 264.865 327.488, 263.681 318.656 C 263.076 314.149, 257.630 307.877, 252.608 305.905 C 250.899 305.233, 247.475 303.770, 245 302.653 C 242.508 301.528, 237.533 300.435, 233.851 300.203 C 227.738 299.819, 227.148 299.959, 226.519 301.940 M 294.500 304.858 C 292.850 305.876, 289.790 308.911, 287.699 311.604 C 278.414 323.565, 275.058 328.240, 274.502 329.993 C 274.174 331.027, 272.929 332.014, 271.736 332.187 C 270.151 332.416, 269.328 333.515, 268.679 336.272 C 267.536 341.129, 269.095 343.263, 273.304 342.599 C 276.659 342.071, 277.970 340.601, 277.316 338.102 C 277.068 337.152, 278.183 335.059, 279.885 333.278 C 281.539 331.547, 283.981 328.407, 285.311 326.299 C 288.873 320.657, 298.314 311, 300.268 311 C 302.703 311, 303.297 314.623, 302.708 325.889 C 302.104 337.440, 303.071 340.500, 307.326 340.500 L 310.093 340.500 310.627 331 C 311.643 312.936, 311.168 309.280, 307.217 304.750 C 305.175 302.409, 298.376 302.467, 294.500 304.858 M 160.360 305.504 C 159.988 306.473, 160.221 308.124, 160.876 309.173 C 161.531 310.223, 161.801 311.513, 161.475 312.041 C 161.149 312.568, 161.246 313.005, 161.691 313.011 C 162.136 313.018, 163.234 314.705, 164.131 316.761 C 168.145 325.967, 168.006 325.703, 172.250 332.150 C 174.406 335.426, 174.505 341.122, 172.474 345.050 C 171.245 347.427, 170.297 348, 167.596 348 C 161.423 348, 152 342.197, 152 338.395 C 152 335.828, 142.836 322.888, 140.349 321.943 C 137.574 320.888, 129.758 320.847, 126.112 321.868 C 124.267 322.385, 123.295 323.891, 121.838 328.493 C 120.800 331.768, 119.512 334.888, 118.976 335.424 C 117.600 336.800, 117.772 339.038, 119.506 342.364 C 120.328 343.940, 121.019 346.415, 121.041 347.864 C 121.064 349.314, 122.076 352.522, 123.291 354.993 C 125.114 358.701, 126.312 359.783, 130.153 361.189 C 136.539 363.527, 141.161 362.182, 146.779 356.347 C 149.133 353.903, 150.813 351.507, 150.513 351.021 C 149.469 349.332, 152.141 348.811, 153.352 350.467 C 155.257 353.072, 166.064 357.943, 167.912 357.029 C 168.785 356.598, 171.211 355.510, 173.303 354.613 C 179.021 352.160, 181.070 346.873, 180.322 336.504 C 179.851 329.978, 179.214 327.684, 176.872 324.079 C 174.182 319.937, 173.407 318, 174.441 318 C 174.683 318, 178.389 319.784, 182.677 321.964 C 187.013 324.169, 190.852 325.548, 191.330 325.070 C 192.954 323.446, 191.492 320.666, 188 318.740 C 186.075 317.678, 183.600 316.017, 182.500 315.048 C 177.702 310.822, 167.620 304.813, 164.468 304.301 C 161.785 303.866, 160.888 304.128, 160.360 305.504 M 328.242 307.494 C 326.451 308.273, 324.519 309.943, 323.949 311.205 C 323.380 312.467, 322.259 314.625, 321.459 316 C 320.658 317.375, 320.245 319.652, 320.540 321.061 C 320.905 322.805, 320.475 324.165, 319.193 325.325 C 318.158 326.262, 316.739 328.760, 316.041 330.875 C 314.332 336.055, 316.639 340.005, 321.365 339.991 C 324.587 339.981, 335 334.678, 335 333.047 C 335 332.545, 335.917 331.844, 337.038 331.488 C 340.192 330.487, 344 323.663, 344 319.010 C 344 315.647, 343.300 314.236, 339.775 310.490 C 335.267 305.699, 333.455 305.229, 328.242 307.494 M 60.431 308.112 C 59.642 309.388, 61.702 310.962, 64.191 310.985 C 65.121 310.993, 66.160 311.450, 66.500 312 C 67.410 313.472, 71.031 313.243, 70.453 311.750 C 69.875 310.259, 64.404 307, 62.478 307 C 61.730 307, 60.809 307.500, 60.431 308.112 M 201.500 308.706 C 199.408 309.201, 196.042 312.779, 196.048 314.500 C 196.050 315.050, 198.347 317.057, 201.152 318.961 C 204.683 321.357, 206.803 323.708, 208.043 326.601 C 209.028 328.899, 210.302 331.069, 210.874 331.422 C 212.926 332.690, 209.026 340.892, 204.469 344.893 C 200.487 348.389, 195.213 349.070, 192.571 346.429 C 190.539 344.396, 190.574 344.167, 193.250 341.988 L 195.500 340.155 192.528 339.018 C 185.715 336.411, 182.181 342.076, 185.875 349.681 C 188.314 354.699, 192.404 357, 198.887 357 C 202.237 357, 203.678 356.233, 208.347 351.966 C 217.241 343.837, 221.444 332.614, 217.532 327.441 C 215.617 324.910, 215.601 321.367, 217.500 320.638 C 219.555 319.850, 219.392 317.063, 217.250 316.375 C 212.226 314.761, 210.201 313.681, 207.114 310.972 C 205.252 309.337, 203.677 308.052, 203.614 308.116 C 203.552 308.180, 202.600 308.445, 201.500 308.706 M 946 309 C 946 309.550, 946.450 310, 947 310 C 947.550 310, 948 309.550, 948 309 C 948 308.450, 947.550 308, 947 308 C 946.450 308, 946 308.450, 946 309 M 48.073 313.635 C 45.915 316.377, 45.258 322.423, 47 323.500 C 47.550 323.840, 48 324.965, 48 326 C 48 328.759, 50.041 329.561, 50.695 327.060 C 51.772 322.941, 53.500 325.643, 53.588 331.586 C 53.636 334.839, 53.969 339.891, 54.328 342.814 C 54.686 345.737, 54.515 350.202, 53.947 352.736 C 53.123 356.413, 53.200 357.629, 54.329 358.758 C 55.414 359.842, 55.533 361.144, 54.842 364.336 C 52.380 375.700, 52.078 377.823, 52.337 381.907 C 52.551 385.275, 53.097 386.492, 54.652 387.067 C 57.271 388.036, 65 384.662, 65 382.549 C 65 380.471, 63.333 380.583, 62.125 382.742 C 60.548 385.559, 60.100 383.839, 61.150 379 C 61.688 376.525, 62.302 371.618, 62.516 368.095 C 63.043 359.417, 63.288 359, 67.846 359 C 70.070 359, 72.282 358.365, 72.978 357.526 C 73.651 356.716, 75.806 355.752, 77.768 355.384 C 83.604 354.289, 89.572 349.986, 91.929 345.173 C 95.831 337.207, 92.686 326.411, 85.265 322.299 C 79.928 319.342, 74.353 318.668, 68.901 320.320 L 64.302 321.713 59.901 316.363 C 54.744 310.095, 51.454 309.336, 48.073 313.635 M 620.451 313.131 C 615.441 315.565, 615.188 322.424, 620.007 325.189 C 622.658 326.711, 622.958 326.703, 624.426 325.082 C 625.469 323.930, 626 321.428, 626 317.671 C 626 311.597, 625.109 310.868, 620.451 313.131 M 860.441 313.468 C 858.768 314.733, 858.730 314.941, 860.167 314.968 C 861.083 314.986, 862.062 315.563, 862.341 316.250 C 862.722 317.191, 863.110 317.129, 863.909 316 C 866.470 312.377, 864.136 310.673, 860.441 313.468 M 945.499 314.002 C 944.851 315.050, 949.886 317.447, 950.805 316.528 C 951.096 316.238, 950.808 316, 950.167 316 C 949.525 316, 949 315.325, 949 314.500 C 949 312.818, 946.455 312.455, 945.499 314.002 M 1412.158 317 C 1412.158 318.375, 1412.385 318.938, 1412.662 318.250 C 1412.940 317.563, 1412.940 316.438, 1412.662 315.750 C 1412.385 315.063, 1412.158 315.625, 1412.158 317 M 252 317.950 C 252 319.023, 251.386 320.260, 250.635 320.700 C 247.754 322.389, 245.847 327.998, 246.342 333.333 C 246.605 336.175, 246.861 338.697, 246.910 338.939 C 247.132 340.020, 250.699 335.084, 252.646 331 C 255.896 324.187, 256.293 322.122, 254.969 318.926 C 253.585 315.584, 252 315.063, 252 317.950 M 330.197 321.087 C 327.135 323.338, 326 324.876, 326 326.774 L 326 329.374 329.250 326.466 C 333.803 322.392, 336 319.927, 336 318.889 C 336 317.346, 334.521 317.906, 330.197 321.087 M 943 319 C 943 319.550, 943.450 320, 944 320 C 944.550 320, 945 319.550, 945 319 C 945 318.450, 944.550 318, 944 318 C 943.450 318, 943 318.450, 943 319 M 953 322 C 953 324.274, 955.508 324.725, 956.324 322.598 C 956.952 320.962, 956.214 320, 954.333 320 C 953.600 320, 953 320.900, 953 322 M 1411.783 321.250 C 1411.125 323.161, 1411.703 369.036, 1412.394 369.727 C 1412.727 370.061, 1413 359.008, 1413 345.167 C 1413 331.325, 1412.823 320, 1412.607 320 C 1412.391 320, 1412.020 320.563, 1411.783 321.250 M 498.238 326.163 C 496.735 327.665, 496.610 330, 498.031 330 C 499.239 330, 500.346 327.538, 499.832 325.995 C 499.593 325.280, 499.065 325.335, 498.238 326.163 M 69 328.344 C 69 329.084, 67.876 330.996, 66.501 332.594 C 63.604 335.963, 63.464 336.909, 65.468 339.559 C 67.508 342.256, 67.351 343.246, 65 342.500 C 63.454 342.009, 63 342.320, 63 343.871 C 63 345.931, 63.118 345.965, 75 347.327 C 76.925 347.548, 79.438 347.301, 80.585 346.779 C 83.517 345.444, 86 340.818, 86 336.690 C 86 333.629, 85.412 332.799, 81.329 330.094 C 76.308 326.768, 69 325.731, 69 328.344 M 656.667 328.667 C 655.516 329.817, 655.938 331, 657.500 331 C 658.325 331, 659 330.325, 659 329.500 C 659 327.938, 657.817 327.516, 656.667 328.667 M 135.812 337.135 C 135.504 341.393, 135.437 341.465, 131.112 342.199 C 128.698 342.608, 126.516 343.151, 126.262 343.404 C 126.008 343.658, 126.317 345.431, 126.948 347.344 C 127.835 350.029, 129.020 351.191, 132.153 352.445 C 134.385 353.337, 136.997 353.818, 137.957 353.514 C 140.029 352.856, 144.489 344.852, 145.344 340.256 C 146.005 336.706, 144.158 334.789, 138.812 333.475 C 136.238 332.842, 136.111 332.997, 135.812 337.135 M 511.255 335.842 C 510.613 336.239, 510.452 337.113, 510.891 337.824 C 511.512 338.829, 511.929 338.790, 512.887 337.636 C 514.230 336.018, 513.057 334.729, 511.255 335.842 M 502 340.559 C 502 341.416, 502.450 341.840, 503 341.500 C 503.550 341.160, 504 340.459, 504 339.941 C 504 339.423, 503.550 339, 503 339 C 502.450 339, 502 339.702, 502 340.559 M 564.667 339.667 C 563.516 340.817, 563.938 342, 565.500 342 C 566.325 342, 567 341.325, 567 340.500 C 567 338.938, 565.817 338.516, 564.667 339.667 M 329.190 352.139 C 330.964 353.264, 334 353.219, 334 352.067 C 334 351.554, 332.623 351.173, 330.940 351.221 C 328.909 351.279, 328.320 351.587, 329.190 352.139 M 285 373.500 C 285 374.417, 285.484 375.005, 286.075 374.808 C 286.666 374.611, 287.150 374.022, 287.150 373.500 C 287.150 372.978, 286.666 372.389, 286.075 372.192 C 285.484 371.995, 285 372.583, 285 373.500 M 1411.905 373.750 C 1411.438 377.437, 1411.579 411.843, 1412.081 416.500 C 1412.441 419.850, 1412.787 411.569, 1412.863 397.750 C 1412.938 384.137, 1412.775 373, 1412.500 373 C 1412.225 373, 1411.957 373.337, 1411.905 373.750 M 240.500 386 C 240.160 386.550, 240.359 387, 240.941 387 C 241.523 387, 242 386.550, 242 386 C 242 385.450, 241.802 385, 241.559 385 C 241.316 385, 240.840 385.450, 240.500 386 M 174.667 386.667 C 173.516 387.817, 173.938 389, 175.500 389 C 176.325 389, 177 388.325, 177 387.500 C 177 385.938, 175.817 385.516, 174.667 386.667 M 177 391.500 C 177 392.325, 177.450 393, 178 393 C 178.550 393, 179 392.325, 179 391.500 C 179 390.675, 178.550 390, 178 390 C 177.450 390, 177 390.675, 177 391.500 M 248.750 392.080 C 247.787 392.641, 247 393.479, 247 393.943 C 247 395.435, 250.084 396.025, 252.137 394.927 C 253.728 394.075, 253.890 393.572, 252.942 392.430 C 251.552 390.755, 251.091 390.716, 248.750 392.080 M 253.169 421.750 C 252.674 422.712, 251.965 425.879, 251.595 428.787 C 250.996 433.487, 251.314 434.945, 254.461 441.913 C 256.407 446.224, 258 450.382, 258 451.153 C 258 456.162, 264.991 458.877, 268.345 455.171 C 270.528 452.759, 270.429 450.216, 267.996 446.226 C 266.898 444.425, 266 441.875, 266 440.559 C 266 439.243, 265.531 438.010, 264.958 437.819 C 264.385 437.628, 263.759 435.903, 263.566 433.986 C 263.093 429.287, 261.968 426, 260.831 426 C 260.317 426, 259.425 424.650, 258.850 423 C 257.671 419.619, 254.613 418.946, 253.169 421.750 M 1412.252 426.500 C 1412.263 428.700, 1412.468 429.482, 1412.707 428.238 C 1412.946 426.994, 1412.937 425.194, 1412.687 424.238 C 1412.437 423.282, 1412.241 424.300, 1412.252 426.500 M 711.031 427 C 711.031 427.825, 711.467 429.175, 712 430 C 712.862 431.333, 712.969 431.333, 712.969 430 C 712.969 429.175, 712.533 427.825, 712 427 C 711.138 425.667, 711.031 425.667, 711.031 427 M 1412.079 432.583 C 1412.127 433.748, 1412.364 433.985, 1412.683 433.188 C 1412.972 432.466, 1412.936 431.603, 1412.604 431.271 C 1412.272 430.939, 1412.036 431.529, 1412.079 432.583 M 1411.843 447.250 C 1411.647 452.337, 1411.767 458.525, 1412.109 461 C 1412.487 463.727, 1412.785 460.082, 1412.866 451.750 C 1412.940 444.188, 1412.820 438, 1412.599 438 C 1412.379 438, 1412.039 442.163, 1411.843 447.250 M 872.465 444.056 C 872.068 444.698, 872.323 445.582, 873.031 446.019 C 874.688 447.043, 877.198 446.093, 876.709 444.627 C 876.181 443.041, 873.330 442.658, 872.465 444.056 M 128 467 C 126.312 468.650, 124.360 470, 123.663 470 C 121.890 470, 114.363 475.676, 109.542 480.647 C 97.717 492.842, 94.558 498.276, 93.489 508.261 C 92.815 514.548, 92.943 515.236, 95.366 518.413 C 98.823 522.945, 105.317 525.398, 112.224 524.780 C 118.618 524.208, 131.407 520.450, 133.257 518.600 C 133.995 517.862, 136.051 516.508, 137.826 515.590 C 141.005 513.946, 141.138 513.971, 146.527 517.194 C 149.537 518.994, 152 520.780, 152 521.163 C 152 522.155, 162.767 524.262, 163.986 523.509 C 165.744 522.422, 165.100 521.284, 162 520 C 160.350 519.317, 159 518.422, 159 518.012 C 159 517.601, 160.803 516.072, 163.008 514.614 C 167.427 511.689, 173 504.656, 173 502.004 C 173 497.031, 165.532 487.787, 162.216 488.654 C 161.070 488.954, 158.526 488.669, 156.563 488.021 C 151.381 486.311, 147.727 487.531, 142.038 492.872 C 137.055 497.550, 137 497.668, 137 503.702 C 137 509.633, 136.901 509.861, 133.443 511.901 C 131.486 513.056, 129.066 514, 128.065 514 C 127.064 514, 124.629 514.675, 122.654 515.500 C 113.911 519.153, 101 514.854, 101 508.289 C 101 505.504, 106.121 494.757, 108.937 491.634 C 109.995 490.460, 112.214 487.925, 113.867 486 C 115.520 484.075, 119.343 480.925, 122.362 479 C 125.382 477.075, 128.411 474.488, 129.095 473.250 C 129.779 472.012, 131.078 471, 131.982 471 C 133.566 471, 139 466.119, 139 464.695 C 139 464.313, 137.216 464, 135.034 464 C 131.977 464, 130.366 464.687, 128 467 M 138.459 468.067 C 138.096 468.653, 138.036 469.369, 138.325 469.658 C 139.110 470.443, 143 469.008, 143 467.933 C 143 466.645, 139.269 466.755, 138.459 468.067 M 1411.795 467.581 C 1411.408 468.176, 1411.303 472.676, 1411.563 477.581 C 1411.823 482.487, 1412.028 498.387, 1412.020 512.915 C 1412.011 527.443, 1412.212 539.122, 1412.466 538.868 C 1413.211 538.122, 1413.589 499.885, 1413.022 482.500 C 1412.735 473.700, 1412.183 466.987, 1411.795 467.581 M 201.655 470.829 C 199.594 473.106, 199.524 476.360, 201.500 478 C 202.325 478.685, 203 479.880, 203 480.656 C 203 481.432, 204.125 484.287, 205.500 487 C 206.875 489.713, 208 492.776, 208 493.806 C 208 494.836, 209.036 496.151, 210.303 496.728 C 211.782 497.402, 213.070 499.339, 213.901 502.139 C 214.613 504.538, 215.601 507.281, 216.097 508.236 C 218.366 512.601, 216.104 515.069, 207.575 517.532 C 201.072 519.411, 192.909 519.106, 188.872 516.835 C 183.898 514.036, 182.017 511.780, 182.628 509.344 C 183.145 507.288, 182.860 507, 180.308 507 C 171.485 507, 174.651 518.771, 184.987 524.397 C 191.312 527.839, 202.803 528.758, 210 526.397 C 222.187 522.398, 224.553 519.990, 226.424 509.680 C 227.195 505.432, 224.005 494.079, 221.444 491.953 C 218.900 489.842, 219.867 489.265, 225.750 489.384 C 232.286 489.516, 233.743 487.485, 228.473 485.589 C 222.822 483.556, 214.516 478.135, 210.042 473.559 C 205.095 468.500, 204.066 468.165, 201.655 470.829 M 131 476.583 C 131 478.349, 133.153 478.042, 133.771 476.188 C 133.989 475.534, 133.454 475, 132.583 475 C 131.713 475, 131 475.712, 131 476.583 M 255.210 484.250 C 253.767 485.994, 251.929 496.792, 252.082 502.632 C 252.153 505.309, 251.711 510.496, 251.101 514.157 C 250.491 517.818, 250.249 521.486, 250.565 522.308 C 251.323 524.285, 254.861 525.145, 257.163 523.913 C 260.684 522.029, 261.638 517.250, 261.567 501.855 C 261.508 488.914, 261.278 486.965, 259.595 485.105 C 257.392 482.671, 256.639 482.524, 255.210 484.250 M 150.010 498.382 C 143.285 499.800, 142.564 501.725, 147.185 505.927 C 151.905 510.219, 156.669 510.121, 161.429 505.632 C 163.393 503.779, 165 501.732, 165 501.081 C 165 499.834, 158.968 496.921, 156.782 497.112 C 156.077 497.174, 153.029 497.745, 150.010 498.382 M 321.272 498.211 C 320.047 498.802, 318.792 500.080, 318.484 501.051 C 318.176 502.021, 317.266 503.068, 316.462 503.376 C 314.135 504.269, 314.569 511.300, 317.093 513.584 C 320.125 516.328, 321.314 518.907, 320.196 520.314 C 319.677 520.966, 318.951 523.586, 318.582 526.135 C 318.064 529.720, 318.278 531.135, 319.527 532.385 C 321.684 534.542, 325.252 534.426, 328.116 532.107 C 330.314 530.327, 330.446 529.591, 330.314 519.857 C 330.237 514.161, 330.135 508.938, 330.087 508.250 C 330.039 507.563, 329.050 506.050, 327.890 504.890 C 326.169 503.169, 325.972 502.356, 326.823 500.489 C 328.441 496.938, 325.992 495.932, 321.272 498.211 M 879.500 534 C 879.101 534.646, 879.224 535.624, 879.774 536.174 C 880.441 536.841, 881.016 536.783, 881.500 536 C 881.899 535.354, 881.776 534.376, 881.226 533.826 C 880.559 533.159, 879.984 533.217, 879.500 534 M 1412.158 544 C 1412.158 545.375, 1412.385 545.938, 1412.662 545.250 C 1412.940 544.563, 1412.940 543.438, 1412.662 542.750 C 1412.385 542.063, 1412.158 542.625, 1412.158 544 M 779 547.882 C 779 548.982, 779.450 550.160, 780 550.500 C 780.550 550.840, 781 550.218, 781 549.118 C 781 548.018, 780.550 546.840, 780 546.500 C 779.450 546.160, 779 546.782, 779 547.882 M 769 553.535 C 769 554.760, 769.404 554.854, 771 554 C 772.100 553.411, 773 552.720, 773 552.465 C 773 552.209, 772.100 552, 771 552 C 769.869 552, 769 552.667, 769 553.535 M 303 555.083 C 303 557.520, 305.337 557.176, 305.823 554.667 C 306.015 553.680, 305.505 553, 304.573 553 C 303.646 553, 303 553.855, 303 555.083 M 626.965 557.542 C 626.006 558.698, 625.971 559.371, 626.826 560.226 C 628.157 561.557, 628.508 561.292, 629.443 558.250 C 630.237 555.667, 628.850 555.271, 626.965 557.542 M 1412.438 559.974 C 1412.472 562.097, 1412.838 564.172, 1413.250 564.584 C 1413.662 564.996, 1414 563.485, 1414 561.226 C 1414 558.966, 1413.635 556.892, 1413.188 556.616 C 1412.742 556.340, 1412.404 557.852, 1412.438 559.974 M 768.355 559.518 C 767.982 560.488, 768.300 561.576, 769.104 562.086 C 771.360 563.514, 772.160 563.144, 771.820 560.828 C 771.419 558.107, 769.216 557.273, 768.355 559.518 M 782.688 558.646 C 781.314 560.020, 782.026 562.142, 783.750 561.810 C 784.712 561.624, 785.500 560.841, 785.500 560.070 C 785.500 558.491, 783.736 557.598, 782.688 558.646 M 51.496 566.007 C 51.153 566.561, 51.596 567.292, 52.480 567.631 C 54.394 568.365, 55.461 567.556, 54.541 566.067 C 53.711 564.723, 52.306 564.696, 51.496 566.007 M 46.570 566.887 C 46.269 567.374, 46.652 568.296, 47.422 568.935 C 48.981 570.229, 50.577 568.742, 49.500 567 C 48.735 565.762, 47.300 565.706, 46.570 566.887 M 636.150 566.950 C 636.580 568.239, 637.951 568.471, 638.075 567.275 C 638.116 566.876, 637.610 566.370, 636.950 566.150 C 636.290 565.930, 635.930 566.290, 636.150 566.950 M 0.349 575 C 0.349 579.675, 0.522 581.587, 0.732 579.250 C 0.943 576.913, 0.943 573.087, 0.732 570.750 C 0.522 568.413, 0.349 570.325, 0.349 575 M 1412.079 570.583 C 1412.127 571.748, 1412.364 571.985, 1412.683 571.188 C 1412.972 570.466, 1412.936 569.603, 1412.604 569.271 C 1412.272 568.939, 1412.036 569.529, 1412.079 570.583 M 327 574.583 C 327 575.454, 327.534 575.989, 328.188 575.771 C 330.042 575.153, 330.349 573, 328.583 573 C 327.712 573, 327 573.712, 327 574.583 M 370.500 574 C 370.160 574.550, 370.359 575, 370.941 575 C 371.523 575, 372 574.550, 372 574 C 372 573.450, 371.802 573, 371.559 573 C 371.316 573, 370.840 573.450, 370.500 574 M 1412.232 577 C 1412.232 578.925, 1412.438 579.712, 1412.689 578.750 C 1412.941 577.788, 1412.941 576.212, 1412.689 575.250 C 1412.438 574.288, 1412.232 575.075, 1412.232 577 M 363.400 576.400 C 363.034 577.354, 363.229 578.629, 363.834 579.234 C 364.634 580.034, 365.116 579.861, 365.600 578.600 C 365.966 577.646, 365.771 576.371, 365.166 575.766 C 364.366 574.966, 363.884 575.139, 363.400 576.400 M 774 577 C 774 579.260, 774.748 579.426, 778.495 578.002 C 781.770 576.757, 780.861 575, 776.941 575 C 774.667 575, 774 575.453, 774 577 M 367 580.499 C 365.986 581.721, 365.956 582.356, 366.870 583.270 C 368.299 584.699, 371.500 583.064, 371.500 580.905 C 371.500 578.911, 368.540 578.644, 367 580.499 M 329.339 581.560 C 328.588 583.517, 329.491 584.409, 331.457 583.655 C 333.435 582.896, 333.438 581.382, 331.462 580.624 C 330.577 580.284, 329.676 580.681, 329.339 581.560 M 326 582.059 C 326 582.641, 326.450 582.840, 327 582.500 C 327.550 582.160, 328 581.684, 328 581.441 C 328 581.198, 327.550 581, 327 581 C 326.450 581, 326 581.477, 326 582.059 M 1412.232 584 C 1412.232 585.925, 1412.438 586.712, 1412.689 585.750 C 1412.941 584.788, 1412.941 583.212, 1412.689 582.250 C 1412.438 581.288, 1412.232 582.075, 1412.232 584 M 96.609 586.576 C 95.764 588.779, 96.692 589.708, 98.217 588.183 C 99.055 587.345, 99.089 586.689, 98.333 585.933 C 97.576 585.176, 97.074 585.364, 96.609 586.576 M 1412.100 591.750 C 1412.189 595.097, 1412.285 595.231, 1413 593 C 1414.145 589.425, 1414.145 588, 1413 588 C 1412.450 588, 1412.045 589.688, 1412.100 591.750 M 619.224 593.176 C 617.711 594.689, 619.462 597, 622.122 597 C 623.459 597, 624 596.279, 624 594.500 C 624 591.776, 621.356 591.044, 619.224 593.176 M 1307.500 594 C 1307.160 594.550, 1307.584 595, 1308.441 595 C 1309.298 595, 1310 594.550, 1310 594 C 1310 593.450, 1309.577 593, 1309.059 593 C 1308.541 593, 1307.840 593.450, 1307.500 594" stroke="none" fill="hsl(210, 40%, 96.1%)" fill-rule="evenodd"/>
</svg>