<svg xmlns="http://www.w3.org/2000/svg" width="1372" height="600" viewBox="0 0 1372 600" version="1.1">
	<path d="M 244.813 0.683 C 245.534 0.972, 246.397 0.936, 246.729 0.604 C 247.061 0.272, 246.471 0.036, 245.417 0.079 C 244.252 0.127, 244.015 0.364, 244.813 0.683 M 249.250 0.689 C 250.213 0.941, 251.787 0.941, 252.750 0.689 C 253.713 0.438, 252.925 0.232, 251 0.232 C 249.075 0.232, 248.287 0.438, 249.250 0.689 M 259.250 0.735 C 261.863 0.941, 266.137 0.941, 268.750 0.735 C 271.363 0.529, 269.225 0.360, 264 0.360 C 258.775 0.360, 256.637 0.529, 259.250 0.735 M 313 1.037 C 354.358 1.828, 959.344 1.797, 1040.500 0.999 C 1070.750 0.702, 911.450 0.435, 686.500 0.408 C 461.550 0.380, 293.475 0.663, 313 1.037 M 1101.250 0.735 C 1103.862 0.941, 1108.138 0.941, 1110.750 0.735 C 1113.362 0.529, 1111.225 0.360, 1106 0.360 C 1100.775 0.360, 1098.638 0.529, 1101.250 0.735 M 1117.750 0.662 C 1118.438 0.940, 1119.563 0.940, 1120.250 0.662 C 1120.938 0.385, 1120.375 0.158, 1119 0.158 C 1117.625 0.158, 1117.063 0.385, 1117.750 0.662 M 1128.750 0.662 C 1129.438 0.940, 1130.563 0.940, 1131.250 0.662 C 1131.938 0.385, 1131.375 0.158, 1130 0.158 C 1128.625 0.158, 1128.063 0.385, 1128.750 0.662 M 1135.750 0.662 C 1136.438 0.940, 1137.563 0.940, 1138.250 0.662 C 1138.938 0.385, 1138.375 0.158, 1137 0.158 C 1135.625 0.158, 1135.063 0.385, 1135.750 0.662 M 1141.813 0.683 C 1142.534 0.972, 1143.397 0.936, 1143.729 0.604 C 1144.061 0.272, 1143.471 0.036, 1142.417 0.079 C 1141.252 0.127, 1141.015 0.364, 1141.813 0.683 M 1149.269 0.693 C 1150.242 0.947, 1151.592 0.930, 1152.269 0.656 C 1152.946 0.382, 1152.150 0.175, 1150.500 0.195 C 1148.850 0.215, 1148.296 0.439, 1149.269 0.693 M 441.188 22.063 C 441.428 22.784, 442.216 23.572, 442.938 23.813 C 443.688 24.063, 444.063 23.688, 443.813 22.938 C 443.572 22.216, 442.784 21.428, 442.063 21.188 C 441.313 20.938, 440.938 21.313, 441.188 22.063 M 0.195 50.500 C 0.215 52.150, 0.439 52.704, 0.693 51.731 C 0.947 50.758, 0.930 49.408, 0.656 48.731 C 0.382 48.054, 0.175 48.850, 0.195 50.500 M 58.892 57.058 C 60.207 58.154, 61.556 58.777, 61.890 58.443 C 62.600 57.733, 59.109 54.985, 57.559 55.033 C 56.976 55.052, 57.576 55.963, 58.892 57.058 M 655.131 60.755 C 654.614 61.721, 654.313 67.810, 654.460 74.288 C 654.660 83.056, 654.318 87.270, 653.122 90.782 C 651.101 96.716, 651.282 96.475, 649.774 95.249 C 647.006 92.999, 640.834 90, 638.970 90 C 637.862 90, 637 90.675, 637 91.540 C 637 93.631, 641.069 99, 642.653 99 C 643.355 99, 644.438 100.013, 645.059 101.250 C 645.680 102.487, 647.228 104.400, 648.499 105.500 C 650.760 107.457, 650.788 107.707, 649.784 117 C 649.220 122.225, 648.700 127.700, 648.629 129.167 C 648.558 130.633, 648.163 132.171, 647.750 132.583 C 647.337 132.996, 647 135.508, 647 138.167 C 647 142.589, 647.202 143, 649.378 143 C 650.685 143, 652.210 142.438, 652.765 141.750 C 653.321 141.063, 654.544 135.135, 655.484 128.577 C 658.014 110.922, 657.464 111.348, 665.573 120.777 C 669.383 125.207, 673.020 128.870, 673.656 128.916 C 675.049 129.017, 674.278 125.173, 672.470 123 C 671.784 122.175, 670.912 120.037, 670.532 118.250 C 670.152 116.463, 669.427 115, 668.921 115 C 668.414 115, 668 114.360, 668 113.578 C 668 112.796, 666.134 110.559, 663.854 108.607 L 659.709 105.059 660.799 95.279 C 661.398 89.901, 662.372 82.350, 662.963 78.500 C 664.685 67.275, 662.734 59, 658.366 59 C 657.103 59, 655.648 59.790, 655.131 60.755 M 51.895 62.719 C 51.012 62.923, 49.698 64.195, 48.976 65.545 C 48.253 66.895, 47.288 68, 46.831 68 C 46.374 68, 46 69.019, 46 70.265 C 46 71.510, 45.160 74.098, 44.132 76.015 C 42.499 79.063, 42.257 81.948, 42.201 99 C 42.143 117.114, 42.957 124.923, 45.169 127.450 C 45.626 127.972, 46 130.346, 46 132.725 C 46 135.104, 46.900 139.611, 48 142.740 C 49.100 145.870, 50 149.225, 50 150.196 C 50 151.167, 51.578 154.428, 53.506 157.442 C 57.009 162.919, 62.600 167.093, 68.145 168.374 C 71.441 169.136, 76.591 167.048, 80.510 163.361 C 82.155 161.815, 83.856 160.657, 84.291 160.788 C 84.725 160.920, 85.963 160.555, 87.041 159.978 C 89.346 158.744, 89.663 156, 87.500 156 C 85.637 156, 85.637 154.259, 87.500 151 C 88.286 149.625, 88.945 147.472, 88.965 146.215 C 88.984 144.958, 89.642 142.933, 90.427 141.715 C 92.069 139.165, 93.439 132.847, 95.568 118 C 96.396 112.225, 97.510 104.800, 98.044 101.500 C 99.250 94.044, 99.217 95.377, 98.490 83.500 C 97.697 70.538, 97.395 69.260, 94.950 68.484 C 90.724 67.143, 90.004 69.316, 90.183 82.866 C 90.337 94.562, 87.727 124.554, 86.255 128 C 85.903 128.825, 85.551 129.950, 85.473 130.500 C 84.409 138.011, 83.476 141.164, 81.896 142.595 C 80.853 143.538, 80 145.535, 80 147.033 C 80 148.530, 79.325 150.315, 78.500 151 C 77.675 151.685, 77 152.804, 77 153.486 C 77 154.169, 75.241 155.947, 73.091 157.437 C 69.428 159.975, 69.003 160.053, 66.341 158.676 C 62.565 156.723, 57.438 150.223, 56.732 146.495 C 56.420 144.848, 55.654 141.700, 55.029 139.500 C 51.369 126.600, 48.478 107.846, 48.621 97.919 C 48.706 92.014, 51.950 80, 53.460 80 C 54.100 80, 55.589 80.900, 56.770 82 C 59.402 84.452, 60.586 84.522, 61.447 82.276 C 61.846 81.239, 61.496 80.105, 60.570 79.428 C 58.787 78.124, 59.526 77, 62.167 77 C 64.429 77, 64.521 74.725, 62.390 71.472 C 61.399 69.959, 61.018 68.066, 61.399 66.547 C 61.858 64.719, 61.515 63.811, 60.076 63.041 C 58.475 62.184, 58.014 62.382, 57.447 64.167 C 56.763 66.321, 56.751 66.322, 55.130 64.340 C 54.233 63.243, 52.778 62.514, 51.895 62.719 M 701.200 66.200 C 700.540 66.860, 700 68.010, 700 68.755 C 700 69.500, 699.085 72.119, 697.966 74.574 C 695.920 79.065, 694.111 85.935, 693.508 91.500 C 693.329 93.150, 692.868 95.287, 692.484 96.250 C 692.005 97.452, 692.259 98, 693.295 98 C 694.125 98, 695.292 96.763, 695.888 95.250 C 696.484 93.737, 697.402 91.825, 697.928 91 C 698.455 90.175, 700.947 85.171, 703.468 79.881 C 707.346 71.739, 707.896 69.857, 707.050 67.631 C 705.987 64.837, 703.236 64.164, 701.200 66.200 M 0.079 67.583 C 0.127 68.748, 0.364 68.985, 0.683 68.188 C 0.972 67.466, 0.936 66.603, 0.604 66.271 C 0.272 65.939, 0.036 66.529, 0.079 67.583 M 902.590 69.319 C 900.087 71.822, 899.094 78.152, 899.166 91.142 C 899.230 102.449, 898.039 103.605, 889.500 100.529 C 884.213 98.624, 876.594 98.580, 875.046 100.445 C 874.386 101.240, 873.994 102.927, 874.173 104.195 C 874.453 106.168, 875.128 106.524, 878.858 106.665 C 881.255 106.756, 886.514 107.842, 890.545 109.079 C 897.734 111.285, 897.869 111.387, 897.553 114.414 C 897.376 116.111, 896.989 118.175, 896.692 119 C 895.809 121.457, 891.981 143.308, 891.991 145.833 C 892.006 149.692, 889.902 147.825, 885.633 140.193 C 883.421 136.237, 881.301 133, 880.922 133 C 879.581 133, 880.632 138.563, 882.800 142.938 C 884.010 145.379, 885 147.926, 885 148.599 C 885 150.556, 890.930 155, 893.542 155 C 897.403 155, 897.774 153.897, 901.949 130 C 903.054 123.675, 903.967 116.900, 903.979 114.945 L 904 111.390 911.750 110.095 C 916.013 109.382, 920.625 108.228, 922 107.531 C 923.375 106.833, 926.399 105.282, 928.720 104.084 C 931.041 102.886, 934.866 101.577, 937.220 101.175 C 939.991 100.702, 941.500 99.926, 941.500 98.972 C 941.500 96.803, 937.353 96.593, 932.339 98.508 C 929.918 99.433, 927.252 99.927, 926.416 99.606 C 925.580 99.285, 923.906 99.639, 922.698 100.393 C 921.489 101.147, 917.237 102.045, 913.250 102.389 L 906 103.014 905.952 99.257 C 905.631 73.951, 905.693 72.075, 906.897 70.624 C 908.209 69.043, 907.644 67, 905.896 67 C 905.353 67, 903.866 68.043, 902.590 69.319 M 344.657 80.750 C 342.645 84.719, 343.040 94.061, 345.266 95.151 C 346.219 95.618, 347.788 96.383, 348.750 96.852 C 349.712 97.321, 350.644 98.671, 350.820 99.852 C 351.206 102.452, 352.549 102.626, 353.884 100.250 C 354.626 98.930, 354.350 97.947, 352.759 96.250 C 351.600 95.013, 351.180 94, 351.826 94 C 353.280 94, 353.425 84.248, 352.025 80.565 C 350.650 76.950, 346.531 77.053, 344.657 80.750 M 1139.538 86.564 C 1137.674 91.025, 1137.586 92.995, 1139.250 93.015 C 1140.097 93.026, 1140.025 93.331, 1139.029 93.961 C 1138.220 94.473, 1137.872 95.205, 1138.255 95.588 C 1139.225 96.558, 1142.114 93.993, 1141.383 92.810 C 1141.055 92.280, 1141.783 90.919, 1143 89.786 C 1144.800 88.108, 1145.370 87.981, 1146.064 89.104 C 1146.533 89.863, 1146.636 91.612, 1146.293 92.992 C 1145.724 95.276, 1145.823 95.372, 1147.399 94.074 C 1148.688 93.012, 1149.046 91.479, 1148.802 88.074 C 1148.481 83.590, 1148.402 83.494, 1144.775 83.192 C 1141.349 82.907, 1140.962 83.156, 1139.538 86.564 M 1091.958 99.612 C 1091.095 101.880, 1091.184 102.661, 1092.406 103.555 C 1093.481 104.341, 1093.618 104.982, 1092.869 105.731 C 1092.285 106.315, 1091.649 109.118, 1091.456 111.960 C 1091.061 117.757, 1088.391 123.945, 1085.750 125.181 C 1084.787 125.631, 1083.213 126.383, 1082.250 126.851 C 1081.217 127.353, 1080.367 129.095, 1080.175 131.101 C 1079.997 132.970, 1079.076 135.400, 1078.130 136.500 C 1076.060 138.906, 1074.370 142.513, 1073.554 146.271 C 1072.491 151.160, 1077.229 157.577, 1082.653 158.595 C 1092.058 160.359, 1095.248 154.645, 1092.540 140.886 L 1091.828 137.271 1100.164 136.046 C 1104.749 135.373, 1109.299 134.603, 1110.275 134.335 C 1112.640 133.688, 1119.100 126.971, 1118.419 125.869 C 1117.565 124.487, 1114.361 124.860, 1113 126.500 C 1112.065 127.627, 1109.549 128, 1102.878 128 C 1092.848 128, 1092.157 127.285, 1095.923 120.807 C 1099.991 113.810, 1099.232 101.927, 1094.464 97.970 C 1093.299 97.003, 1092.833 97.309, 1091.958 99.612 M 692.933 100.595 C 692.895 101.643, 692.670 104, 692.432 105.834 C 691.888 110.020, 693.868 109.691, 695.660 105.297 C 696.766 102.587, 696.684 102.024, 694.956 100.460 C 693.080 98.762, 692.997 98.768, 692.933 100.595 M 1137.849 101.750 C 1137.439 109.238, 1139.148 114.252, 1141.358 112.042 C 1142.081 111.319, 1142.033 110.633, 1141.200 109.800 C 1140.540 109.140, 1140 106.440, 1140 103.800 C 1140 98.776, 1138.111 96.976, 1137.849 101.750 M 0.158 102 C 0.158 103.375, 0.385 103.938, 0.662 103.250 C 0.940 102.563, 0.940 101.438, 0.662 100.750 C 0.385 100.063, 0.158 100.625, 0.158 102 M 1166.347 105.537 C 1165.679 107.278, 1168.614 111, 1170.655 111 C 1171.395 111, 1172 111.863, 1172 112.917 C 1172 114.767, 1174.978 122.722, 1176.967 126.183 C 1177.758 127.560, 1177.335 128.064, 1174.645 128.952 C 1169.580 130.624, 1164.598 136.329, 1164.318 140.778 C 1164.189 142.825, 1163.873 146.975, 1163.616 150 C 1163.211 154.760, 1163.496 155.971, 1165.730 159 C 1168.750 163.095, 1171.402 165.468, 1175.353 167.611 C 1183.640 172.105, 1191.002 158.205, 1188.122 143.500 C 1186.949 137.512, 1187.907 136.054, 1191.477 138.393 C 1192.896 139.323, 1194.463 139.832, 1194.960 139.525 C 1195.457 139.218, 1196.559 139.959, 1197.409 141.173 C 1199.157 143.669, 1200.657 143.027, 1199.466 140.293 C 1199.036 139.307, 1198.777 137.931, 1198.889 137.237 C 1199.002 136.542, 1198.285 135.674, 1197.297 135.308 C 1196.309 134.942, 1193.523 133.148, 1191.106 131.321 C 1188.690 129.495, 1186.170 128, 1185.508 128 C 1184.382 128, 1182.986 125.283, 1179.918 117.116 C 1179.219 115.255, 1176.916 111.543, 1174.800 108.866 C 1170.890 103.920, 1167.483 102.578, 1166.347 105.537 M 1223.750 108.299 C 1222.166 108.926, 1221 110.152, 1221 111.193 C 1221 112.591, 1221.791 113, 1224.500 113 C 1228.144 113, 1228.605 113.834, 1228.144 119.584 C 1228.009 121.257, 1231.788 126.362, 1232.082 124.905 C 1232.127 124.682, 1232.376 120.941, 1232.635 116.592 C 1233.134 108.234, 1232.567 106.936, 1228.500 107.122 C 1227.400 107.172, 1225.263 107.702, 1223.750 108.299 M 871 109 C 871 109.550, 871.450 110, 872 110 C 872.550 110, 873 109.550, 873 109 C 873 108.450, 872.550 108, 872 108 C 871.450 108, 871 108.450, 871 109 M 578.228 111.039 C 576.978 111.541, 575.664 112.750, 575.308 113.726 C 574.951 114.702, 573.880 116.518, 572.927 117.762 C 571.973 119.006, 570.889 122.645, 570.518 125.849 L 569.842 131.674 565.358 130.197 C 558.580 127.966, 554.310 129.661, 545.357 138.135 L 537.991 145.108 534.866 143.304 C 533.148 142.312, 529.663 139.651, 527.121 137.391 C 521.075 132.015, 518.607 131.251, 516.288 134.035 C 513.976 136.810, 503.127 144.562, 500.376 145.404 C 498.532 145.969, 498.108 145.490, 497.168 141.778 C 496.572 139.425, 494.726 135.363, 493.064 132.750 C 488.674 125.846, 485.530 126.115, 475.983 134.213 C 474.040 135.862, 469.124 139.130, 466.320 140.637 C 463.808 141.987, 463 140.844, 463 135.936 C 463 133.877, 461.743 131.723, 458.671 128.518 C 454.635 124.305, 453.994 124, 449.190 124 C 444.592 124, 443.974 123.743, 443.438 121.610 C 442.623 118.364, 438.488 114.953, 434.601 114.323 C 432.415 113.968, 429.828 114.568, 426.449 116.212 C 412.149 123.174, 409 126.786, 409 136.228 C 409 142.766, 410.658 145.338, 416.619 148.054 C 420.871 149.991, 421.414 150.021, 426.312 148.584 C 429.165 147.747, 433.222 145.883, 435.328 144.442 C 437.433 143.001, 439.233 141.975, 439.328 142.161 C 439.422 142.347, 440.400 144.296, 441.500 146.492 C 444.697 152.873, 451.777 155.276, 459.973 152.763 C 463.398 151.712, 473.780 144.715, 481.414 138.311 C 484.502 135.720, 485.622 135.272, 486.722 136.184 C 488.786 137.897, 491 143.780, 491 147.551 C 491 149.369, 491.707 151.564, 492.571 152.429 C 494.617 154.474, 499.362 154.433, 502.785 152.340 C 510.582 147.572, 513.791 145.341, 516.668 142.688 L 519.836 139.767 524.668 144.246 C 529.683 148.896, 537.847 151.905, 541.692 150.521 C 542.686 150.163, 545.750 147.190, 548.500 143.914 C 553.930 137.446, 557.483 135, 561.450 135 C 565.119 135, 570.265 140.666, 572.596 147.271 C 574.563 152.848, 575.735 154, 579.439 154 C 582.073 154, 583.846 152.765, 589.566 146.945 C 596.664 139.723, 602.198 135.470, 609.032 131.984 L 612.900 130.010 615.470 132.255 C 617.370 133.915, 618.424 136.370, 619.517 141.675 C 620.820 148, 620.821 149.761, 619.520 156.557 C 618.709 160.796, 618.287 164.655, 618.582 165.132 C 618.877 165.610, 620.130 166, 621.367 166 C 623.013 166, 624.068 164.972, 625.309 162.160 C 626.241 160.047, 628.128 157.807, 629.502 157.181 C 630.876 156.555, 632 155.610, 632 155.080 C 632 153.388, 629.961 152.788, 628.456 154.036 C 627.201 155.078, 627 154.113, 627 147.060 C 627 133.705, 622.344 124.064, 615.239 122.705 C 612.136 122.112, 605.846 124.190, 602.300 126.979 C 600.887 128.090, 599.116 129, 598.365 129 C 597.614 129, 596.993 129.338, 596.984 129.750 C 596.975 130.162, 594.585 133.108, 591.673 136.296 C 585.194 143.387, 578.936 147.079, 579.039 143.750 C 579.060 143.063, 580.485 141.600, 582.205 140.500 C 586.379 137.831, 589.188 133.862, 589.380 130.362 C 589.466 128.788, 589.911 126.908, 590.368 126.185 C 592.456 122.879, 588.369 112.471, 584.387 110.957 C 581.441 109.837, 581.214 109.840, 578.228 111.039 M 814.884 114.250 C 810.941 118.564, 810.053 121.297, 812.171 122.606 C 812.947 123.085, 812.609 123.600, 811.171 124.132 C 808.659 125.062, 808.447 127.338, 810.143 135.201 C 810.771 138.115, 811.347 141.175, 811.421 142 C 811.496 142.825, 812.557 145.395, 813.780 147.712 C 815.601 151.163, 816.768 152.130, 820.251 153.069 C 825.222 154.410, 832.845 153.723, 837.222 151.539 C 841.536 149.387, 843.905 149.619, 844.921 152.291 C 846.034 155.220, 848.609 157.364, 850.254 156.733 C 851.112 156.403, 851.415 154.748, 851.173 151.707 C 850.517 143.463, 844.446 140.773, 834.487 144.316 C 832.280 145.102, 828.595 146.062, 826.298 146.450 C 822.229 147.137, 822.058 147.052, 819.561 143.097 C 818.153 140.866, 817 137.912, 817 136.534 C 817 135.156, 816.464 132.025, 815.809 129.576 C 814.768 125.684, 814.855 124.684, 816.501 121.628 C 818.256 118.370, 821.156 116.489, 822.442 117.775 C 823.767 119.100, 822.776 122.680, 820.483 124.855 C 817.508 127.677, 817.287 130.548, 819.934 131.965 C 822.858 133.530, 824.712 133.225, 826.961 130.811 C 830.798 126.693, 828.939 113.643, 824.150 111.080 C 820.705 109.236, 818.904 109.852, 814.884 114.250 M 952 115.911 C 951.175 116.348, 948.362 117.774, 945.750 119.082 C 943.138 120.389, 941 121.978, 941 122.612 C 941 123.247, 940.195 123.977, 939.210 124.235 C 938.220 124.494, 935.924 127.743, 934.069 131.511 C 930.772 138.208, 930.727 138.480, 931.315 148.122 C 931.986 159.137, 934.660 167.068, 938.923 170.689 C 944.641 175.545, 959.248 176.215, 968.410 172.041 C 970.874 170.918, 973.252 169.997, 973.695 169.994 C 974.138 169.990, 976.672 168.125, 979.328 165.849 C 982.874 162.810, 985.173 159.560, 987.988 153.606 C 992.194 144.710, 992.744 142.568, 991.653 139.339 C 990.803 136.826, 986.390 133.641, 984.972 134.517 C 983.471 135.445, 983.822 137.718, 985.569 138.388 C 987.466 139.116, 986.986 141.023, 982.732 149.669 C 980.331 154.548, 978.388 156.798, 973.439 160.432 C 966.601 165.453, 960.875 167.272, 951.818 167.301 C 945.143 167.322, 941.297 165.267, 940.470 161.237 C 940.162 159.732, 939.480 156.873, 938.955 154.884 C 936.072 143.962, 939.871 126, 945.064 126 C 945.695 126, 947.548 124.875, 949.182 123.500 C 953.115 120.191, 954.973 120.345, 958.804 124.298 C 962.925 128.549, 962.834 131.071, 958.384 135.997 C 955.346 139.360, 954.146 140, 950.884 140 C 947.667 140, 947 139.657, 947 138 C 947 135.329, 944.847 135.470, 942.174 138.314 C 938.164 142.583, 940.329 146.263, 947.543 147.444 C 953.074 148.349, 959.636 145.412, 964.329 139.929 C 967.491 136.235, 968 134.949, 968 130.664 C 968 125.032, 965.085 120.242, 959.634 116.919 C 956.295 114.883, 954.413 114.634, 952 115.911 M 1027.663 116.417 C 1024.312 117.899, 1013 128.646, 1013 130.348 C 1013 130.996, 1011.425 133.865, 1009.500 136.724 C 1007.445 139.775, 1006 143.152, 1006 144.902 C 1006 146.541, 1005.550 148.160, 1005 148.500 C 1003.053 149.703, 1004.039 153.664, 1006.990 156.490 C 1010.567 159.918, 1011.598 159.341, 1010.085 154.758 C 1008.648 150.403, 1009.937 146.586, 1015.682 138.187 C 1018.057 134.715, 1020 131.624, 1020 131.320 C 1020 131.015, 1021.801 129.019, 1024.001 126.883 C 1030.602 120.477, 1036.268 121.894, 1037.510 130.262 C 1038.924 139.790, 1036.345 153, 1033.070 153 C 1032.685 153, 1031.613 154.589, 1030.686 156.532 C 1029.270 159.502, 1029.226 160.150, 1030.411 160.604 C 1032.162 161.276, 1036.866 158.911, 1039.445 156.061 C 1041.982 153.258, 1044.870 142.029, 1044.942 134.686 C 1045.017 127.165, 1041.378 118.764, 1037.083 116.543 C 1033.581 114.732, 1031.536 114.705, 1027.663 116.417 M 128.439 118.777 C 124.378 122.390, 122.238 127.295, 119.597 139.039 C 117.707 147.443, 118.462 171.582, 120.695 174.150 C 123.196 177.027, 125.686 176.959, 129.088 173.922 L 132.292 171.061 129.416 169.968 C 127.835 169.367, 126.201 168.341, 125.786 167.687 C 123.424 163.973, 126.261 137.932, 129.826 130.603 C 131.386 127.397, 131.822 127.080, 132.897 128.376 C 135.556 131.580, 136.975 141.609, 136.411 153.217 C 135.766 166.521, 136.576 169.507, 141.376 171.512 C 144.936 173, 147.044 172.685, 154.250 169.586 C 160.838 166.753, 158.351 164.528, 150.474 166.208 C 144.048 167.578, 142.612 165.888, 143.504 158 C 144.803 146.509, 144.339 131.687, 142.565 128 C 139.565 121.768, 138.118 119.533, 135.928 117.750 C 133.067 115.421, 132.055 115.560, 128.439 118.777 M 0.079 119.583 C 0.127 120.748, 0.364 120.985, 0.683 120.188 C 0.972 119.466, 0.936 118.603, 0.604 118.271 C 0.272 117.939, 0.036 118.529, 0.079 119.583 M 874.638 119.500 C 873.955 121.280, 874.843 124, 876.107 124 C 876.598 124, 877 122.650, 877 121 C 877 117.839, 875.614 116.959, 874.638 119.500 M 578.235 122.774 C 576.520 126.064, 576.152 129.202, 576.890 134.250 C 577.185 136.265, 580.245 134.587, 582.506 131.171 C 584.658 127.919, 584.917 126.752, 584.226 123.426 C 583.125 118.126, 580.790 117.872, 578.235 122.774 M 275.257 121.193 C 272.295 122.654, 265.942 131.158, 262.694 138.012 C 260.104 143.475, 257.641 155.900, 258.634 158.487 C 259.256 160.108, 261.815 161.232, 263.090 160.444 C 263.591 160.135, 264 158.787, 264 157.449 C 264 156.112, 264.882 154.466, 265.960 153.793 C 267.713 152.698, 267.762 152.394, 266.422 150.914 C 265.169 149.529, 265.131 148.791, 266.190 146.380 C 268.244 141.703, 273.584 133.682, 276.360 131.104 L 278.939 128.709 279.826 131.104 C 280.758 133.618, 279.684 155.084, 278.534 156.945 C 277.247 159.027, 279.052 162, 281.603 162 C 283.564 162, 284.455 161.104, 285.938 157.644 C 287.664 153.618, 291 150.651, 291 153.142 C 291 153.735, 292.411 156.399, 294.137 159.061 C 297.190 163.773, 301.882 167.006, 305.651 166.994 C 312.618 166.973, 320.390 161.879, 323.576 155.244 C 325.345 151.560, 325.385 151.540, 326.087 154 C 326.480 155.375, 326.845 158.132, 326.900 160.128 C 327.029 164.824, 329.147 166.710, 332.552 165.158 C 334.446 164.295, 334.917 163.481, 334.516 161.761 C 334.225 160.518, 333.567 156.416, 333.054 152.646 C 331.360 140.200, 326.314 138.579, 319.514 148.295 C 312.056 158.952, 306.291 161.201, 300.870 155.569 C 296.252 150.771, 294.685 139.255, 297.697 132.250 C 299.779 127.406, 300.990 128.301, 301.081 134.750 C 301.221 144.792, 307.817 152.947, 310.995 147.009 C 311.861 145.391, 311.792 143.913, 310.700 140.698 C 307.142 130.226, 307.098 130, 308.587 130 C 311.692 130, 308.626 126.446, 304.662 125.451 C 303.243 125.095, 301.558 124.173, 300.919 123.402 C 300.279 122.631, 299.113 122, 298.328 122 C 293.056 122, 287.362 129.321, 290.083 132.601 C 291.581 134.405, 291.280 144.120, 289.644 146.768 C 287.838 149.688, 287.215 147.390, 287.332 138.250 C 287.487 126.128, 285.395 120.630, 280.500 120.294 C 278.850 120.180, 276.491 120.585, 275.257 121.193 M 426.806 124.068 C 421.336 126.780, 418.663 128.752, 417.556 130.891 C 415.542 134.787, 415.571 139.429, 417.624 141.481 C 419.734 143.592, 423.312 142.830, 432.735 138.266 C 437.370 136.020, 440.873 134.934, 442.485 135.242 C 443.868 135.506, 445 135.335, 445 134.861 C 445 134.388, 444.563 134, 444.028 134 C 443.493 134, 443.208 131.977, 443.393 129.500 C 443.579 127.025, 443.388 125, 442.970 125 C 442.552 125, 441.150 123.883, 439.855 122.517 C 438.560 121.152, 436.825 120.084, 436 120.144 C 435.175 120.204, 431.038 121.970, 426.806 124.068 M 686.708 125.526 C 685.193 127.607, 685.021 129.152, 685.596 135.494 C 685.970 139.622, 686.578 143, 686.947 143 C 687.316 143, 688.466 142.379, 689.504 141.621 C 690.946 140.566, 691.489 138.626, 691.810 133.371 C 692.041 129.592, 692.624 126.009, 693.106 125.408 C 693.588 124.807, 693.687 124.020, 693.325 123.658 C 691.882 122.215, 688.402 123.198, 686.708 125.526 M 773.250 123.723 C 770.608 124.051, 770 124.571, 770 126.504 C 770 127.812, 770.487 129.183, 771.083 129.551 C 771.678 129.919, 773.003 132.174, 774.026 134.561 C 775.395 137.756, 776.958 139.448, 779.943 140.971 C 783.828 142.953, 785.635 144.841, 782.493 143.636 C 781.245 143.157, 781.095 143.745, 781.624 147.053 L 782.263 151.048 776.382 150.441 C 768.453 149.621, 767.364 149.236, 768.833 147.767 C 770.847 145.753, 770.127 145, 766.191 145 C 758.045 145, 756.478 150.603, 763.500 154.622 C 769.096 157.825, 776.916 160, 782.831 160 C 787.120 160, 788.171 159.598, 790.018 157.250 C 792.695 153.847, 792.206 149.421, 788.540 143.881 C 787.143 141.770, 786 139.374, 786 138.556 C 786 137.739, 784.650 135.532, 783 133.653 C 781.350 131.774, 780 130.014, 780 129.743 C 780 129.472, 786.075 129.413, 793.500 129.612 C 800.925 129.810, 807 129.743, 807 129.462 C 807 128.602, 801.752 126.753, 797 125.938 C 794.525 125.514, 790.700 124.690, 788.500 124.107 C 784.551 123.061, 779.591 122.936, 773.250 123.723 M 1131.456 126.679 C 1131.116 128.231, 1130.416 130.625, 1129.901 132 C 1129.386 133.375, 1128.759 137.616, 1128.508 141.425 C 1128.257 145.234, 1127.546 148.662, 1126.928 149.044 C 1126.310 149.426, 1125.839 150.810, 1125.880 152.119 C 1126.146 160.536, 1127.087 162.094, 1130.728 160.146 C 1135.440 157.624, 1137.701 125.734, 1133.273 124.258 C 1132.608 124.036, 1131.799 125.114, 1131.456 126.679 M 0.079 127.583 C 0.127 128.748, 0.364 128.985, 0.683 128.188 C 0.972 127.466, 0.936 126.603, 0.604 126.271 C 0.272 125.939, 0.036 126.529, 0.079 127.583 M 449.750 132.116 C 448.723 132.693, 448 134.276, 448 135.949 C 448 138.259, 448.757 139.193, 452 140.883 L 456 142.968 456 139.158 C 456 134.445, 452.541 130.548, 449.750 132.116 M 0.232 135 C 0.232 136.925, 0.438 137.713, 0.689 136.750 C 0.941 135.787, 0.941 134.213, 0.689 133.250 C 0.438 132.287, 0.232 133.075, 0.232 135 M 1177 136.704 C 1176.175 137.004, 1174.263 138.403, 1172.750 139.812 C 1169.376 142.956, 1169.145 147.234, 1172.012 153.526 C 1174.444 158.864, 1177.734 161.085, 1179.544 158.609 C 1181.434 156.024, 1182.219 145.755, 1180.920 140.597 C 1179.737 135.899, 1179.596 135.759, 1177 136.704 M 1082.480 142.045 C 1080.514 146.404, 1081.139 149.189, 1084.219 149.797 C 1085.650 150.079, 1086.021 148.936, 1087.220 140.538 C 1087.771 136.679, 1084.419 137.745, 1082.480 142.045 M 1237.737 146.684 C 1236.264 148.985, 1234.192 151.685, 1233.132 152.684 C 1232.073 153.683, 1230.636 156.421, 1229.939 158.770 C 1229.043 161.787, 1227.693 163.645, 1225.336 165.102 C 1220.747 167.938, 1220.802 171, 1225.443 171 C 1229.231 171, 1232 168.213, 1232 164.400 C 1232 163.215, 1232.675 161.685, 1233.500 161 C 1234.325 160.315, 1235 158.971, 1235 158.012 C 1235 157.054, 1235.951 155.060, 1237.114 153.582 C 1238.277 152.104, 1238.951 150.617, 1238.612 150.278 C 1238.273 149.940, 1238.711 148.872, 1239.585 147.906 C 1240.460 146.939, 1241.005 145.328, 1240.796 144.324 C 1240.502 142.910, 1239.815 143.439, 1237.737 146.684 M 0.158 146 C 0.158 147.375, 0.385 147.938, 0.662 147.250 C 0.940 146.563, 0.940 145.438, 0.662 144.750 C 0.385 144.063, 0.158 144.625, 0.158 146 M 155.907 148.651 L 153.650 152.302 156.381 154.651 C 157.883 155.943, 160.247 157, 161.635 157 C 163.881 157, 164.091 157.309, 163.542 159.811 C 162.824 163.076, 164.627 165.088, 169.835 166.836 C 172.454 167.715, 173.905 167.649, 176.585 166.529 C 179.710 165.223, 180 164.742, 180 160.863 C 180 152.871, 171.417 145, 162.702 145 C 158.558 145, 157.967 145.317, 155.907 148.651 M 166.036 157.393 C 168.005 159.266, 172 160.411, 172 159.103 C 172 157.808, 168.709 156, 166.351 156 C 164.796 156, 164.756 156.176, 166.036 157.393 M 314.562 168.581 C 312.576 170.567, 313.398 172, 316.524 172 C 318.872 172, 321.558 168.891, 320.298 167.631 C 319.149 166.482, 316.167 166.976, 314.562 168.581 M 980.813 171.683 C 981.534 171.972, 982.397 171.936, 982.729 171.604 C 983.061 171.272, 982.471 171.036, 981.417 171.079 C 980.252 171.127, 980.015 171.364, 980.813 171.683 M 0.286 189.500 C 0.294 192.250, 0.488 193.256, 0.718 191.736 C 0.947 190.216, 0.941 187.966, 0.704 186.736 C 0.467 185.506, 0.279 186.750, 0.286 189.500 M 0.079 197.583 C 0.127 198.748, 0.364 198.985, 0.683 198.188 C 0.972 197.466, 0.936 196.603, 0.604 196.271 C 0.272 195.939, 0.036 196.529, 0.079 197.583 M 0.232 208 C 0.232 209.925, 0.438 210.713, 0.689 209.750 C 0.941 208.787, 0.941 207.213, 0.689 206.250 C 0.438 205.287, 0.232 206.075, 0.232 208 M 0.252 219.500 C 0.263 221.700, 0.468 222.482, 0.707 221.238 C 0.946 219.994, 0.937 218.194, 0.687 217.238 C 0.437 216.282, 0.241 217.300, 0.252 219.500 M 68.750 222.689 C 66.372 223.311, 66.535 225.645, 69 226.290 C 70.659 226.724, 70.994 227.639, 70.967 231.656 C 70.949 234.320, 70.064 238.975, 69 242 C 67.936 245.025, 67.051 248.535, 67.033 249.800 C 67.015 251.064, 66.302 253.449, 65.448 255.100 C 63.595 258.683, 64.381 262, 67.084 262 C 69.085 262, 69.758 260.807, 73.856 250 C 76.322 243.496, 78.424 230.824, 77.588 227.496 C 77.264 226.203, 75.580 224.438, 73.846 223.573 C 72.112 222.708, 70.649 222.052, 70.596 222.116 C 70.543 222.180, 69.713 222.438, 68.750 222.689 M 0.395 239.500 C 0.396 247.200, 0.553 250.218, 0.743 246.206 C 0.934 242.195, 0.932 235.895, 0.741 232.206 C 0.549 228.518, 0.393 231.800, 0.395 239.500 M 750.626 235.531 C 750.303 236.374, 749.528 241.211, 748.904 246.281 C 748.279 251.352, 746.879 258.650, 745.792 262.500 C 744.705 266.350, 743.439 271.300, 742.979 273.500 C 741.907 278.626, 740.977 281, 740.042 281 C 738.926 281, 732.796 278.978, 730.349 277.801 C 729.165 277.233, 727.594 276.969, 726.858 277.214 C 726.121 277.460, 724.915 277.058, 724.178 276.321 C 722.392 274.535, 721 275.543, 721 278.622 C 721 281.408, 725.603 291.426, 727.672 293.143 C 729.526 294.682, 729.462 290.794, 727.573 287.141 C 726.680 285.414, 726.475 283.849, 727.026 282.958 C 727.744 281.796, 728.418 282.013, 730.703 284.145 C 732.241 285.581, 734.513 287.276, 735.750 287.913 C 738.421 289.287, 738.510 291.538, 736.175 298.674 C 734.722 303.113, 734.233 303.710, 732.733 302.870 C 729.782 301.219, 729 302.820, 729 310.519 C 729 319.178, 726.385 328.713, 723.501 330.567 C 722.400 331.275, 720.270 331.610, 718.766 331.313 C 716.656 330.896, 715.800 329.942, 715.021 327.136 C 713.727 322.477, 713.717 317.293, 715 316.500 C 715.550 316.160, 716 315.009, 716 313.941 C 716 312.571, 715.310 312, 713.655 312 C 710.947 312, 708 314.841, 708 317.451 C 708 318.925, 707.735 319.025, 706.513 318.011 C 704.202 316.093, 702 317.554, 702 321.004 C 702 322.690, 701.326 325.098, 700.503 326.355 C 699.662 327.639, 698.896 331.455, 698.753 335.070 C 698.509 341.278, 698.584 341.500, 700.924 341.500 C 703.008 341.500, 703.517 340.797, 704.542 336.500 C 705.198 333.750, 706.171 330.408, 706.704 329.074 C 707.618 326.789, 707.740 326.909, 708.805 331.140 C 710.243 336.850, 712.763 339.106, 718.415 339.743 C 721.842 340.130, 723.760 339.749, 726.484 338.142 L 730.057 336.034 730.671 339.103 C 731.358 342.538, 733.459 343.828, 735.886 342.305 C 737.100 341.543, 737.658 338.963, 738.137 331.896 C 738.743 322.950, 742.954 300.898, 744.920 296.374 C 745.619 294.765, 746.472 294.368, 748.422 294.740 C 751.448 295.319, 751.826 293.624, 749.433 290.207 C 747.541 287.507, 747.327 283.651, 748.809 278.974 C 753.342 264.670, 755.140 256.872, 755.529 249.832 C 756.120 239.131, 755.294 234, 752.979 234 C 752.008 234, 750.950 234.689, 750.626 235.531 M 51.571 236.571 C 50.707 237.436, 50 238.716, 50 239.416 C 50 240.117, 49.100 241.505, 48 242.500 C 44.486 245.680, 46.318 251.966, 50.312 250.434 C 52.017 249.779, 53.535 244.674, 52.515 243.024 C 52.145 242.425, 52.962 242, 54.483 242 C 55.913 242, 58.011 241.136, 59.145 240.079 L 61.207 238.158 58.153 236.579 C 54.345 234.610, 53.534 234.609, 51.571 236.571 M 118.851 246.750 C 116.616 249.186, 111.035 259.846, 110.606 262.500 C 110.517 263.050, 110.167 263.950, 109.830 264.500 C 107.939 267.578, 104.857 280.499, 104.465 286.987 C 104.216 291.119, 103.280 296.300, 102.386 298.500 C 101.492 300.700, 100.396 303.400, 99.950 304.500 C 99.505 305.600, 97.808 309.425, 96.180 313 C 94.551 316.575, 92.893 320.625, 92.494 322 C 92.094 323.375, 90.695 325.932, 89.384 327.683 C 86.372 331.705, 86.375 333, 89.396 333 C 91.895 333, 96.158 327.424, 99.335 320 C 104.969 306.837, 105.117 306.668, 106.849 311.458 C 108.490 315.996, 112.258 318.267, 118.149 318.267 C 126.284 318.267, 132.105 312.333, 139.582 296.422 C 144.411 286.144, 150.642 264.116, 149.535 261.232 C 149.222 260.415, 149.478 259.129, 150.105 258.373 C 150.925 257.386, 150.941 256.634, 150.164 255.698 C 149.570 254.982, 149.329 253.458, 149.629 252.311 C 150.280 249.822, 148.737 248.631, 145.991 249.503 C 144.333 250.029, 144 251.021, 144 255.431 C 144 261.345, 142.771 268.762, 140.426 277 C 139.565 280.025, 138.358 284.300, 137.744 286.500 C 137.130 288.700, 135.907 291.625, 135.028 293 C 134.148 294.375, 132.777 296.850, 131.982 298.500 C 130.419 301.742, 123.610 310.053, 121.567 311.212 C 120.877 311.604, 118.707 311.482, 116.746 310.940 C 114.060 310.199, 112.911 309.184, 112.090 306.829 C 110.567 302.458, 110.732 295.011, 112.462 290.108 C 113.266 287.829, 113.668 285.298, 113.355 284.482 C 113.042 283.667, 113.284 283, 113.893 283 C 114.502 283, 115 282.127, 115 281.059 C 115 279.991, 115.395 278.874, 115.877 278.576 C 116.359 278.278, 117.285 275.889, 117.933 273.267 C 118.582 270.645, 119.944 266.700, 120.961 264.500 C 121.977 262.300, 123.792 257.655, 124.995 254.179 C 127.079 248.152, 127.100 247.767, 125.435 245.929 C 123.091 243.338, 121.838 243.495, 118.851 246.750 M 501.500 253.019 C 498.200 254.665, 494.825 256.427, 494 256.935 C 493.175 257.443, 490.475 258.732, 488 259.801 C 479.712 263.378, 469.511 268.237, 468.353 269.160 C 467.515 269.828, 467.784 271.137, 469.353 274.029 C 471.172 277.379, 471.997 277.985, 474.750 277.992 C 477.495 277.999, 478 277.636, 478 275.655 C 478 272.904, 480.853 270, 483.555 270 C 486.236 270, 502.914 259.716, 506.898 255.605 C 508.728 253.717, 509.923 251.684, 509.553 251.086 C 508.615 249.567, 508.242 249.657, 501.500 253.019 M 1061.242 256.250 C 1059.366 258.587, 1056 266.368, 1056 268.367 C 1056 269.462, 1055.589 271.740, 1055.087 273.429 C 1053.694 278.113, 1051.997 285.157, 1051.456 288.500 C 1051.189 290.150, 1050.548 293.075, 1050.030 295 C 1048.675 300.042, 1046 317.559, 1046 321.391 C 1046 323.576, 1045.175 325.426, 1043.500 327 C 1042.125 328.292, 1041 329.861, 1041 330.487 C 1041 331.113, 1039.650 332.919, 1038 334.500 C 1036.350 336.081, 1035 337.870, 1035 338.476 C 1035 339.082, 1032.515 341.083, 1029.478 342.924 C 1024.030 346.226, 1023.928 346.246, 1021.833 344.385 C 1018.112 341.082, 1015.764 334.514, 1016.871 330.506 C 1019.082 322.498, 1024.086 317.066, 1034.931 310.903 C 1039.791 308.142, 1041.248 305.416, 1038.440 304.339 C 1036.137 303.455, 1023.879 309.745, 1023.256 312.131 C 1022.990 313.146, 1022.356 313.720, 1021.848 313.406 C 1020.487 312.565, 1013.456 320.427, 1010.961 325.580 C 1008.520 330.623, 1008.662 335.444, 1011.477 343.159 C 1013.704 349.262, 1016.611 351.848, 1022.086 352.598 C 1026.184 353.160, 1026.932 352.903, 1031.029 349.531 C 1035.554 345.806, 1040.812 337.959, 1040.934 334.750 C 1040.970 333.788, 1041.610 333, 1042.355 333 C 1043.305 333, 1043.881 335.020, 1044.283 339.750 C 1045.005 348.265, 1045.571 349.675, 1048.564 350.427 C 1052.196 351.338, 1057.029 348.834, 1061.500 343.724 C 1068.401 335.838, 1074.463 327.981, 1075.213 325.952 C 1075.611 324.879, 1076.400 324, 1076.968 324 C 1078.502 324, 1078.218 328.415, 1076.390 332.984 C 1074.527 337.638, 1075.128 342.901, 1077.797 345.316 C 1078.764 346.191, 1081.295 347.025, 1083.422 347.168 C 1086.903 347.402, 1087.718 346.955, 1091.580 342.688 C 1095.284 338.597, 1096.001 338.180, 1096.818 339.640 C 1097.339 340.571, 1097.438 342.495, 1097.039 343.916 C 1095.761 348.462, 1097.361 357.691, 1099.894 360.388 C 1105.341 366.185, 1112.523 364.181, 1118.712 355.137 C 1121.032 351.748, 1123.408 347.199, 1123.992 345.029 C 1124.576 342.860, 1125.441 340.845, 1125.914 340.553 C 1126.387 340.261, 1127.080 338.330, 1127.455 336.261 C 1127.830 334.192, 1128.380 331.488, 1128.677 330.250 C 1129.036 328.755, 1128.761 328.001, 1127.858 328.004 C 1126.575 328.007, 1123 335.149, 1123 337.709 C 1123 338.362, 1121.875 340.111, 1120.500 341.595 C 1119.125 343.078, 1118 344.712, 1118 345.224 C 1118 346.936, 1109.864 354, 1107.894 354 C 1104.978 354, 1104.187 350.407, 1105.156 341.570 C 1106.107 332.910, 1106.447 332.047, 1108.217 333.817 C 1108.868 334.467, 1110.948 335, 1112.841 335 C 1119.056 335, 1129.976 324.973, 1132.885 316.595 C 1134.172 312.889, 1134.121 312.594, 1131.871 310.797 C 1129.838 309.174, 1128.432 308.991, 1122 309.511 C 1117.875 309.844, 1114.348 310.546, 1114.163 311.071 C 1113.977 311.595, 1111.903 313.347, 1109.553 314.964 C 1106.523 317.048, 1104.361 319.752, 1102.120 324.259 C 1098.071 332.401, 1090.817 339.616, 1085.750 340.539 C 1082.248 341.177, 1082 341.060, 1082 338.763 C 1082 336.142, 1088.647 317.147, 1090.122 315.550 C 1090.605 315.028, 1091 312.674, 1091 310.319 C 1091 306.582, 1090.681 305.958, 1088.490 305.408 C 1085.374 304.626, 1077.890 309.696, 1080.122 311.076 C 1081.155 311.714, 1080.918 312.458, 1079.049 314.447 C 1077.731 315.851, 1076.065 317, 1075.349 317 C 1074.632 317, 1073.252 318.238, 1072.281 319.750 C 1069.241 324.485, 1068.683 325.123, 1061 332.644 L 1053.500 339.986 1053.208 331.256 C 1053.047 326.455, 1053.350 321.621, 1053.881 320.513 C 1054.412 319.406, 1055.121 314.729, 1055.457 310.120 C 1055.793 305.512, 1056.503 300.929, 1057.034 299.936 C 1057.565 298.944, 1058 295.927, 1058 293.232 C 1058 287.483, 1058.700 286.419, 1061.070 288.563 C 1063.279 290.562, 1063.908 289.575, 1065.132 282.194 C 1066.828 271.968, 1067.299 259.428, 1066.074 257.138 C 1064.792 254.743, 1062.752 254.368, 1061.242 256.250 M 0.360 265 C 0.360 270.225, 0.529 272.363, 0.735 269.750 C 0.941 267.137, 0.941 262.863, 0.735 260.250 C 0.529 257.637, 0.360 259.775, 0.360 265 M 1137.117 274.458 C 1129.242 284.342, 1128.368 288, 1133.883 288 C 1136.258 288, 1137.485 287.078, 1140.205 283.250 C 1145.400 275.940, 1146.587 273.154, 1145.347 271.185 C 1143.429 268.139, 1141.559 268.883, 1137.117 274.458 M 341.750 271.080 C 339.482 272.401, 339.542 274.183, 342.020 279.040 C 345.962 286.766, 350.796 282.159, 347.275 274.032 C 345.450 269.820, 344.649 269.392, 341.750 271.080 M 609.715 274.428 C 608.846 275.297, 607.880 278.567, 607.553 281.749 C 607.228 284.912, 606.574 288.699, 606.100 290.165 C 605.626 291.631, 605.554 294.558, 605.940 296.670 C 606.326 298.781, 606.284 301.846, 605.847 303.480 C 605.039 306.500, 606.055 308.702, 607.768 307.644 C 609.631 306.492, 612.801 295.342, 613.495 287.500 C 614.423 277.009, 614.357 275.929, 612.693 274.264 C 611.483 273.055, 611.065 273.078, 609.715 274.428 M 392.500 275 C 392.840 275.550, 393.316 276, 393.559 276 C 393.802 276, 394 275.550, 394 275 C 394 274.450, 393.523 274, 392.941 274 C 392.359 274, 392.160 274.450, 392.500 275 M 1060.676 276.074 C 1060.319 277.408, 1060.039 279.850, 1060.053 281.500 L 1060.078 284.500 1061.499 281.230 C 1062.384 279.195, 1062.619 277.145, 1062.123 275.803 C 1061.333 273.669, 1061.319 273.672, 1060.676 276.074 M 0.369 437.500 C 0.374 527.150, 0.499 598.025, 0.646 595 C 2.184 563.407, 3.681 421.911, 2.497 419.995 C 2.241 419.581, 1.965 398.601, 1.883 373.371 C 1.800 348.142, 1.424 315.575, 1.047 301 C 0.669 286.425, 0.364 347.850, 0.369 437.500 M 713.119 287.443 C 712.503 289.886, 712 293.287, 712 295 C 712 296.713, 711.499 300.105, 710.886 302.539 C 710.273 304.972, 710.054 307.697, 710.398 308.594 C 711.393 311.187, 713.732 308.543, 714.509 303.948 C 714.875 301.782, 715.585 299.757, 716.087 299.446 C 716.589 299.136, 717 297.761, 717 296.391 C 717 295.021, 717.704 292.539, 718.565 290.874 C 719.988 288.123, 719.986 287.627, 718.542 285.424 C 716.159 281.787, 714.376 282.451, 713.119 287.443 M 158.362 289.772 C 157.073 290.814, 155.620 293.946, 154.702 297.659 C 153.865 301.046, 152.410 305.441, 151.468 307.425 C 149.650 311.257, 149.869 314.358, 152.384 320.378 C 153.505 323.059, 154.696 324.098, 157.554 324.887 C 163.145 326.431, 165.491 324.928, 177.347 312.202 C 180.013 309.341, 182.788 307, 183.514 307 C 184.522 307, 184.833 309.464, 184.833 317.461 C 184.833 323.214, 185.122 328.389, 185.476 328.961 C 186.713 330.962, 190.833 330.027, 193.018 327.250 C 194.837 324.938, 198 318.670, 198 317.378 C 198 316.191, 195.553 317.321, 193.944 319.250 C 192.083 321.481, 192.066 321.414, 192.033 311.424 C 192.003 302.208, 191.803 301.163, 189.686 299.174 C 185.054 294.823, 180.616 297.143, 173.718 307.521 C 172.248 309.733, 169.677 312.351, 168.004 313.339 L 164.962 315.136 166.370 311.318 C 169.924 301.676, 170.725 297.588, 169.756 294.034 C 169.226 292.090, 168.334 289.938, 167.774 289.250 C 166.307 287.450, 160.861 287.752, 158.362 289.772 M 325.543 291.931 C 325.226 292.443, 325.425 293.144, 325.984 293.490 C 326.543 293.835, 327 293.416, 327 292.559 C 327 290.802, 326.400 290.544, 325.543 291.931 M 1059 292 C 1059 292.550, 1059.423 293, 1059.941 293 C 1060.459 293, 1061.160 292.550, 1061.500 292 C 1061.840 291.450, 1061.416 291, 1060.559 291 C 1059.702 291, 1059 291.450, 1059 292 M 449.414 293.772 C 448.267 294.723, 446.058 297.750, 444.505 300.500 C 442.952 303.250, 440.897 306.518, 439.937 307.762 C 438.978 309.006, 438.423 310.903, 438.705 311.978 C 438.986 313.053, 438.676 316.180, 438.017 318.927 C 436.378 325.763, 437.911 330.198, 443.249 334.066 C 454.474 342.196, 470.001 330.809, 468.224 315.750 C 467.662 310.992, 465.316 310.797, 464.446 315.436 C 462.936 323.486, 453.798 329.687, 447.604 326.865 C 445.387 325.855, 445 325.040, 445 321.387 C 445 316.330, 446.365 312.878, 450.391 307.750 C 453.683 303.556, 455 303.049, 455 305.974 C 455 307.157, 453.796 308.571, 452 309.500 C 449.731 310.674, 449 311.746, 449 313.903 C 449 320.109, 453.499 320.057, 458.129 313.798 C 463.744 306.205, 464.694 298.603, 460.545 294.455 C 457.615 291.524, 452.506 291.211, 449.414 293.772 M 159.226 298.732 C 157.425 300.724, 156.127 302.837, 156.341 303.427 C 156.555 304.017, 156.347 305.247, 155.878 306.160 C 155.002 307.866, 157.342 315.019, 158.763 314.980 C 160.367 314.935, 164.174 304.639, 163.711 301.596 C 163.452 299.893, 163.651 297.712, 164.155 296.750 C 165.784 293.636, 162.718 294.868, 159.226 298.732 M 1059.079 296.583 C 1059.127 297.748, 1059.364 297.985, 1059.683 297.188 C 1059.972 296.466, 1059.936 295.603, 1059.604 295.271 C 1059.272 294.939, 1059.036 295.529, 1059.079 296.583 M 950 301.971 C 943.767 307.157, 939.881 311.425, 938.135 315 C 937.195 316.925, 935.768 318.402, 934.963 318.283 C 929.687 317.500, 923.778 315.052, 921.667 312.775 C 917.192 307.946, 909.294 305.797, 903.759 307.902 C 900.431 309.167, 895.978 315.355, 895.601 319.237 C 895.427 321.032, 894.301 326.100, 893.098 330.500 C 890.711 339.231, 887.999 363.343, 887.831 377.327 C 887.747 384.310, 888.070 386.499, 889.381 387.810 C 890.656 389.085, 891.436 389.215, 892.769 388.374 C 894.120 387.522, 894.546 385.660, 894.708 379.891 C 895.018 368.882, 896.030 351.950, 896.600 348.218 L 897.102 344.937 899.859 346.900 C 901.375 347.979, 904.470 349.604, 906.737 350.512 C 910.601 352.057, 911.091 352.051, 914.567 350.401 C 919.257 348.175, 925.635 338.618, 926.564 332.422 C 926.929 329.990, 926.923 325.975, 926.552 323.500 C 925.761 318.222, 927.252 317.510, 930.920 321.415 C 932.485 323.080, 932.984 324.477, 932.528 325.913 C 932.164 327.059, 931.827 329.363, 931.780 331.034 C 931.732 332.704, 931.313 334.307, 930.847 334.595 C 929.854 335.208, 929.753 341.870, 930.653 347.320 C 931.453 352.163, 934.646 354.376, 940.695 354.280 C 946.364 354.191, 951.431 350.727, 958.838 341.877 C 961.774 338.370, 966.499 332.954, 969.338 329.843 C 977.562 320.831, 978.419 319.668, 981.381 313.514 C 983.244 309.643, 981.925 307, 978.132 307 C 975.008 307, 970.862 311.430, 967.117 318.770 C 965.096 322.731, 962.062 324.888, 963.394 321.416 C 964.451 318.662, 965.143 306.544, 964.304 305.484 C 962.326 302.984, 956.693 299.003, 955.173 299.029 C 954.253 299.045, 951.925 300.369, 950 301.971 M 627.544 304.344 C 626.224 305.309, 625.884 306.402, 626.339 308.214 C 626.853 310.262, 627.780 310.869, 631.236 311.420 C 634.045 311.868, 636.609 313.174, 638.750 315.246 C 642.805 319.172, 642.990 321.506, 639.250 321.558 C 628.267 321.711, 626.220 322.078, 623.547 324.375 C 621.532 326.106, 620.646 327.961, 620.279 331.215 C 619.815 335.337, 620.073 335.991, 623.638 339.721 C 626.846 343.078, 628.383 343.882, 632.715 344.470 C 644.391 346.055, 651.469 339.258, 651.402 326.526 C 651.362 318.729, 644.953 308.339, 638.768 306.045 C 636.971 305.379, 634.719 304.421, 633.764 303.917 C 631.369 302.653, 629.700 302.768, 627.544 304.344 M 673.581 312.252 C 671.425 314.500, 668.681 318.175, 667.483 320.419 C 666.285 322.664, 663.886 327.151, 662.152 330.391 C 658.513 337.192, 657.917 344.418, 660.653 348.593 C 663.401 352.787, 669.332 355.222, 674.812 354.405 C 680.053 353.624, 685.727 349.847, 687.106 346.222 C 688.565 342.383, 687.252 341.922, 682.320 344.545 C 677.216 347.259, 671.376 347.726, 668.535 345.649 C 667.014 344.537, 666.799 343.482, 667.321 339.678 C 668.490 331.146, 676.178 317, 679.645 317 C 681.554 317, 683.256 313.157, 682.566 310.407 C 681.656 306.780, 678.137 307.503, 673.581 312.252 M 948.384 311.282 C 944.378 315.419, 940 323.047, 940 325.889 C 940 327.478, 940.999 328.520, 943.546 329.584 C 949.488 332.067, 952.883 329.491, 955.780 320.300 C 956.551 317.853, 956.404 316.031, 955.152 312.550 C 954.252 310.048, 953.062 308.014, 952.508 308.032 C 951.954 308.049, 950.098 309.512, 948.384 311.282 M 561.487 311.250 C 561.239 311.938, 560.131 316.325, 559.025 321 C 556.829 330.282, 556.438 336, 558 336 C 558.550 336, 559 336.625, 559 337.389 C 559 338.153, 558.213 338.715, 557.250 338.639 C 554.947 338.456, 554.407 342.264, 556.447 344.304 C 557.301 345.158, 557.966 347.352, 557.924 349.179 C 557.830 353.293, 555.843 358.972, 554.500 358.964 C 553.950 358.961, 553.209 361.781, 552.854 365.229 C 552.499 368.678, 551.883 374.213, 551.485 377.529 C 550.722 383.897, 552.025 386.695, 555.189 385.481 C 556.794 384.865, 560.013 376.722, 560.005 373.297 C 560.002 372.085, 560.449 370.060, 560.998 368.797 C 561.547 367.534, 562.560 361.847, 563.248 356.160 L 564.500 345.820 569.100 345.531 C 571.630 345.372, 574.780 344.567, 576.100 343.742 C 577.420 342.917, 580.727 342.181, 583.449 342.105 C 593.261 341.835, 595.510 337.132, 589.887 328.643 C 583.362 318.792, 563.216 306.454, 561.487 311.250 M 274.800 315.470 C 268.882 320.342, 266.398 323.990, 267.336 326.433 C 268.187 328.650, 271.351 328.376, 273.595 325.890 C 274.643 324.729, 277.213 322.421, 279.306 320.761 L 283.112 317.743 287.941 320.372 C 290.597 321.817, 293.752 323, 294.951 323 C 296.150 323, 297.972 323.450, 299 324 C 300.256 324.672, 301.768 324.659, 303.608 323.959 C 306.832 322.733, 311.268 318.242, 310.493 316.988 C 310.196 316.508, 307.700 316.166, 304.948 316.228 C 302.195 316.291, 299.415 315.815, 298.771 315.171 C 298.127 314.527, 296.391 314, 294.914 314 C 293.437 314, 290.940 313.328, 289.364 312.506 C 284.285 309.857, 280.742 310.579, 274.800 315.470 M 340.250 313.633 C 336.682 315.140, 335.968 317.898, 338.584 320.070 C 340.646 321.781, 343.063 320.310, 344.303 316.591 C 345.529 312.914, 344.217 311.957, 340.250 313.633 M 903.359 315.250 C 899.955 319.099, 898 322.826, 898 325.465 C 898 328.895, 899.483 328.663, 901.002 324.995 C 902.415 321.583, 908.332 316, 910.535 316 C 912.487 316, 912.408 314.370, 910.418 313.607 C 907.500 312.487, 905.362 312.984, 903.359 315.250 M 599.975 316.047 C 599.118 317.647, 599.108 318.508, 599.935 319.335 C 601.459 320.859, 604.500 318.907, 604.500 316.405 C 604.500 313.719, 601.354 313.471, 599.975 316.047 M 1231.452 317.646 C 1230.104 319.101, 1229 320.680, 1229 321.155 C 1229 321.630, 1227.650 323.431, 1226 325.157 C 1224.350 326.884, 1222.986 329.242, 1222.969 330.398 C 1222.934 332.728, 1219.836 335.351, 1216 336.299 C 1213.501 336.917, 1213.500 336.914, 1213.839 330.380 C 1214.025 326.785, 1213.906 322.761, 1213.574 321.437 C 1212.625 317.660, 1208.867 317.337, 1202.796 320.512 C 1197.262 323.405, 1190.048 328.947, 1190.018 330.327 C 1190.008 330.782, 1188.718 332.436, 1187.151 334.003 C 1184.516 336.638, 1183.030 340.487, 1181.459 348.751 C 1180.994 351.198, 1181.234 352.153, 1182.433 352.613 C 1184.482 353.399, 1187 351.309, 1187 348.823 C 1187 345.961, 1190.944 337.801, 1193.458 335.461 C 1196.221 332.888, 1205.069 327, 1206.171 327 C 1206.627 327, 1207 331.670, 1207 337.378 C 1207 345.626, 1207.325 348.025, 1208.584 349.070 C 1210.718 350.841, 1213.401 349.122, 1213.809 345.722 C 1214.161 342.797, 1216.396 340.509, 1217.960 341.475 C 1218.536 341.831, 1218.748 343.156, 1218.431 344.419 C 1217.563 347.876, 1220.413 353.645, 1223.872 355.434 C 1229.304 358.243, 1236.967 357.222, 1242.717 352.922 C 1243.936 352.011, 1249.460 349.752, 1254.992 347.904 C 1265.975 344.234, 1267.367 344.374, 1269.833 349.401 C 1270.566 350.895, 1271.368 353.750, 1271.615 355.746 C 1272.142 359.990, 1273.551 362, 1276 362 C 1279.415 362, 1280.149 359.692, 1279.007 352.545 C 1277.770 344.802, 1277.067 343.481, 1272.174 339.700 C 1267.995 336.472, 1265.151 336.601, 1254.378 340.508 C 1250.933 341.758, 1247.928 342.594, 1247.700 342.367 C 1247.036 341.703, 1248.154 337.023, 1249.119 336.426 C 1249.604 336.127, 1250 333.186, 1250 329.891 C 1250 319.949, 1246.088 315, 1238.230 315 C 1234.837 315, 1233.376 315.570, 1231.452 317.646 M 1119.849 317.327 C 1112.546 319.673, 1109.051 324.138, 1112.365 326.888 C 1113.388 327.737, 1114.347 327.701, 1116.190 326.745 C 1120.609 324.453, 1127.162 315.778, 1124.250 316.077 C 1123.838 316.119, 1121.857 316.682, 1119.849 317.327 M 910.635 320.783 C 906.219 323.887, 904.038 328.942, 904.015 336.129 C 904.001 340.366, 904.262 340.866, 907.094 342.039 C 911.952 344.051, 914.978 342.400, 918.189 335.986 C 921.150 330.071, 921.207 324.811, 918.359 320.250 C 916.561 317.371, 915.373 317.453, 910.635 320.783 M 566.607 321.582 C 566.273 322.452, 566 325.538, 566 328.439 L 566 333.715 571.786 334.320 C 578.354 335.006, 582 334.355, 582 332.496 C 582 331.406, 568.911 320, 567.660 320 C 567.415 320, 566.941 320.712, 566.607 321.582 M 761.250 324.989 C 755.426 328.540, 757.743 333.919, 764.750 333.115 C 765.987 332.973, 767.015 333.227, 767.033 333.678 C 767.052 334.130, 767.963 335.577, 769.060 336.893 C 773.263 341.941, 783 339.680, 783 333.655 C 783 331.158, 780.217 328, 778.016 328 C 777.286 328, 775.214 326.875, 773.411 325.500 C 769.463 322.488, 765.616 322.327, 761.250 324.989 M 1236 324.306 C 1233.419 325.187, 1231.872 326.689, 1230.106 330.031 L 1227.712 334.562 1229.805 339.293 C 1230.956 341.895, 1232.597 344.292, 1233.451 344.620 C 1235.828 345.532, 1240.012 344.146, 1240.698 342.220 C 1241.035 341.274, 1241.777 339.900, 1242.347 339.167 C 1244.276 336.685, 1244.667 328.115, 1242.995 324.990 C 1241.782 322.724, 1240.894 322.637, 1236 324.306 M 598.557 325.250 C 598.348 325.938, 597.351 329.398, 596.342 332.941 C 595.333 336.483, 593.631 340.198, 592.559 341.196 C 591.024 342.626, 590.870 343.270, 591.833 344.233 C 592.704 345.104, 593.528 345.157, 594.699 344.418 C 597.155 342.869, 602.073 332.875, 602.707 328.146 C 603.211 324.391, 603.059 324, 601.100 324 C 599.911 324, 598.766 324.563, 598.557 325.250 M 632.607 327.846 C 631.016 328.205, 629.216 329.293, 628.607 330.262 C 627.694 331.714, 628.027 332.454, 630.500 334.476 C 636.062 339.023, 643.055 337.033, 643.345 330.820 C 643.495 327.611, 643.366 327.495, 639.500 327.346 C 637.300 327.261, 634.198 327.486, 632.607 327.846 M 936.621 339.568 C 936.261 342.631, 936.226 345.556, 936.542 346.068 C 938.653 349.484, 949.125 343.524, 953.113 336.637 C 954.152 334.843, 954.085 334.837, 951.302 336.481 C 948.871 337.917, 947.750 338.010, 944.248 337.067 C 941.958 336.450, 939.814 335.508, 939.483 334.973 C 938.151 332.818, 937.243 334.276, 936.621 339.568 M 553.638 347.500 C 552.970 349.243, 553.833 352, 555.048 352 C 556.465 352, 557.160 350.078, 556.497 347.991 C 555.748 345.630, 554.442 345.406, 553.638 347.500 M 1226.250 348.250 C 1226.478 348.938, 1227.514 349.664, 1228.551 349.865 C 1230.182 350.181, 1230.256 350.013, 1229.096 348.615 C 1227.510 346.704, 1225.656 346.466, 1226.250 348.250 M 553.583 354.866 C 553.152 355.563, 553.070 356.403, 553.400 356.733 C 554.295 357.628, 555.271 356.312, 554.787 354.862 C 554.449 353.846, 554.213 353.846, 553.583 354.866 M 80.543 375.931 C 80.226 376.443, 80.425 377.144, 80.984 377.490 C 81.543 377.835, 82 377.416, 82 376.559 C 82 374.802, 81.400 374.544, 80.543 375.931 M 668.390 385.750 C 668.089 386.712, 667.016 389.525, 666.004 392 C 664.992 394.475, 663.188 399.875, 661.995 404 C 657.774 418.587, 655.627 425, 654.967 425 C 654.600 425, 652.895 422.741, 651.178 419.980 C 647.589 414.205, 645.836 413.215, 642.433 415.036 C 638.834 416.962, 639.405 420.087, 644.498 426.339 C 646.972 429.376, 649.407 432.940, 649.908 434.259 C 650.410 435.577, 650.588 440.896, 650.305 446.078 C 649.615 458.687, 649.637 458.942, 651.598 461.108 C 654.099 463.872, 655.985 461.772, 656.070 456.128 C 656.109 453.582, 656.446 450.749, 656.820 449.831 C 657.442 448.303, 657.701 448.325, 659.866 450.085 C 661.740 451.608, 662.089 452.579, 661.544 454.754 C 659.779 461.807, 659.779 464.098, 661.540 466.045 C 663.650 468.375, 668 468.682, 668 466.500 C 668 465.611, 668.917 465, 670.250 464.999 C 675.492 464.998, 689.871 457.850, 689.958 455.202 C 689.981 454.488, 691.141 452.847, 692.535 451.555 C 694.338 449.884, 695.239 447.778, 695.656 444.257 C 696.211 439.574, 696.075 439.190, 693.130 437.093 C 691.419 435.874, 689.227 434.857, 688.259 434.832 C 684.725 434.741, 679.342 437.631, 672.539 443.272 L 665.577 449.044 663.293 445.272 C 659.380 438.811, 659.409 436.133, 663.526 423.243 C 665.589 416.784, 667.574 409.250, 667.938 406.500 C 668.302 403.750, 669.170 400.461, 669.866 399.191 C 670.590 397.872, 670.863 395.654, 670.503 394.014 C 670.116 392.250, 670.460 390.012, 671.397 388.200 C 672.235 386.579, 672.638 384.972, 672.293 384.627 C 671.073 383.407, 668.930 384.024, 668.390 385.750 M 1134.381 389.750 C 1134.075 390.712, 1132.083 395.579, 1129.954 400.565 C 1127.825 405.551, 1125.777 411.626, 1125.404 414.065 C 1125.031 416.504, 1124.322 419.288, 1123.828 420.250 C 1123.174 421.524, 1123.323 422, 1124.377 422 C 1125.303 422, 1126.078 420.468, 1126.528 417.750 C 1127.335 412.883, 1128.639 410, 1130.035 410 C 1131.222 410, 1131.315 414.245, 1130.157 415.550 C 1129.693 416.072, 1128.510 419.200, 1127.528 422.500 C 1126.546 425.800, 1125.351 428.927, 1124.871 429.450 C 1124.392 429.972, 1124 431.198, 1124 432.173 C 1124 433.148, 1122.914 436.320, 1121.586 439.223 C 1120.259 442.125, 1118.870 446.284, 1118.501 448.465 C 1118.131 450.646, 1117.192 453.662, 1116.414 455.166 C 1115.636 456.670, 1115 459.048, 1115 460.450 C 1115 461.853, 1114.601 463, 1114.114 463 C 1113.626 463, 1112.919 465.055, 1112.542 467.567 C 1111.735 472.951, 1113.749 477, 1117.235 477 C 1118.449 477, 1121.270 475.189, 1123.567 472.934 L 1127.710 468.868 1128.241 477.382 C 1129.133 491.684, 1134.153 497.228, 1146.365 497.400 C 1152.444 497.485, 1154.188 497.095, 1158.149 494.767 C 1165.134 490.661, 1168.346 486.913, 1172.519 478 C 1174.201 474.406, 1174.711 468.959, 1173.541 467.066 C 1172.393 465.208, 1171 465.912, 1171 468.351 C 1171 471.422, 1168.986 477.147, 1167.317 478.821 C 1166.593 479.548, 1166 480.554, 1166 481.057 C 1166 481.560, 1163.313 483.328, 1160.029 484.986 C 1155.224 487.411, 1152.794 488, 1147.597 488 C 1141.551 488, 1140.998 487.806, 1138.987 484.982 C 1136.496 481.484, 1136.091 472.767, 1138.106 466.041 C 1139.289 462.094, 1141 460.561, 1141 463.449 C 1141 465.824, 1147.347 469.938, 1152.493 470.900 C 1156.839 471.712, 1157.517 471.574, 1159.647 469.444 C 1162.102 466.989, 1162.722 461.860, 1161.377 455.137 C 1160.592 451.210, 1156.456 449, 1149.893 449 C 1143.495 449, 1140.402 450.462, 1134.843 456.116 C 1132.281 458.721, 1128.807 461.566, 1127.122 462.437 C 1125.438 463.308, 1123.580 464.916, 1122.994 466.010 C 1122.409 467.105, 1121.240 468, 1120.397 468 C 1118.602 468, 1119.005 466.224, 1122.617 458.220 C 1123.928 455.317, 1125 452.660, 1125 452.317 C 1125 451.974, 1126.077 449.400, 1127.394 446.596 C 1128.711 443.793, 1131.007 437.225, 1132.497 432 C 1133.988 426.775, 1136.135 419.859, 1137.270 416.632 C 1138.404 413.404, 1139.404 408.201, 1139.491 405.069 C 1139.578 401.938, 1140.002 398.805, 1140.433 398.109 C 1140.863 397.412, 1140.659 394.853, 1139.978 392.421 C 1139.070 389.177, 1138.234 388, 1136.839 388 C 1135.793 388, 1134.687 388.788, 1134.381 389.750 M 937.258 397.250 C 933.738 403.256, 930 411.172, 930 412.623 C 930 413.414, 928.200 417.238, 926 421.120 C 923.800 425.003, 922 428.828, 922 429.621 C 922 430.414, 921.325 431.322, 920.500 431.638 C 919.675 431.955, 918.991 432.953, 918.981 433.857 C 918.961 435.592, 915.281 441.511, 909.566 449 C 907.678 451.475, 906.103 453.995, 906.066 454.600 C 905.942 456.663, 892.738 468.903, 888.476 470.906 C 886.139 472.005, 881.276 473.588, 877.670 474.424 C 871.827 475.779, 870.721 475.781, 867.513 474.441 C 865.533 473.614, 863.659 472.275, 863.349 471.466 C 862.442 469.103, 863.885 465.024, 866.583 462.326 C 868.947 459.962, 869.216 459.912, 871.507 461.413 C 876.651 464.783, 884.553 462.277, 890.286 455.457 C 892.973 452.261, 896.549 441.697, 895.512 440.019 C 895.234 439.569, 893.454 438.285, 891.556 437.165 L 888.105 435.129 885.303 437.279 C 883.761 438.461, 882.140 440.007, 881.700 440.714 C 881.260 441.421, 879.635 442, 878.088 442 C 873.257 442, 864.532 450.558, 858.797 460.922 C 857.149 463.899, 854.694 464.932, 853.573 463.119 C 852.403 461.224, 854.875 442.877, 856.729 439.703 C 857.758 437.941, 859.394 433.800, 860.364 430.500 C 861.334 427.200, 862.774 423.306, 863.564 421.846 C 864.354 420.386, 865 418.557, 865 417.782 C 865 417.007, 866.078 414.151, 867.396 411.436 C 868.918 408.302, 869.459 406.090, 868.879 405.377 C 868.377 404.759, 868.249 403.516, 868.595 402.614 C 869.361 400.616, 867.354 397.979, 865.128 398.058 C 863.463 398.118, 857 407.208, 857 409.491 C 857 410.186, 856.337 411.305, 855.526 411.978 C 854.716 412.651, 853.798 414.843, 853.486 416.850 C 852.740 421.650, 851.128 428.002, 850.022 430.500 C 849.534 431.600, 848.440 435.392, 847.590 438.927 C 846.069 445.249, 844.973 446.850, 842 447.091 C 841.175 447.158, 839.825 447.313, 839 447.435 C 838.175 447.558, 836.241 447.735, 834.702 447.829 C 831.494 448.025, 827.733 451.664, 824.790 457.420 C 823.028 460.866, 822.932 461.835, 823.991 465.420 C 825.508 470.552, 827.346 472.629, 831.616 474.038 C 834.333 474.935, 835.604 474.845, 838.148 473.576 C 839.886 472.709, 841.668 472, 842.108 472 C 842.549 472, 844.044 470.865, 845.432 469.477 L 847.955 466.955 849.977 468.977 C 851.090 470.090, 852.864 471, 853.921 471 C 855.240 471, 856.047 471.936, 856.498 473.991 C 856.869 475.681, 858.743 478.291, 860.805 479.991 C 863.895 482.537, 865.310 483, 870.013 483 C 873.098 483, 878.668 481.985, 882.535 480.718 C 890.029 478.262, 901 470.932, 901 468.381 C 901 467.525, 903.925 463.826, 907.500 460.163 C 913.908 453.595, 914 453.543, 914 456.500 C 914 458.150, 912.912 463.026, 911.582 467.336 C 907.809 479.563, 907.398 484.398, 909.918 486.918 C 911.063 488.063, 912.563 488.994, 913.250 488.988 C 915.903 488.961, 922.728 481.155, 926.360 473.994 C 928.450 469.872, 931.249 465.068, 932.580 463.317 C 933.911 461.566, 935 459.428, 935 458.567 C 935 457.705, 935.450 457, 936 457 C 936.550 457, 937 456.288, 937 455.417 C 937 452.696, 934.671 454.446, 930.796 460.079 C 927.154 465.374, 921.441 471, 919.708 471 C 918.720 471, 919.797 465.042, 921.074 463.448 C 921.537 462.869, 921.675 461.472, 921.379 460.342 C 921.084 459.212, 921.778 456.542, 922.921 454.409 C 924.064 452.275, 925 449.407, 925 448.036 C 925 445.043, 928.889 434.132, 933.389 424.500 C 935.188 420.650, 938.028 414.575, 939.700 411 C 943.900 402.019, 944.371 399.496, 942.405 396.496 C 940.271 393.238, 939.547 393.344, 937.258 397.250 M 115.500 401.902 C 102.855 408.887, 100.533 410.890, 96.884 417.956 C 94.735 422.118, 94.184 426.774, 95.279 431.500 C 95.534 432.600, 96.083 435.411, 96.499 437.747 C 97.085 441.042, 97.982 442.444, 100.495 443.997 C 104.067 446.204, 109.996 446.595, 114.755 444.936 C 117.612 443.939, 118.056 444.137, 121.684 448.027 C 125.154 451.747, 126.079 452.199, 130.530 452.341 C 135.103 452.487, 136.226 452.001, 144.590 446.250 C 149.590 442.813, 153.900 440, 154.167 440 C 154.435 440, 154.456 441.344, 154.215 442.987 C 153.974 444.630, 154.061 447.105, 154.407 448.487 C 154.944 450.623, 155.612 451, 158.864 451 C 161.301 451, 163.291 450.336, 164.345 449.171 C 166.597 446.683, 166.424 445.815, 163.750 446.187 C 161.917 446.442, 161.438 445.960, 161.167 443.581 C 160.984 441.976, 161.379 438.716, 162.045 436.338 C 163.004 432.912, 162.996 431.700, 162.006 430.507 C 160.125 428.241, 158.338 428.650, 153.296 432.500 C 150.775 434.425, 148.355 436, 147.919 436 C 147.483 436, 147.370 434.495, 147.669 432.655 C 148.711 426.232, 142.810 418, 137.163 418 C 130.425 418, 119 428.167, 119 434.164 C 119 434.982, 117.891 436.693, 116.536 437.966 C 114.409 439.964, 113.415 440.194, 109.286 439.645 C 102.499 438.741, 100.616 436.204, 101.281 428.856 C 101.599 425.338, 102.759 421.572, 104.362 418.856 C 107.108 414.203, 112.928 409, 115.388 409 C 116.209 409, 117.160 408.550, 117.500 408 C 118.218 406.838, 120.056 406.645, 119.882 407.750 C 119.816 408.163, 119.816 409.582, 119.882 410.905 C 119.995 413.199, 120.087 413.231, 121.890 411.600 C 122.991 410.603, 124.972 410.017, 126.640 410.195 C 128.460 410.389, 129.464 410.046, 129.400 409.250 C 129.345 408.563, 129.233 406.875, 129.150 405.500 C 129.046 403.767, 128.420 403, 127.107 403 C 126.066 403, 124.955 402.325, 124.638 401.500 C 123.893 399.558, 119.384 399.757, 115.500 401.902 M 479.923 401.250 C 479.880 401.387, 479.648 404.547, 479.406 408.271 C 479.165 411.995, 478.262 417.845, 477.401 421.271 C 476.539 424.697, 475.398 429.525, 474.866 432 C 474.333 434.475, 473.367 438.750, 472.720 441.500 C 472.072 444.250, 471.617 451.210, 471.708 456.967 C 471.846 465.668, 472.170 467.651, 473.628 468.717 C 476.124 470.542, 476.539 470.411, 480.989 466.391 C 485.215 462.573, 485.378 461, 481.548 461 C 480.264 461, 478.941 460.288, 478.607 459.418 C 477.669 456.973, 477.890 446.996, 478.958 443.571 C 482.010 433.788, 484.333 421.388, 484.559 413.674 C 484.701 408.820, 485.084 404.583, 485.409 404.258 C 486.999 402.667, 485.766 401, 483 401 C 481.350 401, 479.965 401.113, 479.923 401.250 M 627.363 403.497 C 626.440 405.902, 628.616 407.732, 630.778 406.369 C 633.206 404.836, 632.917 402.559, 630.246 402.180 C 628.861 401.983, 627.749 402.492, 627.363 403.497 M 755 406.500 C 755 407.325, 755.450 408, 756 408 C 756.550 408, 757 407.325, 757 406.500 C 757 405.675, 756.550 405, 756 405 C 755.450 405, 755 405.675, 755 406.500 M 764.728 409.240 C 762.649 410.799, 758 424.819, 758 429.531 C 758 434.720, 760.478 433.893, 762.599 427.996 C 763.998 424.103, 764.780 423.113, 766.115 423.536 C 768.538 424.306, 769.268 422.588, 769.211 416.251 C 769.154 409.862, 767.451 407.199, 764.728 409.240 M 508.200 412.200 C 505.814 414.586, 506.861 417.554, 510.886 419.816 C 517.701 423.646, 518.871 422.037, 514.322 415.090 C 511.525 410.817, 510.206 410.194, 508.200 412.200 M 108 419.059 C 108 419.641, 108.450 419.840, 109 419.500 C 109.550 419.160, 110 418.684, 110 418.441 C 110 418.198, 109.550 418, 109 418 C 108.450 418, 108 418.477, 108 419.059 M 198.500 420.856 C 196.300 421.852, 193.282 422.971, 191.792 423.342 C 187.250 424.474, 181 435.323, 181 442.077 C 181 448.944, 192.223 451.403, 200.752 446.405 C 204.063 444.465, 205.785 442.510, 207.580 438.655 C 210.945 431.428, 210.789 426.056, 207.099 422.106 C 203.719 418.488, 203.726 418.489, 198.500 420.856 M 237 422.290 C 232.937 424.338, 233.249 427.614, 237.920 431.926 C 240.164 433.998, 242 436.259, 242 436.951 C 242 437.644, 243.316 440.160, 244.925 442.544 C 247.166 445.864, 247.564 447.117, 246.626 447.896 C 244.607 449.571, 237.700 450.236, 234.611 449.052 C 231.258 447.766, 231.361 447.714, 230.505 451.123 C 229.941 453.371, 230.364 454.062, 233.490 455.994 C 242.547 461.592, 255.577 453.655, 253.568 443.764 C 251.532 433.739, 251.496 434, 254.910 434 C 257.815 434, 257.991 434.196, 257.381 436.750 C 257.019 438.262, 256.336 440.258, 255.862 441.184 C 254.440 443.964, 254.888 452.883, 256.618 456.228 C 257.508 457.949, 259.870 460.899, 261.868 462.785 C 265.339 466.062, 265.740 466.185, 270.931 465.577 C 274.233 465.190, 278.493 463.720, 281.801 461.828 C 287.389 458.631, 288.461 458.347, 295.750 458.128 C 300.259 457.992, 301.401 456.579, 297.899 455.468 C 296.343 454.974, 296.090 454.510, 296.924 453.676 C 297.758 452.842, 298.593 452.889, 300.147 453.860 C 302.693 455.450, 311.852 456.505, 315.393 455.616 C 321.849 453.996, 328.188 444.573, 324.854 441.553 C 320.207 437.345, 305.307 437.400, 299.018 441.648 C 297.103 442.942, 294.895 444, 294.112 444 C 292.686 444, 286.180 448.469, 284.726 450.447 C 284.301 451.026, 284.129 452.529, 284.344 453.786 C 284.955 457.346, 281.619 459, 273.828 459 C 267.376 459, 266.998 458.864, 264.551 455.656 C 262.616 453.118, 262.001 451.127, 262.004 447.406 C 262.008 441.888, 264.930 436, 267.664 436 C 269.589 436, 274.736 434.453, 280.250 432.217 C 283.515 430.893, 284 430.271, 284 427.407 C 284 425.598, 283.472 423.791, 282.826 423.392 C 280.679 422.066, 273.194 422.643, 270.614 424.333 C 269.215 425.250, 267.375 426, 266.525 426 C 265.676 426, 264.210 426.900, 263.268 428 C 261.111 430.519, 260.992 430.513, 254.406 427.500 C 251.400 426.125, 248.167 424.990, 247.220 424.978 C 246.274 424.966, 244.375 424.076, 243 423 C 240.031 420.678, 240.166 420.694, 237 422.290 M 104 426 C 104 426.550, 104.450 427, 105 427 C 105.550 427, 106 426.550, 106 426 C 106 425.450, 105.550 425, 105 425 C 104.450 425, 104 425.450, 104 426 M 128.567 430 C 124.215 434.982, 123.729 441.100, 127.547 442.839 C 128.948 443.478, 131.114 444, 132.360 444 C 135.543 444, 139.862 439.111, 141.507 433.642 C 142.858 429.155, 142.833 428.997, 140.700 428.487 C 136.882 427.573, 129.930 428.440, 128.567 430 M 571.023 430.250 C 571.041 431.973, 572.622 433.392, 577.773 436.310 C 587.142 441.616, 590.747 444.653, 589.344 446.056 C 588.525 446.875, 587.418 446.750, 585.165 445.585 C 580.405 443.124, 572.825 443.493, 570.174 446.314 C 567.140 449.545, 567.415 451.136, 572.092 457.389 L 576.184 462.860 582.842 463.492 C 586.504 463.840, 590.175 464.179, 591 464.247 C 594.238 464.511, 599.069 462.740, 600.436 460.788 C 602.324 458.093, 601.398 449.236, 598.943 446.500 C 597.956 445.400, 596.861 443.343, 596.510 441.928 C 596.160 440.513, 594.615 438.613, 593.078 437.705 C 591.541 436.797, 588.091 434.242, 585.410 432.027 C 581.225 428.569, 579.863 428, 575.768 428 C 571.483 428, 571.002 428.228, 571.023 430.250 M 191.107 433.500 C 185.800 439.258, 185.985 441.389, 191.829 441.811 C 195.784 442.096, 196.516 441.748, 200.653 437.610 C 206.425 431.838, 206.229 429.614, 199.912 429.202 C 195.613 428.922, 195.093 429.176, 191.107 433.500 M 715.011 431.487 C 713.237 433.624, 714.621 437.905, 717.431 438.974 C 720.659 440.201, 720.937 440.855, 721.103 447.621 C 721.182 450.854, 721.447 454.288, 721.691 455.250 C 722.411 458.091, 726.653 457.374, 729.742 453.889 C 731.259 452.177, 733.513 450.388, 734.750 449.913 C 736.515 449.236, 737 448.262, 737 445.395 L 737 441.740 732.630 442.233 C 728.752 442.670, 728.314 442.517, 728.742 440.879 C 729.614 437.545, 728.002 433.972, 724.723 431.973 C 720.889 429.635, 716.721 429.427, 715.011 431.487 M 1043.655 433.461 C 1042.245 434.530, 1041.969 435.583, 1042.485 437.930 C 1042.855 439.618, 1042.775 441, 1042.307 441 C 1039.153 441, 1038.875 465.911, 1041.976 470.679 C 1044.933 475.228, 1050.546 476.171, 1055.151 472.893 C 1058.308 470.645, 1063 463.938, 1063 461.675 C 1063 460.111, 1065.981 457.192, 1069.236 455.570 C 1070.458 454.961, 1072.472 452.671, 1073.712 450.481 L 1075.967 446.500 1075.984 449.563 C 1075.995 451.675, 1075.068 453.518, 1073 455.500 C 1069.713 458.649, 1069.075 463.048, 1071.073 468.779 C 1072.729 473.529, 1081.669 479.225, 1088.336 479.778 C 1093.461 480.203, 1093.713 480.106, 1094.885 477.278 C 1095.922 474.775, 1095.794 473.550, 1094.027 469.070 C 1092.886 466.173, 1090.837 462.342, 1089.476 460.557 C 1086.148 456.194, 1086.317 454.387, 1090.125 453.625 C 1095.058 452.638, 1098.476 452.883, 1102.346 454.500 C 1106.449 456.214, 1111 456.477, 1111 455 C 1111 454.450, 1110.388 454, 1109.640 454 C 1108.891 454, 1106.529 452.792, 1104.390 451.316 C 1101.030 448.997, 1099.247 448.573, 1091.297 448.199 L 1082.094 447.766 1079.863 442.383 C 1078.102 438.134, 1077.159 437, 1075.388 437 C 1073.431 437, 1073.060 437.671, 1072.487 442.256 C 1071.802 447.743, 1070.331 450.661, 1067.984 451.188 C 1066.959 451.419, 1066.670 450.528, 1066.874 447.773 C 1067.272 442.392, 1066.260 440, 1063.588 440 C 1060.559 440, 1057.791 443.054, 1059.035 445.023 C 1061.634 449.133, 1058.844 458.829, 1053.357 464.748 C 1048.674 469.802, 1046 465.351, 1046 452.500 C 1046 442.144, 1047.042 439, 1050.475 439 C 1053.750 439, 1053.675 437.498, 1050.250 434.484 C 1047.070 431.685, 1046.182 431.547, 1043.655 433.461 M 434.500 434.487 C 430.736 436.255, 428 438.435, 428 439.666 C 428 440.186, 426.875 442.136, 425.500 444 C 420.880 450.262, 423.201 462.148, 430.910 471.713 C 436.761 478.973, 438.203 481.130, 437.605 481.729 C 437.259 482.075, 435.649 481.377, 434.028 480.179 C 428.702 476.241, 419 478.141, 419 483.122 C 419 489.730, 427.375 492.510, 441 490.426 C 450.692 488.943, 451.403 484.525, 443.536 474.669 C 440.537 470.912, 437.811 466.979, 437.477 465.928 C 436.765 463.685, 437.592 462, 439.405 462 C 441.840 462, 447.462 458.620, 451.228 454.892 C 454.326 451.824, 455 450.450, 455 447.201 C 455 442.201, 452.690 436.597, 449.792 434.567 C 447.001 432.612, 438.587 432.568, 434.500 434.487 M 504.460 433.766 C 502.561 435.106, 500.713 442.387, 499.959 451.500 C 499.550 456.450, 498.897 461.698, 498.508 463.161 C 497.943 465.287, 498.236 466.056, 499.964 466.981 C 501.563 467.836, 502.480 467.847, 503.476 467.020 C 505.720 465.158, 507.276 456.274, 507.391 444.664 C 507.496 434.086, 506.939 432.017, 504.460 433.766 M 1004.940 439.027 C 1002.982 440.022, 1000.790 441.548, 1000.068 442.418 C 999.346 443.288, 998.226 444, 997.579 444 C 995.524 444, 988.584 451.456, 986.250 456.172 C 983.554 461.620, 983.358 467.010, 985.750 469.871 C 988.446 473.094, 996.825 477.073, 1002.274 477.719 C 1006.930 478.270, 1007.155 478.434, 1006.643 480.900 C 1005.213 487.786, 1001.841 498.593, 1000.471 500.684 C 997.979 504.488, 1000.815 508, 1006.379 508 C 1010.078 508, 1016.593 500.076, 1018.505 493.250 C 1019.247 490.599, 1016.980 490.114, 1015 492.500 C 1012.239 495.827, 1011.569 492.749, 1014.290 489.236 C 1014.828 488.540, 1015.407 486.515, 1015.575 484.736 C 1016.424 475.769, 1017.856 469.767, 1019.629 467.741 C 1022.673 464.264, 1023.919 460.969, 1024.419 455.074 C 1024.998 448.251, 1023.400 444.300, 1018.396 440.175 C 1013.982 436.536, 1010.436 436.234, 1004.940 439.027 M 612.423 438.967 C 611.281 439.429, 608.867 441.287, 607.058 443.096 C 603.935 446.219, 603.801 446.652, 604.398 451.726 C 605.156 458.180, 606.034 459.671, 611.222 463.323 C 614.869 465.891, 615.516 466.036, 618.366 464.923 C 627.006 461.551, 627.761 460.928, 630.788 454.686 C 635.003 445.993, 635.338 444.481, 633.463 442.605 C 632.580 441.722, 631.529 441, 631.129 441 C 629.540 441, 628 443.544, 628 446.167 C 628 449.697, 621.931 456, 618.532 456 C 613.923 456, 611 454.233, 611 451.448 C 611 448.869, 614.497 444.550, 618.500 442.184 C 620.476 441.015, 620.477 440.984, 618.559 439.501 C 616.394 437.827, 615.444 437.745, 612.423 438.967 M 749.035 440.934 C 747.750 443.336, 747.729 445.482, 748.952 449.429 C 749.475 451.118, 750.440 454.660, 751.096 457.301 C 752.094 461.317, 752.632 462.052, 754.394 461.801 C 756.236 461.538, 756.483 460.874, 756.364 456.500 C 756.173 449.499, 754.922 441.731, 753.747 440.250 C 752.296 438.421, 750.219 438.723, 749.035 440.934 M 885 443.739 C 881.592 444.356, 880.440 445.459, 878.050 450.397 C 875.500 455.663, 875.504 456, 878.116 456 C 879.360 456, 882.255 453.878, 885.147 450.845 C 891.158 444.544, 891.118 442.632, 885 443.739 M 680.500 446.417 C 677.750 447.684, 673.558 450.695, 671.185 453.110 L 666.871 457.500 670.001 457.818 C 671.722 457.993, 673.664 457.714, 674.315 457.199 C 674.967 456.683, 677.160 455.962, 679.188 455.597 C 681.969 455.096, 683.630 453.908, 685.938 450.769 C 691.191 443.627, 689.500 442.274, 680.500 446.417 M 436.562 446.950 C 434.947 448.015, 433.259 448.660, 432.812 448.384 C 431.086 447.317, 430.010 449.153, 431.492 450.635 C 432.322 451.464, 433 452.813, 433 453.633 C 433 454.834, 433.920 454.998, 437.750 454.477 C 444.833 453.515, 445.666 453.159, 447.543 450.294 C 449.180 447.795, 449.175 447.601, 447.441 446.333 C 444.831 444.425, 439.976 444.700, 436.562 446.950 M 589.075 451.358 C 584.929 452.741, 584.096 454.525, 587.209 455.359 C 592.052 456.656, 594 456.140, 594 453.559 C 594 450.352, 593.186 449.988, 589.075 451.358 M 1003.434 451.911 C 995.944 453.762, 993.985 455.966, 994.885 461.527 L 995.528 465.500 1002.989 465.798 C 1011.950 466.157, 1014.256 465.125, 1017.725 459.206 C 1020.231 454.930, 1020.245 454.802, 1018.392 453.043 C 1015.758 450.541, 1010.563 450.148, 1003.434 451.911 M 1145 453 C 1145 453.550, 1145.450 454, 1146 454 C 1146.550 454, 1147 453.550, 1147 453 C 1147 452.450, 1146.550 452, 1146 452 C 1145.450 452, 1145 452.450, 1145 453 M 835.500 455.445 C 831.625 456.642, 831.500 456.818, 831.500 461.090 C 831.500 464.903, 831.805 465.543, 833.752 465.820 C 834.990 465.996, 836.710 465.433, 837.573 464.570 C 838.436 463.706, 839.786 463, 840.571 463 C 841.382 463, 842.006 462.027, 842.014 460.750 C 842.021 459.512, 842.299 457.488, 842.630 456.250 C 843.332 453.630, 841.900 453.468, 835.500 455.445 M 1147.317 456.617 C 1146.975 457.506, 1147.113 459.419, 1147.622 460.867 C 1148.382 463.028, 1149.171 463.500, 1152.024 463.500 C 1155.340 463.500, 1155.493 463.344, 1155.338 460.113 C 1155.248 458.250, 1154.573 456.345, 1153.838 455.879 C 1151.628 454.478, 1147.979 454.891, 1147.317 456.617 M 1078.015 459.971 C 1076.286 463.203, 1076.854 464.719, 1081.180 468.422 C 1087.834 474.118, 1088.752 472.879, 1084.250 464.277 C 1081.148 458.350, 1079.494 457.208, 1078.015 459.971 M 1020.667 488.667 C 1020.300 489.033, 1020 489.798, 1020 490.367 C 1020 490.993, 1020.466 490.934, 1021.183 490.217 C 1021.834 489.566, 1022.134 488.801, 1021.850 488.517 C 1021.566 488.233, 1021.033 488.300, 1020.667 488.667 M 1371.320 498 C 1371.320 501.575, 1371.502 503.038, 1371.723 501.250 C 1371.945 499.462, 1371.945 496.538, 1371.723 494.750 C 1371.502 492.962, 1371.320 494.425, 1371.320 498 M 560.133 507.317 C 559.010 510.792, 558.341 514.589, 558.646 515.755 C 558.953 516.929, 558.486 518.895, 557.600 520.160 C 555.237 523.535, 555.543 526, 558.326 526 C 562.704 526, 565.174 521.890, 566.311 512.713 C 567.460 503.437, 567.004 501, 564.118 501 C 562.612 501, 561.713 502.426, 560.133 507.317 M 358.544 504.233 C 357.668 505.480, 356.679 508.188, 356.348 510.250 C 355.836 513.433, 355.348 514.018, 353.122 514.120 C 345.709 514.460, 339.203 513.674, 334.329 511.850 C 324.752 508.267, 323.423 511.197, 330.681 519.892 C 333.255 522.976, 336.107 526.175, 337.018 527 C 340.362 530.029, 342.770 538.084, 342.340 544.802 C 342.004 550.037, 342.284 551.546, 343.994 553.720 C 345.794 556.008, 345.976 557.228, 345.440 563.418 C 344.971 568.830, 345.172 570.959, 346.292 572.444 C 347.693 574.303, 347.874 574.313, 350.379 572.671 C 352.539 571.256, 353 570.192, 353 566.626 C 353 564.246, 353.401 560.994, 353.891 559.399 C 354.382 557.805, 355.539 552.675, 356.463 548 C 359.774 531.261, 361.511 524.004, 362.210 524.002 C 362.600 524.001, 363.950 522.922, 365.210 521.604 C 366.469 520.286, 369.075 518.988, 371 518.718 C 375.957 518.025, 390.258 513.900, 391.750 512.733 C 393.805 511.126, 393.190 508.023, 390.623 507.047 C 388.042 506.066, 377.587 508.170, 372.846 510.626 C 371.386 511.382, 368.626 512, 366.712 512 C 363.085 512, 362.046 510.521, 362.014 505.309 C 361.994 502.125, 360.378 501.624, 358.544 504.233 M 217.511 504.982 C 217.177 505.522, 216.984 508.335, 217.082 511.232 C 217.306 517.843, 215.530 539.927, 213.925 550.500 C 212.231 561.657, 212.263 563.095, 214.236 564.359 C 215.612 565.241, 216.375 565.060, 217.914 563.486 C 219.377 561.990, 220 559.526, 220.439 553.500 C 220.760 549.100, 221.448 542.125, 221.967 538 C 223.232 527.962, 223.252 511.274, 222 510.500 C 221.450 510.160, 221 508.559, 221 506.941 C 221 504.039, 218.843 502.827, 217.511 504.982 M 538.600 506.806 C 536.634 510.608, 536.150 525.271, 537.921 527.405 C 540.025 529.940, 542.689 529.331, 543.831 526.055 C 544.395 524.436, 546.014 522.105, 547.429 520.875 C 548.843 519.645, 550 518.045, 550 517.320 C 550 515.777, 547.402 515.540, 546.500 517 C 546.160 517.550, 545.176 518, 544.314 518 C 543.032 518, 542.847 517.133, 543.299 513.250 C 543.603 510.637, 544.163 507.488, 544.543 506.250 C 545.136 504.318, 544.867 504, 542.642 504 C 540.815 504, 539.624 504.827, 538.600 506.806 M 1370.651 550.750 C 1370.280 572.063, 1369.695 591.862, 1369.349 594.750 C 1368.817 599.204, 1368.970 600, 1370.361 600 C 1371.855 600, 1372 596.106, 1372 556 C 1372 531.800, 1371.848 512, 1371.662 512 C 1371.476 512, 1371.021 529.438, 1370.651 550.750 M 341 522.873 C 341 524.052, 342.350 526.881, 344 529.159 C 345.650 531.436, 347.014 534.020, 347.032 534.900 C 347.066 536.599, 349.731 540.648, 350.340 539.927 C 350.999 539.148, 354 526.124, 354 524.044 C 354 522.718, 353.347 522, 352.140 522 C 351.116 522, 348.191 521.714, 345.640 521.364 C 341.365 520.778, 341 520.897, 341 522.873 M 226 524.059 C 226 524.641, 226.450 524.840, 227 524.500 C 227.550 524.160, 228 523.684, 228 523.441 C 228 523.198, 227.550 523, 227 523 C 226.450 523, 226 523.477, 226 524.059 M 499.757 525.250 C 496.734 527.574, 493 537.514, 493 543.236 C 493 548.591, 494.173 551, 496.779 551 C 497.777 551, 497.985 550.208, 497.530 548.137 C 496.977 545.617, 497.522 544.716, 502.075 540.622 C 506.472 536.669, 507.323 535.317, 507.739 531.622 C 508.159 527.895, 507.895 527.040, 505.892 525.637 C 503.088 523.673, 501.905 523.598, 499.757 525.250 M 175.138 528.155 C 174.660 529.447, 174.875 531.862, 175.675 534.183 C 177.206 538.626, 176.695 548.552, 174.377 559.415 C 173.039 565.683, 173.052 566.478, 174.513 567.915 C 175.988 569.364, 176.313 569.273, 178.313 566.854 C 179.516 565.399, 181.981 561.799, 183.791 558.854 C 187.968 552.060, 199 539.963, 199 542.178 C 199 544.092, 202.567 543.572, 203.344 541.545 C 204.165 539.405, 201.599 535.583, 198.643 534.544 C 196.274 533.710, 195.657 533.866, 194.741 535.527 C 192.890 538.881, 187.092 544.197, 185.762 543.759 C 185.028 543.517, 184.266 540.869, 183.939 537.421 C 183.207 529.692, 181.386 526, 178.307 526 C 176.792 526, 175.648 526.778, 175.138 528.155 M 382.571 529.571 C 380.578 531.564, 380.580 531.585, 383.157 535.755 C 385.529 539.592, 385.845 546.552, 383.820 550.337 C 383.183 551.527, 382.573 555.253, 382.464 558.619 C 382.355 561.984, 381.476 566.804, 380.511 569.331 C 378.361 574.961, 379.014 577.250, 382.643 576.817 C 385.736 576.448, 385.906 576.192, 390.512 564.974 C 392.437 560.285, 395.830 554.249, 398.051 551.561 C 400.272 548.874, 401.871 546.106, 401.604 545.410 C 401.337 544.715, 401.767 543.608, 402.559 542.951 C 404.256 541.542, 404.475 537.412, 402.904 536.441 C 401.580 535.622, 399.802 537.354, 397.318 541.879 C 396.298 543.738, 395.021 545.151, 394.481 545.019 C 393.942 544.888, 392.557 541.868, 391.404 538.310 C 389.339 531.940, 386.924 528, 385.081 528 C 384.565 528, 383.436 528.707, 382.571 529.571 M 235.667 531.667 C 233.976 533.357, 235.486 536.131, 241.500 542.387 C 245.075 546.105, 248 549.706, 248 550.389 C 248 551.216, 246.580 551.561, 243.750 551.422 C 233.466 550.917, 229.574 558.301, 236.412 565.342 C 241.707 570.794, 247.420 574.196, 250.659 573.825 C 253.886 573.455, 256.855 568.601, 256.974 563.500 C 257.051 560.240, 259.471 556.651, 262.250 555.676 C 265.215 554.637, 264.186 553, 260.567 553 C 257.882 553, 256.982 552.510, 256.433 550.750 C 254.669 545.093, 245.428 534.530, 241.250 533.395 C 240.012 533.058, 239 532.382, 239 531.892 C 239 530.852, 236.641 530.693, 235.667 531.667 M 142 539.800 C 142 544.032, 143.380 545.972, 146.450 546.055 C 147.578 546.086, 149.582 547.479, 150.905 549.151 C 153.813 552.827, 152.491 554.253, 146.986 553.378 C 144.261 552.945, 143.061 553.275, 141.636 554.849 C 139.403 557.318, 139.201 563.630, 141.289 565.718 C 143.162 567.591, 155.274 571, 160.054 571 C 164.610 571, 168 567.666, 168 563.186 C 168 561.021, 168.481 560, 169.500 560 C 172.188 560, 171.080 558.312, 167.768 557.362 C 165.882 556.821, 163.609 555.059, 162.309 553.130 C 156.926 545.142, 146.971 536, 143.656 536 C 142.405 536, 142 536.930, 142 539.800 M 424 538.177 C 422.075 539.385, 419.584 540.270, 418.465 540.143 C 414.118 539.652, 408.825 549.279, 406.809 561.346 C 405.683 568.086, 407.439 575.201, 411.577 580.666 C 414.519 584.552, 422.358 586.785, 424.730 584.413 C 425.507 583.636, 426.923 583, 427.876 583 C 430.475 583, 438.514 577.576, 441.101 574.077 C 443.564 570.745, 445 570.149, 445 572.459 C 445 575.235, 448.503 580.951, 450.219 580.975 C 451.288 580.991, 451.734 580.470, 451.398 579.596 C 451.036 578.651, 452.846 577.133, 456.931 574.956 C 463.662 571.369, 478 557.243, 478 554.200 C 478 552.313, 474.570 548, 473.069 548 C 472.601 548, 471.941 549.098, 471.604 550.440 C 470.600 554.441, 454.059 568.392, 452.348 566.681 C 451.677 566.010, 453.227 560.076, 454.017 560.289 C 454.448 560.405, 454.845 560.050, 454.900 559.500 C 454.955 558.950, 454.438 558.500, 453.750 558.500 C 452.068 558.500, 452.226 557.194, 454.430 552.841 C 456.513 548.728, 456.004 546, 453.154 546 C 450.620 546, 449.437 547.598, 448.004 552.957 C 445.692 561.599, 436.410 571.424, 426.737 575.465 C 422.113 577.397, 421.034 577.367, 418.260 575.228 C 416.222 573.656, 416.118 573.138, 417.103 569.500 C 418.201 565.445, 422.441 560, 424.500 560 C 426.273 560, 430.494 555.013, 433.914 548.877 C 436.475 544.282, 436.871 542.792, 436.085 540.724 C 434.965 537.779, 434.517 537.448, 430.500 536.608 C 428.337 536.155, 426.524 536.592, 424 538.177 M 105.942 545.570 C 105.162 546.509, 104.536 550.432, 104.382 555.341 C 104.240 559.851, 103.647 564.799, 103.062 566.336 C 101.546 570.325, 101.731 571.790, 104 573.732 C 106.863 576.183, 106.664 579.033, 102.828 590.500 C 102.276 592.150, 101.461 594.962, 101.017 596.750 C 100.233 599.910, 100.299 600, 103.428 600 C 106.457 600, 106.809 599.605, 109.441 593.250 C 110.979 589.538, 112.521 584.250, 112.869 581.500 C 113.494 576.546, 113.542 576.490, 118.034 575.381 C 123.382 574.060, 130.111 570.776, 131.911 568.608 C 132.780 567.560, 132.962 565.734, 132.481 562.886 C 131.061 554.482, 127.333 548.775, 121.187 545.597 C 117.095 543.481, 107.690 543.464, 105.942 545.570 M 424.500 545.966 C 422.388 546.852, 414.322 554.773, 415.065 555.232 C 419.352 557.876, 419.748 557.873, 422.172 555.182 C 424.771 552.296, 428.442 544.959, 427.234 545.063 C 426.830 545.098, 425.600 545.504, 424.500 545.966 M 117.256 555.957 C 115.382 558.333, 115.115 559.562, 115.642 563.401 C 116.376 568.762, 117.756 569.186, 124.040 565.980 C 128.228 563.843, 128.967 562.047, 126.500 560 C 125.675 559.315, 125 558.187, 125 557.493 C 125 556.456, 120.778 552.863, 119.785 553.055 C 119.628 553.086, 118.490 554.391, 117.256 555.957 M 247.250 559.031 C 244.677 560.066, 244.528 560.795, 246.392 563.250 C 248.199 565.630, 249.647 565.448, 250.370 562.750 C 251.668 557.904, 251.262 557.419, 247.250 559.031 M 587.200 559.200 C 585.331 561.069, 585.772 563.462, 588.537 566.446 C 590.601 568.673, 591.347 568.957, 592.537 567.969 C 594.441 566.389, 594.400 563.016, 592.443 560.223 C 590.705 557.741, 588.993 557.407, 587.200 559.200 M 116.500 561 C 116.160 561.550, 116.359 562, 116.941 562 C 117.523 562, 118 561.550, 118 561 C 118 560.450, 117.802 560, 117.559 560 C 117.316 560, 116.840 560.450, 116.500 561 M 153.550 560.916 C 155.087 562.399, 158.256 562.603, 158.730 561.250 C 159.022 560.415, 158.076 560, 155.883 560 C 153.870 560, 152.967 560.354, 153.550 560.916 M 496.848 565.065 C 495.948 565.569, 494.236 567.853, 493.043 570.142 C 491.107 573.856, 491.037 574.465, 492.387 575.816 C 493.631 577.059, 494.175 577.100, 495.450 576.042 C 496.302 575.334, 497 573.715, 497 572.443 C 497 571.171, 497.463 568.913, 498.028 567.426 C 499.241 564.235, 499.043 563.837, 496.848 565.065 M 1200.500 598 C 1198.706 599.982, 1198.753 600, 1205.595 599.978 L 1212.500 599.956 1210 598 C 1206.770 595.473, 1202.787 595.473, 1200.500 598" stroke="none" fill="hsl(210, 40%, 96.1%)" fill-rule="evenodd"/>
</svg>