<?xml version="1.0" encoding="utf-8"?>
<!-- Generator: Adobe Illustrator 28.0.0, SVG Export Plug-In . SVG Version: 6.00 Build 0)  -->
<svg version="1.1" fill="hsl(210 40% 96.1%)" id="Livello_1" xmlns="http://www.w3.org/2000/svg" xmlns:xlink="http://www.w3.org/1999/xlink" x="0px" y="0px"
	 viewBox="0 0 2868.8 1323.7" style="enable-background:new 0 0 2868.8 1323.7;" xml:space="preserve">
<path d="M644.7,1.8c-1.3,1.1-2.4,2.8-2.4,3.8c-0.4,5,0.4,20.2,1.1,23.2c3.3,12.8,4.1,100,1.3,138c-2,27.2-2.2,54.8-0.4,60.5
	c2.1,6.3,4.1,10.3,5.6,10.9c0.8,0.3,4.2-0.9,7.6-2.7c4.7-2.4,6.5-4,7.7-6.7c0.8-1.9,2.1-4.7,2.9-6.2c2.6-5.1,5.3-14.3,5.3-18.3
	c0-2.2,0.8-5.2,1.7-6.5c1-1.4,1.9-4.1,2-6c0.1-1.9,0.4-6,0.7-9c0.2-3,0.7-10.2,1-16c0.3-5.8,1-15,1.6-20.5c1.2-12.3,0.5-64.3-1-74.2
	c-0.6-4-0.9-7.6-0.7-8c0.3-0.5,0.1-3.1-0.4-5.8c-0.5-2.8-1.2-9.1-1.5-14c-0.2-5-0.9-10.4-1.4-12c-0.5-1.7-1.2-5-1.5-7.5
	c-1.4-9.7-5.3-17.7-10.7-21.9c-1.7-1.4-4.7-2.2-9.4-2.6C647.7-0.3,646.6-0.1,644.7,1.8z"/>
<path d="M592.6,14c-3.1,1.5-3.6,4.5-2.7,14.6c0.5,4.8,0.8,9.8,0.8,11.2c0,3.4-1.1,34.8-1.8,49c-0.3,6.3-0.7,22.7-1.1,36.5
	c-0.3,13.7-0.8,25.3-1.1,25.8c-0.3,0.4-0.9,7-1.3,14.5c-1.3,21.3-3.2,36.2-4.7,36.2c-0.7,0-2.2-2.3-3.4-5.1c-2.6-6-8.7-10.6-11.8-9
	c-2.8,1.6-7.6-0.3-12.8-4.8c-2.5-2.3-5.1-4.1-5.8-4.1s-1.9-0.7-2.6-1.6c-3.6-4.4-28.7-13.5-42.7-15.5c-13.9-1.9-22,0.3-24.8,7
	c-0.8,1.8-1.4,3.4-1.4,3.5c0,0.1,1.6,1.9,3.5,4c5.3,5.8,13.5,9.2,21.5,9c3.6-0.1,9,0.5,12,1.3c9.8,2.6,20,8.2,20,11.1
	c0,1.1-2.3,1.3-13.2,0.7c-15.1-0.6-30.2,1.1-36.3,4.2c-1.1,0.5-3.3,1.6-4.9,2.4c-1.6,0.8-3.7,2.5-4.8,3.9
	c-2.5,3.4-3.4,11.7-1.8,16.6c1.4,4.3,11.2,15.1,17.4,19.3c9.2,6.2,12.4,8.2,18,11.1c3.2,1.8,6,4,6.3,5.1c0.6,2.2,3.9,2.5,6.2,0.6
	c1.3-1.2,3.1-1.2,10.1-0.1c7.5,1.1,9.3,1,15.5-0.5c3.9-1,8.8-2.6,11-3.7c5.1-2.4,16.9-13.6,19.2-18.2c2.9-5.7,4.4-5.3,4.1,1.2
	c-0.2,5.3,0,5.8,4,9.8c4.4,4.6,9.7,6.8,16.1,6.8c3.1,0,4.7-0.7,7.4-3.3l3.3-3.2l-1-12.8c-1-10.9-0.9-13,0.3-14.2
	c1.6-1.6,3.3-11.2,3.2-18c-0.1-2.2,0.3-5.1,0.9-6.5c1.4-3.7,3.1-19.4,3-28.7c-0.1-4.8,0.4-9.2,1.1-10.5c0.9-1.7,1.4-11.7,1.5-36.8
	c0.6-65.9,0.4-73.1-1.6-88.7c-1.2-9.9-1.4-10.3-5.5-14.6c-3.5-3.7-5-4.5-9.4-5.1c-2.8-0.4-5.7-0.9-6.4-1.1
	C595.5,13.1,593.9,13.4,592.6,14z M580.4,212.3c0,1.4-0.4,2.5-1,2.5c-1.1,0-1.4-3.3-0.3-4.3C580.2,209.4,580.4,209.7,580.4,212.3z
	 M532.4,218.9c3,0.1,6,0,6.5-0.1c8-1.9,4.7,8.5-5.6,17c-5.4,4.5-6.5,5-10.7,5c-6.6-0.1-15.6-5.3-18.8-11c-2.7-4.7-3-6.5-1.2-7.6
	c2.2-1.4,18.3-4.3,21.3-3.9C525.6,218.6,529.4,218.8,532.4,218.9z"/>
<path d="M1464.7,30c-1.6,2-3.1,7.7-3.7,14.1c-0.3,3.2-1,6.6-1.5,7.5c-0.4,0.9-1.1,5.5-1.5,10.2c-0.3,4.7-1,14.1-1.6,21
	c-1,12.3-2.1,31.9-4,69.5c-1,18.5-2.4,33.6-5.4,58c-0.8,6.6-1.4,12.7-1.3,13.5c0.1,0.8-0.4,4-1,7c-1.6,7.9-3.3,26.3-3.3,35.4
	c0,6.4,0.4,8.4,2.2,10.9c3.7,5.4,10.8,11.4,17.3,14.7c5.8,3,6.6,3.1,13.4,2.4c8.8-0.8,10-2.2,12.6-14.4c0.9-4.7,2.3-9.2,3.1-10
	c0.7-0.9,2.5-4.3,3.9-7.5c1.5-3.3,3.7-7.6,5-9.5c1.2-1.9,2.6-5.6,2.9-8.2c0.4-2.8,1.9-6.3,3.8-9c1.8-2.4,4.5-6.8,6-9.8
	c3-5.8,3.8-7.2,7.7-13.4c1.8-2.8,2.6-3.4,3.2-2.4c3,4.7-4.6,33.4-12.2,45.6c-2.1,3.5-3.9,7.2-3.9,8.4c0,3.6,3,8.2,8.3,12.6
	c11.2,9.4,17.6,12.1,22.9,9.9c3.5-1.5,8.8-6.9,8.8-9.1c0-0.7,1.6-4.3,3.6-8c6.2-11.8,8.4-19.1,10-33.2c1.5-13,1.5-13.6-0.6-22.1
	c-1.3-5.3-3-9.8-4.4-11.3c-1.2-1.4-2.8-3.8-3.6-5.3c-1.5-3-12.5-10.7-19.5-13.7c-6.9-2.9-15.5-4.1-21.4-3c-6,1.1-14.4,6.3-19.2,11.8
	c-5.7,6.6-6.1,6.4-5.5-2.5c0.4-4.3,0.9-13.4,1.1-20.3c0.3-6.9,0.7-14.5,1-17c0.2-2.5,0.7-10.6,1-18c0.3-7.4,0.9-18.8,1.4-25.4
	c0.6-7.7,0.5-14.3-0.1-18.8c-0.8-5-0.7-7.6,0.1-9.4c1.8-3.9,1.5-33.5-0.4-38.1c-1.4-3.5-7.4-8.3-15-12.1
	C1471.2,29.2,1465.7,28.7,1464.7,30z"/>
<path d="M28.9,70.7c-4.8,0.6-5.1,0.8-6.4,4.6c-1,2.9-1.5,10.7-1.7,28.5c-0.2,13.5-1,31.5-1.9,40s-1.8,19.1-2,23.5
	c-0.7,14.1-4,44-7.5,67C7,250,2.2,276.8,1,280.9c-2,6.9-1.1,10.6,3.3,12.9c2,1.1,4.8,3,6.3,4.2c3.4,2.7,16.5,3.8,20.4,1.7
	c4.5-2.4,7.3-8.6,7.9-17.5c0.3-4.3,0.9-10.2,1.4-12.9c0.5-2.8,1.4-7.9,2.1-11.4c0.6-3.6,1.3-6.8,1.6-7.2c0.7-1.2,5-39.9,6.9-61.9
	c1.2-14,1.5-24.4,1-37c-0.8-25-2-41.3-2.9-42.8s0.2-7.2,1.4-7.2c0.5,0,3.7,1.3,7.2,2.9c10.5,4.7,10.1,4.6,27.9,7.4
	c9.2,1.4,26.1,1.3,31.9-0.3c1.9-0.6,5-1,6.8-1c3.9,0,3.9,0,0.6,15c-1.3,6.3-3.1,14.9-4,19c-0.8,4.1-1.9,8.8-2.4,10.5
	c-0.5,1.6-1.4,6.1-2,10c-1.1,6.8-2.8,15.3-7,34.2c-1.1,5-2,10.4-2,11.9c0,2.4-2.2,13.3-5,24.4c-0.5,1.9-1.2,6.9-1.5,11.2
	c-0.3,4.2-1.2,10.7-2,14.5c-0.8,3.7-1.8,13.1-2.2,20.9l-0.6,14.1l3.7,4c2,2.3,4.9,4.3,6.4,4.6c1.5,0.3,4.5,1.1,6.7,1.7
	c10.5,3.2,18.9,1.6,20.1-3.8c0.3-1.5,0.8-3.6,1.1-4.7c0.4-1.1,0.5-5.4,0.4-9.5c-0.4-12.6-0.2-15.2,1.5-21.4c0.9-3.4,2-9.9,2.5-14.6
	c0.8-8.9,2.9-19.4,4.2-20.6c0.4-0.4,0.7-2.2,0.7-4s0.5-4.5,1.1-6.1c0.6-1.5,1.4-6.4,1.8-10.8c0.5-4.4,1.5-11.4,2.4-15.5
	c0.9-4.1,2-10.9,2.6-15c2.6-18.3,6-32.1,8.5-34.2l2.1-1.8l-2.2-0.6c-2.6-0.7-2.9-2.8-0.8-6.4c0.9-1.6,1.4-5.4,1.5-10.2
	c0-5.4,0.6-9.4,2-13c1.3-3.3,2.3-9,2.7-14.9l0.6-9.5l-3.7-3.6c-5.2-5.1-9.6-6.9-18-7.5c-6.5-0.5-8.7-0.1-19.2,3
	c-26.2,8-38,9.6-46.1,6.2c-1.9-0.8-4.4-1.5-5.4-1.5c-1.8,0-3.7-0.9-19.8-9.9c-4.1-2.3-8-4.1-8.8-4.1c-0.8,0-2.2-0.4-3.1-0.9
	C38.9,70.6,34.3,70.1,28.9,70.7z"/>
<path d="M889.8,125.9c-1.4,1.6-2.6,1.9-5.5,1.4c-3.3-0.6-3.9-0.3-5.8,2.3c-5.2,7.3-2.8,13.5,9.1,24.3c7.2,6.5,8.6,8.3,20.3,26.4
	c7,10.8,13.5,22.9,13.5,25.4c0,0.9,0.4,2.1,0.9,2.6c0.5,0.6,1.9,3.7,3,7c1.9,5.9,1.9,6,0.1,7.9c-1.8,1.8-1.9,1.8-6.4-0.8
	c-2.5-1.5-4.6-3.2-4.6-3.8c0-0.6,1.1-2.6,2.5-4.4c4.2-5.5,3-11.4-2.5-11.4c-1.4,0-3.8-0.7-5.4-1.5c-5.2-2.7-29.3,0.5-34.3,4.6
	c-3.6,3.1,0.8,13.8,8,19.4c10.7,8.1,16.9,12.4,18.9,13.1c1.3,0.4,5,1.9,8.3,3.4c14,6.5,28.5,9.7,36.1,8c9.8-2.2,12.4-6,13.2-19.1
	c0.4-7.9,0.2-9.7-2.7-18.6c-3.3-10-10.7-25.5-19.1-39.8c-6.5-11.1-14.7-23.2-16.8-24.7c-1-0.7-3.7-3.8-6.1-6.9
	c-4-5.1-16-13.9-19.1-13.9c-0.6,0-1-0.4-1-0.9C894.4,124,891.5,124,889.8,125.9z"/>
<path d="M810.9,140.5c-11.1,2.6-11.9,4.4-11.9,28.1c-0.1,16.8,0.1,18.6,3.7,34.7c5.4,24.5,10.1,38.7,15.3,46.2
	c6.4,8.9,9.8,12,14.3,12.8c2.2,0.3,4.7,1.3,5.8,2c3.9,3,14.2,0.7,17.2-3.9c1.5-2.3,1.8-5.2,1.8-20.4c0.1-20.8,2.8-38.9,6.8-45.8
	c2.9-5,3.3-8.6,1.6-13.7c-1.1-3.2-2.2-4.2-6.9-6.4c-7.8-3.6-16.4-3.7-21-0.5c-1.8,1.3-3.9,2.2-4.6,1.9c-1.4-0.6-3-9.1-2.7-14.8
	c0.5-8.6-3.8-16.1-10.8-18.7C814.5,140.2,813.2,139.9,810.9,140.5z"/>
<path d="M2062.3,145.4c-1.2,3.1,0,20.4,2,29.4c0.6,2.5,1,7.8,1.1,11.9c0,8.6-1.2,11.1-11.5,24.5c-19.4,25.1-45.9,43-68.2,46.1
	c-4.7,0.6-5.4,0.4-7.8-1.9c-1.9-1.9-2.5-3.5-2.5-6.8c0.1-8.2,2.7-22.3,4.9-26.6c2.1-4.1,2.4-4.3,5.4-3.7c1.8,0.4,3.8,1.2,4.6,1.8
	c0.8,0.7,5.6,1.1,12,1.1c9.1-0.1,11.5-0.5,17-2.8c3.6-1.4,7.3-3.4,8.4-4.3c6.8-6.2,12.3-20.6,10.2-27.3c-2.4-8-11.4-18.3-21-24
	c-4.8-2.8-15.2-5.9-21.7-6.5c-4.1-0.4-5.6,0.1-10.3,2.9c-25.3,15.2-45.8,52.1-44.1,79.4c0.6,9.2,2.4,14.5,7,20.9
	c9.7,13.4,15.6,18.3,30.2,25.5c6.6,3.3,7.4,3.4,16.9,3.2c5.5-0.1,11.3-0.7,12.8-1.3c1.6-0.6,4.3-1.1,6-1.1c1.8,0,4.3-0.7,5.5-1.6
	c1.2-0.8,4.5-2.2,7.2-3c4.6-1.4,7.2-3.2,18-12.8c0.8-0.7,2.9-2,4.6-2.9c1.6-0.9,5-3.5,7.4-5.9c4.5-4.4,14-16.6,14-18
	c0-0.5,0.6-0.8,1.4-0.8c0.9,0,2.2,2.9,3.6,8.1c3.7,13.7,7.9,21.5,15.8,29.6c5.4,5.4,8.3,7.5,12.3,8.8c12.7,4.3,21.2-2.3,25.2-19.5
	c3.4-14.4,3.8-18.7,3.3-29c-0.3-5.8-0.8-16.2-1.2-23.2l-0.6-12.7l2.6-1.6c2-1.3,4.5-1.6,11.8-1.4c7.2,0.2,10-0.1,12.4-1.4
	c3.8-1.9,4.4-3.4,4.4-9.6c0-5-0.2-5.2-9.9-11.9c-5.5-3.8-26.8-6.6-39.6-5.2c-3.8,0.5-7.2,0.6-7.4,0.4c-0.3-0.3-0.6-2.1-0.7-4.2
	c-0.3-6.3-1.6-10.2-3.6-11.3c-1.1-0.6-4.2-3.1-6.8-5.6c-6.8-6.5-9.2-7.4-20.2-8l-9.7-0.6L2062.3,145.4z M2101.9,208.3
	c1,12.5,0.8,27.6-0.4,30.7c-0.7,1.7-1,1.9-1.4,0.8c-1-3.3-2.8-17.1-3.3-27c-0.6-8.9-0.4-11.1,1.1-14
	C2100.3,194.2,2101,195.9,2101.9,208.3z"/>
<path d="M2311.4,146.7c-9.4,3-14.2,6.1-22.8,14.5c-7.7,7.4-14.3,16.7-18,25c-2,4.6-2.2,2.7-0.7-6.4c1.3-8.1,1.3-8.6-0.6-11.2
	c-1-1.5-1.9-3.2-1.9-3.8c0-2.4-4.1-8.7-7.2-11.1c-3.3-2.6-6.5-3.7-12.5-4.5c-2.7-0.3-3.6,0.2-6.1,3.4c-3.2,4-4.9,8.7-10.1,27.2
	c-4.5,16-6.4,21.3-7.7,21.7c-0.7,0.2-1.7-1.7-2.3-4.4c-2-8.1-7.3-17.6-10.6-19.2c-1.7-0.7-4.1-2.4-5.5-3.6
	c-3.8-3.5-6.5-4.5-11.4-4.5c-3.8,0-4.8,0.4-6.5,2.9c-2.6,3.7-2.7,7.1-0.1,10.4c1.1,1.4,2,3.9,2,5.6s1.1,8,2.5,13.9
	c3.9,16.7,4.7,19.6,5.6,20.6c0.5,0.6,0.9,2.7,0.9,4.8c0,2.4,1.1,5.5,3,8.6c1.7,2.7,3,5.4,3,6c0,2.9,3.6,8.1,6.5,9.5
	c1.8,0.9,4.8,3.5,6.7,5.7c5.8,7.3,14.4,9.9,23.2,7c2.7-0.9,4.5-2.5,7.1-6.6c5-7.8,8.5-15,8.5-17.6c0-2.4,3.7-16.8,4.4-17.6
	c1.1-1,2.6,1.1,2.6,3.6c0,5.5,6.5,20.6,12,27.7c6.8,8.9,18.6,18.1,27.5,21.6c7.3,2.8,8.7,3.1,16.1,2.6c6.8-0.5,9-1.1,13.2-3.6
	c2.7-1.7,5.4-3.1,5.9-3.1c0.6,0,2.1-0.8,3.4-1.9c1.3-1,3.9-2.2,5.7-2.6c3.9-0.8,23.3-18.4,26.1-23.6c1.2-2.2,1.7-4.6,1.3-6.9
	c-1.1-8.2-2.6-8.1-28.7,1.4c-16.1,5.9-36.9,9.8-44.3,8.1c-2.7-0.5-3.2-1.2-4.3-5.7c-0.8-3.4-1-8.4-0.5-14.7c0.7-11,1.9-16,4.5-19.3
	l1.9-2.3l3.8,1.9c10.4,4.9,28,3,38.1-4.2c1.7-1.2,3.5-2.2,4.1-2.2c1.3,0,5.2-5.3,8.2-11c3.8-7.3,4.2-11.5,1.8-19.5
	c-1.7-5.9-2.9-7.8-7.4-12.2c-2.9-2.9-8.4-6.8-12.3-8.8c-6.3-3.1-7.9-3.5-14.8-3.4C2320.1,144.9,2314.6,145.6,2311.4,146.7z"/>
<path d="M1114.1,152.6c-2.8,0.6-3.9,4.7-2.3,8.5c1.9,4.6,13,14.2,20.5,17.7c10.5,5,15.2,9,18.9,16.2c1.7,3.4,4.1,7.6,5.2,9.3
	c1.1,1.6,2,3.3,2,3.8c0,0.8-10.8,0.1-19.1-1.3c-7.6-1.2-27.9-0.7-30.6,0.8c-4.6,2.6-2,11.5,6.8,22.7c5.2,6.8,20.9,22.5,25,25.2
	c17.1,11,33.3,16.7,44.2,15.6c8.3-0.8,14.5-5.9,16.8-13.5c0.9-3.2,2-9.3,2.4-13.7c0.6-6.9,0.4-8.9-2-16.5c-1.5-4.7-3.7-10-4.9-11.8
	c-1.2-1.8-2.9-5.4-3.9-7.9c-2-5.3-7.1-13-14.4-22c-8.6-10.4-15.3-15.6-28.8-22.4c-4.9-2.5-9.7-5-10.5-5.4
	C1136.2,156,1117,152,1114.1,152.6z M1165.2,232c2.6,2.6,0.8,13.8-2.2,13.8c-1.6,0-10.6-9.6-10.6-11.4c0-2.3,2.5-3.6,7-3.6
	C1161.9,230.8,1164.5,231.3,1165.2,232z"/>
<path d="M1886.4,156c-6.3,0.4-18.5,1.1-27,1.7c-8.5,0.5-17.3,1.5-19.5,2.3c-3.4,1.1-4.1,1.9-4.9,5c-0.8,3.4-0.5,4.6,2.9,11.3
	c2.1,4.1,4.1,7.5,4.6,7.5c0.4,0,2.5,2.5,4.5,5.6c2,3,4.8,6.3,6.2,7.2c1.4,0.9,6.4,5.4,11.1,9.9c4.7,4.6,10,9.3,11.8,10.5
	c7.9,5.7,15.1,11.4,18.1,14.5c2.6,2.8,3.2,4.2,3.2,7.8c0,6.1-1.5,8.9-6.4,11.6c-6,3.5-12,4.8-21.7,4.9c-8.3,0.1-8.8,0-17-4.4
	c-10.7-5.7-20.5-7.8-24.3-5.2c-1.4,0.9-2.6,2.5-2.6,3.5c0,5.7,8.9,19,14.5,21.7c1.9,0.9,5.4,3.3,7.7,5.3c5.4,4.8,7.1,5.7,16.6,8.7
	c18.4,5.8,30.6,5.9,52.7,0.2c2.2-0.5,6.3-2.7,9.2-4.9c4.4-3.3,5.4-4.7,7.3-10.4c1.7-5.1,2-7.7,1.5-11.7c-1.2-8.8-5.2-18.8-9.5-23.9
	c-2.2-2.6-4-5.2-4-5.8c0-1.1-14.1-14-17.1-15.6c-4.2-2.3-20.9-17.8-20.9-19.5c0-1,1.2-2.2,2.8-2.8c2.4-0.9,17.3-3.1,21.2-3.1
	c0.8,0,3.5-0.5,6-1.1c2.5-0.6,6.8-1.4,9.5-1.8c5.2-0.9,9.5-2.7,10.7-4.6c0.4-0.6,0.8-4.1,0.8-7.8c0-7.4-1-9-6.2-10.6
	c-10.1-3-18.4-4.8-25.4-5.6c-1.7-0.1-3.5-0.5-4-0.7C1898.3,155.4,1892.7,155.6,1886.4,156z"/>
<path d="M725.9,168.3c-3.8,1.9-8.8,5.2-11.1,7.2c-3.9,3.7-11.4,13.3-11.4,14.8c0,0.4-0.9,3.7-2.1,7.5c-1.5,5.1-2.6,7-4.5,7.8
	c-1.3,0.7-3.4,3.2-4.6,5.6c-2,4.2-2.1,4.8-0.8,10.2c0.8,3.2,3,8,4.9,10.8c5.1,7.5,12.2,15.6,13.6,15.6c0.7,0,4.6,1.6,8.6,3.6
	c11.3,5.6,25.7,7,35.1,3.4c19.7-7.6,33.4-20.2,38.3-35c0.9-3,2.1-6.2,2.4-7c1.3-2.7,0.4-16.6-1.3-19.8c-0.9-1.7-1.6-3.7-1.6-4.5
	c0-2.5-9-11.7-13.9-14.2c-15.8-8.1-20.6-9.4-34.6-9.4C733.5,164.8,732.5,165,725.9,168.3z M757.5,189.8c1.5,0.8,1.9,2.2,1.9,6.1
	c0,8.4-2.5,14.9-8.1,21.2c-6,6.7-7.8,7-14.3,2.6c-4-2.6-4.6-3.5-4.6-6.5c0-4,4.6-12.7,9-16.9c2.3-2.2,10.1-6.4,13.8-7.4
	C755.4,188.8,756.4,189.3,757.5,189.8z"/>
<path d="M200.8,171.7c-0.5,0.4-3.1,1.6-5.7,2.5c-6.1,2.3-8.3,5.4-6.8,9.6c1.6,4.8,4.6,7.9,11.5,12.4c10,6.5,16.7,11.8,16.3,12.9
	c-0.3,1-6.9,3-14.3,4.2c-5.5,0.8-11.9,5.7-14.7,10.9c-4.6,8.7-1.4,32.6,5.5,40.5c7.6,8.8,20,19.4,25.9,22.1c2.4,1.2,5.9,3,7.8,4.1
	c1.8,1.1,6.8,3.2,11,4.6c6.5,2.3,9.3,2.7,19.1,2.7c10.3,0.1,12.1-0.2,17-2.5c7.3-3.4,11.7-7.3,12.5-10.9c0.4-1.6,1.1-3.2,1.6-3.5
	c2.7-1.7-0.6-22-3.8-23.2c-0.7-0.3-1.3-1.1-1.3-1.9c0-1.8-3.5-8.6-8.1-15.7c-2.1-3.1-4.6-7.3-5.5-9.3c-0.9-1.9-2.8-4.2-4-5.1
	c-1.4-0.9-2.4-2.5-2.4-3.8c0-1.2-0.7-2.8-1.6-3.6c-0.8-0.7-2.4-2.9-3.4-4.8c-1.7-3.4-18.6-21.2-29.3-30.9
	c-4.6-4.3-11.6-7.6-18.7-9.1c-1.9-0.4-4.4-1.3-5.6-1.9S201.3,171.2,200.8,171.7z M233.9,234.4c2.4,1,11.7,15.1,14.3,21.9
	c6.2,16.2,4.7,22.3-4.8,19c-4.2-1.5-6.7-3.5-14.5-11.2c-3.8-3.8-4.4-5.1-5.9-12.6c-1.3-6.4-1.4-9-0.6-11.3
	C224.3,235.1,229.2,232.6,233.9,234.4z"/>
<path d="M1385.9,176.1c-3.8,1.9-8.7,5.1-10.7,7.1s-4,3.6-4.4,3.6c-0.3,0-2.2,1.3-4.1,3c-1.8,1.6-4.3,3-5.4,3c-1.2,0-2.3,1-3,2.7
	c-0.5,1.6-2.9,4.8-5.3,7.3c-5.8,6.1-17.8,24.1-20.9,31.5c-7.6,18.3-7.8,19.3-5.1,28.5c1.3,4.6,3,6.7,10.7,14.4
	c13.3,13.2,23,18.4,39.7,21.2c7.6,1.3,9.3,1.3,16-0.1c9.1-1.9,21.2-7.9,24.8-12.1c10.9-12.7,14.8-20.7,15.8-31.7
	c0.3-4.5,1.5-10.3,2.6-12.9c2-4.7,1.8-6.8-0.7-6.8c-0.7,0-1.6-1.2-2-2.7c-0.4-1.6-1.1-3.4-1.7-4c-1.8-2.2-5.8-1.5-8.1,1.3
	c-6.1,7.5-28.9,29.5-33.8,32.6c-10.5,6.9-20.9,9.6-22.8,6c-1.3-2.4-0.1-14.9,1.5-16.3c0.8-0.6,1.4-1.8,1.4-2.5
	c0-5.1,11.9-24.2,18.2-29.1c1.9-1.6,6.3-5.9,9.9-9.7c3.5-3.8,9-9.4,12.2-12.5c9.7-9.6,9-15.6-2.6-21
	C1398.1,172.2,1394.2,172.1,1385.9,176.1z"/>
<path d="M1633.9,178.7c-1.1,0.5-4,1.2-6.5,1.6c-7.6,1.2-14.5,5.2-21.4,12.2l-6.5,6.5l-5.8-1c-5-0.9-6.1-0.8-8.3,0.7
	c-3.5,2.5-4.1,12.6-1,17.7c2.4,4.2,2.5,5.9,0.5,9.8c-0.9,1.6-2,6.1-2.5,9.9c-0.6,3.8-1.2,7.2-1.4,7.6c-1,1.8,1.7,15.2,4.1,20.1
	c3,6.1,10.9,14.6,19.5,20.8c3.1,2.3,5.9,4.6,6.2,5.1c0.4,0.5,3.9,2.2,7.9,3.7c5.8,2.3,8.8,2.8,15.7,2.9c9.7,0,14.2-1.6,23.8-8.5
	c11.1-8,18.7-13,22-14.5c1.9-0.9,4.5-3.6,6.3-6.5c1.6-2.7,3.9-5.2,5-5.5c1.1-0.4,2.9-2.6,3.9-5c1-2.3,2.3-4.6,2.9-4.9
	c1.7-1.1,2.5-9.4,1-11.2c-1.7-2.1-9.6-1.2-15.9,1.9c-2.5,1.2-4.9,2.1-5.3,1.9c-0.4-0.1-4,1.3-8,3.2c-13,6.2-23.1,10.4-29.2,12.1
	c-3.3,0.9-6.4,2.1-7,2.5c-0.9,0.7-7.7,2.4-9.9,2.5c-1.3,0-3.6-8.3-3.6-13.3c0-2.3,0.6-5.8,1.4-7.6c1.3-3.1,1.8-3.3,7.2-3.9
	c11.3-1.1,16.5-3.5,29.4-13.4c14.3-11,17.7-32.7,6.2-38.7c-1.7-0.9-4.4-3-6.1-4.7c-2.3-2.3-3.8-3-5.4-2.5c-1.3,0.3-4.5-0.1-7.1-0.9
	C1640.6,177.7,1637,177.5,1633.9,178.7z"/>
<path d="M1500.5,364.5c-2.3,1.6-2.4,1.8-1.8,13.2c0.4,6.4,1.1,13.8,1.6,16.6c0.5,2.7,1.2,15.1,1.6,27.5c0.3,12.4,1,27,1.5,32.5
	c2,21.1,3.9,49.6,4.6,83.5c0.7,36.4,0.9,37.8,8.5,48.8c5.5,8.1,7,9.8,10.6,11.6c4.5,2.3,7.6,2,10.4-1c2.9-3.1,2.9-4.3,0.6-36.4
	c-0.9-12.4-2.1-30.4-2.7-40c-0.8-13.6-2.4-29.8-3.1-36c-1.1-10.2-2.4-23.5-3-29.5c-1.3-15.7-4.7-43.5-6.4-53.5
	c-0.9-4.7-1.5-9.2-1.5-10c0-4.3-10.8-24.5-14.8-27.8C1504.5,362.4,1503.3,362.5,1500.5,364.5z"/>
<path d="M1644.9,374.2c-5.7,2.5-5.6,1.3-4.5,38.7c0.6,18.9,1.5,42.2,2,51.8c0.5,9.5,0.8,17.6,0.6,18c-0.3,0.4-0.6,7.7-0.7,16.2
	c-0.1,4.5-0.1,15.7-1.7,24.7c-1.5,9.2-1.5,9.4,0.7,13.9c1.2,2.6,4.3,7.3,6.9,10.6l4.7,5.9l-3,2.4c-1.7,1.3-3.3,2.4-3.6,2.4
	c-1.6,0-5.9,8.3-5.9,11.4c0,6.2,7.3,19.8,14.2,26.2c6.2,5.9,17.9,9.5,36.8,11.3c24.4,2.5,31,1.7,43.1-4.6c8.3-4.4,10.9-7.3,15-16.5
	c4.5-10.2,4.9-25.3,0.8-30.2c-0.5-0.6-2.8-4-5.2-7.5c-4.7-7.2-12-15-18.7-19.9c-8.8-6.5-22.6-14.9-27.5-16.7c-2.7-1-5.7-2.4-6.5-3
	c-2.1-1.6-11.2-7.5-16.9-7.5h-4.8l-1.1-14.8c-0.7-10.3-1.4-25-1.7-32.7c-0.3-7.7-1-16.5-1.6-19.5s-1.4-13.4-1.8-23
	c-0.9-18.1-1.3-20.4-6.2-30.7c-2.3-4.8-3.6-6.4-6.1-7.2C1648.4,372.6,1648.6,372.6,1644.9,374.2z M1705.5,540.3
	c8.3,3.2,20,11.3,21.7,14.8c3,6.1-4.2,15.8-14.4,19.7c-6.3,2.4-4.7,2.3-35.9,0.4c-15.4-0.9-16.4-1.6-16.8-12.9
	c-0.2-3.8-0.1-4,3.2-4.5c2.6-0.4,3.6-1.1,4.1-3c1.9-7.2,8.1-15.6,12.4-17C1685.2,536.1,1698.2,537.4,1705.5,540.3z"/>
<path d="M785.4,401.5c-3,2.8-3,2.9-4,17.8c-0.6,8.2-1.5,17.9-2,21.5c-0.5,3.6-1.2,8.5-1.5,11s-2.4,13.3-4.6,24
	c-2.3,10.7-4.3,20.5-4.5,21.8c1.2-6-4.8,2.5-8,0.6c-9.9-6.2-11.3-6.6-21.4-6.7c-5.2,0-12.2,0.5-15.5,1.2
	c-21.8,4.7-33.9,9.3-37.4,40.9c-0.5,4.6-1.2,8.6-1.5,8.9c-0.3,0.4-1.7,0.1-3-0.7c-2.1-1.1-2.9-1-5.7,0.6c-5.5,3.3-7,6.3-8,16.1
	c-1.8,17.4,4.2,32.4,18.6,46.8c6.8,6.8,9.6,8.5,20.9,13c6.1,2.4,7.8,2.7,16,2.3c10.9-0.5,15-2.2,24.4-10.7
	c13.4-11.9,16.3-13.9,22.1-14.6c4.3-0.5,6.1-1.4,8.2-3.6c3.3-3.6,6.7-12.2,8-20.4c1.3-8.3,1.7-9.2,5.1-13c2.1-2.4,3.2-5.1,3.8-8.7
	c0.8-5.4,2.8-14.5,5.6-25.3c2.2-8.4,3.4-18.3,3.9-23.5c0.3-2.5,1.4-5.7,2.5-12c4.1-24.4,4.9-54.6,1.6-68.5
	c-1.3-5.5-2.1-6.6-9.6-13.8c-4.5-4.2-8.8-7.7-9.5-7.7C789.1,398.8,787.1,400,785.4,401.5z M758.8,523c2.5,1.3,1.8,6-2.4,16
	c-4.8,11.6-10,18.3-10,12.9c0-3.3-3.8-6.1-8.5-6.1c-3.4,0-5.2,0.8-10.5,4.9c-10,7.8-12.4,7.4-10-1.7c1.8-6.8,5.1-11.9,11.7-18.4
	c5-4.9,6.8-6,12.8-7.6C748.9,521.1,755,521.1,758.8,523z M705.9,581.4c3.3,2.2,3.2,3.6-0.2,3.2c-2-0.2-2.9-0.9-3.1-2.6
	C702.2,579.4,702.7,579.3,705.9,581.4z"/>
<path d="M1358.9,403c-2.9,1.6-3.5,2.9-2.8,5.8c1.8,7.6,11.6,20,15.8,20c5.2,0,6.2-5.5,2.7-14.9c-2.2-6-3.4-7.8-6.4-9.7
	C1364.1,401.6,1361.9,401.3,1358.9,403z"/>
<path d="M1888.5,419.2c-2.3,2.4-3.3,5.4-5.3,15.3c-1,4.5-0.8,6.4,1.2,13.8c2.4,8.8,2.4,8.8,8.2,9.7c1.9,0.3,10.4-5.3,17-11.1
	c3.5-3.1,3.8-3.8,3.8-8.5c-0.1-6.4-4.9-16-9.9-19.3C1898.7,415.9,1891.6,415.9,1888.5,419.2z"/>
<path d="M1578.9,420.4c-3.1,3.4-3.3,9-0.5,14.2c5.4,9.8,6.7,11.7,9.1,13.5c1.4,1,4.1,1.9,5.9,2c2.8,0.2,3.8-0.4,5.7-3.2
	c3.3-4.9,2.9-8.2-2.3-17.3C1590.1,418.1,1584,414.9,1578.9,420.4z"/>
<path d="M144.2,455.4c-2.6,1.3-2.7,1.8-2.1,6.2c0.6,4.6,3.3,10.9,7.2,16.7c1.8,2.5,1.8,3.1,0.5,3.8c-0.8,0.4-1.2,1.3-0.8,1.8
	c0.4,0.7,1,0.6,1.9-0.1c1.9-1.6,9.9,3.3,17.4,10.8c3.6,3.4,7,2.6,7.6,3c1.7,1.1,5.4,10.7,9.6,18.7l3.9,7.4l-2.7,0.3
	c-1.6,0.2-4.6,0-6.8-0.4c-5.6-1-20.3-0.9-24.8,0.1c-5.1,1.2-17.3,9.4-19.6,13.1c-5.7,9.5-4.9,24.6,2,38.4c2.2,4.4,5,9.2,6.2,10.7
	c1.2,1.6,3.6,4.7,5.2,6.9c6.3,8.5,7.9,10.1,11.9,12.2c2.2,1.1,5.9,3.3,8.2,4.9c6,4.1,14.8,7,24.2,8c13.8,1.5,19.5-1.4,33.3-16.9
	l5.6-6.2l4.6,2.6c2.6,1.4,4.9,3,5.2,3.5c0.4,0.5,2.1,0.9,3.9,0.9c1.9,0,3.9,0.7,4.7,1.6c0.7,0.8,2,1.3,2.9,1.1
	c0.9-0.2,6-0.1,11.3,0.4c9.1,0.7,10.4,0.6,20.4-2.2c16-4.5,30.3-11.9,32-16.7c0.3-0.9,1.4-2.8,2.3-4.2c2.7-4,3.2-13.1,0.9-17.4
	c-1-2-1.9-4.1-1.9-4.7c0-1.7-14.1-18.8-19.9-24.1c-5.4-5-6.2-6.7-3.3-6.9c0.9,0,2.8-0.2,4.2-0.5c1.4-0.2,6.1-0.5,10.5-0.7
	c4.5-0.2,9.1-0.9,10.6-1.8c1.5-0.7,4.5-2.4,6.9-3.7c3.7-2.1,4.1-2.6,3.5-5c-0.4-1.5-0.9-4.3-1-6.2c-0.5-4.1-2.4-9.8-12-14.4
	c-6.6-3.3-7.8,0.5-23.5-0.5c-20.8-1.4-45.4,0.4-47.7,3.5c1.4-1.9-4.8,0.7,0.6,11.2c1,2,2.6,5.4,3.6,7.4c2.1,4.3,12.3,15.2,18,19.1
	c2.2,1.4,8,6.5,13,11.1c8.9,8.4,8.9,8.5,7,10.6c-5.3,5.8-26,12.9-40.5,13.7c-13,0.7-18-0.8-18-5.5c0-1.5-0.7-3.7-1.5-4.8
	c-0.8-1-1.5-3.4-1.5-5.2c0-1.8-0.5-4.2-1.1-5.4c-0.6-1.1-1.4-4.5-1.9-7.7c-0.8-5.4-5.7-16.6-14.9-33.7c-17.7-33.5-27.6-39-55.8-53.3
	c-3.4-1.7-6.4-3.1-6.5-3.1C147,453.9,145.7,454.5,144.2,455.4z M197.5,558c0.3,2,0.2,6.9-0.3,10.9c-1.1,9.4-4.3,14.4-11.8,18.1
	c-7.9,3.9-12.3,3.1-16.9-3c-4.4-6-4-11.1,1.3-17.7c4.2-5.1,14.5-11.6,17.3-10.9c1,0.3,2.9,0.1,4.3-0.5
	C195.4,553.3,196.8,554,197.5,558z"/>
<path d="M968.5,456.4c-2.1,1.7-3.1,3.5-3.1,5.2c0.1,3.7,3.1,10.1,6.7,14.3c4.7,5.3,6.3,11.4,6.3,24.1c0,7.2-1.9,33.8-4.4,36.7
	c-2,2.2-5.5,5.1-25.9,20.9c-8.4,6.5-16.5,11.7-17.2,11.1c-0.5-0.5,5.8-10.5,8.3-13.3c4-4.4,4.8-17.5,1.7-25.6
	c-0.7-1.9-1.6-4.7-1.9-6.1c-0.8-3.5-9.2-14.6-11.6-15.4c-1.1-0.3-3.9-6.4-6.2-8.6c-2.4-2.2-7.2-1.4-10.7-3.2
	c-5.4-2.6-7.8-3.2-15.5-3.5c-12.3-0.6-20.1-2.2-30.1,5c-6.4,4.7-13.2,16.8-18,25.6c-2.2,4.1-3.3,5.2-4.7,4.8c-1-0.3-2.7-0.9-3.7-1.2
	c-1.3-0.4-2.8,0.2-4.5,2c-2.3,2.2-2.6,3.4-2.6,9.3c0,3.8,0.7,8.6,1.7,11.1c1.4,3.8,1.5,5.3,0.3,12.5c-1.3,8.9-1,19.6,0.9,26.5
	c1.7,6.5,8.3,17.9,14,24.3c6.2,6.9,11.4,10.1,20.5,12.3c13.8,3.4,27.6,1.6,41.3-5.3c4.3-2.1,10-4.6,12.8-5.5c2.7-1,7.6-3.5,10.9-5.8
	c3.2-2.2,10.6-6.5,16.3-9.5c5.7-3.1,11-6.4,11.6-7.5c0.7-1.1,5-4.4,9.7-7.5c4.7-3,9.7-6.6,11.1-7.9l2.6-2.5l3.9,3.2
	c7.2,5.7,8.7,6.1,14,4.2c5.8-2.2,8.2-5.3,9.1-11.7c0.5-3.9,1.7-6.3,5.2-10.6c7.3-9,24.2-27.4,26.6-29c4.9-3.3,9.4-7.9,11-11.3
	c1.6-3.4,1.6-3.9,0-8.8c-6.5-19.3-3.1-9-15.4-17c-5.6-3.6-7.2-3.6-11.5,0.1c-1.9,1.7-4.8,3.5-6.5,4.1c-1.7,0.6-3.1,1.5-3.1,2
	c0-9-7.3,8.9-9,8.9c-1.1,0-2-5-2.3-6.8c-0.9-4.2-3.3-10.3-4.5-14.7c-0.6-2.2-1.4-5.2-1.6-6.6c-0.6-2.8-19.3-22.7-23.3-24.8
	C974.3,453.2,971.8,453.6,968.5,456.4z M909.3,525.7c0.8,0.5,1.1,1.6,0.8,2.4c-1.1,2.9-12.7,11.6-20.2,15.2
	c-6.6,3.1-12.5,4.5-12.5,2.9c0-1.3,7.6-10.3,12.2-14.4C896.4,525.9,905.2,523.1,909.3,525.7z M875.5,586.5c3.8,0.9,6.9,2,6.9,2.4
	c0,1.1-10.4,3.1-13.7,2.7c-3.1-0.3-4.2-3-2.3-5.3C867.9,584.5,867.2,584.5,875.5,586.5z"/>
<path d="M1763.3,467.6c-1.5,0.2-3.7,1.4-4.9,2.7c-2,2.1-2.3,3.9-3.1,17.2c-0.9,15-1.3,13.2,0,35.8c1,17.5,1.7,24.6,3.2,31.5
	c1.1,5,2.9,17.4,3.1,20.5c0.3,6.8,2.2,17.3,3.4,19.2c0.8,1.2,1.4,2.7,1.4,3.3c0,1.6,8.4,12.3,12,15.4c6.4,5.3,11.2,4.6,14.2-2.1
	c1.5-3.4,1.8-5.7,1.4-9.2c-1.4-10-1.7-25-0.7-33.6c2.7-22.2,4.3-28,9.2-33.1c2.8-2.9,3.5-3.1,6.2-2.3c4.4,1.3,12.1,1.1,15.2-0.3
	c3-1.3,4-4.4,3.1-9.3c-0.6-2.8-1.8-4.2-7.4-7.9c-3.7-2.4-7.2-5.3-7.8-6.4c-0.7-1-5-7.8-9.7-10.1c-7.1-3.6-9.1-0.3-12.8,0.1
	c-2.4,0.3-5.1,0.8-6.1,1.2c-0.4,0.2-2.7-10.4-2.3-6.1c-0.7-7.5-1.7-10-7-18.8C1770.1,468.9,1767.5,467,1763.3,467.6z"/>
<path d="M62.8,474.2c-7.2,3.3-18.6,14.5-25.6,25c-1.5,2.3-4.8,6.4-6.8,11.1c-0.4,1.2-2.7,5-5,8.6c-2.3,3.5-5.7,9.5-7.6,13.4
	c-1.9,3.8-4.1,8.1-4.9,9.5c-6.1,11.1-12.5,32.1-12.5,40.9c0,5.7,2.2,11,6.9,16.9c4.8,5.9,9.1,8.3,14.4,7.8c2.3-0.2,4.9-0.4,5.8-0.5
	c0.8-0.1,2.3-1.6,3.1-3.5c1.5-3,1.5-3.6,0.1-5.6c-2.1-3-1.2-10.4,2.3-17.2c1.5-2.9,3-6.7,3.5-8.3c3.8-15.4,29.6-56.7,38.1-61.1
	c1.5-0.8,2.9-1.4,3.2-1.4c1.5,0,1.7,9,0.6,24.8c-0.7,9.7-1.3,22.9-1.4,29.2c0,10.1,0.3,12,2.3,16c2.4,4.6,11.2,13.6,14.4,14.6
	c3.1,1,8.6-1.6,10.3-4.8c1.6-3.1,4.7-23.4,3.8-24.9c-0.3-0.5,0-1.8,0.7-3c0.7-1.3,1.2-9.4,1.4-21.3c0.6-35.4-1.1-33.4-6.8-42.4
	c-2.3-3.7-4.7-7.6-5.3-8.7c-0.6-1.1-3.5-3.4-6.5-5.2c-11.1-6.5-21.7-12.3-22.6-12.3C68.3,471.8,65.6,472.9,62.8,474.2z"/>
<path d="M2090.9,480.4c-14.9,1.8-20,3.3-24.4,7.5c-2.2,2-2.3,2.8-1.8,9.1c-0.9-8.7,2.7,10.5,2.5,10.2c1.1,1.8,2.5,4.8,3.1,6.8
	c1.2,3.6,12.7,15.9,30.4,32.3c8.3,7.7,9.7,9.5,9.7,12.1c0,6.2-6.5,11.1-18.7,13.9c-7.9,1.9-22.1,2.2-25.1,0.6
	c-1.1-0.6-3-1.1-4.1-1.1c-3.5,0-7-2.2-9-5.6c-2.2-3.8-6.2-6.1-11.9-7c-3.6-0.6-4.2-0.3-5.8,2.1c-2.2,3.3-2.3,9.8-0.3,12.2
	c0.9,1,2.4,4.4,3.4,7.5c1.4,4.2,2.4,5.8,3.7,5.8c1,0,1.8,0.5,1.8,1c0,2,11.6,12.6,17,15.7c9.6,5.4,16,6.8,30,6.7
	c14.1,0,20.3-1.4,29.7-6.4c4.4-2.3,7.6-5,10.5-8.8c4.1-5.3,4.3-5.9,4.7-13.4c0.2-4.6-0.2-9.9-1-12.6c-3.3-11.8-15-29.9-27.8-42.8
	c-6.4-6.5-7.2-7.7-6-8.9c2.1-2.2,10.9-3.6,24.2-4c6.8-0.2,12.5-0.9,13.2-1.5c0.8-0.7,1.9-0.9,2.5-0.5c0.5,0.3,2.3-0.7,3.9-2.3
	c3.6-3.4,2.1-13.1,2.4-9.8c-0.3-3.8-0.8-7.2-1.2-7.5c-0.7-0.7-14.4-4.6-20.9-6c-2.4-0.5-4.7-1.1-5.1-1.4c-0.5-0.2-5.6-1.1-11.4-2
	c-5.8-0.8-11.6-1.6-12.9-1.8C2094.9,480.2,2092.6,480.2,2090.9,480.4z"/>
<path d="M1357.7,490.8c-1.8,1.7-3.7,4.7-4.2,6.8c-0.9,3.6-6.6,44.2-4.6,56.6c1,6.9,8.5,19.6,14.1,23.8c2.7,2.1,6,3.8,7.4,3.8
	c3.7,0,6-6.3,6-16.5c0-4.4,0.7-10.5,1.5-13.5c1.2-4.7,1.2-6.2,0-12c-1-4.2-1.4-10.8-1.2-18.5c0.2-11.7,0.1-16.1-3-22.6
	c-3.1-6.3-10-10.9-11.9-10.9C1361.3,487.8,1359.5,489.2,1357.7,490.8z"/>
<path d="M1114.6,490.8c-32.3,9.5-49.2,19.3-62.1,56.5c-4.3,12.2-2,31.4,4.9,41.6c1.6,2.4,3,4.7,3,5.2c0,2,6.7,9.6,11.7,13.3
	c7.2,5.4,8.1,5.8,17.7,7.9c11.9,2.6,26.8,0.7,42.4-5.6c4.1-1.6,7.9-2.9,8.6-2.9c0.7,0,3.8-2,6.8-4.3c3.1-2.4,8.1-5.1,11.1-6.1
	c5-1.6,5.5-2,5.4-4.4c-0.2-2.3,0.3-2.7,3.5-3.2c3.7-0.7,8.8-3.4,8.8-4.8c0-1.2,12.1-13.4,14.5-14.7c1.1-0.6,2-2,2.1-3
	c0-1.1,1.4-4.5,3.2-7.5c1.7-3,3.2-5.9,3.2-6.3c0-0.5-1.5-0.5-3.2-0.1c-1.8,0.4-4.7,0.6-6.5,0.5c-3.1-0.2-9.4,2.1-21.8,7.9
	c-29.4,13.9-51,20-70.7,20c-12.9,0-15.4-0.8-16.3-5c-0.7-3.4,0.4-6.9,5.3-16.8c4.2-8.3,5-8.8,13.1-7.2c6.5,1.2,7.1,1.1,15.2-1.5
	c25.3-8.3,39.6-21.5,37.5-34.6c-3-18.6-4-12.4-12.6-19.8C1130.7,488.3,1126.2,487.4,1114.6,490.8z"/>
<path d="M2204.5,492.3c-1.8,0.8-4.6,1.5-6.2,1.5c-3.5,0-13.3,0.6-19.8,5.4c-6.1,4.5-17.4,21.1-17.6,23.6c-0.1,1-0.6,2.4-1.2,3.2
	c-0.6,0.7-1.8,5.8-2.8,11.4c-1.5,9.3-1.5,10.8-0.1,18c1.6,8.1,3.2,13.2,5.4,17.1c0.7,1.2,1.2,3.1,1.2,4.3c0,2.9,5.4,9.3,17.1,20.5
	c4,3.8,8.5,5.2,18.6,6c6.6,0.6,9.7,0.4,10.7-0.4c1.1-1,1.6-0.9,2.4,0.5c0.8,1.5,1.6,1.5,10.8,0.1c5.4-0.9,11.7-2,13.9-2.6
	c2.2-0.5,6-1.5,8.5-2.1c4.6-1.1,18.4-5.9,32.4-11.3c10.3-4,18.4-9.4,22.4-14.7c2.7-3.7,3.2-5.3,3.2-9.8c0-3.9-0.6-6.2-2.1-8.3
	c-1.1-1.6-2.5-4.6-3.1-6.7c-1.4-5.2-3.5-7.2-7.4-7.2c-2.5,0-4.1,0.8-6,3c-1.5,1.6-4.3,3.5-6.3,4.1c-2,0.6-6.3,2.3-9.6,3.7
	c-3.3,1.3-8.7,3.3-12,4.3s-10,3.2-15,4.9c-4.9,1.7-12.6,3.8-17,4.6c-4.4,0.7-11.4,2-15.5,2.9c-4.1,0.8-9.3,1.5-11.5,1.5
	c-5.5-0.1-15.6-2.6-16.6-4.2c-1.7-2.6-1.9-7.4-0.7-12.2c1.8-7,3.7-7.8,8.4-3.7c10.8,9.5,34.8,12.2,48,5.3c1.1-0.5,3-1.4,4.4-2
	c3.6-1.5,13.6-9.7,15.7-12.8c1.1-1.7,1.8-5.4,2.1-10.8c0.5-9.1-0.2-15-9.2-28.4c-6-8.9-6.8-5.6-14.1-8.1
	C2228.5,490.3,2210,490,2204.5,492.3z M2226.4,519.9c0,2.1-13.4,6.1-20.4,6c-4.5,0-3.9-2.1,1.5-4.6c4.1-1.9,7-2.5,12.2-2.5
	C2223.7,518.8,2226.4,519.2,2226.4,519.9z"/>
<path d="M1575.7,497.1c-4.9,7.2-5.5,14.7-5.4,38.2c0.1,24.3,0.9,31.1,4.8,40c3.5,8.1,6.5,11.8,12.5,15.6l5.1,3.3l2.3-3
	c3.1-3.8,4-8.7,2.5-14.3c-0.6-2.5-1.4-12.5-1.7-22.1c-0.4-11.6-1.2-20.2-2.4-25.6c-4.4-19.5-10-31.4-14.3-31.4
	C1578.4,497.8,1576.9,495.3,1575.7,497.1z"/>
<path d="M395.9,499.5c-28.1,6.3-0.7-7.7-29.8,15.8c-9.9,8.1-15.7,17.8-17.6,29.3c-0.8,5-0.6,7,0.9,12c6.9,22,20.7,36,38.3,38.7
	c3.1,0.5,4,1.2,5.2,4c1.4,3.6,2.8,4.4,4.1,2.4c0.4-0.7-0.1-1.6-1-2.1c-2.1-1.2-2.1-2.8,0-2.8c0.9,0,2.7-0.9,4.1-2
	c1.4-1.1,3.6-2,4.9-2c2.6,0,18.4-5.6,19.8-7.1c0.6-0.5,1.7-0.9,2.7-0.9c0.9,0,2.9-1,4.4-2.2c1.8-1.4,4-2.1,6.6-2
	c2.1,0.1,4.1-0.3,4.4-0.9c2.6-4.1,12.4-2.6,20.9,3.4c7.4,5.2,12.2,7.8,19.9,10.8c11.7,4.4,26.9,2.1,39.1-6.1
	c3.3-2.2,6.3-3.7,6.8-3.2c0.4,0.4,1.2,3.2,1.8,6.2c1.5,7.8,7.6,16.7,14.3,20.8c5.2,3.2,8.2,3.9,10.2,2.4c2.7-2,4-5,4.6-10.6
	c0.9-8.9,2.3-14.6,8.2-31.1c2.5-7.1,5.9-12.6,14-22.1c5-5.8,20.3-12.2,23-9.5c2.6,2.6,0,17.3-5.5,30.6c-3.9,9.4-3.5,12.2,3.8,24.7
	c4.2,7.2,16.2,14.1,20.8,12c1.2-0.5,3.3-3.2,4.7-5.8c1.3-2.7,2.9-5.6,3.5-6.4c1.2-1.6,2.1-5.9,3.1-14.5c0.3-2.8,1-5.6,1.6-6.4
	c0.7-0.8,1.3-6.1,1.5-12c0.4-10.5,0.3-10.8-3.4-20c-3.3-7.7-5-10.4-10.4-15.9c-6.7-6.8-17-15.2-18.6-15.2c-0.5,0-3.1-1.2-5.8-2.6
	c-13.9-7.4-29.3-2.6-45.6,14.2c-5,5.2-9.3,9.4-9.6,9.4c-0.3,0-2.6-2-5-4.5c-5.3-5.3-12.8-11.5-13.8-11.5c-0.5,0-2-0.8-3.4-1.9
	c-1.5-1-4.5-2.4-6.7-3.1s-4.5-1.6-5-2.1c-0.6-0.4-5.1-1.5-10-2.4c-14.4-2.7-26-0.9-42.5,6.8c-9.6,4.5-16.2,10.3-19.6,17.3
	c-2.3,4.8-2.6,6.2-2,11.3c0.5,4.4,0.3,6.2-0.6,6.8c-3.4,2.1-41.9,12.8-49.5,13.6c-6.1,0.7-6.5,0-3.3-6.3
	c4.9-9.7,11.3-16.7,21.6-23.8c3.3-2.3,10.9-5.2,13.6-5.2c2.6,0,4.8-4,4.8-8.8c0-3.7-0.7-5.2-4.5-9.7
	C405.3,492.4,411.8,495.8,395.9,499.5z M511.7,538.8c4.9,0,3.3,3.4-5,10.5c-10.5,9-16.8,11.9-26.3,12.3c-6.7,0.3-7.8,0.1-10.5-2.1
	L467,557l2.7-4c2.8-4,12.5-10.1,16.3-10.3c1.1,0,5.1-1.1,8.9-2.4c4.3-1.5,8.4-2.2,10.5-2C507.3,538.6,510.1,538.8,511.7,538.8z"/>
<path d="M1853.2,501.9c-1,0.5-2.4,7.1-3.2,9.7c-1.2,4.1-1.2,7.2-0.1,20.8c1.5,17.7,1.7,18.5,5.7,23.2c1.5,1.8,2.8,3.9,2.8,4.7
	c0,1.8,2.4,3.1,7.3,4c3.6,0.7,3.8,0.6,5.4-3.1c1.1-2.7,1.6-6.8,1.6-13.4c0-9.3-1.1-14.7-4.7-23.2c-0.9-2.1-1.6-4.9-1.6-6.3
	c0-1.4-0.8-3.3-1.8-4.3s-3-3.4-4.6-5.5C1857,504.6,1856,500.2,1853.2,501.9z"/>
<path d="M152.6,627.8c1.4,0,0.5-5.3-0.9-5.8"/>
<path d="M621.2,661.3c-5,2.7-6.5,8.2-7.7,28c-0.6,9.9-1.5,21.6-2,26c-0.5,4.4-1.5,14.3-2.1,22c-1.5,17.5-3.3,29.3-6.4,41.5
	c-3.5,13.8-4.1,19.3-2.2,20.9c0.9,0.7,2.7,3.8,4.1,6.9c1.4,3,4.4,7.5,6.6,9.9c4,4.4,4.1,4.5,2.1,5.9c-1.1,0.8-4,2.2-6.4,3.3
	c-2.4,1-5.4,3-6.7,4.5l-2.4,2.6l1.8,6.7c2.2,8.8,10.7,22,17.3,26.8c7.3,5.5,15.8,9.1,26.7,11.5c5.5,1.2,12.3,2.8,15.1,3.6
	c6.3,1.8,18.8,1.2,30.9-1.6c9-2.1,25-9.2,30.7-13.6c2-1.6,5.3-4,7.3-5.4c4.7-3.4,6.5-6.2,8.1-13.2c2.8-11.7-0.8-22.9-10.5-33
	c-3.4-3.4-6.1-6.6-6.1-7c0-1.5-17.7-15-23-17.4c-3-1.4-6.4-3.1-7.5-3.7c-9.8-5.2-14.7-7.5-17.6-8c-1.9-0.4-6.5-1.3-10.4-2.2
	c-4.2-1-10.2-1.5-15-1.3l-8,0.3l0.2-8.5c0.2-12.9,0.9-22,2-27.5c0.5-2.8,0.8-8.4,0.7-12.5c-0.1-4.1-0.5-15.7-0.8-25.7
	c-0.6-17.3-0.8-18.6-3.7-26C630.6,660.5,627.7,657.8,621.2,661.3z M661.7,808.9c9.9-1,19.6,1.2,30.7,7.1c10.3,5.4,11.5,6.3,12.4,9.4
	c1.4,4.6-12.3,14-28.9,19.9c-6.6,2.4-21.2,3-31.6,1.5c-4.6-0.7-10.6-1.6-13.3-2c-5.4-0.8-8.6-3.6-8.6-7.6c0-1.3-1.1-4.9-2.5-8
	c-1.4-3.2-2.2-6.1-1.7-6.6c0.4-0.4,2.3-0.3,4.1,0.3c5.6,2,6.7,1.5,31.1-12.9c1.9-1.1,4.2-1.8,5-1.5
	C659.2,808.8,660.7,809,661.7,808.9z"/>
<path d="M499.9,663c-2.7,2.1-2.7,2.2-2.1,10.2c0.9,11.3,0.9,17.2,0.2,67.1c-0.7,50-1.1,59-3.2,73c-1.9,12.5-1.9,25.4,0.1,31.2
	c1.8,5.2,13.7,17.6,18,18.7c3.2,0.8,8.4-2,9-4.9c1.4-7.3,1.9-9.9,3.2-17.5c0.8-4.7,1.4-10.4,1.4-12.7c-0.1-2.3,0.3-5.3,0.9-6.8
	c0.5-1.4,1.2-8.5,1.5-15.8c0.3-7.3,1-21.8,1.5-32.2c0.5-10.5,0.6-20.5,0.2-22.3c-0.4-1.8-0.4-7.7-0.1-13c0.4-6.2,0.3-10.2-0.4-11
	c-0.7-0.9-0.7-2,0.1-3.6c1.1-2.4,0.9-27.8-0.3-33.1c-1.5-6.8-6.1-14.2-13.6-21.8C507.8,659.9,505,659,499.9,663z"/>
<path d="M1293.2,669.9c-1,0.5-2,2.4-2.3,4.2c-0.7,4.3-2.6,29.3-2.5,33.7c0,1.9-0.4,10.5-1,19c-3,44.8-3.8,62.4-3.5,78.5
	c0.3,16.1,2.1,25.5,6.2,32.1c1.5,2.5,3.6,5.9,4.5,7.7c1.6,2.8,3,3.9,9.1,6.9c1.8,0.9,5.7,0.2,5.8-1c0.5-6.5,0.8-12.5,1.3-26.7
	c0.3-9.4,0.9-21.7,1.3-27.5c0.4-5.8,0.6-11.9,0.4-13.6c-0.1-1.8,0.3-6,0.9-9.5c1.9-10.2,1.9-10.2,2.5-35.9c0.4-13.5,1-25.7,1.5-27.2
	c1-3.2-1.2-19.9-3.3-24.8c-1.9-4.7-9.1-14.1-11.9-15.7C1299.4,668.6,1295.5,668.5,1293.2,669.9z"/>
<path d="M98.3,685.5c-0.9,1-1.5,4.6-1.6,9.7c-0.3,15.9-1.3,33.2-2.2,40.6c-0.6,4.1-1.3,10.4-1.6,14c-0.7,7.3-3.3,27-4.1,31.2
	c-0.6,3.2-3.1,3.7-6.7,1.3c-6.1-4-14-5.8-24.8-5.7c-17.1,0.2-31.5,4.7-41.7,13.1C6.5,797.1-1,812.3,1.5,818.4
	c0.7,1.6,1.3,8.3,1.4,14.9c0.1,9.3,0.6,13.6,2.3,18.9c4.1,12.9,18.6,31.2,28.9,36.4c5.9,3.1,19.6,4.6,23.3,2.7
	c1.6-0.8,3.7-1.5,4.8-1.5c5.6,0,18.6-11.9,27.1-24.8c5-7.7,7.2-9.5,8.6-7.2c1,1.7,7.3,4.2,9.6,3.8c4.1-0.6,6.4-5.2,6.5-13.1
	c0.2-10.9,2.1-24.8,5.4-38.7c3.2-13.8,7.2-42.1,7.6-54.5c0.3-9.4,2.2-30.3,3.2-36c0.9-5-0.9-12.6-4.3-17.6c-1.3-2.1-5.6-7-9.5-10.8
	c-6.8-6.8-7.2-7.1-11.9-7.1C101.2,683.8,99.2,684.3,98.3,685.5z M71.8,809.8c1.4,0.5,2.6,1.6,2.6,2.4c0,2.5-10,20.7-15.5,28.2
	c-5.5,7.4-12.2,12.6-18.8,14.6c-4.7,1.4-5.7,0.4-5.7-6.3c0-2.5-0.7-5.4-1.5-6.5c-3-4-0.8-13.1,4.3-17.7c3.4-3.1,20.6-12.5,26.2-14.4
	C67.9,808.6,68.7,808.6,71.8,809.8z"/>
<path d="M287.2,693c-1.5,1.3-3.4,4-4.3,6c-1.3,3.3-1.3,4.5,0.1,11.5c1.8,8.7,2.7,10.9,5.8,13.6c3,2.6,8.7,5,11.3,4.9
	c1.2-0.1,3.4,0.3,4.8,0.8c3.7,1.4,6.9-0.5,9.4-5.5c2.9-5.9,2.8-6.8-1.8-15.1c-0.3-0.6-2.7-3.8-5.3-7C299,692,292.1,688.8,287.2,693z
	"/>
<path d="M1675,698c-2.7,4.3-2.8,6.7-0.7,10.2c1.2,1.8,2.1,4.1,2.1,5c0,2.2,1.8,5.7,7.6,14.6c3,4.6,4.4,5.8,8.4,7.1
	c4.6,1.6,5,1.6,7.9-0.2c5.4-3.2,5.4-10.2,0.2-21.1c-4.2-8.9-14.3-17.8-20.2-17.8C1677.4,695.8,1676.1,696.3,1675,698z"/>
<path d="M2383.4,695.8c-1.9,0-3.3,1.5-4,4c-0.9,3.9,1.1,22.4,2.9,25.9c0.9,1.7,6.3,7.8,11.9,13.5c11,11.1,15.6,13.7,26.7,15.2
	c5,0.7,14.5-0.7,18.2-2.7c3.4-1.7,11.3-1,14.3,1.3l2.7,2.1l-6.3,2.9c-9.7,4.4-13.6,8.9-21.2,24.2c-3.5,6.9-4.1,9-4,14.1
	c0.1,9.1,3.2,17.1,10.4,27.2c9.7,13.6,18.8,21.6,34.1,30.1c3.2,1.8,6.8,3.2,8.1,3.2s2.8,0.5,3.5,1.2c0.8,0.8,3.1,0.7,9.4-0.7
	c9.9-2.1,15-4.8,17.3-9.2c1-1.8,2.9-4,4.1-4.8c1.3-0.9,2.4-2.1,2.4-2.8c0-0.7,0.8-2.8,1.9-4.7c2.6-5,3.2-9.6,2-16.5
	c-0.5-3.3-1.3-7.5-1.6-9.3c-0.4-2.7,0-3.9,2.2-6.2c1.5-1.6,2.4-3.3,2-4c-0.4-0.6,0-2.1,0.8-3.3c1.3-2,2.2-8.9,1.8-13.8
	c-0.2-2.8-8.8-11.5-15.4-15.7c-6.8-4.3-20.6-9.3-30.7-11.3c-5.8-1.1-7-1.8-11-6c-2.5-2.6-7.9-7.4-12.1-10.7
	c-4.1-3.2-9.7-8.2-12.5-10.9c-6.6-6.7-10.2-8.9-35.4-21.5C2394.1,700.7,2383.9,695.8,2383.4,695.8z M2481.9,794
	c1.9,0.8,5,3.1,6.7,5.1c3.2,3.6,3.2,3.8,3.1,13.8l-0.1,10.1l-3.6-0.7c-7.4-1.4-19.2-8.6-27.6-17.1c-4.4-4.4-8.7-9.3-9.5-10.8
	c-1.3-2.6-1.3-2.9,0.5-4.2C2455.1,787.5,2471.4,789.5,2481.9,794z"/>
<path d="M863.7,705.8c-4.1,3-5.2,4.9-7.4,12.8c-1.8,6.2,0.9,13.9,8.5,23.9c3.6,4.7,4.2,5.1,7,4.6c4.1-0.8,6.3-2.8,7.6-6.9
	c0.8-2.2,2-3.6,3.5-4c3-0.8,7.5-8.2,7.5-12.4c0-6.6-6.3-16.5-12.4-19.4C872.8,701.9,868.4,702.4,863.7,705.8z"/>
<path d="M567.5,711.7c-1.1,1.1-2.1,2.6-2.1,3.2c0,3.6,3.5,14.8,5.3,17.1c3.2,3.8,14.2,9.8,18.2,9.8c4.4,0,9-5,8-8.9
	c-1.1-4.5-5.2-10.4-11.3-16.5c-5.4-5.3-6.6-5.9-11-6.4C570.5,709.6,569.3,709.9,567.5,711.7z"/>
<path d="M1971.8,728.3c-0.9,2.2,0.4,6.5,1.9,6.5c2.4,0,3.9-1.8,4.2-4.9c0.2-2.8,0-3.1-2.7-3.1
	C1973.6,726.8,1972.1,727.4,1971.8,728.3z M1976.4,729.8c0,0.5-0.9,1-2.1,1c-1.1,0-1.7-0.5-1.4-1c0.3-0.6,1.3-1,2.1-1
	C1975.8,728.8,1976.4,729.2,1976.4,729.8z"/>
<path d="M885.1,738.7c-0.3,1.4-0.1,1.8,0.9,1.4c0.8-0.3,1.4-1.1,1.4-1.9C887.4,736.1,885.7,736.5,885.1,738.7z"/>
<path d="M1166.6,739.6c-0.7,0.5-1.5,3.7-1.8,7.3l-0.6,6.4l5.4,8c7.2,10.9,8.6,12.2,14.9,14.8c7.5,3.1,13.9,7,13.6,8.2
	c-0.2,0.5-2.1,1.4-4.3,1.9c-13,2.8-19.7,7.9-22,16.9c-1.3,5.2-1.3,6.5,0.1,12c1.8,7.5,8.1,20.4,13.3,27.1c4.7,6.3,16.2,15.9,22.7,19
	c8.7,4.2,18,6,30.5,6c6.6,0.1,13.3-0.5,15.8-1.2c5.4-1.6,11.3-7.6,13-13.1c1.4-4.8,1.6-14.1,0.3-18.5c-3.6-12.1-5-15.6-8.8-21.7
	c-2.4-3.8-4.3-7.9-4.3-9c0-3.8-4.1-9.6-8-11.4c-2-0.9-8.6-6.5-14.6-12.3c-6.1-6-15.7-14-21.8-18.2c-6-4.1-12.7-9.1-15-11.1
	C1186.4,743,1170.8,737,1166.6,739.6z M1236.4,817c5.5,6,4.5,14.3-2,16.5c-8.6,2.9-28-0.3-32.7-5.4c-2.8-3-2.8-3.8-0.4-6.2
	c2.9-2.9,11.3-5.2,21.6-6.1c5-0.4,9.5-0.8,10.2-0.8C1233.8,814.9,1235.3,815.8,1236.4,817z"/>
<path d="M1549.4,744.7c-3.6,1-7.8,2.5-9.5,3.3c-1.6,0.9-5.2,2.6-7.8,3.9c-2.6,1.3-7.7,5-11.2,8.2c-5.6,5-6.5,6.4-7.6,11.1
	c-0.9,4.1-0.9,6.1,0,8.9c0.7,2,0.9,4.1,0.6,4.7c-0.4,0.6,0,1.9,0.8,2.8c0.9,0.9,1.9,3,2.3,4.7c1.1,4.5,9.7,16.6,16.2,22.9
	c11.4,10.9,13.2,12.2,27.1,19.6c7.7,4.1,14.1,7.8,14.1,8.2c0,0.4-2.5,1.6-5.6,2.7c-4.2,1.6-7.9,2.1-15.2,2.2
	c-10.8,0-14.5-1-23.9-6.5c-8.5-5-12.4-4.9-15.9,0.4c-2.5,3.8-2.6,4.1-1,6.5c0.9,1.3,1.6,3.4,1.6,4.6s2.5,5.9,5.6,10.5
	c6.9,10.3,14.5,15.8,28.4,20.6c8.2,2.8,10.8,3.2,19.5,3.2c9.7,0.1,17.7-1.8,25-5.7c4.8-2.5,11.7-8.4,14.5-12.4
	c3-4.1,3.1-4.7,2.5-11.1c-0.6-6-2-10.5-4.7-15.2c-0.4-0.8-1.4-2.6-2-4c-1.9-3.8-5.7-8.8-12.1-15.9c-6.5-7.3-11.6-11.1-14.7-11.1
	c-1.2,0-3.4-0.6-4.8-1.4c-1.5-0.8-6.1-2.8-10.2-4.5c-4.2-1.8-8.9-4.3-10.5-5.6l-3-2.3l3.5-3.7c1.9-2,6-5,9-6.7s6.2-3.7,7-4.4
	c0.8-0.7,3.8-1.8,6.5-2.5c23.4-5.8,24.1-6.2,25.1-16.4c0.6-5.9,0.6-6.1-3.5-11.2c-3.2-4.1-5-5.4-8.3-6.3c-2.4-0.5-5.6-1.5-7.3-2.1
	C1574.4,742.7,1556.6,742.7,1549.4,744.7z"/>
<path d="M166.2,750.5c-0.8,1-1.8,2.4-2.2,3c-1,1.9,4.3,15.8,7,18.4c1.3,1.2,2.4,2.8,2.4,3.4c0,0.7,0.9,2,2,3c1.1,1,2,2.3,2,3
	s1.4,2.6,3,4.3c1.7,1.8,3,3.7,3,4.2c0,1.5-6.3,4-9.8,4c-1.6,0-6.9,2-11.8,4.4c-10.1,4.9-22.2,15.6-24.9,21.9
	c-1.9,4.5-1.9,11.9-0.1,15.5c0.7,1.5,1.6,4.4,2,6.5c0.4,2.1,1.8,5.4,3.2,7.4c1.3,2,2.4,4.1,2.4,4.8c0,0.6,0.9,2,2,3
	c1.1,1,2,2.7,2,3.7c0,2.3,2.8,6.8,4.3,6.8c1.1,0,7.6,5.1,14.4,11.1c4.9,4.4,11.4,7.9,20.3,10.8c14.1,4.7,37.4-0.8,46.5-11
	c3.1-3.4,3.1-19.5-0.1-33.1c-0.9-4.1,2-4.8,5.5-1.4c1.5,1.4,5.1,3.3,8.1,4.2c5,1.5,5.9,1.5,11.2,0c3.2-0.9,5.9-1.6,6.1-1.6
	c0.2,0,1.8,2,3.5,4.4c1.7,2.4,5,5.3,7.1,6.3c3.9,2,4.1,2,7,0.2c3.6-2.2,4.2-4.1,4-11.6c-0.1-3.2-0.1-13.3,0-22.4
	c0.1-9.2-0.1-18.4-0.5-20.5c-0.8-4.7-4.9-12.1-9.3-17c-3-3.3-3.4-3.4-5.4-2.1c-1.2,0.8-3.4,3-4.9,4.8c-2.5,3.1-2.9,4.7-3.8,14.4
	c-0.5,6.1-1.1,11.9-1.4,13c-0.2,1.1-0.5,2.8-0.5,3.7c-0.2,3.1-2.6,2-8-3.7c-2.9-3-6.5-5.8-7.9-6.2c-1.5-0.3-9.3-3.9-17.4-8
	c-10.1-5-15.4-8.3-17-10.4c-1.3-1.7-3.9-4.8-5.8-6.9c-1.9-2.1-6-7.1-9-11.1c-3-4.1-9.4-11.3-14.2-16.1
	C172.2,748.4,169.3,747,166.2,750.5z M198.3,816.9c4.2,1.5,6.4,6.4,9.2,20.3c2,10.1,2,10.2,0.1,14.7c-1.6,3.7-2.9,5.1-6.7,6.9
	c-5.5,2.6-14,2.9-20.7,0.5c-2.4-0.8-5-1.5-5.8-1.5c-1.6,0-8-5.9-8-7.4c0-0.5-0.7-1.8-1.6-2.7c-1.5-1.7-1.5-2.3,0.5-7.8
	c1.3-3.2,3.5-7.2,4.9-8.9c2.2-2.6,22.3-15.1,24.3-15.2C194.8,815.8,196.6,816.3,198.3,816.9z"/>
<path d="M1409.4,752.4c-2.5,1.1-6.3,2.7-8.5,3.4c-5.8,1.8-19.9,9.5-28.5,15.6c-7.2,5.1-26,22.6-26,24.2c0,0.5-1.8,3.3-4,6.3
	c-4.8,6.3-8.6,17.4-7.6,22.2c2.1,11,3,14,6.7,21.4c4.9,9.8,13.9,20.9,19.4,24c2.2,1.2,4.7,2.7,5.5,3.5c3.2,2.9,19,6.7,29.3,6.9
	c4.6,0.1,10.1-0.6,15.1-2c4.4-1.2,8.8-2.1,9.8-2.1s4.5-1.1,7.8-2.5c3.3-1.4,7-2.5,8.2-2.5c3.1,0,28.1-10.3,31.4-12.9
	c1.5-1.2,3.5-2.1,4.5-2.1c3.4,0,12.2-8.9,15.2-15.3c1.5-3.3,2.7-6.1,2.7-6.2c0-0.2-1.7-1.3-3.7-2.6c-3.5-2.1-4.8-2.3-15.2-2
	c-6.3,0.1-13.7,0.7-16.5,1.2c-2.8,0.5-8,1.4-11.5,1.9c-3.5,0.6-6.6,1.2-7,1.5c-2.1,1.2-35.2,7.5-39.7,7.4c-1.6,0-7.5,0-13.1,0.1
	c-9.6,0.1-15.8-0.9-19-3.3c-1.5-1.1-1.7-5.3-0.3-6.2c0.5-0.3,2.5-2.9,4.4-5.8c4.4-6.5,13.5-16.7,15-16.7c0.7,0,3.3,2.3,5.9,5
	c5.3,5.6,16.1,11.3,23.5,12.4c15.4,2.3,34.2-9.1,39.9-24.3c2.1-5.7,2.4-7.6,1.8-13.5c-0.7-7.3-1.1-8.8-5.8-18.4
	c-2.8-5.8-4.2-7.4-12.1-14.8C1429.8,749.7,1418.8,748.1,1409.4,752.4z"/>
<path d="M755.8,753.9c-5.5,1.6-5.8,2.5-5.6,19.7c0.1,8.6,0.7,18.6,1.3,22.2c4.1,25.7,6.5,37.5,9.1,44.4c2.4,6.2,2.8,8.3,2,10
	c-2.5,5-2.4,6.4,0.5,8.3c3.3,2.1,6.2,5.3,6.3,6.9c0,2.2,7.2,10.2,11.8,13.2c6,3.8,12.1,4.5,15.3,1.7c1.9-1.8,2-2.6,1.4-10.5
	c-0.3-4.7-0.7-11-0.9-14s-0.7-10.7-1.1-17c-0.6-9.9-0.5-12.2,1.1-16.4c1.1-2.7,3-5.7,4.4-6.8c2.4-1.8,3-1.8,10.3-0.4
	c7.9,1.5,15.7,1,17.9-1.2c1.6-1.6,2.7-9.3,1.7-12.1c-0.6-1.3-0.8-3-0.5-3.6c0.2-0.7-1.5-3.1-3.8-5.4c-3.2-3.1-5.7-4.6-9.7-5.5
	c-3-0.8-7.6-2.3-10.4-3.4c-10.8-4.3-18.1-5.4-26.2-3.9c-3.8,0.8-4.1,0.7-3.6-1.1c0.8-3.1-15-26.5-17.6-26.1
	C759.1,752.9,757.5,753.4,755.8,753.9z"/>
<path d="M1966,760.3c-5,6.6-7,13.7-8.1,29.9c-0.3,3.7-0.8,7.2-1.1,7.7c-0.3,0.6-0.9,5.1-1.4,10.2s-1.4,13.7-2.1,19.2
	c-1.7,13.5-1.8,34.7,0,41c4.2,15.5,10,25.5,14.9,25.5c4.4,0,5.5-3.9,5.9-20.3c0.3-13.1,0.6-15.6,2.3-17.8c1.5-2.2,1.9-4.3,1.8-11
	c0-4.6,0.4-11.3,1-14.9c0.5-3.6,1-7.4,1-8.5c0-1.1,0.5-5.6,1.1-10c0.6-4.4,1.5-10.9,2-14.5c1.1-7.6,0-18.3-2.3-22.8
	c-0.9-1.7-1.6-3.8-1.6-4.6c0-0.9-1.5-3.3-3.3-5.3c-1.9-2.1-3.7-4.6-4-5.6C1971.1,755.8,1968.9,756.5,1966,760.3z"/>
<path d="M2365.7,759.8c-6.7,1.5-16.3,11.7-17.8,18.6c-0.8,4.3,0.8,10.8,4.1,15.5c2.5,3.7,3.1,4,6.7,3.7c2.2-0.2,4.2,0.2,4.4,0.8
	c1.1,3.3-17.3,24.1-29.4,33c-13.6,10.2-26.4,13.5-38.4,10.1c-6.3-1.9-12.5-7-13.4-11.3c-0.3-1.6-1.7-5.4-3-8.4s-2.8-7.1-3.4-9
	c-1.4-5-3.7-23.2-4.2-32.5c0-1.1,0.1-5.3,0.3-9.3c0.2-3.9,0.2-7.2,0-7.2c-0.1,0-1.7,0.6-3.5,1.4c-6.8,2.8-13.8,15.8-14.5,27
	c-0.5,9.4,2.5,24.1,6.8,33.2c1.1,2.2,2,4.8,2,5.7s0.5,1.9,1,2.2c0.6,0.3,1,1.3,1,2.2c0,3,7.2,15.7,12.4,21.9
	c6.9,8.2,12.4,12.1,21.7,15.5c9.8,3.6,17,3.7,30.7,0.8c6.7-1.4,10.8-2.9,13.2-4.7c1.9-1.5,4.4-3.4,5.6-4.2
	c7.1-5,14.8-11.9,19.5-17.7c3-3.7,6.8-8.3,8.5-10.2c2.9-3.4,11.5-19.2,14.7-27.1c4-9.7,2.4-23.3-4.1-34.9
	C2379.5,762,2373.8,757.9,2365.7,759.8z"/>
<path d="M1834.1,766.5c-1,1.1-2,3.7-2.4,5.7c-0.5,3.4,1.1,11.9,2.8,14.1c0.4,0.6,1.7,3.4,2.8,6.2c1.1,2.9,3.6,7.4,5.5,10.1
	s4.4,6.9,5.6,9.3c1.3,2.4,4,6.7,6.1,9.6c2.2,2.9,3.9,5.5,3.9,5.9c0,0.4,1.5,2.5,3.3,4.8c3,3.6,5.1,7.4,10.4,17.8
	c2.1,4.1,1.6,6.4-2.1,9.6c-4,3.5-13.2,7.2-17.9,7.2c-10.9,0-24.9-5.6-31.4-12.6c-2.7-2.9-3.9-3.4-7.7-3.4c-3.7,0-4.8,0.4-6.1,2.4
	c-4.1,6.2,3.1,21.3,16,33.4c5.9,5.7,8.9,7.6,17.5,11.4c6.1,2.6,12.8,4.8,16.1,5.1c13.1,1.5,32.3-5.5,38.3-14
	c5.8-8.3,5.2-27.9-1.3-41.3c-1.2-2.4-2.1-5.2-2.1-6.2c0-0.9-0.9-2.2-1.9-2.8c-1.1-0.5-2.5-2.5-3.1-4.4c-0.6-1.9-2.4-5.1-4.1-7.2
	c-1.6-2-2.9-4.1-2.9-4.6c0-0.9-1.3-2.7-6-8.5c-2.3-2.8-5-7.9-5-9.5c0-1.2,1.1-1.9,3.8-2.4c2-0.3,6.8-1.2,10.5-2
	c3.8-0.8,8.3-1.4,10.2-1.4c4.2,0,16.2-2.6,19.3-4.2c2.9-1.5,5.2-5.8,5.2-9.7c0-5.2-4.2-8.5-13.5-10.5c-4.4-1-11.4-2.9-15.5-4.2
	c-9.7-3.2-17-4.2-36.5-5C1836.7,764.6,1835.8,764.6,1834.1,766.5z"/>
<path d="M2113.2,769.4c-10.1,2.4-18.2,7.3-22.9,13.7c-3.6,5-3.9,12.1-0.8,19.3c2.6,6,9.5,13.4,12.5,13.4c5.5,0,7.2,4.8,9.4,27.4
	c0.6,6.1,1.3,11.3,1.5,11.6s0.6,8.6,1,18.5c0.3,9.9,0.8,19.1,1,20.5c0.2,1.4,0.7,8.1,1,15c0.3,6.9,1,16.5,1.5,21.5
	c0.6,4.9,1.9,18.4,3.1,30c2,21.3,3.9,29.6,7.5,33.6c2.4,2.7,7.4,4.9,11.2,4.9c2.4,0,3-0.6,4.5-4.8c1.2-3.3,1.5-5.6,0.9-7.7
	c-0.5-1.7-0.6-3.8-0.3-4.7c1.2-3.5,0.2-39.4-1.3-44.6c-0.2-0.9-1-16.3-1.6-34.2c-0.6-17.9-1.5-33.8-2-35.3c-1-3-0.3-8.7,1.1-8.7
	c0.4,0,2.7,2.7,4.9,6c4,5.8,10.9,12,13.5,12c0.7,0,3.7,1.1,6.6,2.4c8.2,3.5,15,4.8,25.7,4.8c10.3,0,15.2-1.1,24.2-5.7
	c2.7-1.4,7.4-3.4,10.4-4.5c6.4-2.4,13.6-9.5,16.8-16.7c3.3-7.3,3.2-20.7-0.2-28.8c-6-14.2-20.4-29.4-36.5-38.5
	c-10.5-6-33.1-13.8-49-17.1c-8.9-1.8-32.6-4.9-36.5-4.8C2119.6,767.9,2116.3,768.6,2113.2,769.4z M2151.9,804.8
	c11.8,1.1,12.9,1.3,26.5,5.2c12.7,3.5,19.5,6,24.1,8.6c11.4,6.5,13.4,7.9,13.7,10.1c0.8,5.4-17.5,17.3-29.7,19.2
	c-3.1,0.5-7.2,1.2-9.3,1.5c-4.5,0.8-17.2-1.9-21.6-4.6c-4-2.4-6.6-8-6.4-13.6c0.1-3.4-0.4-4.6-3.2-7.3l-3.4-3.3l-3.5,3.2
	c-2,1.7-4.1,2.9-4.6,2.5c-0.6-0.3-1.3-2.2-1.6-4.3c-0.4-2-1.7-6.5-3-10l-2.3-6.2l2.1-1.6c1.6-1.1,3.5-1.4,7.2-0.9
	C2139.7,803.6,2146.4,804.3,2151.9,804.8z"/>
<path d="M1012.2,774.3c-1.5,0.9-3.1,2.7-3.4,4.2c-1,4,2.2,12.5,7.1,18.9c2.5,3.1,4.7,7.1,5,8.8c0.6,4.1,1.6,17.8,2,29.1
	c0.2,4.9,0.8,15.1,1.3,22.5c0.5,7.4,1,14.4,1,15.5c0,1.1,0.3,11.4,0.6,23c0.4,11.5,0.7,21.7,0.7,22.5c0,2.2,1.8,13.7,3.1,19.4
	c0.6,2.8,2.7,7.2,4.6,9.9c3.6,5,11.5,11.7,13.8,11.7c0.8,0,2.8-1.3,4.5-2.8l3.2-2.9l-0.1-16.9c-0.1-9.3-0.4-22.3-0.7-28.9
	c-0.4-6.6-0.6-13.1-0.6-14.5c0-1.4,0.1-7.8,0.1-14.3c0.1-10.6,0.8-13.5,2.5-10.7c1.3,2.1,10.3,5.9,13.6,5.8
	c1.9-0.1,7.8,0.2,13.2,0.7c9.6,0.8,17.6,0.1,28.7-2.7c2.5-0.6,7-1.4,10-1.8c3-0.4,7.3-1.5,9.5-2.5c14.9-6.4,17.7-9.3,17.8-18.2
	c0-6.6-1.5-10.1-7.7-17.7c-8.9-10.8-6.5-9.1-38.1-26.9c-8.8-4.9-18-10.2-20.3-11.6c-7.4-4.4-8.5-5-14.7-7.6c-3.3-1.5-8.2-3.7-11-5
	c-2.7-1.3-7-2.8-9.5-3.5c-2.5-0.6-6.7-1.8-9.3-2.5c-2.6-0.8-9.2-1.7-14.5-2C1016.9,772.9,1014.3,773.1,1012.2,774.3z M1052,809.7
	c0.5,0.5,4.7,1.9,9.4,3.2c4.7,1.2,11,3.7,14.2,5.6c3.1,1.8,6,3.3,6.5,3.3s1.9,1.1,3.1,2.5c1.2,1.4,2.9,2.5,3.8,2.5
	c1.9,0,12,5.6,13,7.1c0.9,1.5,0.4,1.7-8.2,3.5c-8,1.6-28.7,2-37.2,0.8c-5.2-0.8-6-2.2-6.6-12.4c-0.3-3.8-0.9-7.7-1.4-8.7
	s-1.2-3.3-1.5-5.1c-0.6-2.8-0.4-3.2,1.6-3.2C1050,808.8,1051.4,809.2,1052,809.7z"/>
<path d="M555.2,788.5c-4.6,5.5-7.7,19.4-8.5,37.8c-0.5,13.9,1.3,20.5,8.3,28.8c8.6,10.5,15.6,13.4,19.1,8.1c1.8-2.9,1.9-5,0.2-17.4
	c-0.6-4.7-1.2-13.5-1.3-19.5c-0.3-13.4-1-16.2-7.8-29.2C559.8,786.6,558.1,785.2,555.2,788.5z"/>
<path d="M1647.3,790c-1.6,1.8-3.3,4.6-3.8,6.3c-0.5,1.6-1.4,4.3-2,6c-0.5,1.6-1.5,6.4-2.1,10.5c-1.5,9.7-2.6,15.3-5.5,27.5
	c-1.2,5.5-3.2,14-4.4,19c-3.3,14.3-5.5,40-4.6,53.5c0.5,6.3,0.8,13.3,0.9,15.5c0.1,2.5,1,5.3,2.5,7.3c1.9,2.7,2.9,3.3,5.5,3
	s3.5-1.1,6-5.7c1.6-2.9,3.2-6.8,3.6-8.5s1.7-6.5,2.8-10.6c1.1-4.1,2.5-11.1,3.2-15.5c0.7-4.4,2.3-10.9,3.7-14.5
	c1.3-3.6,2.9-8.3,3.4-10.5s1.3-4.9,1.8-6c0.5-1.1,1.4-4.5,2-7.5c2.5-11.5,4.4-19.7,5.7-24.5c2.1-7.7,1.1-23.4-1.9-31.7
	c-3-8.2-9.1-16.8-11.8-16.8C1651.2,786.8,1649,788.3,1647.3,790z"/>
<path d="M849.9,799c-4.2,5-4.6,7.1-5.2,25.5c-0.8,23.6,0.6,28.4,11.4,39.8c3.7,3.9,10.3,5.6,13,3.3c4.1-3.4,5.6-13.4,2.7-18.9
	c-1-2-1.5-5.3-1.4-9.7c0.3-8-2.1-21.1-4.4-24.3c-0.9-1.3-1.6-3.3-1.6-4.5c0-3-8.8-14.3-11.2-14.4C852.9,795.8,851.4,797.2,849.9,799
	z"/>
<path d="M270.5,860.4c0,1.1,0.3,1.4,0.6,0.6c0.3-0.7,0.2-1.6-0.1-1.9C270.7,858.7,270.4,859.3,270.5,860.4z"/>
<path d="M274.2,862.5c-1,0.2-1.8,0.9-1.8,1.4c0,1.3,1.2,1.1,3.4-0.6C277.8,861.8,277.4,861.6,274.2,862.5z"/>
<path d="M2794.2,930.1c-6,2-12.2,7-18.8,15.4c-7.7,9.6-8.6,11.7-9.4,22c-0.6,7.8-0.5,8.6,2.3,14c2.8,5.6,7,9.3,10.4,9.3
	c3.4,0,7.6-3.4,8.2-6.8c0.8-4.2,8.1-12.3,14.5-16c3.7-2.2,5.7-2.7,11.1-2.6c9.7,0,15.7,3.7,22.7,13.8c6.6,9.7,9.1,15.9,9.9,25.1
	c0.5,6.8,0.3,7.8-2.5,13.9c-3.6,7.6-6.2,11.3-15.1,21.4c-10.2,11.7-35.1,31.2-57.3,45.1c-10.3,6.5-22.1,14.2-35.3,23.2
	c-13.8,9.3-26.3,23.5-25,28.2c1.4,4.4,3.5,6.7,6.3,6.7c1.6,0,3.2,0.4,3.7,0.9c0.6,0.6,4.2,0.4,9.5-0.5c9-1.6,16.8-5.2,25.5-11.8
	c2.6-2,6.8-4.8,9.3-6.3c2.6-1.5,7.2-4.6,10.2-6.9c3-2.3,9.6-6.4,14.5-9.2c11.5-6.4,24.4-14.8,31.9-20.9c3.3-2.7,8-6.2,10.5-7.9
	c7.4-5.1,21.3-19.7,25-26.4c6.1-11,11.1-22.6,11.1-25.8c0-2.1,0.4-5.2,0.9-7c0.6-2,0.6-5.3,0.1-8.5c-0.6-2.9-1.4-8.4-1.9-12.2
	c-1.2-9.3-4.8-18.9-12-31.8c-10.8-19.3-18.9-28.3-31.2-34.6c-7.7-3.9-9.4-4.3-17-4.7C2801.2,929,2796.4,929.3,2794.2,930.1z"/>
<path d="M2458.9,973.8c-1.1,0.4-3.1,1.9-4.3,3.3c-2,2.1-2.3,3.1-1.6,5.9c1,4.4,1.1,6.4,1.9,33.8c0.8,25.4-0.6,62.7-3.1,84.5
	c-0.8,7.1-1.9,18.4-2.5,25c-1.5,17.3-1.5,17.1-4.3,27.2c-4,14.5-2.4,21.7,6.4,29.7c3.1,2.8,4.8,3.6,7.8,3.6c7.9,0,13-9.7,15.2-28.9
	c0.6-5.1,1.3-9.8,1.6-10.2c1.1-1.8,4.4-33.2,5.5-51.9c1.8-30.9,1.2-81.3-1.2-95.4c-1.4-7.9-4.9-15-11-21.9
	C2464.3,972.9,2462.8,972.2,2458.9,973.8z"/>
<path d="M1700.2,976.8c-3.1,5.5-7.4,28.3-8.2,43c-0.7,12.6-7.9,86.7-9.1,92.9c-0.1,0.9-0.6,5-0.9,9.1c-0.4,4.1-1.3,12.2-2.1,18
	s-1.9,13.9-2.4,18c-0.6,4.1-1.5,10-2.1,13c-3.5,18.5-1.9,30.6,5.1,36.1c6.7,5.3,13.9,2.9,13.9-4.7c0-1.9,0.9-7.2,1.9-11.7
	c2.4-9.9,3.7-16.4,5.6-28.2c0.8-5,1.9-11.3,2.4-14c4.3-21.9,6.2-33.8,8-50.5c0.6-5.2,1.6-12.5,2.1-16.3c0.6-3.7,1-10.7,1-15.5
	c0.1-4.8,0.8-12.3,1.6-16.7c0.9-4.4,1.9-11.4,2.4-15.5c4-34.8,3.9-38.4-1.5-48.7c-4.6-8.9-6-10.1-11.6-10.9
	C1702.2,973.7,1701.8,973.8,1700.2,976.8z"/>
<path d="M2556.1,985.3c-0.9,2-1.7,4.5-1.7,5.6c0,1.1-0.4,2.9-1,3.9c-0.5,1-1.7,6-2.5,11.1c-4,23.4-5,28.9-6,31.1
	c-0.6,1.6-2.3,1.8-12.9,1.8c-10,0.1-12.5,0.4-14.2,1.8c-4,3.3-4.2,4.4-3.5,19.1c0.1,2.9,2.1,5.9,11.8,17.4c3.6,4.2,5.9,8.1,7.2,12.2
	c1.7,5.6,4.3,21.8,4.4,27.5c0,4.2-1.1,24-1.8,33.1c-1.1,13,0.6,21,5.9,26.7c2.3,2.5,5.6,5.1,7.4,5.9c3,1.3,3.8,1.2,7-0.5
	c4.7-2.4,6-6.3,6.1-18.2c0.1-10.4,2.2-37.5,5.1-65.5c0.6-6.1,0.9-13.1,0.6-15.8c-0.6-5.5-2.5-5,17.6-4.8c12.3,0.1,14.1-0.2,19-2.3
	c6.2-2.7,12.8-10.3,12.8-14.5c0-3.4-2.6-7.1-5-7.1c-1.1,0-3.4-0.6-5.2-1.4c-5.2-2.2-27.1-8.7-29.3-8.6c-4.4,0-5-1.4-3.7-8.2
	c0.6-3.5,1.4-8.6,1.7-11.3c0.4-2.8,1.3-7.7,2.1-10.9c1.9-7.2,1.1-11.2-4.6-23.4l-3.9-8.2h-5.8
	C2557.9,981.8,2557.7,981.9,2556.1,985.3z"/>
<path d="M424.2,985.8c-3.7,2.9-4.1,5-2.4,11.7c0.8,3.2,1.8,8.7,2.1,12.3c0.3,3.6,1,10.1,1.5,14.5s1.2,12.9,1.5,18.8
	c0.3,6,0.7,11.3,1,11.8c0.9,1.3,2.6,28.2,3.1,47.9c0.3,9.6,0.9,18.6,1.4,20c0.4,1.4,0.8,5.2,0.9,8.5c0,7.7,0.6,16.2,1.5,20
	c1.1,4.8,2.8,10.8,3.6,13c0.4,1.1,1.1,3.3,1.6,4.9s2.6,4.3,4.7,5.9c2.9,2.4,4.7,3.1,8.4,3.1c4.2,0.1,4.9-0.2,7-3.3
	c1.7-2.5,2.4-4.9,2.4-8.5c0-2.8,0.1-17.9,0.2-33.6s-0.2-31.4-0.6-35c-0.9-7.2-1.4-13.2-2.1-26.3c-0.3-4.9-1-9.5-1.7-10.3
	c-0.7-0.9-1.3-6.2-1.5-14.2c-0.1-7-0.6-17.9-1-24.2c-0.6-10.4-1-11.9-3.5-15.7c-1.6-2.3-2.9-4.7-2.9-5.3c0-1.6-15.5-17-17.1-17
	c-0.8,0-2.3-0.3-3.4-0.6C427.6,983.9,425.8,984.5,424.2,985.8z"/>
<path d="M1634.2,990.5c-2.6,3.1-3.8,6-3.8,9.8c0,2-0.9,7.3-1.9,11.8c-1.1,4.5-2.4,11.8-3,16.2c-2,14.7-4,31.9-5.1,43.5
	c-0.6,6.3-1.8,13.9-2.6,16.9c-0.9,3-1.3,6.4-1,7.6c0.3,1.2,0.1,6.7-0.4,12.1c-1,9.7-1.9,17.7-4.2,39.9c-0.7,6-1.2,15.3-1.2,20.5
	c-0.1,8.5,0.2,10.1,2.7,15.1c2.1,4.2,4.1,6.4,7.6,8.8c2.7,1.7,5.8,3.1,6.9,3.1c6,0,11-11.1,9.7-21.9c-0.5-4.8-0.3-6.6,1.3-9.7
	c1.5-2.9,2-6,2-12c0-5,0.7-10.4,1.8-13.8c1.5-4.7,1.6-6.4,0.6-10c-1-4.1-0.2-15.6,1.4-19.6c0.4-0.8,1.1-6,1.6-11.5
	s1.1-11.1,1.3-12.5c0.8-4.7,2.5-20.5,3.1-28.5c0.4-4.4,1-8.7,1.5-9.6c0.4-0.9,1.1-7.2,1.4-14c0.4-6.8,0.8-13,1.1-13.7
	c0.2-0.7-0.1-3.4-0.7-6c-2.6-10.6-7.2-19.2-12.2-22.2C1638.1,988.3,1636.2,988.3,1634.2,990.5z"/>
<path d="M504.7,1015.2c-2.5,2.2-2.8,3-2.6,8.1c0.3,7.2,5.6,20.3,8.7,21.4c1.1,0.4,4,0.6,6.3,0.3c3.3-0.3,5-1.2,7.3-3.8
	c4.6-5.2,3.9-9.9-2.5-19c-2.8-3.9-5.3-6.2-8.3-7.5C508.1,1012.3,508.1,1012.3,504.7,1015.2z"/>
<path d="M2664,1016.7c-0.4,0.6-1.7,1.1-3,1.1c-1.2,0-4.7,1.7-7.7,3.8c-7.8,5.5-9.1,9.2-8.3,24.7c0.6,11.6,0.8,12.2,4.2,17.4
	c2.3,3.4,4.8,5.9,7,6.8c3.1,1.3,3.6,1.2,7.8-1.2c4.2-2.5,4.4-2.8,4.5-7.3c0.1-11.3,0.9-16,3.3-21.5c1.4-3.2,2.6-6.8,2.6-8
	c0-1.3,0.4-2.7,0.9-3.3c0.6-0.5,1.3-2.7,1.6-4.9c0.6-3.3,0.3-4.4-1.4-5.9C2673.1,1016.2,2665,1015,2664,1016.7z"/>
<path d="M1784.2,1022.5c-4.6,5.3-4.9,10.5-1.3,20.5c1.4,3.8,2.5,7.9,2.5,9.2c0,1.2,1.8,5.9,4,10.4c2.9,6.1,4.6,8.5,6.6,9.2
	c7.7,3,14.3-7.5,10-15.9c-0.8-1.5-2.4-6.1-3.4-10.2c-3.4-12.4-7.7-23.2-9.8-24C1789.5,1020.4,1785.8,1020.7,1784.2,1022.5z"/>
<path d="M24.9,1027.8c-1.5,3-1.4,5.8,0.7,11.2c0.5,1.5,1.1,4.8,1.3,7.5c0.2,4.5,3.2,27.6,5.4,42.8c1,6.6,0.1,7.6,0.1,8.4
	c0.1,1.3,0,2.7-0.7,3.8c-0.8,1.5,0.6,2.9,2.4,4.7c0,0-0.7-0.5-0.1,2.8c0.1,4.2-0.6,1.1-0.2,2c2.1,5.7,2.4,19.2,0.8,38.7
	c-3,35.6-0.7,57.5,7,67.9c1,1.3,1.8,2.9,1.9,3.5c0,0.6,2.6,3.2,5.7,5.8c6.6,5.5,14.2,7.9,18.1,5.8c3.3-1.7,5-6.7,5.2-15.1
	c0.4-16.9-0.1-35-1.3-44.4c-1.1-9.2-1.1-14.3-0.3-29.7c0.3-7.5,5.1-20.8,9.5-26.5c1.9-2.5,5.3-5.9,7.6-7.5c3.5-2.5,4.4-2.7,6.8-1.8
	c1.5,0.5,4.9,1,7.6,1c3.9,0,5.3-0.5,8-3c2.4-2.3,3.1-3.6,2.6-5.3c-0.3-1.2-0.6-3-0.6-3.9c0-2-5.7-8.8-7.3-8.8
	c-0.5,0-4.4-2.6-8.6-5.8c-10.5-8-14.8-9.7-24.1-9.6c-4.1,0.1-8.6,0.4-10,0.8c-2.3,0.7-2.5,0.5-2.5-2.6c0-2.5-0.4-3.3-1.7-3.2
	c-1.9,0.2-2.5-2.1-0.8-3.1c1.4-0.9,1.3-8.2-0.2-10.8c-0.6-1.2-1.1-3.6-1-5.2c0.2-2.2-0.6-4-3.2-6.7c-1.9-2.1-3.6-4.5-3.8-5.5
	s-1.2-1.9-2.3-2.2c-1.1-0.2-4.2-2.3-6.8-4.7c-4.2-3.8-5.5-4.4-9.3-4.4S26.3,1025.2,24.9,1027.8z"/>
<path d="M138.8,1034.3c-5.8,3.5-8.7,9.2-8.5,16.7c0.1,3.3,0.8,7.4,1.5,9.2c0.8,1.7,2.1,4.8,3,6.8c2,5,5.4,7.2,9.2,5.8
	c3.7-1.4,16.1-14.7,16.9-18.1c1.3-5.8-3.5-14.8-10.9-20.7C146.4,1031.2,143.9,1031.3,138.8,1034.3z"/>
<path d="M309.7,1061.5c-4.1,0.5-5.9,3.4-4.4,7.1c0.5,1.5,1.3,4.5,1.7,6.7c1.3,8.4,9.3,17.7,16.3,19.1c1.7,0.4,3.1,1,3.1,1.4
	s2.4,1.5,5.3,2.5c5.9,1.9,13.9,7,18.7,12l3.3,3.4l-3.9,1c-2.2,0.6-5.5,1-7.4,0.9c-1.9,0-8,0.4-13.5,1c-23.5,2.6-35.5,12.8-30.1,25.6
	c0.9,2.1,1.6,4.7,1.6,5.8c0,1.1,1.4,4,3,6.5c1.7,2.4,3,5.1,3,6c0,0.9,1.7,3.2,3.8,5.2c2,2,5.5,5.6,7.8,8.1
	c13,14.3,33.2,24.7,52.9,27.2c8.7,1.1,9.5,1,15.3-1.1c8.5-3.2,14.4-8.6,16.5-15.1c1.9-5.9,2.1-13.3,0.6-20c-0.6-2.5-1.1-5.4-1.2-6.6
	c-0.1-1.1-0.7-2.7-1.3-3.5c-1.1-1.3-1.9-4-3.1-10.4c-0.3-1.7-1.4-4.2-2.4-5.7c-1.1-1.4-1.9-3.2-1.9-4c0-0.7-0.9-2.8-2-4.6
	c-1.1-1.8-2-3.9-2-4.7c0-2.7-3.3-8.3-5.7-9.6c-1.3-0.7-3.3-2.9-4.5-4.8c-5.1-8.5-26.3-28.7-38.5-36.7c-10.4-6.9-23.2-13.4-25.8-13.2
	C313.8,1061,311.4,1061.3,309.7,1061.5z M372.8,1147.6c1.8,10.4-3.5,20.2-10.9,20.2c-7.5,0-28.5-7-28.5-9.5c0-2.8,9.3-8.1,16.2-9.1
	c2.3-0.3,5.9-1.5,7.8-2.6c4.9-2.9,10.1-4.7,12.5-4.5C371.5,1142.3,372.1,1143.4,372.8,1147.6z"/>
<path d="M1516.7,1063.8c-6.3,0.9-15.6,5.2-25,11.4c-7.9,5.2-25.3,22.9-25.3,25.7c0,1-1.6,3.5-3.5,5.6c-6,6.5-10.6,18.7-13.1,34.5
	c-2.1,13-1.5,24.8,1.8,34.8c6.8,20.5,17.7,32.8,34,38.2c13.4,4.6,17.7,4,42.8-5.4c25.3-9.4,34.9-16.4,43.5-31.2
	c3.6-6.3,3.6-12.3,0.1-22.9c-3.1-9.2-5.2-12.7-7.6-12.7c-1,0-3.7,2.5-6,5.5c-5.4,7-10.8,10.9-24,17.5c-18,9-31.6,13.3-46,14.6
	c-9.9,0.9-10.5,0.3-9.6-10.9c0.8-12.2,1.1-13.6,3.5-21.3c2.5-8.2,5.2-11.5,7.9-9.6c0.9,0.7,5.1,2.9,9.2,4.9c11,5.3,19.2,5,32.5-1.4
	c7.9-3.7,18.5-10.8,18.5-12.3c0-0.6,1.8-3,4-5.4c5-5.4,6.8-9.8,7-16.7c0.4-10.5-4.4-19.3-19.2-35.8
	C1536.7,1064.9,1527.1,1062.2,1516.7,1063.8z"/>
<path d="M223.9,1066.2c-6.1,1.8-8.2,3.3-11,8c-2.9,4.9-3.3,11.6-1.1,16.8c2,4.8,4.6,13.1,4.6,14.6c0,0.8,0.9,2.6,1.9,4.1
	c1.1,1.4,4.3,7.4,7.3,13.2c3,5.8,6.2,11.6,7.1,12.9c0.9,1.4,1.7,3.1,1.7,3.9c0,0.8,1.2,3.9,2.8,7c2.4,5,2.7,6.7,2.7,15.4v9.9
	l-3.3,2.9c-3.2,2.8-3.6,3-9.5,2.3c-3.4-0.3-8.2-1.2-10.6-2c-4.2-1.4-13.7-8-17.5-12.3c-2.3-2.5-4.8-2.7-8.2-0.4
	c-3.9,2.5-4.3,5-2.4,12c2.5,8.7,13.9,23.3,22.4,28.8c7.9,5.1,13.4,7.8,21.8,10.5c5.9,1.9,8,2.1,15.8,1.5c9.4-0.7,14.4-2.9,18-7.8
	c2.9-4,7-15.2,6.5-17.7c-0.3-1.4-0.7-7.1-0.9-12.8c-0.3-6.6-0.9-11.1-1.9-12.5c-0.7-1.2-1.6-3.3-2-4.7c-0.9-4.1-3.1-9.4-5-12.4
	c-1.8-2.6-2.1-3.7-3.4-9.6c-0.3-1.4-1.1-3.2-1.8-4c-0.7-0.8-2.7-4.5-4.4-8.1c-1.7-3.7-3.8-7.2-4.6-7.9c-1.8-1.5-2-7.2-0.4-10.3
	c2.9-5.6,4.9-6.7,11.9-6.7c5.4,0,7,0.4,8.5,2c1,1.1,2.4,2,3.1,2c0.7,0,1.8-0.9,2.4-2c0.8-1.6,2.1-2,5.9-2c5.1,0,9.1-2.2,11.2-6.2
	c2.5-4.7-4.3-16.7-12.4-21.6c-3.4-2.1-15.2-5.4-25.2-7C245.8,1064.6,228.8,1064.8,223.9,1066.2z"/>
<path d="M539.8,1068.9c-2.1,4.1-2.2,10.4-0.6,27.4c1.2,11.8,5.1,30.5,7.3,34.5c0.5,0.8,3.3,7.1,6.3,13.9c3.1,6.8,6.8,14.2,8.3,16.4
	c5.8,8.4,19.2,17.1,23.6,15.4c3-1.1,7-9.6,7.2-15c0.1-3.9,1.2-7.4,4.5-14c4.1-8.3,6.2-10.8,5.8-7c-0.6,5,5.2,23.1,8.8,28
	c1.3,1.7,2.4,3.5,2.4,3.9c0,1.2,6.3,7.8,9.9,10.4c11.8,8.4,17.4,11.2,24.5,12.2c14.4,2,29.1,1,48.3-3.3c2.3-0.5,5.2-0.9,6.4-0.9
	s3-0.6,3.8-1.3c1.8-1.5,12-4.2,19.2-5.2c2.6-0.3,6.3-1.5,8.4-2.5c2.1-1.1,6.7-2.9,10.1-4c3.5-1.2,7-3,7.7-3.9c0.6-1,3.1-3,5.5-4.5
	c2.3-1.4,4.2-3.3,4.2-4c0-0.8,1.5-2.3,3.3-3.4c2.3-1.5,4-4,6.1-8.8c2.8-6.4,2.9-6.7,1.1-8c-1-0.8-2.8-1.4-3.9-1.4
	c-3.6,0-16,2.6-18.3,3.8c-1.2,0.7-2.9,0.9-3.8,0.6c-1.6-0.6-6.6,0.2-26.4,4.6c-4.7,1-8.8,1.7-9.3,1.4c-0.5-0.3-5.4,0.2-11.1,1.1
	c-10.1,1.6-28.6,3.4-40.2,3.8c-8.8,0.4-22.3-1.7-24.3-3.7c-1.5-1.5-1.5-1.9,0.8-6.2c2.4-4.5,13.1-15.4,15.1-15.4
	c0.5,0,2.3-1,3.9-2.2l2.9-2.1l6.3,2.8c11.6,5.2,24.3,5.1,40.1-0.4c6.5-2.3,9.9-4.7,13.3-9.2c1.9-2.6,2.2-4.2,2-9.9
	c-0.2-7.5-0.7-8.2-12.7-21.3l-5.4-5.8l-8.6-0.6c-7.5-0.5-10-0.2-20.7,2.6c-6.7,1.7-15.7,4.4-20.1,6c-4.4,1.6-9,2.7-10.4,2.4
	c-1.9-0.4-2.7,0-3.1,1.5c-0.6,1.9-7.8,6.2-10.4,6.2c-0.6,0-4.7,3.1-9.1,7c-4.3,3.8-8.2,7-8.6,7c-0.4,0-0.4-3.4,0-7.5
	c0.5-6.1,0.4-8.1-0.9-10c-0.9-1.3-1.6-2.9-1.6-3.6c0-0.6-2.1-3.4-4.6-6.3c-9.8-10.8-16.5-11.2-19-1c-1,3.9-10.5,23.7-11.8,24.6
	c-1.7,1.1-2.5-0.1-2.6-4c0-6.3-0.5-10.6-1.7-13.2c-0.6-1.4-1.6-5-2.3-7.9c-0.7-3-2.7-7.5-4.5-10c-1.8-2.6-3.4-5.5-3.6-6.5
	c-0.6-3-5.3-5.8-10.7-6.4C541.7,1065.6,541.5,1065.7,539.8,1068.9z"/>
<path d="M941.4,1069c-2.3,3.9-2.4,5.4-0.5,8.8c0.8,1.4,1.4,3.6,1.5,4.8c0,2.3,7.4,12.1,11.4,15.2c1.1,0.8,4.6,2.9,7.9,4.6
	c3.2,1.8,6.8,4.1,8,5.2c1.2,1.1,4.2,3.2,6.6,4.6c8.5,4.7,18.9,15.5,15.4,15.6c-0.5,0.1-6.4,0.2-13.3,0.4
	c-16.4,0.5-19.1,1.1-24.1,5.4c-5.9,5.1-7.2,8.6-5.4,14.8c3.1,11.1,3.8,13,6.6,17.1c1.6,2.3,2.9,4.6,2.9,5.1
	c0,2.9,30.2,32.1,33.3,32.2c0.4,0,2.4,1.1,4.5,2.5c2,1.3,5.7,3.5,8.2,4.8c2.5,1.3,4.9,3.3,5.5,4.5c0.5,1.2,1.3,2.2,1.7,2.2
	c0.5,0,0.8,0.7,0.8,1.5s-0.5,1.5-1.1,1.5c-0.5,0-0.7,0.4-0.4,1c1.3,2,3.6,0.9,4.2-2c0.5-2.6,1-3,3.9-3c1.9,0,7.5,0.7,12.4,1.6
	c25.8,4.4,32.9-8.7,20.6-38.1c-7.4-17.5-8.9-20.9-10.2-22.5c-2.4-3.2-8.4-14.8-8.4-16.3c0-0.9-2.8-4.7-6.3-8.4
	c-3.5-3.8-8.4-9.6-11-12.9c-2.5-3.4-6.1-7.4-7.9-8.9s-4.6-4.4-6.3-6.5c-1.6-2.1-6.8-6.7-11.4-10.1c-4.6-3.4-10-7.8-12-9.8
	c-3.7-3.7-14.7-11.9-21.2-15.9c-2.5-1.5-5.2-2.2-8.8-2.2C943.8,1065.8,943.2,1066.1,941.4,1069z M1021.4,1166
	c1.8,3.9,3.3,8.7,3.4,10.7c0.1,3.5,0,3.6-4.2,3.9c-8.7,0.6-27.1-5.8-33.2-11.5l-2.5-2.4l2.3-1.9c1.3-1.1,4-2.2,6-2.5
	c6.2-1,16.6-3.8,19.2-5.1C1015.8,1155.5,1017.3,1157,1021.4,1166z"/>
<path d="M1249.9,1069.2c-0.5,0.2-4.6,1.1-9,2.1c-4.4,0.9-8.9,2-10,2.5c-15,6.1-21.3,11.4-27.3,23.2c-2.5,4.9-4.3,9.9-4.4,12.1
	c-0.1,2.9-0.8,4.2-3.3,6.1c-5.4,4.1-6.5,7.7-5.4,17.9c0.9,8.5,1.6,10.8,9,26.2c0.8,1.7,8.7,11.6,11.7,14.8c3.1,3.2,10.8,8,15.8,9.7
	c6.1,2.1,20.9,2.9,27,1.4c5.1-1.2,25.8-12.2,27.2-14.4c1.4-2.3,7-6,9.1-6c2,0,0.9,8.5-4.2,31.5c-4.5,19.9-6.8,27.4-13.7,45
	c-1.8,4.4-4.7,11.8-6.5,16.5s-4.7,11.6-6.4,15.5c-1.8,3.8-4.2,9-5.3,11.5c-1.1,2.5-4.2,10.1-6.8,17c-2.7,6.9-5.7,14.5-6.9,16.9
	c-1.2,2.8-1.6,5.1-1.2,6c0.5,0.9,1.2,3.4,1.5,5.6c1.3,7.3,9.2,17,15.2,18.6c8.4,2.4,12.7-2.7,19.4-23.1c3.9-11.6,9.3-25.4,10.9-27.4
	c0.4-0.6,2.1-4.5,3.6-8.6c4.3-11.6,9.6-24.4,10.6-25.6c0.6-0.7,1.9-4.5,3-8.5c1.1-4.1,3.7-12.8,5.8-19.4
	c8.3-26.1,10.6-40.3,10.6-65.5c-0.1-23.9-1.1-28.7-8.1-38.4c-4.2-5.8-4.4-6.3-4.4-13.2c0-7.6-1-11.1-5.9-21.4
	c-6-12.4-11.3-18.6-21.3-24.5c-5.4-3.2-6.3-3.4-17.5-3.9C1256.2,1069.1,1250.5,1069,1249.9,1069.2z M1280.2,1101.4
	c2.5,1.7,3.1,7.4,1,9.2c-0.7,0.6-4.2,1.6-7.8,2.2s-14,3.7-23.3,6.8c-20.9,7-22.5,6.3-13.8-5.6c3.3-4.5,12.2-9.4,22.6-12.5
	C1265.8,1099.4,1277.3,1099.4,1280.2,1101.4z"/>
<path d="M1336.9,1071.5c-4.3,6.5-6.8,37.9-4.5,55.9c0.7,5.4,1.4,11.7,1.6,13.9c0.1,2.2,1.2,6.7,2.3,9.9c1.2,3.3,2.1,6.6,2.1,7.4
	c0,3.1,7.6,18,12.7,24.9c4.7,6.4,6.1,7.6,13,10.9c10.8,5.1,15.6,5.4,24.1,1.4c4.7-2.2,8.4-4.9,12.4-9.2c3.2-3.4,5.8-6.5,5.8-6.9
	s1.6-2.6,3.5-4.9c2-2.4,6.1-9.5,9.1-15.9c3.1-6.4,6.2-12.9,7.1-14.6c5.8-11.6,6.2-34.4,0.7-44.4c-1.3-2.4-2.4-4.9-2.4-5.5
	c0-1.2-4.9-9-7.3-11.8c-1.2-1.3-2.3-1.5-5.3-0.8c-5.6,1.3-5.5,1-5.7,16.5c-0.2,10.7-0.3,11.2-4.2,18.9c-8,15.7-9.1,17.4-20.3,30.4
	c-5.7,6.5-11.8,10.5-15.5,10c-3.2-0.5-4.5-8.8-5.1-33.6c-0.3-11.8-0.8-21.8-1.2-22.3c-0.3-0.5,0-2.5,0.6-4.3c1-3.1,0.8-4.2-2.5-10.8
	c-5.6-11.3-6.3-12.5-9.6-15.2C1344.1,1067.8,1339.2,1067.9,1336.9,1071.5z"/>
<path d="M1964.9,1085.3c-16.5,2.7-33.7,12.7-48.2,27.9c-8.2,8.6-9,9.7-11.2,17.1c-3.6,11.8-4,25.5-1.1,35.4
	c5.1,17.6,9.1,26.6,14.9,33.6c2.2,2.7,4.1,5.3,4.1,5.6c0,1.5,11.9,9.5,17.5,11.8c5.7,2.3,6.5,2.3,15,1.3c5-0.5,11.2-2,13.8-3.1
	c2.7-1.2,6.8-2.1,9.2-2.1c3.9,0,4.5-0.4,6.4-3.5c1.1-1.9,3.1-3.9,4.3-4.4c1.3-0.5,5-4.1,8.3-8.1s7.8-9.3,10.1-11.9
	c6.7-7.7,10.9-14.2,14.4-22.6c5.4-13.2,5.8-14.7,6.5-24.5l0.7-9.5l-4.6-10.2c-8.3-18.6-16.5-26.7-32-31.7
	C1984.2,1083.5,1977.5,1083.2,1964.9,1085.3z M1999.5,1121.4c1.8,0.9,2.8,2.4,3.2,4.6c0.7,4.4-8.3,22.8-15.6,31.8
	c-4.7,6-7.5,8.6-17,16c-5.2,4.2-14.5,8.1-21.4,9.2c-8.5,1.3-13.6-0.7-15.4-6c-1.6-5-0.3-18.8,2.3-23c1.7-2.8,2.5-3.2,6.3-3.2
	c8.8,0,13.6-3.5,16-11.6c1.3-4.7,2-5.5,6-7.4c2.5-1.2,5-3.2,5.6-4.3c2.3-4.4,5.2-6.7,8.5-6.7c1.8,0,3.5-0.4,3.9-0.9
	C1982.7,1118.6,1996.3,1119.8,1999.5,1121.4z"/>
<path d="M2098.9,1084.8c-0.3,0.6-0.4,2.3-0.1,3.8c0.3,1.5,0.3,3.2-0.2,3.8c-0.4,0.7-4.3,3-8.7,5.1c-8.1,4.1-25.6,13.9-29.2,16.4
	c-12.3,8.6-22.7,22.7-25,33.7c-1.8,8.8,0.1,20.1,5,30.4c6.4,13.2,14.4,20.3,27.7,24.4c13,4.1,25.9,2.6,39.6-4.4
	c4.4-2.2,10.6-5,13.8-6.2c3.3-1.1,7.1-2.8,8.5-3.5c2.3-1.3,7.7-3.4,13.2-5.1c1.2-0.4,2.5,1,4.7,4.9c3.4,6.1,13.6,15.7,21.3,20.1
	c4.7,2.7,5.9,2.9,15.8,3c8.9,0.1,11.6-0.3,15.7-2c2.7-1.2,8.3-3.5,12.4-5c5.6-2.1,8.7-4.1,12.3-7.6c2.7-2.7,6.7-5.8,8.9-6.9
	c4.2-2.1,12.8-10.8,16-16c2.3-3.7,4.9-3.5,6,0.6c1.4,5.2,10.3,16.2,16.4,20.2c5.5,3.6,6.1,3.8,13.3,3.6c7.1-0.2,11-1.1,20.1-4.5
	c4.3-1.6,22.1-13,24.1-15.4c0.8-0.9,4.3-4.1,7.9-6.9c3.6-2.9,8.5-7.8,11-10.9s6.3-7.9,8.6-10.6c7.1-8.7,9.7-15.1,10.2-24.9
	c0.5-10.1-0.2-12.2-7.1-21.3c-3.6-4.8-9.6-6.7-13.2-4.4c-3.8,2.5-7.2,7.7-9,13.8c-3,10.7-23,30.3-38.5,38c-1.4,0.6-3.6,1.9-5,2.8
	c-4.1,2.6-11.6,5.1-13.4,4.4c-1.3-0.5-1.6-1.3-1-3.8c0.7-3.4,7.6-16.7,10.5-20.5c7.6-9.7-3.5-33.1-15.7-33.1c-2.9,0-3.9,0.7-6.9,4.7
	c-1.9,2.7-3.5,5.9-3.5,7.3s-1.1,4.2-2.5,6.2s-2.5,4.5-2.5,5.4c0,3.1-4.3,13.5-5.4,13.1c-0.6-0.2-2-2.1-3.1-4.2
	c-2.4-4.6-3.6-5.1-7.5-3.5c-2.2,0.9-3.3,2.3-4,5.1c-0.6,2.2-0.8,4.4-0.5,4.9c1.8,3-3,7.5-19.5,18.5c-15.2,10.1-34.4,18.5-42.1,18.5
	c-4.3,0-7.9-2-7.9-4.4c0-4.6,8.8-15.4,18.3-22.5c2.9-2.1,6-4.7,7-5.9c1-1.1,3.8-3.2,6.3-4.8c8.6-5.5,10.1-14,4.3-25.5
	c-5.1-10.3-10.6-14.9-17.9-14.9c-2.3,0-3.3,0.6-4,2.5c-0.5,1.4-1.6,2.8-2.4,3.1c-0.9,0.3-1.8,1.4-2.1,2.4c-0.8,2.6-4.3,6.1-11,11.2
	c-8.3,6.3-15.5,14.1-21.8,23.9c-3,4.6-6.5,9.3-7.8,10.4c-5.9,5-24.5,12.6-37.1,15c-4.6,0.9-10.1,2-12.3,2.5
	c-5.2,1.1-19.1,0.3-22.4-1.3c-9.1-4.4,8.7-27.7,30.6-40c5.5-3.1,10.9-5.7,12-5.7c3.1,0,17.5-6,18.9-7.8c2.7-3.6,2.6-6.8-0.6-13.6
	c-5.8-12.3-9.5-14.7-18.9-12.2c-5.7,1.5-6.9,1.1-6.7-2.4C2102.9,1084.2,2100.2,1082.8,2098.9,1084.8z"/>
<path d="M2631.5,1110.6c-4.7,5.1-10,14.1-12.4,21c-1,3-3.3,7.4-5.1,9.6c-1.8,2.3-4.7,7.2-6.6,11.1c-1.8,3.8-4.9,8.6-6.8,10.7
	l-3.4,3.6l2.7,4.9c4.3,7.9,13.7,11.3,21.8,8c4.4-1.9,10.4-8.8,11.6-13.4c0.6-2.1,2.4-6.5,4.1-9.7c1.6-3.2,3-6.7,3-7.7
	s1.1-4.4,2.5-7.6c4.5-10,2.9-25.6-3.3-32.6C2637.3,1105.9,2635.5,1106.4,2631.5,1110.6z"/>
<path d="M124.9,1116.7c-5.4,8.8-6.4,12.2-6.7,22.4c-0.2,9.5,0.1,13.4,1.8,27.7c1.2,9.9,9.2,22.7,16.6,26.6c4.7,2.5,8.6,1.8,10.9-1.9
	c2.2-3.5,2.1-6.7-0.6-36.3c-1.5-17-3.7-22.5-12.6-31.4c-3.2-3.3-5.9-6.4-5.9-7C128.4,1115.5,125.7,1115.5,124.9,1116.7z"/>
<path d="M473.9,1120.2c-2.8,4.3-4,12.9-2.7,19.4c0.7,3.2,1.2,7.4,1.2,9.3s0.7,4.3,1.5,5.3c0.8,1.1,1.5,3.1,1.5,4.5
	c0,10.7,6.4,26.1,13.8,33.4c6.2,6.1,8.9,6.7,12.9,2.9c2.9-2.6,3.1-3.4,3.2-9.6c0-3.7-0.6-8.4-1.4-10.4c-0.7-2-2.1-7.9-2.9-13.1
	c-0.8-5.2-2-9.9-2.6-10.5c-0.5-0.5-1-2.5-1-4.4c0-3.7-2.2-9-5.6-13.7c-1.2-1.7-2.5-3.9-2.8-5.1c-0.9-3-9.1-10.4-11.5-10.4
	C476.4,1117.8,474.8,1118.9,473.9,1120.2z"/>
<path d="M1761.3,1122.9c-2.7,2.7-5.9,9.7-5.9,13.1c0,1.5-0.4,3.8-1,5.2c-0.5,1.4-1.1,6.7-1.4,11.8c-0.7,14.6-2.6,38.1-3.1,38.9
	c-1,1.6,3.4,12.9,6.5,16.8c3.1,3.8,3.7,4.1,8.4,4.1c4.8,0,5.3-0.2,6.8-3.3c3.2-6.3,4.6-18.9,4.7-41.7c0-8.5,0.5-16.9,0.9-18.5
	c1.4-4.9-1-19-3.9-22.3C1767.4,1120.2,1764.9,1119.3,1761.3,1122.9z"/>
<path d="M2728.8,1175.6c-3.5,3-4.3,5.5-5.4,17.8c-2,21.8-3.4,28.8-7.3,39.3c-1.1,3-2.4,7.3-2.8,9.5c-0.4,2.3-1.2,5.9-1.7,8.1
	c-2.9,11.5-4.5,19.5-4.8,23.5c-0.2,2.4-0.8,8.6-1.4,13.7c-0.6,5.2-1,13.3-0.9,18.1c0.1,4.8-0.1,10.6-0.6,12.9
	c-0.6,3.6-0.5,4.4,1,4.9c4.5,1.8,12.4-6.1,14.4-14.3c2.5-9.8,4.4-16,6.1-19.3c1-2,2.8-7.4,3.9-12.1c1.2-4.6,3-9.6,4.1-11.1
	s2-3.2,2-3.7c0-0.6,1.1-4.5,2.5-8.6c4.8-14.3,7.2-25.9,8.3-40c1.3-18.2,1.2-20.8-1.7-28.2
	C2740.7,1176.2,2733.7,1171.4,2728.8,1175.6z"/>
<path d="M1969.1,717.4c-2.9,1.6-3.5,2.9-2.8,5.8c1.8,7.6,11.6,20,15.8,20c5.2,0,6.2-5.5,2.7-14.9c-2.2-6-3.4-7.8-6.4-9.7
	C1974.3,716,1972.1,715.7,1969.1,717.4z"/>
</svg>
