<?xml version="1.0" standalone="no"?>
<!DOCTYPE svg PUBLIC "-//W3C//DTD SVG 20010904//EN"
 "http://www.w3.org/TR/2001/REC-SVG-20010904/DTD/svg10.dtd">
<svg version="1.0" xmlns="http://www.w3.org/2000/svg"
 width="1029.000000pt" height="515.000000pt" viewBox="0 0 1029.000000 515.000000"
 preserveAspectRatio="xMidYMid meet">

<g transform="translate(0.000000,515.000000) scale(0.100000,-0.100000)"
fill="#f9f9f6" stroke="none">
<path d="M699 5106 c-3 -4 -5 -33 -3 -66 2 -33 4 -122 5 -197 l1 -138 -58 -7
c-33 -4 -121 -6 -197 -5 -122 1 -140 -1 -148 -16 -8 -13 -4 -23 16 -41 34 -32
119 -46 273 -46 l120 0 4 -132 c2 -97 0 -137 -9 -149 -17 -20 -16 -34 2 -49
12 -10 15 -48 15 -220 0 -199 -1 -208 -20 -213 -25 -6 -26 -35 -2 -44 9 -3 27
-15 39 -25 28 -26 96 -35 114 -16 11 13 16 11 34 -16 32 -48 77 -68 148 -68
80 0 143 30 228 110 57 54 62 62 63 103 1 62 -21 62 -117 0 -81 -53 -150 -91
-166 -91 -15 0 7 80 45 155 52 107 54 108 97 90 51 -21 135 -19 173 4 17 10
41 35 53 55 21 33 41 47 41 28 0 -5 20 -23 46 -41 97 -70 116 -115 69 -165
-28 -30 -41 -31 -110 -11 -60 19 -74 15 -68 -19 11 -53 101 -93 218 -97 80 -2
85 -1 85 14 0 7 9 31 21 52 36 70 12 144 -73 231 l-50 52 31 42 c17 24 31 49
31 57 0 7 11 18 25 23 25 10 36 50 14 50 -7 0 -9 11 -6 28 17 81 24 128 21
134 -10 16 -42 -6 -52 -36 -19 -53 -65 -109 -142 -175 l-71 -62 -21 27 c-28
35 -93 64 -145 64 -23 0 -45 5 -48 10 -3 6 -18 10 -32 10 -20 0 -24 -4 -20
-20 4 -14 -1 -24 -16 -31 -100 -54 -236 -240 -272 -372 -7 -28 -14 -45 -15
-37 0 8 -1 185 -3 392 l-2 378 45 6 c25 3 70 12 101 20 31 8 67 14 80 14 40 0
189 57 215 81 29 27 22 36 -31 44 -22 3 -46 8 -53 11 -8 2 -26 -2 -40 -10 -27
-14 -248 -56 -296 -56 -25 0 -26 2 -26 64 0 85 -17 207 -36 251 -8 19 -24 41
-37 50 -26 17 -79 29 -88 21z m551 -971 c-13 -14 -27 -25 -32 -25 -13 0 15 39
32 44 8 2 17 4 19 5 3 0 -6 -10 -19 -24z"/>
<path d="M1815 4863 c4 -115 8 -224 9 -243 l1 -35 -50 1 c-27 1 -79 3 -114 5
-52 3 -65 1 -74 -13 -9 -14 -7 -23 9 -45 26 -34 75 -52 171 -60 40 -3 73 -9
73 -12 0 -3 6 -71 14 -151 8 -80 18 -196 22 -259 6 -96 10 -117 29 -139 25
-29 80 -35 96 -11 6 8 8 46 4 89 -3 41 -8 118 -10 170 -3 52 -9 144 -14 205
-5 60 -9 110 -8 111 10 8 222 62 228 58 5 -3 9 1 9 9 0 8 8 18 17 21 38 15
-10 26 -132 31 -70 3 -130 7 -132 9 -3 2 -9 66 -14 143 -14 205 -22 240 -66
285 -20 21 -46 38 -57 38 -18 0 -19 -6 -11 -207z"/>
<path d="M5577 4888 c-9 -12 -19 -45 -22 -73 -4 -27 -12 -59 -18 -70 -6 -11
-10 -30 -8 -41 1 -12 -5 -48 -13 -80 -26 -105 -46 -245 -53 -368 -3 -67 -7
-123 -10 -125 -2 -3 -34 -5 -71 -6 -75 -1 -140 -28 -179 -74 -26 -29 -27 -39
-10 -62 30 -40 51 -40 111 -2 64 39 146 57 146 31 0 -8 -14 -27 -31 -44 -28
-27 -37 -29 -132 -35 -56 -4 -145 -16 -197 -27 -67 -15 -98 -17 -107 -10 -16
13 -17 108 -1 143 11 25 20 29 47 25 55 -7 153 61 167 117 10 40 -14 80 -62
102 -58 28 -103 27 -148 -4 -44 -30 -52 -31 -59 -5 -6 24 -52 37 -72 20 -8 -7
-45 -70 -82 -141 -37 -71 -70 -125 -74 -121 -14 15 -29 77 -29 116 0 69 -18
115 -53 136 -40 25 -85 26 -94 3 -15 -39 53 -385 84 -427 27 -36 66 -56 110
-56 43 0 68 20 97 78 16 31 36 43 36 22 0 -5 16 -28 36 -50 58 -64 100 -68
244 -20 49 16 78 20 115 15 175 -22 218 -17 276 32 44 38 56 68 63 173 11 167
27 302 48 410 35 181 37 193 49 289 11 92 11 94 -12 117 -37 36 -74 41 -92 12z"/>
<path d="M240 4785 c-15 -18 -5 -35 21 -35 24 0 37 29 18 41 -19 12 -25 11
-39 -6z"/>
<path d="M1662 4763 c2 -10 13 -19 26 -21 17 -3 22 2 22 17 0 16 -6 21 -26 21
-19 0 -25 -5 -22 -17z"/>
<path d="M2144 4765 c-4 -10 -1 -21 7 -26 20 -12 34 -5 34 17 0 24 -33 31 -41
9z"/>
<path d="M2625 4760 c-9 -15 4 -30 26 -30 12 0 19 7 19 20 0 21 -33 29 -45 10z"/>
<path d="M3113 4754 c-9 -23 13 -40 32 -24 12 10 13 16 4 26 -15 18 -28 18
-36 -2z"/>
<path d="M3597 4754 c-16 -16 -6 -35 16 -32 12 2 22 10 22 18 0 16 -26 25 -38
14z"/>
<path d="M4091 4751 c-15 -10 -8 -41 9 -41 15 0 25 29 14 40 -5 5 -15 5 -23 1z"/>
<path d="M4567 4743 c-14 -13 -6 -33 13 -33 13 0 20 7 20 20 0 19 -20 27 -33
13z"/>
<path d="M5047 4733 c-3 -5 -2 -15 3 -22 10 -17 43 -6 38 12 -6 15 -34 22 -41
10z"/>
<path d="M8933 4729 c-16 -16 -5 -39 18 -39 24 0 37 29 18 41 -18 11 -23 11
-36 -2z"/>
<path d="M9424 4725 c-4 -9 -2 -21 4 -27 16 -16 47 -5 47 17 0 26 -42 34 -51
10z"/>
<path d="M9924 4725 c-4 -9 -2 -21 4 -27 16 -16 47 -5 47 17 0 26 -42 34 -51
10z"/>
<path d="M6006 4721 c-8 -12 21 -34 34 -26 17 11 11 35 -9 35 -11 0 -22 -4
-25 -9z"/>
<path d="M6492 4713 c2 -10 10 -18 18 -18 8 0 16 8 18 18 2 12 -3 17 -18 17
-15 0 -20 -5 -18 -17z"/>
<path d="M6975 4720 c-8 -13 3 -30 20 -30 14 0 27 24 18 34 -10 9 -31 7 -38
-4z"/>
<path d="M7455 4720 c-4 -7 -3 -16 3 -22 14 -14 45 -2 40 15 -6 16 -34 21 -43
7z"/>
<path d="M7945 4720 c-4 -7 -3 -16 3 -22 14 -14 45 -2 40 15 -6 16 -34 21 -43
7z"/>
<path d="M8430 4710 c0 -15 7 -20 25 -20 18 0 25 5 25 20 0 15 -7 20 -25 20
-18 0 -25 -5 -25 -20z"/>
<path d="M6236 4408 c-3 -7 -7 -68 -10 -136 -3 -68 -9 -130 -14 -138 -4 -7
-46 -55 -93 -106 -79 -85 -160 -146 -215 -162 -36 -11 -55 18 -52 78 l3 51 56
-3 c67 -4 88 5 151 66 36 35 53 62 69 109 26 78 17 109 -40 141 -93 52 -211
13 -293 -95 -59 -78 -79 -127 -85 -199 -8 -89 16 -163 67 -207 48 -40 115 -62
167 -54 21 4 42 2 50 -4 17 -15 44 -4 37 14 -3 9 17 33 53 63 32 27 78 68 102
92 l44 43 32 -35 c24 -26 41 -36 63 -36 33 0 62 30 62 64 0 21 9 53 48 161 29
82 36 93 65 97 30 4 28 31 -3 38 -14 4 -24 12 -23 18 4 16 -56 62 -81 62 -12
0 -33 -11 -46 -25 -29 -31 -50 -18 -50 30 0 49 -53 109 -64 73z m-226 -203 c0
-8 -16 -32 -35 -54 -58 -64 -103 -60 -53 5 45 58 88 82 88 49z"/>
<path d="M3194 4370 c-27 -11 -81 -73 -98 -114 -7 -18 -17 -61 -21 -94 -4 -34
-10 -62 -14 -62 -3 0 -18 12 -32 28 -59 62 -215 112 -299 97 -83 -16 -130 -67
-130 -144 0 -47 0 -47 68 -26 20 7 22 4 23 -36 3 -95 6 -139 17 -262 18 -196
31 -227 95 -227 48 0 57 25 57 163 0 141 -9 127 90 147 67 13 116 41 137 78
l15 27 47 -45 c50 -49 102 -70 173 -70 45 0 132 24 157 44 15 12 24 17 122 69
66 34 74 36 105 25 50 -18 78 -1 99 61 19 57 14 86 -15 94 -26 7 -26 37 0 87
11 22 20 50 20 63 0 36 -28 97 -44 97 -20 0 -86 -78 -114 -133 -13 -25 -26
-65 -30 -89 -7 -40 -12 -46 -92 -96 -104 -65 -193 -109 -242 -117 -31 -6 -38
-4 -52 17 -9 13 -19 46 -23 73 -6 45 -5 48 13 40 27 -12 100 -18 129 -11 13 3
40 27 60 53 30 39 35 53 35 100 0 82 -16 105 -105 148 -51 25 -112 31 -151 15z
m126 -105 c0 -43 -62 -117 -82 -97 -8 8 -5 22 12 54 12 24 27 46 34 50 19 13
36 9 36 -7z m-433 -150 c30 -8 73 -61 73 -89 0 -29 -36 -62 -76 -70 l-32 -7
-6 63 c-4 35 -10 76 -13 91 -5 31 -8 30 54 12z"/>
<path d="M6732 4300 c-50 -23 -135 -109 -161 -165 -11 -23 -22 -61 -26 -85 -6
-40 -3 -50 23 -85 33 -46 100 -75 173 -75 43 0 122 21 197 53 42 17 139 97
147 119 10 29 -3 38 -33 23 -68 -34 -267 -86 -317 -83 -48 3 -50 4 -53 35 -4
37 28 105 60 127 12 9 37 16 54 16 78 0 134 29 134 70 0 11 -12 31 -27 45 -35
31 -107 34 -171 5z"/>
<path d="M220 4290 c0 -15 7 -20 25 -20 18 0 25 5 25 20 0 15 -7 20 -25 20
-18 0 -25 -5 -25 -20z"/>
<path d="M2143 4293 c-7 -3 -13 -14 -13 -25 0 -14 6 -19 22 -16 13 2 24 10 26
19 3 18 -15 29 -35 22z"/>
<path d="M2615 4281 c-9 -16 3 -31 26 -31 14 0 19 6 17 17 -4 20 -33 29 -43
14z"/>
<path d="M8355 4275 c-27 -7 -76 -22 -107 -34 -71 -26 -217 -29 -262 -6 -15 8
-32 12 -37 9 -5 -3 -60 2 -122 12 -138 20 -203 14 -219 -21 -18 -41 18 -83
134 -153 168 -101 179 -119 98 -159 -59 -30 -149 -31 -214 -2 -60 26 -90 22
-94 -12 -4 -32 28 -65 100 -105 49 -27 60 -29 153 -28 114 1 171 21 233 82 29
29 37 33 51 23 79 -57 218 -70 370 -35 53 13 163 52 173 62 19 19 -1 63 -35
77 -29 12 -43 11 -125 -11 -102 -26 -265 -35 -284 -16 -8 8 1 25 32 61 23 28
53 60 67 71 25 19 25 19 66 -2 57 -29 137 -27 182 4 34 23 48 43 60 85 12 45
-82 115 -151 112 -11 0 -41 -7 -69 -14z m-284 -171 c-23 -26 -41 -55 -41 -64
0 -10 -6 -23 -14 -29 -12 -10 -18 -8 -31 12 -9 14 -43 44 -75 68 -33 24 -60
47 -60 51 0 5 59 8 131 8 l131 0 -41 -46z"/>
<path d="M3585 4271 c-9 -16 3 -31 26 -31 14 0 19 6 17 17 -4 20 -33 29 -43
14z"/>
<path d="M4070 4256 c0 -8 5 -18 10 -21 13 -8 42 14 34 26 -9 15 -44 10 -44
-5z"/>
<path d="M6977 4244 c-14 -14 -7 -35 11 -32 9 2 17 10 17 17 0 16 -18 25 -28
15z"/>
<path d="M7455 4241 c-8 -15 3 -31 21 -31 9 0 14 7 12 17 -4 20 -24 28 -33 14z"/>
<path d="M8931 4236 c-9 -10 -8 -16 4 -26 21 -17 51 6 34 26 -6 8 -15 14 -19
14 -4 0 -13 -6 -19 -14z"/>
<path d="M9427 4243 c-12 -12 -7 -31 9 -37 21 -8 45 11 37 30 -5 14 -34 19
-46 7z"/>
<path d="M9926 4234 c-4 -10 -2 -22 3 -27 15 -15 46 -3 46 18 0 26 -40 33 -49
9z"/>
<path d="M211 3831 c-19 -12 -6 -41 18 -41 26 0 36 17 21 35 -14 17 -20 18
-39 6z"/>
<path d="M2120 3790 c0 -16 5 -21 23 -18 12 2 22 10 22 18 0 8 -10 16 -22 18
-18 3 -23 -2 -23 -18z"/>
<path d="M2607 3796 c-7 -18 1 -26 25 -26 13 0 18 6 16 17 -4 22 -34 29 -41 9z"/>
<path d="M3095 3790 c-4 -7 -3 -16 3 -22 14 -14 45 -2 40 15 -6 16 -34 21 -43
7z"/>
<path d="M3587 3794 c-14 -15 -6 -34 14 -34 14 0 19 5 17 17 -3 18 -20 27 -31
17z"/>
<path d="M4064 3779 c-3 -6 -2 -15 3 -20 13 -13 43 -1 43 17 0 16 -36 19 -46
3z"/>
<path d="M4550 3764 c0 -9 7 -14 17 -12 25 5 28 28 4 28 -12 0 -21 -6 -21 -16z"/>
<path d="M5034 3769 c-3 -6 -2 -15 4 -21 13 -13 32 -2 32 18 0 16 -26 19 -36
3z"/>
<path d="M5520 3755 c0 -10 7 -15 18 -13 21 4 19 22 -2 26 -10 2 -16 -3 -16
-13z"/>
<path d="M6484 3759 c-10 -17 13 -36 27 -22 12 12 4 33 -11 33 -5 0 -12 -5
-16 -11z"/>
<path d="M6977 3763 c-4 -3 -7 -12 -7 -20 0 -15 26 -18 34 -4 7 11 -18 33 -27
24z"/>
<path d="M7450 3745 c0 -8 9 -15 20 -15 11 0 20 7 20 15 0 8 -9 15 -20 15 -11
0 -20 -7 -20 -15z"/>
<path d="M7940 3740 c0 -13 7 -20 20 -20 13 0 20 7 20 20 0 13 -7 20 -20 20
-13 0 -20 -7 -20 -20z"/>
<path d="M8432 3743 c2 -10 10 -18 18 -18 8 0 16 8 18 18 2 12 -3 17 -18 17
-15 0 -20 -5 -18 -17z"/>
<path d="M8927 3753 c-24 -23 12 -55 38 -33 12 10 13 16 4 26 -12 15 -31 18
-42 7z"/>
<path d="M9424 3745 c-4 -9 -2 -21 4 -27 15 -15 44 -1 40 19 -4 23 -36 29 -44
8z"/>
<path d="M9930 3745 c-15 -18 -5 -35 20 -35 10 0 22 5 25 10 7 11 -12 40 -25
40 -4 0 -13 -7 -20 -15z"/>
<path d="M6056 3444 c-20 -19 -20 -19 4 -69 38 -78 130 -89 130 -17 0 30 -69
102 -98 102 -11 0 -28 -7 -36 -16z"/>
<path d="M8044 3396 c-22 -10 -36 -27 -48 -57 -10 -24 -27 -51 -39 -61 -19
-14 -20 -19 -9 -40 10 -18 10 -35 3 -68 -5 -25 -17 -110 -26 -189 -8 -80 -18
-147 -21 -150 -3 -3 -63 -7 -132 -8 -70 -2 -132 -5 -139 -8 -25 -9 -15 -62 18
-89 40 -34 67 -40 149 -33 80 7 83 3 64 -63 -8 -25 -17 -81 -20 -125 -6 -72
-4 -83 15 -107 28 -35 89 -49 106 -24 7 9 15 53 18 98 5 69 38 233 49 243 6 5
82 25 85 21 2 -1 -2 -40 -8 -87 -6 -46 -8 -102 -4 -125 11 -77 97 -140 170
-126 28 5 109 75 117 101 3 10 18 14 52 13 42 -2 51 2 76 28 28 30 30 31 59
15 17 -8 51 -18 76 -22 39 -5 45 -9 45 -29 0 -14 -10 -30 -25 -40 -20 -13 -23
-20 -15 -35 19 -34 84 -41 127 -13 25 15 53 73 53 108 0 11 7 30 15 40 21 28
19 49 -10 76 -14 13 -25 28 -25 34 -1 16 -36 56 -49 56 -6 0 -11 4 -11 8 0 13
-47 32 -79 32 -44 0 -116 -36 -168 -85 l-48 -44 -3 39 c-2 22 1 48 7 58 12 23
3 38 -31 51 -29 11 -38 4 -78 -64 -40 -66 -100 -145 -112 -145 -7 0 -9 21 -5
68 6 63 5 70 -23 112 -17 25 -30 53 -30 62 0 18 -41 31 -87 28 -16 -1 -33 -2
-39 -1 -14 1 9 184 36 276 11 39 21 79 23 90 9 45 19 55 56 55 51 0 128 -27
175 -61 52 -37 76 -37 99 2 24 43 22 59 -9 59 -14 0 -43 13 -63 28 -49 38
-133 77 -207 96 -74 19 -90 19 -130 2z"/>
<path d="M6922 3348 c-9 -12 -89 -201 -168 -396 -119 -296 -143 -427 -90 -496
44 -59 86 -50 86 18 0 50 40 194 74 270 19 42 36 78 36 81 2 9 49 123 108 260
33 78 63 159 66 181 7 39 5 42 -31 67 -43 30 -65 34 -81 15z"/>
<path d="M183 3334 c-5 -14 11 -34 27 -34 3 0 11 4 19 9 19 12 6 41 -19 41
-11 0 -23 -7 -27 -16z"/>
<path d="M665 3330 c-4 -7 -3 -16 3 -22 14 -14 47 -6 47 12 0 18 -40 26 -50
10z"/>
<path d="M1147 3334 c-16 -16 -6 -34 19 -34 19 0 25 5 22 17 -3 19 -29 29 -41
17z"/>
<path d="M1630 3330 c-18 -11 -4 -42 17 -38 10 2 19 10 21 19 4 19 -19 31 -38
19z"/>
<path d="M2106 3315 c-7 -18 16 -30 40 -21 13 5 14 9 4 21 -16 19 -36 19 -44
0z"/>
<path d="M2601 3316 c-14 -17 -7 -36 14 -36 22 0 29 20 13 36 -13 13 -16 13
-27 0z"/>
<path d="M3087 3314 c-16 -16 -6 -35 16 -32 12 2 22 10 22 18 0 16 -26 25 -38
14z"/>
<path d="M3571 3306 c-9 -10 -8 -16 4 -26 19 -16 41 1 32 24 -8 20 -21 20 -36
2z"/>
<path d="M6665 3306 c-20 -14 -74 -176 -116 -345 -19 -77 -41 -143 -50 -152
-13 -13 -16 -27 -12 -53 3 -22 2 -36 -5 -36 -6 0 -39 -30 -73 -66 -77 -79
-182 -147 -266 -170 -70 -19 -97 -10 -88 30 2 11 7 38 10 60 6 37 7 38 38 31
89 -18 104 -17 160 10 79 37 157 142 157 212 0 64 -79 123 -164 123 -62 0
-121 -30 -201 -100 -83 -73 -135 -171 -142 -265 -4 -51 -1 -68 24 -115 34 -67
98 -111 171 -117 81 -8 220 56 296 136 37 39 46 28 38 -51 -4 -49 -1 -68 18
-109 23 -49 25 -50 64 -47 32 2 44 9 56 30 13 24 13 31 0 60 -18 43 -17 102 4
165 9 28 21 73 26 99 8 46 21 96 57 234 34 127 46 168 64 225 10 34 23 83 28
109 8 44 7 51 -16 76 -29 33 -56 42 -78 26z m-425 -503 c-1 -21 -54 -63 -80
-63 -9 0 0 14 24 35 37 34 56 43 56 28z"/>
<path d="M4055 3300 c-8 -14 3 -30 21 -30 8 0 14 9 14 20 0 21 -24 28 -35 10z"/>
<path d="M4545 3289 c-10 -15 1 -23 20 -15 9 3 13 10 10 16 -8 13 -22 13 -30
-1z"/>
<path d="M5036 3293 c-11 -11 -6 -23 9 -23 8 0 15 4 15 9 0 13 -16 22 -24 14z"/>
<path d="M5515 3281 c-7 -12 12 -24 25 -16 11 7 4 25 -10 25 -5 0 -11 -4 -15
-9z"/>
<path d="M6006 3283 c-11 -11 -6 -23 9 -23 8 0 15 4 15 9 0 13 -16 22 -24 14z"/>
<path d="M6482 3268 c6 -18 28 -21 28 -4 0 9 -7 16 -16 16 -9 0 -14 -5 -12
-12z"/>
<path d="M7454 3269 c-10 -17 13 -36 27 -22 12 12 4 33 -11 33 -5 0 -12 -5
-16 -11z"/>
<path d="M8924 3255 c-4 -10 -1 -21 7 -26 20 -12 34 -5 34 17 0 24 -33 31 -41
9z"/>
<path d="M9431 3261 c-19 -12 -6 -43 16 -39 10 2 18 12 18 22 0 22 -14 29 -34
17z"/>
<path d="M9927 3253 c-12 -12 -7 -31 10 -37 19 -8 48 17 39 33 -8 12 -39 15
-49 4z"/>
<path d="M9107 3212 c-19 -4 -37 -39 -37 -72 0 -31 34 -43 75 -26 43 18 52 39
32 70 -17 25 -40 34 -70 28z"/>
<path d="M9644 3072 c-28 -19 -24 -46 15 -106 39 -59 95 -206 121 -314 12 -51
11 -54 -14 -90 -57 -83 -20 -192 65 -192 34 0 38 3 53 40 9 22 16 65 16 94 0
31 8 73 19 98 10 24 22 59 26 78 4 19 13 40 21 47 7 8 11 20 7 29 -9 23 -38
12 -41 -16 -3 -28 -39 -57 -52 -43 -4 4 -22 57 -39 117 -51 181 -139 298 -197
258z"/>
<path d="M5555 2998 c-2 -7 -6 -49 -10 -93 -4 -50 -12 -86 -22 -97 -14 -15
-14 -19 1 -33 8 -9 20 -34 26 -56 7 -23 27 -56 51 -80 33 -33 45 -39 83 -39
54 0 73 14 171 130 87 103 92 126 42 164 -47 36 -72 33 -101 -11 -36 -57 -124
-140 -130 -122 -2 8 -6 48 -9 91 -3 68 -7 81 -36 117 -33 41 -58 52 -66 29z"/>
<path d="M5100 2975 c-16 -19 -16 -61 0 -80 7 -8 30 -18 51 -21 82 -13 189
-166 189 -270 0 -45 -4 -56 -22 -68 -35 -22 -86 -10 -103 25 -19 36 -19 80 0
105 27 36 16 94 -17 94 -26 0 -84 -35 -103 -63 -8 -12 -15 -39 -15 -60 0 -116
118 -224 249 -228 92 -4 136 49 135 162 0 56 -6 78 -41 150 -81 168 -271 317
-323 254z"/>
<path d="M4080 2943 c-76 -27 -142 -111 -167 -210 -10 -37 -18 -69 -19 -71 -1
-2 -20 8 -42 23 -111 74 -353 85 -500 24 -56 -23 -70 -46 -54 -89 5 -15 5 -60
1 -110 -5 -47 -11 -105 -14 -130 -2 -25 -14 -119 -25 -210 -36 -283 -31 -321
46 -349 33 -12 39 -12 50 4 7 9 16 43 19 74 4 31 16 115 27 186 11 72 24 155
28 185 8 48 17 127 19 154 1 5 7 3 15 -4 28 -22 112 -37 201 -35 106 3 191 30
236 78 l29 30 40 -45 c23 -27 60 -54 89 -67 43 -18 57 -20 97 -11 61 14 129
52 179 101 l40 39 36 -18 c24 -11 39 -27 45 -47 10 -34 54 -60 84 -50 14 4 27
29 45 88 40 125 116 228 157 212 15 -6 40 -51 59 -108 21 -61 58 -98 104 -104
33 -4 44 -1 61 19 46 50 35 106 -19 93 -23 -6 -26 -2 -42 46 -13 38 -34 69
-70 105 -83 83 -169 95 -241 32 -37 -33 -52 -33 -34 1 14 27 5 41 -24 41 -13
0 -29 7 -36 16 -22 26 -73 14 -89 -21 -61 -135 -173 -265 -266 -311 -61 -29
-81 -27 -95 11 -11 29 -14 135 -4 135 4 0 24 -5 44 -11 57 -17 105 -4 157 44
55 50 73 84 73 135 0 66 -89 133 -177 131 -26 0 -55 -3 -63 -6z m80 -132 c0
-11 -45 -41 -62 -41 -7 0 0 12 15 25 29 26 47 32 47 16z m-387 -206 c28 -12
15 -27 -46 -59 -45 -23 -73 -29 -145 -34 -82 -4 -91 -3 -111 17 -11 11 -21 32
-21 45 0 19 8 26 38 35 40 11 255 8 285 -4z"/>
<path d="M2000 2918 c-45 -48 -65 -102 -80 -221 -15 -120 10 -188 93 -248 51
-37 119 -39 185 -8 35 17 46 19 52 9 5 -7 28 -14 52 -14 39 -1 45 2 59 31 35
69 118 162 170 189 l29 15 0 -78 c1 -86 11 -109 53 -117 19 -3 33 1 46 15 23
25 51 131 51 193 0 41 -5 50 -44 88 -25 23 -43 45 -40 49 2 4 -5 11 -17 14
-13 4 -24 2 -29 -5 -4 -6 -30 -22 -59 -35 -60 -28 -152 -112 -191 -174 l-28
-44 -7 32 c-12 57 -59 66 -108 20 -28 -27 -96 -69 -112 -69 -3 0 -5 24 -5 53
0 81 32 187 56 187 9 0 14 12 14 35 0 38 -33 79 -78 96 -33 13 -39 12 -62 -13z"/>
<path d="M166 2854 c-8 -21 1 -34 23 -34 25 0 32 10 20 31 -12 23 -35 25 -43
3z"/>
<path d="M647 2853 c-4 -3 -7 -14 -7 -23 0 -10 -19 -25 -48 -38 -58 -26 -129
-94 -181 -171 -48 -72 -61 -111 -61 -175 0 -90 88 -207 165 -222 34 -6 119 16
172 44 17 9 52 28 76 41 l45 24 31 -22 c93 -67 176 -68 235 -2 13 15 26 19 47
14 25 -5 29 -2 29 16 0 11 -4 21 -10 21 -16 0 -12 26 8 43 41 37 182 64 182
35 0 -20 58 -77 86 -84 39 -10 56 12 48 60 -8 53 -22 78 -61 110 -47 39 -99
54 -165 47 -54 -7 -57 -6 -73 22 -21 34 -95 83 -148 98 -50 13 -123 -8 -188
-55 -72 -53 -91 -110 -64 -193 6 -19 4 -23 -13 -23 -11 0 -56 -13 -99 -29 -43
-16 -93 -32 -112 -36 l-34 -7 7 43 c4 24 15 60 25 79 27 52 139 166 191 195
75 41 92 47 155 54 58 6 60 7 63 37 3 28 -3 35 -43 62 -61 40 -89 45 -153 28
-45 -11 -54 -11 -59 0 -5 15 -35 19 -46 7z m380 -327 c-6 -15 -97 -50 -97 -37
0 21 92 78 98 61 2 -6 2 -17 -1 -24z"/>
<path d="M1122 2833 c2 -10 12 -18 23 -18 11 0 21 8 23 18 3 13 -3 17 -23 17
-20 0 -26 -4 -23 -17z"/>
<path d="M1612 2837 c-6 -7 -7 -19 -3 -26 7 -10 13 -11 30 -1 18 9 20 14 10
26 -14 17 -23 18 -37 1z"/>
<path d="M3066 2815 c-6 -17 17 -31 34 -20 5 3 10 13 10 21 0 19 -36 18 -44
-1z"/>
<path d="M3555 2820 c-4 -7 -3 -16 3 -22 14 -14 45 -2 40 15 -6 16 -34 21 -43
7z"/>
<path d="M9523 2796 c-24 -14 -55 -26 -70 -28 -18 -2 -29 -10 -33 -25 -3 -12
-17 -31 -32 -43 l-28 -21 -38 40 c-32 34 -46 41 -76 41 -53 0 -98 -22 -134
-66 -29 -35 -33 -37 -55 -25 -36 19 -70 10 -85 -22 -14 -29 -35 -195 -26 -209
9 -14 61 -9 75 8 11 14 14 13 26 -10 16 -31 59 -53 95 -50 48 5 92 35 193 134
55 54 127 116 160 138 57 39 60 39 73 21 8 -11 25 -19 43 -19 25 0 33 6 45 35
19 47 18 68 -7 99 -26 34 -69 34 -126 2z"/>
<path d="M5020 2795 c0 -8 7 -15 15 -15 8 0 15 7 15 15 0 8 -7 15 -15 15 -8 0
-15 -7 -15 -15z"/>
<path d="M6970 2780 c0 -5 5 -10 10 -10 6 0 10 5 10 10 0 6 -4 10 -10 10 -5 0
-10 -4 -10 -10z"/>
<path d="M7450 2776 c0 -10 9 -16 21 -16 24 0 21 23 -4 28 -10 2 -17 -3 -17
-12z"/>
<path d="M8930 2765 c-22 -27 12 -49 38 -23 8 8 9 15 1 25 -15 17 -24 16 -39
-2z"/>
<path d="M6922 2600 c-51 -37 -64 -58 -50 -85 6 -11 16 -23 22 -27 21 -14 67
-8 95 13 29 22 61 23 68 2 2 -6 -10 -19 -26 -29 -17 -10 -31 -26 -31 -34 0
-43 159 -70 180 -31 19 37 5 127 -26 158 -70 71 -162 84 -232 33z"/>
<path d="M149 2364 c-10 -13 -10 -17 2 -25 17 -11 21 -11 38 0 17 11 7 41 -12
41 -8 0 -20 -7 -28 -16z"/>
<path d="M1595 2350 c-4 -7 -3 -16 3 -22 14 -14 45 -2 40 15 -6 16 -34 21 -43
7z"/>
<path d="M2080 2329 c0 -25 33 -22 38 4 2 12 -3 17 -17 17 -15 0 -21 -6 -21
-21z"/>
<path d="M2567 2344 c-16 -16 -6 -34 19 -34 19 0 25 5 22 17 -3 19 -29 29 -41
17z"/>
<path d="M3060 2335 c-12 -14 -11 -18 1 -26 19 -12 26 -11 35 2 3 6 0 17 -8
25 -13 13 -16 13 -28 -1z"/>
<path d="M3550 2330 c-11 -7 -12 -12 -3 -21 14 -14 46 -4 41 13 -6 16 -20 19
-38 8z"/>
<path d="M4030 2315 c0 -8 9 -15 20 -15 11 0 20 7 20 15 0 8 -9 15 -20 15 -11
0 -20 -7 -20 -15z"/>
<path d="M4524 2319 c-10 -17 13 -36 27 -22 12 12 4 33 -11 33 -5 0 -12 -5
-16 -11z"/>
<path d="M5012 2308 c6 -18 28 -21 28 -4 0 9 -7 16 -16 16 -9 0 -14 -5 -12
-12z"/>
<path d="M5505 2310 c-4 -6 -3 -16 3 -22 6 -6 12 -6 17 2 4 6 3 16 -3 22 -6 6
-12 6 -17 -2z"/>
<path d="M5990 2300 c0 -5 7 -10 16 -10 8 0 12 5 9 10 -3 6 -10 10 -16 10 -5
0 -9 -4 -9 -10z"/>
<path d="M6962 2288 c5 -15 28 -18 29 -3 0 6 -7 12 -17 13 -10 3 -15 -1 -12
-10z"/>
<path d="M7457 2294 c-13 -13 -7 -24 14 -24 11 0 19 5 17 12 -5 14 -22 21 -31
12z"/>
<path d="M7942 2273 c2 -10 10 -18 18 -18 8 0 16 8 18 18 2 12 -3 17 -18 17
-15 0 -20 -5 -18 -17z"/>
<path d="M8435 2280 c-4 -7 -3 -16 3 -22 14 -14 45 -2 40 15 -6 16 -34 21 -43
7z"/>
<path d="M8941 2277 c-6 -6 -11 -17 -11 -25 0 -19 44 -11 48 9 4 20 -22 31
-37 16z"/>
<path d="M9434 2265 c-4 -9 -2 -21 4 -27 15 -15 44 -1 40 19 -4 23 -36 29 -44
8z"/>
<path d="M9935 2260 c-9 -15 4 -30 26 -30 12 0 19 7 19 20 0 21 -33 29 -45 10z"/>
<path d="M2175 1899 c-18 -9 -20 -22 -23 -161 -2 -98 -10 -185 -22 -250 -11
-55 -20 -109 -20 -121 0 -16 -3 -18 -9 -9 -11 18 -46 11 -46 -8 0 -9 11 -16
28 -18 20 -2 27 -8 23 -17 -12 -31 -28 -234 -23 -288 6 -68 29 -99 92 -128 60
-28 88 -24 126 16 22 23 42 35 60 35 54 0 69 42 94 266 7 68 -16 100 -81 110
-43 6 -45 8 -40 33 11 50 35 237 44 341 8 93 7 108 -8 130 -35 50 -151 92
-195 69z"/>
<path d="M147 1889 c-21 -12 -22 -35 -2 -43 20 -7 45 3 45 19 0 21 -23 35 -43
24z"/>
<path d="M613 1867 c-4 -7 -21 -17 -38 -22 -29 -10 -30 -13 -36 -80 -6 -75
-22 -164 -46 -260 -9 -33 -22 -85 -29 -115 -7 -30 -20 -82 -29 -115 -8 -33
-19 -76 -24 -95 -28 -106 -34 -130 -53 -178 -35 -90 -10 -122 111 -141 34 -5
65 -12 70 -16 5 -3 30 0 55 7 33 9 46 17 46 30 0 10 -7 18 -16 18 -12 0 -15 6
-9 23 8 27 21 90 29 137 3 20 12 51 20 70 8 19 17 58 21 85 4 28 11 55 15 60
9 12 38 144 43 196 5 49 15 63 33 48 23 -19 21 -26 -47 -274 -31 -110 -45
-247 -30 -295 17 -58 72 -93 130 -84 44 7 61 25 61 67 0 14 7 30 15 37 8 7 13
16 10 20 -3 5 -1 11 3 14 5 3 9 25 9 49 1 25 8 58 17 75 9 17 16 36 16 42 0 7
6 26 14 43 20 45 46 141 45 168 -1 38 12 112 23 135 13 27 -9 71 -51 107 -36
30 -130 67 -170 67 -25 0 -30 5 -36 38 -7 39 -30 72 -50 72 -7 0 -18 7 -25 15
-7 8 -21 15 -31 15 -16 0 -18 5 -13 25 5 22 3 25 -19 25 -14 0 -30 -6 -34 -13z"/>
<path d="M1107 1873 c-4 -3 -7 -15 -7 -25 0 -23 38 -25 47 -2 8 21 -24 43 -40
27z"/>
<path d="M1587 1864 c-16 -16 -6 -34 19 -34 19 0 25 5 22 17 -3 19 -29 29 -41
17z"/>
<path d="M2065 1850 c-9 -15 4 -30 26 -30 12 0 19 7 19 20 0 21 -33 29 -45 10z"/>
<path d="M2525 1853 c-28 -7 -45 -22 -40 -36 2 -7 9 -37 15 -69 15 -75 47
-111 93 -103 47 9 57 17 61 53 3 17 7 41 11 52 10 32 -3 56 -45 84 -39 25 -55
29 -95 19z"/>
<path d="M3042 1833 c2 -10 10 -18 18 -18 8 0 16 8 18 18 2 12 -3 17 -18 17
-15 0 -20 -5 -18 -17z"/>
<path d="M3535 1840 c-8 -14 3 -30 21 -30 8 0 14 9 14 20 0 21 -24 28 -35 10z"/>
<path d="M4020 1825 c0 -8 9 -15 20 -15 11 0 20 7 20 15 0 8 -9 15 -20 15 -11
0 -20 -7 -20 -15z"/>
<path d="M4514 1829 c-10 -17 13 -36 27 -22 12 12 4 33 -11 33 -5 0 -12 -5
-16 -11z"/>
<path d="M5002 1818 c5 -15 28 -18 29 -3 0 6 -7 12 -17 13 -10 3 -15 -1 -12
-10z"/>
<path d="M5490 1811 c0 -5 7 -11 15 -15 9 -3 15 0 15 9 0 8 -7 15 -15 15 -8 0
-15 -4 -15 -9z"/>
<path d="M5987 1814 c-8 -8 1 -24 14 -24 5 0 9 7 9 15 0 15 -12 20 -23 9z"/>
<path d="M6480 1800 c0 -5 5 -10 10 -10 6 0 10 5 10 10 0 6 -4 10 -10 10 -5 0
-10 -4 -10 -10z"/>
<path d="M6962 1798 c6 -18 28 -21 28 -4 0 9 -7 16 -16 16 -9 0 -14 -5 -12
-12z"/>
<path d="M7457 1804 c-14 -14 -7 -35 11 -32 9 2 17 10 17 17 0 16 -18 25 -28
15z"/>
<path d="M7945 1791 c-8 -15 3 -31 21 -31 9 0 14 7 12 17 -4 20 -24 28 -33 14z"/>
<path d="M8434 1779 c-9 -15 12 -33 30 -26 9 4 16 13 16 22 0 17 -35 21 -46 4z"/>
<path d="M8941 1776 c-9 -10 -8 -16 4 -26 19 -16 41 1 32 24 -8 20 -21 20 -36
2z"/>
<path d="M9434 1769 c-3 -6 1 -18 10 -27 15 -15 17 -15 32 0 9 9 13 21 10 27
-9 14 -43 14 -52 0z"/>
<path d="M9947 1774 c-4 -4 -7 -16 -7 -26 0 -14 6 -19 23 -16 14 2 22 10 22
23 0 20 -25 32 -38 19z"/>
<path d="M1325 1481 c-56 -10 -82 -26 -140 -85 -152 -156 -226 -369 -184 -531
13 -50 41 -80 102 -111 124 -64 198 -43 378 108 71 59 133 108 136 108 7 0 7
0 89 -106 34 -44 121 -142 194 -219 160 -169 186 -205 170 -232 -25 -40 -129
-90 -230 -109 -112 -22 -280 -3 -280 32 0 8 5 14 10 14 15 0 12 28 -4 37 -9 5
-16 28 -18 63 -3 51 -5 55 -28 58 -27 3 -46 -15 -117 -105 -53 -67 -41 -102
52 -151 98 -52 200 -72 370 -73 94 -1 140 4 212 21 122 30 220 83 246 133 19
37 19 39 1 80 -11 23 -49 73 -86 112 -38 38 -68 72 -68 74 0 2 -44 50 -99 105
-120 123 -178 189 -222 252 -28 40 -33 59 -37 118 -4 83 -39 159 -82 180 -8 4
-26 13 -40 21 -29 17 -96 20 -105 5 -14 -22 -20 -7 -20 49 0 53 -4 64 -30 92
-47 49 -106 70 -170 60z m199 -314 c14 -42 14 -51 1 -76 -22 -44 -180 -176
-258 -216 -73 -37 -89 -36 -89 6 0 127 23 218 53 210 8 -2 42 -6 77 -9 75 -5
108 13 161 89 19 27 35 48 36 47 2 -2 10 -25 19 -51z"/>
<path d="M2855 1455 c-60 -19 -98 -41 -150 -87 -54 -47 -145 -172 -145 -199 0
-10 -4 -20 -9 -23 -16 -10 -33 -104 -26 -145 15 -88 101 -117 117 -39 7 33 39
102 57 120 4 4 26 -2 50 -14 24 -12 68 -24 97 -26 91 -8 137 35 222 207 60
119 56 150 -23 189 -53 26 -139 34 -190 17z m-5 -219 c-31 -43 -57 -62 -68
-51 -3 3 16 28 43 55 27 27 51 48 53 45 2 -2 -10 -24 -28 -49z"/>
<path d="M124 1389 c-8 -14 21 -43 35 -35 19 12 13 46 -8 46 -11 0 -23 -5 -27
-11z"/>
<path d="M1097 1383 c-12 -11 -7 -43 6 -43 19 0 36 20 30 36 -5 15 -25 19 -36
7z"/>
<path d="M1574 1365 c-8 -19 12 -36 33 -28 19 7 12 37 -10 41 -9 2 -20 -4 -23
-13z"/>
<path d="M2544 1355 c-10 -26 13 -42 32 -23 15 15 15 17 -5 27 -17 10 -22 9
-27 -4z"/>
<path d="M3522 1333 c2 -10 10 -18 18 -18 8 0 16 8 18 18 2 12 -3 17 -18 17
-15 0 -20 -5 -18 -17z"/>
<path d="M4017 1344 c-14 -14 -7 -35 11 -32 9 2 17 10 17 17 0 16 -18 25 -28
15z"/>
<path d="M4500 1325 c0 -8 9 -15 20 -15 11 0 20 7 20 15 0 8 -9 15 -20 15 -11
0 -20 -7 -20 -15z"/>
<path d="M4994 1329 c-10 -17 13 -36 27 -22 12 12 4 33 -11 33 -5 0 -12 -5
-16 -11z"/>
<path d="M5487 1323 c-13 -12 -7 -23 13 -23 11 0 20 7 20 15 0 15 -21 21 -33
8z"/>
<path d="M5980 1310 c0 -5 7 -10 16 -10 8 0 12 5 9 10 -3 6 -10 10 -16 10 -5
0 -9 -4 -9 -10z"/>
<path d="M6465 1310 c-3 -6 1 -13 10 -16 19 -8 30 0 20 15 -8 14 -22 14 -30 1z"/>
<path d="M6960 1295 c0 -8 7 -15 15 -15 8 0 15 7 15 15 0 8 -7 15 -15 15 -8 0
-15 -7 -15 -15z"/>
<path d="M7454 1299 c-10 -17 13 -36 27 -22 12 12 4 33 -11 33 -5 0 -12 -5
-16 -11z"/>
<path d="M7946 1285 c-3 -9 1 -18 10 -22 19 -7 39 11 30 26 -10 16 -33 13 -40
-4z"/>
<path d="M8442 1273 c4 -22 43 -25 43 -3 0 8 -11 16 -23 18 -19 3 -23 0 -20
-15z"/>
<path d="M8943 1274 c-3 -8 -1 -20 6 -27 14 -14 47 15 37 32 -10 16 -36 13
-43 -5z"/>
<path d="M9444 1265 c-4 -9 -2 -21 4 -27 15 -15 44 -1 40 19 -4 23 -36 29 -44
8z"/>
<path d="M9952 1268 c-20 -20 -14 -38 14 -38 20 0 25 4 22 22 -4 26 -19 33
-36 16z"/>
<path d="M104 895 c-4 -9 -2 -21 4 -27 15 -15 54 1 50 20 -4 23 -46 28 -54 7z"/>
<path d="M1562 878 c-20 -20 -14 -40 11 -36 14 2 22 10 22 22 0 24 -16 31 -33
14z"/>
<path d="M2047 873 c-12 -11 -7 -43 6 -43 19 0 36 20 30 36 -5 15 -25 19 -36
7z"/>
<path d="M2527 864 c-16 -16 -6 -34 19 -34 19 0 25 5 22 17 -3 19 -29 29 -41
17z"/>
<path d="M3015 850 c-4 -7 -3 -16 3 -22 14 -14 45 -2 40 15 -6 16 -34 21 -43
7z"/>
<path d="M3503 844 c-8 -20 9 -36 30 -28 21 8 22 30 1 38 -22 8 -24 8 -31 -10z"/>
<path d="M3996 841 c-9 -15 23 -36 36 -23 5 5 7 15 4 21 -9 13 -33 14 -40 2z"/>
<path d="M4497 844 c-14 -15 -6 -34 14 -34 14 0 19 5 17 17 -3 18 -20 27 -31
17z"/>
<path d="M4982 824 c2 -11 11 -20 22 -22 13 -3 17 1 14 14 -2 11 -11 20 -22
22 -13 3 -17 -1 -14 -14z"/>
<path d="M5474 819 c-10 -17 13 -36 27 -22 12 12 4 33 -11 33 -5 0 -12 -5 -16
-11z"/>
<path d="M5972 808 c6 -18 28 -21 28 -4 0 9 -7 16 -16 16 -9 0 -14 -5 -12 -12z"/>
<path d="M6467 814 c-13 -13 -7 -24 14 -24 11 0 19 5 17 12 -5 14 -22 21 -31
12z"/>
<path d="M6956 801 c-7 -11 18 -33 27 -24 4 3 7 12 7 20 0 15 -26 18 -34 4z"/>
<path d="M7450 785 c0 -8 9 -15 20 -15 11 0 20 7 20 15 0 8 -9 15 -20 15 -11
0 -20 -7 -20 -15z"/>
<path d="M7951 786 c-10 -12 -8 -17 8 -25 22 -12 37 0 27 24 -7 19 -20 19 -35
1z"/>
<path d="M8446 773 c-8 -19 10 -34 31 -26 7 3 13 14 13 24 0 24 -35 26 -44 2z"/>
<path d="M8956 777 c-22 -16 -14 -37 14 -37 25 0 32 13 17 34 -11 14 -15 15
-31 3z"/>
<path d="M9453 769 c-16 -16 -5 -39 18 -39 24 0 37 29 18 41 -18 11 -23 11
-36 -2z"/>
<path d="M9953 754 c-3 -8 -1 -20 5 -26 16 -16 42 -2 42 22 0 24 -38 28 -47 4z"/>
<path d="M84 405 c-8 -20 4 -35 26 -35 25 0 35 17 20 35 -16 19 -39 19 -46 0z"/>
<path d="M570 394 c-11 -12 -11 -18 1 -30 13 -12 18 -12 34 -1 11 9 16 20 12
31 -8 20 -31 21 -47 0z"/>
<path d="M1054 385 c-4 -9 -2 -21 4 -27 15 -15 44 -1 40 19 -4 23 -36 29 -44
8z"/>
<path d="M2505 360 c-4 -7 -3 -16 3 -22 14 -14 45 -2 40 15 -6 16 -34 21 -43
7z"/>
<path d="M3000 355 c-15 -18 -5 -35 21 -35 12 0 19 7 19 19 0 24 -25 34 -40
16z"/>
<path d="M3490 340 c-9 -16 -8 -22 5 -26 21 -8 39 10 32 30 -9 22 -24 20 -37
-4z"/>
<path d="M3987 343 c-14 -13 -6 -33 13 -33 13 0 20 7 20 20 0 19 -20 27 -33
13z"/>
<path d="M4482 323 c2 -10 10 -18 18 -18 22 0 18 29 -3 33 -14 3 -18 -1 -15
-15z"/>
<path d="M4977 334 c-14 -15 -6 -34 14 -34 14 0 19 5 17 17 -3 18 -20 27 -31
17z"/>
<path d="M5470 310 c0 -15 5 -20 18 -18 9 2 17 10 17 18 0 8 -8 16 -17 18 -13
2 -18 -3 -18 -18z"/>
<path d="M5964 309 c-8 -14 11 -33 25 -25 16 10 13 36 -3 36 -8 0 -18 -5 -22
-11z"/>
<path d="M6466 313 c-12 -12 -6 -33 9 -33 8 0 15 6 15 14 0 17 -14 28 -24 19z"/>
<path d="M6950 285 c0 -8 9 -15 20 -15 11 0 20 7 20 15 0 8 -9 15 -20 15 -11
0 -20 -7 -20 -15z"/>
<path d="M7457 293 c-14 -13 -6 -33 13 -33 13 0 20 7 20 20 0 19 -20 27 -33
13z"/>
<path d="M7957 284 c-16 -16 -6 -35 16 -32 12 2 22 10 22 18 0 16 -26 25 -38
14z"/>
<path d="M8450 260 c0 -15 7 -20 25 -20 18 0 25 5 25 20 0 15 -7 20 -25 20
-18 0 -25 -5 -25 -20z"/>
<path d="M8956 265 c-11 -28 -7 -35 20 -35 21 0 25 4 22 22 -4 27 -33 36 -42
13z"/>
<path d="M9454 255 c-10 -24 12 -42 34 -29 24 16 21 38 -6 42 -13 2 -25 -3
-28 -13z"/>
<path d="M9960 255 c-9 -11 -10 -19 -3 -26 17 -17 48 -6 48 16 0 25 -28 31
-45 10z"/>
</g>
</svg>
